M48
; DRILL file {KiCad (6.0.7)} date Tue Sep 27 00:45:40 2022
; FORMAT={-:-/ absolute / metric / decimal}
; #@! TF.CreationDate,2022-09-27T00:45:40+02:00
; #@! TF.GenerationSoftware,Kicad,Pcbnew,(6.0.7)
; #@! TF.FileFunction,Plated,1,2,PTH
FMAT,2
METRIC
; #@! TA.AperFunction,Plated,PTH,ComponentDrill
T1C0.300
; #@! TA.AperFunction,Plated,PTH,ViaDrill
T2C0.400
; #@! TA.AperFunction,Plated,PTH,ComponentDrill
T3C0.400
; #@! TA.AperFunction,Plated,PTH,ComponentDrill
T4C0.500
; #@! TA.AperFunction,Plated,PTH,ComponentDrill
T5C0.700
; #@! TA.AperFunction,Plated,PTH,ComponentDrill
T6C1.000
; #@! TA.AperFunction,Plated,PTH,ComponentDrill
T7C1.200
; #@! TA.AperFunction,Plated,PTH,ComponentDrill
T8C1.600
; #@! TA.AperFunction,Plated,PTH,ComponentDrill
T9C2.200
%
G90
G05
T1
X52.6Y-90.2
T2
X45.624Y-45.785
T3
X49.15Y-40.0
X49.633Y-38.833
X49.633Y-41.167
X50.8Y-38.35
X50.8Y-41.65
X51.967Y-38.833
X51.967Y-41.167
X52.45Y-40.0
X69.4Y-85.3
X71.4Y-85.3
X71.4Y-90.3
X73.4Y-85.3
X73.4Y-90.3
X75.4Y-85.3
X75.4Y-90.3
X77.4Y-85.3
X77.4Y-90.3
X79.4Y-85.3
X79.4Y-90.3
X81.4Y-85.3
X81.4Y-90.3
X83.4Y-85.3
X83.4Y-90.3
X85.4Y-85.3
X85.4Y-90.3
X87.4Y-85.3
X87.4Y-90.3
T4
X78.5Y-33.2
X84.1Y-33.2
X89.5Y-33.1
T5
X78.7Y-35.8
X80.7Y-35.8
T6
X38.076Y-40.175
X38.076Y-42.715
X38.076Y-45.255
X38.076Y-47.795
X38.076Y-50.335
X85.6Y-36.9
X105.664Y-39.986
X105.664Y-42.526
X105.664Y-45.066
X105.664Y-47.606
X105.664Y-50.146
T7
X33.7Y-34.3
X61.9Y-93.1
X104.3Y-33.9
T8
X89.8Y-37.0
T9
X50.8Y-40.0
X55.6Y-34.6
X60.7Y-34.7
T0
M30
