G04 #@! TF.GenerationSoftware,KiCad,Pcbnew,(6.0.7)*
G04 #@! TF.CreationDate,2022-09-27T00:45:36+02:00*
G04 #@! TF.ProjectId,hamodule,68616d6f-6475-46c6-952e-6b696361645f,20220918.20*
G04 #@! TF.SameCoordinates,Original*
G04 #@! TF.FileFunction,Paste,Bot*
G04 #@! TF.FilePolarity,Positive*
%FSLAX46Y46*%
G04 Gerber Fmt 4.6, Leading zero omitted, Abs format (unit mm)*
G04 Created by KiCad (PCBNEW (6.0.7)) date 2022-09-27 00:45:36*
%MOMM*%
%LPD*%
G01*
G04 APERTURE LIST*
G04 Aperture macros list*
%AMRoundRect*
0 Rectangle with rounded corners*
0 $1 Rounding radius*
0 $2 $3 $4 $5 $6 $7 $8 $9 X,Y pos of 4 corners*
0 Add a 4 corners polygon primitive as box body*
4,1,4,$2,$3,$4,$5,$6,$7,$8,$9,$2,$3,0*
0 Add four circle primitives for the rounded corners*
1,1,$1+$1,$2,$3*
1,1,$1+$1,$4,$5*
1,1,$1+$1,$6,$7*
1,1,$1+$1,$8,$9*
0 Add four rect primitives between the rounded corners*
20,1,$1+$1,$2,$3,$4,$5,0*
20,1,$1+$1,$4,$5,$6,$7,0*
20,1,$1+$1,$6,$7,$8,$9,0*
20,1,$1+$1,$8,$9,$2,$3,0*%
G04 Aperture macros list end*
%ADD10RoundRect,0.250000X0.412500X0.650000X-0.412500X0.650000X-0.412500X-0.650000X0.412500X-0.650000X0*%
%ADD11RoundRect,0.237500X0.300000X0.237500X-0.300000X0.237500X-0.300000X-0.237500X0.300000X-0.237500X0*%
%ADD12RoundRect,0.079500X0.079500X0.100500X-0.079500X0.100500X-0.079500X-0.100500X0.079500X-0.100500X0*%
G04 APERTURE END LIST*
D10*
X90600000Y-79100000D03*
X87475000Y-79100000D03*
D11*
X98737500Y-68700000D03*
X97012500Y-68700000D03*
D12*
X49195000Y-59600000D03*
X49885000Y-59600000D03*
D10*
X99400000Y-81300000D03*
X96275000Y-81300000D03*
D11*
X41637500Y-66300000D03*
X39912500Y-66300000D03*
X98737500Y-67600000D03*
X97012500Y-67600000D03*
D10*
X81680000Y-79100000D03*
X78555000Y-79100000D03*
D12*
X88575000Y-59700000D03*
X89265000Y-59700000D03*
X88555000Y-60200000D03*
X89245000Y-60200000D03*
X40255000Y-60100000D03*
X40945000Y-60100000D03*
D11*
X80980000Y-65200000D03*
X79255000Y-65200000D03*
D10*
X81680000Y-77000000D03*
X78555000Y-77000000D03*
X90600000Y-77000000D03*
X87475000Y-77000000D03*
X90600000Y-81200000D03*
X87475000Y-81200000D03*
D11*
X98737500Y-66500000D03*
X97012500Y-66500000D03*
X50520000Y-65100000D03*
X48795000Y-65100000D03*
D10*
X42300000Y-81100000D03*
X39175000Y-81100000D03*
D11*
X50557500Y-66300000D03*
X48832500Y-66300000D03*
D12*
X57995000Y-59700000D03*
X58685000Y-59700000D03*
D10*
X60020000Y-81200000D03*
X56895000Y-81200000D03*
X60020000Y-77000000D03*
X56895000Y-77000000D03*
D12*
X40255000Y-58500000D03*
X40945000Y-58500000D03*
D11*
X98700000Y-65300000D03*
X96975000Y-65300000D03*
D12*
X97355000Y-59300000D03*
X98045000Y-59300000D03*
D10*
X60020000Y-79100000D03*
X56895000Y-79100000D03*
D12*
X97355000Y-58700000D03*
X98045000Y-58700000D03*
X49175000Y-58500000D03*
X49865000Y-58500000D03*
D11*
X41637500Y-68500000D03*
X39912500Y-68500000D03*
D10*
X81680000Y-74800000D03*
X78555000Y-74800000D03*
X51220000Y-81100000D03*
X48095000Y-81100000D03*
D11*
X89937500Y-68600000D03*
X88212500Y-68600000D03*
D10*
X90600000Y-74800000D03*
X87475000Y-74800000D03*
X51220000Y-79000000D03*
X48095000Y-79000000D03*
D12*
X57975000Y-59200000D03*
X58665000Y-59200000D03*
X79635000Y-59200000D03*
X80325000Y-59200000D03*
D10*
X99400000Y-74900000D03*
X96275000Y-74900000D03*
X42300000Y-79000000D03*
X39175000Y-79000000D03*
D11*
X81017500Y-66400000D03*
X79292500Y-66400000D03*
D10*
X99400000Y-79200000D03*
X96275000Y-79200000D03*
X42300000Y-74700000D03*
X39175000Y-74700000D03*
D11*
X89900000Y-65200000D03*
X88175000Y-65200000D03*
D12*
X79635000Y-58600000D03*
X80325000Y-58600000D03*
X79655000Y-59700000D03*
X80345000Y-59700000D03*
D10*
X81680000Y-81200000D03*
X78555000Y-81200000D03*
D11*
X41637500Y-67400000D03*
X39912500Y-67400000D03*
D10*
X51220000Y-74700000D03*
X48095000Y-74700000D03*
X99400000Y-77100000D03*
X96275000Y-77100000D03*
D11*
X59357500Y-66400000D03*
X57632500Y-66400000D03*
D10*
X60020000Y-74800000D03*
X56895000Y-74800000D03*
D11*
X89937500Y-67500000D03*
X88212500Y-67500000D03*
D12*
X49175000Y-60100000D03*
X49865000Y-60100000D03*
X40275000Y-59600000D03*
X40965000Y-59600000D03*
D10*
X51220000Y-76900000D03*
X48095000Y-76900000D03*
D12*
X79635000Y-60200000D03*
X80325000Y-60200000D03*
X97375000Y-59800000D03*
X98065000Y-59800000D03*
X40255000Y-59100000D03*
X40945000Y-59100000D03*
X88555000Y-59200000D03*
X89245000Y-59200000D03*
D11*
X50557500Y-68500000D03*
X48832500Y-68500000D03*
X81017500Y-67500000D03*
X79292500Y-67500000D03*
D12*
X57975000Y-60200000D03*
X58665000Y-60200000D03*
D10*
X42300000Y-76900000D03*
X39175000Y-76900000D03*
D11*
X41600000Y-65100000D03*
X39875000Y-65100000D03*
X59320000Y-65200000D03*
X57595000Y-65200000D03*
X59357500Y-68600000D03*
X57632500Y-68600000D03*
X59357500Y-67500000D03*
X57632500Y-67500000D03*
X89937500Y-66400000D03*
X88212500Y-66400000D03*
D12*
X57975000Y-58600000D03*
X58665000Y-58600000D03*
D11*
X50557500Y-67400000D03*
X48832500Y-67400000D03*
D12*
X88555000Y-58600000D03*
X89245000Y-58600000D03*
X97355000Y-60300000D03*
X98045000Y-60300000D03*
X49175000Y-59100000D03*
X49865000Y-59100000D03*
D11*
X81017500Y-68600000D03*
X79292500Y-68600000D03*
M02*
