G04 #@! TF.GenerationSoftware,KiCad,Pcbnew,(6.0.7)*
G04 #@! TF.CreationDate,2022-09-27T00:45:36+02:00*
G04 #@! TF.ProjectId,hamodule,68616d6f-6475-46c6-952e-6b696361645f,20220918.20*
G04 #@! TF.SameCoordinates,Original*
G04 #@! TF.FileFunction,Copper,L2,Bot*
G04 #@! TF.FilePolarity,Positive*
%FSLAX46Y46*%
G04 Gerber Fmt 4.6, Leading zero omitted, Abs format (unit mm)*
G04 Created by KiCad (PCBNEW (6.0.7)) date 2022-09-27 00:45:36*
%MOMM*%
%LPD*%
G01*
G04 APERTURE LIST*
G04 Aperture macros list*
%AMRoundRect*
0 Rectangle with rounded corners*
0 $1 Rounding radius*
0 $2 $3 $4 $5 $6 $7 $8 $9 X,Y pos of 4 corners*
0 Add a 4 corners polygon primitive as box body*
4,1,4,$2,$3,$4,$5,$6,$7,$8,$9,$2,$3,0*
0 Add four circle primitives for the rounded corners*
1,1,$1+$1,$2,$3*
1,1,$1+$1,$4,$5*
1,1,$1+$1,$6,$7*
1,1,$1+$1,$8,$9*
0 Add four rect primitives between the rounded corners*
20,1,$1+$1,$2,$3,$4,$5,0*
20,1,$1+$1,$4,$5,$6,$7,0*
20,1,$1+$1,$6,$7,$8,$9,0*
20,1,$1+$1,$8,$9,$2,$3,0*%
G04 Aperture macros list end*
G04 #@! TA.AperFunction,EtchedComponent*
%ADD10C,1.000000*%
G04 #@! TD*
G04 #@! TA.AperFunction,ComponentPad*
%ADD11R,2.500000X2.500000*%
G04 #@! TD*
G04 #@! TA.AperFunction,ComponentPad*
%ADD12R,1.000000X1.000000*%
G04 #@! TD*
G04 #@! TA.AperFunction,ConnectorPad*
%ADD13C,3.500000*%
G04 #@! TD*
G04 #@! TA.AperFunction,ComponentPad*
%ADD14C,2.600000*%
G04 #@! TD*
G04 #@! TA.AperFunction,ComponentPad*
%ADD15R,1.700000X1.700000*%
G04 #@! TD*
G04 #@! TA.AperFunction,ComponentPad*
%ADD16O,1.700000X1.700000*%
G04 #@! TD*
G04 #@! TA.AperFunction,ComponentPad*
%ADD17C,1.000000*%
G04 #@! TD*
G04 #@! TA.AperFunction,ComponentPad*
%ADD18C,2.000000*%
G04 #@! TD*
G04 #@! TA.AperFunction,ComponentPad*
%ADD19R,0.900000X0.500000*%
G04 #@! TD*
G04 #@! TA.AperFunction,ComponentPad*
%ADD20C,1.400000*%
G04 #@! TD*
G04 #@! TA.AperFunction,ComponentPad*
%ADD21C,2.800000*%
G04 #@! TD*
G04 #@! TA.AperFunction,ComponentPad*
%ADD22C,0.700000*%
G04 #@! TD*
G04 #@! TA.AperFunction,ComponentPad*
%ADD23C,4.400000*%
G04 #@! TD*
G04 #@! TA.AperFunction,SMDPad,CuDef*
%ADD24RoundRect,0.250000X0.412500X0.650000X-0.412500X0.650000X-0.412500X-0.650000X0.412500X-0.650000X0*%
G04 #@! TD*
G04 #@! TA.AperFunction,SMDPad,CuDef*
%ADD25RoundRect,0.237500X0.300000X0.237500X-0.300000X0.237500X-0.300000X-0.237500X0.300000X-0.237500X0*%
G04 #@! TD*
G04 #@! TA.AperFunction,SMDPad,CuDef*
%ADD26C,2.500000*%
G04 #@! TD*
G04 #@! TA.AperFunction,SMDPad,CuDef*
%ADD27RoundRect,0.100000X0.130000X0.100000X-0.130000X0.100000X-0.130000X-0.100000X0.130000X-0.100000X0*%
G04 #@! TD*
G04 #@! TA.AperFunction,ViaPad*
%ADD28C,0.800000*%
G04 #@! TD*
G04 #@! TA.AperFunction,Conductor*
%ADD29C,0.250000*%
G04 #@! TD*
G04 #@! TA.AperFunction,Conductor*
%ADD30C,0.600000*%
G04 #@! TD*
G04 #@! TA.AperFunction,Conductor*
%ADD31C,0.200000*%
G04 #@! TD*
G04 APERTURE END LIST*
D10*
X77400000Y-85300000D02*
X78400000Y-86300000D01*
X73400000Y-85300000D02*
X74400000Y-86300000D01*
X70400000Y-89300000D02*
X71400000Y-90300000D01*
X74400000Y-86300000D02*
X74400000Y-89300000D01*
X76400000Y-86300000D02*
X76400000Y-89300000D01*
X71400000Y-85300000D02*
X72400000Y-86300000D01*
X86400000Y-86300000D02*
X86400000Y-89300000D01*
X81400000Y-85300000D02*
X82400000Y-86300000D01*
X83400000Y-85300000D02*
X84400000Y-86300000D01*
X76400000Y-89300000D02*
X77400000Y-90300000D01*
X85400000Y-85300000D02*
X86400000Y-86300000D01*
X69400000Y-85300000D02*
X70400000Y-86300000D01*
X79400000Y-85300000D02*
X80400000Y-86300000D01*
X84400000Y-86300000D02*
X84400000Y-89300000D01*
X75400000Y-85300000D02*
X76400000Y-86300000D01*
X80400000Y-86300000D02*
X80400000Y-89300000D01*
X72400000Y-89300000D02*
X73400000Y-90300000D01*
X70400000Y-86300000D02*
X70400000Y-89300000D01*
X84400000Y-89300000D02*
X85400000Y-90300000D01*
X86400000Y-89300000D02*
X87400000Y-90300000D01*
X80400000Y-89300000D02*
X81400000Y-90300000D01*
X78400000Y-89300000D02*
X79400000Y-90300000D01*
X74400000Y-89300000D02*
X75400000Y-90300000D01*
X72400000Y-86300000D02*
X72400000Y-89300000D01*
X78400000Y-86300000D02*
X78400000Y-89300000D01*
X82400000Y-86300000D02*
X82400000Y-89300000D01*
X82400000Y-89300000D02*
X83400000Y-90300000D01*
D11*
X61900000Y-93100000D03*
X104300000Y-33900000D03*
X33700000Y-34300000D03*
D12*
X78500000Y-33200000D03*
D13*
X55600000Y-34600000D03*
D14*
X55600000Y-34600000D03*
D15*
X38076000Y-40175000D03*
D16*
X38076000Y-42715000D03*
X38076000Y-45255000D03*
X38076000Y-47795000D03*
X38076000Y-50335000D03*
D12*
X89500000Y-33100000D03*
D15*
X105664000Y-50146000D03*
D16*
X105664000Y-47606000D03*
X105664000Y-45066000D03*
X105664000Y-42526000D03*
X105664000Y-39986000D03*
D17*
X71400000Y-85300000D03*
X73400000Y-90300000D03*
X85400000Y-85300000D03*
X81400000Y-90300000D03*
X77400000Y-90300000D03*
X73400000Y-85300000D03*
X79400000Y-90300000D03*
X75400000Y-85300000D03*
X77400000Y-85300000D03*
X75400000Y-90300000D03*
X79400000Y-85300000D03*
X83400000Y-85300000D03*
X87400000Y-85300000D03*
X85400000Y-90300000D03*
X71400000Y-90300000D03*
X87400000Y-90300000D03*
X81400000Y-85300000D03*
X69400000Y-85300000D03*
X83400000Y-90300000D03*
D18*
X85600000Y-36900000D03*
D12*
X84100000Y-33200000D03*
D19*
X52600000Y-90200000D03*
D20*
X80700000Y-35800000D03*
X78700000Y-35800000D03*
D14*
X60700000Y-34700000D03*
D21*
X89800000Y-37000000D03*
D22*
X49633274Y-38833274D03*
X49633274Y-41166726D03*
X49150000Y-40000000D03*
D23*
X50800000Y-40000000D03*
D22*
X50800000Y-38350000D03*
X50800000Y-41650000D03*
X51966726Y-41166726D03*
X52450000Y-40000000D03*
X51966726Y-38833274D03*
D24*
X90600000Y-79100000D03*
X87475000Y-79100000D03*
D25*
X98737500Y-68700000D03*
X97012500Y-68700000D03*
D26*
X60220000Y-62800000D03*
D27*
X49860000Y-59600000D03*
X49220000Y-59600000D03*
D24*
X99400000Y-81300000D03*
X96275000Y-81300000D03*
D26*
X51220000Y-56400000D03*
D25*
X41637500Y-66300000D03*
X39912500Y-66300000D03*
X98737500Y-67600000D03*
X97012500Y-67600000D03*
D26*
X56657500Y-71900000D03*
D24*
X81680000Y-79100000D03*
X78555000Y-79100000D03*
D26*
X78080000Y-56500000D03*
D27*
X89240000Y-59700000D03*
X88600000Y-59700000D03*
D26*
X60020000Y-56500000D03*
D27*
X89220000Y-60200000D03*
X88580000Y-60200000D03*
X40920000Y-60100000D03*
X40280000Y-60100000D03*
D25*
X80980000Y-65200000D03*
X79255000Y-65200000D03*
D24*
X81680000Y-77000000D03*
X78555000Y-77000000D03*
D26*
X87200000Y-62800000D03*
D24*
X90600000Y-77000000D03*
X87475000Y-77000000D03*
X90600000Y-81200000D03*
X87475000Y-81200000D03*
D25*
X98737500Y-66500000D03*
X97012500Y-66500000D03*
X50520000Y-65100000D03*
X48795000Y-65100000D03*
D24*
X42300000Y-81100000D03*
X39175000Y-81100000D03*
D25*
X50557500Y-66300000D03*
X48832500Y-66300000D03*
D26*
X38900000Y-62700000D03*
D27*
X58660000Y-59700000D03*
X58020000Y-59700000D03*
D24*
X60020000Y-81200000D03*
X56895000Y-81200000D03*
X60020000Y-77000000D03*
X56895000Y-77000000D03*
D26*
X99400000Y-56600000D03*
D27*
X40920000Y-58500000D03*
X40280000Y-58500000D03*
D25*
X98700000Y-65300000D03*
X96975000Y-65300000D03*
D27*
X98020000Y-59300000D03*
X97380000Y-59300000D03*
D24*
X60020000Y-79100000D03*
X56895000Y-79100000D03*
D27*
X98020000Y-58700000D03*
X97380000Y-58700000D03*
X49840000Y-58500000D03*
X49200000Y-58500000D03*
D25*
X41637500Y-68500000D03*
X39912500Y-68500000D03*
D24*
X81680000Y-74800000D03*
X78555000Y-74800000D03*
D26*
X96037500Y-72000000D03*
D24*
X51220000Y-81100000D03*
X48095000Y-81100000D03*
D25*
X89937500Y-68600000D03*
X88212500Y-68600000D03*
D24*
X90600000Y-74800000D03*
X87475000Y-74800000D03*
X51220000Y-79000000D03*
X48095000Y-79000000D03*
D27*
X58640000Y-59200000D03*
X58000000Y-59200000D03*
X80300000Y-59200000D03*
X79660000Y-59200000D03*
D26*
X60257500Y-71900000D03*
X87000000Y-56500000D03*
D24*
X99400000Y-74900000D03*
X96275000Y-74900000D03*
D26*
X42500000Y-62700000D03*
D24*
X42300000Y-79000000D03*
X39175000Y-79000000D03*
D25*
X81017500Y-66400000D03*
X79292500Y-66400000D03*
D24*
X99400000Y-79200000D03*
X96275000Y-79200000D03*
X42300000Y-74700000D03*
X39175000Y-74700000D03*
D26*
X95800000Y-56600000D03*
X78280000Y-62800000D03*
X47857500Y-71800000D03*
X47820000Y-62700000D03*
D25*
X89900000Y-65200000D03*
X88175000Y-65200000D03*
D27*
X80300000Y-58600000D03*
X79660000Y-58600000D03*
X80320000Y-59700000D03*
X79680000Y-59700000D03*
D24*
X81680000Y-81200000D03*
X78555000Y-81200000D03*
D25*
X41637500Y-67400000D03*
X39912500Y-67400000D03*
D26*
X47620000Y-56400000D03*
D24*
X51220000Y-74700000D03*
X48095000Y-74700000D03*
X99400000Y-77100000D03*
X96275000Y-77100000D03*
D25*
X59357500Y-66400000D03*
X57632500Y-66400000D03*
D26*
X81880000Y-62800000D03*
D24*
X60020000Y-74800000D03*
X56895000Y-74800000D03*
D25*
X89937500Y-67500000D03*
X88212500Y-67500000D03*
D27*
X49840000Y-60100000D03*
X49200000Y-60100000D03*
D26*
X81917500Y-71900000D03*
X42300000Y-56400000D03*
X90600000Y-56500000D03*
D27*
X40940000Y-59600000D03*
X40300000Y-59600000D03*
D24*
X51220000Y-76900000D03*
X48095000Y-76900000D03*
D27*
X80300000Y-60200000D03*
X79660000Y-60200000D03*
D26*
X56420000Y-56500000D03*
D27*
X98040000Y-59800000D03*
X97400000Y-59800000D03*
X40920000Y-59100000D03*
X40280000Y-59100000D03*
X89220000Y-59200000D03*
X88580000Y-59200000D03*
D26*
X38937500Y-71800000D03*
D25*
X50557500Y-68500000D03*
X48832500Y-68500000D03*
X81017500Y-67500000D03*
X79292500Y-67500000D03*
D26*
X81680000Y-56500000D03*
X99600000Y-62900000D03*
D27*
X58640000Y-60200000D03*
X58000000Y-60200000D03*
D24*
X42300000Y-76900000D03*
X39175000Y-76900000D03*
D25*
X41600000Y-65100000D03*
X39875000Y-65100000D03*
D26*
X87237500Y-71900000D03*
D25*
X59320000Y-65200000D03*
X57595000Y-65200000D03*
D26*
X42537500Y-71800000D03*
X78317500Y-71900000D03*
D25*
X59357500Y-68600000D03*
X57632500Y-68600000D03*
X59357500Y-67500000D03*
X57632500Y-67500000D03*
X89937500Y-66400000D03*
X88212500Y-66400000D03*
D27*
X58640000Y-58600000D03*
X58000000Y-58600000D03*
D26*
X90837500Y-71900000D03*
X90800000Y-62800000D03*
X51457500Y-71800000D03*
D25*
X50557500Y-67400000D03*
X48832500Y-67400000D03*
D26*
X38700000Y-56400000D03*
X99637500Y-72000000D03*
X96000000Y-62900000D03*
D27*
X89220000Y-58600000D03*
X88580000Y-58600000D03*
X98020000Y-60300000D03*
X97380000Y-60300000D03*
D26*
X51420000Y-62700000D03*
X56620000Y-62800000D03*
D27*
X49840000Y-59100000D03*
X49200000Y-59100000D03*
D25*
X81017500Y-68600000D03*
X79292500Y-68600000D03*
D28*
X45624500Y-45784500D03*
D29*
X65000000Y-93100000D02*
X61900000Y-93100000D01*
X65300000Y-93400000D02*
X65000000Y-93100000D01*
X64600000Y-108800000D02*
X64600000Y-94000000D01*
X63100000Y-110300000D02*
X64600000Y-108800000D01*
X55600000Y-110300000D02*
X63100000Y-110300000D01*
X54500000Y-109200000D02*
X55600000Y-110300000D01*
X54500000Y-84600000D02*
X54500000Y-109200000D01*
X53500000Y-83600000D02*
X54500000Y-84600000D01*
X63700000Y-93100000D02*
X61900000Y-93100000D01*
X51900000Y-85000000D02*
X53300000Y-83600000D01*
X51900000Y-108500000D02*
X51900000Y-85000000D01*
X51600000Y-108800000D02*
X51900000Y-108500000D01*
X50000000Y-84900000D02*
X50000000Y-108300000D01*
X48000000Y-83700000D02*
X48800000Y-83700000D01*
X48100000Y-83800000D02*
X48000000Y-83700000D01*
X46600000Y-109400000D02*
X48100000Y-109400000D01*
X46600000Y-84200000D02*
X46600000Y-109400000D01*
X46100000Y-83700000D02*
X46600000Y-84200000D01*
X44800000Y-83700000D02*
X46100000Y-83700000D01*
X44500000Y-109600000D02*
X44800000Y-109300000D01*
X42900000Y-109600000D02*
X44500000Y-109600000D01*
X43000000Y-109500000D02*
X42900000Y-109600000D01*
X42900000Y-84000000D02*
X43000000Y-84100000D01*
X48100000Y-109400000D02*
X48100000Y-83800000D01*
X41200000Y-84000000D02*
X42900000Y-84000000D01*
X43000000Y-84100000D02*
X43000000Y-109500000D01*
X41200000Y-109500000D02*
X41200000Y-84000000D01*
X44800000Y-109300000D02*
X44800000Y-83700000D01*
X39700000Y-109500000D02*
X41200000Y-109500000D01*
X39500000Y-109300000D02*
X39700000Y-109500000D01*
X39500000Y-84200000D02*
X39500000Y-109300000D01*
X38700000Y-83400000D02*
X39500000Y-84200000D01*
X37800000Y-84300000D02*
X38700000Y-83400000D01*
X37800000Y-109300000D02*
X37800000Y-84300000D01*
X37600000Y-109500000D02*
X37800000Y-109300000D01*
X36600000Y-109500000D02*
X37600000Y-109500000D01*
X36300000Y-109200000D02*
X36600000Y-109500000D01*
X36300000Y-37500000D02*
X36300000Y-109200000D01*
X35000000Y-36900000D02*
X35100000Y-36800000D01*
X34600000Y-109400000D02*
X35000000Y-109000000D01*
X64600000Y-94000000D02*
X63700000Y-93100000D01*
X34200000Y-109400000D02*
X34600000Y-109400000D01*
X50500000Y-108800000D02*
X51600000Y-108800000D01*
X35000000Y-109000000D02*
X35000000Y-36900000D01*
X48800000Y-83700000D02*
X50000000Y-84900000D01*
X35100000Y-36800000D02*
X35600000Y-36800000D01*
X33700000Y-108900000D02*
X34200000Y-109400000D01*
X35600000Y-36800000D02*
X36300000Y-37500000D01*
X50000000Y-108300000D02*
X50500000Y-108800000D01*
X33700000Y-34300000D02*
X33700000Y-108900000D01*
X53300000Y-83600000D02*
X53500000Y-83600000D01*
X65300000Y-107300000D02*
X68100000Y-110100000D01*
X105400000Y-33900000D02*
X104300000Y-33900000D01*
X107300000Y-56900000D02*
X107300000Y-35800000D01*
X107100000Y-57100000D02*
X107300000Y-56900000D01*
X107100000Y-107300000D02*
X107100000Y-57100000D01*
X106500000Y-107900000D02*
X107100000Y-107300000D01*
X104100000Y-53100000D02*
X104600000Y-53600000D01*
X103400000Y-53800000D02*
X104100000Y-53100000D01*
X103400000Y-111500000D02*
X103400000Y-53800000D01*
X99800000Y-83400000D02*
X101900000Y-83400000D01*
X105600000Y-107900000D02*
X106500000Y-107900000D01*
X99900000Y-83500000D02*
X99800000Y-83400000D01*
X104600000Y-53600000D02*
X104600000Y-106900000D01*
X99800000Y-111600000D02*
X99900000Y-111500000D01*
X97900000Y-111600000D02*
X99800000Y-111600000D01*
X97900000Y-83500000D02*
X97900000Y-111600000D01*
X97800000Y-83400000D02*
X97900000Y-83500000D01*
X96100000Y-83400000D02*
X97800000Y-83400000D01*
X96400000Y-83700000D02*
X96100000Y-83400000D01*
X107300000Y-35800000D02*
X105400000Y-33900000D01*
X96400000Y-109400000D02*
X96400000Y-83700000D01*
X95800000Y-110000000D02*
X96400000Y-109400000D01*
X95500000Y-110000000D02*
X95800000Y-110000000D01*
X94900000Y-109400000D02*
X95500000Y-110000000D01*
X101900000Y-83400000D02*
X101900000Y-111500000D01*
X94900000Y-83400000D02*
X94900000Y-109400000D01*
X93900000Y-83400000D02*
X94900000Y-83400000D01*
X93500000Y-83800000D02*
X93900000Y-83400000D01*
X101900000Y-111500000D02*
X103400000Y-111500000D01*
X93500000Y-110100000D02*
X93500000Y-83800000D01*
X93000000Y-110100000D02*
X93500000Y-110100000D01*
X92200000Y-109300000D02*
X93000000Y-110100000D01*
X91900000Y-83300000D02*
X92200000Y-83600000D01*
X99900000Y-111500000D02*
X99900000Y-83500000D01*
X91300000Y-83300000D02*
X91900000Y-83300000D01*
X90700000Y-108500000D02*
X90700000Y-83900000D01*
X90700000Y-83900000D02*
X91300000Y-83300000D01*
X92200000Y-83600000D02*
X92200000Y-109300000D01*
X89100000Y-110100000D02*
X90700000Y-108500000D01*
X104600000Y-106900000D02*
X105600000Y-107900000D01*
X68100000Y-110100000D02*
X89100000Y-110100000D01*
X65300000Y-93400000D02*
X65300000Y-107300000D01*
X87237500Y-71900000D02*
X87237500Y-80962500D01*
X98700000Y-63800000D02*
X99600000Y-62900000D01*
X49840000Y-58500000D02*
X49840000Y-60100000D01*
X58640000Y-58600000D02*
X58640000Y-60200000D01*
X78080000Y-56500000D02*
X79660000Y-58080000D01*
D30*
X39912500Y-65137500D02*
X39875000Y-65100000D01*
D29*
X42300000Y-81100000D02*
X42537500Y-80862500D01*
D30*
X50520000Y-65100000D02*
X50520000Y-68462500D01*
D29*
X90600000Y-81200000D02*
X90837500Y-80962500D01*
X96975000Y-65300000D02*
X96975000Y-63875000D01*
X80300000Y-57880000D02*
X81680000Y-56500000D01*
D30*
X57632500Y-68600000D02*
X57632500Y-65237500D01*
D29*
X38937500Y-80862500D02*
X39175000Y-81100000D01*
X57595000Y-63775000D02*
X56620000Y-62800000D01*
X89220000Y-58600000D02*
X89220000Y-60200000D01*
X78317500Y-80962500D02*
X78555000Y-81200000D01*
X58000000Y-58600000D02*
X58000000Y-60200000D01*
X42537500Y-80862500D02*
X42537500Y-71800000D01*
D30*
X97012500Y-68700000D02*
X97012500Y-65337500D01*
D29*
X80980000Y-63700000D02*
X81880000Y-62800000D01*
X58640000Y-58600000D02*
X58640000Y-57880000D01*
X81917500Y-80962500D02*
X81917500Y-71900000D01*
X98700000Y-65300000D02*
X98700000Y-63800000D01*
X80300000Y-58600000D02*
X80300000Y-60200000D01*
X38700000Y-56400000D02*
X40280000Y-57980000D01*
D30*
X59320000Y-68562500D02*
X59357500Y-68600000D01*
D29*
X89220000Y-58600000D02*
X89220000Y-57880000D01*
D30*
X89900000Y-65200000D02*
X89900000Y-68562500D01*
D29*
X79660000Y-58080000D02*
X79660000Y-58600000D01*
X56420000Y-56500000D02*
X58000000Y-58080000D01*
X56657500Y-80962500D02*
X56895000Y-81200000D01*
D30*
X97012500Y-65337500D02*
X96975000Y-65300000D01*
X88212500Y-65237500D02*
X88175000Y-65200000D01*
D29*
X60257500Y-80962500D02*
X60257500Y-71900000D01*
X47620000Y-56400000D02*
X49200000Y-57980000D01*
X88175000Y-63775000D02*
X87200000Y-62800000D01*
X40920000Y-57780000D02*
X42300000Y-56400000D01*
D30*
X89900000Y-68562500D02*
X89937500Y-68600000D01*
D29*
X96037500Y-81062500D02*
X96275000Y-81300000D01*
X96975000Y-63875000D02*
X96000000Y-62900000D01*
X50520000Y-63600000D02*
X51420000Y-62700000D01*
X39875000Y-65100000D02*
X39875000Y-63675000D01*
D30*
X88212500Y-68600000D02*
X88212500Y-65237500D01*
X39912500Y-68500000D02*
X39912500Y-65137500D01*
D29*
X48795000Y-65100000D02*
X48795000Y-63675000D01*
X89900000Y-65200000D02*
X89900000Y-63700000D01*
X98020000Y-57980000D02*
X99400000Y-56600000D01*
X57595000Y-65200000D02*
X57595000Y-63775000D01*
X89220000Y-57880000D02*
X90600000Y-56500000D01*
X49200000Y-58500000D02*
X49200000Y-60100000D01*
D30*
X80980000Y-68562500D02*
X81017500Y-68600000D01*
D29*
X38937500Y-71800000D02*
X38937500Y-80862500D01*
D30*
X79292500Y-68600000D02*
X79292500Y-65237500D01*
D29*
X41600000Y-65100000D02*
X41600000Y-63600000D01*
X97380000Y-58180000D02*
X97380000Y-58700000D01*
X51220000Y-81100000D02*
X51457500Y-80862500D01*
D30*
X41600000Y-68462500D02*
X41637500Y-68500000D01*
D29*
X79255000Y-63775000D02*
X78280000Y-62800000D01*
X48795000Y-63675000D02*
X47820000Y-62700000D01*
X40920000Y-58500000D02*
X40920000Y-57780000D01*
D30*
X98700000Y-68662500D02*
X98737500Y-68700000D01*
D29*
X49840000Y-58500000D02*
X49840000Y-57780000D01*
X80300000Y-58600000D02*
X80300000Y-57880000D01*
X90837500Y-80962500D02*
X90837500Y-71900000D01*
X98020000Y-58700000D02*
X98020000Y-57980000D01*
X88580000Y-58600000D02*
X88580000Y-60200000D01*
X56657500Y-71900000D02*
X56657500Y-80962500D01*
D30*
X57632500Y-65237500D02*
X57595000Y-65200000D01*
D29*
X58640000Y-57880000D02*
X60020000Y-56500000D01*
X81680000Y-81200000D02*
X81917500Y-80962500D01*
X99400000Y-81300000D02*
X99637500Y-81062500D01*
X98020000Y-58700000D02*
X98020000Y-60300000D01*
X79255000Y-65200000D02*
X79255000Y-63775000D01*
X88580000Y-58080000D02*
X88580000Y-58600000D01*
X47857500Y-80862500D02*
X48095000Y-81100000D01*
X79660000Y-58600000D02*
X79660000Y-60200000D01*
X88175000Y-65200000D02*
X88175000Y-63775000D01*
X58000000Y-58080000D02*
X58000000Y-58600000D01*
X40280000Y-57980000D02*
X40280000Y-58500000D01*
X41600000Y-63600000D02*
X42500000Y-62700000D01*
X60020000Y-81200000D02*
X60257500Y-80962500D01*
X95800000Y-56600000D02*
X97380000Y-58180000D01*
X51457500Y-80862500D02*
X51457500Y-71800000D01*
D30*
X79292500Y-65237500D02*
X79255000Y-65200000D01*
X50520000Y-68462500D02*
X50557500Y-68500000D01*
X48832500Y-65137500D02*
X48795000Y-65100000D01*
D29*
X50520000Y-65100000D02*
X50520000Y-63600000D01*
D30*
X41600000Y-65100000D02*
X41600000Y-68462500D01*
D29*
X97380000Y-58700000D02*
X97380000Y-60300000D01*
D30*
X59320000Y-65200000D02*
X59320000Y-68562500D01*
D29*
X39875000Y-63675000D02*
X38900000Y-62700000D01*
X89900000Y-63700000D02*
X90800000Y-62800000D01*
X40920000Y-58500000D02*
X40920000Y-60100000D01*
X87237500Y-80962500D02*
X87475000Y-81200000D01*
X87000000Y-56500000D02*
X88580000Y-58080000D01*
X80980000Y-65200000D02*
X80980000Y-63700000D01*
X49200000Y-57980000D02*
X49200000Y-58500000D01*
D30*
X98700000Y-65300000D02*
X98700000Y-68662500D01*
X48832500Y-68500000D02*
X48832500Y-65137500D01*
X80980000Y-65200000D02*
X80980000Y-68562500D01*
D29*
X47857500Y-71800000D02*
X47857500Y-80862500D01*
X99637500Y-81062500D02*
X99637500Y-72000000D01*
X40280000Y-58500000D02*
X40280000Y-60100000D01*
X59320000Y-65200000D02*
X59320000Y-63700000D01*
X59320000Y-63700000D02*
X60220000Y-62800000D01*
X49840000Y-57780000D02*
X51220000Y-56400000D01*
X78317500Y-71900000D02*
X78317500Y-80962500D01*
X96037500Y-72000000D02*
X96037500Y-81062500D01*
D31*
X45643500Y-45765500D02*
X45624500Y-45784500D01*
X104394000Y-45955000D02*
X104204500Y-45765500D01*
X104204500Y-45765500D02*
X45643500Y-45765500D01*
X104394000Y-46336000D02*
X104394000Y-45955000D01*
X105664000Y-47606000D02*
X104394000Y-46336000D01*
M02*
