G04 #@! TF.GenerationSoftware,KiCad,Pcbnew,(6.0.7)*
G04 #@! TF.CreationDate,2022-09-27T00:45:37+02:00*
G04 #@! TF.ProjectId,hamodule,68616d6f-6475-46c6-952e-6b696361645f,20220918.20*
G04 #@! TF.SameCoordinates,Original*
G04 #@! TF.FileFunction,Soldermask,Bot*
G04 #@! TF.FilePolarity,Negative*
%FSLAX46Y46*%
G04 Gerber Fmt 4.6, Leading zero omitted, Abs format (unit mm)*
G04 Created by KiCad (PCBNEW (6.0.7)) date 2022-09-27 00:45:37*
%MOMM*%
%LPD*%
G01*
G04 APERTURE LIST*
G04 Aperture macros list*
%AMRoundRect*
0 Rectangle with rounded corners*
0 $1 Rounding radius*
0 $2 $3 $4 $5 $6 $7 $8 $9 X,Y pos of 4 corners*
0 Add a 4 corners polygon primitive as box body*
4,1,4,$2,$3,$4,$5,$6,$7,$8,$9,$2,$3,0*
0 Add four circle primitives for the rounded corners*
1,1,$1+$1,$2,$3*
1,1,$1+$1,$4,$5*
1,1,$1+$1,$6,$7*
1,1,$1+$1,$8,$9*
0 Add four rect primitives between the rounded corners*
20,1,$1+$1,$2,$3,$4,$5,0*
20,1,$1+$1,$4,$5,$6,$7,0*
20,1,$1+$1,$6,$7,$8,$9,0*
20,1,$1+$1,$8,$9,$2,$3,0*%
G04 Aperture macros list end*
%ADD10C,0.150000*%
%ADD11RoundRect,0.050000X-1.250000X-1.250000X1.250000X-1.250000X1.250000X1.250000X-1.250000X1.250000X0*%
%ADD12RoundRect,0.050000X-0.500000X-0.500000X0.500000X-0.500000X0.500000X0.500000X-0.500000X0.500000X0*%
%ADD13C,3.600000*%
%ADD14C,2.700000*%
%ADD15RoundRect,0.050000X-0.850000X-0.850000X0.850000X-0.850000X0.850000X0.850000X-0.850000X0.850000X0*%
%ADD16O,1.800000X1.800000*%
%ADD17C,3.300000*%
%ADD18RoundRect,0.050000X0.850000X0.850000X-0.850000X0.850000X-0.850000X-0.850000X0.850000X-0.850000X0*%
%ADD19C,2.100000*%
%ADD20C,1.500000*%
%ADD21C,2.900000*%
%ADD22C,0.800000*%
%ADD23C,4.500000*%
%ADD24C,2.200000*%
%ADD25RoundRect,0.300000X0.412500X0.650000X-0.412500X0.650000X-0.412500X-0.650000X0.412500X-0.650000X0*%
%ADD26RoundRect,0.287500X0.300000X0.237500X-0.300000X0.237500X-0.300000X-0.237500X0.300000X-0.237500X0*%
%ADD27C,2.600000*%
%ADD28RoundRect,0.150000X0.130000X0.100000X-0.130000X0.100000X-0.130000X-0.100000X0.130000X-0.100000X0*%
G04 APERTURE END LIST*
D10*
X89400000Y-83000000D02*
X105700000Y-83000000D01*
X105700000Y-83000000D02*
X105700000Y-107800000D01*
X105700000Y-107800000D02*
X89400000Y-107800000D01*
X89400000Y-107800000D02*
X89400000Y-83000000D01*
G36*
X89400000Y-83000000D02*
G01*
X105700000Y-83000000D01*
X105700000Y-107800000D01*
X89400000Y-107800000D01*
X89400000Y-83000000D01*
G37*
D11*
X61900000Y-93100000D03*
X104300000Y-33900000D03*
X33700000Y-34300000D03*
D12*
X78500000Y-33200000D03*
D13*
X55600000Y-34600000D03*
D14*
X55600000Y-34600000D03*
D15*
X38076000Y-40175000D03*
D16*
X38076000Y-42715000D03*
X38076000Y-45255000D03*
X38076000Y-47795000D03*
X38076000Y-50335000D03*
D17*
X72200000Y-105400000D03*
X84700000Y-105400000D03*
X59700000Y-105400000D03*
D12*
X89500000Y-33100000D03*
D18*
X105664000Y-50146000D03*
D16*
X105664000Y-47606000D03*
X105664000Y-45066000D03*
X105664000Y-42526000D03*
X105664000Y-39986000D03*
D19*
X85600000Y-36900000D03*
D12*
X84100000Y-33200000D03*
D20*
X80700000Y-35800000D03*
X78700000Y-35800000D03*
D14*
X60700000Y-34700000D03*
D21*
X89800000Y-37000000D03*
D22*
X49633274Y-38833274D03*
X49633274Y-41166726D03*
X49150000Y-40000000D03*
D23*
X50800000Y-40000000D03*
D22*
X50800000Y-38350000D03*
X50800000Y-41650000D03*
X51966726Y-41166726D03*
X52450000Y-40000000D03*
X51966726Y-38833274D03*
D24*
X50700000Y-34400000D03*
D25*
X90600000Y-79100000D03*
X87475000Y-79100000D03*
D26*
X98737500Y-68700000D03*
X97012500Y-68700000D03*
D27*
X60220000Y-62800000D03*
D28*
X49860000Y-59600000D03*
X49220000Y-59600000D03*
D25*
X99400000Y-81300000D03*
X96275000Y-81300000D03*
D27*
X51220000Y-56400000D03*
D26*
X41637500Y-66300000D03*
X39912500Y-66300000D03*
X98737500Y-67600000D03*
X97012500Y-67600000D03*
D27*
X56657500Y-71900000D03*
D25*
X81680000Y-79100000D03*
X78555000Y-79100000D03*
D27*
X78080000Y-56500000D03*
D28*
X89240000Y-59700000D03*
X88600000Y-59700000D03*
D27*
X60020000Y-56500000D03*
D28*
X89220000Y-60200000D03*
X88580000Y-60200000D03*
X40920000Y-60100000D03*
X40280000Y-60100000D03*
D26*
X80980000Y-65200000D03*
X79255000Y-65200000D03*
D25*
X81680000Y-77000000D03*
X78555000Y-77000000D03*
D27*
X87200000Y-62800000D03*
D25*
X90600000Y-77000000D03*
X87475000Y-77000000D03*
X90600000Y-81200000D03*
X87475000Y-81200000D03*
D26*
X98737500Y-66500000D03*
X97012500Y-66500000D03*
X50520000Y-65100000D03*
X48795000Y-65100000D03*
D25*
X42300000Y-81100000D03*
X39175000Y-81100000D03*
D26*
X50557500Y-66300000D03*
X48832500Y-66300000D03*
D27*
X38900000Y-62700000D03*
D28*
X58660000Y-59700000D03*
X58020000Y-59700000D03*
D25*
X60020000Y-81200000D03*
X56895000Y-81200000D03*
X60020000Y-77000000D03*
X56895000Y-77000000D03*
D27*
X99400000Y-56600000D03*
D28*
X40920000Y-58500000D03*
X40280000Y-58500000D03*
D26*
X98700000Y-65300000D03*
X96975000Y-65300000D03*
D28*
X98020000Y-59300000D03*
X97380000Y-59300000D03*
D25*
X60020000Y-79100000D03*
X56895000Y-79100000D03*
D28*
X98020000Y-58700000D03*
X97380000Y-58700000D03*
X49840000Y-58500000D03*
X49200000Y-58500000D03*
D26*
X41637500Y-68500000D03*
X39912500Y-68500000D03*
D25*
X81680000Y-74800000D03*
X78555000Y-74800000D03*
D27*
X96037500Y-72000000D03*
D25*
X51220000Y-81100000D03*
X48095000Y-81100000D03*
D26*
X89937500Y-68600000D03*
X88212500Y-68600000D03*
D25*
X90600000Y-74800000D03*
X87475000Y-74800000D03*
X51220000Y-79000000D03*
X48095000Y-79000000D03*
D28*
X58640000Y-59200000D03*
X58000000Y-59200000D03*
X80300000Y-59200000D03*
X79660000Y-59200000D03*
D27*
X60257500Y-71900000D03*
X87000000Y-56500000D03*
D25*
X99400000Y-74900000D03*
X96275000Y-74900000D03*
D27*
X42500000Y-62700000D03*
D25*
X42300000Y-79000000D03*
X39175000Y-79000000D03*
D26*
X81017500Y-66400000D03*
X79292500Y-66400000D03*
D25*
X99400000Y-79200000D03*
X96275000Y-79200000D03*
X42300000Y-74700000D03*
X39175000Y-74700000D03*
D27*
X95800000Y-56600000D03*
X78280000Y-62800000D03*
X47857500Y-71800000D03*
X47820000Y-62700000D03*
D26*
X89900000Y-65200000D03*
X88175000Y-65200000D03*
D28*
X80300000Y-58600000D03*
X79660000Y-58600000D03*
X80320000Y-59700000D03*
X79680000Y-59700000D03*
D25*
X81680000Y-81200000D03*
X78555000Y-81200000D03*
D26*
X41637500Y-67400000D03*
X39912500Y-67400000D03*
D27*
X47620000Y-56400000D03*
D25*
X51220000Y-74700000D03*
X48095000Y-74700000D03*
X99400000Y-77100000D03*
X96275000Y-77100000D03*
D26*
X59357500Y-66400000D03*
X57632500Y-66400000D03*
D27*
X81880000Y-62800000D03*
D25*
X60020000Y-74800000D03*
X56895000Y-74800000D03*
D26*
X89937500Y-67500000D03*
X88212500Y-67500000D03*
D28*
X49840000Y-60100000D03*
X49200000Y-60100000D03*
D27*
X81917500Y-71900000D03*
X42300000Y-56400000D03*
X90600000Y-56500000D03*
D28*
X40940000Y-59600000D03*
X40300000Y-59600000D03*
D25*
X51220000Y-76900000D03*
X48095000Y-76900000D03*
D28*
X80300000Y-60200000D03*
X79660000Y-60200000D03*
D27*
X56420000Y-56500000D03*
D28*
X98040000Y-59800000D03*
X97400000Y-59800000D03*
X40920000Y-59100000D03*
X40280000Y-59100000D03*
X89220000Y-59200000D03*
X88580000Y-59200000D03*
D27*
X38937500Y-71800000D03*
D26*
X50557500Y-68500000D03*
X48832500Y-68500000D03*
X81017500Y-67500000D03*
X79292500Y-67500000D03*
D27*
X81680000Y-56500000D03*
X99600000Y-62900000D03*
D28*
X58640000Y-60200000D03*
X58000000Y-60200000D03*
D25*
X42300000Y-76900000D03*
X39175000Y-76900000D03*
D26*
X41600000Y-65100000D03*
X39875000Y-65100000D03*
D27*
X87237500Y-71900000D03*
D26*
X59320000Y-65200000D03*
X57595000Y-65200000D03*
D27*
X42537500Y-71800000D03*
X78317500Y-71900000D03*
D26*
X59357500Y-68600000D03*
X57632500Y-68600000D03*
X59357500Y-67500000D03*
X57632500Y-67500000D03*
X89937500Y-66400000D03*
X88212500Y-66400000D03*
D28*
X58640000Y-58600000D03*
X58000000Y-58600000D03*
D27*
X90837500Y-71900000D03*
X90800000Y-62800000D03*
X51457500Y-71800000D03*
D26*
X50557500Y-67400000D03*
X48832500Y-67400000D03*
D27*
X38700000Y-56400000D03*
X99637500Y-72000000D03*
X96000000Y-62900000D03*
D28*
X89220000Y-58600000D03*
X88580000Y-58600000D03*
X98020000Y-60300000D03*
X97380000Y-60300000D03*
D27*
X51420000Y-62700000D03*
X56620000Y-62800000D03*
D28*
X49840000Y-59100000D03*
X49200000Y-59100000D03*
D26*
X81017500Y-68600000D03*
X79292500Y-68600000D03*
M02*
