G04 #@! TF.GenerationSoftware,KiCad,Pcbnew,(6.0.7)*
G04 #@! TF.CreationDate,2022-09-27T00:45:36+02:00*
G04 #@! TF.ProjectId,hamodule,68616d6f-6475-46c6-952e-6b696361645f,20220918.20*
G04 #@! TF.SameCoordinates,Original*
G04 #@! TF.FileFunction,Soldermask,Top*
G04 #@! TF.FilePolarity,Negative*
%FSLAX46Y46*%
G04 Gerber Fmt 4.6, Leading zero omitted, Abs format (unit mm)*
G04 Created by KiCad (PCBNEW (6.0.7)) date 2022-09-27 00:45:36*
%MOMM*%
%LPD*%
G01*
G04 APERTURE LIST*
G04 Aperture macros list*
%AMRoundRect*
0 Rectangle with rounded corners*
0 $1 Rounding radius*
0 $2 $3 $4 $5 $6 $7 $8 $9 X,Y pos of 4 corners*
0 Add a 4 corners polygon primitive as box body*
4,1,4,$2,$3,$4,$5,$6,$7,$8,$9,$2,$3,0*
0 Add four circle primitives for the rounded corners*
1,1,$1+$1,$2,$3*
1,1,$1+$1,$4,$5*
1,1,$1+$1,$6,$7*
1,1,$1+$1,$8,$9*
0 Add four rect primitives between the rounded corners*
20,1,$1+$1,$2,$3,$4,$5,0*
20,1,$1+$1,$4,$5,$6,$7,0*
20,1,$1+$1,$6,$7,$8,$9,0*
20,1,$1+$1,$8,$9,$2,$3,0*%
G04 Aperture macros list end*
%ADD10C,0.150000*%
%ADD11RoundRect,0.050000X-1.250000X-1.250000X1.250000X-1.250000X1.250000X1.250000X-1.250000X1.250000X0*%
%ADD12C,1.500000*%
%ADD13RoundRect,0.050000X-0.500000X-0.500000X0.500000X-0.500000X0.500000X0.500000X-0.500000X0.500000X0*%
%ADD14RoundRect,0.050000X-1.000000X-1.000000X1.000000X-1.000000X1.000000X1.000000X-1.000000X1.000000X0*%
%ADD15C,3.600000*%
%ADD16C,2.700000*%
%ADD17RoundRect,0.050000X-0.850000X-0.850000X0.850000X-0.850000X0.850000X0.850000X-0.850000X0.850000X0*%
%ADD18O,1.800000X1.800000*%
%ADD19C,4.500000*%
%ADD20C,1.000000*%
%ADD21RoundRect,0.300000X-0.325000X-0.450000X0.325000X-0.450000X0.325000X0.450000X-0.325000X0.450000X0*%
%ADD22C,3.300000*%
%ADD23RoundRect,0.050000X0.850000X0.850000X-0.850000X0.850000X-0.850000X-0.850000X0.850000X-0.850000X0*%
%ADD24C,2.100000*%
%ADD25C,2.600000*%
%ADD26C,2.250000*%
%ADD27C,3.000000*%
%ADD28C,2.900000*%
%ADD29C,0.800000*%
%ADD30C,2.200000*%
G04 APERTURE END LIST*
D10*
G36*
X44100000Y-100500000D02*
G01*
X39300000Y-101200000D01*
X43900000Y-105200000D01*
X40400000Y-105200000D01*
X37300000Y-99400000D01*
X38600000Y-95500000D01*
X37200000Y-94200000D01*
X38600000Y-91400000D01*
X37200000Y-89400000D01*
X44200000Y-89200000D01*
X44100000Y-100500000D01*
G37*
X44100000Y-100500000D02*
X39300000Y-101200000D01*
X43900000Y-105200000D01*
X40400000Y-105200000D01*
X37300000Y-99400000D01*
X38600000Y-95500000D01*
X37200000Y-94200000D01*
X38600000Y-91400000D01*
X37200000Y-89400000D01*
X44200000Y-89200000D01*
X44100000Y-100500000D01*
X61550000Y-65200000D02*
X77650000Y-65200000D01*
X77650000Y-65200000D02*
X77650000Y-74900000D01*
X77650000Y-74900000D02*
X61550000Y-74900000D01*
X61550000Y-74900000D02*
X61550000Y-65200000D01*
G36*
X61550000Y-65200000D02*
G01*
X77650000Y-65200000D01*
X77650000Y-74900000D01*
X61550000Y-74900000D01*
X61550000Y-65200000D01*
G37*
X91092000Y-50433000D02*
X107192000Y-50433000D01*
X107192000Y-50433000D02*
X107192000Y-85333000D01*
X107192000Y-85333000D02*
X91092000Y-85333000D01*
X91092000Y-85333000D02*
X91092000Y-50433000D01*
G36*
X91092000Y-50433000D02*
G01*
X107192000Y-50433000D01*
X107192000Y-85333000D01*
X91092000Y-85333000D01*
X91092000Y-50433000D01*
G37*
X30308000Y-50722000D02*
X46408000Y-50722000D01*
X46408000Y-50722000D02*
X46408000Y-85622000D01*
X46408000Y-85622000D02*
X30308000Y-85622000D01*
X30308000Y-85622000D02*
X30308000Y-50722000D01*
G36*
X30308000Y-50722000D02*
G01*
X46408000Y-50722000D01*
X46408000Y-85622000D01*
X30308000Y-85622000D01*
X30308000Y-50722000D01*
G37*
D11*
X61900000Y-93100000D03*
X104300000Y-33900000D03*
X33700000Y-34300000D03*
D12*
X52600000Y-92300000D03*
D13*
X78500000Y-33200000D03*
D14*
X95200000Y-41100000D03*
D15*
X55600000Y-34600000D03*
D16*
X55600000Y-34600000D03*
D17*
X38076000Y-40175000D03*
D18*
X38076000Y-42715000D03*
X38076000Y-45255000D03*
X38076000Y-47795000D03*
X38076000Y-50335000D03*
D12*
X55300000Y-92300000D03*
D19*
X101350000Y-102000000D03*
D20*
X96050000Y-90100000D03*
D21*
X42409000Y-47752000D03*
X44459000Y-47752000D03*
X42409000Y-42926000D03*
X44459000Y-42926000D03*
D12*
X69400000Y-99000000D03*
D22*
X72200000Y-105400000D03*
X84700000Y-105400000D03*
X59700000Y-105400000D03*
D13*
X89500000Y-33100000D03*
D23*
X105664000Y-50146000D03*
D18*
X105664000Y-47606000D03*
X105664000Y-45066000D03*
X105664000Y-42526000D03*
X105664000Y-39986000D03*
D19*
X47100000Y-103400000D03*
D24*
X85600000Y-36900000D03*
D21*
X42400000Y-45339000D03*
X44450000Y-45339000D03*
D12*
X96150000Y-97600000D03*
D13*
X84100000Y-33200000D03*
D20*
X33700000Y-91300000D03*
D25*
X95100000Y-36900000D03*
D19*
X56300000Y-40200000D03*
D12*
X47000000Y-95800000D03*
D21*
X42400000Y-40640000D03*
X44450000Y-40640000D03*
X42400000Y-50165000D03*
X44450000Y-50165000D03*
D12*
X47000000Y-91600000D03*
D26*
X47100000Y-99000000D03*
D12*
X80700000Y-35800000D03*
X78700000Y-35800000D03*
X101250000Y-90200000D03*
D27*
X96250000Y-102100000D03*
D16*
X60700000Y-34700000D03*
D19*
X60700000Y-34700000D03*
D12*
X101250000Y-94400000D03*
D28*
X89800000Y-37000000D03*
D27*
X33900000Y-103300000D03*
D29*
X49633274Y-38833274D03*
X49633274Y-41166726D03*
X49150000Y-40000000D03*
D19*
X50800000Y-40000000D03*
D29*
X50800000Y-38350000D03*
X50800000Y-41650000D03*
X51966726Y-41166726D03*
X52450000Y-40000000D03*
X51966726Y-38833274D03*
D30*
X50700000Y-34400000D03*
D20*
X33700000Y-95500000D03*
D26*
X101350000Y-97600000D03*
D20*
X96050000Y-94300000D03*
D12*
X33800000Y-98800000D03*
M02*
