G04 #@! TF.GenerationSoftware,KiCad,Pcbnew,(6.0.7)*
G04 #@! TF.CreationDate,2022-09-27T00:45:37+02:00*
G04 #@! TF.ProjectId,hamodule,68616d6f-6475-46c6-952e-6b696361645f,20220918.20*
G04 #@! TF.SameCoordinates,Original*
G04 #@! TF.FileFunction,Profile,NP*
%FSLAX46Y46*%
G04 Gerber Fmt 4.6, Leading zero omitted, Abs format (unit mm)*
G04 Created by KiCad (PCBNEW (6.0.7)) date 2022-09-27 00:45:37*
%MOMM*%
%LPD*%
G01*
G04 APERTURE LIST*
G04 #@! TA.AperFunction,Profile*
%ADD10C,0.050000*%
G04 #@! TD*
G04 APERTURE END LIST*
D10*
X105460000Y-112540000D02*
G75*
G03*
X108000000Y-110000000I0J2540000D01*
G01*
X108000000Y-110000000D02*
X108000000Y-33000000D01*
X105460000Y-112540000D02*
X32540000Y-112542000D01*
X105460000Y-30460000D02*
X32540000Y-30460000D01*
X30000000Y-110000000D02*
X30000000Y-33000000D01*
X29999999Y-110000000D02*
G75*
G03*
X32540000Y-112542000I2542001J0D01*
G01*
X108000000Y-33000000D02*
G75*
G03*
X105460000Y-30460000I-2540000J0D01*
G01*
X68100000Y-68200000D02*
X68500000Y-68200000D01*
X68500000Y-68200000D02*
X68500000Y-83500000D01*
X68500000Y-83500000D02*
X68100000Y-83500000D01*
X68100000Y-83500000D02*
X68100000Y-68200000D01*
X68800000Y-68200000D02*
X69200000Y-68200000D01*
X69200000Y-68200000D02*
X69200000Y-83500000D01*
X69200000Y-83500000D02*
X68800000Y-83500000D01*
X68800000Y-83500000D02*
X68800000Y-68200000D01*
X71100000Y-68200000D02*
X71300000Y-68200000D01*
X71300000Y-68200000D02*
X71300000Y-83500000D01*
X71300000Y-83500000D02*
X71100000Y-83500000D01*
X71100000Y-83500000D02*
X71100000Y-68200000D01*
X70200000Y-68200000D02*
X70400000Y-68200000D01*
X70400000Y-68200000D02*
X70400000Y-83500000D01*
X70400000Y-83500000D02*
X70200000Y-83500000D01*
X70200000Y-83500000D02*
X70200000Y-68200000D01*
X71700000Y-68200000D02*
X71900000Y-68200000D01*
X71900000Y-68200000D02*
X71900000Y-83500000D01*
X71900000Y-83500000D02*
X71700000Y-83500000D01*
X71700000Y-83500000D02*
X71700000Y-68200000D01*
X69400000Y-68200000D02*
X69800000Y-68200000D01*
X69800000Y-68200000D02*
X69800000Y-83500000D01*
X69800000Y-83500000D02*
X69400000Y-83500000D01*
X69400000Y-83500000D02*
X69400000Y-68200000D01*
X67300000Y-68200000D02*
X67700000Y-68200000D01*
X67700000Y-68200000D02*
X67700000Y-83500000D01*
X67700000Y-83500000D02*
X67300000Y-83500000D01*
X67300000Y-83500000D02*
X67300000Y-68200000D01*
X32540000Y-30460000D02*
G75*
G03*
X30000000Y-33000000I0J-2540000D01*
G01*
X70600000Y-68200000D02*
X70800000Y-68200000D01*
X70800000Y-68200000D02*
X70800000Y-83500000D01*
X70800000Y-83500000D02*
X70600000Y-83500000D01*
X70600000Y-83500000D02*
X70600000Y-68200000D01*
X69900000Y-68200000D02*
X70100000Y-68200000D01*
X70100000Y-68200000D02*
X70100000Y-83500000D01*
X70100000Y-83500000D02*
X69900000Y-83500000D01*
X69900000Y-83500000D02*
X69900000Y-68200000D01*
X104466666Y-35000000D02*
G75*
G03*
X104466666Y-35000000I-1666666J0D01*
G01*
X100300000Y-35000000D02*
X105300000Y-35000000D01*
X102800000Y-32500000D02*
X102800000Y-37500000D01*
M02*
