  0
SECTION
  2
HEADER
  9
$ANGBASE
  50
0.0
  9
$ANGDIR
  70
1
  9
$MEASUREMENT
  70
1
  0
ENDSEC
  0
SECTION
  2
TABLES
  0
TABLE
  2
LTYPE
  70
4
  0
LTYPE
  5
40F
  2
CONTINUOUS
  70
0
  3
Solid line
  72
65
  73
0
  40
0.0
  0
LTYPE
  5
410
  2
DASHDOT
 70
0
  3
Dash Dot ____ _ ____ _
 72
65
 73
4
 40
2.0
 49
1.25
 49
-0.25
 49
0.25
 49
-0.25
  0
LTYPE
  5
411
  2
DASHED
 70
0
  3
Dashed __ __ __ __ __
 72
65
 73
2
 40
0.75
 49
0.5
 49
-0.25
  0
LTYPE
  5
43B
  2
DOTTED
 70
0
  3
Dotted .  .  .  .
 72
65
 73
2
 40
0.2
 49
0.0
 49
-0.2
  0
ENDTAB
  0
TABLE
  2
STYLE
  70
4
  0
STYLE
  2
KICAD
  70
0
  40
0
  41
1
  42
1
  50
0
  71
0
  3
isocp.shx
  0
STYLE
  2
KICADB
  70
0
  40
0
  41
1
  42
1
  50
0
  71
0
  3
isocp.shx
  0
STYLE
  2
KICADI
  70
0
  40
0
  41
1
  42
1
  50
15
  71
0
  3
isocp.shx
  0
STYLE
  2
KICADBI
  70
0
  40
0
  41
1
  42
1
  50
15
  71
0
  3
isocp.shx
  0
ENDTAB
  0
TABLE
  2
LAYER
  70
1
  0
LAYER
  2
BLACK
  70
0
  62
7
  6
CONTINUOUS
  0
ENDTAB
  0
ENDSEC
  0
SECTION
  2
ENTITIES
0
ARC
8
BLACK
10
105.46
20
-110
40
2.54
50
-90
51
-0
0
LINE
8
BLACK
6
CONTINUOUS
10
108
20
-110
11
108
21
-33
0
LINE
8
BLACK
6
CONTINUOUS
10
105.46
20
-112.54
11
32.54
21
-112.542
0
LINE
8
BLACK
6
CONTINUOUS
10
105.46
20
-30.46
11
32.54
21
-30.46
0
LINE
8
BLACK
6
CONTINUOUS
10
30
20
-110
11
30
21
-33
0
ARC
8
BLACK
10
32.542
20
-110
40
2.542
50
-180
51
-90.0451
0
ARC
8
BLACK
10
105.46
20
-33
40
2.54
50
-0
51
90
0
LINE
8
BLACK
6
CONTINUOUS
10
68.1
20
-68.2
11
68.5
21
-68.2
0
LINE
8
BLACK
6
CONTINUOUS
10
68.5
20
-68.2
11
68.5
21
-83.5
0
LINE
8
BLACK
6
CONTINUOUS
10
68.5
20
-83.5
11
68.1
21
-83.5
0
LINE
8
BLACK
6
CONTINUOUS
10
68.1
20
-83.5
11
68.1
21
-68.2
0
LINE
8
BLACK
6
CONTINUOUS
10
68.8
20
-68.2
11
69.2
21
-68.2
0
LINE
8
BLACK
6
CONTINUOUS
10
69.2
20
-68.2
11
69.2
21
-83.5
0
LINE
8
BLACK
6
CONTINUOUS
10
69.2
20
-83.5
11
68.8
21
-83.5
0
LINE
8
BLACK
6
CONTINUOUS
10
68.8
20
-83.5
11
68.8
21
-68.2
0
LINE
8
BLACK
6
CONTINUOUS
10
71.1
20
-68.2
11
71.3
21
-68.2
0
LINE
8
BLACK
6
CONTINUOUS
10
71.3
20
-68.2
11
71.3
21
-83.5
0
LINE
8
BLACK
6
CONTINUOUS
10
71.3
20
-83.5
11
71.1
21
-83.5
0
LINE
8
BLACK
6
CONTINUOUS
10
71.1
20
-83.5
11
71.1
21
-68.2
0
LINE
8
BLACK
6
CONTINUOUS
10
70.2
20
-68.2
11
70.4
21
-68.2
0
LINE
8
BLACK
6
CONTINUOUS
10
70.4
20
-68.2
11
70.4
21
-83.5
0
LINE
8
BLACK
6
CONTINUOUS
10
70.4
20
-83.5
11
70.2
21
-83.5
0
LINE
8
BLACK
6
CONTINUOUS
10
70.2
20
-83.5
11
70.2
21
-68.2
0
LINE
8
BLACK
6
CONTINUOUS
10
71.7
20
-68.2
11
71.9
21
-68.2
0
LINE
8
BLACK
6
CONTINUOUS
10
71.9
20
-68.2
11
71.9
21
-83.5
0
LINE
8
BLACK
6
CONTINUOUS
10
71.9
20
-83.5
11
71.7
21
-83.5
0
LINE
8
BLACK
6
CONTINUOUS
10
71.7
20
-83.5
11
71.7
21
-68.2
0
LINE
8
BLACK
6
CONTINUOUS
10
69.4
20
-68.2
11
69.8
21
-68.2
0
LINE
8
BLACK
6
CONTINUOUS
10
69.8
20
-68.2
11
69.8
21
-83.5
0
LINE
8
BLACK
6
CONTINUOUS
10
69.8
20
-83.5
11
69.4
21
-83.5
0
LINE
8
BLACK
6
CONTINUOUS
10
69.4
20
-83.5
11
69.4
21
-68.2
0
LINE
8
BLACK
6
CONTINUOUS
10
67.3
20
-68.2
11
67.7
21
-68.2
0
LINE
8
BLACK
6
CONTINUOUS
10
67.7
20
-68.2
11
67.7
21
-83.5
0
LINE
8
BLACK
6
CONTINUOUS
10
67.7
20
-83.5
11
67.3
21
-83.5
0
LINE
8
BLACK
6
CONTINUOUS
10
67.3
20
-83.5
11
67.3
21
-68.2
0
ARC
8
BLACK
10
32.54
20
-33
40
2.54
50
90
51
180
0
LINE
8
BLACK
6
CONTINUOUS
10
70.6
20
-68.2
11
70.8
21
-68.2
0
LINE
8
BLACK
6
CONTINUOUS
10
70.8
20
-68.2
11
70.8
21
-83.5
0
LINE
8
BLACK
6
CONTINUOUS
10
70.8
20
-83.5
11
70.6
21
-83.5
0
LINE
8
BLACK
6
CONTINUOUS
10
70.6
20
-83.5
11
70.6
21
-68.2
0
LINE
8
BLACK
6
CONTINUOUS
10
69.9
20
-68.2
11
70.1
21
-68.2
0
LINE
8
BLACK
6
CONTINUOUS
10
70.1
20
-68.2
11
70.1
21
-83.5
0
LINE
8
BLACK
6
CONTINUOUS
10
70.1
20
-83.5
11
69.9
21
-83.5
0
LINE
8
BLACK
6
CONTINUOUS
10
69.9
20
-83.5
11
69.9
21
-68.2
0
LINE
8
BLACK
6
CONTINUOUS
10
52.45
20
-90.05
11
52.75
21
-90.35
0
LINE
8
BLACK
6
CONTINUOUS
10
52.75
20
-90.05
11
52.45
21
-90.35
0
CIRCLE
8
BLACK
10
45.6245
20
-45.7845
40
0.2
0
LINE
8
BLACK
6
CONTINUOUS
10
49.15
20
-39.8
11
49.15
21
-40.2
0
LINE
8
BLACK
6
CONTINUOUS
10
48.95
20
-40
11
49.35
21
-40
0
LINE
8
BLACK
6
CONTINUOUS
10
49.6333
20
-38.6333
11
49.6333
21
-39.0333
0
LINE
8
BLACK
6
CONTINUOUS
10
49.4333
20
-38.8333
11
49.8333
21
-38.8333
0
LINE
8
BLACK
6
CONTINUOUS
10
49.6333
20
-40.9667
11
49.6333
21
-41.3667
0
LINE
8
BLACK
6
CONTINUOUS
10
49.4333
20
-41.1667
11
49.8333
21
-41.1667
0
LINE
8
BLACK
6
CONTINUOUS
10
50.8
20
-38.15
11
50.8
21
-38.55
0
LINE
8
BLACK
6
CONTINUOUS
10
50.6
20
-38.35
11
51
21
-38.35
0
LINE
8
BLACK
6
CONTINUOUS
10
50.8
20
-41.45
11
50.8
21
-41.85
0
LINE
8
BLACK
6
CONTINUOUS
10
50.6
20
-41.65
11
51
21
-41.65
0
LINE
8
BLACK
6
CONTINUOUS
10
51.9667
20
-38.6333
11
51.9667
21
-39.0333
0
LINE
8
BLACK
6
CONTINUOUS
10
51.7667
20
-38.8333
11
52.1667
21
-38.8333
0
LINE
8
BLACK
6
CONTINUOUS
10
51.9667
20
-40.9667
11
51.9667
21
-41.3667
0
LINE
8
BLACK
6
CONTINUOUS
10
51.7667
20
-41.1667
11
52.1667
21
-41.1667
0
LINE
8
BLACK
6
CONTINUOUS
10
52.45
20
-39.8
11
52.45
21
-40.2
0
LINE
8
BLACK
6
CONTINUOUS
10
52.25
20
-40
11
52.65
21
-40
0
LINE
8
BLACK
6
CONTINUOUS
10
69.4
20
-85.1
11
69.4
21
-85.5
0
LINE
8
BLACK
6
CONTINUOUS
10
69.2
20
-85.3
11
69.6
21
-85.3
0
LINE
8
BLACK
6
CONTINUOUS
10
71.4
20
-85.1
11
71.4
21
-85.5
0
LINE
8
BLACK
6
CONTINUOUS
10
71.2
20
-85.3
11
71.6
21
-85.3
0
LINE
8
BLACK
6
CONTINUOUS
10
71.4
20
-90.1
11
71.4
21
-90.5
0
LINE
8
BLACK
6
CONTINUOUS
10
71.2
20
-90.3
11
71.6
21
-90.3
0
LINE
8
BLACK
6
CONTINUOUS
10
73.4
20
-85.1
11
73.4
21
-85.5
0
LINE
8
BLACK
6
CONTINUOUS
10
73.2
20
-85.3
11
73.6
21
-85.3
0
LINE
8
BLACK
6
CONTINUOUS
10
73.4
20
-90.1
11
73.4
21
-90.5
0
LINE
8
BLACK
6
CONTINUOUS
10
73.2
20
-90.3
11
73.6
21
-90.3
0
LINE
8
BLACK
6
CONTINUOUS
10
75.4
20
-85.1
11
75.4
21
-85.5
0
LINE
8
BLACK
6
CONTINUOUS
10
75.2
20
-85.3
11
75.6
21
-85.3
0
LINE
8
BLACK
6
CONTINUOUS
10
75.4
20
-90.1
11
75.4
21
-90.5
0
LINE
8
BLACK
6
CONTINUOUS
10
75.2
20
-90.3
11
75.6
21
-90.3
0
LINE
8
BLACK
6
CONTINUOUS
10
77.4
20
-85.1
11
77.4
21
-85.5
0
LINE
8
BLACK
6
CONTINUOUS
10
77.2
20
-85.3
11
77.6
21
-85.3
0
LINE
8
BLACK
6
CONTINUOUS
10
77.4
20
-90.1
11
77.4
21
-90.5
0
LINE
8
BLACK
6
CONTINUOUS
10
77.2
20
-90.3
11
77.6
21
-90.3
0
LINE
8
BLACK
6
CONTINUOUS
10
79.4
20
-85.1
11
79.4
21
-85.5
0
LINE
8
BLACK
6
CONTINUOUS
10
79.2
20
-85.3
11
79.6
21
-85.3
0
LINE
8
BLACK
6
CONTINUOUS
10
79.4
20
-90.1
11
79.4
21
-90.5
0
LINE
8
BLACK
6
CONTINUOUS
10
79.2
20
-90.3
11
79.6
21
-90.3
0
LINE
8
BLACK
6
CONTINUOUS
10
81.4
20
-85.1
11
81.4
21
-85.5
0
LINE
8
BLACK
6
CONTINUOUS
10
81.2
20
-85.3
11
81.6
21
-85.3
0
LINE
8
BLACK
6
CONTINUOUS
10
81.4
20
-90.1
11
81.4
21
-90.5
0
LINE
8
BLACK
6
CONTINUOUS
10
81.2
20
-90.3
11
81.6
21
-90.3
0
LINE
8
BLACK
6
CONTINUOUS
10
83.4
20
-85.1
11
83.4
21
-85.5
0
LINE
8
BLACK
6
CONTINUOUS
10
83.2
20
-85.3
11
83.6
21
-85.3
0
LINE
8
BLACK
6
CONTINUOUS
10
83.4
20
-90.1
11
83.4
21
-90.5
0
LINE
8
BLACK
6
CONTINUOUS
10
83.2
20
-90.3
11
83.6
21
-90.3
0
LINE
8
BLACK
6
CONTINUOUS
10
85.4
20
-85.1
11
85.4
21
-85.5
0
LINE
8
BLACK
6
CONTINUOUS
10
85.2
20
-85.3
11
85.6
21
-85.3
0
LINE
8
BLACK
6
CONTINUOUS
10
85.4
20
-90.1
11
85.4
21
-90.5
0
LINE
8
BLACK
6
CONTINUOUS
10
85.2
20
-90.3
11
85.6
21
-90.3
0
LINE
8
BLACK
6
CONTINUOUS
10
87.4
20
-85.1
11
87.4
21
-85.5
0
LINE
8
BLACK
6
CONTINUOUS
10
87.2
20
-85.3
11
87.6
21
-85.3
0
LINE
8
BLACK
6
CONTINUOUS
10
87.4
20
-90.1
11
87.4
21
-90.5
0
LINE
8
BLACK
6
CONTINUOUS
10
87.2
20
-90.3
11
87.6
21
-90.3
0
LINE
8
BLACK
6
CONTINUOUS
10
78.6768
20
-33.3768
11
78.6768
21
-33.0232
0
LINE
8
BLACK
6
CONTINUOUS
10
78.6768
20
-33.0232
11
78.3232
21
-33.0232
0
LINE
8
BLACK
6
CONTINUOUS
10
78.3232
20
-33.0232
11
78.3232
21
-33.3768
0
LINE
8
BLACK
6
CONTINUOUS
10
78.3232
20
-33.3768
11
78.6768
21
-33.3768
0
LINE
8
BLACK
6
CONTINUOUS
10
84.2768
20
-33.3768
11
84.2768
21
-33.0232
0
LINE
8
BLACK
6
CONTINUOUS
10
84.2768
20
-33.0232
11
83.9232
21
-33.0232
0
LINE
8
BLACK
6
CONTINUOUS
10
83.9232
20
-33.0232
11
83.9232
21
-33.3768
0
LINE
8
BLACK
6
CONTINUOUS
10
83.9232
20
-33.3768
11
84.2768
21
-33.3768
0
LINE
8
BLACK
6
CONTINUOUS
10
89.6768
20
-33.2768
11
89.6768
21
-32.9232
0
LINE
8
BLACK
6
CONTINUOUS
10
89.6768
20
-32.9232
11
89.3232
21
-32.9232
0
LINE
8
BLACK
6
CONTINUOUS
10
89.3232
20
-32.9232
11
89.3232
21
-33.2768
0
LINE
8
BLACK
6
CONTINUOUS
10
89.3232
20
-33.2768
11
89.6768
21
-33.2768
0
LINE
8
BLACK
6
CONTINUOUS
10
78.7
20
-36.15
11
79.05
21
-35.8
0
LINE
8
BLACK
6
CONTINUOUS
10
79.05
20
-35.8
11
78.7
21
-35.45
0
LINE
8
BLACK
6
CONTINUOUS
10
78.7
20
-35.45
11
78.35
21
-35.8
0
LINE
8
BLACK
6
CONTINUOUS
10
78.35
20
-35.8
11
78.7
21
-36.15
0
LINE
8
BLACK
6
CONTINUOUS
10
80.7
20
-36.15
11
81.05
21
-35.8
0
LINE
8
BLACK
6
CONTINUOUS
10
81.05
20
-35.8
11
80.7
21
-35.45
0
LINE
8
BLACK
6
CONTINUOUS
10
80.7
20
-35.45
11
80.35
21
-35.8
0
LINE
8
BLACK
6
CONTINUOUS
10
80.35
20
-35.8
11
80.7
21
-36.15
0
LINE
8
BLACK
6
CONTINUOUS
10
37.576
20
-39.675
11
38.576
21
-40.675
0
LINE
8
BLACK
6
CONTINUOUS
10
38.576
20
-39.675
11
37.576
21
-40.675
0
CIRCLE
8
BLACK
10
38.076
20
-40.175
40
0.5
0
LINE
8
BLACK
6
CONTINUOUS
10
37.576
20
-42.215
11
38.576
21
-43.215
0
LINE
8
BLACK
6
CONTINUOUS
10
38.576
20
-42.215
11
37.576
21
-43.215
0
CIRCLE
8
BLACK
10
38.076
20
-42.715
40
0.5
0
LINE
8
BLACK
6
CONTINUOUS
10
37.576
20
-44.755
11
38.576
21
-45.755
0
LINE
8
BLACK
6
CONTINUOUS
10
38.576
20
-44.755
11
37.576
21
-45.755
0
CIRCLE
8
BLACK
10
38.076
20
-45.255
40
0.5
0
LINE
8
BLACK
6
CONTINUOUS
10
37.576
20
-47.295
11
38.576
21
-48.295
0
LINE
8
BLACK
6
CONTINUOUS
10
38.576
20
-47.295
11
37.576
21
-48.295
0
CIRCLE
8
BLACK
10
38.076
20
-47.795
40
0.5
0
LINE
8
BLACK
6
CONTINUOUS
10
37.576
20
-49.835
11
38.576
21
-50.835
0
LINE
8
BLACK
6
CONTINUOUS
10
38.576
20
-49.835
11
37.576
21
-50.835
0
CIRCLE
8
BLACK
10
38.076
20
-50.335
40
0.5
0
LINE
8
BLACK
6
CONTINUOUS
10
85.1
20
-36.4
11
86.1
21
-37.4
0
LINE
8
BLACK
6
CONTINUOUS
10
86.1
20
-36.4
11
85.1
21
-37.4
0
CIRCLE
8
BLACK
10
85.6
20
-36.9
40
0.5
0
LINE
8
BLACK
6
CONTINUOUS
10
105.164
20
-39.486
11
106.164
21
-40.486
0
LINE
8
BLACK
6
CONTINUOUS
10
106.164
20
-39.486
11
105.164
21
-40.486
0
CIRCLE
8
BLACK
10
105.664
20
-39.986
40
0.5
0
LINE
8
BLACK
6
CONTINUOUS
10
105.164
20
-42.026
11
106.164
21
-43.026
0
LINE
8
BLACK
6
CONTINUOUS
10
106.164
20
-42.026
11
105.164
21
-43.026
0
CIRCLE
8
BLACK
10
105.664
20
-42.526
40
0.5
0
LINE
8
BLACK
6
CONTINUOUS
10
105.164
20
-44.566
11
106.164
21
-45.566
0
LINE
8
BLACK
6
CONTINUOUS
10
106.164
20
-44.566
11
105.164
21
-45.566
0
CIRCLE
8
BLACK
10
105.664
20
-45.066
40
0.5
0
LINE
8
BLACK
6
CONTINUOUS
10
105.164
20
-47.106
11
106.164
21
-48.106
0
LINE
8
BLACK
6
CONTINUOUS
10
106.164
20
-47.106
11
105.164
21
-48.106
0
CIRCLE
8
BLACK
10
105.664
20
-47.606
40
0.5
0
LINE
8
BLACK
6
CONTINUOUS
10
105.164
20
-49.646
11
106.164
21
-50.646
0
LINE
8
BLACK
6
CONTINUOUS
10
106.164
20
-49.646
11
105.164
21
-50.646
0
CIRCLE
8
BLACK
10
105.664
20
-50.146
40
0.5
0
LINE
8
BLACK
6
CONTINUOUS
10
33.1
20
-33.7
11
34.3
21
-34.9
0
LINE
8
BLACK
6
CONTINUOUS
10
34.3
20
-33.7
11
33.1
21
-34.9
0
LINE
8
BLACK
6
CONTINUOUS
10
33.7
20
-33.7
11
33.7
21
-34.9
0
LINE
8
BLACK
6
CONTINUOUS
10
33.1
20
-34.3
11
34.3
21
-34.3
0
LINE
8
BLACK
6
CONTINUOUS
10
61.3
20
-92.5
11
62.5
21
-93.7
0
LINE
8
BLACK
6
CONTINUOUS
10
62.5
20
-92.5
11
61.3
21
-93.7
0
LINE
8
BLACK
6
CONTINUOUS
10
61.9
20
-92.5
11
61.9
21
-93.7
0
LINE
8
BLACK
6
CONTINUOUS
10
61.3
20
-93.1
11
62.5
21
-93.1
0
LINE
8
BLACK
6
CONTINUOUS
10
103.7
20
-33.3
11
104.9
21
-34.5
0
LINE
8
BLACK
6
CONTINUOUS
10
104.9
20
-33.3
11
103.7
21
-34.5
0
LINE
8
BLACK
6
CONTINUOUS
10
104.3
20
-33.3
11
104.3
21
-34.5
0
LINE
8
BLACK
6
CONTINUOUS
10
103.7
20
-33.9
11
104.9
21
-33.9
0
LINE
8
BLACK
6
CONTINUOUS
10
89
20
-36.2
11
90.6
21
-37.8
0
LINE
8
BLACK
6
CONTINUOUS
10
90.6
20
-36.2
11
89
21
-37.8
0
LINE
8
BLACK
6
CONTINUOUS
10
90.3657
20
-37.5657
11
90.3657
21
-36.4343
0
LINE
8
BLACK
6
CONTINUOUS
10
90.3657
20
-36.4343
11
89.2343
21
-36.4343
0
LINE
8
BLACK
6
CONTINUOUS
10
89.2343
20
-36.4343
11
89.2343
21
-37.5657
0
LINE
8
BLACK
6
CONTINUOUS
10
89.2343
20
-37.5657
11
90.3657
21
-37.5657
0
LINE
8
BLACK
6
CONTINUOUS
10
49.7
20
-38.9
11
51.9
21
-41.1
0
LINE
8
BLACK
6
CONTINUOUS
10
51.9
20
-38.9
11
49.7
21
-41.1
0
LINE
8
BLACK
6
CONTINUOUS
10
50.8
20
-41.1
11
51.9
21
-40
0
LINE
8
BLACK
6
CONTINUOUS
10
51.9
20
-40
11
50.8
21
-38.9
0
LINE
8
BLACK
6
CONTINUOUS
10
50.8
20
-38.9
11
49.7
21
-40
0
LINE
8
BLACK
6
CONTINUOUS
10
49.7
20
-40
11
50.8
21
-41.1
0
LINE
8
BLACK
6
CONTINUOUS
10
54.5
20
-33.5
11
56.7
21
-35.7
0
LINE
8
BLACK
6
CONTINUOUS
10
56.7
20
-33.5
11
54.5
21
-35.7
0
LINE
8
BLACK
6
CONTINUOUS
10
55.6
20
-35.7
11
56.7
21
-34.6
0
LINE
8
BLACK
6
CONTINUOUS
10
56.7
20
-34.6
11
55.6
21
-33.5
0
LINE
8
BLACK
6
CONTINUOUS
10
55.6
20
-33.5
11
54.5
21
-34.6
0
LINE
8
BLACK
6
CONTINUOUS
10
54.5
20
-34.6
11
55.6
21
-35.7
0
LINE
8
BLACK
6
CONTINUOUS
10
59.6
20
-33.6
11
61.8
21
-35.8
0
LINE
8
BLACK
6
CONTINUOUS
10
61.8
20
-33.6
11
59.6
21
-35.8
0
LINE
8
BLACK
6
CONTINUOUS
10
60.7
20
-35.8
11
61.8
21
-34.7
0
LINE
8
BLACK
6
CONTINUOUS
10
61.8
20
-34.7
11
60.7
21
-33.6
0
LINE
8
BLACK
6
CONTINUOUS
10
60.7
20
-33.6
11
59.6
21
-34.7
0
LINE
8
BLACK
6
CONTINUOUS
10
59.6
20
-34.7
11
60.7
21
-35.8
0
LINE
8
BLACK
6
CONTINUOUS
10
32.5512
20
-115.672
11
32.5512
21
-113.672
0
LINE
8
BLACK
6
CONTINUOUS
10
32.5512
20
-113.672
11
33.0274
21
-113.672
0
LINE
8
BLACK
6
CONTINUOUS
10
33.0274
20
-113.672
11
33.3131
21
-113.767
0
LINE
8
BLACK
6
CONTINUOUS
10
33.3131
20
-113.767
11
33.5036
21
-113.957
0
LINE
8
BLACK
6
CONTINUOUS
10
33.5036
20
-113.957
11
33.5988
21
-114.148
0
LINE
8
BLACK
6
CONTINUOUS
10
33.5988
20
-114.148
11
33.694
21
-114.529
0
LINE
8
BLACK
6
CONTINUOUS
10
33.694
20
-114.529
11
33.694
21
-114.815
0
LINE
8
BLACK
6
CONTINUOUS
10
33.694
20
-114.815
11
33.5988
21
-115.196
0
LINE
8
BLACK
6
CONTINUOUS
10
33.5988
20
-115.196
11
33.5036
21
-115.386
0
LINE
8
BLACK
6
CONTINUOUS
10
33.5036
20
-115.386
11
33.3131
21
-115.577
0
LINE
8
BLACK
6
CONTINUOUS
10
33.3131
20
-115.577
11
33.0274
21
-115.672
0
LINE
8
BLACK
6
CONTINUOUS
10
33.0274
20
-115.672
11
32.5512
21
-115.672
0
LINE
8
BLACK
6
CONTINUOUS
10
34.5512
20
-115.672
11
34.5512
21
-114.338
0
LINE
8
BLACK
6
CONTINUOUS
10
34.5512
20
-114.719
11
34.6464
21
-114.529
0
LINE
8
BLACK
6
CONTINUOUS
10
34.6464
20
-114.529
11
34.7417
21
-114.434
0
LINE
8
BLACK
6
CONTINUOUS
10
34.7417
20
-114.434
11
34.9321
21
-114.338
0
LINE
8
BLACK
6
CONTINUOUS
10
34.9321
20
-114.338
11
35.1226
21
-114.338
0
LINE
8
BLACK
6
CONTINUOUS
10
35.7893
20
-115.672
11
35.7893
21
-114.338
0
LINE
8
BLACK
6
CONTINUOUS
10
35.7893
20
-113.672
11
35.694
21
-113.767
0
LINE
8
BLACK
6
CONTINUOUS
10
35.694
20
-113.767
11
35.7893
21
-113.862
0
LINE
8
BLACK
6
CONTINUOUS
10
35.7893
20
-113.862
11
35.8845
21
-113.767
0
LINE
8
BLACK
6
CONTINUOUS
10
35.8845
20
-113.767
11
35.7893
21
-113.672
0
LINE
8
BLACK
6
CONTINUOUS
10
35.7893
20
-113.672
11
35.7893
21
-113.862
0
LINE
8
BLACK
6
CONTINUOUS
10
37.0274
20
-115.672
11
36.8369
21
-115.577
0
LINE
8
BLACK
6
CONTINUOUS
10
36.8369
20
-115.577
11
36.7417
21
-115.386
0
LINE
8
BLACK
6
CONTINUOUS
10
36.7417
20
-115.386
11
36.7417
21
-113.672
0
LINE
8
BLACK
6
CONTINUOUS
10
38.075
20
-115.672
11
37.8845
21
-115.577
0
LINE
8
BLACK
6
CONTINUOUS
10
37.8845
20
-115.577
11
37.7893
21
-115.386
0
LINE
8
BLACK
6
CONTINUOUS
10
37.7893
20
-115.386
11
37.7893
21
-113.672
0
LINE
8
BLACK
6
CONTINUOUS
10
40.3607
20
-115.672
11
40.3607
21
-113.672
0
LINE
8
BLACK
6
CONTINUOUS
10
40.3607
20
-113.672
11
41.0274
21
-115.1
0
LINE
8
BLACK
6
CONTINUOUS
10
41.0274
20
-115.1
11
41.694
21
-113.672
0
LINE
8
BLACK
6
CONTINUOUS
10
41.694
20
-113.672
11
41.694
21
-115.672
0
LINE
8
BLACK
6
CONTINUOUS
10
43.5036
20
-115.672
11
43.5036
21
-114.624
0
LINE
8
BLACK
6
CONTINUOUS
10
43.5036
20
-114.624
11
43.4083
21
-114.434
0
LINE
8
BLACK
6
CONTINUOUS
10
43.4083
20
-114.434
11
43.2179
21
-114.338
0
LINE
8
BLACK
6
CONTINUOUS
10
43.2179
20
-114.338
11
42.8369
21
-114.338
0
LINE
8
BLACK
6
CONTINUOUS
10
42.8369
20
-114.338
11
42.6464
21
-114.434
0
LINE
8
BLACK
6
CONTINUOUS
10
43.5036
20
-115.577
11
43.3131
21
-115.672
0
LINE
8
BLACK
6
CONTINUOUS
10
43.3131
20
-115.672
11
42.8369
21
-115.672
0
LINE
8
BLACK
6
CONTINUOUS
10
42.8369
20
-115.672
11
42.6464
21
-115.577
0
LINE
8
BLACK
6
CONTINUOUS
10
42.6464
20
-115.577
11
42.5512
21
-115.386
0
LINE
8
BLACK
6
CONTINUOUS
10
42.5512
20
-115.386
11
42.5512
21
-115.196
0
LINE
8
BLACK
6
CONTINUOUS
10
42.5512
20
-115.196
11
42.6464
21
-115.005
0
LINE
8
BLACK
6
CONTINUOUS
10
42.6464
20
-115.005
11
42.8369
21
-114.91
0
LINE
8
BLACK
6
CONTINUOUS
10
42.8369
20
-114.91
11
43.3131
21
-114.91
0
LINE
8
BLACK
6
CONTINUOUS
10
43.3131
20
-114.91
11
43.5036
21
-114.815
0
LINE
8
BLACK
6
CONTINUOUS
10
44.456
20
-114.338
11
44.456
21
-116.338
0
LINE
8
BLACK
6
CONTINUOUS
10
44.456
20
-114.434
11
44.6464
21
-114.338
0
LINE
8
BLACK
6
CONTINUOUS
10
44.6464
20
-114.338
11
45.0274
21
-114.338
0
LINE
8
BLACK
6
CONTINUOUS
10
45.0274
20
-114.338
11
45.2179
21
-114.434
0
LINE
8
BLACK
6
CONTINUOUS
10
45.2179
20
-114.434
11
45.3131
21
-114.529
0
LINE
8
BLACK
6
CONTINUOUS
10
45.3131
20
-114.529
11
45.4083
21
-114.719
0
LINE
8
BLACK
6
CONTINUOUS
10
45.4083
20
-114.719
11
45.4083
21
-115.291
0
LINE
8
BLACK
6
CONTINUOUS
10
45.4083
20
-115.291
11
45.3131
21
-115.481
0
LINE
8
BLACK
6
CONTINUOUS
10
45.3131
20
-115.481
11
45.2179
21
-115.577
0
LINE
8
BLACK
6
CONTINUOUS
10
45.2179
20
-115.577
11
45.0274
21
-115.672
0
LINE
8
BLACK
6
CONTINUOUS
10
45.0274
20
-115.672
11
44.6464
21
-115.672
0
LINE
8
BLACK
6
CONTINUOUS
10
44.6464
20
-115.672
11
44.456
21
-115.577
0
LINE
8
BLACK
6
CONTINUOUS
10
46.2655
20
-115.481
11
46.3607
21
-115.577
0
LINE
8
BLACK
6
CONTINUOUS
10
46.3607
20
-115.577
11
46.2655
21
-115.672
0
LINE
8
BLACK
6
CONTINUOUS
10
46.2655
20
-115.672
11
46.1702
21
-115.577
0
LINE
8
BLACK
6
CONTINUOUS
10
46.1702
20
-115.577
11
46.2655
21
-115.481
0
LINE
8
BLACK
6
CONTINUOUS
10
46.2655
20
-115.481
11
46.2655
21
-115.672
0
LINE
8
BLACK
6
CONTINUOUS
10
46.2655
20
-114.434
11
46.3607
21
-114.529
0
LINE
8
BLACK
6
CONTINUOUS
10
46.3607
20
-114.529
11
46.2655
21
-114.624
0
LINE
8
BLACK
6
CONTINUOUS
10
46.2655
20
-114.624
11
46.1702
21
-114.529
0
LINE
8
BLACK
6
CONTINUOUS
10
46.1702
20
-114.529
11
46.2655
21
-114.434
0
LINE
8
BLACK
6
CONTINUOUS
10
46.2655
20
-114.434
11
46.2655
21
-114.624
0
LINE
8
BLACK
6
CONTINUOUS
10
29.675
20
-118.817
11
29.975
21
-119.117
0
LINE
8
BLACK
6
CONTINUOUS
10
29.975
20
-118.817
11
29.675
21
-119.117
0
LINE
8
BLACK
6
CONTINUOUS
10
32.9321
20
-117.872
11
33.1226
21
-117.872
0
LINE
8
BLACK
6
CONTINUOUS
10
33.1226
20
-117.872
11
33.3131
21
-117.967
0
LINE
8
BLACK
6
CONTINUOUS
10
33.3131
20
-117.967
11
33.4083
21
-118.062
0
LINE
8
BLACK
6
CONTINUOUS
10
33.4083
20
-118.062
11
33.5036
21
-118.253
0
LINE
8
BLACK
6
CONTINUOUS
10
33.5036
20
-118.253
11
33.5988
21
-118.634
0
LINE
8
BLACK
6
CONTINUOUS
10
33.5988
20
-118.634
11
33.5988
21
-119.11
0
LINE
8
BLACK
6
CONTINUOUS
10
33.5988
20
-119.11
11
33.5036
21
-119.491
0
LINE
8
BLACK
6
CONTINUOUS
10
33.5036
20
-119.491
11
33.4083
21
-119.681
0
LINE
8
BLACK
6
CONTINUOUS
10
33.4083
20
-119.681
11
33.3131
21
-119.777
0
LINE
8
BLACK
6
CONTINUOUS
10
33.3131
20
-119.777
11
33.1226
21
-119.872
0
LINE
8
BLACK
6
CONTINUOUS
10
33.1226
20
-119.872
11
32.9321
21
-119.872
0
LINE
8
BLACK
6
CONTINUOUS
10
32.9321
20
-119.872
11
32.7417
21
-119.777
0
LINE
8
BLACK
6
CONTINUOUS
10
32.7417
20
-119.777
11
32.6464
21
-119.681
0
LINE
8
BLACK
6
CONTINUOUS
10
32.6464
20
-119.681
11
32.5512
21
-119.491
0
LINE
8
BLACK
6
CONTINUOUS
10
32.5512
20
-119.491
11
32.456
21
-119.11
0
LINE
8
BLACK
6
CONTINUOUS
10
32.456
20
-119.11
11
32.456
21
-118.634
0
LINE
8
BLACK
6
CONTINUOUS
10
32.456
20
-118.634
11
32.5512
21
-118.253
0
LINE
8
BLACK
6
CONTINUOUS
10
32.5512
20
-118.253
11
32.6464
21
-118.062
0
LINE
8
BLACK
6
CONTINUOUS
10
32.6464
20
-118.062
11
32.7417
21
-117.967
0
LINE
8
BLACK
6
CONTINUOUS
10
32.7417
20
-117.967
11
32.9321
21
-117.872
0
LINE
8
BLACK
6
CONTINUOUS
10
34.456
20
-119.681
11
34.5512
21
-119.777
0
LINE
8
BLACK
6
CONTINUOUS
10
34.5512
20
-119.777
11
34.456
21
-119.872
0
LINE
8
BLACK
6
CONTINUOUS
10
34.456
20
-119.872
11
34.3607
21
-119.777
0
LINE
8
BLACK
6
CONTINUOUS
10
34.3607
20
-119.777
11
34.456
21
-119.681
0
LINE
8
BLACK
6
CONTINUOUS
10
34.456
20
-119.681
11
34.456
21
-119.872
0
LINE
8
BLACK
6
CONTINUOUS
10
35.2179
20
-117.872
11
36.456
21
-117.872
0
LINE
8
BLACK
6
CONTINUOUS
10
36.456
20
-117.872
11
35.7893
21
-118.634
0
LINE
8
BLACK
6
CONTINUOUS
10
35.7893
20
-118.634
11
36.075
21
-118.634
0
LINE
8
BLACK
6
CONTINUOUS
10
36.075
20
-118.634
11
36.2655
21
-118.729
0
LINE
8
BLACK
6
CONTINUOUS
10
36.2655
20
-118.729
11
36.3607
21
-118.824
0
LINE
8
BLACK
6
CONTINUOUS
10
36.3607
20
-118.824
11
36.456
21
-119.015
0
LINE
8
BLACK
6
CONTINUOUS
10
36.456
20
-119.015
11
36.456
21
-119.491
0
LINE
8
BLACK
6
CONTINUOUS
10
36.456
20
-119.491
11
36.3607
21
-119.681
0
LINE
8
BLACK
6
CONTINUOUS
10
36.3607
20
-119.681
11
36.2655
21
-119.777
0
LINE
8
BLACK
6
CONTINUOUS
10
36.2655
20
-119.777
11
36.075
21
-119.872
0
LINE
8
BLACK
6
CONTINUOUS
10
36.075
20
-119.872
11
35.5036
21
-119.872
0
LINE
8
BLACK
6
CONTINUOUS
10
35.5036
20
-119.872
11
35.3131
21
-119.777
0
LINE
8
BLACK
6
CONTINUOUS
10
35.3131
20
-119.777
11
35.2179
21
-119.681
0
LINE
8
BLACK
6
CONTINUOUS
10
37.694
20
-117.872
11
37.8845
21
-117.872
0
LINE
8
BLACK
6
CONTINUOUS
10
37.8845
20
-117.872
11
38.075
21
-117.967
0
LINE
8
BLACK
6
CONTINUOUS
10
38.075
20
-117.967
11
38.1702
21
-118.062
0
LINE
8
BLACK
6
CONTINUOUS
10
38.1702
20
-118.062
11
38.2655
21
-118.253
0
LINE
8
BLACK
6
CONTINUOUS
10
38.2655
20
-118.253
11
38.3607
21
-118.634
0
LINE
8
BLACK
6
CONTINUOUS
10
38.3607
20
-118.634
11
38.3607
21
-119.11
0
LINE
8
BLACK
6
CONTINUOUS
10
38.3607
20
-119.11
11
38.2655
21
-119.491
0
LINE
8
BLACK
6
CONTINUOUS
10
38.2655
20
-119.491
11
38.1702
21
-119.681
0
LINE
8
BLACK
6
CONTINUOUS
10
38.1702
20
-119.681
11
38.075
21
-119.777
0
LINE
8
BLACK
6
CONTINUOUS
10
38.075
20
-119.777
11
37.8845
21
-119.872
0
LINE
8
BLACK
6
CONTINUOUS
10
37.8845
20
-119.872
11
37.694
21
-119.872
0
LINE
8
BLACK
6
CONTINUOUS
10
37.694
20
-119.872
11
37.5036
21
-119.777
0
LINE
8
BLACK
6
CONTINUOUS
10
37.5036
20
-119.777
11
37.4083
21
-119.681
0
LINE
8
BLACK
6
CONTINUOUS
10
37.4083
20
-119.681
11
37.3131
21
-119.491
0
LINE
8
BLACK
6
CONTINUOUS
10
37.3131
20
-119.491
11
37.2179
21
-119.11
0
LINE
8
BLACK
6
CONTINUOUS
10
37.2179
20
-119.11
11
37.2179
21
-118.634
0
LINE
8
BLACK
6
CONTINUOUS
10
37.2179
20
-118.634
11
37.3131
21
-118.253
0
LINE
8
BLACK
6
CONTINUOUS
10
37.3131
20
-118.253
11
37.4083
21
-118.062
0
LINE
8
BLACK
6
CONTINUOUS
10
37.4083
20
-118.062
11
37.5036
21
-117.967
0
LINE
8
BLACK
6
CONTINUOUS
10
37.5036
20
-117.967
11
37.694
21
-117.872
0
LINE
8
BLACK
6
CONTINUOUS
10
39.5988
20
-117.872
11
39.7893
21
-117.872
0
LINE
8
BLACK
6
CONTINUOUS
10
39.7893
20
-117.872
11
39.9798
21
-117.967
0
LINE
8
BLACK
6
CONTINUOUS
10
39.9798
20
-117.967
11
40.075
21
-118.062
0
LINE
8
BLACK
6
CONTINUOUS
10
40.075
20
-118.062
11
40.1702
21
-118.253
0
LINE
8
BLACK
6
CONTINUOUS
10
40.1702
20
-118.253
11
40.2655
21
-118.634
0
LINE
8
BLACK
6
CONTINUOUS
10
40.2655
20
-118.634
11
40.2655
21
-119.11
0
LINE
8
BLACK
6
CONTINUOUS
10
40.2655
20
-119.11
11
40.1702
21
-119.491
0
LINE
8
BLACK
6
CONTINUOUS
10
40.1702
20
-119.491
11
40.075
21
-119.681
0
LINE
8
BLACK
6
CONTINUOUS
10
40.075
20
-119.681
11
39.9798
21
-119.777
0
LINE
8
BLACK
6
CONTINUOUS
10
39.9798
20
-119.777
11
39.7893
21
-119.872
0
LINE
8
BLACK
6
CONTINUOUS
10
39.7893
20
-119.872
11
39.5988
21
-119.872
0
LINE
8
BLACK
6
CONTINUOUS
10
39.5988
20
-119.872
11
39.4083
21
-119.777
0
LINE
8
BLACK
6
CONTINUOUS
10
39.4083
20
-119.777
11
39.3131
21
-119.681
0
LINE
8
BLACK
6
CONTINUOUS
10
39.3131
20
-119.681
11
39.2179
21
-119.491
0
LINE
8
BLACK
6
CONTINUOUS
10
39.2179
20
-119.491
11
39.1226
21
-119.11
0
LINE
8
BLACK
6
CONTINUOUS
10
39.1226
20
-119.11
11
39.1226
21
-118.634
0
LINE
8
BLACK
6
CONTINUOUS
10
39.1226
20
-118.634
11
39.2179
21
-118.253
0
LINE
8
BLACK
6
CONTINUOUS
10
39.2179
20
-118.253
11
39.3131
21
-118.062
0
LINE
8
BLACK
6
CONTINUOUS
10
39.3131
20
-118.062
11
39.4083
21
-117.967
0
LINE
8
BLACK
6
CONTINUOUS
10
39.4083
20
-117.967
11
39.5988
21
-117.872
0
LINE
8
BLACK
6
CONTINUOUS
10
41.1226
20
-119.872
11
41.1226
21
-118.538
0
LINE
8
BLACK
6
CONTINUOUS
10
41.1226
20
-118.729
11
41.2179
21
-118.634
0
LINE
8
BLACK
6
CONTINUOUS
10
41.2179
20
-118.634
11
41.4083
21
-118.538
0
LINE
8
BLACK
6
CONTINUOUS
10
41.4083
20
-118.538
11
41.694
21
-118.538
0
LINE
8
BLACK
6
CONTINUOUS
10
41.694
20
-118.538
11
41.8845
21
-118.634
0
LINE
8
BLACK
6
CONTINUOUS
10
41.8845
20
-118.634
11
41.9798
21
-118.824
0
LINE
8
BLACK
6
CONTINUOUS
10
41.9798
20
-118.824
11
41.9798
21
-119.872
0
LINE
8
BLACK
6
CONTINUOUS
10
41.9798
20
-118.824
11
42.075
21
-118.634
0
LINE
8
BLACK
6
CONTINUOUS
10
42.075
20
-118.634
11
42.2655
21
-118.538
0
LINE
8
BLACK
6
CONTINUOUS
10
42.2655
20
-118.538
11
42.5512
21
-118.538
0
LINE
8
BLACK
6
CONTINUOUS
10
42.5512
20
-118.538
11
42.7417
21
-118.634
0
LINE
8
BLACK
6
CONTINUOUS
10
42.7417
20
-118.634
11
42.8369
21
-118.824
0
LINE
8
BLACK
6
CONTINUOUS
10
42.8369
20
-118.824
11
42.8369
21
-119.872
0
LINE
8
BLACK
6
CONTINUOUS
10
43.7893
20
-119.872
11
43.7893
21
-118.538
0
LINE
8
BLACK
6
CONTINUOUS
10
43.7893
20
-118.729
11
43.8845
21
-118.634
0
LINE
8
BLACK
6
CONTINUOUS
10
43.8845
20
-118.634
11
44.075
21
-118.538
0
LINE
8
BLACK
6
CONTINUOUS
10
44.075
20
-118.538
11
44.3607
21
-118.538
0
LINE
8
BLACK
6
CONTINUOUS
10
44.3607
20
-118.538
11
44.5512
21
-118.634
0
LINE
8
BLACK
6
CONTINUOUS
10
44.5512
20
-118.634
11
44.6464
21
-118.824
0
LINE
8
BLACK
6
CONTINUOUS
10
44.6464
20
-118.824
11
44.6464
21
-119.872
0
LINE
8
BLACK
6
CONTINUOUS
10
44.6464
20
-118.824
11
44.7417
21
-118.634
0
LINE
8
BLACK
6
CONTINUOUS
10
44.7417
20
-118.634
11
44.9321
21
-118.538
0
LINE
8
BLACK
6
CONTINUOUS
10
44.9321
20
-118.538
11
45.2179
21
-118.538
0
LINE
8
BLACK
6
CONTINUOUS
10
45.2179
20
-118.538
11
45.4083
21
-118.634
0
LINE
8
BLACK
6
CONTINUOUS
10
45.4083
20
-118.634
11
45.5036
21
-118.824
0
LINE
8
BLACK
6
CONTINUOUS
10
45.5036
20
-118.824
11
45.5036
21
-119.872
0
LINE
8
BLACK
6
CONTINUOUS
10
49.4083
20
-117.777
11
47.694
21
-120.348
0
LINE
8
BLACK
6
CONTINUOUS
10
51.9798
20
-117.872
11
52.1702
21
-117.872
0
LINE
8
BLACK
6
CONTINUOUS
10
52.1702
20
-117.872
11
52.3607
21
-117.967
0
LINE
8
BLACK
6
CONTINUOUS
10
52.3607
20
-117.967
11
52.456
21
-118.062
0
LINE
8
BLACK
6
CONTINUOUS
10
52.456
20
-118.062
11
52.5512
21
-118.253
0
LINE
8
BLACK
6
CONTINUOUS
10
52.5512
20
-118.253
11
52.6464
21
-118.634
0
LINE
8
BLACK
6
CONTINUOUS
10
52.6464
20
-118.634
11
52.6464
21
-119.11
0
LINE
8
BLACK
6
CONTINUOUS
10
52.6464
20
-119.11
11
52.5512
21
-119.491
0
LINE
8
BLACK
6
CONTINUOUS
10
52.5512
20
-119.491
11
52.456
21
-119.681
0
LINE
8
BLACK
6
CONTINUOUS
10
52.456
20
-119.681
11
52.3607
21
-119.777
0
LINE
8
BLACK
6
CONTINUOUS
10
52.3607
20
-119.777
11
52.1702
21
-119.872
0
LINE
8
BLACK
6
CONTINUOUS
10
52.1702
20
-119.872
11
51.9798
21
-119.872
0
LINE
8
BLACK
6
CONTINUOUS
10
51.9798
20
-119.872
11
51.7893
21
-119.777
0
LINE
8
BLACK
6
CONTINUOUS
10
51.7893
20
-119.777
11
51.694
21
-119.681
0
LINE
8
BLACK
6
CONTINUOUS
10
51.694
20
-119.681
11
51.5988
21
-119.491
0
LINE
8
BLACK
6
CONTINUOUS
10
51.5988
20
-119.491
11
51.5036
21
-119.11
0
LINE
8
BLACK
6
CONTINUOUS
10
51.5036
20
-119.11
11
51.5036
21
-118.634
0
LINE
8
BLACK
6
CONTINUOUS
10
51.5036
20
-118.634
11
51.5988
21
-118.253
0
LINE
8
BLACK
6
CONTINUOUS
10
51.5988
20
-118.253
11
51.694
21
-118.062
0
LINE
8
BLACK
6
CONTINUOUS
10
51.694
20
-118.062
11
51.7893
21
-117.967
0
LINE
8
BLACK
6
CONTINUOUS
10
51.7893
20
-117.967
11
51.9798
21
-117.872
0
LINE
8
BLACK
6
CONTINUOUS
10
53.5036
20
-119.681
11
53.5988
21
-119.777
0
LINE
8
BLACK
6
CONTINUOUS
10
53.5988
20
-119.777
11
53.5036
21
-119.872
0
LINE
8
BLACK
6
CONTINUOUS
10
53.5036
20
-119.872
11
53.4083
21
-119.777
0
LINE
8
BLACK
6
CONTINUOUS
10
53.4083
20
-119.777
11
53.5036
21
-119.681
0
LINE
8
BLACK
6
CONTINUOUS
10
53.5036
20
-119.681
11
53.5036
21
-119.872
0
LINE
8
BLACK
6
CONTINUOUS
10
54.8369
20
-117.872
11
55.0274
21
-117.872
0
LINE
8
BLACK
6
CONTINUOUS
10
55.0274
20
-117.872
11
55.2179
21
-117.967
0
LINE
8
BLACK
6
CONTINUOUS
10
55.2179
20
-117.967
11
55.3131
21
-118.062
0
LINE
8
BLACK
6
CONTINUOUS
10
55.3131
20
-118.062
11
55.4083
21
-118.253
0
LINE
8
BLACK
6
CONTINUOUS
10
55.4083
20
-118.253
11
55.5036
21
-118.634
0
LINE
8
BLACK
6
CONTINUOUS
10
55.5036
20
-118.634
11
55.5036
21
-119.11
0
LINE
8
BLACK
6
CONTINUOUS
10
55.5036
20
-119.11
11
55.4083
21
-119.491
0
LINE
8
BLACK
6
CONTINUOUS
10
55.4083
20
-119.491
11
55.3131
21
-119.681
0
LINE
8
BLACK
6
CONTINUOUS
10
55.3131
20
-119.681
11
55.2179
21
-119.777
0
LINE
8
BLACK
6
CONTINUOUS
10
55.2179
20
-119.777
11
55.0274
21
-119.872
0
LINE
8
BLACK
6
CONTINUOUS
10
55.0274
20
-119.872
11
54.8369
21
-119.872
0
LINE
8
BLACK
6
CONTINUOUS
10
54.8369
20
-119.872
11
54.6464
21
-119.777
0
LINE
8
BLACK
6
CONTINUOUS
10
54.6464
20
-119.777
11
54.5512
21
-119.681
0
LINE
8
BLACK
6
CONTINUOUS
10
54.5512
20
-119.681
11
54.456
21
-119.491
0
LINE
8
BLACK
6
CONTINUOUS
10
54.456
20
-119.491
11
54.3607
21
-119.11
0
LINE
8
BLACK
6
CONTINUOUS
10
54.3607
20
-119.11
11
54.3607
21
-118.634
0
LINE
8
BLACK
6
CONTINUOUS
10
54.3607
20
-118.634
11
54.456
21
-118.253
0
LINE
8
BLACK
6
CONTINUOUS
10
54.456
20
-118.253
11
54.5512
21
-118.062
0
LINE
8
BLACK
6
CONTINUOUS
10
54.5512
20
-118.062
11
54.6464
21
-117.967
0
LINE
8
BLACK
6
CONTINUOUS
10
54.6464
20
-117.967
11
54.8369
21
-117.872
0
LINE
8
BLACK
6
CONTINUOUS
10
57.4083
20
-119.872
11
56.2655
21
-119.872
0
LINE
8
BLACK
6
CONTINUOUS
10
56.8369
20
-119.872
11
56.8369
21
-117.872
0
LINE
8
BLACK
6
CONTINUOUS
10
56.8369
20
-117.872
11
56.6464
21
-118.157
0
LINE
8
BLACK
6
CONTINUOUS
10
56.6464
20
-118.157
11
56.456
21
-118.348
0
LINE
8
BLACK
6
CONTINUOUS
10
56.456
20
-118.348
11
56.2655
21
-118.443
0
LINE
8
BLACK
6
CONTINUOUS
10
59.3131
20
-119.872
11
58.1702
21
-119.872
0
LINE
8
BLACK
6
CONTINUOUS
10
58.7417
20
-119.872
11
58.7417
21
-117.872
0
LINE
8
BLACK
6
CONTINUOUS
10
58.7417
20
-117.872
11
58.5512
21
-118.157
0
LINE
8
BLACK
6
CONTINUOUS
10
58.5512
20
-118.157
11
58.3607
21
-118.348
0
LINE
8
BLACK
6
CONTINUOUS
10
58.3607
20
-118.348
11
58.1702
21
-118.443
0
LINE
8
BLACK
6
CONTINUOUS
10
60.456
20
-118.729
11
60.2655
21
-118.634
0
LINE
8
BLACK
6
CONTINUOUS
10
60.2655
20
-118.634
11
60.1702
21
-118.538
0
LINE
8
BLACK
6
CONTINUOUS
10
60.1702
20
-118.538
11
60.075
21
-118.348
0
LINE
8
BLACK
6
CONTINUOUS
10
60.075
20
-118.348
11
60.075
21
-118.253
0
LINE
8
BLACK
6
CONTINUOUS
10
60.075
20
-118.253
11
60.1702
21
-118.062
0
LINE
8
BLACK
6
CONTINUOUS
10
60.1702
20
-118.062
11
60.2655
21
-117.967
0
LINE
8
BLACK
6
CONTINUOUS
10
60.2655
20
-117.967
11
60.456
21
-117.872
0
LINE
8
BLACK
6
CONTINUOUS
10
60.456
20
-117.872
11
60.8369
21
-117.872
0
LINE
8
BLACK
6
CONTINUOUS
10
60.8369
20
-117.872
11
61.0274
21
-117.967
0
LINE
8
BLACK
6
CONTINUOUS
10
61.0274
20
-117.967
11
61.1226
21
-118.062
0
LINE
8
BLACK
6
CONTINUOUS
10
61.1226
20
-118.062
11
61.2179
21
-118.253
0
LINE
8
BLACK
6
CONTINUOUS
10
61.2179
20
-118.253
11
61.2179
21
-118.348
0
LINE
8
BLACK
6
CONTINUOUS
10
61.2179
20
-118.348
11
61.1226
21
-118.538
0
LINE
8
BLACK
6
CONTINUOUS
10
61.1226
20
-118.538
11
61.0274
21
-118.634
0
LINE
8
BLACK
6
CONTINUOUS
10
61.0274
20
-118.634
11
60.8369
21
-118.729
0
LINE
8
BLACK
6
CONTINUOUS
10
60.8369
20
-118.729
11
60.456
21
-118.729
0
LINE
8
BLACK
6
CONTINUOUS
10
60.456
20
-118.729
11
60.2655
21
-118.824
0
LINE
8
BLACK
6
CONTINUOUS
10
60.2655
20
-118.824
11
60.1702
21
-118.919
0
LINE
8
BLACK
6
CONTINUOUS
10
60.1702
20
-118.919
11
60.075
21
-119.11
0
LINE
8
BLACK
6
CONTINUOUS
10
60.075
20
-119.11
11
60.075
21
-119.491
0
LINE
8
BLACK
6
CONTINUOUS
10
60.075
20
-119.491
11
60.1702
21
-119.681
0
LINE
8
BLACK
6
CONTINUOUS
10
60.1702
20
-119.681
11
60.2655
21
-119.777
0
LINE
8
BLACK
6
CONTINUOUS
10
60.2655
20
-119.777
11
60.456
21
-119.872
0
LINE
8
BLACK
6
CONTINUOUS
10
60.456
20
-119.872
11
60.8369
21
-119.872
0
LINE
8
BLACK
6
CONTINUOUS
10
60.8369
20
-119.872
11
61.0274
21
-119.777
0
LINE
8
BLACK
6
CONTINUOUS
10
61.0274
20
-119.777
11
61.1226
21
-119.681
0
LINE
8
BLACK
6
CONTINUOUS
10
61.1226
20
-119.681
11
61.2179
21
-119.491
0
LINE
8
BLACK
6
CONTINUOUS
10
61.2179
20
-119.491
11
61.2179
21
-119.11
0
LINE
8
BLACK
6
CONTINUOUS
10
61.2179
20
-119.11
11
61.1226
21
-118.919
0
LINE
8
BLACK
6
CONTINUOUS
10
61.1226
20
-118.919
11
61.0274
21
-118.824
0
LINE
8
BLACK
6
CONTINUOUS
10
61.0274
20
-118.824
11
60.8369
21
-118.729
0
LINE
8
BLACK
6
CONTINUOUS
10
61.9798
20
-117.872
11
61.9798
21
-118.253
0
LINE
8
BLACK
6
CONTINUOUS
10
62.7417
20
-117.872
11
62.7417
21
-118.253
0
LINE
8
BLACK
6
CONTINUOUS
10
65.694
20
-120.634
11
65.5988
21
-120.538
0
LINE
8
BLACK
6
CONTINUOUS
10
65.5988
20
-120.538
11
65.4083
21
-120.253
0
LINE
8
BLACK
6
CONTINUOUS
10
65.4083
20
-120.253
11
65.3131
21
-120.062
0
LINE
8
BLACK
6
CONTINUOUS
10
65.3131
20
-120.062
11
65.2179
21
-119.777
0
LINE
8
BLACK
6
CONTINUOUS
10
65.2179
20
-119.777
11
65.1226
21
-119.3
0
LINE
8
BLACK
6
CONTINUOUS
10
65.1226
20
-119.3
11
65.1226
21
-118.919
0
LINE
8
BLACK
6
CONTINUOUS
10
65.1226
20
-118.919
11
65.2179
21
-118.443
0
LINE
8
BLACK
6
CONTINUOUS
10
65.2179
20
-118.443
11
65.3131
21
-118.157
0
LINE
8
BLACK
6
CONTINUOUS
10
65.3131
20
-118.157
11
65.4083
21
-117.967
0
LINE
8
BLACK
6
CONTINUOUS
10
65.4083
20
-117.967
11
65.5988
21
-117.681
0
LINE
8
BLACK
6
CONTINUOUS
10
65.5988
20
-117.681
11
65.694
21
-117.586
0
LINE
8
BLACK
6
CONTINUOUS
10
67.5036
20
-119.872
11
66.3607
21
-119.872
0
LINE
8
BLACK
6
CONTINUOUS
10
66.9321
20
-119.872
11
66.9321
21
-117.872
0
LINE
8
BLACK
6
CONTINUOUS
10
66.9321
20
-117.872
11
66.7417
21
-118.157
0
LINE
8
BLACK
6
CONTINUOUS
10
66.7417
20
-118.157
11
66.5512
21
-118.348
0
LINE
8
BLACK
6
CONTINUOUS
10
66.5512
20
-118.348
11
66.3607
21
-118.443
0
LINE
8
BLACK
6
CONTINUOUS
10
69.8845
20
-119.872
11
69.8845
21
-117.872
0
LINE
8
BLACK
6
CONTINUOUS
10
70.7417
20
-119.872
11
70.7417
21
-118.824
0
LINE
8
BLACK
6
CONTINUOUS
10
70.7417
20
-118.824
11
70.6464
21
-118.634
0
LINE
8
BLACK
6
CONTINUOUS
10
70.6464
20
-118.634
11
70.456
21
-118.538
0
LINE
8
BLACK
6
CONTINUOUS
10
70.456
20
-118.538
11
70.1702
21
-118.538
0
LINE
8
BLACK
6
CONTINUOUS
10
70.1702
20
-118.538
11
69.9798
21
-118.634
0
LINE
8
BLACK
6
CONTINUOUS
10
69.9798
20
-118.634
11
69.8845
21
-118.729
0
LINE
8
BLACK
6
CONTINUOUS
10
71.9798
20
-119.872
11
71.7893
21
-119.777
0
LINE
8
BLACK
6
CONTINUOUS
10
71.7893
20
-119.777
11
71.694
21
-119.681
0
LINE
8
BLACK
6
CONTINUOUS
10
71.694
20
-119.681
11
71.5988
21
-119.491
0
LINE
8
BLACK
6
CONTINUOUS
10
71.5988
20
-119.491
11
71.5988
21
-118.919
0
LINE
8
BLACK
6
CONTINUOUS
10
71.5988
20
-118.919
11
71.694
21
-118.729
0
LINE
8
BLACK
6
CONTINUOUS
10
71.694
20
-118.729
11
71.7893
21
-118.634
0
LINE
8
BLACK
6
CONTINUOUS
10
71.7893
20
-118.634
11
71.9798
21
-118.538
0
LINE
8
BLACK
6
CONTINUOUS
10
71.9798
20
-118.538
11
72.2655
21
-118.538
0
LINE
8
BLACK
6
CONTINUOUS
10
72.2655
20
-118.538
11
72.456
21
-118.634
0
LINE
8
BLACK
6
CONTINUOUS
10
72.456
20
-118.634
11
72.5512
21
-118.729
0
LINE
8
BLACK
6
CONTINUOUS
10
72.5512
20
-118.729
11
72.6464
21
-118.919
0
LINE
8
BLACK
6
CONTINUOUS
10
72.6464
20
-118.919
11
72.6464
21
-119.491
0
LINE
8
BLACK
6
CONTINUOUS
10
72.6464
20
-119.491
11
72.5512
21
-119.681
0
LINE
8
BLACK
6
CONTINUOUS
10
72.5512
20
-119.681
11
72.456
21
-119.777
0
LINE
8
BLACK
6
CONTINUOUS
10
72.456
20
-119.777
11
72.2655
21
-119.872
0
LINE
8
BLACK
6
CONTINUOUS
10
72.2655
20
-119.872
11
71.9798
21
-119.872
0
LINE
8
BLACK
6
CONTINUOUS
10
73.7893
20
-119.872
11
73.5988
21
-119.777
0
LINE
8
BLACK
6
CONTINUOUS
10
73.5988
20
-119.777
11
73.5036
21
-119.586
0
LINE
8
BLACK
6
CONTINUOUS
10
73.5036
20
-119.586
11
73.5036
21
-117.872
0
LINE
8
BLACK
6
CONTINUOUS
10
75.3131
20
-119.777
11
75.1226
21
-119.872
0
LINE
8
BLACK
6
CONTINUOUS
10
75.1226
20
-119.872
11
74.7417
21
-119.872
0
LINE
8
BLACK
6
CONTINUOUS
10
74.7417
20
-119.872
11
74.5512
21
-119.777
0
LINE
8
BLACK
6
CONTINUOUS
10
74.5512
20
-119.777
11
74.456
21
-119.586
0
LINE
8
BLACK
6
CONTINUOUS
10
74.456
20
-119.586
11
74.456
21
-118.824
0
LINE
8
BLACK
6
CONTINUOUS
10
74.456
20
-118.824
11
74.5512
21
-118.634
0
LINE
8
BLACK
6
CONTINUOUS
10
74.5512
20
-118.634
11
74.7417
21
-118.538
0
LINE
8
BLACK
6
CONTINUOUS
10
74.7417
20
-118.538
11
75.1226
21
-118.538
0
LINE
8
BLACK
6
CONTINUOUS
10
75.1226
20
-118.538
11
75.3131
21
-118.634
0
LINE
8
BLACK
6
CONTINUOUS
10
75.3131
20
-118.634
11
75.4083
21
-118.824
0
LINE
8
BLACK
6
CONTINUOUS
10
75.4083
20
-118.824
11
75.4083
21
-119.015
0
LINE
8
BLACK
6
CONTINUOUS
10
75.4083
20
-119.015
11
74.456
21
-119.205
0
LINE
8
BLACK
6
CONTINUOUS
10
76.075
20
-120.634
11
76.1702
21
-120.538
0
LINE
8
BLACK
6
CONTINUOUS
10
76.1702
20
-120.538
11
76.3607
21
-120.253
0
LINE
8
BLACK
6
CONTINUOUS
10
76.3607
20
-120.253
11
76.456
21
-120.062
0
LINE
8
BLACK
6
CONTINUOUS
10
76.456
20
-120.062
11
76.5512
21
-119.777
0
LINE
8
BLACK
6
CONTINUOUS
10
76.5512
20
-119.777
11
76.6464
21
-119.3
0
LINE
8
BLACK
6
CONTINUOUS
10
76.6464
20
-119.3
11
76.6464
21
-118.919
0
LINE
8
BLACK
6
CONTINUOUS
10
76.6464
20
-118.919
11
76.5512
21
-118.443
0
LINE
8
BLACK
6
CONTINUOUS
10
76.5512
20
-118.443
11
76.456
21
-118.157
0
LINE
8
BLACK
6
CONTINUOUS
10
76.456
20
-118.157
11
76.3607
21
-117.967
0
LINE
8
BLACK
6
CONTINUOUS
10
76.3607
20
-117.967
11
76.1702
21
-117.681
0
LINE
8
BLACK
6
CONTINUOUS
10
76.1702
20
-117.681
11
76.075
21
-117.586
0
CIRCLE
8
BLACK
10
29.775
20
-121.607
40
0.2
0
LINE
8
BLACK
6
CONTINUOUS
10
32.9321
20
-120.512
11
33.1226
21
-120.512
0
LINE
8
BLACK
6
CONTINUOUS
10
33.1226
20
-120.512
11
33.3131
21
-120.607
0
LINE
8
BLACK
6
CONTINUOUS
10
33.3131
20
-120.607
11
33.4083
21
-120.702
0
LINE
8
BLACK
6
CONTINUOUS
10
33.4083
20
-120.702
11
33.5036
21
-120.893
0
LINE
8
BLACK
6
CONTINUOUS
10
33.5036
20
-120.893
11
33.5988
21
-121.274
0
LINE
8
BLACK
6
CONTINUOUS
10
33.5988
20
-121.274
11
33.5988
21
-121.75
0
LINE
8
BLACK
6
CONTINUOUS
10
33.5988
20
-121.75
11
33.5036
21
-122.131
0
LINE
8
BLACK
6
CONTINUOUS
10
33.5036
20
-122.131
11
33.4083
21
-122.321
0
LINE
8
BLACK
6
CONTINUOUS
10
33.4083
20
-122.321
11
33.3131
21
-122.417
0
LINE
8
BLACK
6
CONTINUOUS
10
33.3131
20
-122.417
11
33.1226
21
-122.512
0
LINE
8
BLACK
6
CONTINUOUS
10
33.1226
20
-122.512
11
32.9321
21
-122.512
0
LINE
8
BLACK
6
CONTINUOUS
10
32.9321
20
-122.512
11
32.7417
21
-122.417
0
LINE
8
BLACK
6
CONTINUOUS
10
32.7417
20
-122.417
11
32.6464
21
-122.321
0
LINE
8
BLACK
6
CONTINUOUS
10
32.6464
20
-122.321
11
32.5512
21
-122.131
0
LINE
8
BLACK
6
CONTINUOUS
10
32.5512
20
-122.131
11
32.456
21
-121.75
0
LINE
8
BLACK
6
CONTINUOUS
10
32.456
20
-121.75
11
32.456
21
-121.274
0
LINE
8
BLACK
6
CONTINUOUS
10
32.456
20
-121.274
11
32.5512
21
-120.893
0
LINE
8
BLACK
6
CONTINUOUS
10
32.5512
20
-120.893
11
32.6464
21
-120.702
0
LINE
8
BLACK
6
CONTINUOUS
10
32.6464
20
-120.702
11
32.7417
21
-120.607
0
LINE
8
BLACK
6
CONTINUOUS
10
32.7417
20
-120.607
11
32.9321
21
-120.512
0
LINE
8
BLACK
6
CONTINUOUS
10
34.456
20
-122.321
11
34.5512
21
-122.417
0
LINE
8
BLACK
6
CONTINUOUS
10
34.5512
20
-122.417
11
34.456
21
-122.512
0
LINE
8
BLACK
6
CONTINUOUS
10
34.456
20
-122.512
11
34.3607
21
-122.417
0
LINE
8
BLACK
6
CONTINUOUS
10
34.3607
20
-122.417
11
34.456
21
-122.321
0
LINE
8
BLACK
6
CONTINUOUS
10
34.456
20
-122.321
11
34.456
21
-122.512
0
LINE
8
BLACK
6
CONTINUOUS
10
36.2655
20
-121.178
11
36.2655
21
-122.512
0
LINE
8
BLACK
6
CONTINUOUS
10
35.7893
20
-120.417
11
35.3131
21
-121.845
0
LINE
8
BLACK
6
CONTINUOUS
10
35.3131
20
-121.845
11
36.5512
21
-121.845
0
LINE
8
BLACK
6
CONTINUOUS
10
37.694
20
-120.512
11
37.8845
21
-120.512
0
LINE
8
BLACK
6
CONTINUOUS
10
37.8845
20
-120.512
11
38.075
21
-120.607
0
LINE
8
BLACK
6
CONTINUOUS
10
38.075
20
-120.607
11
38.1702
21
-120.702
0
LINE
8
BLACK
6
CONTINUOUS
10
38.1702
20
-120.702
11
38.2655
21
-120.893
0
LINE
8
BLACK
6
CONTINUOUS
10
38.2655
20
-120.893
11
38.3607
21
-121.274
0
LINE
8
BLACK
6
CONTINUOUS
10
38.3607
20
-121.274
11
38.3607
21
-121.75
0
LINE
8
BLACK
6
CONTINUOUS
10
38.3607
20
-121.75
11
38.2655
21
-122.131
0
LINE
8
BLACK
6
CONTINUOUS
10
38.2655
20
-122.131
11
38.1702
21
-122.321
0
LINE
8
BLACK
6
CONTINUOUS
10
38.1702
20
-122.321
11
38.075
21
-122.417
0
LINE
8
BLACK
6
CONTINUOUS
10
38.075
20
-122.417
11
37.8845
21
-122.512
0
LINE
8
BLACK
6
CONTINUOUS
10
37.8845
20
-122.512
11
37.694
21
-122.512
0
LINE
8
BLACK
6
CONTINUOUS
10
37.694
20
-122.512
11
37.5036
21
-122.417
0
LINE
8
BLACK
6
CONTINUOUS
10
37.5036
20
-122.417
11
37.4083
21
-122.321
0
LINE
8
BLACK
6
CONTINUOUS
10
37.4083
20
-122.321
11
37.3131
21
-122.131
0
LINE
8
BLACK
6
CONTINUOUS
10
37.3131
20
-122.131
11
37.2179
21
-121.75
0
LINE
8
BLACK
6
CONTINUOUS
10
37.2179
20
-121.75
11
37.2179
21
-121.274
0
LINE
8
BLACK
6
CONTINUOUS
10
37.2179
20
-121.274
11
37.3131
21
-120.893
0
LINE
8
BLACK
6
CONTINUOUS
10
37.3131
20
-120.893
11
37.4083
21
-120.702
0
LINE
8
BLACK
6
CONTINUOUS
10
37.4083
20
-120.702
11
37.5036
21
-120.607
0
LINE
8
BLACK
6
CONTINUOUS
10
37.5036
20
-120.607
11
37.694
21
-120.512
0
LINE
8
BLACK
6
CONTINUOUS
10
39.5988
20
-120.512
11
39.7893
21
-120.512
0
LINE
8
BLACK
6
CONTINUOUS
10
39.7893
20
-120.512
11
39.9798
21
-120.607
0
LINE
8
BLACK
6
CONTINUOUS
10
39.9798
20
-120.607
11
40.075
21
-120.702
0
LINE
8
BLACK
6
CONTINUOUS
10
40.075
20
-120.702
11
40.1702
21
-120.893
0
LINE
8
BLACK
6
CONTINUOUS
10
40.1702
20
-120.893
11
40.2655
21
-121.274
0
LINE
8
BLACK
6
CONTINUOUS
10
40.2655
20
-121.274
11
40.2655
21
-121.75
0
LINE
8
BLACK
6
CONTINUOUS
10
40.2655
20
-121.75
11
40.1702
21
-122.131
0
LINE
8
BLACK
6
CONTINUOUS
10
40.1702
20
-122.131
11
40.075
21
-122.321
0
LINE
8
BLACK
6
CONTINUOUS
10
40.075
20
-122.321
11
39.9798
21
-122.417
0
LINE
8
BLACK
6
CONTINUOUS
10
39.9798
20
-122.417
11
39.7893
21
-122.512
0
LINE
8
BLACK
6
CONTINUOUS
10
39.7893
20
-122.512
11
39.5988
21
-122.512
0
LINE
8
BLACK
6
CONTINUOUS
10
39.5988
20
-122.512
11
39.4083
21
-122.417
0
LINE
8
BLACK
6
CONTINUOUS
10
39.4083
20
-122.417
11
39.3131
21
-122.321
0
LINE
8
BLACK
6
CONTINUOUS
10
39.3131
20
-122.321
11
39.2179
21
-122.131
0
LINE
8
BLACK
6
CONTINUOUS
10
39.2179
20
-122.131
11
39.1226
21
-121.75
0
LINE
8
BLACK
6
CONTINUOUS
10
39.1226
20
-121.75
11
39.1226
21
-121.274
0
LINE
8
BLACK
6
CONTINUOUS
10
39.1226
20
-121.274
11
39.2179
21
-120.893
0
LINE
8
BLACK
6
CONTINUOUS
10
39.2179
20
-120.893
11
39.3131
21
-120.702
0
LINE
8
BLACK
6
CONTINUOUS
10
39.3131
20
-120.702
11
39.4083
21
-120.607
0
LINE
8
BLACK
6
CONTINUOUS
10
39.4083
20
-120.607
11
39.5988
21
-120.512
0
LINE
8
BLACK
6
CONTINUOUS
10
41.1226
20
-122.512
11
41.1226
21
-121.178
0
LINE
8
BLACK
6
CONTINUOUS
10
41.1226
20
-121.369
11
41.2179
21
-121.274
0
LINE
8
BLACK
6
CONTINUOUS
10
41.2179
20
-121.274
11
41.4083
21
-121.178
0
LINE
8
BLACK
6
CONTINUOUS
10
41.4083
20
-121.178
11
41.694
21
-121.178
0
LINE
8
BLACK
6
CONTINUOUS
10
41.694
20
-121.178
11
41.8845
21
-121.274
0
LINE
8
BLACK
6
CONTINUOUS
10
41.8845
20
-121.274
11
41.9798
21
-121.464
0
LINE
8
BLACK
6
CONTINUOUS
10
41.9798
20
-121.464
11
41.9798
21
-122.512
0
LINE
8
BLACK
6
CONTINUOUS
10
41.9798
20
-121.464
11
42.075
21
-121.274
0
LINE
8
BLACK
6
CONTINUOUS
10
42.075
20
-121.274
11
42.2655
21
-121.178
0
LINE
8
BLACK
6
CONTINUOUS
10
42.2655
20
-121.178
11
42.5512
21
-121.178
0
LINE
8
BLACK
6
CONTINUOUS
10
42.5512
20
-121.178
11
42.7417
21
-121.274
0
LINE
8
BLACK
6
CONTINUOUS
10
42.7417
20
-121.274
11
42.8369
21
-121.464
0
LINE
8
BLACK
6
CONTINUOUS
10
42.8369
20
-121.464
11
42.8369
21
-122.512
0
LINE
8
BLACK
6
CONTINUOUS
10
43.7893
20
-122.512
11
43.7893
21
-121.178
0
LINE
8
BLACK
6
CONTINUOUS
10
43.7893
20
-121.369
11
43.8845
21
-121.274
0
LINE
8
BLACK
6
CONTINUOUS
10
43.8845
20
-121.274
11
44.075
21
-121.178
0
LINE
8
BLACK
6
CONTINUOUS
10
44.075
20
-121.178
11
44.3607
21
-121.178
0
LINE
8
BLACK
6
CONTINUOUS
10
44.3607
20
-121.178
11
44.5512
21
-121.274
0
LINE
8
BLACK
6
CONTINUOUS
10
44.5512
20
-121.274
11
44.6464
21
-121.464
0
LINE
8
BLACK
6
CONTINUOUS
10
44.6464
20
-121.464
11
44.6464
21
-122.512
0
LINE
8
BLACK
6
CONTINUOUS
10
44.6464
20
-121.464
11
44.7417
21
-121.274
0
LINE
8
BLACK
6
CONTINUOUS
10
44.7417
20
-121.274
11
44.9321
21
-121.178
0
LINE
8
BLACK
6
CONTINUOUS
10
44.9321
20
-121.178
11
45.2179
21
-121.178
0
LINE
8
BLACK
6
CONTINUOUS
10
45.2179
20
-121.178
11
45.4083
21
-121.274
0
LINE
8
BLACK
6
CONTINUOUS
10
45.4083
20
-121.274
11
45.5036
21
-121.464
0
LINE
8
BLACK
6
CONTINUOUS
10
45.5036
20
-121.464
11
45.5036
21
-122.512
0
LINE
8
BLACK
6
CONTINUOUS
10
49.4083
20
-120.417
11
47.694
21
-122.988
0
LINE
8
BLACK
6
CONTINUOUS
10
51.9798
20
-120.512
11
52.1702
21
-120.512
0
LINE
8
BLACK
6
CONTINUOUS
10
52.1702
20
-120.512
11
52.3607
21
-120.607
0
LINE
8
BLACK
6
CONTINUOUS
10
52.3607
20
-120.607
11
52.456
21
-120.702
0
LINE
8
BLACK
6
CONTINUOUS
10
52.456
20
-120.702
11
52.5512
21
-120.893
0
LINE
8
BLACK
6
CONTINUOUS
10
52.5512
20
-120.893
11
52.6464
21
-121.274
0
LINE
8
BLACK
6
CONTINUOUS
10
52.6464
20
-121.274
11
52.6464
21
-121.75
0
LINE
8
BLACK
6
CONTINUOUS
10
52.6464
20
-121.75
11
52.5512
21
-122.131
0
LINE
8
BLACK
6
CONTINUOUS
10
52.5512
20
-122.131
11
52.456
21
-122.321
0
LINE
8
BLACK
6
CONTINUOUS
10
52.456
20
-122.321
11
52.3607
21
-122.417
0
LINE
8
BLACK
6
CONTINUOUS
10
52.3607
20
-122.417
11
52.1702
21
-122.512
0
LINE
8
BLACK
6
CONTINUOUS
10
52.1702
20
-122.512
11
51.9798
21
-122.512
0
LINE
8
BLACK
6
CONTINUOUS
10
51.9798
20
-122.512
11
51.7893
21
-122.417
0
LINE
8
BLACK
6
CONTINUOUS
10
51.7893
20
-122.417
11
51.694
21
-122.321
0
LINE
8
BLACK
6
CONTINUOUS
10
51.694
20
-122.321
11
51.5988
21
-122.131
0
LINE
8
BLACK
6
CONTINUOUS
10
51.5988
20
-122.131
11
51.5036
21
-121.75
0
LINE
8
BLACK
6
CONTINUOUS
10
51.5036
20
-121.75
11
51.5036
21
-121.274
0
LINE
8
BLACK
6
CONTINUOUS
10
51.5036
20
-121.274
11
51.5988
21
-120.893
0
LINE
8
BLACK
6
CONTINUOUS
10
51.5988
20
-120.893
11
51.694
21
-120.702
0
LINE
8
BLACK
6
CONTINUOUS
10
51.694
20
-120.702
11
51.7893
21
-120.607
0
LINE
8
BLACK
6
CONTINUOUS
10
51.7893
20
-120.607
11
51.9798
21
-120.512
0
LINE
8
BLACK
6
CONTINUOUS
10
53.5036
20
-122.321
11
53.5988
21
-122.417
0
LINE
8
BLACK
6
CONTINUOUS
10
53.5988
20
-122.417
11
53.5036
21
-122.512
0
LINE
8
BLACK
6
CONTINUOUS
10
53.5036
20
-122.512
11
53.4083
21
-122.417
0
LINE
8
BLACK
6
CONTINUOUS
10
53.4083
20
-122.417
11
53.5036
21
-122.321
0
LINE
8
BLACK
6
CONTINUOUS
10
53.5036
20
-122.321
11
53.5036
21
-122.512
0
LINE
8
BLACK
6
CONTINUOUS
10
54.8369
20
-120.512
11
55.0274
21
-120.512
0
LINE
8
BLACK
6
CONTINUOUS
10
55.0274
20
-120.512
11
55.2179
21
-120.607
0
LINE
8
BLACK
6
CONTINUOUS
10
55.2179
20
-120.607
11
55.3131
21
-120.702
0
LINE
8
BLACK
6
CONTINUOUS
10
55.3131
20
-120.702
11
55.4083
21
-120.893
0
LINE
8
BLACK
6
CONTINUOUS
10
55.4083
20
-120.893
11
55.5036
21
-121.274
0
LINE
8
BLACK
6
CONTINUOUS
10
55.5036
20
-121.274
11
55.5036
21
-121.75
0
LINE
8
BLACK
6
CONTINUOUS
10
55.5036
20
-121.75
11
55.4083
21
-122.131
0
LINE
8
BLACK
6
CONTINUOUS
10
55.4083
20
-122.131
11
55.3131
21
-122.321
0
LINE
8
BLACK
6
CONTINUOUS
10
55.3131
20
-122.321
11
55.2179
21
-122.417
0
LINE
8
BLACK
6
CONTINUOUS
10
55.2179
20
-122.417
11
55.0274
21
-122.512
0
LINE
8
BLACK
6
CONTINUOUS
10
55.0274
20
-122.512
11
54.8369
21
-122.512
0
LINE
8
BLACK
6
CONTINUOUS
10
54.8369
20
-122.512
11
54.6464
21
-122.417
0
LINE
8
BLACK
6
CONTINUOUS
10
54.6464
20
-122.417
11
54.5512
21
-122.321
0
LINE
8
BLACK
6
CONTINUOUS
10
54.5512
20
-122.321
11
54.456
21
-122.131
0
LINE
8
BLACK
6
CONTINUOUS
10
54.456
20
-122.131
11
54.3607
21
-121.75
0
LINE
8
BLACK
6
CONTINUOUS
10
54.3607
20
-121.75
11
54.3607
21
-121.274
0
LINE
8
BLACK
6
CONTINUOUS
10
54.3607
20
-121.274
11
54.456
21
-120.893
0
LINE
8
BLACK
6
CONTINUOUS
10
54.456
20
-120.893
11
54.5512
21
-120.702
0
LINE
8
BLACK
6
CONTINUOUS
10
54.5512
20
-120.702
11
54.6464
21
-120.607
0
LINE
8
BLACK
6
CONTINUOUS
10
54.6464
20
-120.607
11
54.8369
21
-120.512
0
LINE
8
BLACK
6
CONTINUOUS
10
57.4083
20
-122.512
11
56.2655
21
-122.512
0
LINE
8
BLACK
6
CONTINUOUS
10
56.8369
20
-122.512
11
56.8369
21
-120.512
0
LINE
8
BLACK
6
CONTINUOUS
10
56.8369
20
-120.512
11
56.6464
21
-120.797
0
LINE
8
BLACK
6
CONTINUOUS
10
56.6464
20
-120.797
11
56.456
21
-120.988
0
LINE
8
BLACK
6
CONTINUOUS
10
56.456
20
-120.988
11
56.2655
21
-121.083
0
LINE
8
BLACK
6
CONTINUOUS
10
59.2179
20
-120.512
11
58.2655
21
-120.512
0
LINE
8
BLACK
6
CONTINUOUS
10
58.2655
20
-120.512
11
58.1702
21
-121.464
0
LINE
8
BLACK
6
CONTINUOUS
10
58.1702
20
-121.464
11
58.2655
21
-121.369
0
LINE
8
BLACK
6
CONTINUOUS
10
58.2655
20
-121.369
11
58.456
21
-121.274
0
LINE
8
BLACK
6
CONTINUOUS
10
58.456
20
-121.274
11
58.9321
21
-121.274
0
LINE
8
BLACK
6
CONTINUOUS
10
58.9321
20
-121.274
11
59.1226
21
-121.369
0
LINE
8
BLACK
6
CONTINUOUS
10
59.1226
20
-121.369
11
59.2179
21
-121.464
0
LINE
8
BLACK
6
CONTINUOUS
10
59.2179
20
-121.464
11
59.3131
21
-121.655
0
LINE
8
BLACK
6
CONTINUOUS
10
59.3131
20
-121.655
11
59.3131
21
-122.131
0
LINE
8
BLACK
6
CONTINUOUS
10
59.3131
20
-122.131
11
59.2179
21
-122.321
0
LINE
8
BLACK
6
CONTINUOUS
10
59.2179
20
-122.321
11
59.1226
21
-122.417
0
LINE
8
BLACK
6
CONTINUOUS
10
59.1226
20
-122.417
11
58.9321
21
-122.512
0
LINE
8
BLACK
6
CONTINUOUS
10
58.9321
20
-122.512
11
58.456
21
-122.512
0
LINE
8
BLACK
6
CONTINUOUS
10
58.456
20
-122.512
11
58.2655
21
-122.417
0
LINE
8
BLACK
6
CONTINUOUS
10
58.2655
20
-122.417
11
58.1702
21
-122.321
0
LINE
8
BLACK
6
CONTINUOUS
10
59.9798
20
-120.512
11
61.3131
21
-120.512
0
LINE
8
BLACK
6
CONTINUOUS
10
61.3131
20
-120.512
11
60.456
21
-122.512
0
LINE
8
BLACK
6
CONTINUOUS
10
61.9798
20
-120.512
11
61.9798
21
-120.893
0
LINE
8
BLACK
6
CONTINUOUS
10
62.7417
20
-120.512
11
62.7417
21
-120.893
0
LINE
8
BLACK
6
CONTINUOUS
10
65.694
20
-123.274
11
65.5988
21
-123.178
0
LINE
8
BLACK
6
CONTINUOUS
10
65.5988
20
-123.178
11
65.4083
21
-122.893
0
LINE
8
BLACK
6
CONTINUOUS
10
65.4083
20
-122.893
11
65.3131
21
-122.702
0
LINE
8
BLACK
6
CONTINUOUS
10
65.3131
20
-122.702
11
65.2179
21
-122.417
0
LINE
8
BLACK
6
CONTINUOUS
10
65.2179
20
-122.417
11
65.1226
21
-121.94
0
LINE
8
BLACK
6
CONTINUOUS
10
65.1226
20
-121.94
11
65.1226
21
-121.559
0
LINE
8
BLACK
6
CONTINUOUS
10
65.1226
20
-121.559
11
65.2179
21
-121.083
0
LINE
8
BLACK
6
CONTINUOUS
10
65.2179
20
-121.083
11
65.3131
21
-120.797
0
LINE
8
BLACK
6
CONTINUOUS
10
65.3131
20
-120.797
11
65.4083
21
-120.607
0
LINE
8
BLACK
6
CONTINUOUS
10
65.4083
20
-120.607
11
65.5988
21
-120.321
0
LINE
8
BLACK
6
CONTINUOUS
10
65.5988
20
-120.321
11
65.694
21
-120.226
0
LINE
8
BLACK
6
CONTINUOUS
10
67.5036
20
-122.512
11
66.3607
21
-122.512
0
LINE
8
BLACK
6
CONTINUOUS
10
66.9321
20
-122.512
11
66.9321
21
-120.512
0
LINE
8
BLACK
6
CONTINUOUS
10
66.9321
20
-120.512
11
66.7417
21
-120.797
0
LINE
8
BLACK
6
CONTINUOUS
10
66.7417
20
-120.797
11
66.5512
21
-120.988
0
LINE
8
BLACK
6
CONTINUOUS
10
66.5512
20
-120.988
11
66.3607
21
-121.083
0
LINE
8
BLACK
6
CONTINUOUS
10
69.8845
20
-122.512
11
69.8845
21
-120.512
0
LINE
8
BLACK
6
CONTINUOUS
10
70.7417
20
-122.512
11
70.7417
21
-121.464
0
LINE
8
BLACK
6
CONTINUOUS
10
70.7417
20
-121.464
11
70.6464
21
-121.274
0
LINE
8
BLACK
6
CONTINUOUS
10
70.6464
20
-121.274
11
70.456
21
-121.178
0
LINE
8
BLACK
6
CONTINUOUS
10
70.456
20
-121.178
11
70.1702
21
-121.178
0
LINE
8
BLACK
6
CONTINUOUS
10
70.1702
20
-121.178
11
69.9798
21
-121.274
0
LINE
8
BLACK
6
CONTINUOUS
10
69.9798
20
-121.274
11
69.8845
21
-121.369
0
LINE
8
BLACK
6
CONTINUOUS
10
71.9798
20
-122.512
11
71.7893
21
-122.417
0
LINE
8
BLACK
6
CONTINUOUS
10
71.7893
20
-122.417
11
71.694
21
-122.321
0
LINE
8
BLACK
6
CONTINUOUS
10
71.694
20
-122.321
11
71.5988
21
-122.131
0
LINE
8
BLACK
6
CONTINUOUS
10
71.5988
20
-122.131
11
71.5988
21
-121.559
0
LINE
8
BLACK
6
CONTINUOUS
10
71.5988
20
-121.559
11
71.694
21
-121.369
0
LINE
8
BLACK
6
CONTINUOUS
10
71.694
20
-121.369
11
71.7893
21
-121.274
0
LINE
8
BLACK
6
CONTINUOUS
10
71.7893
20
-121.274
11
71.9798
21
-121.178
0
LINE
8
BLACK
6
CONTINUOUS
10
71.9798
20
-121.178
11
72.2655
21
-121.178
0
LINE
8
BLACK
6
CONTINUOUS
10
72.2655
20
-121.178
11
72.456
21
-121.274
0
LINE
8
BLACK
6
CONTINUOUS
10
72.456
20
-121.274
11
72.5512
21
-121.369
0
LINE
8
BLACK
6
CONTINUOUS
10
72.5512
20
-121.369
11
72.6464
21
-121.559
0
LINE
8
BLACK
6
CONTINUOUS
10
72.6464
20
-121.559
11
72.6464
21
-122.131
0
LINE
8
BLACK
6
CONTINUOUS
10
72.6464
20
-122.131
11
72.5512
21
-122.321
0
LINE
8
BLACK
6
CONTINUOUS
10
72.5512
20
-122.321
11
72.456
21
-122.417
0
LINE
8
BLACK
6
CONTINUOUS
10
72.456
20
-122.417
11
72.2655
21
-122.512
0
LINE
8
BLACK
6
CONTINUOUS
10
72.2655
20
-122.512
11
71.9798
21
-122.512
0
LINE
8
BLACK
6
CONTINUOUS
10
73.7893
20
-122.512
11
73.5988
21
-122.417
0
LINE
8
BLACK
6
CONTINUOUS
10
73.5988
20
-122.417
11
73.5036
21
-122.226
0
LINE
8
BLACK
6
CONTINUOUS
10
73.5036
20
-122.226
11
73.5036
21
-120.512
0
LINE
8
BLACK
6
CONTINUOUS
10
75.3131
20
-122.417
11
75.1226
21
-122.512
0
LINE
8
BLACK
6
CONTINUOUS
10
75.1226
20
-122.512
11
74.7417
21
-122.512
0
LINE
8
BLACK
6
CONTINUOUS
10
74.7417
20
-122.512
11
74.5512
21
-122.417
0
LINE
8
BLACK
6
CONTINUOUS
10
74.5512
20
-122.417
11
74.456
21
-122.226
0
LINE
8
BLACK
6
CONTINUOUS
10
74.456
20
-122.226
11
74.456
21
-121.464
0
LINE
8
BLACK
6
CONTINUOUS
10
74.456
20
-121.464
11
74.5512
21
-121.274
0
LINE
8
BLACK
6
CONTINUOUS
10
74.5512
20
-121.274
11
74.7417
21
-121.178
0
LINE
8
BLACK
6
CONTINUOUS
10
74.7417
20
-121.178
11
75.1226
21
-121.178
0
LINE
8
BLACK
6
CONTINUOUS
10
75.1226
20
-121.178
11
75.3131
21
-121.274
0
LINE
8
BLACK
6
CONTINUOUS
10
75.3131
20
-121.274
11
75.4083
21
-121.464
0
LINE
8
BLACK
6
CONTINUOUS
10
75.4083
20
-121.464
11
75.4083
21
-121.655
0
LINE
8
BLACK
6
CONTINUOUS
10
75.4083
20
-121.655
11
74.456
21
-121.845
0
LINE
8
BLACK
6
CONTINUOUS
10
76.075
20
-123.274
11
76.1702
21
-123.178
0
LINE
8
BLACK
6
CONTINUOUS
10
76.1702
20
-123.178
11
76.3607
21
-122.893
0
LINE
8
BLACK
6
CONTINUOUS
10
76.3607
20
-122.893
11
76.456
21
-122.702
0
LINE
8
BLACK
6
CONTINUOUS
10
76.456
20
-122.702
11
76.5512
21
-122.417
0
LINE
8
BLACK
6
CONTINUOUS
10
76.5512
20
-122.417
11
76.6464
21
-121.94
0
LINE
8
BLACK
6
CONTINUOUS
10
76.6464
20
-121.94
11
76.6464
21
-121.559
0
LINE
8
BLACK
6
CONTINUOUS
10
76.6464
20
-121.559
11
76.5512
21
-121.083
0
LINE
8
BLACK
6
CONTINUOUS
10
76.5512
20
-121.083
11
76.456
21
-120.797
0
LINE
8
BLACK
6
CONTINUOUS
10
76.456
20
-120.797
11
76.3607
21
-120.607
0
LINE
8
BLACK
6
CONTINUOUS
10
76.3607
20
-120.607
11
76.1702
21
-120.321
0
LINE
8
BLACK
6
CONTINUOUS
10
76.1702
20
-120.321
11
76.075
21
-120.226
0
LINE
8
BLACK
6
CONTINUOUS
10
29.775
20
-124.047
11
29.775
21
-124.447
0
LINE
8
BLACK
6
CONTINUOUS
10
29.575
20
-124.247
11
29.975
21
-124.247
0
LINE
8
BLACK
6
CONTINUOUS
10
32.9321
20
-123.152
11
33.1226
21
-123.152
0
LINE
8
BLACK
6
CONTINUOUS
10
33.1226
20
-123.152
11
33.3131
21
-123.247
0
LINE
8
BLACK
6
CONTINUOUS
10
33.3131
20
-123.247
11
33.4083
21
-123.342
0
LINE
8
BLACK
6
CONTINUOUS
10
33.4083
20
-123.342
11
33.5036
21
-123.533
0
LINE
8
BLACK
6
CONTINUOUS
10
33.5036
20
-123.533
11
33.5988
21
-123.914
0
LINE
8
BLACK
6
CONTINUOUS
10
33.5988
20
-123.914
11
33.5988
21
-124.39
0
LINE
8
BLACK
6
CONTINUOUS
10
33.5988
20
-124.39
11
33.5036
21
-124.771
0
LINE
8
BLACK
6
CONTINUOUS
10
33.5036
20
-124.771
11
33.4083
21
-124.961
0
LINE
8
BLACK
6
CONTINUOUS
10
33.4083
20
-124.961
11
33.3131
21
-125.057
0
LINE
8
BLACK
6
CONTINUOUS
10
33.3131
20
-125.057
11
33.1226
21
-125.152
0
LINE
8
BLACK
6
CONTINUOUS
10
33.1226
20
-125.152
11
32.9321
21
-125.152
0
LINE
8
BLACK
6
CONTINUOUS
10
32.9321
20
-125.152
11
32.7417
21
-125.057
0
LINE
8
BLACK
6
CONTINUOUS
10
32.7417
20
-125.057
11
32.6464
21
-124.961
0
LINE
8
BLACK
6
CONTINUOUS
10
32.6464
20
-124.961
11
32.5512
21
-124.771
0
LINE
8
BLACK
6
CONTINUOUS
10
32.5512
20
-124.771
11
32.456
21
-124.39
0
LINE
8
BLACK
6
CONTINUOUS
10
32.456
20
-124.39
11
32.456
21
-123.914
0
LINE
8
BLACK
6
CONTINUOUS
10
32.456
20
-123.914
11
32.5512
21
-123.533
0
LINE
8
BLACK
6
CONTINUOUS
10
32.5512
20
-123.533
11
32.6464
21
-123.342
0
LINE
8
BLACK
6
CONTINUOUS
10
32.6464
20
-123.342
11
32.7417
21
-123.247
0
LINE
8
BLACK
6
CONTINUOUS
10
32.7417
20
-123.247
11
32.9321
21
-123.152
0
LINE
8
BLACK
6
CONTINUOUS
10
34.456
20
-124.961
11
34.5512
21
-125.057
0
LINE
8
BLACK
6
CONTINUOUS
10
34.5512
20
-125.057
11
34.456
21
-125.152
0
LINE
8
BLACK
6
CONTINUOUS
10
34.456
20
-125.152
11
34.3607
21
-125.057
0
LINE
8
BLACK
6
CONTINUOUS
10
34.3607
20
-125.057
11
34.456
21
-124.961
0
LINE
8
BLACK
6
CONTINUOUS
10
34.456
20
-124.961
11
34.456
21
-125.152
0
LINE
8
BLACK
6
CONTINUOUS
10
36.2655
20
-123.818
11
36.2655
21
-125.152
0
LINE
8
BLACK
6
CONTINUOUS
10
35.7893
20
-123.057
11
35.3131
21
-124.485
0
LINE
8
BLACK
6
CONTINUOUS
10
35.3131
20
-124.485
11
36.5512
21
-124.485
0
LINE
8
BLACK
6
CONTINUOUS
10
37.694
20
-123.152
11
37.8845
21
-123.152
0
LINE
8
BLACK
6
CONTINUOUS
10
37.8845
20
-123.152
11
38.075
21
-123.247
0
LINE
8
BLACK
6
CONTINUOUS
10
38.075
20
-123.247
11
38.1702
21
-123.342
0
LINE
8
BLACK
6
CONTINUOUS
10
38.1702
20
-123.342
11
38.2655
21
-123.533
0
LINE
8
BLACK
6
CONTINUOUS
10
38.2655
20
-123.533
11
38.3607
21
-123.914
0
LINE
8
BLACK
6
CONTINUOUS
10
38.3607
20
-123.914
11
38.3607
21
-124.39
0
LINE
8
BLACK
6
CONTINUOUS
10
38.3607
20
-124.39
11
38.2655
21
-124.771
0
LINE
8
BLACK
6
CONTINUOUS
10
38.2655
20
-124.771
11
38.1702
21
-124.961
0
LINE
8
BLACK
6
CONTINUOUS
10
38.1702
20
-124.961
11
38.075
21
-125.057
0
LINE
8
BLACK
6
CONTINUOUS
10
38.075
20
-125.057
11
37.8845
21
-125.152
0
LINE
8
BLACK
6
CONTINUOUS
10
37.8845
20
-125.152
11
37.694
21
-125.152
0
LINE
8
BLACK
6
CONTINUOUS
10
37.694
20
-125.152
11
37.5036
21
-125.057
0
LINE
8
BLACK
6
CONTINUOUS
10
37.5036
20
-125.057
11
37.4083
21
-124.961
0
LINE
8
BLACK
6
CONTINUOUS
10
37.4083
20
-124.961
11
37.3131
21
-124.771
0
LINE
8
BLACK
6
CONTINUOUS
10
37.3131
20
-124.771
11
37.2179
21
-124.39
0
LINE
8
BLACK
6
CONTINUOUS
10
37.2179
20
-124.39
11
37.2179
21
-123.914
0
LINE
8
BLACK
6
CONTINUOUS
10
37.2179
20
-123.914
11
37.3131
21
-123.533
0
LINE
8
BLACK
6
CONTINUOUS
10
37.3131
20
-123.533
11
37.4083
21
-123.342
0
LINE
8
BLACK
6
CONTINUOUS
10
37.4083
20
-123.342
11
37.5036
21
-123.247
0
LINE
8
BLACK
6
CONTINUOUS
10
37.5036
20
-123.247
11
37.694
21
-123.152
0
LINE
8
BLACK
6
CONTINUOUS
10
39.5988
20
-123.152
11
39.7893
21
-123.152
0
LINE
8
BLACK
6
CONTINUOUS
10
39.7893
20
-123.152
11
39.9798
21
-123.247
0
LINE
8
BLACK
6
CONTINUOUS
10
39.9798
20
-123.247
11
40.075
21
-123.342
0
LINE
8
BLACK
6
CONTINUOUS
10
40.075
20
-123.342
11
40.1702
21
-123.533
0
LINE
8
BLACK
6
CONTINUOUS
10
40.1702
20
-123.533
11
40.2655
21
-123.914
0
LINE
8
BLACK
6
CONTINUOUS
10
40.2655
20
-123.914
11
40.2655
21
-124.39
0
LINE
8
BLACK
6
CONTINUOUS
10
40.2655
20
-124.39
11
40.1702
21
-124.771
0
LINE
8
BLACK
6
CONTINUOUS
10
40.1702
20
-124.771
11
40.075
21
-124.961
0
LINE
8
BLACK
6
CONTINUOUS
10
40.075
20
-124.961
11
39.9798
21
-125.057
0
LINE
8
BLACK
6
CONTINUOUS
10
39.9798
20
-125.057
11
39.7893
21
-125.152
0
LINE
8
BLACK
6
CONTINUOUS
10
39.7893
20
-125.152
11
39.5988
21
-125.152
0
LINE
8
BLACK
6
CONTINUOUS
10
39.5988
20
-125.152
11
39.4083
21
-125.057
0
LINE
8
BLACK
6
CONTINUOUS
10
39.4083
20
-125.057
11
39.3131
21
-124.961
0
LINE
8
BLACK
6
CONTINUOUS
10
39.3131
20
-124.961
11
39.2179
21
-124.771
0
LINE
8
BLACK
6
CONTINUOUS
10
39.2179
20
-124.771
11
39.1226
21
-124.39
0
LINE
8
BLACK
6
CONTINUOUS
10
39.1226
20
-124.39
11
39.1226
21
-123.914
0
LINE
8
BLACK
6
CONTINUOUS
10
39.1226
20
-123.914
11
39.2179
21
-123.533
0
LINE
8
BLACK
6
CONTINUOUS
10
39.2179
20
-123.533
11
39.3131
21
-123.342
0
LINE
8
BLACK
6
CONTINUOUS
10
39.3131
20
-123.342
11
39.4083
21
-123.247
0
LINE
8
BLACK
6
CONTINUOUS
10
39.4083
20
-123.247
11
39.5988
21
-123.152
0
LINE
8
BLACK
6
CONTINUOUS
10
41.1226
20
-125.152
11
41.1226
21
-123.818
0
LINE
8
BLACK
6
CONTINUOUS
10
41.1226
20
-124.009
11
41.2179
21
-123.914
0
LINE
8
BLACK
6
CONTINUOUS
10
41.2179
20
-123.914
11
41.4083
21
-123.818
0
LINE
8
BLACK
6
CONTINUOUS
10
41.4083
20
-123.818
11
41.694
21
-123.818
0
LINE
8
BLACK
6
CONTINUOUS
10
41.694
20
-123.818
11
41.8845
21
-123.914
0
LINE
8
BLACK
6
CONTINUOUS
10
41.8845
20
-123.914
11
41.9798
21
-124.104
0
LINE
8
BLACK
6
CONTINUOUS
10
41.9798
20
-124.104
11
41.9798
21
-125.152
0
LINE
8
BLACK
6
CONTINUOUS
10
41.9798
20
-124.104
11
42.075
21
-123.914
0
LINE
8
BLACK
6
CONTINUOUS
10
42.075
20
-123.914
11
42.2655
21
-123.818
0
LINE
8
BLACK
6
CONTINUOUS
10
42.2655
20
-123.818
11
42.5512
21
-123.818
0
LINE
8
BLACK
6
CONTINUOUS
10
42.5512
20
-123.818
11
42.7417
21
-123.914
0
LINE
8
BLACK
6
CONTINUOUS
10
42.7417
20
-123.914
11
42.8369
21
-124.104
0
LINE
8
BLACK
6
CONTINUOUS
10
42.8369
20
-124.104
11
42.8369
21
-125.152
0
LINE
8
BLACK
6
CONTINUOUS
10
43.7893
20
-125.152
11
43.7893
21
-123.818
0
LINE
8
BLACK
6
CONTINUOUS
10
43.7893
20
-124.009
11
43.8845
21
-123.914
0
LINE
8
BLACK
6
CONTINUOUS
10
43.8845
20
-123.914
11
44.075
21
-123.818
0
LINE
8
BLACK
6
CONTINUOUS
10
44.075
20
-123.818
11
44.3607
21
-123.818
0
LINE
8
BLACK
6
CONTINUOUS
10
44.3607
20
-123.818
11
44.5512
21
-123.914
0
LINE
8
BLACK
6
CONTINUOUS
10
44.5512
20
-123.914
11
44.6464
21
-124.104
0
LINE
8
BLACK
6
CONTINUOUS
10
44.6464
20
-124.104
11
44.6464
21
-125.152
0
LINE
8
BLACK
6
CONTINUOUS
10
44.6464
20
-124.104
11
44.7417
21
-123.914
0
LINE
8
BLACK
6
CONTINUOUS
10
44.7417
20
-123.914
11
44.9321
21
-123.818
0
LINE
8
BLACK
6
CONTINUOUS
10
44.9321
20
-123.818
11
45.2179
21
-123.818
0
LINE
8
BLACK
6
CONTINUOUS
10
45.2179
20
-123.818
11
45.4083
21
-123.914
0
LINE
8
BLACK
6
CONTINUOUS
10
45.4083
20
-123.914
11
45.5036
21
-124.104
0
LINE
8
BLACK
6
CONTINUOUS
10
45.5036
20
-124.104
11
45.5036
21
-125.152
0
LINE
8
BLACK
6
CONTINUOUS
10
49.4083
20
-123.057
11
47.694
21
-125.628
0
LINE
8
BLACK
6
CONTINUOUS
10
51.9798
20
-123.152
11
52.1702
21
-123.152
0
LINE
8
BLACK
6
CONTINUOUS
10
52.1702
20
-123.152
11
52.3607
21
-123.247
0
LINE
8
BLACK
6
CONTINUOUS
10
52.3607
20
-123.247
11
52.456
21
-123.342
0
LINE
8
BLACK
6
CONTINUOUS
10
52.456
20
-123.342
11
52.5512
21
-123.533
0
LINE
8
BLACK
6
CONTINUOUS
10
52.5512
20
-123.533
11
52.6464
21
-123.914
0
LINE
8
BLACK
6
CONTINUOUS
10
52.6464
20
-123.914
11
52.6464
21
-124.39
0
LINE
8
BLACK
6
CONTINUOUS
10
52.6464
20
-124.39
11
52.5512
21
-124.771
0
LINE
8
BLACK
6
CONTINUOUS
10
52.5512
20
-124.771
11
52.456
21
-124.961
0
LINE
8
BLACK
6
CONTINUOUS
10
52.456
20
-124.961
11
52.3607
21
-125.057
0
LINE
8
BLACK
6
CONTINUOUS
10
52.3607
20
-125.057
11
52.1702
21
-125.152
0
LINE
8
BLACK
6
CONTINUOUS
10
52.1702
20
-125.152
11
51.9798
21
-125.152
0
LINE
8
BLACK
6
CONTINUOUS
10
51.9798
20
-125.152
11
51.7893
21
-125.057
0
LINE
8
BLACK
6
CONTINUOUS
10
51.7893
20
-125.057
11
51.694
21
-124.961
0
LINE
8
BLACK
6
CONTINUOUS
10
51.694
20
-124.961
11
51.5988
21
-124.771
0
LINE
8
BLACK
6
CONTINUOUS
10
51.5988
20
-124.771
11
51.5036
21
-124.39
0
LINE
8
BLACK
6
CONTINUOUS
10
51.5036
20
-124.39
11
51.5036
21
-123.914
0
LINE
8
BLACK
6
CONTINUOUS
10
51.5036
20
-123.914
11
51.5988
21
-123.533
0
LINE
8
BLACK
6
CONTINUOUS
10
51.5988
20
-123.533
11
51.694
21
-123.342
0
LINE
8
BLACK
6
CONTINUOUS
10
51.694
20
-123.342
11
51.7893
21
-123.247
0
LINE
8
BLACK
6
CONTINUOUS
10
51.7893
20
-123.247
11
51.9798
21
-123.152
0
LINE
8
BLACK
6
CONTINUOUS
10
53.5036
20
-124.961
11
53.5988
21
-125.057
0
LINE
8
BLACK
6
CONTINUOUS
10
53.5988
20
-125.057
11
53.5036
21
-125.152
0
LINE
8
BLACK
6
CONTINUOUS
10
53.5036
20
-125.152
11
53.4083
21
-125.057
0
LINE
8
BLACK
6
CONTINUOUS
10
53.4083
20
-125.057
11
53.5036
21
-124.961
0
LINE
8
BLACK
6
CONTINUOUS
10
53.5036
20
-124.961
11
53.5036
21
-125.152
0
LINE
8
BLACK
6
CONTINUOUS
10
54.8369
20
-123.152
11
55.0274
21
-123.152
0
LINE
8
BLACK
6
CONTINUOUS
10
55.0274
20
-123.152
11
55.2179
21
-123.247
0
LINE
8
BLACK
6
CONTINUOUS
10
55.2179
20
-123.247
11
55.3131
21
-123.342
0
LINE
8
BLACK
6
CONTINUOUS
10
55.3131
20
-123.342
11
55.4083
21
-123.533
0
LINE
8
BLACK
6
CONTINUOUS
10
55.4083
20
-123.533
11
55.5036
21
-123.914
0
LINE
8
BLACK
6
CONTINUOUS
10
55.5036
20
-123.914
11
55.5036
21
-124.39
0
LINE
8
BLACK
6
CONTINUOUS
10
55.5036
20
-124.39
11
55.4083
21
-124.771
0
LINE
8
BLACK
6
CONTINUOUS
10
55.4083
20
-124.771
11
55.3131
21
-124.961
0
LINE
8
BLACK
6
CONTINUOUS
10
55.3131
20
-124.961
11
55.2179
21
-125.057
0
LINE
8
BLACK
6
CONTINUOUS
10
55.2179
20
-125.057
11
55.0274
21
-125.152
0
LINE
8
BLACK
6
CONTINUOUS
10
55.0274
20
-125.152
11
54.8369
21
-125.152
0
LINE
8
BLACK
6
CONTINUOUS
10
54.8369
20
-125.152
11
54.6464
21
-125.057
0
LINE
8
BLACK
6
CONTINUOUS
10
54.6464
20
-125.057
11
54.5512
21
-124.961
0
LINE
8
BLACK
6
CONTINUOUS
10
54.5512
20
-124.961
11
54.456
21
-124.771
0
LINE
8
BLACK
6
CONTINUOUS
10
54.456
20
-124.771
11
54.3607
21
-124.39
0
LINE
8
BLACK
6
CONTINUOUS
10
54.3607
20
-124.39
11
54.3607
21
-123.914
0
LINE
8
BLACK
6
CONTINUOUS
10
54.3607
20
-123.914
11
54.456
21
-123.533
0
LINE
8
BLACK
6
CONTINUOUS
10
54.456
20
-123.533
11
54.5512
21
-123.342
0
LINE
8
BLACK
6
CONTINUOUS
10
54.5512
20
-123.342
11
54.6464
21
-123.247
0
LINE
8
BLACK
6
CONTINUOUS
10
54.6464
20
-123.247
11
54.8369
21
-123.152
0
LINE
8
BLACK
6
CONTINUOUS
10
57.4083
20
-125.152
11
56.2655
21
-125.152
0
LINE
8
BLACK
6
CONTINUOUS
10
56.8369
20
-125.152
11
56.8369
21
-123.152
0
LINE
8
BLACK
6
CONTINUOUS
10
56.8369
20
-123.152
11
56.6464
21
-123.437
0
LINE
8
BLACK
6
CONTINUOUS
10
56.6464
20
-123.437
11
56.456
21
-123.628
0
LINE
8
BLACK
6
CONTINUOUS
10
56.456
20
-123.628
11
56.2655
21
-123.723
0
LINE
8
BLACK
6
CONTINUOUS
10
59.2179
20
-123.152
11
58.2655
21
-123.152
0
LINE
8
BLACK
6
CONTINUOUS
10
58.2655
20
-123.152
11
58.1702
21
-124.104
0
LINE
8
BLACK
6
CONTINUOUS
10
58.1702
20
-124.104
11
58.2655
21
-124.009
0
LINE
8
BLACK
6
CONTINUOUS
10
58.2655
20
-124.009
11
58.456
21
-123.914
0
LINE
8
BLACK
6
CONTINUOUS
10
58.456
20
-123.914
11
58.9321
21
-123.914
0
LINE
8
BLACK
6
CONTINUOUS
10
58.9321
20
-123.914
11
59.1226
21
-124.009
0
LINE
8
BLACK
6
CONTINUOUS
10
59.1226
20
-124.009
11
59.2179
21
-124.104
0
LINE
8
BLACK
6
CONTINUOUS
10
59.2179
20
-124.104
11
59.3131
21
-124.295
0
LINE
8
BLACK
6
CONTINUOUS
10
59.3131
20
-124.295
11
59.3131
21
-124.771
0
LINE
8
BLACK
6
CONTINUOUS
10
59.3131
20
-124.771
11
59.2179
21
-124.961
0
LINE
8
BLACK
6
CONTINUOUS
10
59.2179
20
-124.961
11
59.1226
21
-125.057
0
LINE
8
BLACK
6
CONTINUOUS
10
59.1226
20
-125.057
11
58.9321
21
-125.152
0
LINE
8
BLACK
6
CONTINUOUS
10
58.9321
20
-125.152
11
58.456
21
-125.152
0
LINE
8
BLACK
6
CONTINUOUS
10
58.456
20
-125.152
11
58.2655
21
-125.057
0
LINE
8
BLACK
6
CONTINUOUS
10
58.2655
20
-125.057
11
58.1702
21
-124.961
0
LINE
8
BLACK
6
CONTINUOUS
10
59.9798
20
-123.152
11
61.3131
21
-123.152
0
LINE
8
BLACK
6
CONTINUOUS
10
61.3131
20
-123.152
11
60.456
21
-125.152
0
LINE
8
BLACK
6
CONTINUOUS
10
61.9798
20
-123.152
11
61.9798
21
-123.533
0
LINE
8
BLACK
6
CONTINUOUS
10
62.7417
20
-123.152
11
62.7417
21
-123.533
0
LINE
8
BLACK
6
CONTINUOUS
10
65.694
20
-125.914
11
65.5988
21
-125.818
0
LINE
8
BLACK
6
CONTINUOUS
10
65.5988
20
-125.818
11
65.4083
21
-125.533
0
LINE
8
BLACK
6
CONTINUOUS
10
65.4083
20
-125.533
11
65.3131
21
-125.342
0
LINE
8
BLACK
6
CONTINUOUS
10
65.3131
20
-125.342
11
65.2179
21
-125.057
0
LINE
8
BLACK
6
CONTINUOUS
10
65.2179
20
-125.057
11
65.1226
21
-124.58
0
LINE
8
BLACK
6
CONTINUOUS
10
65.1226
20
-124.58
11
65.1226
21
-124.199
0
LINE
8
BLACK
6
CONTINUOUS
10
65.1226
20
-124.199
11
65.2179
21
-123.723
0
LINE
8
BLACK
6
CONTINUOUS
10
65.2179
20
-123.723
11
65.3131
21
-123.437
0
LINE
8
BLACK
6
CONTINUOUS
10
65.3131
20
-123.437
11
65.4083
21
-123.247
0
LINE
8
BLACK
6
CONTINUOUS
10
65.4083
20
-123.247
11
65.5988
21
-122.961
0
LINE
8
BLACK
6
CONTINUOUS
10
65.5988
20
-122.961
11
65.694
21
-122.866
0
LINE
8
BLACK
6
CONTINUOUS
10
66.3607
20
-123.342
11
66.456
21
-123.247
0
LINE
8
BLACK
6
CONTINUOUS
10
66.456
20
-123.247
11
66.6464
21
-123.152
0
LINE
8
BLACK
6
CONTINUOUS
10
66.6464
20
-123.152
11
67.1226
21
-123.152
0
LINE
8
BLACK
6
CONTINUOUS
10
67.1226
20
-123.152
11
67.3131
21
-123.247
0
LINE
8
BLACK
6
CONTINUOUS
10
67.3131
20
-123.247
11
67.4083
21
-123.342
0
LINE
8
BLACK
6
CONTINUOUS
10
67.4083
20
-123.342
11
67.5036
21
-123.533
0
LINE
8
BLACK
6
CONTINUOUS
10
67.5036
20
-123.533
11
67.5036
21
-123.723
0
LINE
8
BLACK
6
CONTINUOUS
10
67.5036
20
-123.723
11
67.4083
21
-124.009
0
LINE
8
BLACK
6
CONTINUOUS
10
67.4083
20
-124.009
11
66.2655
21
-125.152
0
LINE
8
BLACK
6
CONTINUOUS
10
66.2655
20
-125.152
11
67.5036
21
-125.152
0
LINE
8
BLACK
6
CONTINUOUS
10
68.1702
20
-123.152
11
69.5036
21
-123.152
0
LINE
8
BLACK
6
CONTINUOUS
10
69.5036
20
-123.152
11
68.6464
21
-125.152
0
LINE
8
BLACK
6
CONTINUOUS
10
71.7893
20
-125.152
11
71.7893
21
-123.152
0
LINE
8
BLACK
6
CONTINUOUS
10
72.6464
20
-125.152
11
72.6464
21
-124.104
0
LINE
8
BLACK
6
CONTINUOUS
10
72.6464
20
-124.104
11
72.5512
21
-123.914
0
LINE
8
BLACK
6
CONTINUOUS
10
72.5512
20
-123.914
11
72.3607
21
-123.818
0
LINE
8
BLACK
6
CONTINUOUS
10
72.3607
20
-123.818
11
72.075
21
-123.818
0
LINE
8
BLACK
6
CONTINUOUS
10
72.075
20
-123.818
11
71.8845
21
-123.914
0
LINE
8
BLACK
6
CONTINUOUS
10
71.8845
20
-123.914
11
71.7893
21
-124.009
0
LINE
8
BLACK
6
CONTINUOUS
10
73.8845
20
-125.152
11
73.694
21
-125.057
0
LINE
8
BLACK
6
CONTINUOUS
10
73.694
20
-125.057
11
73.5988
21
-124.961
0
LINE
8
BLACK
6
CONTINUOUS
10
73.5988
20
-124.961
11
73.5036
21
-124.771
0
LINE
8
BLACK
6
CONTINUOUS
10
73.5036
20
-124.771
11
73.5036
21
-124.199
0
LINE
8
BLACK
6
CONTINUOUS
10
73.5036
20
-124.199
11
73.5988
21
-124.009
0
LINE
8
BLACK
6
CONTINUOUS
10
73.5988
20
-124.009
11
73.694
21
-123.914
0
LINE
8
BLACK
6
CONTINUOUS
10
73.694
20
-123.914
11
73.8845
21
-123.818
0
LINE
8
BLACK
6
CONTINUOUS
10
73.8845
20
-123.818
11
74.1702
21
-123.818
0
LINE
8
BLACK
6
CONTINUOUS
10
74.1702
20
-123.818
11
74.3607
21
-123.914
0
LINE
8
BLACK
6
CONTINUOUS
10
74.3607
20
-123.914
11
74.456
21
-124.009
0
LINE
8
BLACK
6
CONTINUOUS
10
74.456
20
-124.009
11
74.5512
21
-124.199
0
LINE
8
BLACK
6
CONTINUOUS
10
74.5512
20
-124.199
11
74.5512
21
-124.771
0
LINE
8
BLACK
6
CONTINUOUS
10
74.5512
20
-124.771
11
74.456
21
-124.961
0
LINE
8
BLACK
6
CONTINUOUS
10
74.456
20
-124.961
11
74.3607
21
-125.057
0
LINE
8
BLACK
6
CONTINUOUS
10
74.3607
20
-125.057
11
74.1702
21
-125.152
0
LINE
8
BLACK
6
CONTINUOUS
10
74.1702
20
-125.152
11
73.8845
21
-125.152
0
LINE
8
BLACK
6
CONTINUOUS
10
75.694
20
-125.152
11
75.5036
21
-125.057
0
LINE
8
BLACK
6
CONTINUOUS
10
75.5036
20
-125.057
11
75.4083
21
-124.866
0
LINE
8
BLACK
6
CONTINUOUS
10
75.4083
20
-124.866
11
75.4083
21
-123.152
0
LINE
8
BLACK
6
CONTINUOUS
10
77.2179
20
-125.057
11
77.0274
21
-125.152
0
LINE
8
BLACK
6
CONTINUOUS
10
77.0274
20
-125.152
11
76.6464
21
-125.152
0
LINE
8
BLACK
6
CONTINUOUS
10
76.6464
20
-125.152
11
76.456
21
-125.057
0
LINE
8
BLACK
6
CONTINUOUS
10
76.456
20
-125.057
11
76.3607
21
-124.866
0
LINE
8
BLACK
6
CONTINUOUS
10
76.3607
20
-124.866
11
76.3607
21
-124.104
0
LINE
8
BLACK
6
CONTINUOUS
10
76.3607
20
-124.104
11
76.456
21
-123.914
0
LINE
8
BLACK
6
CONTINUOUS
10
76.456
20
-123.914
11
76.6464
21
-123.818
0
LINE
8
BLACK
6
CONTINUOUS
10
76.6464
20
-123.818
11
77.0274
21
-123.818
0
LINE
8
BLACK
6
CONTINUOUS
10
77.0274
20
-123.818
11
77.2179
21
-123.914
0
LINE
8
BLACK
6
CONTINUOUS
10
77.2179
20
-123.914
11
77.3131
21
-124.104
0
LINE
8
BLACK
6
CONTINUOUS
10
77.3131
20
-124.104
11
77.3131
21
-124.295
0
LINE
8
BLACK
6
CONTINUOUS
10
77.3131
20
-124.295
11
76.3607
21
-124.485
0
LINE
8
BLACK
6
CONTINUOUS
10
78.075
20
-125.057
11
78.2655
21
-125.152
0
LINE
8
BLACK
6
CONTINUOUS
10
78.2655
20
-125.152
11
78.6464
21
-125.152
0
LINE
8
BLACK
6
CONTINUOUS
10
78.6464
20
-125.152
11
78.8369
21
-125.057
0
LINE
8
BLACK
6
CONTINUOUS
10
78.8369
20
-125.057
11
78.9321
21
-124.866
0
LINE
8
BLACK
6
CONTINUOUS
10
78.9321
20
-124.866
11
78.9321
21
-124.771
0
LINE
8
BLACK
6
CONTINUOUS
10
78.9321
20
-124.771
11
78.8369
21
-124.58
0
LINE
8
BLACK
6
CONTINUOUS
10
78.8369
20
-124.58
11
78.6464
21
-124.485
0
LINE
8
BLACK
6
CONTINUOUS
10
78.6464
20
-124.485
11
78.3607
21
-124.485
0
LINE
8
BLACK
6
CONTINUOUS
10
78.3607
20
-124.485
11
78.1702
21
-124.39
0
LINE
8
BLACK
6
CONTINUOUS
10
78.1702
20
-124.39
11
78.075
21
-124.199
0
LINE
8
BLACK
6
CONTINUOUS
10
78.075
20
-124.199
11
78.075
21
-124.104
0
LINE
8
BLACK
6
CONTINUOUS
10
78.075
20
-124.104
11
78.1702
21
-123.914
0
LINE
8
BLACK
6
CONTINUOUS
10
78.1702
20
-123.914
11
78.3607
21
-123.818
0
LINE
8
BLACK
6
CONTINUOUS
10
78.3607
20
-123.818
11
78.6464
21
-123.818
0
LINE
8
BLACK
6
CONTINUOUS
10
78.6464
20
-123.818
11
78.8369
21
-123.914
0
LINE
8
BLACK
6
CONTINUOUS
10
79.5988
20
-125.914
11
79.694
21
-125.818
0
LINE
8
BLACK
6
CONTINUOUS
10
79.694
20
-125.818
11
79.8845
21
-125.533
0
LINE
8
BLACK
6
CONTINUOUS
10
79.8845
20
-125.533
11
79.9798
21
-125.342
0
LINE
8
BLACK
6
CONTINUOUS
10
79.9798
20
-125.342
11
80.075
21
-125.057
0
LINE
8
BLACK
6
CONTINUOUS
10
80.075
20
-125.057
11
80.1702
21
-124.58
0
LINE
8
BLACK
6
CONTINUOUS
10
80.1702
20
-124.58
11
80.1702
21
-124.199
0
LINE
8
BLACK
6
CONTINUOUS
10
80.1702
20
-124.199
11
80.075
21
-123.723
0
LINE
8
BLACK
6
CONTINUOUS
10
80.075
20
-123.723
11
79.9798
21
-123.437
0
LINE
8
BLACK
6
CONTINUOUS
10
79.9798
20
-123.437
11
79.8845
21
-123.247
0
LINE
8
BLACK
6
CONTINUOUS
10
79.8845
20
-123.247
11
79.694
21
-122.961
0
LINE
8
BLACK
6
CONTINUOUS
10
79.694
20
-122.961
11
79.5988
21
-122.866
0
LINE
8
BLACK
6
CONTINUOUS
10
29.9018
20
-127.064
11
29.9018
21
-126.71
0
LINE
8
BLACK
6
CONTINUOUS
10
29.9018
20
-126.71
11
29.5482
21
-126.71
0
LINE
8
BLACK
6
CONTINUOUS
10
29.5482
20
-126.71
11
29.5482
21
-127.064
0
LINE
8
BLACK
6
CONTINUOUS
10
29.5482
20
-127.064
11
29.9018
21
-127.064
0
LINE
8
BLACK
6
CONTINUOUS
10
32.9321
20
-125.792
11
33.1226
21
-125.792
0
LINE
8
BLACK
6
CONTINUOUS
10
33.1226
20
-125.792
11
33.3131
21
-125.887
0
LINE
8
BLACK
6
CONTINUOUS
10
33.3131
20
-125.887
11
33.4083
21
-125.982
0
LINE
8
BLACK
6
CONTINUOUS
10
33.4083
20
-125.982
11
33.5036
21
-126.173
0
LINE
8
BLACK
6
CONTINUOUS
10
33.5036
20
-126.173
11
33.5988
21
-126.554
0
LINE
8
BLACK
6
CONTINUOUS
10
33.5988
20
-126.554
11
33.5988
21
-127.03
0
LINE
8
BLACK
6
CONTINUOUS
10
33.5988
20
-127.03
11
33.5036
21
-127.411
0
LINE
8
BLACK
6
CONTINUOUS
10
33.5036
20
-127.411
11
33.4083
21
-127.601
0
LINE
8
BLACK
6
CONTINUOUS
10
33.4083
20
-127.601
11
33.3131
21
-127.697
0
LINE
8
BLACK
6
CONTINUOUS
10
33.3131
20
-127.697
11
33.1226
21
-127.792
0
LINE
8
BLACK
6
CONTINUOUS
10
33.1226
20
-127.792
11
32.9321
21
-127.792
0
LINE
8
BLACK
6
CONTINUOUS
10
32.9321
20
-127.792
11
32.7417
21
-127.697
0
LINE
8
BLACK
6
CONTINUOUS
10
32.7417
20
-127.697
11
32.6464
21
-127.601
0
LINE
8
BLACK
6
CONTINUOUS
10
32.6464
20
-127.601
11
32.5512
21
-127.411
0
LINE
8
BLACK
6
CONTINUOUS
10
32.5512
20
-127.411
11
32.456
21
-127.03
0
LINE
8
BLACK
6
CONTINUOUS
10
32.456
20
-127.03
11
32.456
21
-126.554
0
LINE
8
BLACK
6
CONTINUOUS
10
32.456
20
-126.554
11
32.5512
21
-126.173
0
LINE
8
BLACK
6
CONTINUOUS
10
32.5512
20
-126.173
11
32.6464
21
-125.982
0
LINE
8
BLACK
6
CONTINUOUS
10
32.6464
20
-125.982
11
32.7417
21
-125.887
0
LINE
8
BLACK
6
CONTINUOUS
10
32.7417
20
-125.887
11
32.9321
21
-125.792
0
LINE
8
BLACK
6
CONTINUOUS
10
34.456
20
-127.601
11
34.5512
21
-127.697
0
LINE
8
BLACK
6
CONTINUOUS
10
34.5512
20
-127.697
11
34.456
21
-127.792
0
LINE
8
BLACK
6
CONTINUOUS
10
34.456
20
-127.792
11
34.3607
21
-127.697
0
LINE
8
BLACK
6
CONTINUOUS
10
34.3607
20
-127.697
11
34.456
21
-127.601
0
LINE
8
BLACK
6
CONTINUOUS
10
34.456
20
-127.601
11
34.456
21
-127.792
0
LINE
8
BLACK
6
CONTINUOUS
10
36.3607
20
-125.792
11
35.4083
21
-125.792
0
LINE
8
BLACK
6
CONTINUOUS
10
35.4083
20
-125.792
11
35.3131
21
-126.744
0
LINE
8
BLACK
6
CONTINUOUS
10
35.3131
20
-126.744
11
35.4083
21
-126.649
0
LINE
8
BLACK
6
CONTINUOUS
10
35.4083
20
-126.649
11
35.5988
21
-126.554
0
LINE
8
BLACK
6
CONTINUOUS
10
35.5988
20
-126.554
11
36.075
21
-126.554
0
LINE
8
BLACK
6
CONTINUOUS
10
36.075
20
-126.554
11
36.2655
21
-126.649
0
LINE
8
BLACK
6
CONTINUOUS
10
36.2655
20
-126.649
11
36.3607
21
-126.744
0
LINE
8
BLACK
6
CONTINUOUS
10
36.3607
20
-126.744
11
36.456
21
-126.935
0
LINE
8
BLACK
6
CONTINUOUS
10
36.456
20
-126.935
11
36.456
21
-127.411
0
LINE
8
BLACK
6
CONTINUOUS
10
36.456
20
-127.411
11
36.3607
21
-127.601
0
LINE
8
BLACK
6
CONTINUOUS
10
36.3607
20
-127.601
11
36.2655
21
-127.697
0
LINE
8
BLACK
6
CONTINUOUS
10
36.2655
20
-127.697
11
36.075
21
-127.792
0
LINE
8
BLACK
6
CONTINUOUS
10
36.075
20
-127.792
11
35.5988
21
-127.792
0
LINE
8
BLACK
6
CONTINUOUS
10
35.5988
20
-127.792
11
35.4083
21
-127.697
0
LINE
8
BLACK
6
CONTINUOUS
10
35.4083
20
-127.697
11
35.3131
21
-127.601
0
LINE
8
BLACK
6
CONTINUOUS
10
37.694
20
-125.792
11
37.8845
21
-125.792
0
LINE
8
BLACK
6
CONTINUOUS
10
37.8845
20
-125.792
11
38.075
21
-125.887
0
LINE
8
BLACK
6
CONTINUOUS
10
38.075
20
-125.887
11
38.1702
21
-125.982
0
LINE
8
BLACK
6
CONTINUOUS
10
38.1702
20
-125.982
11
38.2655
21
-126.173
0
LINE
8
BLACK
6
CONTINUOUS
10
38.2655
20
-126.173
11
38.3607
21
-126.554
0
LINE
8
BLACK
6
CONTINUOUS
10
38.3607
20
-126.554
11
38.3607
21
-127.03
0
LINE
8
BLACK
6
CONTINUOUS
10
38.3607
20
-127.03
11
38.2655
21
-127.411
0
LINE
8
BLACK
6
CONTINUOUS
10
38.2655
20
-127.411
11
38.1702
21
-127.601
0
LINE
8
BLACK
6
CONTINUOUS
10
38.1702
20
-127.601
11
38.075
21
-127.697
0
LINE
8
BLACK
6
CONTINUOUS
10
38.075
20
-127.697
11
37.8845
21
-127.792
0
LINE
8
BLACK
6
CONTINUOUS
10
37.8845
20
-127.792
11
37.694
21
-127.792
0
LINE
8
BLACK
6
CONTINUOUS
10
37.694
20
-127.792
11
37.5036
21
-127.697
0
LINE
8
BLACK
6
CONTINUOUS
10
37.5036
20
-127.697
11
37.4083
21
-127.601
0
LINE
8
BLACK
6
CONTINUOUS
10
37.4083
20
-127.601
11
37.3131
21
-127.411
0
LINE
8
BLACK
6
CONTINUOUS
10
37.3131
20
-127.411
11
37.2179
21
-127.03
0
LINE
8
BLACK
6
CONTINUOUS
10
37.2179
20
-127.03
11
37.2179
21
-126.554
0
LINE
8
BLACK
6
CONTINUOUS
10
37.2179
20
-126.554
11
37.3131
21
-126.173
0
LINE
8
BLACK
6
CONTINUOUS
10
37.3131
20
-126.173
11
37.4083
21
-125.982
0
LINE
8
BLACK
6
CONTINUOUS
10
37.4083
20
-125.982
11
37.5036
21
-125.887
0
LINE
8
BLACK
6
CONTINUOUS
10
37.5036
20
-125.887
11
37.694
21
-125.792
0
LINE
8
BLACK
6
CONTINUOUS
10
39.5988
20
-125.792
11
39.7893
21
-125.792
0
LINE
8
BLACK
6
CONTINUOUS
10
39.7893
20
-125.792
11
39.9798
21
-125.887
0
LINE
8
BLACK
6
CONTINUOUS
10
39.9798
20
-125.887
11
40.075
21
-125.982
0
LINE
8
BLACK
6
CONTINUOUS
10
40.075
20
-125.982
11
40.1702
21
-126.173
0
LINE
8
BLACK
6
CONTINUOUS
10
40.1702
20
-126.173
11
40.2655
21
-126.554
0
LINE
8
BLACK
6
CONTINUOUS
10
40.2655
20
-126.554
11
40.2655
21
-127.03
0
LINE
8
BLACK
6
CONTINUOUS
10
40.2655
20
-127.03
11
40.1702
21
-127.411
0
LINE
8
BLACK
6
CONTINUOUS
10
40.1702
20
-127.411
11
40.075
21
-127.601
0
LINE
8
BLACK
6
CONTINUOUS
10
40.075
20
-127.601
11
39.9798
21
-127.697
0
LINE
8
BLACK
6
CONTINUOUS
10
39.9798
20
-127.697
11
39.7893
21
-127.792
0
LINE
8
BLACK
6
CONTINUOUS
10
39.7893
20
-127.792
11
39.5988
21
-127.792
0
LINE
8
BLACK
6
CONTINUOUS
10
39.5988
20
-127.792
11
39.4083
21
-127.697
0
LINE
8
BLACK
6
CONTINUOUS
10
39.4083
20
-127.697
11
39.3131
21
-127.601
0
LINE
8
BLACK
6
CONTINUOUS
10
39.3131
20
-127.601
11
39.2179
21
-127.411
0
LINE
8
BLACK
6
CONTINUOUS
10
39.2179
20
-127.411
11
39.1226
21
-127.03
0
LINE
8
BLACK
6
CONTINUOUS
10
39.1226
20
-127.03
11
39.1226
21
-126.554
0
LINE
8
BLACK
6
CONTINUOUS
10
39.1226
20
-126.554
11
39.2179
21
-126.173
0
LINE
8
BLACK
6
CONTINUOUS
10
39.2179
20
-126.173
11
39.3131
21
-125.982
0
LINE
8
BLACK
6
CONTINUOUS
10
39.3131
20
-125.982
11
39.4083
21
-125.887
0
LINE
8
BLACK
6
CONTINUOUS
10
39.4083
20
-125.887
11
39.5988
21
-125.792
0
LINE
8
BLACK
6
CONTINUOUS
10
41.1226
20
-127.792
11
41.1226
21
-126.458
0
LINE
8
BLACK
6
CONTINUOUS
10
41.1226
20
-126.649
11
41.2179
21
-126.554
0
LINE
8
BLACK
6
CONTINUOUS
10
41.2179
20
-126.554
11
41.4083
21
-126.458
0
LINE
8
BLACK
6
CONTINUOUS
10
41.4083
20
-126.458
11
41.694
21
-126.458
0
LINE
8
BLACK
6
CONTINUOUS
10
41.694
20
-126.458
11
41.8845
21
-126.554
0
LINE
8
BLACK
6
CONTINUOUS
10
41.8845
20
-126.554
11
41.9798
21
-126.744
0
LINE
8
BLACK
6
CONTINUOUS
10
41.9798
20
-126.744
11
41.9798
21
-127.792
0
LINE
8
BLACK
6
CONTINUOUS
10
41.9798
20
-126.744
11
42.075
21
-126.554
0
LINE
8
BLACK
6
CONTINUOUS
10
42.075
20
-126.554
11
42.2655
21
-126.458
0
LINE
8
BLACK
6
CONTINUOUS
10
42.2655
20
-126.458
11
42.5512
21
-126.458
0
LINE
8
BLACK
6
CONTINUOUS
10
42.5512
20
-126.458
11
42.7417
21
-126.554
0
LINE
8
BLACK
6
CONTINUOUS
10
42.7417
20
-126.554
11
42.8369
21
-126.744
0
LINE
8
BLACK
6
CONTINUOUS
10
42.8369
20
-126.744
11
42.8369
21
-127.792
0
LINE
8
BLACK
6
CONTINUOUS
10
43.7893
20
-127.792
11
43.7893
21
-126.458
0
LINE
8
BLACK
6
CONTINUOUS
10
43.7893
20
-126.649
11
43.8845
21
-126.554
0
LINE
8
BLACK
6
CONTINUOUS
10
43.8845
20
-126.554
11
44.075
21
-126.458
0
LINE
8
BLACK
6
CONTINUOUS
10
44.075
20
-126.458
11
44.3607
21
-126.458
0
LINE
8
BLACK
6
CONTINUOUS
10
44.3607
20
-126.458
11
44.5512
21
-126.554
0
LINE
8
BLACK
6
CONTINUOUS
10
44.5512
20
-126.554
11
44.6464
21
-126.744
0
LINE
8
BLACK
6
CONTINUOUS
10
44.6464
20
-126.744
11
44.6464
21
-127.792
0
LINE
8
BLACK
6
CONTINUOUS
10
44.6464
20
-126.744
11
44.7417
21
-126.554
0
LINE
8
BLACK
6
CONTINUOUS
10
44.7417
20
-126.554
11
44.9321
21
-126.458
0
LINE
8
BLACK
6
CONTINUOUS
10
44.9321
20
-126.458
11
45.2179
21
-126.458
0
LINE
8
BLACK
6
CONTINUOUS
10
45.2179
20
-126.458
11
45.4083
21
-126.554
0
LINE
8
BLACK
6
CONTINUOUS
10
45.4083
20
-126.554
11
45.5036
21
-126.744
0
LINE
8
BLACK
6
CONTINUOUS
10
45.5036
20
-126.744
11
45.5036
21
-127.792
0
LINE
8
BLACK
6
CONTINUOUS
10
49.4083
20
-125.697
11
47.694
21
-128.268
0
LINE
8
BLACK
6
CONTINUOUS
10
51.9798
20
-125.792
11
52.1702
21
-125.792
0
LINE
8
BLACK
6
CONTINUOUS
10
52.1702
20
-125.792
11
52.3607
21
-125.887
0
LINE
8
BLACK
6
CONTINUOUS
10
52.3607
20
-125.887
11
52.456
21
-125.982
0
LINE
8
BLACK
6
CONTINUOUS
10
52.456
20
-125.982
11
52.5512
21
-126.173
0
LINE
8
BLACK
6
CONTINUOUS
10
52.5512
20
-126.173
11
52.6464
21
-126.554
0
LINE
8
BLACK
6
CONTINUOUS
10
52.6464
20
-126.554
11
52.6464
21
-127.03
0
LINE
8
BLACK
6
CONTINUOUS
10
52.6464
20
-127.03
11
52.5512
21
-127.411
0
LINE
8
BLACK
6
CONTINUOUS
10
52.5512
20
-127.411
11
52.456
21
-127.601
0
LINE
8
BLACK
6
CONTINUOUS
10
52.456
20
-127.601
11
52.3607
21
-127.697
0
LINE
8
BLACK
6
CONTINUOUS
10
52.3607
20
-127.697
11
52.1702
21
-127.792
0
LINE
8
BLACK
6
CONTINUOUS
10
52.1702
20
-127.792
11
51.9798
21
-127.792
0
LINE
8
BLACK
6
CONTINUOUS
10
51.9798
20
-127.792
11
51.7893
21
-127.697
0
LINE
8
BLACK
6
CONTINUOUS
10
51.7893
20
-127.697
11
51.694
21
-127.601
0
LINE
8
BLACK
6
CONTINUOUS
10
51.694
20
-127.601
11
51.5988
21
-127.411
0
LINE
8
BLACK
6
CONTINUOUS
10
51.5988
20
-127.411
11
51.5036
21
-127.03
0
LINE
8
BLACK
6
CONTINUOUS
10
51.5036
20
-127.03
11
51.5036
21
-126.554
0
LINE
8
BLACK
6
CONTINUOUS
10
51.5036
20
-126.554
11
51.5988
21
-126.173
0
LINE
8
BLACK
6
CONTINUOUS
10
51.5988
20
-126.173
11
51.694
21
-125.982
0
LINE
8
BLACK
6
CONTINUOUS
10
51.694
20
-125.982
11
51.7893
21
-125.887
0
LINE
8
BLACK
6
CONTINUOUS
10
51.7893
20
-125.887
11
51.9798
21
-125.792
0
LINE
8
BLACK
6
CONTINUOUS
10
53.5036
20
-127.601
11
53.5988
21
-127.697
0
LINE
8
BLACK
6
CONTINUOUS
10
53.5988
20
-127.697
11
53.5036
21
-127.792
0
LINE
8
BLACK
6
CONTINUOUS
10
53.5036
20
-127.792
11
53.4083
21
-127.697
0
LINE
8
BLACK
6
CONTINUOUS
10
53.4083
20
-127.697
11
53.5036
21
-127.601
0
LINE
8
BLACK
6
CONTINUOUS
10
53.5036
20
-127.601
11
53.5036
21
-127.792
0
LINE
8
BLACK
6
CONTINUOUS
10
54.8369
20
-125.792
11
55.0274
21
-125.792
0
LINE
8
BLACK
6
CONTINUOUS
10
55.0274
20
-125.792
11
55.2179
21
-125.887
0
LINE
8
BLACK
6
CONTINUOUS
10
55.2179
20
-125.887
11
55.3131
21
-125.982
0
LINE
8
BLACK
6
CONTINUOUS
10
55.3131
20
-125.982
11
55.4083
21
-126.173
0
LINE
8
BLACK
6
CONTINUOUS
10
55.4083
20
-126.173
11
55.5036
21
-126.554
0
LINE
8
BLACK
6
CONTINUOUS
10
55.5036
20
-126.554
11
55.5036
21
-127.03
0
LINE
8
BLACK
6
CONTINUOUS
10
55.5036
20
-127.03
11
55.4083
21
-127.411
0
LINE
8
BLACK
6
CONTINUOUS
10
55.4083
20
-127.411
11
55.3131
21
-127.601
0
LINE
8
BLACK
6
CONTINUOUS
10
55.3131
20
-127.601
11
55.2179
21
-127.697
0
LINE
8
BLACK
6
CONTINUOUS
10
55.2179
20
-127.697
11
55.0274
21
-127.792
0
LINE
8
BLACK
6
CONTINUOUS
10
55.0274
20
-127.792
11
54.8369
21
-127.792
0
LINE
8
BLACK
6
CONTINUOUS
10
54.8369
20
-127.792
11
54.6464
21
-127.697
0
LINE
8
BLACK
6
CONTINUOUS
10
54.6464
20
-127.697
11
54.5512
21
-127.601
0
LINE
8
BLACK
6
CONTINUOUS
10
54.5512
20
-127.601
11
54.456
21
-127.411
0
LINE
8
BLACK
6
CONTINUOUS
10
54.456
20
-127.411
11
54.3607
21
-127.03
0
LINE
8
BLACK
6
CONTINUOUS
10
54.3607
20
-127.03
11
54.3607
21
-126.554
0
LINE
8
BLACK
6
CONTINUOUS
10
54.3607
20
-126.554
11
54.456
21
-126.173
0
LINE
8
BLACK
6
CONTINUOUS
10
54.456
20
-126.173
11
54.5512
21
-125.982
0
LINE
8
BLACK
6
CONTINUOUS
10
54.5512
20
-125.982
11
54.6464
21
-125.887
0
LINE
8
BLACK
6
CONTINUOUS
10
54.6464
20
-125.887
11
54.8369
21
-125.792
0
LINE
8
BLACK
6
CONTINUOUS
10
57.4083
20
-127.792
11
56.2655
21
-127.792
0
LINE
8
BLACK
6
CONTINUOUS
10
56.8369
20
-127.792
11
56.8369
21
-125.792
0
LINE
8
BLACK
6
CONTINUOUS
10
56.8369
20
-125.792
11
56.6464
21
-126.077
0
LINE
8
BLACK
6
CONTINUOUS
10
56.6464
20
-126.077
11
56.456
21
-126.268
0
LINE
8
BLACK
6
CONTINUOUS
10
56.456
20
-126.268
11
56.2655
21
-126.363
0
LINE
8
BLACK
6
CONTINUOUS
10
58.3607
20
-127.792
11
58.7417
21
-127.792
0
LINE
8
BLACK
6
CONTINUOUS
10
58.7417
20
-127.792
11
58.9321
21
-127.697
0
LINE
8
BLACK
6
CONTINUOUS
10
58.9321
20
-127.697
11
59.0274
21
-127.601
0
LINE
8
BLACK
6
CONTINUOUS
10
59.0274
20
-127.601
11
59.2179
21
-127.316
0
LINE
8
BLACK
6
CONTINUOUS
10
59.2179
20
-127.316
11
59.3131
21
-126.935
0
LINE
8
BLACK
6
CONTINUOUS
10
59.3131
20
-126.935
11
59.3131
21
-126.173
0
LINE
8
BLACK
6
CONTINUOUS
10
59.3131
20
-126.173
11
59.2179
21
-125.982
0
LINE
8
BLACK
6
CONTINUOUS
10
59.2179
20
-125.982
11
59.1226
21
-125.887
0
LINE
8
BLACK
6
CONTINUOUS
10
59.1226
20
-125.887
11
58.9321
21
-125.792
0
LINE
8
BLACK
6
CONTINUOUS
10
58.9321
20
-125.792
11
58.5512
21
-125.792
0
LINE
8
BLACK
6
CONTINUOUS
10
58.5512
20
-125.792
11
58.3607
21
-125.887
0
LINE
8
BLACK
6
CONTINUOUS
10
58.3607
20
-125.887
11
58.2655
21
-125.982
0
LINE
8
BLACK
6
CONTINUOUS
10
58.2655
20
-125.982
11
58.1702
21
-126.173
0
LINE
8
BLACK
6
CONTINUOUS
10
58.1702
20
-126.173
11
58.1702
21
-126.649
0
LINE
8
BLACK
6
CONTINUOUS
10
58.1702
20
-126.649
11
58.2655
21
-126.839
0
LINE
8
BLACK
6
CONTINUOUS
10
58.2655
20
-126.839
11
58.3607
21
-126.935
0
LINE
8
BLACK
6
CONTINUOUS
10
58.3607
20
-126.935
11
58.5512
21
-127.03
0
LINE
8
BLACK
6
CONTINUOUS
10
58.5512
20
-127.03
11
58.9321
21
-127.03
0
LINE
8
BLACK
6
CONTINUOUS
10
58.9321
20
-127.03
11
59.1226
21
-126.935
0
LINE
8
BLACK
6
CONTINUOUS
10
59.1226
20
-126.935
11
59.2179
21
-126.839
0
LINE
8
BLACK
6
CONTINUOUS
10
59.2179
20
-126.839
11
59.3131
21
-126.649
0
LINE
8
BLACK
6
CONTINUOUS
10
59.9798
20
-125.792
11
61.3131
21
-125.792
0
LINE
8
BLACK
6
CONTINUOUS
10
61.3131
20
-125.792
11
60.456
21
-127.792
0
LINE
8
BLACK
6
CONTINUOUS
10
61.9798
20
-125.792
11
61.9798
21
-126.173
0
LINE
8
BLACK
6
CONTINUOUS
10
62.7417
20
-125.792
11
62.7417
21
-126.173
0
LINE
8
BLACK
6
CONTINUOUS
10
65.694
20
-128.554
11
65.5988
21
-128.458
0
LINE
8
BLACK
6
CONTINUOUS
10
65.5988
20
-128.458
11
65.4083
21
-128.173
0
LINE
8
BLACK
6
CONTINUOUS
10
65.4083
20
-128.173
11
65.3131
21
-127.982
0
LINE
8
BLACK
6
CONTINUOUS
10
65.3131
20
-127.982
11
65.2179
21
-127.697
0
LINE
8
BLACK
6
CONTINUOUS
10
65.2179
20
-127.697
11
65.1226
21
-127.22
0
LINE
8
BLACK
6
CONTINUOUS
10
65.1226
20
-127.22
11
65.1226
21
-126.839
0
LINE
8
BLACK
6
CONTINUOUS
10
65.1226
20
-126.839
11
65.2179
21
-126.363
0
LINE
8
BLACK
6
CONTINUOUS
10
65.2179
20
-126.363
11
65.3131
21
-126.077
0
LINE
8
BLACK
6
CONTINUOUS
10
65.3131
20
-126.077
11
65.4083
21
-125.887
0
LINE
8
BLACK
6
CONTINUOUS
10
65.4083
20
-125.887
11
65.5988
21
-125.601
0
LINE
8
BLACK
6
CONTINUOUS
10
65.5988
20
-125.601
11
65.694
21
-125.506
0
LINE
8
BLACK
6
CONTINUOUS
10
66.2655
20
-125.792
11
67.5036
21
-125.792
0
LINE
8
BLACK
6
CONTINUOUS
10
67.5036
20
-125.792
11
66.8369
21
-126.554
0
LINE
8
BLACK
6
CONTINUOUS
10
66.8369
20
-126.554
11
67.1226
21
-126.554
0
LINE
8
BLACK
6
CONTINUOUS
10
67.1226
20
-126.554
11
67.3131
21
-126.649
0
LINE
8
BLACK
6
CONTINUOUS
10
67.3131
20
-126.649
11
67.4083
21
-126.744
0
LINE
8
BLACK
6
CONTINUOUS
10
67.4083
20
-126.744
11
67.5036
21
-126.935
0
LINE
8
BLACK
6
CONTINUOUS
10
67.5036
20
-126.935
11
67.5036
21
-127.411
0
LINE
8
BLACK
6
CONTINUOUS
10
67.5036
20
-127.411
11
67.4083
21
-127.601
0
LINE
8
BLACK
6
CONTINUOUS
10
67.4083
20
-127.601
11
67.3131
21
-127.697
0
LINE
8
BLACK
6
CONTINUOUS
10
67.3131
20
-127.697
11
67.1226
21
-127.792
0
LINE
8
BLACK
6
CONTINUOUS
10
67.1226
20
-127.792
11
66.5512
21
-127.792
0
LINE
8
BLACK
6
CONTINUOUS
10
66.5512
20
-127.792
11
66.3607
21
-127.697
0
LINE
8
BLACK
6
CONTINUOUS
10
66.3607
20
-127.697
11
66.2655
21
-127.601
0
LINE
8
BLACK
6
CONTINUOUS
10
69.8845
20
-127.792
11
69.8845
21
-125.792
0
LINE
8
BLACK
6
CONTINUOUS
10
70.7417
20
-127.792
11
70.7417
21
-126.744
0
LINE
8
BLACK
6
CONTINUOUS
10
70.7417
20
-126.744
11
70.6464
21
-126.554
0
LINE
8
BLACK
6
CONTINUOUS
10
70.6464
20
-126.554
11
70.456
21
-126.458
0
LINE
8
BLACK
6
CONTINUOUS
10
70.456
20
-126.458
11
70.1702
21
-126.458
0
LINE
8
BLACK
6
CONTINUOUS
10
70.1702
20
-126.458
11
69.9798
21
-126.554
0
LINE
8
BLACK
6
CONTINUOUS
10
69.9798
20
-126.554
11
69.8845
21
-126.649
0
LINE
8
BLACK
6
CONTINUOUS
10
71.9798
20
-127.792
11
71.7893
21
-127.697
0
LINE
8
BLACK
6
CONTINUOUS
10
71.7893
20
-127.697
11
71.694
21
-127.601
0
LINE
8
BLACK
6
CONTINUOUS
10
71.694
20
-127.601
11
71.5988
21
-127.411
0
LINE
8
BLACK
6
CONTINUOUS
10
71.5988
20
-127.411
11
71.5988
21
-126.839
0
LINE
8
BLACK
6
CONTINUOUS
10
71.5988
20
-126.839
11
71.694
21
-126.649
0
LINE
8
BLACK
6
CONTINUOUS
10
71.694
20
-126.649
11
71.7893
21
-126.554
0
LINE
8
BLACK
6
CONTINUOUS
10
71.7893
20
-126.554
11
71.9798
21
-126.458
0
LINE
8
BLACK
6
CONTINUOUS
10
71.9798
20
-126.458
11
72.2655
21
-126.458
0
LINE
8
BLACK
6
CONTINUOUS
10
72.2655
20
-126.458
11
72.456
21
-126.554
0
LINE
8
BLACK
6
CONTINUOUS
10
72.456
20
-126.554
11
72.5512
21
-126.649
0
LINE
8
BLACK
6
CONTINUOUS
10
72.5512
20
-126.649
11
72.6464
21
-126.839
0
LINE
8
BLACK
6
CONTINUOUS
10
72.6464
20
-126.839
11
72.6464
21
-127.411
0
LINE
8
BLACK
6
CONTINUOUS
10
72.6464
20
-127.411
11
72.5512
21
-127.601
0
LINE
8
BLACK
6
CONTINUOUS
10
72.5512
20
-127.601
11
72.456
21
-127.697
0
LINE
8
BLACK
6
CONTINUOUS
10
72.456
20
-127.697
11
72.2655
21
-127.792
0
LINE
8
BLACK
6
CONTINUOUS
10
72.2655
20
-127.792
11
71.9798
21
-127.792
0
LINE
8
BLACK
6
CONTINUOUS
10
73.7893
20
-127.792
11
73.5988
21
-127.697
0
LINE
8
BLACK
6
CONTINUOUS
10
73.5988
20
-127.697
11
73.5036
21
-127.506
0
LINE
8
BLACK
6
CONTINUOUS
10
73.5036
20
-127.506
11
73.5036
21
-125.792
0
LINE
8
BLACK
6
CONTINUOUS
10
75.3131
20
-127.697
11
75.1226
21
-127.792
0
LINE
8
BLACK
6
CONTINUOUS
10
75.1226
20
-127.792
11
74.7417
21
-127.792
0
LINE
8
BLACK
6
CONTINUOUS
10
74.7417
20
-127.792
11
74.5512
21
-127.697
0
LINE
8
BLACK
6
CONTINUOUS
10
74.5512
20
-127.697
11
74.456
21
-127.506
0
LINE
8
BLACK
6
CONTINUOUS
10
74.456
20
-127.506
11
74.456
21
-126.744
0
LINE
8
BLACK
6
CONTINUOUS
10
74.456
20
-126.744
11
74.5512
21
-126.554
0
LINE
8
BLACK
6
CONTINUOUS
10
74.5512
20
-126.554
11
74.7417
21
-126.458
0
LINE
8
BLACK
6
CONTINUOUS
10
74.7417
20
-126.458
11
75.1226
21
-126.458
0
LINE
8
BLACK
6
CONTINUOUS
10
75.1226
20
-126.458
11
75.3131
21
-126.554
0
LINE
8
BLACK
6
CONTINUOUS
10
75.3131
20
-126.554
11
75.4083
21
-126.744
0
LINE
8
BLACK
6
CONTINUOUS
10
75.4083
20
-126.744
11
75.4083
21
-126.935
0
LINE
8
BLACK
6
CONTINUOUS
10
75.4083
20
-126.935
11
74.456
21
-127.125
0
LINE
8
BLACK
6
CONTINUOUS
10
76.1702
20
-127.697
11
76.3607
21
-127.792
0
LINE
8
BLACK
6
CONTINUOUS
10
76.3607
20
-127.792
11
76.7417
21
-127.792
0
LINE
8
BLACK
6
CONTINUOUS
10
76.7417
20
-127.792
11
76.9321
21
-127.697
0
LINE
8
BLACK
6
CONTINUOUS
10
76.9321
20
-127.697
11
77.0274
21
-127.506
0
LINE
8
BLACK
6
CONTINUOUS
10
77.0274
20
-127.506
11
77.0274
21
-127.411
0
LINE
8
BLACK
6
CONTINUOUS
10
77.0274
20
-127.411
11
76.9321
21
-127.22
0
LINE
8
BLACK
6
CONTINUOUS
10
76.9321
20
-127.22
11
76.7417
21
-127.125
0
LINE
8
BLACK
6
CONTINUOUS
10
76.7417
20
-127.125
11
76.456
21
-127.125
0
LINE
8
BLACK
6
CONTINUOUS
10
76.456
20
-127.125
11
76.2655
21
-127.03
0
LINE
8
BLACK
6
CONTINUOUS
10
76.2655
20
-127.03
11
76.1702
21
-126.839
0
LINE
8
BLACK
6
CONTINUOUS
10
76.1702
20
-126.839
11
76.1702
21
-126.744
0
LINE
8
BLACK
6
CONTINUOUS
10
76.1702
20
-126.744
11
76.2655
21
-126.554
0
LINE
8
BLACK
6
CONTINUOUS
10
76.2655
20
-126.554
11
76.456
21
-126.458
0
LINE
8
BLACK
6
CONTINUOUS
10
76.456
20
-126.458
11
76.7417
21
-126.458
0
LINE
8
BLACK
6
CONTINUOUS
10
76.7417
20
-126.458
11
76.9321
21
-126.554
0
LINE
8
BLACK
6
CONTINUOUS
10
77.694
20
-128.554
11
77.7893
21
-128.458
0
LINE
8
BLACK
6
CONTINUOUS
10
77.7893
20
-128.458
11
77.9798
21
-128.173
0
LINE
8
BLACK
6
CONTINUOUS
10
77.9798
20
-128.173
11
78.075
21
-127.982
0
LINE
8
BLACK
6
CONTINUOUS
10
78.075
20
-127.982
11
78.1702
21
-127.697
0
LINE
8
BLACK
6
CONTINUOUS
10
78.1702
20
-127.697
11
78.2655
21
-127.22
0
LINE
8
BLACK
6
CONTINUOUS
10
78.2655
20
-127.22
11
78.2655
21
-126.839
0
LINE
8
BLACK
6
CONTINUOUS
10
78.2655
20
-126.839
11
78.1702
21
-126.363
0
LINE
8
BLACK
6
CONTINUOUS
10
78.1702
20
-126.363
11
78.075
21
-126.077
0
LINE
8
BLACK
6
CONTINUOUS
10
78.075
20
-126.077
11
77.9798
21
-125.887
0
LINE
8
BLACK
6
CONTINUOUS
10
77.9798
20
-125.887
11
77.7893
21
-125.601
0
LINE
8
BLACK
6
CONTINUOUS
10
77.7893
20
-125.601
11
77.694
21
-125.506
0
LINE
8
BLACK
6
CONTINUOUS
10
29.625
20
-129.877
11
29.975
21
-129.527
0
LINE
8
BLACK
6
CONTINUOUS
10
29.975
20
-129.527
11
29.625
21
-129.177
0
LINE
8
BLACK
6
CONTINUOUS
10
29.625
20
-129.177
11
29.275
21
-129.527
0
LINE
8
BLACK
6
CONTINUOUS
10
29.275
20
-129.527
11
29.625
21
-129.877
0
LINE
8
BLACK
6
CONTINUOUS
10
32.9321
20
-128.432
11
33.1226
21
-128.432
0
LINE
8
BLACK
6
CONTINUOUS
10
33.1226
20
-128.432
11
33.3131
21
-128.527
0
LINE
8
BLACK
6
CONTINUOUS
10
33.3131
20
-128.527
11
33.4083
21
-128.622
0
LINE
8
BLACK
6
CONTINUOUS
10
33.4083
20
-128.622
11
33.5036
21
-128.813
0
LINE
8
BLACK
6
CONTINUOUS
10
33.5036
20
-128.813
11
33.5988
21
-129.194
0
LINE
8
BLACK
6
CONTINUOUS
10
33.5988
20
-129.194
11
33.5988
21
-129.67
0
LINE
8
BLACK
6
CONTINUOUS
10
33.5988
20
-129.67
11
33.5036
21
-130.051
0
LINE
8
BLACK
6
CONTINUOUS
10
33.5036
20
-130.051
11
33.4083
21
-130.241
0
LINE
8
BLACK
6
CONTINUOUS
10
33.4083
20
-130.241
11
33.3131
21
-130.337
0
LINE
8
BLACK
6
CONTINUOUS
10
33.3131
20
-130.337
11
33.1226
21
-130.432
0
LINE
8
BLACK
6
CONTINUOUS
10
33.1226
20
-130.432
11
32.9321
21
-130.432
0
LINE
8
BLACK
6
CONTINUOUS
10
32.9321
20
-130.432
11
32.7417
21
-130.337
0
LINE
8
BLACK
6
CONTINUOUS
10
32.7417
20
-130.337
11
32.6464
21
-130.241
0
LINE
8
BLACK
6
CONTINUOUS
10
32.6464
20
-130.241
11
32.5512
21
-130.051
0
LINE
8
BLACK
6
CONTINUOUS
10
32.5512
20
-130.051
11
32.456
21
-129.67
0
LINE
8
BLACK
6
CONTINUOUS
10
32.456
20
-129.67
11
32.456
21
-129.194
0
LINE
8
BLACK
6
CONTINUOUS
10
32.456
20
-129.194
11
32.5512
21
-128.813
0
LINE
8
BLACK
6
CONTINUOUS
10
32.5512
20
-128.813
11
32.6464
21
-128.622
0
LINE
8
BLACK
6
CONTINUOUS
10
32.6464
20
-128.622
11
32.7417
21
-128.527
0
LINE
8
BLACK
6
CONTINUOUS
10
32.7417
20
-128.527
11
32.9321
21
-128.432
0
LINE
8
BLACK
6
CONTINUOUS
10
34.456
20
-130.241
11
34.5512
21
-130.337
0
LINE
8
BLACK
6
CONTINUOUS
10
34.5512
20
-130.337
11
34.456
21
-130.432
0
LINE
8
BLACK
6
CONTINUOUS
10
34.456
20
-130.432
11
34.3607
21
-130.337
0
LINE
8
BLACK
6
CONTINUOUS
10
34.3607
20
-130.337
11
34.456
21
-130.241
0
LINE
8
BLACK
6
CONTINUOUS
10
34.456
20
-130.241
11
34.456
21
-130.432
0
LINE
8
BLACK
6
CONTINUOUS
10
35.2179
20
-128.432
11
36.5512
21
-128.432
0
LINE
8
BLACK
6
CONTINUOUS
10
36.5512
20
-128.432
11
35.694
21
-130.432
0
LINE
8
BLACK
6
CONTINUOUS
10
37.694
20
-128.432
11
37.8845
21
-128.432
0
LINE
8
BLACK
6
CONTINUOUS
10
37.8845
20
-128.432
11
38.075
21
-128.527
0
LINE
8
BLACK
6
CONTINUOUS
10
38.075
20
-128.527
11
38.1702
21
-128.622
0
LINE
8
BLACK
6
CONTINUOUS
10
38.1702
20
-128.622
11
38.2655
21
-128.813
0
LINE
8
BLACK
6
CONTINUOUS
10
38.2655
20
-128.813
11
38.3607
21
-129.194
0
LINE
8
BLACK
6
CONTINUOUS
10
38.3607
20
-129.194
11
38.3607
21
-129.67
0
LINE
8
BLACK
6
CONTINUOUS
10
38.3607
20
-129.67
11
38.2655
21
-130.051
0
LINE
8
BLACK
6
CONTINUOUS
10
38.2655
20
-130.051
11
38.1702
21
-130.241
0
LINE
8
BLACK
6
CONTINUOUS
10
38.1702
20
-130.241
11
38.075
21
-130.337
0
LINE
8
BLACK
6
CONTINUOUS
10
38.075
20
-130.337
11
37.8845
21
-130.432
0
LINE
8
BLACK
6
CONTINUOUS
10
37.8845
20
-130.432
11
37.694
21
-130.432
0
LINE
8
BLACK
6
CONTINUOUS
10
37.694
20
-130.432
11
37.5036
21
-130.337
0
LINE
8
BLACK
6
CONTINUOUS
10
37.5036
20
-130.337
11
37.4083
21
-130.241
0
LINE
8
BLACK
6
CONTINUOUS
10
37.4083
20
-130.241
11
37.3131
21
-130.051
0
LINE
8
BLACK
6
CONTINUOUS
10
37.3131
20
-130.051
11
37.2179
21
-129.67
0
LINE
8
BLACK
6
CONTINUOUS
10
37.2179
20
-129.67
11
37.2179
21
-129.194
0
LINE
8
BLACK
6
CONTINUOUS
10
37.2179
20
-129.194
11
37.3131
21
-128.813
0
LINE
8
BLACK
6
CONTINUOUS
10
37.3131
20
-128.813
11
37.4083
21
-128.622
0
LINE
8
BLACK
6
CONTINUOUS
10
37.4083
20
-128.622
11
37.5036
21
-128.527
0
LINE
8
BLACK
6
CONTINUOUS
10
37.5036
20
-128.527
11
37.694
21
-128.432
0
LINE
8
BLACK
6
CONTINUOUS
10
39.5988
20
-128.432
11
39.7893
21
-128.432
0
LINE
8
BLACK
6
CONTINUOUS
10
39.7893
20
-128.432
11
39.9798
21
-128.527
0
LINE
8
BLACK
6
CONTINUOUS
10
39.9798
20
-128.527
11
40.075
21
-128.622
0
LINE
8
BLACK
6
CONTINUOUS
10
40.075
20
-128.622
11
40.1702
21
-128.813
0
LINE
8
BLACK
6
CONTINUOUS
10
40.1702
20
-128.813
11
40.2655
21
-129.194
0
LINE
8
BLACK
6
CONTINUOUS
10
40.2655
20
-129.194
11
40.2655
21
-129.67
0
LINE
8
BLACK
6
CONTINUOUS
10
40.2655
20
-129.67
11
40.1702
21
-130.051
0
LINE
8
BLACK
6
CONTINUOUS
10
40.1702
20
-130.051
11
40.075
21
-130.241
0
LINE
8
BLACK
6
CONTINUOUS
10
40.075
20
-130.241
11
39.9798
21
-130.337
0
LINE
8
BLACK
6
CONTINUOUS
10
39.9798
20
-130.337
11
39.7893
21
-130.432
0
LINE
8
BLACK
6
CONTINUOUS
10
39.7893
20
-130.432
11
39.5988
21
-130.432
0
LINE
8
BLACK
6
CONTINUOUS
10
39.5988
20
-130.432
11
39.4083
21
-130.337
0
LINE
8
BLACK
6
CONTINUOUS
10
39.4083
20
-130.337
11
39.3131
21
-130.241
0
LINE
8
BLACK
6
CONTINUOUS
10
39.3131
20
-130.241
11
39.2179
21
-130.051
0
LINE
8
BLACK
6
CONTINUOUS
10
39.2179
20
-130.051
11
39.1226
21
-129.67
0
LINE
8
BLACK
6
CONTINUOUS
10
39.1226
20
-129.67
11
39.1226
21
-129.194
0
LINE
8
BLACK
6
CONTINUOUS
10
39.1226
20
-129.194
11
39.2179
21
-128.813
0
LINE
8
BLACK
6
CONTINUOUS
10
39.2179
20
-128.813
11
39.3131
21
-128.622
0
LINE
8
BLACK
6
CONTINUOUS
10
39.3131
20
-128.622
11
39.4083
21
-128.527
0
LINE
8
BLACK
6
CONTINUOUS
10
39.4083
20
-128.527
11
39.5988
21
-128.432
0
LINE
8
BLACK
6
CONTINUOUS
10
41.1226
20
-130.432
11
41.1226
21
-129.098
0
LINE
8
BLACK
6
CONTINUOUS
10
41.1226
20
-129.289
11
41.2179
21
-129.194
0
LINE
8
BLACK
6
CONTINUOUS
10
41.2179
20
-129.194
11
41.4083
21
-129.098
0
LINE
8
BLACK
6
CONTINUOUS
10
41.4083
20
-129.098
11
41.694
21
-129.098
0
LINE
8
BLACK
6
CONTINUOUS
10
41.694
20
-129.098
11
41.8845
21
-129.194
0
LINE
8
BLACK
6
CONTINUOUS
10
41.8845
20
-129.194
11
41.9798
21
-129.384
0
LINE
8
BLACK
6
CONTINUOUS
10
41.9798
20
-129.384
11
41.9798
21
-130.432
0
LINE
8
BLACK
6
CONTINUOUS
10
41.9798
20
-129.384
11
42.075
21
-129.194
0
LINE
8
BLACK
6
CONTINUOUS
10
42.075
20
-129.194
11
42.2655
21
-129.098
0
LINE
8
BLACK
6
CONTINUOUS
10
42.2655
20
-129.098
11
42.5512
21
-129.098
0
LINE
8
BLACK
6
CONTINUOUS
10
42.5512
20
-129.098
11
42.7417
21
-129.194
0
LINE
8
BLACK
6
CONTINUOUS
10
42.7417
20
-129.194
11
42.8369
21
-129.384
0
LINE
8
BLACK
6
CONTINUOUS
10
42.8369
20
-129.384
11
42.8369
21
-130.432
0
LINE
8
BLACK
6
CONTINUOUS
10
43.7893
20
-130.432
11
43.7893
21
-129.098
0
LINE
8
BLACK
6
CONTINUOUS
10
43.7893
20
-129.289
11
43.8845
21
-129.194
0
LINE
8
BLACK
6
CONTINUOUS
10
43.8845
20
-129.194
11
44.075
21
-129.098
0
LINE
8
BLACK
6
CONTINUOUS
10
44.075
20
-129.098
11
44.3607
21
-129.098
0
LINE
8
BLACK
6
CONTINUOUS
10
44.3607
20
-129.098
11
44.5512
21
-129.194
0
LINE
8
BLACK
6
CONTINUOUS
10
44.5512
20
-129.194
11
44.6464
21
-129.384
0
LINE
8
BLACK
6
CONTINUOUS
10
44.6464
20
-129.384
11
44.6464
21
-130.432
0
LINE
8
BLACK
6
CONTINUOUS
10
44.6464
20
-129.384
11
44.7417
21
-129.194
0
LINE
8
BLACK
6
CONTINUOUS
10
44.7417
20
-129.194
11
44.9321
21
-129.098
0
LINE
8
BLACK
6
CONTINUOUS
10
44.9321
20
-129.098
11
45.2179
21
-129.098
0
LINE
8
BLACK
6
CONTINUOUS
10
45.2179
20
-129.098
11
45.4083
21
-129.194
0
LINE
8
BLACK
6
CONTINUOUS
10
45.4083
20
-129.194
11
45.5036
21
-129.384
0
LINE
8
BLACK
6
CONTINUOUS
10
45.5036
20
-129.384
11
45.5036
21
-130.432
0
LINE
8
BLACK
6
CONTINUOUS
10
49.4083
20
-128.337
11
47.694
21
-130.908
0
LINE
8
BLACK
6
CONTINUOUS
10
51.9798
20
-128.432
11
52.1702
21
-128.432
0
LINE
8
BLACK
6
CONTINUOUS
10
52.1702
20
-128.432
11
52.3607
21
-128.527
0
LINE
8
BLACK
6
CONTINUOUS
10
52.3607
20
-128.527
11
52.456
21
-128.622
0
LINE
8
BLACK
6
CONTINUOUS
10
52.456
20
-128.622
11
52.5512
21
-128.813
0
LINE
8
BLACK
6
CONTINUOUS
10
52.5512
20
-128.813
11
52.6464
21
-129.194
0
LINE
8
BLACK
6
CONTINUOUS
10
52.6464
20
-129.194
11
52.6464
21
-129.67
0
LINE
8
BLACK
6
CONTINUOUS
10
52.6464
20
-129.67
11
52.5512
21
-130.051
0
LINE
8
BLACK
6
CONTINUOUS
10
52.5512
20
-130.051
11
52.456
21
-130.241
0
LINE
8
BLACK
6
CONTINUOUS
10
52.456
20
-130.241
11
52.3607
21
-130.337
0
LINE
8
BLACK
6
CONTINUOUS
10
52.3607
20
-130.337
11
52.1702
21
-130.432
0
LINE
8
BLACK
6
CONTINUOUS
10
52.1702
20
-130.432
11
51.9798
21
-130.432
0
LINE
8
BLACK
6
CONTINUOUS
10
51.9798
20
-130.432
11
51.7893
21
-130.337
0
LINE
8
BLACK
6
CONTINUOUS
10
51.7893
20
-130.337
11
51.694
21
-130.241
0
LINE
8
BLACK
6
CONTINUOUS
10
51.694
20
-130.241
11
51.5988
21
-130.051
0
LINE
8
BLACK
6
CONTINUOUS
10
51.5988
20
-130.051
11
51.5036
21
-129.67
0
LINE
8
BLACK
6
CONTINUOUS
10
51.5036
20
-129.67
11
51.5036
21
-129.194
0
LINE
8
BLACK
6
CONTINUOUS
10
51.5036
20
-129.194
11
51.5988
21
-128.813
0
LINE
8
BLACK
6
CONTINUOUS
10
51.5988
20
-128.813
11
51.694
21
-128.622
0
LINE
8
BLACK
6
CONTINUOUS
10
51.694
20
-128.622
11
51.7893
21
-128.527
0
LINE
8
BLACK
6
CONTINUOUS
10
51.7893
20
-128.527
11
51.9798
21
-128.432
0
LINE
8
BLACK
6
CONTINUOUS
10
53.5036
20
-130.241
11
53.5988
21
-130.337
0
LINE
8
BLACK
6
CONTINUOUS
10
53.5988
20
-130.337
11
53.5036
21
-130.432
0
LINE
8
BLACK
6
CONTINUOUS
10
53.5036
20
-130.432
11
53.4083
21
-130.337
0
LINE
8
BLACK
6
CONTINUOUS
10
53.4083
20
-130.337
11
53.5036
21
-130.241
0
LINE
8
BLACK
6
CONTINUOUS
10
53.5036
20
-130.241
11
53.5036
21
-130.432
0
LINE
8
BLACK
6
CONTINUOUS
10
54.8369
20
-128.432
11
55.0274
21
-128.432
0
LINE
8
BLACK
6
CONTINUOUS
10
55.0274
20
-128.432
11
55.2179
21
-128.527
0
LINE
8
BLACK
6
CONTINUOUS
10
55.2179
20
-128.527
11
55.3131
21
-128.622
0
LINE
8
BLACK
6
CONTINUOUS
10
55.3131
20
-128.622
11
55.4083
21
-128.813
0
LINE
8
BLACK
6
CONTINUOUS
10
55.4083
20
-128.813
11
55.5036
21
-129.194
0
LINE
8
BLACK
6
CONTINUOUS
10
55.5036
20
-129.194
11
55.5036
21
-129.67
0
LINE
8
BLACK
6
CONTINUOUS
10
55.5036
20
-129.67
11
55.4083
21
-130.051
0
LINE
8
BLACK
6
CONTINUOUS
10
55.4083
20
-130.051
11
55.3131
21
-130.241
0
LINE
8
BLACK
6
CONTINUOUS
10
55.3131
20
-130.241
11
55.2179
21
-130.337
0
LINE
8
BLACK
6
CONTINUOUS
10
55.2179
20
-130.337
11
55.0274
21
-130.432
0
LINE
8
BLACK
6
CONTINUOUS
10
55.0274
20
-130.432
11
54.8369
21
-130.432
0
LINE
8
BLACK
6
CONTINUOUS
10
54.8369
20
-130.432
11
54.6464
21
-130.337
0
LINE
8
BLACK
6
CONTINUOUS
10
54.6464
20
-130.337
11
54.5512
21
-130.241
0
LINE
8
BLACK
6
CONTINUOUS
10
54.5512
20
-130.241
11
54.456
21
-130.051
0
LINE
8
BLACK
6
CONTINUOUS
10
54.456
20
-130.051
11
54.3607
21
-129.67
0
LINE
8
BLACK
6
CONTINUOUS
10
54.3607
20
-129.67
11
54.3607
21
-129.194
0
LINE
8
BLACK
6
CONTINUOUS
10
54.3607
20
-129.194
11
54.456
21
-128.813
0
LINE
8
BLACK
6
CONTINUOUS
10
54.456
20
-128.813
11
54.5512
21
-128.622
0
LINE
8
BLACK
6
CONTINUOUS
10
54.5512
20
-128.622
11
54.6464
21
-128.527
0
LINE
8
BLACK
6
CONTINUOUS
10
54.6464
20
-128.527
11
54.8369
21
-128.432
0
LINE
8
BLACK
6
CONTINUOUS
10
56.2655
20
-128.622
11
56.3607
21
-128.527
0
LINE
8
BLACK
6
CONTINUOUS
10
56.3607
20
-128.527
11
56.5512
21
-128.432
0
LINE
8
BLACK
6
CONTINUOUS
10
56.5512
20
-128.432
11
57.0274
21
-128.432
0
LINE
8
BLACK
6
CONTINUOUS
10
57.0274
20
-128.432
11
57.2179
21
-128.527
0
LINE
8
BLACK
6
CONTINUOUS
10
57.2179
20
-128.527
11
57.3131
21
-128.622
0
LINE
8
BLACK
6
CONTINUOUS
10
57.3131
20
-128.622
11
57.4083
21
-128.813
0
LINE
8
BLACK
6
CONTINUOUS
10
57.4083
20
-128.813
11
57.4083
21
-129.003
0
LINE
8
BLACK
6
CONTINUOUS
10
57.4083
20
-129.003
11
57.3131
21
-129.289
0
LINE
8
BLACK
6
CONTINUOUS
10
57.3131
20
-129.289
11
56.1702
21
-130.432
0
LINE
8
BLACK
6
CONTINUOUS
10
56.1702
20
-130.432
11
57.4083
21
-130.432
0
LINE
8
BLACK
6
CONTINUOUS
10
58.075
20
-128.432
11
59.4083
21
-128.432
0
LINE
8
BLACK
6
CONTINUOUS
10
59.4083
20
-128.432
11
58.5512
21
-130.432
0
LINE
8
BLACK
6
CONTINUOUS
10
61.0274
20
-128.432
11
60.6464
21
-128.432
0
LINE
8
BLACK
6
CONTINUOUS
10
60.6464
20
-128.432
11
60.456
21
-128.527
0
LINE
8
BLACK
6
CONTINUOUS
10
60.456
20
-128.527
11
60.3607
21
-128.622
0
LINE
8
BLACK
6
CONTINUOUS
10
60.3607
20
-128.622
11
60.1702
21
-128.908
0
LINE
8
BLACK
6
CONTINUOUS
10
60.1702
20
-128.908
11
60.075
21
-129.289
0
LINE
8
BLACK
6
CONTINUOUS
10
60.075
20
-129.289
11
60.075
21
-130.051
0
LINE
8
BLACK
6
CONTINUOUS
10
60.075
20
-130.051
11
60.1702
21
-130.241
0
LINE
8
BLACK
6
CONTINUOUS
10
60.1702
20
-130.241
11
60.2655
21
-130.337
0
LINE
8
BLACK
6
CONTINUOUS
10
60.2655
20
-130.337
11
60.456
21
-130.432
0
LINE
8
BLACK
6
CONTINUOUS
10
60.456
20
-130.432
11
60.8369
21
-130.432
0
LINE
8
BLACK
6
CONTINUOUS
10
60.8369
20
-130.432
11
61.0274
21
-130.337
0
LINE
8
BLACK
6
CONTINUOUS
10
61.0274
20
-130.337
11
61.1226
21
-130.241
0
LINE
8
BLACK
6
CONTINUOUS
10
61.1226
20
-130.241
11
61.2179
21
-130.051
0
LINE
8
BLACK
6
CONTINUOUS
10
61.2179
20
-130.051
11
61.2179
21
-129.575
0
LINE
8
BLACK
6
CONTINUOUS
10
61.2179
20
-129.575
11
61.1226
21
-129.384
0
LINE
8
BLACK
6
CONTINUOUS
10
61.1226
20
-129.384
11
61.0274
21
-129.289
0
LINE
8
BLACK
6
CONTINUOUS
10
61.0274
20
-129.289
11
60.8369
21
-129.194
0
LINE
8
BLACK
6
CONTINUOUS
10
60.8369
20
-129.194
11
60.456
21
-129.194
0
LINE
8
BLACK
6
CONTINUOUS
10
60.456
20
-129.194
11
60.2655
21
-129.289
0
LINE
8
BLACK
6
CONTINUOUS
10
60.2655
20
-129.289
11
60.1702
21
-129.384
0
LINE
8
BLACK
6
CONTINUOUS
10
60.1702
20
-129.384
11
60.075
21
-129.575
0
LINE
8
BLACK
6
CONTINUOUS
10
61.9798
20
-128.432
11
61.9798
21
-128.813
0
LINE
8
BLACK
6
CONTINUOUS
10
62.7417
20
-128.432
11
62.7417
21
-128.813
0
LINE
8
BLACK
6
CONTINUOUS
10
65.694
20
-131.194
11
65.5988
21
-131.098
0
LINE
8
BLACK
6
CONTINUOUS
10
65.5988
20
-131.098
11
65.4083
21
-130.813
0
LINE
8
BLACK
6
CONTINUOUS
10
65.4083
20
-130.813
11
65.3131
21
-130.622
0
LINE
8
BLACK
6
CONTINUOUS
10
65.3131
20
-130.622
11
65.2179
21
-130.337
0
LINE
8
BLACK
6
CONTINUOUS
10
65.2179
20
-130.337
11
65.1226
21
-129.86
0
LINE
8
BLACK
6
CONTINUOUS
10
65.1226
20
-129.86
11
65.1226
21
-129.479
0
LINE
8
BLACK
6
CONTINUOUS
10
65.1226
20
-129.479
11
65.2179
21
-129.003
0
LINE
8
BLACK
6
CONTINUOUS
10
65.2179
20
-129.003
11
65.3131
21
-128.717
0
LINE
8
BLACK
6
CONTINUOUS
10
65.3131
20
-128.717
11
65.4083
21
-128.527
0
LINE
8
BLACK
6
CONTINUOUS
10
65.4083
20
-128.527
11
65.5988
21
-128.241
0
LINE
8
BLACK
6
CONTINUOUS
10
65.5988
20
-128.241
11
65.694
21
-128.146
0
LINE
8
BLACK
6
CONTINUOUS
10
66.3607
20
-128.622
11
66.456
21
-128.527
0
LINE
8
BLACK
6
CONTINUOUS
10
66.456
20
-128.527
11
66.6464
21
-128.432
0
LINE
8
BLACK
6
CONTINUOUS
10
66.6464
20
-128.432
11
67.1226
21
-128.432
0
LINE
8
BLACK
6
CONTINUOUS
10
67.1226
20
-128.432
11
67.3131
21
-128.527
0
LINE
8
BLACK
6
CONTINUOUS
10
67.3131
20
-128.527
11
67.4083
21
-128.622
0
LINE
8
BLACK
6
CONTINUOUS
10
67.4083
20
-128.622
11
67.5036
21
-128.813
0
LINE
8
BLACK
6
CONTINUOUS
10
67.5036
20
-128.813
11
67.5036
21
-129.003
0
LINE
8
BLACK
6
CONTINUOUS
10
67.5036
20
-129.003
11
67.4083
21
-129.289
0
LINE
8
BLACK
6
CONTINUOUS
10
67.4083
20
-129.289
11
66.2655
21
-130.432
0
LINE
8
BLACK
6
CONTINUOUS
10
66.2655
20
-130.432
11
67.5036
21
-130.432
0
LINE
8
BLACK
6
CONTINUOUS
10
69.8845
20
-130.432
11
69.8845
21
-128.432
0
LINE
8
BLACK
6
CONTINUOUS
10
70.7417
20
-130.432
11
70.7417
21
-129.384
0
LINE
8
BLACK
6
CONTINUOUS
10
70.7417
20
-129.384
11
70.6464
21
-129.194
0
LINE
8
BLACK
6
CONTINUOUS
10
70.6464
20
-129.194
11
70.456
21
-129.098
0
LINE
8
BLACK
6
CONTINUOUS
10
70.456
20
-129.098
11
70.1702
21
-129.098
0
LINE
8
BLACK
6
CONTINUOUS
10
70.1702
20
-129.098
11
69.9798
21
-129.194
0
LINE
8
BLACK
6
CONTINUOUS
10
69.9798
20
-129.194
11
69.8845
21
-129.289
0
LINE
8
BLACK
6
CONTINUOUS
10
71.9798
20
-130.432
11
71.7893
21
-130.337
0
LINE
8
BLACK
6
CONTINUOUS
10
71.7893
20
-130.337
11
71.694
21
-130.241
0
LINE
8
BLACK
6
CONTINUOUS
10
71.694
20
-130.241
11
71.5988
21
-130.051
0
LINE
8
BLACK
6
CONTINUOUS
10
71.5988
20
-130.051
11
71.5988
21
-129.479
0
LINE
8
BLACK
6
CONTINUOUS
10
71.5988
20
-129.479
11
71.694
21
-129.289
0
LINE
8
BLACK
6
CONTINUOUS
10
71.694
20
-129.289
11
71.7893
21
-129.194
0
LINE
8
BLACK
6
CONTINUOUS
10
71.7893
20
-129.194
11
71.9798
21
-129.098
0
LINE
8
BLACK
6
CONTINUOUS
10
71.9798
20
-129.098
11
72.2655
21
-129.098
0
LINE
8
BLACK
6
CONTINUOUS
10
72.2655
20
-129.098
11
72.456
21
-129.194
0
LINE
8
BLACK
6
CONTINUOUS
10
72.456
20
-129.194
11
72.5512
21
-129.289
0
LINE
8
BLACK
6
CONTINUOUS
10
72.5512
20
-129.289
11
72.6464
21
-129.479
0
LINE
8
BLACK
6
CONTINUOUS
10
72.6464
20
-129.479
11
72.6464
21
-130.051
0
LINE
8
BLACK
6
CONTINUOUS
10
72.6464
20
-130.051
11
72.5512
21
-130.241
0
LINE
8
BLACK
6
CONTINUOUS
10
72.5512
20
-130.241
11
72.456
21
-130.337
0
LINE
8
BLACK
6
CONTINUOUS
10
72.456
20
-130.337
11
72.2655
21
-130.432
0
LINE
8
BLACK
6
CONTINUOUS
10
72.2655
20
-130.432
11
71.9798
21
-130.432
0
LINE
8
BLACK
6
CONTINUOUS
10
73.7893
20
-130.432
11
73.5988
21
-130.337
0
LINE
8
BLACK
6
CONTINUOUS
10
73.5988
20
-130.337
11
73.5036
21
-130.146
0
LINE
8
BLACK
6
CONTINUOUS
10
73.5036
20
-130.146
11
73.5036
21
-128.432
0
LINE
8
BLACK
6
CONTINUOUS
10
75.3131
20
-130.337
11
75.1226
21
-130.432
0
LINE
8
BLACK
6
CONTINUOUS
10
75.1226
20
-130.432
11
74.7417
21
-130.432
0
LINE
8
BLACK
6
CONTINUOUS
10
74.7417
20
-130.432
11
74.5512
21
-130.337
0
LINE
8
BLACK
6
CONTINUOUS
10
74.5512
20
-130.337
11
74.456
21
-130.146
0
LINE
8
BLACK
6
CONTINUOUS
10
74.456
20
-130.146
11
74.456
21
-129.384
0
LINE
8
BLACK
6
CONTINUOUS
10
74.456
20
-129.384
11
74.5512
21
-129.194
0
LINE
8
BLACK
6
CONTINUOUS
10
74.5512
20
-129.194
11
74.7417
21
-129.098
0
LINE
8
BLACK
6
CONTINUOUS
10
74.7417
20
-129.098
11
75.1226
21
-129.098
0
LINE
8
BLACK
6
CONTINUOUS
10
75.1226
20
-129.098
11
75.3131
21
-129.194
0
LINE
8
BLACK
6
CONTINUOUS
10
75.3131
20
-129.194
11
75.4083
21
-129.384
0
LINE
8
BLACK
6
CONTINUOUS
10
75.4083
20
-129.384
11
75.4083
21
-129.575
0
LINE
8
BLACK
6
CONTINUOUS
10
75.4083
20
-129.575
11
74.456
21
-129.765
0
LINE
8
BLACK
6
CONTINUOUS
10
76.1702
20
-130.337
11
76.3607
21
-130.432
0
LINE
8
BLACK
6
CONTINUOUS
10
76.3607
20
-130.432
11
76.7417
21
-130.432
0
LINE
8
BLACK
6
CONTINUOUS
10
76.7417
20
-130.432
11
76.9321
21
-130.337
0
LINE
8
BLACK
6
CONTINUOUS
10
76.9321
20
-130.337
11
77.0274
21
-130.146
0
LINE
8
BLACK
6
CONTINUOUS
10
77.0274
20
-130.146
11
77.0274
21
-130.051
0
LINE
8
BLACK
6
CONTINUOUS
10
77.0274
20
-130.051
11
76.9321
21
-129.86
0
LINE
8
BLACK
6
CONTINUOUS
10
76.9321
20
-129.86
11
76.7417
21
-129.765
0
LINE
8
BLACK
6
CONTINUOUS
10
76.7417
20
-129.765
11
76.456
21
-129.765
0
LINE
8
BLACK
6
CONTINUOUS
10
76.456
20
-129.765
11
76.2655
21
-129.67
0
LINE
8
BLACK
6
CONTINUOUS
10
76.2655
20
-129.67
11
76.1702
21
-129.479
0
LINE
8
BLACK
6
CONTINUOUS
10
76.1702
20
-129.479
11
76.1702
21
-129.384
0
LINE
8
BLACK
6
CONTINUOUS
10
76.1702
20
-129.384
11
76.2655
21
-129.194
0
LINE
8
BLACK
6
CONTINUOUS
10
76.2655
20
-129.194
11
76.456
21
-129.098
0
LINE
8
BLACK
6
CONTINUOUS
10
76.456
20
-129.098
11
76.7417
21
-129.098
0
LINE
8
BLACK
6
CONTINUOUS
10
76.7417
20
-129.098
11
76.9321
21
-129.194
0
LINE
8
BLACK
6
CONTINUOUS
10
77.694
20
-131.194
11
77.7893
21
-131.098
0
LINE
8
BLACK
6
CONTINUOUS
10
77.7893
20
-131.098
11
77.9798
21
-130.813
0
LINE
8
BLACK
6
CONTINUOUS
10
77.9798
20
-130.813
11
78.075
21
-130.622
0
LINE
8
BLACK
6
CONTINUOUS
10
78.075
20
-130.622
11
78.1702
21
-130.337
0
LINE
8
BLACK
6
CONTINUOUS
10
78.1702
20
-130.337
11
78.2655
21
-129.86
0
LINE
8
BLACK
6
CONTINUOUS
10
78.2655
20
-129.86
11
78.2655
21
-129.479
0
LINE
8
BLACK
6
CONTINUOUS
10
78.2655
20
-129.479
11
78.1702
21
-129.003
0
LINE
8
BLACK
6
CONTINUOUS
10
78.1702
20
-129.003
11
78.075
21
-128.717
0
LINE
8
BLACK
6
CONTINUOUS
10
78.075
20
-128.717
11
77.9798
21
-128.527
0
LINE
8
BLACK
6
CONTINUOUS
10
77.9798
20
-128.527
11
77.7893
21
-128.241
0
LINE
8
BLACK
6
CONTINUOUS
10
77.7893
20
-128.241
11
77.694
21
-128.146
0
LINE
8
BLACK
6
CONTINUOUS
10
28.975
20
-131.667
11
29.975
21
-132.667
0
LINE
8
BLACK
6
CONTINUOUS
10
29.975
20
-131.667
11
28.975
21
-132.667
0
CIRCLE
8
BLACK
10
29.475
20
-132.167
40
0.5
0
LINE
8
BLACK
6
CONTINUOUS
10
33.5988
20
-133.072
11
32.456
21
-133.072
0
LINE
8
BLACK
6
CONTINUOUS
10
33.0274
20
-133.072
11
33.0274
21
-131.072
0
LINE
8
BLACK
6
CONTINUOUS
10
33.0274
20
-131.072
11
32.8369
21
-131.357
0
LINE
8
BLACK
6
CONTINUOUS
10
32.8369
20
-131.357
11
32.6464
21
-131.548
0
LINE
8
BLACK
6
CONTINUOUS
10
32.6464
20
-131.548
11
32.456
21
-131.643
0
LINE
8
BLACK
6
CONTINUOUS
10
34.456
20
-132.881
11
34.5512
21
-132.977
0
LINE
8
BLACK
6
CONTINUOUS
10
34.5512
20
-132.977
11
34.456
21
-133.072
0
LINE
8
BLACK
6
CONTINUOUS
10
34.456
20
-133.072
11
34.3607
21
-132.977
0
LINE
8
BLACK
6
CONTINUOUS
10
34.3607
20
-132.977
11
34.456
21
-132.881
0
LINE
8
BLACK
6
CONTINUOUS
10
34.456
20
-132.881
11
34.456
21
-133.072
0
LINE
8
BLACK
6
CONTINUOUS
10
35.7893
20
-131.072
11
35.9798
21
-131.072
0
LINE
8
BLACK
6
CONTINUOUS
10
35.9798
20
-131.072
11
36.1702
21
-131.167
0
LINE
8
BLACK
6
CONTINUOUS
10
36.1702
20
-131.167
11
36.2655
21
-131.262
0
LINE
8
BLACK
6
CONTINUOUS
10
36.2655
20
-131.262
11
36.3607
21
-131.453
0
LINE
8
BLACK
6
CONTINUOUS
10
36.3607
20
-131.453
11
36.456
21
-131.834
0
LINE
8
BLACK
6
CONTINUOUS
10
36.456
20
-131.834
11
36.456
21
-132.31
0
LINE
8
BLACK
6
CONTINUOUS
10
36.456
20
-132.31
11
36.3607
21
-132.691
0
LINE
8
BLACK
6
CONTINUOUS
10
36.3607
20
-132.691
11
36.2655
21
-132.881
0
LINE
8
BLACK
6
CONTINUOUS
10
36.2655
20
-132.881
11
36.1702
21
-132.977
0
LINE
8
BLACK
6
CONTINUOUS
10
36.1702
20
-132.977
11
35.9798
21
-133.072
0
LINE
8
BLACK
6
CONTINUOUS
10
35.9798
20
-133.072
11
35.7893
21
-133.072
0
LINE
8
BLACK
6
CONTINUOUS
10
35.7893
20
-133.072
11
35.5988
21
-132.977
0
LINE
8
BLACK
6
CONTINUOUS
10
35.5988
20
-132.977
11
35.5036
21
-132.881
0
LINE
8
BLACK
6
CONTINUOUS
10
35.5036
20
-132.881
11
35.4083
21
-132.691
0
LINE
8
BLACK
6
CONTINUOUS
10
35.4083
20
-132.691
11
35.3131
21
-132.31
0
LINE
8
BLACK
6
CONTINUOUS
10
35.3131
20
-132.31
11
35.3131
21
-131.834
0
LINE
8
BLACK
6
CONTINUOUS
10
35.3131
20
-131.834
11
35.4083
21
-131.453
0
LINE
8
BLACK
6
CONTINUOUS
10
35.4083
20
-131.453
11
35.5036
21
-131.262
0
LINE
8
BLACK
6
CONTINUOUS
10
35.5036
20
-131.262
11
35.5988
21
-131.167
0
LINE
8
BLACK
6
CONTINUOUS
10
35.5988
20
-131.167
11
35.7893
21
-131.072
0
LINE
8
BLACK
6
CONTINUOUS
10
37.694
20
-131.072
11
37.8845
21
-131.072
0
LINE
8
BLACK
6
CONTINUOUS
10
37.8845
20
-131.072
11
38.075
21
-131.167
0
LINE
8
BLACK
6
CONTINUOUS
10
38.075
20
-131.167
11
38.1702
21
-131.262
0
LINE
8
BLACK
6
CONTINUOUS
10
38.1702
20
-131.262
11
38.2655
21
-131.453
0
LINE
8
BLACK
6
CONTINUOUS
10
38.2655
20
-131.453
11
38.3607
21
-131.834
0
LINE
8
BLACK
6
CONTINUOUS
10
38.3607
20
-131.834
11
38.3607
21
-132.31
0
LINE
8
BLACK
6
CONTINUOUS
10
38.3607
20
-132.31
11
38.2655
21
-132.691
0
LINE
8
BLACK
6
CONTINUOUS
10
38.2655
20
-132.691
11
38.1702
21
-132.881
0
LINE
8
BLACK
6
CONTINUOUS
10
38.1702
20
-132.881
11
38.075
21
-132.977
0
LINE
8
BLACK
6
CONTINUOUS
10
38.075
20
-132.977
11
37.8845
21
-133.072
0
LINE
8
BLACK
6
CONTINUOUS
10
37.8845
20
-133.072
11
37.694
21
-133.072
0
LINE
8
BLACK
6
CONTINUOUS
10
37.694
20
-133.072
11
37.5036
21
-132.977
0
LINE
8
BLACK
6
CONTINUOUS
10
37.5036
20
-132.977
11
37.4083
21
-132.881
0
LINE
8
BLACK
6
CONTINUOUS
10
37.4083
20
-132.881
11
37.3131
21
-132.691
0
LINE
8
BLACK
6
CONTINUOUS
10
37.3131
20
-132.691
11
37.2179
21
-132.31
0
LINE
8
BLACK
6
CONTINUOUS
10
37.2179
20
-132.31
11
37.2179
21
-131.834
0
LINE
8
BLACK
6
CONTINUOUS
10
37.2179
20
-131.834
11
37.3131
21
-131.453
0
LINE
8
BLACK
6
CONTINUOUS
10
37.3131
20
-131.453
11
37.4083
21
-131.262
0
LINE
8
BLACK
6
CONTINUOUS
10
37.4083
20
-131.262
11
37.5036
21
-131.167
0
LINE
8
BLACK
6
CONTINUOUS
10
37.5036
20
-131.167
11
37.694
21
-131.072
0
LINE
8
BLACK
6
CONTINUOUS
10
39.5988
20
-131.072
11
39.7893
21
-131.072
0
LINE
8
BLACK
6
CONTINUOUS
10
39.7893
20
-131.072
11
39.9798
21
-131.167
0
LINE
8
BLACK
6
CONTINUOUS
10
39.9798
20
-131.167
11
40.075
21
-131.262
0
LINE
8
BLACK
6
CONTINUOUS
10
40.075
20
-131.262
11
40.1702
21
-131.453
0
LINE
8
BLACK
6
CONTINUOUS
10
40.1702
20
-131.453
11
40.2655
21
-131.834
0
LINE
8
BLACK
6
CONTINUOUS
10
40.2655
20
-131.834
11
40.2655
21
-132.31
0
LINE
8
BLACK
6
CONTINUOUS
10
40.2655
20
-132.31
11
40.1702
21
-132.691
0
LINE
8
BLACK
6
CONTINUOUS
10
40.1702
20
-132.691
11
40.075
21
-132.881
0
LINE
8
BLACK
6
CONTINUOUS
10
40.075
20
-132.881
11
39.9798
21
-132.977
0
LINE
8
BLACK
6
CONTINUOUS
10
39.9798
20
-132.977
11
39.7893
21
-133.072
0
LINE
8
BLACK
6
CONTINUOUS
10
39.7893
20
-133.072
11
39.5988
21
-133.072
0
LINE
8
BLACK
6
CONTINUOUS
10
39.5988
20
-133.072
11
39.4083
21
-132.977
0
LINE
8
BLACK
6
CONTINUOUS
10
39.4083
20
-132.977
11
39.3131
21
-132.881
0
LINE
8
BLACK
6
CONTINUOUS
10
39.3131
20
-132.881
11
39.2179
21
-132.691
0
LINE
8
BLACK
6
CONTINUOUS
10
39.2179
20
-132.691
11
39.1226
21
-132.31
0
LINE
8
BLACK
6
CONTINUOUS
10
39.1226
20
-132.31
11
39.1226
21
-131.834
0
LINE
8
BLACK
6
CONTINUOUS
10
39.1226
20
-131.834
11
39.2179
21
-131.453
0
LINE
8
BLACK
6
CONTINUOUS
10
39.2179
20
-131.453
11
39.3131
21
-131.262
0
LINE
8
BLACK
6
CONTINUOUS
10
39.3131
20
-131.262
11
39.4083
21
-131.167
0
LINE
8
BLACK
6
CONTINUOUS
10
39.4083
20
-131.167
11
39.5988
21
-131.072
0
LINE
8
BLACK
6
CONTINUOUS
10
41.1226
20
-133.072
11
41.1226
21
-131.738
0
LINE
8
BLACK
6
CONTINUOUS
10
41.1226
20
-131.929
11
41.2179
21
-131.834
0
LINE
8
BLACK
6
CONTINUOUS
10
41.2179
20
-131.834
11
41.4083
21
-131.738
0
LINE
8
BLACK
6
CONTINUOUS
10
41.4083
20
-131.738
11
41.694
21
-131.738
0
LINE
8
BLACK
6
CONTINUOUS
10
41.694
20
-131.738
11
41.8845
21
-131.834
0
LINE
8
BLACK
6
CONTINUOUS
10
41.8845
20
-131.834
11
41.9798
21
-132.024
0
LINE
8
BLACK
6
CONTINUOUS
10
41.9798
20
-132.024
11
41.9798
21
-133.072
0
LINE
8
BLACK
6
CONTINUOUS
10
41.9798
20
-132.024
11
42.075
21
-131.834
0
LINE
8
BLACK
6
CONTINUOUS
10
42.075
20
-131.834
11
42.2655
21
-131.738
0
LINE
8
BLACK
6
CONTINUOUS
10
42.2655
20
-131.738
11
42.5512
21
-131.738
0
LINE
8
BLACK
6
CONTINUOUS
10
42.5512
20
-131.738
11
42.7417
21
-131.834
0
LINE
8
BLACK
6
CONTINUOUS
10
42.7417
20
-131.834
11
42.8369
21
-132.024
0
LINE
8
BLACK
6
CONTINUOUS
10
42.8369
20
-132.024
11
42.8369
21
-133.072
0
LINE
8
BLACK
6
CONTINUOUS
10
43.7893
20
-133.072
11
43.7893
21
-131.738
0
LINE
8
BLACK
6
CONTINUOUS
10
43.7893
20
-131.929
11
43.8845
21
-131.834
0
LINE
8
BLACK
6
CONTINUOUS
10
43.8845
20
-131.834
11
44.075
21
-131.738
0
LINE
8
BLACK
6
CONTINUOUS
10
44.075
20
-131.738
11
44.3607
21
-131.738
0
LINE
8
BLACK
6
CONTINUOUS
10
44.3607
20
-131.738
11
44.5512
21
-131.834
0
LINE
8
BLACK
6
CONTINUOUS
10
44.5512
20
-131.834
11
44.6464
21
-132.024
0
LINE
8
BLACK
6
CONTINUOUS
10
44.6464
20
-132.024
11
44.6464
21
-133.072
0
LINE
8
BLACK
6
CONTINUOUS
10
44.6464
20
-132.024
11
44.7417
21
-131.834
0
LINE
8
BLACK
6
CONTINUOUS
10
44.7417
20
-131.834
11
44.9321
21
-131.738
0
LINE
8
BLACK
6
CONTINUOUS
10
44.9321
20
-131.738
11
45.2179
21
-131.738
0
LINE
8
BLACK
6
CONTINUOUS
10
45.2179
20
-131.738
11
45.4083
21
-131.834
0
LINE
8
BLACK
6
CONTINUOUS
10
45.4083
20
-131.834
11
45.5036
21
-132.024
0
LINE
8
BLACK
6
CONTINUOUS
10
45.5036
20
-132.024
11
45.5036
21
-133.072
0
LINE
8
BLACK
6
CONTINUOUS
10
49.4083
20
-130.977
11
47.694
21
-133.548
0
LINE
8
BLACK
6
CONTINUOUS
10
51.9798
20
-131.072
11
52.1702
21
-131.072
0
LINE
8
BLACK
6
CONTINUOUS
10
52.1702
20
-131.072
11
52.3607
21
-131.167
0
LINE
8
BLACK
6
CONTINUOUS
10
52.3607
20
-131.167
11
52.456
21
-131.262
0
LINE
8
BLACK
6
CONTINUOUS
10
52.456
20
-131.262
11
52.5512
21
-131.453
0
LINE
8
BLACK
6
CONTINUOUS
10
52.5512
20
-131.453
11
52.6464
21
-131.834
0
LINE
8
BLACK
6
CONTINUOUS
10
52.6464
20
-131.834
11
52.6464
21
-132.31
0
LINE
8
BLACK
6
CONTINUOUS
10
52.6464
20
-132.31
11
52.5512
21
-132.691
0
LINE
8
BLACK
6
CONTINUOUS
10
52.5512
20
-132.691
11
52.456
21
-132.881
0
LINE
8
BLACK
6
CONTINUOUS
10
52.456
20
-132.881
11
52.3607
21
-132.977
0
LINE
8
BLACK
6
CONTINUOUS
10
52.3607
20
-132.977
11
52.1702
21
-133.072
0
LINE
8
BLACK
6
CONTINUOUS
10
52.1702
20
-133.072
11
51.9798
21
-133.072
0
LINE
8
BLACK
6
CONTINUOUS
10
51.9798
20
-133.072
11
51.7893
21
-132.977
0
LINE
8
BLACK
6
CONTINUOUS
10
51.7893
20
-132.977
11
51.694
21
-132.881
0
LINE
8
BLACK
6
CONTINUOUS
10
51.694
20
-132.881
11
51.5988
21
-132.691
0
LINE
8
BLACK
6
CONTINUOUS
10
51.5988
20
-132.691
11
51.5036
21
-132.31
0
LINE
8
BLACK
6
CONTINUOUS
10
51.5036
20
-132.31
11
51.5036
21
-131.834
0
LINE
8
BLACK
6
CONTINUOUS
10
51.5036
20
-131.834
11
51.5988
21
-131.453
0
LINE
8
BLACK
6
CONTINUOUS
10
51.5988
20
-131.453
11
51.694
21
-131.262
0
LINE
8
BLACK
6
CONTINUOUS
10
51.694
20
-131.262
11
51.7893
21
-131.167
0
LINE
8
BLACK
6
CONTINUOUS
10
51.7893
20
-131.167
11
51.9798
21
-131.072
0
LINE
8
BLACK
6
CONTINUOUS
10
53.5036
20
-132.881
11
53.5988
21
-132.977
0
LINE
8
BLACK
6
CONTINUOUS
10
53.5988
20
-132.977
11
53.5036
21
-133.072
0
LINE
8
BLACK
6
CONTINUOUS
10
53.5036
20
-133.072
11
53.4083
21
-132.977
0
LINE
8
BLACK
6
CONTINUOUS
10
53.4083
20
-132.977
11
53.5036
21
-132.881
0
LINE
8
BLACK
6
CONTINUOUS
10
53.5036
20
-132.881
11
53.5036
21
-133.072
0
LINE
8
BLACK
6
CONTINUOUS
10
54.8369
20
-131.072
11
55.0274
21
-131.072
0
LINE
8
BLACK
6
CONTINUOUS
10
55.0274
20
-131.072
11
55.2179
21
-131.167
0
LINE
8
BLACK
6
CONTINUOUS
10
55.2179
20
-131.167
11
55.3131
21
-131.262
0
LINE
8
BLACK
6
CONTINUOUS
10
55.3131
20
-131.262
11
55.4083
21
-131.453
0
LINE
8
BLACK
6
CONTINUOUS
10
55.4083
20
-131.453
11
55.5036
21
-131.834
0
LINE
8
BLACK
6
CONTINUOUS
10
55.5036
20
-131.834
11
55.5036
21
-132.31
0
LINE
8
BLACK
6
CONTINUOUS
10
55.5036
20
-132.31
11
55.4083
21
-132.691
0
LINE
8
BLACK
6
CONTINUOUS
10
55.4083
20
-132.691
11
55.3131
21
-132.881
0
LINE
8
BLACK
6
CONTINUOUS
10
55.3131
20
-132.881
11
55.2179
21
-132.977
0
LINE
8
BLACK
6
CONTINUOUS
10
55.2179
20
-132.977
11
55.0274
21
-133.072
0
LINE
8
BLACK
6
CONTINUOUS
10
55.0274
20
-133.072
11
54.8369
21
-133.072
0
LINE
8
BLACK
6
CONTINUOUS
10
54.8369
20
-133.072
11
54.6464
21
-132.977
0
LINE
8
BLACK
6
CONTINUOUS
10
54.6464
20
-132.977
11
54.5512
21
-132.881
0
LINE
8
BLACK
6
CONTINUOUS
10
54.5512
20
-132.881
11
54.456
21
-132.691
0
LINE
8
BLACK
6
CONTINUOUS
10
54.456
20
-132.691
11
54.3607
21
-132.31
0
LINE
8
BLACK
6
CONTINUOUS
10
54.3607
20
-132.31
11
54.3607
21
-131.834
0
LINE
8
BLACK
6
CONTINUOUS
10
54.3607
20
-131.834
11
54.456
21
-131.453
0
LINE
8
BLACK
6
CONTINUOUS
10
54.456
20
-131.453
11
54.5512
21
-131.262
0
LINE
8
BLACK
6
CONTINUOUS
10
54.5512
20
-131.262
11
54.6464
21
-131.167
0
LINE
8
BLACK
6
CONTINUOUS
10
54.6464
20
-131.167
11
54.8369
21
-131.072
0
LINE
8
BLACK
6
CONTINUOUS
10
56.1702
20
-131.072
11
57.4083
21
-131.072
0
LINE
8
BLACK
6
CONTINUOUS
10
57.4083
20
-131.072
11
56.7417
21
-131.834
0
LINE
8
BLACK
6
CONTINUOUS
10
56.7417
20
-131.834
11
57.0274
21
-131.834
0
LINE
8
BLACK
6
CONTINUOUS
10
57.0274
20
-131.834
11
57.2179
21
-131.929
0
LINE
8
BLACK
6
CONTINUOUS
10
57.2179
20
-131.929
11
57.3131
21
-132.024
0
LINE
8
BLACK
6
CONTINUOUS
10
57.3131
20
-132.024
11
57.4083
21
-132.215
0
LINE
8
BLACK
6
CONTINUOUS
10
57.4083
20
-132.215
11
57.4083
21
-132.691
0
LINE
8
BLACK
6
CONTINUOUS
10
57.4083
20
-132.691
11
57.3131
21
-132.881
0
LINE
8
BLACK
6
CONTINUOUS
10
57.3131
20
-132.881
11
57.2179
21
-132.977
0
LINE
8
BLACK
6
CONTINUOUS
10
57.2179
20
-132.977
11
57.0274
21
-133.072
0
LINE
8
BLACK
6
CONTINUOUS
10
57.0274
20
-133.072
11
56.456
21
-133.072
0
LINE
8
BLACK
6
CONTINUOUS
10
56.456
20
-133.072
11
56.2655
21
-132.977
0
LINE
8
BLACK
6
CONTINUOUS
10
56.2655
20
-132.977
11
56.1702
21
-132.881
0
LINE
8
BLACK
6
CONTINUOUS
10
58.3607
20
-133.072
11
58.7417
21
-133.072
0
LINE
8
BLACK
6
CONTINUOUS
10
58.7417
20
-133.072
11
58.9321
21
-132.977
0
LINE
8
BLACK
6
CONTINUOUS
10
58.9321
20
-132.977
11
59.0274
21
-132.881
0
LINE
8
BLACK
6
CONTINUOUS
10
59.0274
20
-132.881
11
59.2179
21
-132.596
0
LINE
8
BLACK
6
CONTINUOUS
10
59.2179
20
-132.596
11
59.3131
21
-132.215
0
LINE
8
BLACK
6
CONTINUOUS
10
59.3131
20
-132.215
11
59.3131
21
-131.453
0
LINE
8
BLACK
6
CONTINUOUS
10
59.3131
20
-131.453
11
59.2179
21
-131.262
0
LINE
8
BLACK
6
CONTINUOUS
10
59.2179
20
-131.262
11
59.1226
21
-131.167
0
LINE
8
BLACK
6
CONTINUOUS
10
59.1226
20
-131.167
11
58.9321
21
-131.072
0
LINE
8
BLACK
6
CONTINUOUS
10
58.9321
20
-131.072
11
58.5512
21
-131.072
0
LINE
8
BLACK
6
CONTINUOUS
10
58.5512
20
-131.072
11
58.3607
21
-131.167
0
LINE
8
BLACK
6
CONTINUOUS
10
58.3607
20
-131.167
11
58.2655
21
-131.262
0
LINE
8
BLACK
6
CONTINUOUS
10
58.2655
20
-131.262
11
58.1702
21
-131.453
0
LINE
8
BLACK
6
CONTINUOUS
10
58.1702
20
-131.453
11
58.1702
21
-131.929
0
LINE
8
BLACK
6
CONTINUOUS
10
58.1702
20
-131.929
11
58.2655
21
-132.119
0
LINE
8
BLACK
6
CONTINUOUS
10
58.2655
20
-132.119
11
58.3607
21
-132.215
0
LINE
8
BLACK
6
CONTINUOUS
10
58.3607
20
-132.215
11
58.5512
21
-132.31
0
LINE
8
BLACK
6
CONTINUOUS
10
58.5512
20
-132.31
11
58.9321
21
-132.31
0
LINE
8
BLACK
6
CONTINUOUS
10
58.9321
20
-132.31
11
59.1226
21
-132.215
0
LINE
8
BLACK
6
CONTINUOUS
10
59.1226
20
-132.215
11
59.2179
21
-132.119
0
LINE
8
BLACK
6
CONTINUOUS
10
59.2179
20
-132.119
11
59.3131
21
-131.929
0
LINE
8
BLACK
6
CONTINUOUS
10
61.0274
20
-131.738
11
61.0274
21
-133.072
0
LINE
8
BLACK
6
CONTINUOUS
10
60.5512
20
-130.977
11
60.075
21
-132.405
0
LINE
8
BLACK
6
CONTINUOUS
10
60.075
20
-132.405
11
61.3131
21
-132.405
0
LINE
8
BLACK
6
CONTINUOUS
10
61.9798
20
-131.072
11
61.9798
21
-131.453
0
LINE
8
BLACK
6
CONTINUOUS
10
62.7417
20
-131.072
11
62.7417
21
-131.453
0
LINE
8
BLACK
6
CONTINUOUS
10
65.694
20
-133.834
11
65.5988
21
-133.738
0
LINE
8
BLACK
6
CONTINUOUS
10
65.5988
20
-133.738
11
65.4083
21
-133.453
0
LINE
8
BLACK
6
CONTINUOUS
10
65.4083
20
-133.453
11
65.3131
21
-133.262
0
LINE
8
BLACK
6
CONTINUOUS
10
65.3131
20
-133.262
11
65.2179
21
-132.977
0
LINE
8
BLACK
6
CONTINUOUS
10
65.2179
20
-132.977
11
65.1226
21
-132.5
0
LINE
8
BLACK
6
CONTINUOUS
10
65.1226
20
-132.5
11
65.1226
21
-132.119
0
LINE
8
BLACK
6
CONTINUOUS
10
65.1226
20
-132.119
11
65.2179
21
-131.643
0
LINE
8
BLACK
6
CONTINUOUS
10
65.2179
20
-131.643
11
65.3131
21
-131.357
0
LINE
8
BLACK
6
CONTINUOUS
10
65.3131
20
-131.357
11
65.4083
21
-131.167
0
LINE
8
BLACK
6
CONTINUOUS
10
65.4083
20
-131.167
11
65.5988
21
-130.881
0
LINE
8
BLACK
6
CONTINUOUS
10
65.5988
20
-130.881
11
65.694
21
-130.786
0
LINE
8
BLACK
6
CONTINUOUS
10
67.5036
20
-133.072
11
66.3607
21
-133.072
0
LINE
8
BLACK
6
CONTINUOUS
10
66.9321
20
-133.072
11
66.9321
21
-131.072
0
LINE
8
BLACK
6
CONTINUOUS
10
66.9321
20
-131.072
11
66.7417
21
-131.357
0
LINE
8
BLACK
6
CONTINUOUS
10
66.7417
20
-131.357
11
66.5512
21
-131.548
0
LINE
8
BLACK
6
CONTINUOUS
10
66.5512
20
-131.548
11
66.3607
21
-131.643
0
LINE
8
BLACK
6
CONTINUOUS
10
69.4083
20
-133.072
11
68.2655
21
-133.072
0
LINE
8
BLACK
6
CONTINUOUS
10
68.8369
20
-133.072
11
68.8369
21
-131.072
0
LINE
8
BLACK
6
CONTINUOUS
10
68.8369
20
-131.072
11
68.6464
21
-131.357
0
LINE
8
BLACK
6
CONTINUOUS
10
68.6464
20
-131.357
11
68.456
21
-131.548
0
LINE
8
BLACK
6
CONTINUOUS
10
68.456
20
-131.548
11
68.2655
21
-131.643
0
LINE
8
BLACK
6
CONTINUOUS
10
71.7893
20
-133.072
11
71.7893
21
-131.072
0
LINE
8
BLACK
6
CONTINUOUS
10
72.6464
20
-133.072
11
72.6464
21
-132.024
0
LINE
8
BLACK
6
CONTINUOUS
10
72.6464
20
-132.024
11
72.5512
21
-131.834
0
LINE
8
BLACK
6
CONTINUOUS
10
72.5512
20
-131.834
11
72.3607
21
-131.738
0
LINE
8
BLACK
6
CONTINUOUS
10
72.3607
20
-131.738
11
72.075
21
-131.738
0
LINE
8
BLACK
6
CONTINUOUS
10
72.075
20
-131.738
11
71.8845
21
-131.834
0
LINE
8
BLACK
6
CONTINUOUS
10
71.8845
20
-131.834
11
71.7893
21
-131.929
0
LINE
8
BLACK
6
CONTINUOUS
10
73.8845
20
-133.072
11
73.694
21
-132.977
0
LINE
8
BLACK
6
CONTINUOUS
10
73.694
20
-132.977
11
73.5988
21
-132.881
0
LINE
8
BLACK
6
CONTINUOUS
10
73.5988
20
-132.881
11
73.5036
21
-132.691
0
LINE
8
BLACK
6
CONTINUOUS
10
73.5036
20
-132.691
11
73.5036
21
-132.119
0
LINE
8
BLACK
6
CONTINUOUS
10
73.5036
20
-132.119
11
73.5988
21
-131.929
0
LINE
8
BLACK
6
CONTINUOUS
10
73.5988
20
-131.929
11
73.694
21
-131.834
0
LINE
8
BLACK
6
CONTINUOUS
10
73.694
20
-131.834
11
73.8845
21
-131.738
0
LINE
8
BLACK
6
CONTINUOUS
10
73.8845
20
-131.738
11
74.1702
21
-131.738
0
LINE
8
BLACK
6
CONTINUOUS
10
74.1702
20
-131.738
11
74.3607
21
-131.834
0
LINE
8
BLACK
6
CONTINUOUS
10
74.3607
20
-131.834
11
74.456
21
-131.929
0
LINE
8
BLACK
6
CONTINUOUS
10
74.456
20
-131.929
11
74.5512
21
-132.119
0
LINE
8
BLACK
6
CONTINUOUS
10
74.5512
20
-132.119
11
74.5512
21
-132.691
0
LINE
8
BLACK
6
CONTINUOUS
10
74.5512
20
-132.691
11
74.456
21
-132.881
0
LINE
8
BLACK
6
CONTINUOUS
10
74.456
20
-132.881
11
74.3607
21
-132.977
0
LINE
8
BLACK
6
CONTINUOUS
10
74.3607
20
-132.977
11
74.1702
21
-133.072
0
LINE
8
BLACK
6
CONTINUOUS
10
74.1702
20
-133.072
11
73.8845
21
-133.072
0
LINE
8
BLACK
6
CONTINUOUS
10
75.694
20
-133.072
11
75.5036
21
-132.977
0
LINE
8
BLACK
6
CONTINUOUS
10
75.5036
20
-132.977
11
75.4083
21
-132.786
0
LINE
8
BLACK
6
CONTINUOUS
10
75.4083
20
-132.786
11
75.4083
21
-131.072
0
LINE
8
BLACK
6
CONTINUOUS
10
77.2179
20
-132.977
11
77.0274
21
-133.072
0
LINE
8
BLACK
6
CONTINUOUS
10
77.0274
20
-133.072
11
76.6464
21
-133.072
0
LINE
8
BLACK
6
CONTINUOUS
10
76.6464
20
-133.072
11
76.456
21
-132.977
0
LINE
8
BLACK
6
CONTINUOUS
10
76.456
20
-132.977
11
76.3607
21
-132.786
0
LINE
8
BLACK
6
CONTINUOUS
10
76.3607
20
-132.786
11
76.3607
21
-132.024
0
LINE
8
BLACK
6
CONTINUOUS
10
76.3607
20
-132.024
11
76.456
21
-131.834
0
LINE
8
BLACK
6
CONTINUOUS
10
76.456
20
-131.834
11
76.6464
21
-131.738
0
LINE
8
BLACK
6
CONTINUOUS
10
76.6464
20
-131.738
11
77.0274
21
-131.738
0
LINE
8
BLACK
6
CONTINUOUS
10
77.0274
20
-131.738
11
77.2179
21
-131.834
0
LINE
8
BLACK
6
CONTINUOUS
10
77.2179
20
-131.834
11
77.3131
21
-132.024
0
LINE
8
BLACK
6
CONTINUOUS
10
77.3131
20
-132.024
11
77.3131
21
-132.215
0
LINE
8
BLACK
6
CONTINUOUS
10
77.3131
20
-132.215
11
76.3607
21
-132.405
0
LINE
8
BLACK
6
CONTINUOUS
10
78.075
20
-132.977
11
78.2655
21
-133.072
0
LINE
8
BLACK
6
CONTINUOUS
10
78.2655
20
-133.072
11
78.6464
21
-133.072
0
LINE
8
BLACK
6
CONTINUOUS
10
78.6464
20
-133.072
11
78.8369
21
-132.977
0
LINE
8
BLACK
6
CONTINUOUS
10
78.8369
20
-132.977
11
78.9321
21
-132.786
0
LINE
8
BLACK
6
CONTINUOUS
10
78.9321
20
-132.786
11
78.9321
21
-132.691
0
LINE
8
BLACK
6
CONTINUOUS
10
78.9321
20
-132.691
11
78.8369
21
-132.5
0
LINE
8
BLACK
6
CONTINUOUS
10
78.8369
20
-132.5
11
78.6464
21
-132.405
0
LINE
8
BLACK
6
CONTINUOUS
10
78.6464
20
-132.405
11
78.3607
21
-132.405
0
LINE
8
BLACK
6
CONTINUOUS
10
78.3607
20
-132.405
11
78.1702
21
-132.31
0
LINE
8
BLACK
6
CONTINUOUS
10
78.1702
20
-132.31
11
78.075
21
-132.119
0
LINE
8
BLACK
6
CONTINUOUS
10
78.075
20
-132.119
11
78.075
21
-132.024
0
LINE
8
BLACK
6
CONTINUOUS
10
78.075
20
-132.024
11
78.1702
21
-131.834
0
LINE
8
BLACK
6
CONTINUOUS
10
78.1702
20
-131.834
11
78.3607
21
-131.738
0
LINE
8
BLACK
6
CONTINUOUS
10
78.3607
20
-131.738
11
78.6464
21
-131.738
0
LINE
8
BLACK
6
CONTINUOUS
10
78.6464
20
-131.738
11
78.8369
21
-131.834
0
LINE
8
BLACK
6
CONTINUOUS
10
79.5988
20
-133.834
11
79.694
21
-133.738
0
LINE
8
BLACK
6
CONTINUOUS
10
79.694
20
-133.738
11
79.8845
21
-133.453
0
LINE
8
BLACK
6
CONTINUOUS
10
79.8845
20
-133.453
11
79.9798
21
-133.262
0
LINE
8
BLACK
6
CONTINUOUS
10
79.9798
20
-133.262
11
80.075
21
-132.977
0
LINE
8
BLACK
6
CONTINUOUS
10
80.075
20
-132.977
11
80.1702
21
-132.5
0
LINE
8
BLACK
6
CONTINUOUS
10
80.1702
20
-132.5
11
80.1702
21
-132.119
0
LINE
8
BLACK
6
CONTINUOUS
10
80.1702
20
-132.119
11
80.075
21
-131.643
0
LINE
8
BLACK
6
CONTINUOUS
10
80.075
20
-131.643
11
79.9798
21
-131.357
0
LINE
8
BLACK
6
CONTINUOUS
10
79.9798
20
-131.357
11
79.8845
21
-131.167
0
LINE
8
BLACK
6
CONTINUOUS
10
79.8845
20
-131.167
11
79.694
21
-130.881
0
LINE
8
BLACK
6
CONTINUOUS
10
79.694
20
-130.881
11
79.5988
21
-130.786
0
LINE
8
BLACK
6
CONTINUOUS
10
28.775
20
-134.207
11
29.975
21
-135.407
0
LINE
8
BLACK
6
CONTINUOUS
10
29.975
20
-134.207
11
28.775
21
-135.407
0
LINE
8
BLACK
6
CONTINUOUS
10
29.375
20
-134.207
11
29.375
21
-135.407
0
LINE
8
BLACK
6
CONTINUOUS
10
28.775
20
-134.807
11
29.975
21
-134.807
0
LINE
8
BLACK
6
CONTINUOUS
10
33.5988
20
-135.712
11
32.456
21
-135.712
0
LINE
8
BLACK
6
CONTINUOUS
10
33.0274
20
-135.712
11
33.0274
21
-133.712
0
LINE
8
BLACK
6
CONTINUOUS
10
33.0274
20
-133.712
11
32.8369
21
-133.997
0
LINE
8
BLACK
6
CONTINUOUS
10
32.8369
20
-133.997
11
32.6464
21
-134.188
0
LINE
8
BLACK
6
CONTINUOUS
10
32.6464
20
-134.188
11
32.456
21
-134.283
0
LINE
8
BLACK
6
CONTINUOUS
10
34.456
20
-135.521
11
34.5512
21
-135.617
0
LINE
8
BLACK
6
CONTINUOUS
10
34.5512
20
-135.617
11
34.456
21
-135.712
0
LINE
8
BLACK
6
CONTINUOUS
10
34.456
20
-135.712
11
34.3607
21
-135.617
0
LINE
8
BLACK
6
CONTINUOUS
10
34.3607
20
-135.617
11
34.456
21
-135.521
0
LINE
8
BLACK
6
CONTINUOUS
10
34.456
20
-135.521
11
34.456
21
-135.712
0
LINE
8
BLACK
6
CONTINUOUS
10
35.3131
20
-133.902
11
35.4083
21
-133.807
0
LINE
8
BLACK
6
CONTINUOUS
10
35.4083
20
-133.807
11
35.5988
21
-133.712
0
LINE
8
BLACK
6
CONTINUOUS
10
35.5988
20
-133.712
11
36.075
21
-133.712
0
LINE
8
BLACK
6
CONTINUOUS
10
36.075
20
-133.712
11
36.2655
21
-133.807
0
LINE
8
BLACK
6
CONTINUOUS
10
36.2655
20
-133.807
11
36.3607
21
-133.902
0
LINE
8
BLACK
6
CONTINUOUS
10
36.3607
20
-133.902
11
36.456
21
-134.093
0
LINE
8
BLACK
6
CONTINUOUS
10
36.456
20
-134.093
11
36.456
21
-134.283
0
LINE
8
BLACK
6
CONTINUOUS
10
36.456
20
-134.283
11
36.3607
21
-134.569
0
LINE
8
BLACK
6
CONTINUOUS
10
36.3607
20
-134.569
11
35.2179
21
-135.712
0
LINE
8
BLACK
6
CONTINUOUS
10
35.2179
20
-135.712
11
36.456
21
-135.712
0
LINE
8
BLACK
6
CONTINUOUS
10
37.694
20
-133.712
11
37.8845
21
-133.712
0
LINE
8
BLACK
6
CONTINUOUS
10
37.8845
20
-133.712
11
38.075
21
-133.807
0
LINE
8
BLACK
6
CONTINUOUS
10
38.075
20
-133.807
11
38.1702
21
-133.902
0
LINE
8
BLACK
6
CONTINUOUS
10
38.1702
20
-133.902
11
38.2655
21
-134.093
0
LINE
8
BLACK
6
CONTINUOUS
10
38.2655
20
-134.093
11
38.3607
21
-134.474
0
LINE
8
BLACK
6
CONTINUOUS
10
38.3607
20
-134.474
11
38.3607
21
-134.95
0
LINE
8
BLACK
6
CONTINUOUS
10
38.3607
20
-134.95
11
38.2655
21
-135.331
0
LINE
8
BLACK
6
CONTINUOUS
10
38.2655
20
-135.331
11
38.1702
21
-135.521
0
LINE
8
BLACK
6
CONTINUOUS
10
38.1702
20
-135.521
11
38.075
21
-135.617
0
LINE
8
BLACK
6
CONTINUOUS
10
38.075
20
-135.617
11
37.8845
21
-135.712
0
LINE
8
BLACK
6
CONTINUOUS
10
37.8845
20
-135.712
11
37.694
21
-135.712
0
LINE
8
BLACK
6
CONTINUOUS
10
37.694
20
-135.712
11
37.5036
21
-135.617
0
LINE
8
BLACK
6
CONTINUOUS
10
37.5036
20
-135.617
11
37.4083
21
-135.521
0
LINE
8
BLACK
6
CONTINUOUS
10
37.4083
20
-135.521
11
37.3131
21
-135.331
0
LINE
8
BLACK
6
CONTINUOUS
10
37.3131
20
-135.331
11
37.2179
21
-134.95
0
LINE
8
BLACK
6
CONTINUOUS
10
37.2179
20
-134.95
11
37.2179
21
-134.474
0
LINE
8
BLACK
6
CONTINUOUS
10
37.2179
20
-134.474
11
37.3131
21
-134.093
0
LINE
8
BLACK
6
CONTINUOUS
10
37.3131
20
-134.093
11
37.4083
21
-133.902
0
LINE
8
BLACK
6
CONTINUOUS
10
37.4083
20
-133.902
11
37.5036
21
-133.807
0
LINE
8
BLACK
6
CONTINUOUS
10
37.5036
20
-133.807
11
37.694
21
-133.712
0
LINE
8
BLACK
6
CONTINUOUS
10
39.5988
20
-133.712
11
39.7893
21
-133.712
0
LINE
8
BLACK
6
CONTINUOUS
10
39.7893
20
-133.712
11
39.9798
21
-133.807
0
LINE
8
BLACK
6
CONTINUOUS
10
39.9798
20
-133.807
11
40.075
21
-133.902
0
LINE
8
BLACK
6
CONTINUOUS
10
40.075
20
-133.902
11
40.1702
21
-134.093
0
LINE
8
BLACK
6
CONTINUOUS
10
40.1702
20
-134.093
11
40.2655
21
-134.474
0
LINE
8
BLACK
6
CONTINUOUS
10
40.2655
20
-134.474
11
40.2655
21
-134.95
0
LINE
8
BLACK
6
CONTINUOUS
10
40.2655
20
-134.95
11
40.1702
21
-135.331
0
LINE
8
BLACK
6
CONTINUOUS
10
40.1702
20
-135.331
11
40.075
21
-135.521
0
LINE
8
BLACK
6
CONTINUOUS
10
40.075
20
-135.521
11
39.9798
21
-135.617
0
LINE
8
BLACK
6
CONTINUOUS
10
39.9798
20
-135.617
11
39.7893
21
-135.712
0
LINE
8
BLACK
6
CONTINUOUS
10
39.7893
20
-135.712
11
39.5988
21
-135.712
0
LINE
8
BLACK
6
CONTINUOUS
10
39.5988
20
-135.712
11
39.4083
21
-135.617
0
LINE
8
BLACK
6
CONTINUOUS
10
39.4083
20
-135.617
11
39.3131
21
-135.521
0
LINE
8
BLACK
6
CONTINUOUS
10
39.3131
20
-135.521
11
39.2179
21
-135.331
0
LINE
8
BLACK
6
CONTINUOUS
10
39.2179
20
-135.331
11
39.1226
21
-134.95
0
LINE
8
BLACK
6
CONTINUOUS
10
39.1226
20
-134.95
11
39.1226
21
-134.474
0
LINE
8
BLACK
6
CONTINUOUS
10
39.1226
20
-134.474
11
39.2179
21
-134.093
0
LINE
8
BLACK
6
CONTINUOUS
10
39.2179
20
-134.093
11
39.3131
21
-133.902
0
LINE
8
BLACK
6
CONTINUOUS
10
39.3131
20
-133.902
11
39.4083
21
-133.807
0
LINE
8
BLACK
6
CONTINUOUS
10
39.4083
20
-133.807
11
39.5988
21
-133.712
0
LINE
8
BLACK
6
CONTINUOUS
10
41.1226
20
-135.712
11
41.1226
21
-134.378
0
LINE
8
BLACK
6
CONTINUOUS
10
41.1226
20
-134.569
11
41.2179
21
-134.474
0
LINE
8
BLACK
6
CONTINUOUS
10
41.2179
20
-134.474
11
41.4083
21
-134.378
0
LINE
8
BLACK
6
CONTINUOUS
10
41.4083
20
-134.378
11
41.694
21
-134.378
0
LINE
8
BLACK
6
CONTINUOUS
10
41.694
20
-134.378
11
41.8845
21
-134.474
0
LINE
8
BLACK
6
CONTINUOUS
10
41.8845
20
-134.474
11
41.9798
21
-134.664
0
LINE
8
BLACK
6
CONTINUOUS
10
41.9798
20
-134.664
11
41.9798
21
-135.712
0
LINE
8
BLACK
6
CONTINUOUS
10
41.9798
20
-134.664
11
42.075
21
-134.474
0
LINE
8
BLACK
6
CONTINUOUS
10
42.075
20
-134.474
11
42.2655
21
-134.378
0
LINE
8
BLACK
6
CONTINUOUS
10
42.2655
20
-134.378
11
42.5512
21
-134.378
0
LINE
8
BLACK
6
CONTINUOUS
10
42.5512
20
-134.378
11
42.7417
21
-134.474
0
LINE
8
BLACK
6
CONTINUOUS
10
42.7417
20
-134.474
11
42.8369
21
-134.664
0
LINE
8
BLACK
6
CONTINUOUS
10
42.8369
20
-134.664
11
42.8369
21
-135.712
0
LINE
8
BLACK
6
CONTINUOUS
10
43.7893
20
-135.712
11
43.7893
21
-134.378
0
LINE
8
BLACK
6
CONTINUOUS
10
43.7893
20
-134.569
11
43.8845
21
-134.474
0
LINE
8
BLACK
6
CONTINUOUS
10
43.8845
20
-134.474
11
44.075
21
-134.378
0
LINE
8
BLACK
6
CONTINUOUS
10
44.075
20
-134.378
11
44.3607
21
-134.378
0
LINE
8
BLACK
6
CONTINUOUS
10
44.3607
20
-134.378
11
44.5512
21
-134.474
0
LINE
8
BLACK
6
CONTINUOUS
10
44.5512
20
-134.474
11
44.6464
21
-134.664
0
LINE
8
BLACK
6
CONTINUOUS
10
44.6464
20
-134.664
11
44.6464
21
-135.712
0
LINE
8
BLACK
6
CONTINUOUS
10
44.6464
20
-134.664
11
44.7417
21
-134.474
0
LINE
8
BLACK
6
CONTINUOUS
10
44.7417
20
-134.474
11
44.9321
21
-134.378
0
LINE
8
BLACK
6
CONTINUOUS
10
44.9321
20
-134.378
11
45.2179
21
-134.378
0
LINE
8
BLACK
6
CONTINUOUS
10
45.2179
20
-134.378
11
45.4083
21
-134.474
0
LINE
8
BLACK
6
CONTINUOUS
10
45.4083
20
-134.474
11
45.5036
21
-134.664
0
LINE
8
BLACK
6
CONTINUOUS
10
45.5036
20
-134.664
11
45.5036
21
-135.712
0
LINE
8
BLACK
6
CONTINUOUS
10
49.4083
20
-133.617
11
47.694
21
-136.188
0
LINE
8
BLACK
6
CONTINUOUS
10
51.9798
20
-133.712
11
52.1702
21
-133.712
0
LINE
8
BLACK
6
CONTINUOUS
10
52.1702
20
-133.712
11
52.3607
21
-133.807
0
LINE
8
BLACK
6
CONTINUOUS
10
52.3607
20
-133.807
11
52.456
21
-133.902
0
LINE
8
BLACK
6
CONTINUOUS
10
52.456
20
-133.902
11
52.5512
21
-134.093
0
LINE
8
BLACK
6
CONTINUOUS
10
52.5512
20
-134.093
11
52.6464
21
-134.474
0
LINE
8
BLACK
6
CONTINUOUS
10
52.6464
20
-134.474
11
52.6464
21
-134.95
0
LINE
8
BLACK
6
CONTINUOUS
10
52.6464
20
-134.95
11
52.5512
21
-135.331
0
LINE
8
BLACK
6
CONTINUOUS
10
52.5512
20
-135.331
11
52.456
21
-135.521
0
LINE
8
BLACK
6
CONTINUOUS
10
52.456
20
-135.521
11
52.3607
21
-135.617
0
LINE
8
BLACK
6
CONTINUOUS
10
52.3607
20
-135.617
11
52.1702
21
-135.712
0
LINE
8
BLACK
6
CONTINUOUS
10
52.1702
20
-135.712
11
51.9798
21
-135.712
0
LINE
8
BLACK
6
CONTINUOUS
10
51.9798
20
-135.712
11
51.7893
21
-135.617
0
LINE
8
BLACK
6
CONTINUOUS
10
51.7893
20
-135.617
11
51.694
21
-135.521
0
LINE
8
BLACK
6
CONTINUOUS
10
51.694
20
-135.521
11
51.5988
21
-135.331
0
LINE
8
BLACK
6
CONTINUOUS
10
51.5988
20
-135.331
11
51.5036
21
-134.95
0
LINE
8
BLACK
6
CONTINUOUS
10
51.5036
20
-134.95
11
51.5036
21
-134.474
0
LINE
8
BLACK
6
CONTINUOUS
10
51.5036
20
-134.474
11
51.5988
21
-134.093
0
LINE
8
BLACK
6
CONTINUOUS
10
51.5988
20
-134.093
11
51.694
21
-133.902
0
LINE
8
BLACK
6
CONTINUOUS
10
51.694
20
-133.902
11
51.7893
21
-133.807
0
LINE
8
BLACK
6
CONTINUOUS
10
51.7893
20
-133.807
11
51.9798
21
-133.712
0
LINE
8
BLACK
6
CONTINUOUS
10
53.5036
20
-135.521
11
53.5988
21
-135.617
0
LINE
8
BLACK
6
CONTINUOUS
10
53.5988
20
-135.617
11
53.5036
21
-135.712
0
LINE
8
BLACK
6
CONTINUOUS
10
53.5036
20
-135.712
11
53.4083
21
-135.617
0
LINE
8
BLACK
6
CONTINUOUS
10
53.4083
20
-135.617
11
53.5036
21
-135.521
0
LINE
8
BLACK
6
CONTINUOUS
10
53.5036
20
-135.521
11
53.5036
21
-135.712
0
LINE
8
BLACK
6
CONTINUOUS
10
54.8369
20
-133.712
11
55.0274
21
-133.712
0
LINE
8
BLACK
6
CONTINUOUS
10
55.0274
20
-133.712
11
55.2179
21
-133.807
0
LINE
8
BLACK
6
CONTINUOUS
10
55.2179
20
-133.807
11
55.3131
21
-133.902
0
LINE
8
BLACK
6
CONTINUOUS
10
55.3131
20
-133.902
11
55.4083
21
-134.093
0
LINE
8
BLACK
6
CONTINUOUS
10
55.4083
20
-134.093
11
55.5036
21
-134.474
0
LINE
8
BLACK
6
CONTINUOUS
10
55.5036
20
-134.474
11
55.5036
21
-134.95
0
LINE
8
BLACK
6
CONTINUOUS
10
55.5036
20
-134.95
11
55.4083
21
-135.331
0
LINE
8
BLACK
6
CONTINUOUS
10
55.4083
20
-135.331
11
55.3131
21
-135.521
0
LINE
8
BLACK
6
CONTINUOUS
10
55.3131
20
-135.521
11
55.2179
21
-135.617
0
LINE
8
BLACK
6
CONTINUOUS
10
55.2179
20
-135.617
11
55.0274
21
-135.712
0
LINE
8
BLACK
6
CONTINUOUS
10
55.0274
20
-135.712
11
54.8369
21
-135.712
0
LINE
8
BLACK
6
CONTINUOUS
10
54.8369
20
-135.712
11
54.6464
21
-135.617
0
LINE
8
BLACK
6
CONTINUOUS
10
54.6464
20
-135.617
11
54.5512
21
-135.521
0
LINE
8
BLACK
6
CONTINUOUS
10
54.5512
20
-135.521
11
54.456
21
-135.331
0
LINE
8
BLACK
6
CONTINUOUS
10
54.456
20
-135.331
11
54.3607
21
-134.95
0
LINE
8
BLACK
6
CONTINUOUS
10
54.3607
20
-134.95
11
54.3607
21
-134.474
0
LINE
8
BLACK
6
CONTINUOUS
10
54.3607
20
-134.474
11
54.456
21
-134.093
0
LINE
8
BLACK
6
CONTINUOUS
10
54.456
20
-134.093
11
54.5512
21
-133.902
0
LINE
8
BLACK
6
CONTINUOUS
10
54.5512
20
-133.902
11
54.6464
21
-133.807
0
LINE
8
BLACK
6
CONTINUOUS
10
54.6464
20
-133.807
11
54.8369
21
-133.712
0
LINE
8
BLACK
6
CONTINUOUS
10
57.2179
20
-134.378
11
57.2179
21
-135.712
0
LINE
8
BLACK
6
CONTINUOUS
10
56.7417
20
-133.617
11
56.2655
21
-135.045
0
LINE
8
BLACK
6
CONTINUOUS
10
56.2655
20
-135.045
11
57.5036
21
-135.045
0
LINE
8
BLACK
6
CONTINUOUS
10
58.075
20
-133.712
11
59.4083
21
-133.712
0
LINE
8
BLACK
6
CONTINUOUS
10
59.4083
20
-133.712
11
58.5512
21
-135.712
0
LINE
8
BLACK
6
CONTINUOUS
10
60.075
20
-133.902
11
60.1702
21
-133.807
0
LINE
8
BLACK
6
CONTINUOUS
10
60.1702
20
-133.807
11
60.3607
21
-133.712
0
LINE
8
BLACK
6
CONTINUOUS
10
60.3607
20
-133.712
11
60.8369
21
-133.712
0
LINE
8
BLACK
6
CONTINUOUS
10
60.8369
20
-133.712
11
61.0274
21
-133.807
0
LINE
8
BLACK
6
CONTINUOUS
10
61.0274
20
-133.807
11
61.1226
21
-133.902
0
LINE
8
BLACK
6
CONTINUOUS
10
61.1226
20
-133.902
11
61.2179
21
-134.093
0
LINE
8
BLACK
6
CONTINUOUS
10
61.2179
20
-134.093
11
61.2179
21
-134.283
0
LINE
8
BLACK
6
CONTINUOUS
10
61.2179
20
-134.283
11
61.1226
21
-134.569
0
LINE
8
BLACK
6
CONTINUOUS
10
61.1226
20
-134.569
11
59.9798
21
-135.712
0
LINE
8
BLACK
6
CONTINUOUS
10
59.9798
20
-135.712
11
61.2179
21
-135.712
0
LINE
8
BLACK
6
CONTINUOUS
10
61.9798
20
-133.712
11
61.9798
21
-134.093
0
LINE
8
BLACK
6
CONTINUOUS
10
62.7417
20
-133.712
11
62.7417
21
-134.093
0
LINE
8
BLACK
6
CONTINUOUS
10
65.694
20
-136.474
11
65.5988
21
-136.378
0
LINE
8
BLACK
6
CONTINUOUS
10
65.5988
20
-136.378
11
65.4083
21
-136.093
0
LINE
8
BLACK
6
CONTINUOUS
10
65.4083
20
-136.093
11
65.3131
21
-135.902
0
LINE
8
BLACK
6
CONTINUOUS
10
65.3131
20
-135.902
11
65.2179
21
-135.617
0
LINE
8
BLACK
6
CONTINUOUS
10
65.2179
20
-135.617
11
65.1226
21
-135.14
0
LINE
8
BLACK
6
CONTINUOUS
10
65.1226
20
-135.14
11
65.1226
21
-134.759
0
LINE
8
BLACK
6
CONTINUOUS
10
65.1226
20
-134.759
11
65.2179
21
-134.283
0
LINE
8
BLACK
6
CONTINUOUS
10
65.2179
20
-134.283
11
65.3131
21
-133.997
0
LINE
8
BLACK
6
CONTINUOUS
10
65.3131
20
-133.997
11
65.4083
21
-133.807
0
LINE
8
BLACK
6
CONTINUOUS
10
65.4083
20
-133.807
11
65.5988
21
-133.521
0
LINE
8
BLACK
6
CONTINUOUS
10
65.5988
20
-133.521
11
65.694
21
-133.426
0
LINE
8
BLACK
6
CONTINUOUS
10
66.2655
20
-133.712
11
67.5036
21
-133.712
0
LINE
8
BLACK
6
CONTINUOUS
10
67.5036
20
-133.712
11
66.8369
21
-134.474
0
LINE
8
BLACK
6
CONTINUOUS
10
66.8369
20
-134.474
11
67.1226
21
-134.474
0
LINE
8
BLACK
6
CONTINUOUS
10
67.1226
20
-134.474
11
67.3131
21
-134.569
0
LINE
8
BLACK
6
CONTINUOUS
10
67.3131
20
-134.569
11
67.4083
21
-134.664
0
LINE
8
BLACK
6
CONTINUOUS
10
67.4083
20
-134.664
11
67.5036
21
-134.855
0
LINE
8
BLACK
6
CONTINUOUS
10
67.5036
20
-134.855
11
67.5036
21
-135.331
0
LINE
8
BLACK
6
CONTINUOUS
10
67.5036
20
-135.331
11
67.4083
21
-135.521
0
LINE
8
BLACK
6
CONTINUOUS
10
67.4083
20
-135.521
11
67.3131
21
-135.617
0
LINE
8
BLACK
6
CONTINUOUS
10
67.3131
20
-135.617
11
67.1226
21
-135.712
0
LINE
8
BLACK
6
CONTINUOUS
10
67.1226
20
-135.712
11
66.5512
21
-135.712
0
LINE
8
BLACK
6
CONTINUOUS
10
66.5512
20
-135.712
11
66.3607
21
-135.617
0
LINE
8
BLACK
6
CONTINUOUS
10
66.3607
20
-135.617
11
66.2655
21
-135.521
0
LINE
8
BLACK
6
CONTINUOUS
10
69.8845
20
-135.712
11
69.8845
21
-133.712
0
LINE
8
BLACK
6
CONTINUOUS
10
70.7417
20
-135.712
11
70.7417
21
-134.664
0
LINE
8
BLACK
6
CONTINUOUS
10
70.7417
20
-134.664
11
70.6464
21
-134.474
0
LINE
8
BLACK
6
CONTINUOUS
10
70.6464
20
-134.474
11
70.456
21
-134.378
0
LINE
8
BLACK
6
CONTINUOUS
10
70.456
20
-134.378
11
70.1702
21
-134.378
0
LINE
8
BLACK
6
CONTINUOUS
10
70.1702
20
-134.378
11
69.9798
21
-134.474
0
LINE
8
BLACK
6
CONTINUOUS
10
69.9798
20
-134.474
11
69.8845
21
-134.569
0
LINE
8
BLACK
6
CONTINUOUS
10
71.9798
20
-135.712
11
71.7893
21
-135.617
0
LINE
8
BLACK
6
CONTINUOUS
10
71.7893
20
-135.617
11
71.694
21
-135.521
0
LINE
8
BLACK
6
CONTINUOUS
10
71.694
20
-135.521
11
71.5988
21
-135.331
0
LINE
8
BLACK
6
CONTINUOUS
10
71.5988
20
-135.331
11
71.5988
21
-134.759
0
LINE
8
BLACK
6
CONTINUOUS
10
71.5988
20
-134.759
11
71.694
21
-134.569
0
LINE
8
BLACK
6
CONTINUOUS
10
71.694
20
-134.569
11
71.7893
21
-134.474
0
LINE
8
BLACK
6
CONTINUOUS
10
71.7893
20
-134.474
11
71.9798
21
-134.378
0
LINE
8
BLACK
6
CONTINUOUS
10
71.9798
20
-134.378
11
72.2655
21
-134.378
0
LINE
8
BLACK
6
CONTINUOUS
10
72.2655
20
-134.378
11
72.456
21
-134.474
0
LINE
8
BLACK
6
CONTINUOUS
10
72.456
20
-134.474
11
72.5512
21
-134.569
0
LINE
8
BLACK
6
CONTINUOUS
10
72.5512
20
-134.569
11
72.6464
21
-134.759
0
LINE
8
BLACK
6
CONTINUOUS
10
72.6464
20
-134.759
11
72.6464
21
-135.331
0
LINE
8
BLACK
6
CONTINUOUS
10
72.6464
20
-135.331
11
72.5512
21
-135.521
0
LINE
8
BLACK
6
CONTINUOUS
10
72.5512
20
-135.521
11
72.456
21
-135.617
0
LINE
8
BLACK
6
CONTINUOUS
10
72.456
20
-135.617
11
72.2655
21
-135.712
0
LINE
8
BLACK
6
CONTINUOUS
10
72.2655
20
-135.712
11
71.9798
21
-135.712
0
LINE
8
BLACK
6
CONTINUOUS
10
73.7893
20
-135.712
11
73.5988
21
-135.617
0
LINE
8
BLACK
6
CONTINUOUS
10
73.5988
20
-135.617
11
73.5036
21
-135.426
0
LINE
8
BLACK
6
CONTINUOUS
10
73.5036
20
-135.426
11
73.5036
21
-133.712
0
LINE
8
BLACK
6
CONTINUOUS
10
75.3131
20
-135.617
11
75.1226
21
-135.712
0
LINE
8
BLACK
6
CONTINUOUS
10
75.1226
20
-135.712
11
74.7417
21
-135.712
0
LINE
8
BLACK
6
CONTINUOUS
10
74.7417
20
-135.712
11
74.5512
21
-135.617
0
LINE
8
BLACK
6
CONTINUOUS
10
74.5512
20
-135.617
11
74.456
21
-135.426
0
LINE
8
BLACK
6
CONTINUOUS
10
74.456
20
-135.426
11
74.456
21
-134.664
0
LINE
8
BLACK
6
CONTINUOUS
10
74.456
20
-134.664
11
74.5512
21
-134.474
0
LINE
8
BLACK
6
CONTINUOUS
10
74.5512
20
-134.474
11
74.7417
21
-134.378
0
LINE
8
BLACK
6
CONTINUOUS
10
74.7417
20
-134.378
11
75.1226
21
-134.378
0
LINE
8
BLACK
6
CONTINUOUS
10
75.1226
20
-134.378
11
75.3131
21
-134.474
0
LINE
8
BLACK
6
CONTINUOUS
10
75.3131
20
-134.474
11
75.4083
21
-134.664
0
LINE
8
BLACK
6
CONTINUOUS
10
75.4083
20
-134.664
11
75.4083
21
-134.855
0
LINE
8
BLACK
6
CONTINUOUS
10
75.4083
20
-134.855
11
74.456
21
-135.045
0
LINE
8
BLACK
6
CONTINUOUS
10
76.1702
20
-135.617
11
76.3607
21
-135.712
0
LINE
8
BLACK
6
CONTINUOUS
10
76.3607
20
-135.712
11
76.7417
21
-135.712
0
LINE
8
BLACK
6
CONTINUOUS
10
76.7417
20
-135.712
11
76.9321
21
-135.617
0
LINE
8
BLACK
6
CONTINUOUS
10
76.9321
20
-135.617
11
77.0274
21
-135.426
0
LINE
8
BLACK
6
CONTINUOUS
10
77.0274
20
-135.426
11
77.0274
21
-135.331
0
LINE
8
BLACK
6
CONTINUOUS
10
77.0274
20
-135.331
11
76.9321
21
-135.14
0
LINE
8
BLACK
6
CONTINUOUS
10
76.9321
20
-135.14
11
76.7417
21
-135.045
0
LINE
8
BLACK
6
CONTINUOUS
10
76.7417
20
-135.045
11
76.456
21
-135.045
0
LINE
8
BLACK
6
CONTINUOUS
10
76.456
20
-135.045
11
76.2655
21
-134.95
0
LINE
8
BLACK
6
CONTINUOUS
10
76.2655
20
-134.95
11
76.1702
21
-134.759
0
LINE
8
BLACK
6
CONTINUOUS
10
76.1702
20
-134.759
11
76.1702
21
-134.664
0
LINE
8
BLACK
6
CONTINUOUS
10
76.1702
20
-134.664
11
76.2655
21
-134.474
0
LINE
8
BLACK
6
CONTINUOUS
10
76.2655
20
-134.474
11
76.456
21
-134.378
0
LINE
8
BLACK
6
CONTINUOUS
10
76.456
20
-134.378
11
76.7417
21
-134.378
0
LINE
8
BLACK
6
CONTINUOUS
10
76.7417
20
-134.378
11
76.9321
21
-134.474
0
LINE
8
BLACK
6
CONTINUOUS
10
77.694
20
-136.474
11
77.7893
21
-136.378
0
LINE
8
BLACK
6
CONTINUOUS
10
77.7893
20
-136.378
11
77.9798
21
-136.093
0
LINE
8
BLACK
6
CONTINUOUS
10
77.9798
20
-136.093
11
78.075
21
-135.902
0
LINE
8
BLACK
6
CONTINUOUS
10
78.075
20
-135.902
11
78.1702
21
-135.617
0
LINE
8
BLACK
6
CONTINUOUS
10
78.1702
20
-135.617
11
78.2655
21
-135.14
0
LINE
8
BLACK
6
CONTINUOUS
10
78.2655
20
-135.14
11
78.2655
21
-134.759
0
LINE
8
BLACK
6
CONTINUOUS
10
78.2655
20
-134.759
11
78.1702
21
-134.283
0
LINE
8
BLACK
6
CONTINUOUS
10
78.1702
20
-134.283
11
78.075
21
-133.997
0
LINE
8
BLACK
6
CONTINUOUS
10
78.075
20
-133.997
11
77.9798
21
-133.807
0
LINE
8
BLACK
6
CONTINUOUS
10
77.9798
20
-133.807
11
77.7893
21
-133.521
0
LINE
8
BLACK
6
CONTINUOUS
10
77.7893
20
-133.521
11
77.694
21
-133.426
0
LINE
8
BLACK
6
CONTINUOUS
10
28.375
20
-136.647
11
29.975
21
-138.247
0
LINE
8
BLACK
6
CONTINUOUS
10
29.975
20
-136.647
11
28.375
21
-138.247
0
LINE
8
BLACK
6
CONTINUOUS
10
29.7407
20
-138.013
11
29.7407
21
-136.881
0
LINE
8
BLACK
6
CONTINUOUS
10
29.7407
20
-136.881
11
28.6093
21
-136.881
0
LINE
8
BLACK
6
CONTINUOUS
10
28.6093
20
-136.881
11
28.6093
21
-138.013
0
LINE
8
BLACK
6
CONTINUOUS
10
28.6093
20
-138.013
11
29.7407
21
-138.013
0
LINE
8
BLACK
6
CONTINUOUS
10
33.5988
20
-138.352
11
32.456
21
-138.352
0
LINE
8
BLACK
6
CONTINUOUS
10
33.0274
20
-138.352
11
33.0274
21
-136.352
0
LINE
8
BLACK
6
CONTINUOUS
10
33.0274
20
-136.352
11
32.8369
21
-136.637
0
LINE
8
BLACK
6
CONTINUOUS
10
32.8369
20
-136.637
11
32.6464
21
-136.828
0
LINE
8
BLACK
6
CONTINUOUS
10
32.6464
20
-136.828
11
32.456
21
-136.923
0
LINE
8
BLACK
6
CONTINUOUS
10
34.456
20
-138.161
11
34.5512
21
-138.257
0
LINE
8
BLACK
6
CONTINUOUS
10
34.5512
20
-138.257
11
34.456
21
-138.352
0
LINE
8
BLACK
6
CONTINUOUS
10
34.456
20
-138.352
11
34.3607
21
-138.257
0
LINE
8
BLACK
6
CONTINUOUS
10
34.3607
20
-138.257
11
34.456
21
-138.161
0
LINE
8
BLACK
6
CONTINUOUS
10
34.456
20
-138.161
11
34.456
21
-138.352
0
LINE
8
BLACK
6
CONTINUOUS
10
36.2655
20
-136.352
11
35.8845
21
-136.352
0
LINE
8
BLACK
6
CONTINUOUS
10
35.8845
20
-136.352
11
35.694
21
-136.447
0
LINE
8
BLACK
6
CONTINUOUS
10
35.694
20
-136.447
11
35.5988
21
-136.542
0
LINE
8
BLACK
6
CONTINUOUS
10
35.5988
20
-136.542
11
35.4083
21
-136.828
0
LINE
8
BLACK
6
CONTINUOUS
10
35.4083
20
-136.828
11
35.3131
21
-137.209
0
LINE
8
BLACK
6
CONTINUOUS
10
35.3131
20
-137.209
11
35.3131
21
-137.971
0
LINE
8
BLACK
6
CONTINUOUS
10
35.3131
20
-137.971
11
35.4083
21
-138.161
0
LINE
8
BLACK
6
CONTINUOUS
10
35.4083
20
-138.161
11
35.5036
21
-138.257
0
LINE
8
BLACK
6
CONTINUOUS
10
35.5036
20
-138.257
11
35.694
21
-138.352
0
LINE
8
BLACK
6
CONTINUOUS
10
35.694
20
-138.352
11
36.075
21
-138.352
0
LINE
8
BLACK
6
CONTINUOUS
10
36.075
20
-138.352
11
36.2655
21
-138.257
0
LINE
8
BLACK
6
CONTINUOUS
10
36.2655
20
-138.257
11
36.3607
21
-138.161
0
LINE
8
BLACK
6
CONTINUOUS
10
36.3607
20
-138.161
11
36.456
21
-137.971
0
LINE
8
BLACK
6
CONTINUOUS
10
36.456
20
-137.971
11
36.456
21
-137.495
0
LINE
8
BLACK
6
CONTINUOUS
10
36.456
20
-137.495
11
36.3607
21
-137.304
0
LINE
8
BLACK
6
CONTINUOUS
10
36.3607
20
-137.304
11
36.2655
21
-137.209
0
LINE
8
BLACK
6
CONTINUOUS
10
36.2655
20
-137.209
11
36.075
21
-137.114
0
LINE
8
BLACK
6
CONTINUOUS
10
36.075
20
-137.114
11
35.694
21
-137.114
0
LINE
8
BLACK
6
CONTINUOUS
10
35.694
20
-137.114
11
35.5036
21
-137.209
0
LINE
8
BLACK
6
CONTINUOUS
10
35.5036
20
-137.209
11
35.4083
21
-137.304
0
LINE
8
BLACK
6
CONTINUOUS
10
35.4083
20
-137.304
11
35.3131
21
-137.495
0
LINE
8
BLACK
6
CONTINUOUS
10
37.694
20
-136.352
11
37.8845
21
-136.352
0
LINE
8
BLACK
6
CONTINUOUS
10
37.8845
20
-136.352
11
38.075
21
-136.447
0
LINE
8
BLACK
6
CONTINUOUS
10
38.075
20
-136.447
11
38.1702
21
-136.542
0
LINE
8
BLACK
6
CONTINUOUS
10
38.1702
20
-136.542
11
38.2655
21
-136.733
0
LINE
8
BLACK
6
CONTINUOUS
10
38.2655
20
-136.733
11
38.3607
21
-137.114
0
LINE
8
BLACK
6
CONTINUOUS
10
38.3607
20
-137.114
11
38.3607
21
-137.59
0
LINE
8
BLACK
6
CONTINUOUS
10
38.3607
20
-137.59
11
38.2655
21
-137.971
0
LINE
8
BLACK
6
CONTINUOUS
10
38.2655
20
-137.971
11
38.1702
21
-138.161
0
LINE
8
BLACK
6
CONTINUOUS
10
38.1702
20
-138.161
11
38.075
21
-138.257
0
LINE
8
BLACK
6
CONTINUOUS
10
38.075
20
-138.257
11
37.8845
21
-138.352
0
LINE
8
BLACK
6
CONTINUOUS
10
37.8845
20
-138.352
11
37.694
21
-138.352
0
LINE
8
BLACK
6
CONTINUOUS
10
37.694
20
-138.352
11
37.5036
21
-138.257
0
LINE
8
BLACK
6
CONTINUOUS
10
37.5036
20
-138.257
11
37.4083
21
-138.161
0
LINE
8
BLACK
6
CONTINUOUS
10
37.4083
20
-138.161
11
37.3131
21
-137.971
0
LINE
8
BLACK
6
CONTINUOUS
10
37.3131
20
-137.971
11
37.2179
21
-137.59
0
LINE
8
BLACK
6
CONTINUOUS
10
37.2179
20
-137.59
11
37.2179
21
-137.114
0
LINE
8
BLACK
6
CONTINUOUS
10
37.2179
20
-137.114
11
37.3131
21
-136.733
0
LINE
8
BLACK
6
CONTINUOUS
10
37.3131
20
-136.733
11
37.4083
21
-136.542
0
LINE
8
BLACK
6
CONTINUOUS
10
37.4083
20
-136.542
11
37.5036
21
-136.447
0
LINE
8
BLACK
6
CONTINUOUS
10
37.5036
20
-136.447
11
37.694
21
-136.352
0
LINE
8
BLACK
6
CONTINUOUS
10
39.5988
20
-136.352
11
39.7893
21
-136.352
0
LINE
8
BLACK
6
CONTINUOUS
10
39.7893
20
-136.352
11
39.9798
21
-136.447
0
LINE
8
BLACK
6
CONTINUOUS
10
39.9798
20
-136.447
11
40.075
21
-136.542
0
LINE
8
BLACK
6
CONTINUOUS
10
40.075
20
-136.542
11
40.1702
21
-136.733
0
LINE
8
BLACK
6
CONTINUOUS
10
40.1702
20
-136.733
11
40.2655
21
-137.114
0
LINE
8
BLACK
6
CONTINUOUS
10
40.2655
20
-137.114
11
40.2655
21
-137.59
0
LINE
8
BLACK
6
CONTINUOUS
10
40.2655
20
-137.59
11
40.1702
21
-137.971
0
LINE
8
BLACK
6
CONTINUOUS
10
40.1702
20
-137.971
11
40.075
21
-138.161
0
LINE
8
BLACK
6
CONTINUOUS
10
40.075
20
-138.161
11
39.9798
21
-138.257
0
LINE
8
BLACK
6
CONTINUOUS
10
39.9798
20
-138.257
11
39.7893
21
-138.352
0
LINE
8
BLACK
6
CONTINUOUS
10
39.7893
20
-138.352
11
39.5988
21
-138.352
0
LINE
8
BLACK
6
CONTINUOUS
10
39.5988
20
-138.352
11
39.4083
21
-138.257
0
LINE
8
BLACK
6
CONTINUOUS
10
39.4083
20
-138.257
11
39.3131
21
-138.161
0
LINE
8
BLACK
6
CONTINUOUS
10
39.3131
20
-138.161
11
39.2179
21
-137.971
0
LINE
8
BLACK
6
CONTINUOUS
10
39.2179
20
-137.971
11
39.1226
21
-137.59
0
LINE
8
BLACK
6
CONTINUOUS
10
39.1226
20
-137.59
11
39.1226
21
-137.114
0
LINE
8
BLACK
6
CONTINUOUS
10
39.1226
20
-137.114
11
39.2179
21
-136.733
0
LINE
8
BLACK
6
CONTINUOUS
10
39.2179
20
-136.733
11
39.3131
21
-136.542
0
LINE
8
BLACK
6
CONTINUOUS
10
39.3131
20
-136.542
11
39.4083
21
-136.447
0
LINE
8
BLACK
6
CONTINUOUS
10
39.4083
20
-136.447
11
39.5988
21
-136.352
0
LINE
8
BLACK
6
CONTINUOUS
10
41.1226
20
-138.352
11
41.1226
21
-137.018
0
LINE
8
BLACK
6
CONTINUOUS
10
41.1226
20
-137.209
11
41.2179
21
-137.114
0
LINE
8
BLACK
6
CONTINUOUS
10
41.2179
20
-137.114
11
41.4083
21
-137.018
0
LINE
8
BLACK
6
CONTINUOUS
10
41.4083
20
-137.018
11
41.694
21
-137.018
0
LINE
8
BLACK
6
CONTINUOUS
10
41.694
20
-137.018
11
41.8845
21
-137.114
0
LINE
8
BLACK
6
CONTINUOUS
10
41.8845
20
-137.114
11
41.9798
21
-137.304
0
LINE
8
BLACK
6
CONTINUOUS
10
41.9798
20
-137.304
11
41.9798
21
-138.352
0
LINE
8
BLACK
6
CONTINUOUS
10
41.9798
20
-137.304
11
42.075
21
-137.114
0
LINE
8
BLACK
6
CONTINUOUS
10
42.075
20
-137.114
11
42.2655
21
-137.018
0
LINE
8
BLACK
6
CONTINUOUS
10
42.2655
20
-137.018
11
42.5512
21
-137.018
0
LINE
8
BLACK
6
CONTINUOUS
10
42.5512
20
-137.018
11
42.7417
21
-137.114
0
LINE
8
BLACK
6
CONTINUOUS
10
42.7417
20
-137.114
11
42.8369
21
-137.304
0
LINE
8
BLACK
6
CONTINUOUS
10
42.8369
20
-137.304
11
42.8369
21
-138.352
0
LINE
8
BLACK
6
CONTINUOUS
10
43.7893
20
-138.352
11
43.7893
21
-137.018
0
LINE
8
BLACK
6
CONTINUOUS
10
43.7893
20
-137.209
11
43.8845
21
-137.114
0
LINE
8
BLACK
6
CONTINUOUS
10
43.8845
20
-137.114
11
44.075
21
-137.018
0
LINE
8
BLACK
6
CONTINUOUS
10
44.075
20
-137.018
11
44.3607
21
-137.018
0
LINE
8
BLACK
6
CONTINUOUS
10
44.3607
20
-137.018
11
44.5512
21
-137.114
0
LINE
8
BLACK
6
CONTINUOUS
10
44.5512
20
-137.114
11
44.6464
21
-137.304
0
LINE
8
BLACK
6
CONTINUOUS
10
44.6464
20
-137.304
11
44.6464
21
-138.352
0
LINE
8
BLACK
6
CONTINUOUS
10
44.6464
20
-137.304
11
44.7417
21
-137.114
0
LINE
8
BLACK
6
CONTINUOUS
10
44.7417
20
-137.114
11
44.9321
21
-137.018
0
LINE
8
BLACK
6
CONTINUOUS
10
44.9321
20
-137.018
11
45.2179
21
-137.018
0
LINE
8
BLACK
6
CONTINUOUS
10
45.2179
20
-137.018
11
45.4083
21
-137.114
0
LINE
8
BLACK
6
CONTINUOUS
10
45.4083
20
-137.114
11
45.5036
21
-137.304
0
LINE
8
BLACK
6
CONTINUOUS
10
45.5036
20
-137.304
11
45.5036
21
-138.352
0
LINE
8
BLACK
6
CONTINUOUS
10
49.4083
20
-136.257
11
47.694
21
-138.828
0
LINE
8
BLACK
6
CONTINUOUS
10
51.9798
20
-136.352
11
52.1702
21
-136.352
0
LINE
8
BLACK
6
CONTINUOUS
10
52.1702
20
-136.352
11
52.3607
21
-136.447
0
LINE
8
BLACK
6
CONTINUOUS
10
52.3607
20
-136.447
11
52.456
21
-136.542
0
LINE
8
BLACK
6
CONTINUOUS
10
52.456
20
-136.542
11
52.5512
21
-136.733
0
LINE
8
BLACK
6
CONTINUOUS
10
52.5512
20
-136.733
11
52.6464
21
-137.114
0
LINE
8
BLACK
6
CONTINUOUS
10
52.6464
20
-137.114
11
52.6464
21
-137.59
0
LINE
8
BLACK
6
CONTINUOUS
10
52.6464
20
-137.59
11
52.5512
21
-137.971
0
LINE
8
BLACK
6
CONTINUOUS
10
52.5512
20
-137.971
11
52.456
21
-138.161
0
LINE
8
BLACK
6
CONTINUOUS
10
52.456
20
-138.161
11
52.3607
21
-138.257
0
LINE
8
BLACK
6
CONTINUOUS
10
52.3607
20
-138.257
11
52.1702
21
-138.352
0
LINE
8
BLACK
6
CONTINUOUS
10
52.1702
20
-138.352
11
51.9798
21
-138.352
0
LINE
8
BLACK
6
CONTINUOUS
10
51.9798
20
-138.352
11
51.7893
21
-138.257
0
LINE
8
BLACK
6
CONTINUOUS
10
51.7893
20
-138.257
11
51.694
21
-138.161
0
LINE
8
BLACK
6
CONTINUOUS
10
51.694
20
-138.161
11
51.5988
21
-137.971
0
LINE
8
BLACK
6
CONTINUOUS
10
51.5988
20
-137.971
11
51.5036
21
-137.59
0
LINE
8
BLACK
6
CONTINUOUS
10
51.5036
20
-137.59
11
51.5036
21
-137.114
0
LINE
8
BLACK
6
CONTINUOUS
10
51.5036
20
-137.114
11
51.5988
21
-136.733
0
LINE
8
BLACK
6
CONTINUOUS
10
51.5988
20
-136.733
11
51.694
21
-136.542
0
LINE
8
BLACK
6
CONTINUOUS
10
51.694
20
-136.542
11
51.7893
21
-136.447
0
LINE
8
BLACK
6
CONTINUOUS
10
51.7893
20
-136.447
11
51.9798
21
-136.352
0
LINE
8
BLACK
6
CONTINUOUS
10
53.5036
20
-138.161
11
53.5988
21
-138.257
0
LINE
8
BLACK
6
CONTINUOUS
10
53.5988
20
-138.257
11
53.5036
21
-138.352
0
LINE
8
BLACK
6
CONTINUOUS
10
53.5036
20
-138.352
11
53.4083
21
-138.257
0
LINE
8
BLACK
6
CONTINUOUS
10
53.4083
20
-138.257
11
53.5036
21
-138.161
0
LINE
8
BLACK
6
CONTINUOUS
10
53.5036
20
-138.161
11
53.5036
21
-138.352
0
LINE
8
BLACK
6
CONTINUOUS
10
54.8369
20
-136.352
11
55.0274
21
-136.352
0
LINE
8
BLACK
6
CONTINUOUS
10
55.0274
20
-136.352
11
55.2179
21
-136.447
0
LINE
8
BLACK
6
CONTINUOUS
10
55.2179
20
-136.447
11
55.3131
21
-136.542
0
LINE
8
BLACK
6
CONTINUOUS
10
55.3131
20
-136.542
11
55.4083
21
-136.733
0
LINE
8
BLACK
6
CONTINUOUS
10
55.4083
20
-136.733
11
55.5036
21
-137.114
0
LINE
8
BLACK
6
CONTINUOUS
10
55.5036
20
-137.114
11
55.5036
21
-137.59
0
LINE
8
BLACK
6
CONTINUOUS
10
55.5036
20
-137.59
11
55.4083
21
-137.971
0
LINE
8
BLACK
6
CONTINUOUS
10
55.4083
20
-137.971
11
55.3131
21
-138.161
0
LINE
8
BLACK
6
CONTINUOUS
10
55.3131
20
-138.161
11
55.2179
21
-138.257
0
LINE
8
BLACK
6
CONTINUOUS
10
55.2179
20
-138.257
11
55.0274
21
-138.352
0
LINE
8
BLACK
6
CONTINUOUS
10
55.0274
20
-138.352
11
54.8369
21
-138.352
0
LINE
8
BLACK
6
CONTINUOUS
10
54.8369
20
-138.352
11
54.6464
21
-138.257
0
LINE
8
BLACK
6
CONTINUOUS
10
54.6464
20
-138.257
11
54.5512
21
-138.161
0
LINE
8
BLACK
6
CONTINUOUS
10
54.5512
20
-138.161
11
54.456
21
-137.971
0
LINE
8
BLACK
6
CONTINUOUS
10
54.456
20
-137.971
11
54.3607
21
-137.59
0
LINE
8
BLACK
6
CONTINUOUS
10
54.3607
20
-137.59
11
54.3607
21
-137.114
0
LINE
8
BLACK
6
CONTINUOUS
10
54.3607
20
-137.114
11
54.456
21
-136.733
0
LINE
8
BLACK
6
CONTINUOUS
10
54.456
20
-136.733
11
54.5512
21
-136.542
0
LINE
8
BLACK
6
CONTINUOUS
10
54.5512
20
-136.542
11
54.6464
21
-136.447
0
LINE
8
BLACK
6
CONTINUOUS
10
54.6464
20
-136.447
11
54.8369
21
-136.352
0
LINE
8
BLACK
6
CONTINUOUS
10
57.2179
20
-136.352
11
56.8369
21
-136.352
0
LINE
8
BLACK
6
CONTINUOUS
10
56.8369
20
-136.352
11
56.6464
21
-136.447
0
LINE
8
BLACK
6
CONTINUOUS
10
56.6464
20
-136.447
11
56.5512
21
-136.542
0
LINE
8
BLACK
6
CONTINUOUS
10
56.5512
20
-136.542
11
56.3607
21
-136.828
0
LINE
8
BLACK
6
CONTINUOUS
10
56.3607
20
-136.828
11
56.2655
21
-137.209
0
LINE
8
BLACK
6
CONTINUOUS
10
56.2655
20
-137.209
11
56.2655
21
-137.971
0
LINE
8
BLACK
6
CONTINUOUS
10
56.2655
20
-137.971
11
56.3607
21
-138.161
0
LINE
8
BLACK
6
CONTINUOUS
10
56.3607
20
-138.161
11
56.456
21
-138.257
0
LINE
8
BLACK
6
CONTINUOUS
10
56.456
20
-138.257
11
56.6464
21
-138.352
0
LINE
8
BLACK
6
CONTINUOUS
10
56.6464
20
-138.352
11
57.0274
21
-138.352
0
LINE
8
BLACK
6
CONTINUOUS
10
57.0274
20
-138.352
11
57.2179
21
-138.257
0
LINE
8
BLACK
6
CONTINUOUS
10
57.2179
20
-138.257
11
57.3131
21
-138.161
0
LINE
8
BLACK
6
CONTINUOUS
10
57.3131
20
-138.161
11
57.4083
21
-137.971
0
LINE
8
BLACK
6
CONTINUOUS
10
57.4083
20
-137.971
11
57.4083
21
-137.495
0
LINE
8
BLACK
6
CONTINUOUS
10
57.4083
20
-137.495
11
57.3131
21
-137.304
0
LINE
8
BLACK
6
CONTINUOUS
10
57.3131
20
-137.304
11
57.2179
21
-137.209
0
LINE
8
BLACK
6
CONTINUOUS
10
57.2179
20
-137.209
11
57.0274
21
-137.114
0
LINE
8
BLACK
6
CONTINUOUS
10
57.0274
20
-137.114
11
56.6464
21
-137.114
0
LINE
8
BLACK
6
CONTINUOUS
10
56.6464
20
-137.114
11
56.456
21
-137.209
0
LINE
8
BLACK
6
CONTINUOUS
10
56.456
20
-137.209
11
56.3607
21
-137.304
0
LINE
8
BLACK
6
CONTINUOUS
10
56.3607
20
-137.304
11
56.2655
21
-137.495
0
LINE
8
BLACK
6
CONTINUOUS
10
58.075
20
-136.352
11
59.3131
21
-136.352
0
LINE
8
BLACK
6
CONTINUOUS
10
59.3131
20
-136.352
11
58.6464
21
-137.114
0
LINE
8
BLACK
6
CONTINUOUS
10
58.6464
20
-137.114
11
58.9321
21
-137.114
0
LINE
8
BLACK
6
CONTINUOUS
10
58.9321
20
-137.114
11
59.1226
21
-137.209
0
LINE
8
BLACK
6
CONTINUOUS
10
59.1226
20
-137.209
11
59.2179
21
-137.304
0
LINE
8
BLACK
6
CONTINUOUS
10
59.2179
20
-137.304
11
59.3131
21
-137.495
0
LINE
8
BLACK
6
CONTINUOUS
10
59.3131
20
-137.495
11
59.3131
21
-137.971
0
LINE
8
BLACK
6
CONTINUOUS
10
59.3131
20
-137.971
11
59.2179
21
-138.161
0
LINE
8
BLACK
6
CONTINUOUS
10
59.2179
20
-138.161
11
59.1226
21
-138.257
0
LINE
8
BLACK
6
CONTINUOUS
10
59.1226
20
-138.257
11
58.9321
21
-138.352
0
LINE
8
BLACK
6
CONTINUOUS
10
58.9321
20
-138.352
11
58.3607
21
-138.352
0
LINE
8
BLACK
6
CONTINUOUS
10
58.3607
20
-138.352
11
58.1702
21
-138.257
0
LINE
8
BLACK
6
CONTINUOUS
10
58.1702
20
-138.257
11
58.075
21
-138.161
0
LINE
8
BLACK
6
CONTINUOUS
10
60.5512
20
-136.352
11
60.7417
21
-136.352
0
LINE
8
BLACK
6
CONTINUOUS
10
60.7417
20
-136.352
11
60.9321
21
-136.447
0
LINE
8
BLACK
6
CONTINUOUS
10
60.9321
20
-136.447
11
61.0274
21
-136.542
0
LINE
8
BLACK
6
CONTINUOUS
10
61.0274
20
-136.542
11
61.1226
21
-136.733
0
LINE
8
BLACK
6
CONTINUOUS
10
61.1226
20
-136.733
11
61.2179
21
-137.114
0
LINE
8
BLACK
6
CONTINUOUS
10
61.2179
20
-137.114
11
61.2179
21
-137.59
0
LINE
8
BLACK
6
CONTINUOUS
10
61.2179
20
-137.59
11
61.1226
21
-137.971
0
LINE
8
BLACK
6
CONTINUOUS
10
61.1226
20
-137.971
11
61.0274
21
-138.161
0
LINE
8
BLACK
6
CONTINUOUS
10
61.0274
20
-138.161
11
60.9321
21
-138.257
0
LINE
8
BLACK
6
CONTINUOUS
10
60.9321
20
-138.257
11
60.7417
21
-138.352
0
LINE
8
BLACK
6
CONTINUOUS
10
60.7417
20
-138.352
11
60.5512
21
-138.352
0
LINE
8
BLACK
6
CONTINUOUS
10
60.5512
20
-138.352
11
60.3607
21
-138.257
0
LINE
8
BLACK
6
CONTINUOUS
10
60.3607
20
-138.257
11
60.2655
21
-138.161
0
LINE
8
BLACK
6
CONTINUOUS
10
60.2655
20
-138.161
11
60.1702
21
-137.971
0
LINE
8
BLACK
6
CONTINUOUS
10
60.1702
20
-137.971
11
60.075
21
-137.59
0
LINE
8
BLACK
6
CONTINUOUS
10
60.075
20
-137.59
11
60.075
21
-137.114
0
LINE
8
BLACK
6
CONTINUOUS
10
60.075
20
-137.114
11
60.1702
21
-136.733
0
LINE
8
BLACK
6
CONTINUOUS
10
60.1702
20
-136.733
11
60.2655
21
-136.542
0
LINE
8
BLACK
6
CONTINUOUS
10
60.2655
20
-136.542
11
60.3607
21
-136.447
0
LINE
8
BLACK
6
CONTINUOUS
10
60.3607
20
-136.447
11
60.5512
21
-136.352
0
LINE
8
BLACK
6
CONTINUOUS
10
61.9798
20
-136.352
11
61.9798
21
-136.733
0
LINE
8
BLACK
6
CONTINUOUS
10
62.7417
20
-136.352
11
62.7417
21
-136.733
0
LINE
8
BLACK
6
CONTINUOUS
10
65.694
20
-139.114
11
65.5988
21
-139.018
0
LINE
8
BLACK
6
CONTINUOUS
10
65.5988
20
-139.018
11
65.4083
21
-138.733
0
LINE
8
BLACK
6
CONTINUOUS
10
65.4083
20
-138.733
11
65.3131
21
-138.542
0
LINE
8
BLACK
6
CONTINUOUS
10
65.3131
20
-138.542
11
65.2179
21
-138.257
0
LINE
8
BLACK
6
CONTINUOUS
10
65.2179
20
-138.257
11
65.1226
21
-137.78
0
LINE
8
BLACK
6
CONTINUOUS
10
65.1226
20
-137.78
11
65.1226
21
-137.399
0
LINE
8
BLACK
6
CONTINUOUS
10
65.1226
20
-137.399
11
65.2179
21
-136.923
0
LINE
8
BLACK
6
CONTINUOUS
10
65.2179
20
-136.923
11
65.3131
21
-136.637
0
LINE
8
BLACK
6
CONTINUOUS
10
65.3131
20
-136.637
11
65.4083
21
-136.447
0
LINE
8
BLACK
6
CONTINUOUS
10
65.4083
20
-136.447
11
65.5988
21
-136.161
0
LINE
8
BLACK
6
CONTINUOUS
10
65.5988
20
-136.161
11
65.694
21
-136.066
0
LINE
8
BLACK
6
CONTINUOUS
10
67.5036
20
-138.352
11
66.3607
21
-138.352
0
LINE
8
BLACK
6
CONTINUOUS
10
66.9321
20
-138.352
11
66.9321
21
-136.352
0
LINE
8
BLACK
6
CONTINUOUS
10
66.9321
20
-136.352
11
66.7417
21
-136.637
0
LINE
8
BLACK
6
CONTINUOUS
10
66.7417
20
-136.637
11
66.5512
21
-136.828
0
LINE
8
BLACK
6
CONTINUOUS
10
66.5512
20
-136.828
11
66.3607
21
-136.923
0
LINE
8
BLACK
6
CONTINUOUS
10
69.8845
20
-138.352
11
69.8845
21
-136.352
0
LINE
8
BLACK
6
CONTINUOUS
10
70.7417
20
-138.352
11
70.7417
21
-137.304
0
LINE
8
BLACK
6
CONTINUOUS
10
70.7417
20
-137.304
11
70.6464
21
-137.114
0
LINE
8
BLACK
6
CONTINUOUS
10
70.6464
20
-137.114
11
70.456
21
-137.018
0
LINE
8
BLACK
6
CONTINUOUS
10
70.456
20
-137.018
11
70.1702
21
-137.018
0
LINE
8
BLACK
6
CONTINUOUS
10
70.1702
20
-137.018
11
69.9798
21
-137.114
0
LINE
8
BLACK
6
CONTINUOUS
10
69.9798
20
-137.114
11
69.8845
21
-137.209
0
LINE
8
BLACK
6
CONTINUOUS
10
71.9798
20
-138.352
11
71.7893
21
-138.257
0
LINE
8
BLACK
6
CONTINUOUS
10
71.7893
20
-138.257
11
71.694
21
-138.161
0
LINE
8
BLACK
6
CONTINUOUS
10
71.694
20
-138.161
11
71.5988
21
-137.971
0
LINE
8
BLACK
6
CONTINUOUS
10
71.5988
20
-137.971
11
71.5988
21
-137.399
0
LINE
8
BLACK
6
CONTINUOUS
10
71.5988
20
-137.399
11
71.694
21
-137.209
0
LINE
8
BLACK
6
CONTINUOUS
10
71.694
20
-137.209
11
71.7893
21
-137.114
0
LINE
8
BLACK
6
CONTINUOUS
10
71.7893
20
-137.114
11
71.9798
21
-137.018
0
LINE
8
BLACK
6
CONTINUOUS
10
71.9798
20
-137.018
11
72.2655
21
-137.018
0
LINE
8
BLACK
6
CONTINUOUS
10
72.2655
20
-137.018
11
72.456
21
-137.114
0
LINE
8
BLACK
6
CONTINUOUS
10
72.456
20
-137.114
11
72.5512
21
-137.209
0
LINE
8
BLACK
6
CONTINUOUS
10
72.5512
20
-137.209
11
72.6464
21
-137.399
0
LINE
8
BLACK
6
CONTINUOUS
10
72.6464
20
-137.399
11
72.6464
21
-137.971
0
LINE
8
BLACK
6
CONTINUOUS
10
72.6464
20
-137.971
11
72.5512
21
-138.161
0
LINE
8
BLACK
6
CONTINUOUS
10
72.5512
20
-138.161
11
72.456
21
-138.257
0
LINE
8
BLACK
6
CONTINUOUS
10
72.456
20
-138.257
11
72.2655
21
-138.352
0
LINE
8
BLACK
6
CONTINUOUS
10
72.2655
20
-138.352
11
71.9798
21
-138.352
0
LINE
8
BLACK
6
CONTINUOUS
10
73.7893
20
-138.352
11
73.5988
21
-138.257
0
LINE
8
BLACK
6
CONTINUOUS
10
73.5988
20
-138.257
11
73.5036
21
-138.066
0
LINE
8
BLACK
6
CONTINUOUS
10
73.5036
20
-138.066
11
73.5036
21
-136.352
0
LINE
8
BLACK
6
CONTINUOUS
10
75.3131
20
-138.257
11
75.1226
21
-138.352
0
LINE
8
BLACK
6
CONTINUOUS
10
75.1226
20
-138.352
11
74.7417
21
-138.352
0
LINE
8
BLACK
6
CONTINUOUS
10
74.7417
20
-138.352
11
74.5512
21
-138.257
0
LINE
8
BLACK
6
CONTINUOUS
10
74.5512
20
-138.257
11
74.456
21
-138.066
0
LINE
8
BLACK
6
CONTINUOUS
10
74.456
20
-138.066
11
74.456
21
-137.304
0
LINE
8
BLACK
6
CONTINUOUS
10
74.456
20
-137.304
11
74.5512
21
-137.114
0
LINE
8
BLACK
6
CONTINUOUS
10
74.5512
20
-137.114
11
74.7417
21
-137.018
0
LINE
8
BLACK
6
CONTINUOUS
10
74.7417
20
-137.018
11
75.1226
21
-137.018
0
LINE
8
BLACK
6
CONTINUOUS
10
75.1226
20
-137.018
11
75.3131
21
-137.114
0
LINE
8
BLACK
6
CONTINUOUS
10
75.3131
20
-137.114
11
75.4083
21
-137.304
0
LINE
8
BLACK
6
CONTINUOUS
10
75.4083
20
-137.304
11
75.4083
21
-137.495
0
LINE
8
BLACK
6
CONTINUOUS
10
75.4083
20
-137.495
11
74.456
21
-137.685
0
LINE
8
BLACK
6
CONTINUOUS
10
76.075
20
-139.114
11
76.1702
21
-139.018
0
LINE
8
BLACK
6
CONTINUOUS
10
76.1702
20
-139.018
11
76.3607
21
-138.733
0
LINE
8
BLACK
6
CONTINUOUS
10
76.3607
20
-138.733
11
76.456
21
-138.542
0
LINE
8
BLACK
6
CONTINUOUS
10
76.456
20
-138.542
11
76.5512
21
-138.257
0
LINE
8
BLACK
6
CONTINUOUS
10
76.5512
20
-138.257
11
76.6464
21
-137.78
0
LINE
8
BLACK
6
CONTINUOUS
10
76.6464
20
-137.78
11
76.6464
21
-137.399
0
LINE
8
BLACK
6
CONTINUOUS
10
76.6464
20
-137.399
11
76.5512
21
-136.923
0
LINE
8
BLACK
6
CONTINUOUS
10
76.5512
20
-136.923
11
76.456
21
-136.637
0
LINE
8
BLACK
6
CONTINUOUS
10
76.456
20
-136.637
11
76.3607
21
-136.447
0
LINE
8
BLACK
6
CONTINUOUS
10
76.3607
20
-136.447
11
76.1702
21
-136.161
0
LINE
8
BLACK
6
CONTINUOUS
10
76.1702
20
-136.161
11
76.075
21
-136.066
0
LINE
8
BLACK
6
CONTINUOUS
10
27.975
20
-139.247
11
29.975
21
-141.247
0
LINE
8
BLACK
6
CONTINUOUS
10
29.975
20
-139.247
11
27.975
21
-141.247
0
LINE
8
BLACK
6
CONTINUOUS
10
28.975
20
-141.247
11
29.975
21
-140.247
0
LINE
8
BLACK
6
CONTINUOUS
10
29.975
20
-140.247
11
28.975
21
-139.247
0
LINE
8
BLACK
6
CONTINUOUS
10
28.975
20
-139.247
11
27.975
21
-140.247
0
LINE
8
BLACK
6
CONTINUOUS
10
27.975
20
-140.247
11
28.975
21
-141.247
0
LINE
8
BLACK
6
CONTINUOUS
10
32.456
20
-139.342
11
32.5512
21
-139.247
0
LINE
8
BLACK
6
CONTINUOUS
10
32.5512
20
-139.247
11
32.7417
21
-139.152
0
LINE
8
BLACK
6
CONTINUOUS
10
32.7417
20
-139.152
11
33.2179
21
-139.152
0
LINE
8
BLACK
6
CONTINUOUS
10
33.2179
20
-139.152
11
33.4083
21
-139.247
0
LINE
8
BLACK
6
CONTINUOUS
10
33.4083
20
-139.247
11
33.5036
21
-139.342
0
LINE
8
BLACK
6
CONTINUOUS
10
33.5036
20
-139.342
11
33.5988
21
-139.533
0
LINE
8
BLACK
6
CONTINUOUS
10
33.5988
20
-139.533
11
33.5988
21
-139.723
0
LINE
8
BLACK
6
CONTINUOUS
10
33.5988
20
-139.723
11
33.5036
21
-140.009
0
LINE
8
BLACK
6
CONTINUOUS
10
33.5036
20
-140.009
11
32.3607
21
-141.152
0
LINE
8
BLACK
6
CONTINUOUS
10
32.3607
20
-141.152
11
33.5988
21
-141.152
0
LINE
8
BLACK
6
CONTINUOUS
10
34.456
20
-140.961
11
34.5512
21
-141.057
0
LINE
8
BLACK
6
CONTINUOUS
10
34.5512
20
-141.057
11
34.456
21
-141.152
0
LINE
8
BLACK
6
CONTINUOUS
10
34.456
20
-141.152
11
34.3607
21
-141.057
0
LINE
8
BLACK
6
CONTINUOUS
10
34.3607
20
-141.057
11
34.456
21
-140.961
0
LINE
8
BLACK
6
CONTINUOUS
10
34.456
20
-140.961
11
34.456
21
-141.152
0
LINE
8
BLACK
6
CONTINUOUS
10
35.3131
20
-139.342
11
35.4083
21
-139.247
0
LINE
8
BLACK
6
CONTINUOUS
10
35.4083
20
-139.247
11
35.5988
21
-139.152
0
LINE
8
BLACK
6
CONTINUOUS
10
35.5988
20
-139.152
11
36.075
21
-139.152
0
LINE
8
BLACK
6
CONTINUOUS
10
36.075
20
-139.152
11
36.2655
21
-139.247
0
LINE
8
BLACK
6
CONTINUOUS
10
36.2655
20
-139.247
11
36.3607
21
-139.342
0
LINE
8
BLACK
6
CONTINUOUS
10
36.3607
20
-139.342
11
36.456
21
-139.533
0
LINE
8
BLACK
6
CONTINUOUS
10
36.456
20
-139.533
11
36.456
21
-139.723
0
LINE
8
BLACK
6
CONTINUOUS
10
36.456
20
-139.723
11
36.3607
21
-140.009
0
LINE
8
BLACK
6
CONTINUOUS
10
36.3607
20
-140.009
11
35.2179
21
-141.152
0
LINE
8
BLACK
6
CONTINUOUS
10
35.2179
20
-141.152
11
36.456
21
-141.152
0
LINE
8
BLACK
6
CONTINUOUS
10
37.694
20
-139.152
11
37.8845
21
-139.152
0
LINE
8
BLACK
6
CONTINUOUS
10
37.8845
20
-139.152
11
38.075
21
-139.247
0
LINE
8
BLACK
6
CONTINUOUS
10
38.075
20
-139.247
11
38.1702
21
-139.342
0
LINE
8
BLACK
6
CONTINUOUS
10
38.1702
20
-139.342
11
38.2655
21
-139.533
0
LINE
8
BLACK
6
CONTINUOUS
10
38.2655
20
-139.533
11
38.3607
21
-139.914
0
LINE
8
BLACK
6
CONTINUOUS
10
38.3607
20
-139.914
11
38.3607
21
-140.39
0
LINE
8
BLACK
6
CONTINUOUS
10
38.3607
20
-140.39
11
38.2655
21
-140.771
0
LINE
8
BLACK
6
CONTINUOUS
10
38.2655
20
-140.771
11
38.1702
21
-140.961
0
LINE
8
BLACK
6
CONTINUOUS
10
38.1702
20
-140.961
11
38.075
21
-141.057
0
LINE
8
BLACK
6
CONTINUOUS
10
38.075
20
-141.057
11
37.8845
21
-141.152
0
LINE
8
BLACK
6
CONTINUOUS
10
37.8845
20
-141.152
11
37.694
21
-141.152
0
LINE
8
BLACK
6
CONTINUOUS
10
37.694
20
-141.152
11
37.5036
21
-141.057
0
LINE
8
BLACK
6
CONTINUOUS
10
37.5036
20
-141.057
11
37.4083
21
-140.961
0
LINE
8
BLACK
6
CONTINUOUS
10
37.4083
20
-140.961
11
37.3131
21
-140.771
0
LINE
8
BLACK
6
CONTINUOUS
10
37.3131
20
-140.771
11
37.2179
21
-140.39
0
LINE
8
BLACK
6
CONTINUOUS
10
37.2179
20
-140.39
11
37.2179
21
-139.914
0
LINE
8
BLACK
6
CONTINUOUS
10
37.2179
20
-139.914
11
37.3131
21
-139.533
0
LINE
8
BLACK
6
CONTINUOUS
10
37.3131
20
-139.533
11
37.4083
21
-139.342
0
LINE
8
BLACK
6
CONTINUOUS
10
37.4083
20
-139.342
11
37.5036
21
-139.247
0
LINE
8
BLACK
6
CONTINUOUS
10
37.5036
20
-139.247
11
37.694
21
-139.152
0
LINE
8
BLACK
6
CONTINUOUS
10
39.5988
20
-139.152
11
39.7893
21
-139.152
0
LINE
8
BLACK
6
CONTINUOUS
10
39.7893
20
-139.152
11
39.9798
21
-139.247
0
LINE
8
BLACK
6
CONTINUOUS
10
39.9798
20
-139.247
11
40.075
21
-139.342
0
LINE
8
BLACK
6
CONTINUOUS
10
40.075
20
-139.342
11
40.1702
21
-139.533
0
LINE
8
BLACK
6
CONTINUOUS
10
40.1702
20
-139.533
11
40.2655
21
-139.914
0
LINE
8
BLACK
6
CONTINUOUS
10
40.2655
20
-139.914
11
40.2655
21
-140.39
0
LINE
8
BLACK
6
CONTINUOUS
10
40.2655
20
-140.39
11
40.1702
21
-140.771
0
LINE
8
BLACK
6
CONTINUOUS
10
40.1702
20
-140.771
11
40.075
21
-140.961
0
LINE
8
BLACK
6
CONTINUOUS
10
40.075
20
-140.961
11
39.9798
21
-141.057
0
LINE
8
BLACK
6
CONTINUOUS
10
39.9798
20
-141.057
11
39.7893
21
-141.152
0
LINE
8
BLACK
6
CONTINUOUS
10
39.7893
20
-141.152
11
39.5988
21
-141.152
0
LINE
8
BLACK
6
CONTINUOUS
10
39.5988
20
-141.152
11
39.4083
21
-141.057
0
LINE
8
BLACK
6
CONTINUOUS
10
39.4083
20
-141.057
11
39.3131
21
-140.961
0
LINE
8
BLACK
6
CONTINUOUS
10
39.3131
20
-140.961
11
39.2179
21
-140.771
0
LINE
8
BLACK
6
CONTINUOUS
10
39.2179
20
-140.771
11
39.1226
21
-140.39
0
LINE
8
BLACK
6
CONTINUOUS
10
39.1226
20
-140.39
11
39.1226
21
-139.914
0
LINE
8
BLACK
6
CONTINUOUS
10
39.1226
20
-139.914
11
39.2179
21
-139.533
0
LINE
8
BLACK
6
CONTINUOUS
10
39.2179
20
-139.533
11
39.3131
21
-139.342
0
LINE
8
BLACK
6
CONTINUOUS
10
39.3131
20
-139.342
11
39.4083
21
-139.247
0
LINE
8
BLACK
6
CONTINUOUS
10
39.4083
20
-139.247
11
39.5988
21
-139.152
0
LINE
8
BLACK
6
CONTINUOUS
10
41.1226
20
-141.152
11
41.1226
21
-139.818
0
LINE
8
BLACK
6
CONTINUOUS
10
41.1226
20
-140.009
11
41.2179
21
-139.914
0
LINE
8
BLACK
6
CONTINUOUS
10
41.2179
20
-139.914
11
41.4083
21
-139.818
0
LINE
8
BLACK
6
CONTINUOUS
10
41.4083
20
-139.818
11
41.694
21
-139.818
0
LINE
8
BLACK
6
CONTINUOUS
10
41.694
20
-139.818
11
41.8845
21
-139.914
0
LINE
8
BLACK
6
CONTINUOUS
10
41.8845
20
-139.914
11
41.9798
21
-140.104
0
LINE
8
BLACK
6
CONTINUOUS
10
41.9798
20
-140.104
11
41.9798
21
-141.152
0
LINE
8
BLACK
6
CONTINUOUS
10
41.9798
20
-140.104
11
42.075
21
-139.914
0
LINE
8
BLACK
6
CONTINUOUS
10
42.075
20
-139.914
11
42.2655
21
-139.818
0
LINE
8
BLACK
6
CONTINUOUS
10
42.2655
20
-139.818
11
42.5512
21
-139.818
0
LINE
8
BLACK
6
CONTINUOUS
10
42.5512
20
-139.818
11
42.7417
21
-139.914
0
LINE
8
BLACK
6
CONTINUOUS
10
42.7417
20
-139.914
11
42.8369
21
-140.104
0
LINE
8
BLACK
6
CONTINUOUS
10
42.8369
20
-140.104
11
42.8369
21
-141.152
0
LINE
8
BLACK
6
CONTINUOUS
10
43.7893
20
-141.152
11
43.7893
21
-139.818
0
LINE
8
BLACK
6
CONTINUOUS
10
43.7893
20
-140.009
11
43.8845
21
-139.914
0
LINE
8
BLACK
6
CONTINUOUS
10
43.8845
20
-139.914
11
44.075
21
-139.818
0
LINE
8
BLACK
6
CONTINUOUS
10
44.075
20
-139.818
11
44.3607
21
-139.818
0
LINE
8
BLACK
6
CONTINUOUS
10
44.3607
20
-139.818
11
44.5512
21
-139.914
0
LINE
8
BLACK
6
CONTINUOUS
10
44.5512
20
-139.914
11
44.6464
21
-140.104
0
LINE
8
BLACK
6
CONTINUOUS
10
44.6464
20
-140.104
11
44.6464
21
-141.152
0
LINE
8
BLACK
6
CONTINUOUS
10
44.6464
20
-140.104
11
44.7417
21
-139.914
0
LINE
8
BLACK
6
CONTINUOUS
10
44.7417
20
-139.914
11
44.9321
21
-139.818
0
LINE
8
BLACK
6
CONTINUOUS
10
44.9321
20
-139.818
11
45.2179
21
-139.818
0
LINE
8
BLACK
6
CONTINUOUS
10
45.2179
20
-139.818
11
45.4083
21
-139.914
0
LINE
8
BLACK
6
CONTINUOUS
10
45.4083
20
-139.914
11
45.5036
21
-140.104
0
LINE
8
BLACK
6
CONTINUOUS
10
45.5036
20
-140.104
11
45.5036
21
-141.152
0
LINE
8
BLACK
6
CONTINUOUS
10
49.4083
20
-139.057
11
47.694
21
-141.628
0
LINE
8
BLACK
6
CONTINUOUS
10
51.9798
20
-139.152
11
52.1702
21
-139.152
0
LINE
8
BLACK
6
CONTINUOUS
10
52.1702
20
-139.152
11
52.3607
21
-139.247
0
LINE
8
BLACK
6
CONTINUOUS
10
52.3607
20
-139.247
11
52.456
21
-139.342
0
LINE
8
BLACK
6
CONTINUOUS
10
52.456
20
-139.342
11
52.5512
21
-139.533
0
LINE
8
BLACK
6
CONTINUOUS
10
52.5512
20
-139.533
11
52.6464
21
-139.914
0
LINE
8
BLACK
6
CONTINUOUS
10
52.6464
20
-139.914
11
52.6464
21
-140.39
0
LINE
8
BLACK
6
CONTINUOUS
10
52.6464
20
-140.39
11
52.5512
21
-140.771
0
LINE
8
BLACK
6
CONTINUOUS
10
52.5512
20
-140.771
11
52.456
21
-140.961
0
LINE
8
BLACK
6
CONTINUOUS
10
52.456
20
-140.961
11
52.3607
21
-141.057
0
LINE
8
BLACK
6
CONTINUOUS
10
52.3607
20
-141.057
11
52.1702
21
-141.152
0
LINE
8
BLACK
6
CONTINUOUS
10
52.1702
20
-141.152
11
51.9798
21
-141.152
0
LINE
8
BLACK
6
CONTINUOUS
10
51.9798
20
-141.152
11
51.7893
21
-141.057
0
LINE
8
BLACK
6
CONTINUOUS
10
51.7893
20
-141.057
11
51.694
21
-140.961
0
LINE
8
BLACK
6
CONTINUOUS
10
51.694
20
-140.961
11
51.5988
21
-140.771
0
LINE
8
BLACK
6
CONTINUOUS
10
51.5988
20
-140.771
11
51.5036
21
-140.39
0
LINE
8
BLACK
6
CONTINUOUS
10
51.5036
20
-140.39
11
51.5036
21
-139.914
0
LINE
8
BLACK
6
CONTINUOUS
10
51.5036
20
-139.914
11
51.5988
21
-139.533
0
LINE
8
BLACK
6
CONTINUOUS
10
51.5988
20
-139.533
11
51.694
21
-139.342
0
LINE
8
BLACK
6
CONTINUOUS
10
51.694
20
-139.342
11
51.7893
21
-139.247
0
LINE
8
BLACK
6
CONTINUOUS
10
51.7893
20
-139.247
11
51.9798
21
-139.152
0
LINE
8
BLACK
6
CONTINUOUS
10
53.5036
20
-140.961
11
53.5988
21
-141.057
0
LINE
8
BLACK
6
CONTINUOUS
10
53.5988
20
-141.057
11
53.5036
21
-141.152
0
LINE
8
BLACK
6
CONTINUOUS
10
53.5036
20
-141.152
11
53.4083
21
-141.057
0
LINE
8
BLACK
6
CONTINUOUS
10
53.4083
20
-141.057
11
53.5036
21
-140.961
0
LINE
8
BLACK
6
CONTINUOUS
10
53.5036
20
-140.961
11
53.5036
21
-141.152
0
LINE
8
BLACK
6
CONTINUOUS
10
54.8369
20
-139.152
11
55.0274
21
-139.152
0
LINE
8
BLACK
6
CONTINUOUS
10
55.0274
20
-139.152
11
55.2179
21
-139.247
0
LINE
8
BLACK
6
CONTINUOUS
10
55.2179
20
-139.247
11
55.3131
21
-139.342
0
LINE
8
BLACK
6
CONTINUOUS
10
55.3131
20
-139.342
11
55.4083
21
-139.533
0
LINE
8
BLACK
6
CONTINUOUS
10
55.4083
20
-139.533
11
55.5036
21
-139.914
0
LINE
8
BLACK
6
CONTINUOUS
10
55.5036
20
-139.914
11
55.5036
21
-140.39
0
LINE
8
BLACK
6
CONTINUOUS
10
55.5036
20
-140.39
11
55.4083
21
-140.771
0
LINE
8
BLACK
6
CONTINUOUS
10
55.4083
20
-140.771
11
55.3131
21
-140.961
0
LINE
8
BLACK
6
CONTINUOUS
10
55.3131
20
-140.961
11
55.2179
21
-141.057
0
LINE
8
BLACK
6
CONTINUOUS
10
55.2179
20
-141.057
11
55.0274
21
-141.152
0
LINE
8
BLACK
6
CONTINUOUS
10
55.0274
20
-141.152
11
54.8369
21
-141.152
0
LINE
8
BLACK
6
CONTINUOUS
10
54.8369
20
-141.152
11
54.6464
21
-141.057
0
LINE
8
BLACK
6
CONTINUOUS
10
54.6464
20
-141.057
11
54.5512
21
-140.961
0
LINE
8
BLACK
6
CONTINUOUS
10
54.5512
20
-140.961
11
54.456
21
-140.771
0
LINE
8
BLACK
6
CONTINUOUS
10
54.456
20
-140.771
11
54.3607
21
-140.39
0
LINE
8
BLACK
6
CONTINUOUS
10
54.3607
20
-140.39
11
54.3607
21
-139.914
0
LINE
8
BLACK
6
CONTINUOUS
10
54.3607
20
-139.914
11
54.456
21
-139.533
0
LINE
8
BLACK
6
CONTINUOUS
10
54.456
20
-139.533
11
54.5512
21
-139.342
0
LINE
8
BLACK
6
CONTINUOUS
10
54.5512
20
-139.342
11
54.6464
21
-139.247
0
LINE
8
BLACK
6
CONTINUOUS
10
54.6464
20
-139.247
11
54.8369
21
-139.152
0
LINE
8
BLACK
6
CONTINUOUS
10
56.6464
20
-140.009
11
56.456
21
-139.914
0
LINE
8
BLACK
6
CONTINUOUS
10
56.456
20
-139.914
11
56.3607
21
-139.818
0
LINE
8
BLACK
6
CONTINUOUS
10
56.3607
20
-139.818
11
56.2655
21
-139.628
0
LINE
8
BLACK
6
CONTINUOUS
10
56.2655
20
-139.628
11
56.2655
21
-139.533
0
LINE
8
BLACK
6
CONTINUOUS
10
56.2655
20
-139.533
11
56.3607
21
-139.342
0
LINE
8
BLACK
6
CONTINUOUS
10
56.3607
20
-139.342
11
56.456
21
-139.247
0
LINE
8
BLACK
6
CONTINUOUS
10
56.456
20
-139.247
11
56.6464
21
-139.152
0
LINE
8
BLACK
6
CONTINUOUS
10
56.6464
20
-139.152
11
57.0274
21
-139.152
0
LINE
8
BLACK
6
CONTINUOUS
10
57.0274
20
-139.152
11
57.2179
21
-139.247
0
LINE
8
BLACK
6
CONTINUOUS
10
57.2179
20
-139.247
11
57.3131
21
-139.342
0
LINE
8
BLACK
6
CONTINUOUS
10
57.3131
20
-139.342
11
57.4083
21
-139.533
0
LINE
8
BLACK
6
CONTINUOUS
10
57.4083
20
-139.533
11
57.4083
21
-139.628
0
LINE
8
BLACK
6
CONTINUOUS
10
57.4083
20
-139.628
11
57.3131
21
-139.818
0
LINE
8
BLACK
6
CONTINUOUS
10
57.3131
20
-139.818
11
57.2179
21
-139.914
0
LINE
8
BLACK
6
CONTINUOUS
10
57.2179
20
-139.914
11
57.0274
21
-140.009
0
LINE
8
BLACK
6
CONTINUOUS
10
57.0274
20
-140.009
11
56.6464
21
-140.009
0
LINE
8
BLACK
6
CONTINUOUS
10
56.6464
20
-140.009
11
56.456
21
-140.104
0
LINE
8
BLACK
6
CONTINUOUS
10
56.456
20
-140.104
11
56.3607
21
-140.199
0
LINE
8
BLACK
6
CONTINUOUS
10
56.3607
20
-140.199
11
56.2655
21
-140.39
0
LINE
8
BLACK
6
CONTINUOUS
10
56.2655
20
-140.39
11
56.2655
21
-140.771
0
LINE
8
BLACK
6
CONTINUOUS
10
56.2655
20
-140.771
11
56.3607
21
-140.961
0
LINE
8
BLACK
6
CONTINUOUS
10
56.3607
20
-140.961
11
56.456
21
-141.057
0
LINE
8
BLACK
6
CONTINUOUS
10
56.456
20
-141.057
11
56.6464
21
-141.152
0
LINE
8
BLACK
6
CONTINUOUS
10
56.6464
20
-141.152
11
57.0274
21
-141.152
0
LINE
8
BLACK
6
CONTINUOUS
10
57.0274
20
-141.152
11
57.2179
21
-141.057
0
LINE
8
BLACK
6
CONTINUOUS
10
57.2179
20
-141.057
11
57.3131
21
-140.961
0
LINE
8
BLACK
6
CONTINUOUS
10
57.3131
20
-140.961
11
57.4083
21
-140.771
0
LINE
8
BLACK
6
CONTINUOUS
10
57.4083
20
-140.771
11
57.4083
21
-140.39
0
LINE
8
BLACK
6
CONTINUOUS
10
57.4083
20
-140.39
11
57.3131
21
-140.199
0
LINE
8
BLACK
6
CONTINUOUS
10
57.3131
20
-140.199
11
57.2179
21
-140.104
0
LINE
8
BLACK
6
CONTINUOUS
10
57.2179
20
-140.104
11
57.0274
21
-140.009
0
LINE
8
BLACK
6
CONTINUOUS
10
59.1226
20
-139.152
11
58.7417
21
-139.152
0
LINE
8
BLACK
6
CONTINUOUS
10
58.7417
20
-139.152
11
58.5512
21
-139.247
0
LINE
8
BLACK
6
CONTINUOUS
10
58.5512
20
-139.247
11
58.456
21
-139.342
0
LINE
8
BLACK
6
CONTINUOUS
10
58.456
20
-139.342
11
58.2655
21
-139.628
0
LINE
8
BLACK
6
CONTINUOUS
10
58.2655
20
-139.628
11
58.1702
21
-140.009
0
LINE
8
BLACK
6
CONTINUOUS
10
58.1702
20
-140.009
11
58.1702
21
-140.771
0
LINE
8
BLACK
6
CONTINUOUS
10
58.1702
20
-140.771
11
58.2655
21
-140.961
0
LINE
8
BLACK
6
CONTINUOUS
10
58.2655
20
-140.961
11
58.3607
21
-141.057
0
LINE
8
BLACK
6
CONTINUOUS
10
58.3607
20
-141.057
11
58.5512
21
-141.152
0
LINE
8
BLACK
6
CONTINUOUS
10
58.5512
20
-141.152
11
58.9321
21
-141.152
0
LINE
8
BLACK
6
CONTINUOUS
10
58.9321
20
-141.152
11
59.1226
21
-141.057
0
LINE
8
BLACK
6
CONTINUOUS
10
59.1226
20
-141.057
11
59.2179
21
-140.961
0
LINE
8
BLACK
6
CONTINUOUS
10
59.2179
20
-140.961
11
59.3131
21
-140.771
0
LINE
8
BLACK
6
CONTINUOUS
10
59.3131
20
-140.771
11
59.3131
21
-140.295
0
LINE
8
BLACK
6
CONTINUOUS
10
59.3131
20
-140.295
11
59.2179
21
-140.104
0
LINE
8
BLACK
6
CONTINUOUS
10
59.2179
20
-140.104
11
59.1226
21
-140.009
0
LINE
8
BLACK
6
CONTINUOUS
10
59.1226
20
-140.009
11
58.9321
21
-139.914
0
LINE
8
BLACK
6
CONTINUOUS
10
58.9321
20
-139.914
11
58.5512
21
-139.914
0
LINE
8
BLACK
6
CONTINUOUS
10
58.5512
20
-139.914
11
58.3607
21
-140.009
0
LINE
8
BLACK
6
CONTINUOUS
10
58.3607
20
-140.009
11
58.2655
21
-140.104
0
LINE
8
BLACK
6
CONTINUOUS
10
58.2655
20
-140.104
11
58.1702
21
-140.295
0
LINE
8
BLACK
6
CONTINUOUS
10
61.0274
20
-139.152
11
60.6464
21
-139.152
0
LINE
8
BLACK
6
CONTINUOUS
10
60.6464
20
-139.152
11
60.456
21
-139.247
0
LINE
8
BLACK
6
CONTINUOUS
10
60.456
20
-139.247
11
60.3607
21
-139.342
0
LINE
8
BLACK
6
CONTINUOUS
10
60.3607
20
-139.342
11
60.1702
21
-139.628
0
LINE
8
BLACK
6
CONTINUOUS
10
60.1702
20
-139.628
11
60.075
21
-140.009
0
LINE
8
BLACK
6
CONTINUOUS
10
60.075
20
-140.009
11
60.075
21
-140.771
0
LINE
8
BLACK
6
CONTINUOUS
10
60.075
20
-140.771
11
60.1702
21
-140.961
0
LINE
8
BLACK
6
CONTINUOUS
10
60.1702
20
-140.961
11
60.2655
21
-141.057
0
LINE
8
BLACK
6
CONTINUOUS
10
60.2655
20
-141.057
11
60.456
21
-141.152
0
LINE
8
BLACK
6
CONTINUOUS
10
60.456
20
-141.152
11
60.8369
21
-141.152
0
LINE
8
BLACK
6
CONTINUOUS
10
60.8369
20
-141.152
11
61.0274
21
-141.057
0
LINE
8
BLACK
6
CONTINUOUS
10
61.0274
20
-141.057
11
61.1226
21
-140.961
0
LINE
8
BLACK
6
CONTINUOUS
10
61.1226
20
-140.961
11
61.2179
21
-140.771
0
LINE
8
BLACK
6
CONTINUOUS
10
61.2179
20
-140.771
11
61.2179
21
-140.295
0
LINE
8
BLACK
6
CONTINUOUS
10
61.2179
20
-140.295
11
61.1226
21
-140.104
0
LINE
8
BLACK
6
CONTINUOUS
10
61.1226
20
-140.104
11
61.0274
21
-140.009
0
LINE
8
BLACK
6
CONTINUOUS
10
61.0274
20
-140.009
11
60.8369
21
-139.914
0
LINE
8
BLACK
6
CONTINUOUS
10
60.8369
20
-139.914
11
60.456
21
-139.914
0
LINE
8
BLACK
6
CONTINUOUS
10
60.456
20
-139.914
11
60.2655
21
-140.009
0
LINE
8
BLACK
6
CONTINUOUS
10
60.2655
20
-140.009
11
60.1702
21
-140.104
0
LINE
8
BLACK
6
CONTINUOUS
10
60.1702
20
-140.104
11
60.075
21
-140.295
0
LINE
8
BLACK
6
CONTINUOUS
10
61.9798
20
-139.152
11
61.9798
21
-139.533
0
LINE
8
BLACK
6
CONTINUOUS
10
62.7417
20
-139.152
11
62.7417
21
-139.533
0
LINE
8
BLACK
6
CONTINUOUS
10
65.694
20
-141.914
11
65.5988
21
-141.818
0
LINE
8
BLACK
6
CONTINUOUS
10
65.5988
20
-141.818
11
65.4083
21
-141.533
0
LINE
8
BLACK
6
CONTINUOUS
10
65.4083
20
-141.533
11
65.3131
21
-141.342
0
LINE
8
BLACK
6
CONTINUOUS
10
65.3131
20
-141.342
11
65.2179
21
-141.057
0
LINE
8
BLACK
6
CONTINUOUS
10
65.2179
20
-141.057
11
65.1226
21
-140.58
0
LINE
8
BLACK
6
CONTINUOUS
10
65.1226
20
-140.58
11
65.1226
21
-140.199
0
LINE
8
BLACK
6
CONTINUOUS
10
65.1226
20
-140.199
11
65.2179
21
-139.723
0
LINE
8
BLACK
6
CONTINUOUS
10
65.2179
20
-139.723
11
65.3131
21
-139.437
0
LINE
8
BLACK
6
CONTINUOUS
10
65.3131
20
-139.437
11
65.4083
21
-139.247
0
LINE
8
BLACK
6
CONTINUOUS
10
65.4083
20
-139.247
11
65.5988
21
-138.961
0
LINE
8
BLACK
6
CONTINUOUS
10
65.5988
20
-138.961
11
65.694
21
-138.866
0
LINE
8
BLACK
6
CONTINUOUS
10
66.2655
20
-139.152
11
67.5036
21
-139.152
0
LINE
8
BLACK
6
CONTINUOUS
10
67.5036
20
-139.152
11
66.8369
21
-139.914
0
LINE
8
BLACK
6
CONTINUOUS
10
66.8369
20
-139.914
11
67.1226
21
-139.914
0
LINE
8
BLACK
6
CONTINUOUS
10
67.1226
20
-139.914
11
67.3131
21
-140.009
0
LINE
8
BLACK
6
CONTINUOUS
10
67.3131
20
-140.009
11
67.4083
21
-140.104
0
LINE
8
BLACK
6
CONTINUOUS
10
67.4083
20
-140.104
11
67.5036
21
-140.295
0
LINE
8
BLACK
6
CONTINUOUS
10
67.5036
20
-140.295
11
67.5036
21
-140.771
0
LINE
8
BLACK
6
CONTINUOUS
10
67.5036
20
-140.771
11
67.4083
21
-140.961
0
LINE
8
BLACK
6
CONTINUOUS
10
67.4083
20
-140.961
11
67.3131
21
-141.057
0
LINE
8
BLACK
6
CONTINUOUS
10
67.3131
20
-141.057
11
67.1226
21
-141.152
0
LINE
8
BLACK
6
CONTINUOUS
10
67.1226
20
-141.152
11
66.5512
21
-141.152
0
LINE
8
BLACK
6
CONTINUOUS
10
66.5512
20
-141.152
11
66.3607
21
-141.057
0
LINE
8
BLACK
6
CONTINUOUS
10
66.3607
20
-141.057
11
66.2655
21
-140.961
0
LINE
8
BLACK
6
CONTINUOUS
10
69.8845
20
-141.152
11
69.8845
21
-139.152
0
LINE
8
BLACK
6
CONTINUOUS
10
70.7417
20
-141.152
11
70.7417
21
-140.104
0
LINE
8
BLACK
6
CONTINUOUS
10
70.7417
20
-140.104
11
70.6464
21
-139.914
0
LINE
8
BLACK
6
CONTINUOUS
10
70.6464
20
-139.914
11
70.456
21
-139.818
0
LINE
8
BLACK
6
CONTINUOUS
10
70.456
20
-139.818
11
70.1702
21
-139.818
0
LINE
8
BLACK
6
CONTINUOUS
10
70.1702
20
-139.818
11
69.9798
21
-139.914
0
LINE
8
BLACK
6
CONTINUOUS
10
69.9798
20
-139.914
11
69.8845
21
-140.009
0
LINE
8
BLACK
6
CONTINUOUS
10
71.9798
20
-141.152
11
71.7893
21
-141.057
0
LINE
8
BLACK
6
CONTINUOUS
10
71.7893
20
-141.057
11
71.694
21
-140.961
0
LINE
8
BLACK
6
CONTINUOUS
10
71.694
20
-140.961
11
71.5988
21
-140.771
0
LINE
8
BLACK
6
CONTINUOUS
10
71.5988
20
-140.771
11
71.5988
21
-140.199
0
LINE
8
BLACK
6
CONTINUOUS
10
71.5988
20
-140.199
11
71.694
21
-140.009
0
LINE
8
BLACK
6
CONTINUOUS
10
71.694
20
-140.009
11
71.7893
21
-139.914
0
LINE
8
BLACK
6
CONTINUOUS
10
71.7893
20
-139.914
11
71.9798
21
-139.818
0
LINE
8
BLACK
6
CONTINUOUS
10
71.9798
20
-139.818
11
72.2655
21
-139.818
0
LINE
8
BLACK
6
CONTINUOUS
10
72.2655
20
-139.818
11
72.456
21
-139.914
0
LINE
8
BLACK
6
CONTINUOUS
10
72.456
20
-139.914
11
72.5512
21
-140.009
0
LINE
8
BLACK
6
CONTINUOUS
10
72.5512
20
-140.009
11
72.6464
21
-140.199
0
LINE
8
BLACK
6
CONTINUOUS
10
72.6464
20
-140.199
11
72.6464
21
-140.771
0
LINE
8
BLACK
6
CONTINUOUS
10
72.6464
20
-140.771
11
72.5512
21
-140.961
0
LINE
8
BLACK
6
CONTINUOUS
10
72.5512
20
-140.961
11
72.456
21
-141.057
0
LINE
8
BLACK
6
CONTINUOUS
10
72.456
20
-141.057
11
72.2655
21
-141.152
0
LINE
8
BLACK
6
CONTINUOUS
10
72.2655
20
-141.152
11
71.9798
21
-141.152
0
LINE
8
BLACK
6
CONTINUOUS
10
73.7893
20
-141.152
11
73.5988
21
-141.057
0
LINE
8
BLACK
6
CONTINUOUS
10
73.5988
20
-141.057
11
73.5036
21
-140.866
0
LINE
8
BLACK
6
CONTINUOUS
10
73.5036
20
-140.866
11
73.5036
21
-139.152
0
LINE
8
BLACK
6
CONTINUOUS
10
75.3131
20
-141.057
11
75.1226
21
-141.152
0
LINE
8
BLACK
6
CONTINUOUS
10
75.1226
20
-141.152
11
74.7417
21
-141.152
0
LINE
8
BLACK
6
CONTINUOUS
10
74.7417
20
-141.152
11
74.5512
21
-141.057
0
LINE
8
BLACK
6
CONTINUOUS
10
74.5512
20
-141.057
11
74.456
21
-140.866
0
LINE
8
BLACK
6
CONTINUOUS
10
74.456
20
-140.866
11
74.456
21
-140.104
0
LINE
8
BLACK
6
CONTINUOUS
10
74.456
20
-140.104
11
74.5512
21
-139.914
0
LINE
8
BLACK
6
CONTINUOUS
10
74.5512
20
-139.914
11
74.7417
21
-139.818
0
LINE
8
BLACK
6
CONTINUOUS
10
74.7417
20
-139.818
11
75.1226
21
-139.818
0
LINE
8
BLACK
6
CONTINUOUS
10
75.1226
20
-139.818
11
75.3131
21
-139.914
0
LINE
8
BLACK
6
CONTINUOUS
10
75.3131
20
-139.914
11
75.4083
21
-140.104
0
LINE
8
BLACK
6
CONTINUOUS
10
75.4083
20
-140.104
11
75.4083
21
-140.295
0
LINE
8
BLACK
6
CONTINUOUS
10
75.4083
20
-140.295
11
74.456
21
-140.485
0
LINE
8
BLACK
6
CONTINUOUS
10
76.1702
20
-141.057
11
76.3607
21
-141.152
0
LINE
8
BLACK
6
CONTINUOUS
10
76.3607
20
-141.152
11
76.7417
21
-141.152
0
LINE
8
BLACK
6
CONTINUOUS
10
76.7417
20
-141.152
11
76.9321
21
-141.057
0
LINE
8
BLACK
6
CONTINUOUS
10
76.9321
20
-141.057
11
77.0274
21
-140.866
0
LINE
8
BLACK
6
CONTINUOUS
10
77.0274
20
-140.866
11
77.0274
21
-140.771
0
LINE
8
BLACK
6
CONTINUOUS
10
77.0274
20
-140.771
11
76.9321
21
-140.58
0
LINE
8
BLACK
6
CONTINUOUS
10
76.9321
20
-140.58
11
76.7417
21
-140.485
0
LINE
8
BLACK
6
CONTINUOUS
10
76.7417
20
-140.485
11
76.456
21
-140.485
0
LINE
8
BLACK
6
CONTINUOUS
10
76.456
20
-140.485
11
76.2655
21
-140.39
0
LINE
8
BLACK
6
CONTINUOUS
10
76.2655
20
-140.39
11
76.1702
21
-140.199
0
LINE
8
BLACK
6
CONTINUOUS
10
76.1702
20
-140.199
11
76.1702
21
-140.104
0
LINE
8
BLACK
6
CONTINUOUS
10
76.1702
20
-140.104
11
76.2655
21
-139.914
0
LINE
8
BLACK
6
CONTINUOUS
10
76.2655
20
-139.914
11
76.456
21
-139.818
0
LINE
8
BLACK
6
CONTINUOUS
10
76.456
20
-139.818
11
76.7417
21
-139.818
0
LINE
8
BLACK
6
CONTINUOUS
10
76.7417
20
-139.818
11
76.9321
21
-139.914
0
LINE
8
BLACK
6
CONTINUOUS
10
77.694
20
-141.914
11
77.7893
21
-141.818
0
LINE
8
BLACK
6
CONTINUOUS
10
77.7893
20
-141.818
11
77.9798
21
-141.533
0
LINE
8
BLACK
6
CONTINUOUS
10
77.9798
20
-141.533
11
78.075
21
-141.342
0
LINE
8
BLACK
6
CONTINUOUS
10
78.075
20
-141.342
11
78.1702
21
-141.057
0
LINE
8
BLACK
6
CONTINUOUS
10
78.1702
20
-141.057
11
78.2655
21
-140.58
0
LINE
8
BLACK
6
CONTINUOUS
10
78.2655
20
-140.58
11
78.2655
21
-140.199
0
LINE
8
BLACK
6
CONTINUOUS
10
78.2655
20
-140.199
11
78.1702
21
-139.723
0
LINE
8
BLACK
6
CONTINUOUS
10
78.1702
20
-139.723
11
78.075
21
-139.437
0
LINE
8
BLACK
6
CONTINUOUS
10
78.075
20
-139.437
11
77.9798
21
-139.247
0
LINE
8
BLACK
6
CONTINUOUS
10
77.9798
20
-139.247
11
77.7893
21
-138.961
0
LINE
8
BLACK
6
CONTINUOUS
10
77.7893
20
-138.961
11
77.694
21
-138.866
  0
ENDSEC
  0
EOF
