  0
SECTION
  2
HEADER
  9
$ANGBASE
  50
0.0
  9
$ANGDIR
  70
1
  9
$MEASUREMENT
  70
1
  0
ENDSEC
  0
SECTION
  2
TABLES
  0
TABLE
  2
LTYPE
  70
4
  0
LTYPE
  5
40F
  2
CONTINUOUS
  70
0
  3
Solid line
  72
65
  73
0
  40
0.0
  0
LTYPE
  5
410
  2
DASHDOT
 70
0
  3
Dash Dot ____ _ ____ _
 72
65
 73
4
 40
2.0
 49
1.25
 49
-0.25
 49
0.25
 49
-0.25
  0
LTYPE
  5
411
  2
DASHED
 70
0
  3
Dashed __ __ __ __ __
 72
65
 73
2
 40
0.75
 49
0.5
 49
-0.25
  0
LTYPE
  5
43B
  2
DOTTED
 70
0
  3
Dotted .  .  .  .
 72
65
 73
2
 40
0.2
 49
0.0
 49
-0.2
  0
ENDTAB
  0
TABLE
  2
STYLE
  70
4
  0
STYLE
  2
KICAD
  70
0
  40
0
  41
1
  42
1
  50
0
  71
0
  3
isocp.shx
  0
STYLE
  2
KICADB
  70
0
  40
0
  41
1
  42
1
  50
0
  71
0
  3
isocp.shx
  0
STYLE
  2
KICADI
  70
0
  40
0
  41
1
  42
1
  50
15
  71
0
  3
isocp.shx
  0
STYLE
  2
KICADBI
  70
0
  40
0
  41
1
  42
1
  50
15
  71
0
  3
isocp.shx
  0
ENDTAB
  0
TABLE
  2
LAYER
  70
1
  0
LAYER
  2
BLACK
  70
0
  62
7
  6
CONTINUOUS
  0
ENDTAB
  0
ENDSEC
  0
SECTION
  2
ENTITIES
0
ARC
8
BLACK
10
105.46
20
-110
40
2.54
50
-90
51
-0
0
LINE
8
BLACK
6
CONTINUOUS
10
108
20
-110
11
108
21
-33
0
LINE
8
BLACK
6
CONTINUOUS
10
105.46
20
-112.54
11
32.54
21
-112.542
0
LINE
8
BLACK
6
CONTINUOUS
10
105.46
20
-30.46
11
32.54
21
-30.46
0
LINE
8
BLACK
6
CONTINUOUS
10
30
20
-110
11
30
21
-33
0
ARC
8
BLACK
10
32.542
20
-110
40
2.542
50
-180
51
-90.0451
0
ARC
8
BLACK
10
105.46
20
-33
40
2.54
50
-0
51
90
0
LINE
8
BLACK
6
CONTINUOUS
10
68.1
20
-68.2
11
68.5
21
-68.2
0
LINE
8
BLACK
6
CONTINUOUS
10
68.5
20
-68.2
11
68.5
21
-83.5
0
LINE
8
BLACK
6
CONTINUOUS
10
68.5
20
-83.5
11
68.1
21
-83.5
0
LINE
8
BLACK
6
CONTINUOUS
10
68.1
20
-83.5
11
68.1
21
-68.2
0
LINE
8
BLACK
6
CONTINUOUS
10
68.8
20
-68.2
11
69.2
21
-68.2
0
LINE
8
BLACK
6
CONTINUOUS
10
69.2
20
-68.2
11
69.2
21
-83.5
0
LINE
8
BLACK
6
CONTINUOUS
10
69.2
20
-83.5
11
68.8
21
-83.5
0
LINE
8
BLACK
6
CONTINUOUS
10
68.8
20
-83.5
11
68.8
21
-68.2
0
LINE
8
BLACK
6
CONTINUOUS
10
71.1
20
-68.2
11
71.3
21
-68.2
0
LINE
8
BLACK
6
CONTINUOUS
10
71.3
20
-68.2
11
71.3
21
-83.5
0
LINE
8
BLACK
6
CONTINUOUS
10
71.3
20
-83.5
11
71.1
21
-83.5
0
LINE
8
BLACK
6
CONTINUOUS
10
71.1
20
-83.5
11
71.1
21
-68.2
0
LINE
8
BLACK
6
CONTINUOUS
10
70.2
20
-68.2
11
70.4
21
-68.2
0
LINE
8
BLACK
6
CONTINUOUS
10
70.4
20
-68.2
11
70.4
21
-83.5
0
LINE
8
BLACK
6
CONTINUOUS
10
70.4
20
-83.5
11
70.2
21
-83.5
0
LINE
8
BLACK
6
CONTINUOUS
10
70.2
20
-83.5
11
70.2
21
-68.2
0
LINE
8
BLACK
6
CONTINUOUS
10
71.7
20
-68.2
11
71.9
21
-68.2
0
LINE
8
BLACK
6
CONTINUOUS
10
71.9
20
-68.2
11
71.9
21
-83.5
0
LINE
8
BLACK
6
CONTINUOUS
10
71.9
20
-83.5
11
71.7
21
-83.5
0
LINE
8
BLACK
6
CONTINUOUS
10
71.7
20
-83.5
11
71.7
21
-68.2
0
LINE
8
BLACK
6
CONTINUOUS
10
69.4
20
-68.2
11
69.8
21
-68.2
0
LINE
8
BLACK
6
CONTINUOUS
10
69.8
20
-68.2
11
69.8
21
-83.5
0
LINE
8
BLACK
6
CONTINUOUS
10
69.8
20
-83.5
11
69.4
21
-83.5
0
LINE
8
BLACK
6
CONTINUOUS
10
69.4
20
-83.5
11
69.4
21
-68.2
0
LINE
8
BLACK
6
CONTINUOUS
10
67.3
20
-68.2
11
67.7
21
-68.2
0
LINE
8
BLACK
6
CONTINUOUS
10
67.7
20
-68.2
11
67.7
21
-83.5
0
LINE
8
BLACK
6
CONTINUOUS
10
67.7
20
-83.5
11
67.3
21
-83.5
0
LINE
8
BLACK
6
CONTINUOUS
10
67.3
20
-83.5
11
67.3
21
-68.2
0
ARC
8
BLACK
10
32.54
20
-33
40
2.54
50
90
51
180
0
LINE
8
BLACK
6
CONTINUOUS
10
70.6
20
-68.2
11
70.8
21
-68.2
0
LINE
8
BLACK
6
CONTINUOUS
10
70.8
20
-68.2
11
70.8
21
-83.5
0
LINE
8
BLACK
6
CONTINUOUS
10
70.8
20
-83.5
11
70.6
21
-83.5
0
LINE
8
BLACK
6
CONTINUOUS
10
70.6
20
-83.5
11
70.6
21
-68.2
0
LINE
8
BLACK
6
CONTINUOUS
10
69.9
20
-68.2
11
70.1
21
-68.2
0
LINE
8
BLACK
6
CONTINUOUS
10
70.1
20
-68.2
11
70.1
21
-83.5
0
LINE
8
BLACK
6
CONTINUOUS
10
70.1
20
-83.5
11
69.9
21
-83.5
0
LINE
8
BLACK
6
CONTINUOUS
10
69.9
20
-83.5
11
69.9
21
-68.2
0
LINE
8
BLACK
6
CONTINUOUS
10
49.65
20
-33.35
11
51.75
21
-35.45
0
LINE
8
BLACK
6
CONTINUOUS
10
51.75
20
-33.35
11
49.65
21
-35.45
0
CIRCLE
8
BLACK
10
59.7
20
-105.4
40
1.6
0
CIRCLE
8
BLACK
10
72.2
20
-105.4
40
1.6
0
CIRCLE
8
BLACK
10
84.7
20
-105.4
40
1.6
0
LINE
8
BLACK
6
CONTINUOUS
10
32.5512
20
-115.672
11
32.5512
21
-113.672
0
LINE
8
BLACK
6
CONTINUOUS
10
32.5512
20
-113.672
11
33.0274
21
-113.672
0
LINE
8
BLACK
6
CONTINUOUS
10
33.0274
20
-113.672
11
33.3131
21
-113.767
0
LINE
8
BLACK
6
CONTINUOUS
10
33.3131
20
-113.767
11
33.5036
21
-113.957
0
LINE
8
BLACK
6
CONTINUOUS
10
33.5036
20
-113.957
11
33.5988
21
-114.148
0
LINE
8
BLACK
6
CONTINUOUS
10
33.5988
20
-114.148
11
33.694
21
-114.529
0
LINE
8
BLACK
6
CONTINUOUS
10
33.694
20
-114.529
11
33.694
21
-114.815
0
LINE
8
BLACK
6
CONTINUOUS
10
33.694
20
-114.815
11
33.5988
21
-115.196
0
LINE
8
BLACK
6
CONTINUOUS
10
33.5988
20
-115.196
11
33.5036
21
-115.386
0
LINE
8
BLACK
6
CONTINUOUS
10
33.5036
20
-115.386
11
33.3131
21
-115.577
0
LINE
8
BLACK
6
CONTINUOUS
10
33.3131
20
-115.577
11
33.0274
21
-115.672
0
LINE
8
BLACK
6
CONTINUOUS
10
33.0274
20
-115.672
11
32.5512
21
-115.672
0
LINE
8
BLACK
6
CONTINUOUS
10
34.5512
20
-115.672
11
34.5512
21
-114.338
0
LINE
8
BLACK
6
CONTINUOUS
10
34.5512
20
-114.719
11
34.6464
21
-114.529
0
LINE
8
BLACK
6
CONTINUOUS
10
34.6464
20
-114.529
11
34.7417
21
-114.434
0
LINE
8
BLACK
6
CONTINUOUS
10
34.7417
20
-114.434
11
34.9321
21
-114.338
0
LINE
8
BLACK
6
CONTINUOUS
10
34.9321
20
-114.338
11
35.1226
21
-114.338
0
LINE
8
BLACK
6
CONTINUOUS
10
35.7893
20
-115.672
11
35.7893
21
-114.338
0
LINE
8
BLACK
6
CONTINUOUS
10
35.7893
20
-113.672
11
35.694
21
-113.767
0
LINE
8
BLACK
6
CONTINUOUS
10
35.694
20
-113.767
11
35.7893
21
-113.862
0
LINE
8
BLACK
6
CONTINUOUS
10
35.7893
20
-113.862
11
35.8845
21
-113.767
0
LINE
8
BLACK
6
CONTINUOUS
10
35.8845
20
-113.767
11
35.7893
21
-113.672
0
LINE
8
BLACK
6
CONTINUOUS
10
35.7893
20
-113.672
11
35.7893
21
-113.862
0
LINE
8
BLACK
6
CONTINUOUS
10
37.0274
20
-115.672
11
36.8369
21
-115.577
0
LINE
8
BLACK
6
CONTINUOUS
10
36.8369
20
-115.577
11
36.7417
21
-115.386
0
LINE
8
BLACK
6
CONTINUOUS
10
36.7417
20
-115.386
11
36.7417
21
-113.672
0
LINE
8
BLACK
6
CONTINUOUS
10
38.075
20
-115.672
11
37.8845
21
-115.577
0
LINE
8
BLACK
6
CONTINUOUS
10
37.8845
20
-115.577
11
37.7893
21
-115.386
0
LINE
8
BLACK
6
CONTINUOUS
10
37.7893
20
-115.386
11
37.7893
21
-113.672
0
LINE
8
BLACK
6
CONTINUOUS
10
40.3607
20
-115.672
11
40.3607
21
-113.672
0
LINE
8
BLACK
6
CONTINUOUS
10
40.3607
20
-113.672
11
41.0274
21
-115.1
0
LINE
8
BLACK
6
CONTINUOUS
10
41.0274
20
-115.1
11
41.694
21
-113.672
0
LINE
8
BLACK
6
CONTINUOUS
10
41.694
20
-113.672
11
41.694
21
-115.672
0
LINE
8
BLACK
6
CONTINUOUS
10
43.5036
20
-115.672
11
43.5036
21
-114.624
0
LINE
8
BLACK
6
CONTINUOUS
10
43.5036
20
-114.624
11
43.4083
21
-114.434
0
LINE
8
BLACK
6
CONTINUOUS
10
43.4083
20
-114.434
11
43.2179
21
-114.338
0
LINE
8
BLACK
6
CONTINUOUS
10
43.2179
20
-114.338
11
42.8369
21
-114.338
0
LINE
8
BLACK
6
CONTINUOUS
10
42.8369
20
-114.338
11
42.6464
21
-114.434
0
LINE
8
BLACK
6
CONTINUOUS
10
43.5036
20
-115.577
11
43.3131
21
-115.672
0
LINE
8
BLACK
6
CONTINUOUS
10
43.3131
20
-115.672
11
42.8369
21
-115.672
0
LINE
8
BLACK
6
CONTINUOUS
10
42.8369
20
-115.672
11
42.6464
21
-115.577
0
LINE
8
BLACK
6
CONTINUOUS
10
42.6464
20
-115.577
11
42.5512
21
-115.386
0
LINE
8
BLACK
6
CONTINUOUS
10
42.5512
20
-115.386
11
42.5512
21
-115.196
0
LINE
8
BLACK
6
CONTINUOUS
10
42.5512
20
-115.196
11
42.6464
21
-115.005
0
LINE
8
BLACK
6
CONTINUOUS
10
42.6464
20
-115.005
11
42.8369
21
-114.91
0
LINE
8
BLACK
6
CONTINUOUS
10
42.8369
20
-114.91
11
43.3131
21
-114.91
0
LINE
8
BLACK
6
CONTINUOUS
10
43.3131
20
-114.91
11
43.5036
21
-114.815
0
LINE
8
BLACK
6
CONTINUOUS
10
44.456
20
-114.338
11
44.456
21
-116.338
0
LINE
8
BLACK
6
CONTINUOUS
10
44.456
20
-114.434
11
44.6464
21
-114.338
0
LINE
8
BLACK
6
CONTINUOUS
10
44.6464
20
-114.338
11
45.0274
21
-114.338
0
LINE
8
BLACK
6
CONTINUOUS
10
45.0274
20
-114.338
11
45.2179
21
-114.434
0
LINE
8
BLACK
6
CONTINUOUS
10
45.2179
20
-114.434
11
45.3131
21
-114.529
0
LINE
8
BLACK
6
CONTINUOUS
10
45.3131
20
-114.529
11
45.4083
21
-114.719
0
LINE
8
BLACK
6
CONTINUOUS
10
45.4083
20
-114.719
11
45.4083
21
-115.291
0
LINE
8
BLACK
6
CONTINUOUS
10
45.4083
20
-115.291
11
45.3131
21
-115.481
0
LINE
8
BLACK
6
CONTINUOUS
10
45.3131
20
-115.481
11
45.2179
21
-115.577
0
LINE
8
BLACK
6
CONTINUOUS
10
45.2179
20
-115.577
11
45.0274
21
-115.672
0
LINE
8
BLACK
6
CONTINUOUS
10
45.0274
20
-115.672
11
44.6464
21
-115.672
0
LINE
8
BLACK
6
CONTINUOUS
10
44.6464
20
-115.672
11
44.456
21
-115.577
0
LINE
8
BLACK
6
CONTINUOUS
10
46.2655
20
-115.481
11
46.3607
21
-115.577
0
LINE
8
BLACK
6
CONTINUOUS
10
46.3607
20
-115.577
11
46.2655
21
-115.672
0
LINE
8
BLACK
6
CONTINUOUS
10
46.2655
20
-115.672
11
46.1702
21
-115.577
0
LINE
8
BLACK
6
CONTINUOUS
10
46.1702
20
-115.577
11
46.2655
21
-115.481
0
LINE
8
BLACK
6
CONTINUOUS
10
46.2655
20
-115.481
11
46.2655
21
-115.672
0
LINE
8
BLACK
6
CONTINUOUS
10
46.2655
20
-114.434
11
46.3607
21
-114.529
0
LINE
8
BLACK
6
CONTINUOUS
10
46.3607
20
-114.529
11
46.2655
21
-114.624
0
LINE
8
BLACK
6
CONTINUOUS
10
46.2655
20
-114.624
11
46.1702
21
-114.529
0
LINE
8
BLACK
6
CONTINUOUS
10
46.1702
20
-114.529
11
46.2655
21
-114.434
0
LINE
8
BLACK
6
CONTINUOUS
10
46.2655
20
-114.434
11
46.2655
21
-114.624
0
LINE
8
BLACK
6
CONTINUOUS
10
27.975
20
-117.967
11
29.975
21
-119.967
0
LINE
8
BLACK
6
CONTINUOUS
10
29.975
20
-117.967
11
27.975
21
-119.967
0
LINE
8
BLACK
6
CONTINUOUS
10
32.456
20
-118.062
11
32.5512
21
-117.967
0
LINE
8
BLACK
6
CONTINUOUS
10
32.5512
20
-117.967
11
32.7417
21
-117.872
0
LINE
8
BLACK
6
CONTINUOUS
10
32.7417
20
-117.872
11
33.2179
21
-117.872
0
LINE
8
BLACK
6
CONTINUOUS
10
33.2179
20
-117.872
11
33.4083
21
-117.967
0
LINE
8
BLACK
6
CONTINUOUS
10
33.4083
20
-117.967
11
33.5036
21
-118.062
0
LINE
8
BLACK
6
CONTINUOUS
10
33.5036
20
-118.062
11
33.5988
21
-118.253
0
LINE
8
BLACK
6
CONTINUOUS
10
33.5988
20
-118.253
11
33.5988
21
-118.443
0
LINE
8
BLACK
6
CONTINUOUS
10
33.5988
20
-118.443
11
33.5036
21
-118.729
0
LINE
8
BLACK
6
CONTINUOUS
10
33.5036
20
-118.729
11
32.3607
21
-119.872
0
LINE
8
BLACK
6
CONTINUOUS
10
32.3607
20
-119.872
11
33.5988
21
-119.872
0
LINE
8
BLACK
6
CONTINUOUS
10
34.456
20
-119.681
11
34.5512
21
-119.777
0
LINE
8
BLACK
6
CONTINUOUS
10
34.5512
20
-119.777
11
34.456
21
-119.872
0
LINE
8
BLACK
6
CONTINUOUS
10
34.456
20
-119.872
11
34.3607
21
-119.777
0
LINE
8
BLACK
6
CONTINUOUS
10
34.3607
20
-119.777
11
34.456
21
-119.681
0
LINE
8
BLACK
6
CONTINUOUS
10
34.456
20
-119.681
11
34.456
21
-119.872
0
LINE
8
BLACK
6
CONTINUOUS
10
36.456
20
-119.872
11
35.3131
21
-119.872
0
LINE
8
BLACK
6
CONTINUOUS
10
35.8845
20
-119.872
11
35.8845
21
-117.872
0
LINE
8
BLACK
6
CONTINUOUS
10
35.8845
20
-117.872
11
35.694
21
-118.157
0
LINE
8
BLACK
6
CONTINUOUS
10
35.694
20
-118.157
11
35.5036
21
-118.348
0
LINE
8
BLACK
6
CONTINUOUS
10
35.5036
20
-118.348
11
35.3131
21
-118.443
0
LINE
8
BLACK
6
CONTINUOUS
10
37.694
20
-117.872
11
37.8845
21
-117.872
0
LINE
8
BLACK
6
CONTINUOUS
10
37.8845
20
-117.872
11
38.075
21
-117.967
0
LINE
8
BLACK
6
CONTINUOUS
10
38.075
20
-117.967
11
38.1702
21
-118.062
0
LINE
8
BLACK
6
CONTINUOUS
10
38.1702
20
-118.062
11
38.2655
21
-118.253
0
LINE
8
BLACK
6
CONTINUOUS
10
38.2655
20
-118.253
11
38.3607
21
-118.634
0
LINE
8
BLACK
6
CONTINUOUS
10
38.3607
20
-118.634
11
38.3607
21
-119.11
0
LINE
8
BLACK
6
CONTINUOUS
10
38.3607
20
-119.11
11
38.2655
21
-119.491
0
LINE
8
BLACK
6
CONTINUOUS
10
38.2655
20
-119.491
11
38.1702
21
-119.681
0
LINE
8
BLACK
6
CONTINUOUS
10
38.1702
20
-119.681
11
38.075
21
-119.777
0
LINE
8
BLACK
6
CONTINUOUS
10
38.075
20
-119.777
11
37.8845
21
-119.872
0
LINE
8
BLACK
6
CONTINUOUS
10
37.8845
20
-119.872
11
37.694
21
-119.872
0
LINE
8
BLACK
6
CONTINUOUS
10
37.694
20
-119.872
11
37.5036
21
-119.777
0
LINE
8
BLACK
6
CONTINUOUS
10
37.5036
20
-119.777
11
37.4083
21
-119.681
0
LINE
8
BLACK
6
CONTINUOUS
10
37.4083
20
-119.681
11
37.3131
21
-119.491
0
LINE
8
BLACK
6
CONTINUOUS
10
37.3131
20
-119.491
11
37.2179
21
-119.11
0
LINE
8
BLACK
6
CONTINUOUS
10
37.2179
20
-119.11
11
37.2179
21
-118.634
0
LINE
8
BLACK
6
CONTINUOUS
10
37.2179
20
-118.634
11
37.3131
21
-118.253
0
LINE
8
BLACK
6
CONTINUOUS
10
37.3131
20
-118.253
11
37.4083
21
-118.062
0
LINE
8
BLACK
6
CONTINUOUS
10
37.4083
20
-118.062
11
37.5036
21
-117.967
0
LINE
8
BLACK
6
CONTINUOUS
10
37.5036
20
-117.967
11
37.694
21
-117.872
0
LINE
8
BLACK
6
CONTINUOUS
10
39.5988
20
-117.872
11
39.7893
21
-117.872
0
LINE
8
BLACK
6
CONTINUOUS
10
39.7893
20
-117.872
11
39.9798
21
-117.967
0
LINE
8
BLACK
6
CONTINUOUS
10
39.9798
20
-117.967
11
40.075
21
-118.062
0
LINE
8
BLACK
6
CONTINUOUS
10
40.075
20
-118.062
11
40.1702
21
-118.253
0
LINE
8
BLACK
6
CONTINUOUS
10
40.1702
20
-118.253
11
40.2655
21
-118.634
0
LINE
8
BLACK
6
CONTINUOUS
10
40.2655
20
-118.634
11
40.2655
21
-119.11
0
LINE
8
BLACK
6
CONTINUOUS
10
40.2655
20
-119.11
11
40.1702
21
-119.491
0
LINE
8
BLACK
6
CONTINUOUS
10
40.1702
20
-119.491
11
40.075
21
-119.681
0
LINE
8
BLACK
6
CONTINUOUS
10
40.075
20
-119.681
11
39.9798
21
-119.777
0
LINE
8
BLACK
6
CONTINUOUS
10
39.9798
20
-119.777
11
39.7893
21
-119.872
0
LINE
8
BLACK
6
CONTINUOUS
10
39.7893
20
-119.872
11
39.5988
21
-119.872
0
LINE
8
BLACK
6
CONTINUOUS
10
39.5988
20
-119.872
11
39.4083
21
-119.777
0
LINE
8
BLACK
6
CONTINUOUS
10
39.4083
20
-119.777
11
39.3131
21
-119.681
0
LINE
8
BLACK
6
CONTINUOUS
10
39.3131
20
-119.681
11
39.2179
21
-119.491
0
LINE
8
BLACK
6
CONTINUOUS
10
39.2179
20
-119.491
11
39.1226
21
-119.11
0
LINE
8
BLACK
6
CONTINUOUS
10
39.1226
20
-119.11
11
39.1226
21
-118.634
0
LINE
8
BLACK
6
CONTINUOUS
10
39.1226
20
-118.634
11
39.2179
21
-118.253
0
LINE
8
BLACK
6
CONTINUOUS
10
39.2179
20
-118.253
11
39.3131
21
-118.062
0
LINE
8
BLACK
6
CONTINUOUS
10
39.3131
20
-118.062
11
39.4083
21
-117.967
0
LINE
8
BLACK
6
CONTINUOUS
10
39.4083
20
-117.967
11
39.5988
21
-117.872
0
LINE
8
BLACK
6
CONTINUOUS
10
41.1226
20
-119.872
11
41.1226
21
-118.538
0
LINE
8
BLACK
6
CONTINUOUS
10
41.1226
20
-118.729
11
41.2179
21
-118.634
0
LINE
8
BLACK
6
CONTINUOUS
10
41.2179
20
-118.634
11
41.4083
21
-118.538
0
LINE
8
BLACK
6
CONTINUOUS
10
41.4083
20
-118.538
11
41.694
21
-118.538
0
LINE
8
BLACK
6
CONTINUOUS
10
41.694
20
-118.538
11
41.8845
21
-118.634
0
LINE
8
BLACK
6
CONTINUOUS
10
41.8845
20
-118.634
11
41.9798
21
-118.824
0
LINE
8
BLACK
6
CONTINUOUS
10
41.9798
20
-118.824
11
41.9798
21
-119.872
0
LINE
8
BLACK
6
CONTINUOUS
10
41.9798
20
-118.824
11
42.075
21
-118.634
0
LINE
8
BLACK
6
CONTINUOUS
10
42.075
20
-118.634
11
42.2655
21
-118.538
0
LINE
8
BLACK
6
CONTINUOUS
10
42.2655
20
-118.538
11
42.5512
21
-118.538
0
LINE
8
BLACK
6
CONTINUOUS
10
42.5512
20
-118.538
11
42.7417
21
-118.634
0
LINE
8
BLACK
6
CONTINUOUS
10
42.7417
20
-118.634
11
42.8369
21
-118.824
0
LINE
8
BLACK
6
CONTINUOUS
10
42.8369
20
-118.824
11
42.8369
21
-119.872
0
LINE
8
BLACK
6
CONTINUOUS
10
43.7893
20
-119.872
11
43.7893
21
-118.538
0
LINE
8
BLACK
6
CONTINUOUS
10
43.7893
20
-118.729
11
43.8845
21
-118.634
0
LINE
8
BLACK
6
CONTINUOUS
10
43.8845
20
-118.634
11
44.075
21
-118.538
0
LINE
8
BLACK
6
CONTINUOUS
10
44.075
20
-118.538
11
44.3607
21
-118.538
0
LINE
8
BLACK
6
CONTINUOUS
10
44.3607
20
-118.538
11
44.5512
21
-118.634
0
LINE
8
BLACK
6
CONTINUOUS
10
44.5512
20
-118.634
11
44.6464
21
-118.824
0
LINE
8
BLACK
6
CONTINUOUS
10
44.6464
20
-118.824
11
44.6464
21
-119.872
0
LINE
8
BLACK
6
CONTINUOUS
10
44.6464
20
-118.824
11
44.7417
21
-118.634
0
LINE
8
BLACK
6
CONTINUOUS
10
44.7417
20
-118.634
11
44.9321
21
-118.538
0
LINE
8
BLACK
6
CONTINUOUS
10
44.9321
20
-118.538
11
45.2179
21
-118.538
0
LINE
8
BLACK
6
CONTINUOUS
10
45.2179
20
-118.538
11
45.4083
21
-118.634
0
LINE
8
BLACK
6
CONTINUOUS
10
45.4083
20
-118.634
11
45.5036
21
-118.824
0
LINE
8
BLACK
6
CONTINUOUS
10
45.5036
20
-118.824
11
45.5036
21
-119.872
0
LINE
8
BLACK
6
CONTINUOUS
10
49.4083
20
-117.777
11
47.694
21
-120.348
0
LINE
8
BLACK
6
CONTINUOUS
10
51.9798
20
-117.872
11
52.1702
21
-117.872
0
LINE
8
BLACK
6
CONTINUOUS
10
52.1702
20
-117.872
11
52.3607
21
-117.967
0
LINE
8
BLACK
6
CONTINUOUS
10
52.3607
20
-117.967
11
52.456
21
-118.062
0
LINE
8
BLACK
6
CONTINUOUS
10
52.456
20
-118.062
11
52.5512
21
-118.253
0
LINE
8
BLACK
6
CONTINUOUS
10
52.5512
20
-118.253
11
52.6464
21
-118.634
0
LINE
8
BLACK
6
CONTINUOUS
10
52.6464
20
-118.634
11
52.6464
21
-119.11
0
LINE
8
BLACK
6
CONTINUOUS
10
52.6464
20
-119.11
11
52.5512
21
-119.491
0
LINE
8
BLACK
6
CONTINUOUS
10
52.5512
20
-119.491
11
52.456
21
-119.681
0
LINE
8
BLACK
6
CONTINUOUS
10
52.456
20
-119.681
11
52.3607
21
-119.777
0
LINE
8
BLACK
6
CONTINUOUS
10
52.3607
20
-119.777
11
52.1702
21
-119.872
0
LINE
8
BLACK
6
CONTINUOUS
10
52.1702
20
-119.872
11
51.9798
21
-119.872
0
LINE
8
BLACK
6
CONTINUOUS
10
51.9798
20
-119.872
11
51.7893
21
-119.777
0
LINE
8
BLACK
6
CONTINUOUS
10
51.7893
20
-119.777
11
51.694
21
-119.681
0
LINE
8
BLACK
6
CONTINUOUS
10
51.694
20
-119.681
11
51.5988
21
-119.491
0
LINE
8
BLACK
6
CONTINUOUS
10
51.5988
20
-119.491
11
51.5036
21
-119.11
0
LINE
8
BLACK
6
CONTINUOUS
10
51.5036
20
-119.11
11
51.5036
21
-118.634
0
LINE
8
BLACK
6
CONTINUOUS
10
51.5036
20
-118.634
11
51.5988
21
-118.253
0
LINE
8
BLACK
6
CONTINUOUS
10
51.5988
20
-118.253
11
51.694
21
-118.062
0
LINE
8
BLACK
6
CONTINUOUS
10
51.694
20
-118.062
11
51.7893
21
-117.967
0
LINE
8
BLACK
6
CONTINUOUS
10
51.7893
20
-117.967
11
51.9798
21
-117.872
0
LINE
8
BLACK
6
CONTINUOUS
10
53.5036
20
-119.681
11
53.5988
21
-119.777
0
LINE
8
BLACK
6
CONTINUOUS
10
53.5988
20
-119.777
11
53.5036
21
-119.872
0
LINE
8
BLACK
6
CONTINUOUS
10
53.5036
20
-119.872
11
53.4083
21
-119.777
0
LINE
8
BLACK
6
CONTINUOUS
10
53.4083
20
-119.777
11
53.5036
21
-119.681
0
LINE
8
BLACK
6
CONTINUOUS
10
53.5036
20
-119.681
11
53.5036
21
-119.872
0
LINE
8
BLACK
6
CONTINUOUS
10
54.8369
20
-117.872
11
55.0274
21
-117.872
0
LINE
8
BLACK
6
CONTINUOUS
10
55.0274
20
-117.872
11
55.2179
21
-117.967
0
LINE
8
BLACK
6
CONTINUOUS
10
55.2179
20
-117.967
11
55.3131
21
-118.062
0
LINE
8
BLACK
6
CONTINUOUS
10
55.3131
20
-118.062
11
55.4083
21
-118.253
0
LINE
8
BLACK
6
CONTINUOUS
10
55.4083
20
-118.253
11
55.5036
21
-118.634
0
LINE
8
BLACK
6
CONTINUOUS
10
55.5036
20
-118.634
11
55.5036
21
-119.11
0
LINE
8
BLACK
6
CONTINUOUS
10
55.5036
20
-119.11
11
55.4083
21
-119.491
0
LINE
8
BLACK
6
CONTINUOUS
10
55.4083
20
-119.491
11
55.3131
21
-119.681
0
LINE
8
BLACK
6
CONTINUOUS
10
55.3131
20
-119.681
11
55.2179
21
-119.777
0
LINE
8
BLACK
6
CONTINUOUS
10
55.2179
20
-119.777
11
55.0274
21
-119.872
0
LINE
8
BLACK
6
CONTINUOUS
10
55.0274
20
-119.872
11
54.8369
21
-119.872
0
LINE
8
BLACK
6
CONTINUOUS
10
54.8369
20
-119.872
11
54.6464
21
-119.777
0
LINE
8
BLACK
6
CONTINUOUS
10
54.6464
20
-119.777
11
54.5512
21
-119.681
0
LINE
8
BLACK
6
CONTINUOUS
10
54.5512
20
-119.681
11
54.456
21
-119.491
0
LINE
8
BLACK
6
CONTINUOUS
10
54.456
20
-119.491
11
54.3607
21
-119.11
0
LINE
8
BLACK
6
CONTINUOUS
10
54.3607
20
-119.11
11
54.3607
21
-118.634
0
LINE
8
BLACK
6
CONTINUOUS
10
54.3607
20
-118.634
11
54.456
21
-118.253
0
LINE
8
BLACK
6
CONTINUOUS
10
54.456
20
-118.253
11
54.5512
21
-118.062
0
LINE
8
BLACK
6
CONTINUOUS
10
54.5512
20
-118.062
11
54.6464
21
-117.967
0
LINE
8
BLACK
6
CONTINUOUS
10
54.6464
20
-117.967
11
54.8369
21
-117.872
0
LINE
8
BLACK
6
CONTINUOUS
10
56.6464
20
-118.729
11
56.456
21
-118.634
0
LINE
8
BLACK
6
CONTINUOUS
10
56.456
20
-118.634
11
56.3607
21
-118.538
0
LINE
8
BLACK
6
CONTINUOUS
10
56.3607
20
-118.538
11
56.2655
21
-118.348
0
LINE
8
BLACK
6
CONTINUOUS
10
56.2655
20
-118.348
11
56.2655
21
-118.253
0
LINE
8
BLACK
6
CONTINUOUS
10
56.2655
20
-118.253
11
56.3607
21
-118.062
0
LINE
8
BLACK
6
CONTINUOUS
10
56.3607
20
-118.062
11
56.456
21
-117.967
0
LINE
8
BLACK
6
CONTINUOUS
10
56.456
20
-117.967
11
56.6464
21
-117.872
0
LINE
8
BLACK
6
CONTINUOUS
10
56.6464
20
-117.872
11
57.0274
21
-117.872
0
LINE
8
BLACK
6
CONTINUOUS
10
57.0274
20
-117.872
11
57.2179
21
-117.967
0
LINE
8
BLACK
6
CONTINUOUS
10
57.2179
20
-117.967
11
57.3131
21
-118.062
0
LINE
8
BLACK
6
CONTINUOUS
10
57.3131
20
-118.062
11
57.4083
21
-118.253
0
LINE
8
BLACK
6
CONTINUOUS
10
57.4083
20
-118.253
11
57.4083
21
-118.348
0
LINE
8
BLACK
6
CONTINUOUS
10
57.4083
20
-118.348
11
57.3131
21
-118.538
0
LINE
8
BLACK
6
CONTINUOUS
10
57.3131
20
-118.538
11
57.2179
21
-118.634
0
LINE
8
BLACK
6
CONTINUOUS
10
57.2179
20
-118.634
11
57.0274
21
-118.729
0
LINE
8
BLACK
6
CONTINUOUS
10
57.0274
20
-118.729
11
56.6464
21
-118.729
0
LINE
8
BLACK
6
CONTINUOUS
10
56.6464
20
-118.729
11
56.456
21
-118.824
0
LINE
8
BLACK
6
CONTINUOUS
10
56.456
20
-118.824
11
56.3607
21
-118.919
0
LINE
8
BLACK
6
CONTINUOUS
10
56.3607
20
-118.919
11
56.2655
21
-119.11
0
LINE
8
BLACK
6
CONTINUOUS
10
56.2655
20
-119.11
11
56.2655
21
-119.491
0
LINE
8
BLACK
6
CONTINUOUS
10
56.2655
20
-119.491
11
56.3607
21
-119.681
0
LINE
8
BLACK
6
CONTINUOUS
10
56.3607
20
-119.681
11
56.456
21
-119.777
0
LINE
8
BLACK
6
CONTINUOUS
10
56.456
20
-119.777
11
56.6464
21
-119.872
0
LINE
8
BLACK
6
CONTINUOUS
10
56.6464
20
-119.872
11
57.0274
21
-119.872
0
LINE
8
BLACK
6
CONTINUOUS
10
57.0274
20
-119.872
11
57.2179
21
-119.777
0
LINE
8
BLACK
6
CONTINUOUS
10
57.2179
20
-119.777
11
57.3131
21
-119.681
0
LINE
8
BLACK
6
CONTINUOUS
10
57.3131
20
-119.681
11
57.4083
21
-119.491
0
LINE
8
BLACK
6
CONTINUOUS
10
57.4083
20
-119.491
11
57.4083
21
-119.11
0
LINE
8
BLACK
6
CONTINUOUS
10
57.4083
20
-119.11
11
57.3131
21
-118.919
0
LINE
8
BLACK
6
CONTINUOUS
10
57.3131
20
-118.919
11
57.2179
21
-118.824
0
LINE
8
BLACK
6
CONTINUOUS
10
57.2179
20
-118.824
11
57.0274
21
-118.729
0
LINE
8
BLACK
6
CONTINUOUS
10
58.1702
20
-118.062
11
58.2655
21
-117.967
0
LINE
8
BLACK
6
CONTINUOUS
10
58.2655
20
-117.967
11
58.456
21
-117.872
0
LINE
8
BLACK
6
CONTINUOUS
10
58.456
20
-117.872
11
58.9321
21
-117.872
0
LINE
8
BLACK
6
CONTINUOUS
10
58.9321
20
-117.872
11
59.1226
21
-117.967
0
LINE
8
BLACK
6
CONTINUOUS
10
59.1226
20
-117.967
11
59.2179
21
-118.062
0
LINE
8
BLACK
6
CONTINUOUS
10
59.2179
20
-118.062
11
59.3131
21
-118.253
0
LINE
8
BLACK
6
CONTINUOUS
10
59.3131
20
-118.253
11
59.3131
21
-118.443
0
LINE
8
BLACK
6
CONTINUOUS
10
59.3131
20
-118.443
11
59.2179
21
-118.729
0
LINE
8
BLACK
6
CONTINUOUS
10
59.2179
20
-118.729
11
58.075
21
-119.872
0
LINE
8
BLACK
6
CONTINUOUS
10
58.075
20
-119.872
11
59.3131
21
-119.872
0
LINE
8
BLACK
6
CONTINUOUS
10
59.9798
20
-117.872
11
61.3131
21
-117.872
0
LINE
8
BLACK
6
CONTINUOUS
10
61.3131
20
-117.872
11
60.456
21
-119.872
0
LINE
8
BLACK
6
CONTINUOUS
10
61.9798
20
-117.872
11
61.9798
21
-118.253
0
LINE
8
BLACK
6
CONTINUOUS
10
62.7417
20
-117.872
11
62.7417
21
-118.253
0
LINE
8
BLACK
6
CONTINUOUS
10
65.694
20
-120.634
11
65.5988
21
-120.538
0
LINE
8
BLACK
6
CONTINUOUS
10
65.5988
20
-120.538
11
65.4083
21
-120.253
0
LINE
8
BLACK
6
CONTINUOUS
10
65.4083
20
-120.253
11
65.3131
21
-120.062
0
LINE
8
BLACK
6
CONTINUOUS
10
65.3131
20
-120.062
11
65.2179
21
-119.777
0
LINE
8
BLACK
6
CONTINUOUS
10
65.2179
20
-119.777
11
65.1226
21
-119.3
0
LINE
8
BLACK
6
CONTINUOUS
10
65.1226
20
-119.3
11
65.1226
21
-118.919
0
LINE
8
BLACK
6
CONTINUOUS
10
65.1226
20
-118.919
11
65.2179
21
-118.443
0
LINE
8
BLACK
6
CONTINUOUS
10
65.2179
20
-118.443
11
65.3131
21
-118.157
0
LINE
8
BLACK
6
CONTINUOUS
10
65.3131
20
-118.157
11
65.4083
21
-117.967
0
LINE
8
BLACK
6
CONTINUOUS
10
65.4083
20
-117.967
11
65.5988
21
-117.681
0
LINE
8
BLACK
6
CONTINUOUS
10
65.5988
20
-117.681
11
65.694
21
-117.586
0
LINE
8
BLACK
6
CONTINUOUS
10
67.5036
20
-119.872
11
66.3607
21
-119.872
0
LINE
8
BLACK
6
CONTINUOUS
10
66.9321
20
-119.872
11
66.9321
21
-117.872
0
LINE
8
BLACK
6
CONTINUOUS
10
66.9321
20
-117.872
11
66.7417
21
-118.157
0
LINE
8
BLACK
6
CONTINUOUS
10
66.7417
20
-118.157
11
66.5512
21
-118.348
0
LINE
8
BLACK
6
CONTINUOUS
10
66.5512
20
-118.348
11
66.3607
21
-118.443
0
LINE
8
BLACK
6
CONTINUOUS
10
69.8845
20
-119.872
11
69.8845
21
-117.872
0
LINE
8
BLACK
6
CONTINUOUS
10
70.7417
20
-119.872
11
70.7417
21
-118.824
0
LINE
8
BLACK
6
CONTINUOUS
10
70.7417
20
-118.824
11
70.6464
21
-118.634
0
LINE
8
BLACK
6
CONTINUOUS
10
70.6464
20
-118.634
11
70.456
21
-118.538
0
LINE
8
BLACK
6
CONTINUOUS
10
70.456
20
-118.538
11
70.1702
21
-118.538
0
LINE
8
BLACK
6
CONTINUOUS
10
70.1702
20
-118.538
11
69.9798
21
-118.634
0
LINE
8
BLACK
6
CONTINUOUS
10
69.9798
20
-118.634
11
69.8845
21
-118.729
0
LINE
8
BLACK
6
CONTINUOUS
10
71.9798
20
-119.872
11
71.7893
21
-119.777
0
LINE
8
BLACK
6
CONTINUOUS
10
71.7893
20
-119.777
11
71.694
21
-119.681
0
LINE
8
BLACK
6
CONTINUOUS
10
71.694
20
-119.681
11
71.5988
21
-119.491
0
LINE
8
BLACK
6
CONTINUOUS
10
71.5988
20
-119.491
11
71.5988
21
-118.919
0
LINE
8
BLACK
6
CONTINUOUS
10
71.5988
20
-118.919
11
71.694
21
-118.729
0
LINE
8
BLACK
6
CONTINUOUS
10
71.694
20
-118.729
11
71.7893
21
-118.634
0
LINE
8
BLACK
6
CONTINUOUS
10
71.7893
20
-118.634
11
71.9798
21
-118.538
0
LINE
8
BLACK
6
CONTINUOUS
10
71.9798
20
-118.538
11
72.2655
21
-118.538
0
LINE
8
BLACK
6
CONTINUOUS
10
72.2655
20
-118.538
11
72.456
21
-118.634
0
LINE
8
BLACK
6
CONTINUOUS
10
72.456
20
-118.634
11
72.5512
21
-118.729
0
LINE
8
BLACK
6
CONTINUOUS
10
72.5512
20
-118.729
11
72.6464
21
-118.919
0
LINE
8
BLACK
6
CONTINUOUS
10
72.6464
20
-118.919
11
72.6464
21
-119.491
0
LINE
8
BLACK
6
CONTINUOUS
10
72.6464
20
-119.491
11
72.5512
21
-119.681
0
LINE
8
BLACK
6
CONTINUOUS
10
72.5512
20
-119.681
11
72.456
21
-119.777
0
LINE
8
BLACK
6
CONTINUOUS
10
72.456
20
-119.777
11
72.2655
21
-119.872
0
LINE
8
BLACK
6
CONTINUOUS
10
72.2655
20
-119.872
11
71.9798
21
-119.872
0
LINE
8
BLACK
6
CONTINUOUS
10
73.7893
20
-119.872
11
73.5988
21
-119.777
0
LINE
8
BLACK
6
CONTINUOUS
10
73.5988
20
-119.777
11
73.5036
21
-119.586
0
LINE
8
BLACK
6
CONTINUOUS
10
73.5036
20
-119.586
11
73.5036
21
-117.872
0
LINE
8
BLACK
6
CONTINUOUS
10
75.3131
20
-119.777
11
75.1226
21
-119.872
0
LINE
8
BLACK
6
CONTINUOUS
10
75.1226
20
-119.872
11
74.7417
21
-119.872
0
LINE
8
BLACK
6
CONTINUOUS
10
74.7417
20
-119.872
11
74.5512
21
-119.777
0
LINE
8
BLACK
6
CONTINUOUS
10
74.5512
20
-119.777
11
74.456
21
-119.586
0
LINE
8
BLACK
6
CONTINUOUS
10
74.456
20
-119.586
11
74.456
21
-118.824
0
LINE
8
BLACK
6
CONTINUOUS
10
74.456
20
-118.824
11
74.5512
21
-118.634
0
LINE
8
BLACK
6
CONTINUOUS
10
74.5512
20
-118.634
11
74.7417
21
-118.538
0
LINE
8
BLACK
6
CONTINUOUS
10
74.7417
20
-118.538
11
75.1226
21
-118.538
0
LINE
8
BLACK
6
CONTINUOUS
10
75.1226
20
-118.538
11
75.3131
21
-118.634
0
LINE
8
BLACK
6
CONTINUOUS
10
75.3131
20
-118.634
11
75.4083
21
-118.824
0
LINE
8
BLACK
6
CONTINUOUS
10
75.4083
20
-118.824
11
75.4083
21
-119.015
0
LINE
8
BLACK
6
CONTINUOUS
10
75.4083
20
-119.015
11
74.456
21
-119.205
0
LINE
8
BLACK
6
CONTINUOUS
10
76.075
20
-120.634
11
76.1702
21
-120.538
0
LINE
8
BLACK
6
CONTINUOUS
10
76.1702
20
-120.538
11
76.3607
21
-120.253
0
LINE
8
BLACK
6
CONTINUOUS
10
76.3607
20
-120.253
11
76.456
21
-120.062
0
LINE
8
BLACK
6
CONTINUOUS
10
76.456
20
-120.062
11
76.5512
21
-119.777
0
LINE
8
BLACK
6
CONTINUOUS
10
76.5512
20
-119.777
11
76.6464
21
-119.3
0
LINE
8
BLACK
6
CONTINUOUS
10
76.6464
20
-119.3
11
76.6464
21
-118.919
0
LINE
8
BLACK
6
CONTINUOUS
10
76.6464
20
-118.919
11
76.5512
21
-118.443
0
LINE
8
BLACK
6
CONTINUOUS
10
76.5512
20
-118.443
11
76.456
21
-118.157
0
LINE
8
BLACK
6
CONTINUOUS
10
76.456
20
-118.157
11
76.3607
21
-117.967
0
LINE
8
BLACK
6
CONTINUOUS
10
76.3607
20
-117.967
11
76.1702
21
-117.681
0
LINE
8
BLACK
6
CONTINUOUS
10
76.1702
20
-117.681
11
76.075
21
-117.586
0
LINE
8
BLACK
6
CONTINUOUS
10
79.694
20
-120.634
11
79.5988
21
-120.538
0
LINE
8
BLACK
6
CONTINUOUS
10
79.5988
20
-120.538
11
79.4083
21
-120.253
0
LINE
8
BLACK
6
CONTINUOUS
10
79.4083
20
-120.253
11
79.3131
21
-120.062
0
LINE
8
BLACK
6
CONTINUOUS
10
79.3131
20
-120.062
11
79.2179
21
-119.777
0
LINE
8
BLACK
6
CONTINUOUS
10
79.2179
20
-119.777
11
79.1226
21
-119.3
0
LINE
8
BLACK
6
CONTINUOUS
10
79.1226
20
-119.3
11
79.1226
21
-118.919
0
LINE
8
BLACK
6
CONTINUOUS
10
79.1226
20
-118.919
11
79.2179
21
-118.443
0
LINE
8
BLACK
6
CONTINUOUS
10
79.2179
20
-118.443
11
79.3131
21
-118.157
0
LINE
8
BLACK
6
CONTINUOUS
10
79.3131
20
-118.157
11
79.4083
21
-117.967
0
LINE
8
BLACK
6
CONTINUOUS
10
79.4083
20
-117.967
11
79.5988
21
-117.681
0
LINE
8
BLACK
6
CONTINUOUS
10
79.5988
20
-117.681
11
79.694
21
-117.586
0
LINE
8
BLACK
6
CONTINUOUS
10
80.456
20
-118.538
11
80.456
21
-119.872
0
LINE
8
BLACK
6
CONTINUOUS
10
80.456
20
-118.729
11
80.5512
21
-118.634
0
LINE
8
BLACK
6
CONTINUOUS
10
80.5512
20
-118.634
11
80.7417
21
-118.538
0
LINE
8
BLACK
6
CONTINUOUS
10
80.7417
20
-118.538
11
81.0274
21
-118.538
0
LINE
8
BLACK
6
CONTINUOUS
10
81.0274
20
-118.538
11
81.2179
21
-118.634
0
LINE
8
BLACK
6
CONTINUOUS
10
81.2179
20
-118.634
11
81.3131
21
-118.824
0
LINE
8
BLACK
6
CONTINUOUS
10
81.3131
20
-118.824
11
81.3131
21
-119.872
0
LINE
8
BLACK
6
CONTINUOUS
10
82.5512
20
-119.872
11
82.3607
21
-119.777
0
LINE
8
BLACK
6
CONTINUOUS
10
82.3607
20
-119.777
11
82.2655
21
-119.681
0
LINE
8
BLACK
6
CONTINUOUS
10
82.2655
20
-119.681
11
82.1702
21
-119.491
0
LINE
8
BLACK
6
CONTINUOUS
10
82.1702
20
-119.491
11
82.1702
21
-118.919
0
LINE
8
BLACK
6
CONTINUOUS
10
82.1702
20
-118.919
11
82.2655
21
-118.729
0
LINE
8
BLACK
6
CONTINUOUS
10
82.2655
20
-118.729
11
82.3607
21
-118.634
0
LINE
8
BLACK
6
CONTINUOUS
10
82.3607
20
-118.634
11
82.5512
21
-118.538
0
LINE
8
BLACK
6
CONTINUOUS
10
82.5512
20
-118.538
11
82.8369
21
-118.538
0
LINE
8
BLACK
6
CONTINUOUS
10
82.8369
20
-118.538
11
83.0274
21
-118.634
0
LINE
8
BLACK
6
CONTINUOUS
10
83.0274
20
-118.634
11
83.1226
21
-118.729
0
LINE
8
BLACK
6
CONTINUOUS
10
83.1226
20
-118.729
11
83.2179
21
-118.919
0
LINE
8
BLACK
6
CONTINUOUS
10
83.2179
20
-118.919
11
83.2179
21
-119.491
0
LINE
8
BLACK
6
CONTINUOUS
10
83.2179
20
-119.491
11
83.1226
21
-119.681
0
LINE
8
BLACK
6
CONTINUOUS
10
83.1226
20
-119.681
11
83.0274
21
-119.777
0
LINE
8
BLACK
6
CONTINUOUS
10
83.0274
20
-119.777
11
82.8369
21
-119.872
0
LINE
8
BLACK
6
CONTINUOUS
10
82.8369
20
-119.872
11
82.5512
21
-119.872
0
LINE
8
BLACK
6
CONTINUOUS
10
83.7893
20
-118.538
11
84.5512
21
-118.538
0
LINE
8
BLACK
6
CONTINUOUS
10
84.075
20
-117.872
11
84.075
21
-119.586
0
LINE
8
BLACK
6
CONTINUOUS
10
84.075
20
-119.586
11
84.1702
21
-119.777
0
LINE
8
BLACK
6
CONTINUOUS
10
84.1702
20
-119.777
11
84.3607
21
-119.872
0
LINE
8
BLACK
6
CONTINUOUS
10
84.3607
20
-119.872
11
84.5512
21
-119.872
0
LINE
8
BLACK
6
CONTINUOUS
10
86.7417
20
-118.538
11
86.7417
21
-120.538
0
LINE
8
BLACK
6
CONTINUOUS
10
86.7417
20
-118.634
11
86.9321
21
-118.538
0
LINE
8
BLACK
6
CONTINUOUS
10
86.9321
20
-118.538
11
87.3131
21
-118.538
0
LINE
8
BLACK
6
CONTINUOUS
10
87.3131
20
-118.538
11
87.5036
21
-118.634
0
LINE
8
BLACK
6
CONTINUOUS
10
87.5036
20
-118.634
11
87.5988
21
-118.729
0
LINE
8
BLACK
6
CONTINUOUS
10
87.5988
20
-118.729
11
87.694
21
-118.919
0
LINE
8
BLACK
6
CONTINUOUS
10
87.694
20
-118.919
11
87.694
21
-119.491
0
LINE
8
BLACK
6
CONTINUOUS
10
87.694
20
-119.491
11
87.5988
21
-119.681
0
LINE
8
BLACK
6
CONTINUOUS
10
87.5988
20
-119.681
11
87.5036
21
-119.777
0
LINE
8
BLACK
6
CONTINUOUS
10
87.5036
20
-119.777
11
87.3131
21
-119.872
0
LINE
8
BLACK
6
CONTINUOUS
10
87.3131
20
-119.872
11
86.9321
21
-119.872
0
LINE
8
BLACK
6
CONTINUOUS
10
86.9321
20
-119.872
11
86.7417
21
-119.777
0
LINE
8
BLACK
6
CONTINUOUS
10
88.8369
20
-119.872
11
88.6464
21
-119.777
0
LINE
8
BLACK
6
CONTINUOUS
10
88.6464
20
-119.777
11
88.5512
21
-119.586
0
LINE
8
BLACK
6
CONTINUOUS
10
88.5512
20
-119.586
11
88.5512
21
-117.872
0
LINE
8
BLACK
6
CONTINUOUS
10
90.456
20
-119.872
11
90.456
21
-118.824
0
LINE
8
BLACK
6
CONTINUOUS
10
90.456
20
-118.824
11
90.3607
21
-118.634
0
LINE
8
BLACK
6
CONTINUOUS
10
90.3607
20
-118.634
11
90.1702
21
-118.538
0
LINE
8
BLACK
6
CONTINUOUS
10
90.1702
20
-118.538
11
89.7893
21
-118.538
0
LINE
8
BLACK
6
CONTINUOUS
10
89.7893
20
-118.538
11
89.5988
21
-118.634
0
LINE
8
BLACK
6
CONTINUOUS
10
90.456
20
-119.777
11
90.2655
21
-119.872
0
LINE
8
BLACK
6
CONTINUOUS
10
90.2655
20
-119.872
11
89.7893
21
-119.872
0
LINE
8
BLACK
6
CONTINUOUS
10
89.7893
20
-119.872
11
89.5988
21
-119.777
0
LINE
8
BLACK
6
CONTINUOUS
10
89.5988
20
-119.777
11
89.5036
21
-119.586
0
LINE
8
BLACK
6
CONTINUOUS
10
89.5036
20
-119.586
11
89.5036
21
-119.396
0
LINE
8
BLACK
6
CONTINUOUS
10
89.5036
20
-119.396
11
89.5988
21
-119.205
0
LINE
8
BLACK
6
CONTINUOUS
10
89.5988
20
-119.205
11
89.7893
21
-119.11
0
LINE
8
BLACK
6
CONTINUOUS
10
89.7893
20
-119.11
11
90.2655
21
-119.11
0
LINE
8
BLACK
6
CONTINUOUS
10
90.2655
20
-119.11
11
90.456
21
-119.015
0
LINE
8
BLACK
6
CONTINUOUS
10
91.1226
20
-118.538
11
91.8845
21
-118.538
0
LINE
8
BLACK
6
CONTINUOUS
10
91.4083
20
-117.872
11
91.4083
21
-119.586
0
LINE
8
BLACK
6
CONTINUOUS
10
91.4083
20
-119.586
11
91.5036
21
-119.777
0
LINE
8
BLACK
6
CONTINUOUS
10
91.5036
20
-119.777
11
91.694
21
-119.872
0
LINE
8
BLACK
6
CONTINUOUS
10
91.694
20
-119.872
11
91.8845
21
-119.872
0
LINE
8
BLACK
6
CONTINUOUS
10
93.3131
20
-119.777
11
93.1226
21
-119.872
0
LINE
8
BLACK
6
CONTINUOUS
10
93.1226
20
-119.872
11
92.7417
21
-119.872
0
LINE
8
BLACK
6
CONTINUOUS
10
92.7417
20
-119.872
11
92.5512
21
-119.777
0
LINE
8
BLACK
6
CONTINUOUS
10
92.5512
20
-119.777
11
92.456
21
-119.586
0
LINE
8
BLACK
6
CONTINUOUS
10
92.456
20
-119.586
11
92.456
21
-118.824
0
LINE
8
BLACK
6
CONTINUOUS
10
92.456
20
-118.824
11
92.5512
21
-118.634
0
LINE
8
BLACK
6
CONTINUOUS
10
92.5512
20
-118.634
11
92.7417
21
-118.538
0
LINE
8
BLACK
6
CONTINUOUS
10
92.7417
20
-118.538
11
93.1226
21
-118.538
0
LINE
8
BLACK
6
CONTINUOUS
10
93.1226
20
-118.538
11
93.3131
21
-118.634
0
LINE
8
BLACK
6
CONTINUOUS
10
93.3131
20
-118.634
11
93.4083
21
-118.824
0
LINE
8
BLACK
6
CONTINUOUS
10
93.4083
20
-118.824
11
93.4083
21
-119.015
0
LINE
8
BLACK
6
CONTINUOUS
10
93.4083
20
-119.015
11
92.456
21
-119.205
0
LINE
8
BLACK
6
CONTINUOUS
10
95.1226
20
-119.872
11
95.1226
21
-117.872
0
LINE
8
BLACK
6
CONTINUOUS
10
95.1226
20
-119.777
11
94.9321
21
-119.872
0
LINE
8
BLACK
6
CONTINUOUS
10
94.9321
20
-119.872
11
94.5512
21
-119.872
0
LINE
8
BLACK
6
CONTINUOUS
10
94.5512
20
-119.872
11
94.3607
21
-119.777
0
LINE
8
BLACK
6
CONTINUOUS
10
94.3607
20
-119.777
11
94.2655
21
-119.681
0
LINE
8
BLACK
6
CONTINUOUS
10
94.2655
20
-119.681
11
94.1702
21
-119.491
0
LINE
8
BLACK
6
CONTINUOUS
10
94.1702
20
-119.491
11
94.1702
21
-118.919
0
LINE
8
BLACK
6
CONTINUOUS
10
94.1702
20
-118.919
11
94.2655
21
-118.729
0
LINE
8
BLACK
6
CONTINUOUS
10
94.2655
20
-118.729
11
94.3607
21
-118.634
0
LINE
8
BLACK
6
CONTINUOUS
10
94.3607
20
-118.634
11
94.5512
21
-118.538
0
LINE
8
BLACK
6
CONTINUOUS
10
94.5512
20
-118.538
11
94.9321
21
-118.538
0
LINE
8
BLACK
6
CONTINUOUS
10
94.9321
20
-118.538
11
95.1226
21
-118.634
0
LINE
8
BLACK
6
CONTINUOUS
10
95.8845
20
-120.634
11
95.9798
21
-120.538
0
LINE
8
BLACK
6
CONTINUOUS
10
95.9798
20
-120.538
11
96.1702
21
-120.253
0
LINE
8
BLACK
6
CONTINUOUS
10
96.1702
20
-120.253
11
96.2655
21
-120.062
0
LINE
8
BLACK
6
CONTINUOUS
10
96.2655
20
-120.062
11
96.3607
21
-119.777
0
LINE
8
BLACK
6
CONTINUOUS
10
96.3607
20
-119.777
11
96.456
21
-119.3
0
LINE
8
BLACK
6
CONTINUOUS
10
96.456
20
-119.3
11
96.456
21
-118.919
0
LINE
8
BLACK
6
CONTINUOUS
10
96.456
20
-118.919
11
96.3607
21
-118.443
0
LINE
8
BLACK
6
CONTINUOUS
10
96.3607
20
-118.443
11
96.2655
21
-118.157
0
LINE
8
BLACK
6
CONTINUOUS
10
96.2655
20
-118.157
11
96.1702
21
-117.967
0
LINE
8
BLACK
6
CONTINUOUS
10
96.1702
20
-117.967
11
95.9798
21
-117.681
0
LINE
8
BLACK
6
CONTINUOUS
10
95.9798
20
-117.681
11
95.8845
21
-117.586
0
CIRCLE
8
BLACK
10
28.975
20
-122.167
40
1
0
LINE
8
BLACK
6
CONTINUOUS
10
32.3607
20
-121.072
11
33.5988
21
-121.072
0
LINE
8
BLACK
6
CONTINUOUS
10
33.5988
20
-121.072
11
32.9321
21
-121.834
0
LINE
8
BLACK
6
CONTINUOUS
10
32.9321
20
-121.834
11
33.2179
21
-121.834
0
LINE
8
BLACK
6
CONTINUOUS
10
33.2179
20
-121.834
11
33.4083
21
-121.929
0
LINE
8
BLACK
6
CONTINUOUS
10
33.4083
20
-121.929
11
33.5036
21
-122.024
0
LINE
8
BLACK
6
CONTINUOUS
10
33.5036
20
-122.024
11
33.5988
21
-122.215
0
LINE
8
BLACK
6
CONTINUOUS
10
33.5988
20
-122.215
11
33.5988
21
-122.691
0
LINE
8
BLACK
6
CONTINUOUS
10
33.5988
20
-122.691
11
33.5036
21
-122.881
0
LINE
8
BLACK
6
CONTINUOUS
10
33.5036
20
-122.881
11
33.4083
21
-122.977
0
LINE
8
BLACK
6
CONTINUOUS
10
33.4083
20
-122.977
11
33.2179
21
-123.072
0
LINE
8
BLACK
6
CONTINUOUS
10
33.2179
20
-123.072
11
32.6464
21
-123.072
0
LINE
8
BLACK
6
CONTINUOUS
10
32.6464
20
-123.072
11
32.456
21
-122.977
0
LINE
8
BLACK
6
CONTINUOUS
10
32.456
20
-122.977
11
32.3607
21
-122.881
0
LINE
8
BLACK
6
CONTINUOUS
10
34.456
20
-122.881
11
34.5512
21
-122.977
0
LINE
8
BLACK
6
CONTINUOUS
10
34.5512
20
-122.977
11
34.456
21
-123.072
0
LINE
8
BLACK
6
CONTINUOUS
10
34.456
20
-123.072
11
34.3607
21
-122.977
0
LINE
8
BLACK
6
CONTINUOUS
10
34.3607
20
-122.977
11
34.456
21
-122.881
0
LINE
8
BLACK
6
CONTINUOUS
10
34.456
20
-122.881
11
34.456
21
-123.072
0
LINE
8
BLACK
6
CONTINUOUS
10
35.3131
20
-121.262
11
35.4083
21
-121.167
0
LINE
8
BLACK
6
CONTINUOUS
10
35.4083
20
-121.167
11
35.5988
21
-121.072
0
LINE
8
BLACK
6
CONTINUOUS
10
35.5988
20
-121.072
11
36.075
21
-121.072
0
LINE
8
BLACK
6
CONTINUOUS
10
36.075
20
-121.072
11
36.2655
21
-121.167
0
LINE
8
BLACK
6
CONTINUOUS
10
36.2655
20
-121.167
11
36.3607
21
-121.262
0
LINE
8
BLACK
6
CONTINUOUS
10
36.3607
20
-121.262
11
36.456
21
-121.453
0
LINE
8
BLACK
6
CONTINUOUS
10
36.456
20
-121.453
11
36.456
21
-121.643
0
LINE
8
BLACK
6
CONTINUOUS
10
36.456
20
-121.643
11
36.3607
21
-121.929
0
LINE
8
BLACK
6
CONTINUOUS
10
36.3607
20
-121.929
11
35.2179
21
-123.072
0
LINE
8
BLACK
6
CONTINUOUS
10
35.2179
20
-123.072
11
36.456
21
-123.072
0
LINE
8
BLACK
6
CONTINUOUS
10
37.694
20
-121.072
11
37.8845
21
-121.072
0
LINE
8
BLACK
6
CONTINUOUS
10
37.8845
20
-121.072
11
38.075
21
-121.167
0
LINE
8
BLACK
6
CONTINUOUS
10
38.075
20
-121.167
11
38.1702
21
-121.262
0
LINE
8
BLACK
6
CONTINUOUS
10
38.1702
20
-121.262
11
38.2655
21
-121.453
0
LINE
8
BLACK
6
CONTINUOUS
10
38.2655
20
-121.453
11
38.3607
21
-121.834
0
LINE
8
BLACK
6
CONTINUOUS
10
38.3607
20
-121.834
11
38.3607
21
-122.31
0
LINE
8
BLACK
6
CONTINUOUS
10
38.3607
20
-122.31
11
38.2655
21
-122.691
0
LINE
8
BLACK
6
CONTINUOUS
10
38.2655
20
-122.691
11
38.1702
21
-122.881
0
LINE
8
BLACK
6
CONTINUOUS
10
38.1702
20
-122.881
11
38.075
21
-122.977
0
LINE
8
BLACK
6
CONTINUOUS
10
38.075
20
-122.977
11
37.8845
21
-123.072
0
LINE
8
BLACK
6
CONTINUOUS
10
37.8845
20
-123.072
11
37.694
21
-123.072
0
LINE
8
BLACK
6
CONTINUOUS
10
37.694
20
-123.072
11
37.5036
21
-122.977
0
LINE
8
BLACK
6
CONTINUOUS
10
37.5036
20
-122.977
11
37.4083
21
-122.881
0
LINE
8
BLACK
6
CONTINUOUS
10
37.4083
20
-122.881
11
37.3131
21
-122.691
0
LINE
8
BLACK
6
CONTINUOUS
10
37.3131
20
-122.691
11
37.2179
21
-122.31
0
LINE
8
BLACK
6
CONTINUOUS
10
37.2179
20
-122.31
11
37.2179
21
-121.834
0
LINE
8
BLACK
6
CONTINUOUS
10
37.2179
20
-121.834
11
37.3131
21
-121.453
0
LINE
8
BLACK
6
CONTINUOUS
10
37.3131
20
-121.453
11
37.4083
21
-121.262
0
LINE
8
BLACK
6
CONTINUOUS
10
37.4083
20
-121.262
11
37.5036
21
-121.167
0
LINE
8
BLACK
6
CONTINUOUS
10
37.5036
20
-121.167
11
37.694
21
-121.072
0
LINE
8
BLACK
6
CONTINUOUS
10
39.5988
20
-121.072
11
39.7893
21
-121.072
0
LINE
8
BLACK
6
CONTINUOUS
10
39.7893
20
-121.072
11
39.9798
21
-121.167
0
LINE
8
BLACK
6
CONTINUOUS
10
39.9798
20
-121.167
11
40.075
21
-121.262
0
LINE
8
BLACK
6
CONTINUOUS
10
40.075
20
-121.262
11
40.1702
21
-121.453
0
LINE
8
BLACK
6
CONTINUOUS
10
40.1702
20
-121.453
11
40.2655
21
-121.834
0
LINE
8
BLACK
6
CONTINUOUS
10
40.2655
20
-121.834
11
40.2655
21
-122.31
0
LINE
8
BLACK
6
CONTINUOUS
10
40.2655
20
-122.31
11
40.1702
21
-122.691
0
LINE
8
BLACK
6
CONTINUOUS
10
40.1702
20
-122.691
11
40.075
21
-122.881
0
LINE
8
BLACK
6
CONTINUOUS
10
40.075
20
-122.881
11
39.9798
21
-122.977
0
LINE
8
BLACK
6
CONTINUOUS
10
39.9798
20
-122.977
11
39.7893
21
-123.072
0
LINE
8
BLACK
6
CONTINUOUS
10
39.7893
20
-123.072
11
39.5988
21
-123.072
0
LINE
8
BLACK
6
CONTINUOUS
10
39.5988
20
-123.072
11
39.4083
21
-122.977
0
LINE
8
BLACK
6
CONTINUOUS
10
39.4083
20
-122.977
11
39.3131
21
-122.881
0
LINE
8
BLACK
6
CONTINUOUS
10
39.3131
20
-122.881
11
39.2179
21
-122.691
0
LINE
8
BLACK
6
CONTINUOUS
10
39.2179
20
-122.691
11
39.1226
21
-122.31
0
LINE
8
BLACK
6
CONTINUOUS
10
39.1226
20
-122.31
11
39.1226
21
-121.834
0
LINE
8
BLACK
6
CONTINUOUS
10
39.1226
20
-121.834
11
39.2179
21
-121.453
0
LINE
8
BLACK
6
CONTINUOUS
10
39.2179
20
-121.453
11
39.3131
21
-121.262
0
LINE
8
BLACK
6
CONTINUOUS
10
39.3131
20
-121.262
11
39.4083
21
-121.167
0
LINE
8
BLACK
6
CONTINUOUS
10
39.4083
20
-121.167
11
39.5988
21
-121.072
0
LINE
8
BLACK
6
CONTINUOUS
10
41.1226
20
-123.072
11
41.1226
21
-121.738
0
LINE
8
BLACK
6
CONTINUOUS
10
41.1226
20
-121.929
11
41.2179
21
-121.834
0
LINE
8
BLACK
6
CONTINUOUS
10
41.2179
20
-121.834
11
41.4083
21
-121.738
0
LINE
8
BLACK
6
CONTINUOUS
10
41.4083
20
-121.738
11
41.694
21
-121.738
0
LINE
8
BLACK
6
CONTINUOUS
10
41.694
20
-121.738
11
41.8845
21
-121.834
0
LINE
8
BLACK
6
CONTINUOUS
10
41.8845
20
-121.834
11
41.9798
21
-122.024
0
LINE
8
BLACK
6
CONTINUOUS
10
41.9798
20
-122.024
11
41.9798
21
-123.072
0
LINE
8
BLACK
6
CONTINUOUS
10
41.9798
20
-122.024
11
42.075
21
-121.834
0
LINE
8
BLACK
6
CONTINUOUS
10
42.075
20
-121.834
11
42.2655
21
-121.738
0
LINE
8
BLACK
6
CONTINUOUS
10
42.2655
20
-121.738
11
42.5512
21
-121.738
0
LINE
8
BLACK
6
CONTINUOUS
10
42.5512
20
-121.738
11
42.7417
21
-121.834
0
LINE
8
BLACK
6
CONTINUOUS
10
42.7417
20
-121.834
11
42.8369
21
-122.024
0
LINE
8
BLACK
6
CONTINUOUS
10
42.8369
20
-122.024
11
42.8369
21
-123.072
0
LINE
8
BLACK
6
CONTINUOUS
10
43.7893
20
-123.072
11
43.7893
21
-121.738
0
LINE
8
BLACK
6
CONTINUOUS
10
43.7893
20
-121.929
11
43.8845
21
-121.834
0
LINE
8
BLACK
6
CONTINUOUS
10
43.8845
20
-121.834
11
44.075
21
-121.738
0
LINE
8
BLACK
6
CONTINUOUS
10
44.075
20
-121.738
11
44.3607
21
-121.738
0
LINE
8
BLACK
6
CONTINUOUS
10
44.3607
20
-121.738
11
44.5512
21
-121.834
0
LINE
8
BLACK
6
CONTINUOUS
10
44.5512
20
-121.834
11
44.6464
21
-122.024
0
LINE
8
BLACK
6
CONTINUOUS
10
44.6464
20
-122.024
11
44.6464
21
-123.072
0
LINE
8
BLACK
6
CONTINUOUS
10
44.6464
20
-122.024
11
44.7417
21
-121.834
0
LINE
8
BLACK
6
CONTINUOUS
10
44.7417
20
-121.834
11
44.9321
21
-121.738
0
LINE
8
BLACK
6
CONTINUOUS
10
44.9321
20
-121.738
11
45.2179
21
-121.738
0
LINE
8
BLACK
6
CONTINUOUS
10
45.2179
20
-121.738
11
45.4083
21
-121.834
0
LINE
8
BLACK
6
CONTINUOUS
10
45.4083
20
-121.834
11
45.5036
21
-122.024
0
LINE
8
BLACK
6
CONTINUOUS
10
45.5036
20
-122.024
11
45.5036
21
-123.072
0
LINE
8
BLACK
6
CONTINUOUS
10
49.4083
20
-120.977
11
47.694
21
-123.548
0
LINE
8
BLACK
6
CONTINUOUS
10
51.9798
20
-121.072
11
52.1702
21
-121.072
0
LINE
8
BLACK
6
CONTINUOUS
10
52.1702
20
-121.072
11
52.3607
21
-121.167
0
LINE
8
BLACK
6
CONTINUOUS
10
52.3607
20
-121.167
11
52.456
21
-121.262
0
LINE
8
BLACK
6
CONTINUOUS
10
52.456
20
-121.262
11
52.5512
21
-121.453
0
LINE
8
BLACK
6
CONTINUOUS
10
52.5512
20
-121.453
11
52.6464
21
-121.834
0
LINE
8
BLACK
6
CONTINUOUS
10
52.6464
20
-121.834
11
52.6464
21
-122.31
0
LINE
8
BLACK
6
CONTINUOUS
10
52.6464
20
-122.31
11
52.5512
21
-122.691
0
LINE
8
BLACK
6
CONTINUOUS
10
52.5512
20
-122.691
11
52.456
21
-122.881
0
LINE
8
BLACK
6
CONTINUOUS
10
52.456
20
-122.881
11
52.3607
21
-122.977
0
LINE
8
BLACK
6
CONTINUOUS
10
52.3607
20
-122.977
11
52.1702
21
-123.072
0
LINE
8
BLACK
6
CONTINUOUS
10
52.1702
20
-123.072
11
51.9798
21
-123.072
0
LINE
8
BLACK
6
CONTINUOUS
10
51.9798
20
-123.072
11
51.7893
21
-122.977
0
LINE
8
BLACK
6
CONTINUOUS
10
51.7893
20
-122.977
11
51.694
21
-122.881
0
LINE
8
BLACK
6
CONTINUOUS
10
51.694
20
-122.881
11
51.5988
21
-122.691
0
LINE
8
BLACK
6
CONTINUOUS
10
51.5988
20
-122.691
11
51.5036
21
-122.31
0
LINE
8
BLACK
6
CONTINUOUS
10
51.5036
20
-122.31
11
51.5036
21
-121.834
0
LINE
8
BLACK
6
CONTINUOUS
10
51.5036
20
-121.834
11
51.5988
21
-121.453
0
LINE
8
BLACK
6
CONTINUOUS
10
51.5988
20
-121.453
11
51.694
21
-121.262
0
LINE
8
BLACK
6
CONTINUOUS
10
51.694
20
-121.262
11
51.7893
21
-121.167
0
LINE
8
BLACK
6
CONTINUOUS
10
51.7893
20
-121.167
11
51.9798
21
-121.072
0
LINE
8
BLACK
6
CONTINUOUS
10
53.5036
20
-122.881
11
53.5988
21
-122.977
0
LINE
8
BLACK
6
CONTINUOUS
10
53.5988
20
-122.977
11
53.5036
21
-123.072
0
LINE
8
BLACK
6
CONTINUOUS
10
53.5036
20
-123.072
11
53.4083
21
-122.977
0
LINE
8
BLACK
6
CONTINUOUS
10
53.4083
20
-122.977
11
53.5036
21
-122.881
0
LINE
8
BLACK
6
CONTINUOUS
10
53.5036
20
-122.881
11
53.5036
21
-123.072
0
LINE
8
BLACK
6
CONTINUOUS
10
55.5036
20
-123.072
11
54.3607
21
-123.072
0
LINE
8
BLACK
6
CONTINUOUS
10
54.9321
20
-123.072
11
54.9321
21
-121.072
0
LINE
8
BLACK
6
CONTINUOUS
10
54.9321
20
-121.072
11
54.7417
21
-121.357
0
LINE
8
BLACK
6
CONTINUOUS
10
54.7417
20
-121.357
11
54.5512
21
-121.548
0
LINE
8
BLACK
6
CONTINUOUS
10
54.5512
20
-121.548
11
54.3607
21
-121.643
0
LINE
8
BLACK
6
CONTINUOUS
10
56.2655
20
-121.262
11
56.3607
21
-121.167
0
LINE
8
BLACK
6
CONTINUOUS
10
56.3607
20
-121.167
11
56.5512
21
-121.072
0
LINE
8
BLACK
6
CONTINUOUS
10
56.5512
20
-121.072
11
57.0274
21
-121.072
0
LINE
8
BLACK
6
CONTINUOUS
10
57.0274
20
-121.072
11
57.2179
21
-121.167
0
LINE
8
BLACK
6
CONTINUOUS
10
57.2179
20
-121.167
11
57.3131
21
-121.262
0
LINE
8
BLACK
6
CONTINUOUS
10
57.3131
20
-121.262
11
57.4083
21
-121.453
0
LINE
8
BLACK
6
CONTINUOUS
10
57.4083
20
-121.453
11
57.4083
21
-121.643
0
LINE
8
BLACK
6
CONTINUOUS
10
57.4083
20
-121.643
11
57.3131
21
-121.929
0
LINE
8
BLACK
6
CONTINUOUS
10
57.3131
20
-121.929
11
56.1702
21
-123.072
0
LINE
8
BLACK
6
CONTINUOUS
10
56.1702
20
-123.072
11
57.4083
21
-123.072
0
LINE
8
BLACK
6
CONTINUOUS
10
59.1226
20
-121.072
11
58.7417
21
-121.072
0
LINE
8
BLACK
6
CONTINUOUS
10
58.7417
20
-121.072
11
58.5512
21
-121.167
0
LINE
8
BLACK
6
CONTINUOUS
10
58.5512
20
-121.167
11
58.456
21
-121.262
0
LINE
8
BLACK
6
CONTINUOUS
10
58.456
20
-121.262
11
58.2655
21
-121.548
0
LINE
8
BLACK
6
CONTINUOUS
10
58.2655
20
-121.548
11
58.1702
21
-121.929
0
LINE
8
BLACK
6
CONTINUOUS
10
58.1702
20
-121.929
11
58.1702
21
-122.691
0
LINE
8
BLACK
6
CONTINUOUS
10
58.1702
20
-122.691
11
58.2655
21
-122.881
0
LINE
8
BLACK
6
CONTINUOUS
10
58.2655
20
-122.881
11
58.3607
21
-122.977
0
LINE
8
BLACK
6
CONTINUOUS
10
58.3607
20
-122.977
11
58.5512
21
-123.072
0
LINE
8
BLACK
6
CONTINUOUS
10
58.5512
20
-123.072
11
58.9321
21
-123.072
0
LINE
8
BLACK
6
CONTINUOUS
10
58.9321
20
-123.072
11
59.1226
21
-122.977
0
LINE
8
BLACK
6
CONTINUOUS
10
59.1226
20
-122.977
11
59.2179
21
-122.881
0
LINE
8
BLACK
6
CONTINUOUS
10
59.2179
20
-122.881
11
59.3131
21
-122.691
0
LINE
8
BLACK
6
CONTINUOUS
10
59.3131
20
-122.691
11
59.3131
21
-122.215
0
LINE
8
BLACK
6
CONTINUOUS
10
59.3131
20
-122.215
11
59.2179
21
-122.024
0
LINE
8
BLACK
6
CONTINUOUS
10
59.2179
20
-122.024
11
59.1226
21
-121.929
0
LINE
8
BLACK
6
CONTINUOUS
10
59.1226
20
-121.929
11
58.9321
21
-121.834
0
LINE
8
BLACK
6
CONTINUOUS
10
58.9321
20
-121.834
11
58.5512
21
-121.834
0
LINE
8
BLACK
6
CONTINUOUS
10
58.5512
20
-121.834
11
58.3607
21
-121.929
0
LINE
8
BLACK
6
CONTINUOUS
10
58.3607
20
-121.929
11
58.2655
21
-122.024
0
LINE
8
BLACK
6
CONTINUOUS
10
58.2655
20
-122.024
11
58.1702
21
-122.215
0
LINE
8
BLACK
6
CONTINUOUS
10
60.5512
20
-121.072
11
60.7417
21
-121.072
0
LINE
8
BLACK
6
CONTINUOUS
10
60.7417
20
-121.072
11
60.9321
21
-121.167
0
LINE
8
BLACK
6
CONTINUOUS
10
60.9321
20
-121.167
11
61.0274
21
-121.262
0
LINE
8
BLACK
6
CONTINUOUS
10
61.0274
20
-121.262
11
61.1226
21
-121.453
0
LINE
8
BLACK
6
CONTINUOUS
10
61.1226
20
-121.453
11
61.2179
21
-121.834
0
LINE
8
BLACK
6
CONTINUOUS
10
61.2179
20
-121.834
11
61.2179
21
-122.31
0
LINE
8
BLACK
6
CONTINUOUS
10
61.2179
20
-122.31
11
61.1226
21
-122.691
0
LINE
8
BLACK
6
CONTINUOUS
10
61.1226
20
-122.691
11
61.0274
21
-122.881
0
LINE
8
BLACK
6
CONTINUOUS
10
61.0274
20
-122.881
11
60.9321
21
-122.977
0
LINE
8
BLACK
6
CONTINUOUS
10
60.9321
20
-122.977
11
60.7417
21
-123.072
0
LINE
8
BLACK
6
CONTINUOUS
10
60.7417
20
-123.072
11
60.5512
21
-123.072
0
LINE
8
BLACK
6
CONTINUOUS
10
60.5512
20
-123.072
11
60.3607
21
-122.977
0
LINE
8
BLACK
6
CONTINUOUS
10
60.3607
20
-122.977
11
60.2655
21
-122.881
0
LINE
8
BLACK
6
CONTINUOUS
10
60.2655
20
-122.881
11
60.1702
21
-122.691
0
LINE
8
BLACK
6
CONTINUOUS
10
60.1702
20
-122.691
11
60.075
21
-122.31
0
LINE
8
BLACK
6
CONTINUOUS
10
60.075
20
-122.31
11
60.075
21
-121.834
0
LINE
8
BLACK
6
CONTINUOUS
10
60.075
20
-121.834
11
60.1702
21
-121.453
0
LINE
8
BLACK
6
CONTINUOUS
10
60.1702
20
-121.453
11
60.2655
21
-121.262
0
LINE
8
BLACK
6
CONTINUOUS
10
60.2655
20
-121.262
11
60.3607
21
-121.167
0
LINE
8
BLACK
6
CONTINUOUS
10
60.3607
20
-121.167
11
60.5512
21
-121.072
0
LINE
8
BLACK
6
CONTINUOUS
10
61.9798
20
-121.072
11
61.9798
21
-121.453
0
LINE
8
BLACK
6
CONTINUOUS
10
62.7417
20
-121.072
11
62.7417
21
-121.453
0
LINE
8
BLACK
6
CONTINUOUS
10
65.694
20
-123.834
11
65.5988
21
-123.738
0
LINE
8
BLACK
6
CONTINUOUS
10
65.5988
20
-123.738
11
65.4083
21
-123.453
0
LINE
8
BLACK
6
CONTINUOUS
10
65.4083
20
-123.453
11
65.3131
21
-123.262
0
LINE
8
BLACK
6
CONTINUOUS
10
65.3131
20
-123.262
11
65.2179
21
-122.977
0
LINE
8
BLACK
6
CONTINUOUS
10
65.2179
20
-122.977
11
65.1226
21
-122.5
0
LINE
8
BLACK
6
CONTINUOUS
10
65.1226
20
-122.5
11
65.1226
21
-122.119
0
LINE
8
BLACK
6
CONTINUOUS
10
65.1226
20
-122.119
11
65.2179
21
-121.643
0
LINE
8
BLACK
6
CONTINUOUS
10
65.2179
20
-121.643
11
65.3131
21
-121.357
0
LINE
8
BLACK
6
CONTINUOUS
10
65.3131
20
-121.357
11
65.4083
21
-121.167
0
LINE
8
BLACK
6
CONTINUOUS
10
65.4083
20
-121.167
11
65.5988
21
-120.881
0
LINE
8
BLACK
6
CONTINUOUS
10
65.5988
20
-120.881
11
65.694
21
-120.786
0
LINE
8
BLACK
6
CONTINUOUS
10
66.2655
20
-121.072
11
67.5036
21
-121.072
0
LINE
8
BLACK
6
CONTINUOUS
10
67.5036
20
-121.072
11
66.8369
21
-121.834
0
LINE
8
BLACK
6
CONTINUOUS
10
66.8369
20
-121.834
11
67.1226
21
-121.834
0
LINE
8
BLACK
6
CONTINUOUS
10
67.1226
20
-121.834
11
67.3131
21
-121.929
0
LINE
8
BLACK
6
CONTINUOUS
10
67.3131
20
-121.929
11
67.4083
21
-122.024
0
LINE
8
BLACK
6
CONTINUOUS
10
67.4083
20
-122.024
11
67.5036
21
-122.215
0
LINE
8
BLACK
6
CONTINUOUS
10
67.5036
20
-122.215
11
67.5036
21
-122.691
0
LINE
8
BLACK
6
CONTINUOUS
10
67.5036
20
-122.691
11
67.4083
21
-122.881
0
LINE
8
BLACK
6
CONTINUOUS
10
67.4083
20
-122.881
11
67.3131
21
-122.977
0
LINE
8
BLACK
6
CONTINUOUS
10
67.3131
20
-122.977
11
67.1226
21
-123.072
0
LINE
8
BLACK
6
CONTINUOUS
10
67.1226
20
-123.072
11
66.5512
21
-123.072
0
LINE
8
BLACK
6
CONTINUOUS
10
66.5512
20
-123.072
11
66.3607
21
-122.977
0
LINE
8
BLACK
6
CONTINUOUS
10
66.3607
20
-122.977
11
66.2655
21
-122.881
0
LINE
8
BLACK
6
CONTINUOUS
10
69.8845
20
-123.072
11
69.8845
21
-121.072
0
LINE
8
BLACK
6
CONTINUOUS
10
70.7417
20
-123.072
11
70.7417
21
-122.024
0
LINE
8
BLACK
6
CONTINUOUS
10
70.7417
20
-122.024
11
70.6464
21
-121.834
0
LINE
8
BLACK
6
CONTINUOUS
10
70.6464
20
-121.834
11
70.456
21
-121.738
0
LINE
8
BLACK
6
CONTINUOUS
10
70.456
20
-121.738
11
70.1702
21
-121.738
0
LINE
8
BLACK
6
CONTINUOUS
10
70.1702
20
-121.738
11
69.9798
21
-121.834
0
LINE
8
BLACK
6
CONTINUOUS
10
69.9798
20
-121.834
11
69.8845
21
-121.929
0
LINE
8
BLACK
6
CONTINUOUS
10
71.9798
20
-123.072
11
71.7893
21
-122.977
0
LINE
8
BLACK
6
CONTINUOUS
10
71.7893
20
-122.977
11
71.694
21
-122.881
0
LINE
8
BLACK
6
CONTINUOUS
10
71.694
20
-122.881
11
71.5988
21
-122.691
0
LINE
8
BLACK
6
CONTINUOUS
10
71.5988
20
-122.691
11
71.5988
21
-122.119
0
LINE
8
BLACK
6
CONTINUOUS
10
71.5988
20
-122.119
11
71.694
21
-121.929
0
LINE
8
BLACK
6
CONTINUOUS
10
71.694
20
-121.929
11
71.7893
21
-121.834
0
LINE
8
BLACK
6
CONTINUOUS
10
71.7893
20
-121.834
11
71.9798
21
-121.738
0
LINE
8
BLACK
6
CONTINUOUS
10
71.9798
20
-121.738
11
72.2655
21
-121.738
0
LINE
8
BLACK
6
CONTINUOUS
10
72.2655
20
-121.738
11
72.456
21
-121.834
0
LINE
8
BLACK
6
CONTINUOUS
10
72.456
20
-121.834
11
72.5512
21
-121.929
0
LINE
8
BLACK
6
CONTINUOUS
10
72.5512
20
-121.929
11
72.6464
21
-122.119
0
LINE
8
BLACK
6
CONTINUOUS
10
72.6464
20
-122.119
11
72.6464
21
-122.691
0
LINE
8
BLACK
6
CONTINUOUS
10
72.6464
20
-122.691
11
72.5512
21
-122.881
0
LINE
8
BLACK
6
CONTINUOUS
10
72.5512
20
-122.881
11
72.456
21
-122.977
0
LINE
8
BLACK
6
CONTINUOUS
10
72.456
20
-122.977
11
72.2655
21
-123.072
0
LINE
8
BLACK
6
CONTINUOUS
10
72.2655
20
-123.072
11
71.9798
21
-123.072
0
LINE
8
BLACK
6
CONTINUOUS
10
73.7893
20
-123.072
11
73.5988
21
-122.977
0
LINE
8
BLACK
6
CONTINUOUS
10
73.5988
20
-122.977
11
73.5036
21
-122.786
0
LINE
8
BLACK
6
CONTINUOUS
10
73.5036
20
-122.786
11
73.5036
21
-121.072
0
LINE
8
BLACK
6
CONTINUOUS
10
75.3131
20
-122.977
11
75.1226
21
-123.072
0
LINE
8
BLACK
6
CONTINUOUS
10
75.1226
20
-123.072
11
74.7417
21
-123.072
0
LINE
8
BLACK
6
CONTINUOUS
10
74.7417
20
-123.072
11
74.5512
21
-122.977
0
LINE
8
BLACK
6
CONTINUOUS
10
74.5512
20
-122.977
11
74.456
21
-122.786
0
LINE
8
BLACK
6
CONTINUOUS
10
74.456
20
-122.786
11
74.456
21
-122.024
0
LINE
8
BLACK
6
CONTINUOUS
10
74.456
20
-122.024
11
74.5512
21
-121.834
0
LINE
8
BLACK
6
CONTINUOUS
10
74.5512
20
-121.834
11
74.7417
21
-121.738
0
LINE
8
BLACK
6
CONTINUOUS
10
74.7417
20
-121.738
11
75.1226
21
-121.738
0
LINE
8
BLACK
6
CONTINUOUS
10
75.1226
20
-121.738
11
75.3131
21
-121.834
0
LINE
8
BLACK
6
CONTINUOUS
10
75.3131
20
-121.834
11
75.4083
21
-122.024
0
LINE
8
BLACK
6
CONTINUOUS
10
75.4083
20
-122.024
11
75.4083
21
-122.215
0
LINE
8
BLACK
6
CONTINUOUS
10
75.4083
20
-122.215
11
74.456
21
-122.405
0
LINE
8
BLACK
6
CONTINUOUS
10
76.1702
20
-122.977
11
76.3607
21
-123.072
0
LINE
8
BLACK
6
CONTINUOUS
10
76.3607
20
-123.072
11
76.7417
21
-123.072
0
LINE
8
BLACK
6
CONTINUOUS
10
76.7417
20
-123.072
11
76.9321
21
-122.977
0
LINE
8
BLACK
6
CONTINUOUS
10
76.9321
20
-122.977
11
77.0274
21
-122.786
0
LINE
8
BLACK
6
CONTINUOUS
10
77.0274
20
-122.786
11
77.0274
21
-122.691
0
LINE
8
BLACK
6
CONTINUOUS
10
77.0274
20
-122.691
11
76.9321
21
-122.5
0
LINE
8
BLACK
6
CONTINUOUS
10
76.9321
20
-122.5
11
76.7417
21
-122.405
0
LINE
8
BLACK
6
CONTINUOUS
10
76.7417
20
-122.405
11
76.456
21
-122.405
0
LINE
8
BLACK
6
CONTINUOUS
10
76.456
20
-122.405
11
76.2655
21
-122.31
0
LINE
8
BLACK
6
CONTINUOUS
10
76.2655
20
-122.31
11
76.1702
21
-122.119
0
LINE
8
BLACK
6
CONTINUOUS
10
76.1702
20
-122.119
11
76.1702
21
-122.024
0
LINE
8
BLACK
6
CONTINUOUS
10
76.1702
20
-122.024
11
76.2655
21
-121.834
0
LINE
8
BLACK
6
CONTINUOUS
10
76.2655
20
-121.834
11
76.456
21
-121.738
0
LINE
8
BLACK
6
CONTINUOUS
10
76.456
20
-121.738
11
76.7417
21
-121.738
0
LINE
8
BLACK
6
CONTINUOUS
10
76.7417
20
-121.738
11
76.9321
21
-121.834
0
LINE
8
BLACK
6
CONTINUOUS
10
77.694
20
-123.834
11
77.7893
21
-123.738
0
LINE
8
BLACK
6
CONTINUOUS
10
77.7893
20
-123.738
11
77.9798
21
-123.453
0
LINE
8
BLACK
6
CONTINUOUS
10
77.9798
20
-123.453
11
78.075
21
-123.262
0
LINE
8
BLACK
6
CONTINUOUS
10
78.075
20
-123.262
11
78.1702
21
-122.977
0
LINE
8
BLACK
6
CONTINUOUS
10
78.1702
20
-122.977
11
78.2655
21
-122.5
0
LINE
8
BLACK
6
CONTINUOUS
10
78.2655
20
-122.5
11
78.2655
21
-122.119
0
LINE
8
BLACK
6
CONTINUOUS
10
78.2655
20
-122.119
11
78.1702
21
-121.643
0
LINE
8
BLACK
6
CONTINUOUS
10
78.1702
20
-121.643
11
78.075
21
-121.357
0
LINE
8
BLACK
6
CONTINUOUS
10
78.075
20
-121.357
11
77.9798
21
-121.167
0
LINE
8
BLACK
6
CONTINUOUS
10
77.9798
20
-121.167
11
77.7893
21
-120.881
0
LINE
8
BLACK
6
CONTINUOUS
10
77.7893
20
-120.881
11
77.694
21
-120.786
0
LINE
8
BLACK
6
CONTINUOUS
10
81.3131
20
-123.834
11
81.2179
21
-123.738
0
LINE
8
BLACK
6
CONTINUOUS
10
81.2179
20
-123.738
11
81.0274
21
-123.453
0
LINE
8
BLACK
6
CONTINUOUS
10
81.0274
20
-123.453
11
80.9321
21
-123.262
0
LINE
8
BLACK
6
CONTINUOUS
10
80.9321
20
-123.262
11
80.8369
21
-122.977
0
LINE
8
BLACK
6
CONTINUOUS
10
80.8369
20
-122.977
11
80.7417
21
-122.5
0
LINE
8
BLACK
6
CONTINUOUS
10
80.7417
20
-122.5
11
80.7417
21
-122.119
0
LINE
8
BLACK
6
CONTINUOUS
10
80.7417
20
-122.119
11
80.8369
21
-121.643
0
LINE
8
BLACK
6
CONTINUOUS
10
80.8369
20
-121.643
11
80.9321
21
-121.357
0
LINE
8
BLACK
6
CONTINUOUS
10
80.9321
20
-121.357
11
81.0274
21
-121.167
0
LINE
8
BLACK
6
CONTINUOUS
10
81.0274
20
-121.167
11
81.2179
21
-120.881
0
LINE
8
BLACK
6
CONTINUOUS
10
81.2179
20
-120.881
11
81.3131
21
-120.786
0
LINE
8
BLACK
6
CONTINUOUS
10
82.075
20
-121.738
11
82.075
21
-123.072
0
LINE
8
BLACK
6
CONTINUOUS
10
82.075
20
-121.929
11
82.1702
21
-121.834
0
LINE
8
BLACK
6
CONTINUOUS
10
82.1702
20
-121.834
11
82.3607
21
-121.738
0
LINE
8
BLACK
6
CONTINUOUS
10
82.3607
20
-121.738
11
82.6464
21
-121.738
0
LINE
8
BLACK
6
CONTINUOUS
10
82.6464
20
-121.738
11
82.8369
21
-121.834
0
LINE
8
BLACK
6
CONTINUOUS
10
82.8369
20
-121.834
11
82.9321
21
-122.024
0
LINE
8
BLACK
6
CONTINUOUS
10
82.9321
20
-122.024
11
82.9321
21
-123.072
0
LINE
8
BLACK
6
CONTINUOUS
10
84.1702
20
-123.072
11
83.9798
21
-122.977
0
LINE
8
BLACK
6
CONTINUOUS
10
83.9798
20
-122.977
11
83.8845
21
-122.881
0
LINE
8
BLACK
6
CONTINUOUS
10
83.8845
20
-122.881
11
83.7893
21
-122.691
0
LINE
8
BLACK
6
CONTINUOUS
10
83.7893
20
-122.691
11
83.7893
21
-122.119
0
LINE
8
BLACK
6
CONTINUOUS
10
83.7893
20
-122.119
11
83.8845
21
-121.929
0
LINE
8
BLACK
6
CONTINUOUS
10
83.8845
20
-121.929
11
83.9798
21
-121.834
0
LINE
8
BLACK
6
CONTINUOUS
10
83.9798
20
-121.834
11
84.1702
21
-121.738
0
LINE
8
BLACK
6
CONTINUOUS
10
84.1702
20
-121.738
11
84.456
21
-121.738
0
LINE
8
BLACK
6
CONTINUOUS
10
84.456
20
-121.738
11
84.6464
21
-121.834
0
LINE
8
BLACK
6
CONTINUOUS
10
84.6464
20
-121.834
11
84.7417
21
-121.929
0
LINE
8
BLACK
6
CONTINUOUS
10
84.7417
20
-121.929
11
84.8369
21
-122.119
0
LINE
8
BLACK
6
CONTINUOUS
10
84.8369
20
-122.119
11
84.8369
21
-122.691
0
LINE
8
BLACK
6
CONTINUOUS
10
84.8369
20
-122.691
11
84.7417
21
-122.881
0
LINE
8
BLACK
6
CONTINUOUS
10
84.7417
20
-122.881
11
84.6464
21
-122.977
0
LINE
8
BLACK
6
CONTINUOUS
10
84.6464
20
-122.977
11
84.456
21
-123.072
0
LINE
8
BLACK
6
CONTINUOUS
10
84.456
20
-123.072
11
84.1702
21
-123.072
0
LINE
8
BLACK
6
CONTINUOUS
10
85.4083
20
-121.738
11
86.1702
21
-121.738
0
LINE
8
BLACK
6
CONTINUOUS
10
85.694
20
-121.072
11
85.694
21
-122.786
0
LINE
8
BLACK
6
CONTINUOUS
10
85.694
20
-122.786
11
85.7893
21
-122.977
0
LINE
8
BLACK
6
CONTINUOUS
10
85.7893
20
-122.977
11
85.9798
21
-123.072
0
LINE
8
BLACK
6
CONTINUOUS
10
85.9798
20
-123.072
11
86.1702
21
-123.072
0
LINE
8
BLACK
6
CONTINUOUS
10
88.3607
20
-121.738
11
88.3607
21
-123.738
0
LINE
8
BLACK
6
CONTINUOUS
10
88.3607
20
-121.834
11
88.5512
21
-121.738
0
LINE
8
BLACK
6
CONTINUOUS
10
88.5512
20
-121.738
11
88.9321
21
-121.738
0
LINE
8
BLACK
6
CONTINUOUS
10
88.9321
20
-121.738
11
89.1226
21
-121.834
0
LINE
8
BLACK
6
CONTINUOUS
10
89.1226
20
-121.834
11
89.2179
21
-121.929
0
LINE
8
BLACK
6
CONTINUOUS
10
89.2179
20
-121.929
11
89.3131
21
-122.119
0
LINE
8
BLACK
6
CONTINUOUS
10
89.3131
20
-122.119
11
89.3131
21
-122.691
0
LINE
8
BLACK
6
CONTINUOUS
10
89.3131
20
-122.691
11
89.2179
21
-122.881
0
LINE
8
BLACK
6
CONTINUOUS
10
89.2179
20
-122.881
11
89.1226
21
-122.977
0
LINE
8
BLACK
6
CONTINUOUS
10
89.1226
20
-122.977
11
88.9321
21
-123.072
0
LINE
8
BLACK
6
CONTINUOUS
10
88.9321
20
-123.072
11
88.5512
21
-123.072
0
LINE
8
BLACK
6
CONTINUOUS
10
88.5512
20
-123.072
11
88.3607
21
-122.977
0
LINE
8
BLACK
6
CONTINUOUS
10
90.456
20
-123.072
11
90.2655
21
-122.977
0
LINE
8
BLACK
6
CONTINUOUS
10
90.2655
20
-122.977
11
90.1702
21
-122.786
0
LINE
8
BLACK
6
CONTINUOUS
10
90.1702
20
-122.786
11
90.1702
21
-121.072
0
LINE
8
BLACK
6
CONTINUOUS
10
92.075
20
-123.072
11
92.075
21
-122.024
0
LINE
8
BLACK
6
CONTINUOUS
10
92.075
20
-122.024
11
91.9798
21
-121.834
0
LINE
8
BLACK
6
CONTINUOUS
10
91.9798
20
-121.834
11
91.7893
21
-121.738
0
LINE
8
BLACK
6
CONTINUOUS
10
91.7893
20
-121.738
11
91.4083
21
-121.738
0
LINE
8
BLACK
6
CONTINUOUS
10
91.4083
20
-121.738
11
91.2179
21
-121.834
0
LINE
8
BLACK
6
CONTINUOUS
10
92.075
20
-122.977
11
91.8845
21
-123.072
0
LINE
8
BLACK
6
CONTINUOUS
10
91.8845
20
-123.072
11
91.4083
21
-123.072
0
LINE
8
BLACK
6
CONTINUOUS
10
91.4083
20
-123.072
11
91.2179
21
-122.977
0
LINE
8
BLACK
6
CONTINUOUS
10
91.2179
20
-122.977
11
91.1226
21
-122.786
0
LINE
8
BLACK
6
CONTINUOUS
10
91.1226
20
-122.786
11
91.1226
21
-122.596
0
LINE
8
BLACK
6
CONTINUOUS
10
91.1226
20
-122.596
11
91.2179
21
-122.405
0
LINE
8
BLACK
6
CONTINUOUS
10
91.2179
20
-122.405
11
91.4083
21
-122.31
0
LINE
8
BLACK
6
CONTINUOUS
10
91.4083
20
-122.31
11
91.8845
21
-122.31
0
LINE
8
BLACK
6
CONTINUOUS
10
91.8845
20
-122.31
11
92.075
21
-122.215
0
LINE
8
BLACK
6
CONTINUOUS
10
92.7417
20
-121.738
11
93.5036
21
-121.738
0
LINE
8
BLACK
6
CONTINUOUS
10
93.0274
20
-121.072
11
93.0274
21
-122.786
0
LINE
8
BLACK
6
CONTINUOUS
10
93.0274
20
-122.786
11
93.1226
21
-122.977
0
LINE
8
BLACK
6
CONTINUOUS
10
93.1226
20
-122.977
11
93.3131
21
-123.072
0
LINE
8
BLACK
6
CONTINUOUS
10
93.3131
20
-123.072
11
93.5036
21
-123.072
0
LINE
8
BLACK
6
CONTINUOUS
10
94.9321
20
-122.977
11
94.7417
21
-123.072
0
LINE
8
BLACK
6
CONTINUOUS
10
94.7417
20
-123.072
11
94.3607
21
-123.072
0
LINE
8
BLACK
6
CONTINUOUS
10
94.3607
20
-123.072
11
94.1702
21
-122.977
0
LINE
8
BLACK
6
CONTINUOUS
10
94.1702
20
-122.977
11
94.075
21
-122.786
0
LINE
8
BLACK
6
CONTINUOUS
10
94.075
20
-122.786
11
94.075
21
-122.024
0
LINE
8
BLACK
6
CONTINUOUS
10
94.075
20
-122.024
11
94.1702
21
-121.834
0
LINE
8
BLACK
6
CONTINUOUS
10
94.1702
20
-121.834
11
94.3607
21
-121.738
0
LINE
8
BLACK
6
CONTINUOUS
10
94.3607
20
-121.738
11
94.7417
21
-121.738
0
LINE
8
BLACK
6
CONTINUOUS
10
94.7417
20
-121.738
11
94.9321
21
-121.834
0
LINE
8
BLACK
6
CONTINUOUS
10
94.9321
20
-121.834
11
95.0274
21
-122.024
0
LINE
8
BLACK
6
CONTINUOUS
10
95.0274
20
-122.024
11
95.0274
21
-122.215
0
LINE
8
BLACK
6
CONTINUOUS
10
95.0274
20
-122.215
11
94.075
21
-122.405
0
LINE
8
BLACK
6
CONTINUOUS
10
96.7417
20
-123.072
11
96.7417
21
-121.072
0
LINE
8
BLACK
6
CONTINUOUS
10
96.7417
20
-122.977
11
96.5512
21
-123.072
0
LINE
8
BLACK
6
CONTINUOUS
10
96.5512
20
-123.072
11
96.1702
21
-123.072
0
LINE
8
BLACK
6
CONTINUOUS
10
96.1702
20
-123.072
11
95.9798
21
-122.977
0
LINE
8
BLACK
6
CONTINUOUS
10
95.9798
20
-122.977
11
95.8845
21
-122.881
0
LINE
8
BLACK
6
CONTINUOUS
10
95.8845
20
-122.881
11
95.7893
21
-122.691
0
LINE
8
BLACK
6
CONTINUOUS
10
95.7893
20
-122.691
11
95.7893
21
-122.119
0
LINE
8
BLACK
6
CONTINUOUS
10
95.7893
20
-122.119
11
95.8845
21
-121.929
0
LINE
8
BLACK
6
CONTINUOUS
10
95.8845
20
-121.929
11
95.9798
21
-121.834
0
LINE
8
BLACK
6
CONTINUOUS
10
95.9798
20
-121.834
11
96.1702
21
-121.738
0
LINE
8
BLACK
6
CONTINUOUS
10
96.1702
20
-121.738
11
96.5512
21
-121.738
0
LINE
8
BLACK
6
CONTINUOUS
10
96.5512
20
-121.738
11
96.7417
21
-121.834
0
LINE
8
BLACK
6
CONTINUOUS
10
97.5036
20
-123.834
11
97.5988
21
-123.738
0
LINE
8
BLACK
6
CONTINUOUS
10
97.5988
20
-123.738
11
97.7893
21
-123.453
0
LINE
8
BLACK
6
CONTINUOUS
10
97.7893
20
-123.453
11
97.8845
21
-123.262
0
LINE
8
BLACK
6
CONTINUOUS
10
97.8845
20
-123.262
11
97.9798
21
-122.977
0
LINE
8
BLACK
6
CONTINUOUS
10
97.9798
20
-122.977
11
98.075
21
-122.5
0
LINE
8
BLACK
6
CONTINUOUS
10
98.075
20
-122.5
11
98.075
21
-122.119
0
LINE
8
BLACK
6
CONTINUOUS
10
98.075
20
-122.119
11
97.9798
21
-121.643
0
LINE
8
BLACK
6
CONTINUOUS
10
97.9798
20
-121.643
11
97.8845
21
-121.357
0
LINE
8
BLACK
6
CONTINUOUS
10
97.8845
20
-121.357
11
97.7893
21
-121.167
0
LINE
8
BLACK
6
CONTINUOUS
10
97.7893
20
-121.167
11
97.5988
21
-120.881
0
LINE
8
BLACK
6
CONTINUOUS
10
97.5988
20
-120.881
11
97.5036
21
-120.786
  0
ENDSEC
  0
EOF
