G04 #@! TF.GenerationSoftware,KiCad,Pcbnew,(6.0.10)*
G04 #@! TF.CreationDate,2023-02-12T23:23:38+01:00*
G04 #@! TF.ProjectId,hamodule,68616d6f-6475-46c6-952e-6b696361645f,20220918.20*
G04 #@! TF.SameCoordinates,Original*
G04 #@! TF.FileFunction,Paste,Bot*
G04 #@! TF.FilePolarity,Positive*
%FSLAX46Y46*%
G04 Gerber Fmt 4.6, Leading zero omitted, Abs format (unit mm)*
G04 Created by KiCad (PCBNEW (6.0.10)) date 2023-02-12 23:23:38*
%MOMM*%
%LPD*%
G01*
G04 APERTURE LIST*
G04 Aperture macros list*
%AMRoundRect*
0 Rectangle with rounded corners*
0 $1 Rounding radius*
0 $2 $3 $4 $5 $6 $7 $8 $9 X,Y pos of 4 corners*
0 Add a 4 corners polygon primitive as box body*
4,1,4,$2,$3,$4,$5,$6,$7,$8,$9,$2,$3,0*
0 Add four circle primitives for the rounded corners*
1,1,$1+$1,$2,$3*
1,1,$1+$1,$4,$5*
1,1,$1+$1,$6,$7*
1,1,$1+$1,$8,$9*
0 Add four rect primitives between the rounded corners*
20,1,$1+$1,$2,$3,$4,$5,0*
20,1,$1+$1,$4,$5,$6,$7,0*
20,1,$1+$1,$6,$7,$8,$9,0*
20,1,$1+$1,$8,$9,$2,$3,0*%
G04 Aperture macros list end*
%ADD10RoundRect,0.079500X0.079500X0.100500X-0.079500X0.100500X-0.079500X-0.100500X0.079500X-0.100500X0*%
%ADD11RoundRect,0.237500X0.300000X0.237500X-0.300000X0.237500X-0.300000X-0.237500X0.300000X-0.237500X0*%
%ADD12RoundRect,0.250000X0.412500X0.650000X-0.412500X0.650000X-0.412500X-0.650000X0.412500X-0.650000X0*%
G04 APERTURE END LIST*
D10*
X80414000Y-51273000D03*
X81104000Y-51273000D03*
X80414000Y-52873000D03*
X81104000Y-52873000D03*
X49754000Y-53773000D03*
X50444000Y-53773000D03*
D11*
X42196500Y-60473000D03*
X40471500Y-60473000D03*
D12*
X91379000Y-73873000D03*
X88254000Y-73873000D03*
X82459000Y-69673000D03*
X79334000Y-69673000D03*
D11*
X81796500Y-59073000D03*
X80071500Y-59073000D03*
X99479000Y-57973000D03*
X97754000Y-57973000D03*
D10*
X98154000Y-52473000D03*
X98844000Y-52473000D03*
X40814000Y-54273000D03*
X41504000Y-54273000D03*
X81124000Y-52373000D03*
X80434000Y-52373000D03*
D12*
X100179000Y-73973000D03*
X97054000Y-73973000D03*
D11*
X51079000Y-59273000D03*
X49354000Y-59273000D03*
D12*
X42859000Y-75273000D03*
X39734000Y-75273000D03*
D11*
X51116500Y-60473000D03*
X49391500Y-60473000D03*
D12*
X82459000Y-73873000D03*
X79334000Y-73873000D03*
D10*
X58554000Y-53873000D03*
X59244000Y-53873000D03*
D12*
X60579000Y-75373000D03*
X57454000Y-75373000D03*
X60579000Y-71173000D03*
X57454000Y-71173000D03*
D10*
X41504000Y-52673000D03*
X40814000Y-52673000D03*
D12*
X60579000Y-73273000D03*
X57454000Y-73273000D03*
D10*
X49734000Y-52673000D03*
X50424000Y-52673000D03*
D11*
X42196500Y-62673000D03*
X40471500Y-62673000D03*
D12*
X91379000Y-67473000D03*
X88254000Y-67473000D03*
D11*
X99516500Y-60273000D03*
X97791500Y-60273000D03*
D12*
X51779000Y-75273000D03*
X48654000Y-75273000D03*
X51779000Y-73173000D03*
X48654000Y-73173000D03*
D10*
X59224000Y-53373000D03*
X58534000Y-53373000D03*
D11*
X90679000Y-57873000D03*
X88954000Y-57873000D03*
D10*
X90024000Y-51873000D03*
X89334000Y-51873000D03*
D12*
X42859000Y-73173000D03*
X39734000Y-73173000D03*
D10*
X98824000Y-52973000D03*
X98134000Y-52973000D03*
D12*
X82459000Y-67473000D03*
X79334000Y-67473000D03*
X42859000Y-68873000D03*
X39734000Y-68873000D03*
X91379000Y-69673000D03*
X88254000Y-69673000D03*
D10*
X89354000Y-52373000D03*
X90044000Y-52373000D03*
D12*
X91379000Y-71773000D03*
X88254000Y-71773000D03*
D10*
X80414000Y-51873000D03*
X81104000Y-51873000D03*
D11*
X42196500Y-61573000D03*
X40471500Y-61573000D03*
D10*
X98134000Y-51373000D03*
X98824000Y-51373000D03*
D12*
X51779000Y-68873000D03*
X48654000Y-68873000D03*
D11*
X59916500Y-60573000D03*
X58191500Y-60573000D03*
D12*
X60579000Y-68973000D03*
X57454000Y-68973000D03*
D10*
X50424000Y-54273000D03*
X49734000Y-54273000D03*
D12*
X100179000Y-67573000D03*
X97054000Y-67573000D03*
X100179000Y-71873000D03*
X97054000Y-71873000D03*
D11*
X90716500Y-61273000D03*
X88991500Y-61273000D03*
X90716500Y-59073000D03*
X88991500Y-59073000D03*
D10*
X89334000Y-51273000D03*
X90024000Y-51273000D03*
X41524000Y-53773000D03*
X40834000Y-53773000D03*
X98824000Y-51973000D03*
X98134000Y-51973000D03*
D12*
X51779000Y-71073000D03*
X48654000Y-71073000D03*
D11*
X81796500Y-61273000D03*
X80071500Y-61273000D03*
D10*
X41504000Y-53273000D03*
X40814000Y-53273000D03*
D12*
X82459000Y-71773000D03*
X79334000Y-71773000D03*
D11*
X51116500Y-62673000D03*
X49391500Y-62673000D03*
D10*
X59224000Y-54373000D03*
X58534000Y-54373000D03*
D12*
X42859000Y-71073000D03*
X39734000Y-71073000D03*
D11*
X42159000Y-59273000D03*
X40434000Y-59273000D03*
X59879000Y-59373000D03*
X58154000Y-59373000D03*
X99516500Y-59173000D03*
X97791500Y-59173000D03*
X90716500Y-60173000D03*
X88991500Y-60173000D03*
D10*
X89334000Y-52873000D03*
X90024000Y-52873000D03*
D11*
X81796500Y-60173000D03*
X80071500Y-60173000D03*
X59916500Y-62773000D03*
X58191500Y-62773000D03*
X59916500Y-61673000D03*
X58191500Y-61673000D03*
D10*
X59224000Y-52773000D03*
X58534000Y-52773000D03*
D11*
X51116500Y-61573000D03*
X49391500Y-61573000D03*
X99516500Y-61373000D03*
X97791500Y-61373000D03*
D12*
X100179000Y-69773000D03*
X97054000Y-69773000D03*
D10*
X50424000Y-53273000D03*
X49734000Y-53273000D03*
D11*
X81759000Y-57873000D03*
X80034000Y-57873000D03*
M02*
