%TF.GenerationSoftware,KiCad,Pcbnew,(6.0.10)*%
%TF.CreationDate,2023-02-12T23:23:46+01:00*%
%TF.ProjectId,hamodule,68616d6f-6475-46c6-952e-6b696361645f,20220918.20*%
%TF.SameCoordinates,Original*%
%TF.FileFunction,Drillmap*%
%TF.FilePolarity,Positive*%
%FSLAX45Y45*%
G04 Gerber Fmt 4.5, Leading zero omitted, Abs format (unit mm)*
G04 Created by KiCad (PCBNEW (6.0.10)) date 2023-02-12 23:23:46*
%MOMM*%
%LPD*%
G01*
G04 APERTURE LIST*
%ADD10C,0.050000*%
%ADD11C,0.200000*%
%ADD12C,0.030000*%
%ADD13C,0.040000*%
%ADD14C,0.070000*%
%ADD15C,0.100000*%
%ADD16C,0.120000*%
%ADD17C,0.160000*%
%ADD18C,0.220000*%
G04 APERTURE END LIST*
D10*
X11731200Y-12244300D02*
G75*
G03*
X11985200Y-11990300I0J254000D01*
G01*
X11985200Y-11990300D02*
X11985200Y-2534800D01*
X11731200Y-12244300D02*
X2247100Y-12244300D01*
X11731200Y-2280800D02*
X2247100Y-2280800D01*
X1993100Y-11988495D02*
X1993100Y-2534800D01*
X1993100Y-11988495D02*
G75*
G03*
X2247100Y-12244300I255812J0D01*
G01*
X11985200Y-2534800D02*
G75*
G03*
X11731200Y-2280800I-254000J0D01*
G01*
X6023100Y-5824800D02*
X6103100Y-5824800D01*
X6103100Y-5824800D02*
X6103100Y-7354800D01*
X6103100Y-7354800D02*
X6023100Y-7354800D01*
X6023100Y-7354800D02*
X6023100Y-5824800D01*
X5713100Y-5824800D02*
X5793100Y-5824800D01*
X5793100Y-5824800D02*
X5793100Y-7354800D01*
X5793100Y-7354800D02*
X5713100Y-7354800D01*
X5713100Y-7354800D02*
X5713100Y-5824800D01*
X6133100Y-5824800D02*
X6213100Y-5824800D01*
X6213100Y-5824800D02*
X6213100Y-7354800D01*
X6213100Y-7354800D02*
X6133100Y-7354800D01*
X6133100Y-7354800D02*
X6133100Y-5824800D01*
X6253100Y-5824800D02*
X6333100Y-5824800D01*
X6333100Y-5824800D02*
X6333100Y-7354800D01*
X6333100Y-7354800D02*
X6253100Y-7354800D01*
X6253100Y-7354800D02*
X6253100Y-5824800D01*
X2247100Y-2280800D02*
G75*
G03*
X1993100Y-2534800I0J-254000D01*
G01*
X5593100Y-5824800D02*
X5673100Y-5824800D01*
X5673100Y-5824800D02*
X5673100Y-7354800D01*
X5673100Y-7354800D02*
X5593100Y-7354800D01*
X5593100Y-7354800D02*
X5593100Y-5824800D01*
X5923100Y-5824800D02*
X6003100Y-5824800D01*
X6003100Y-5824800D02*
X6003100Y-7354800D01*
X6003100Y-7354800D02*
X5923100Y-7354800D01*
X5923100Y-7354800D02*
X5923100Y-5824800D01*
X5823100Y-5824800D02*
X5903100Y-5824800D01*
X5903100Y-5824800D02*
X5903100Y-7354800D01*
X5903100Y-7354800D02*
X5823100Y-7354800D01*
X5823100Y-7354800D02*
X5823100Y-5824800D01*
D11*
D12*
X4238100Y-8239800D02*
X4268100Y-8269800D01*
X4268100Y-8239800D02*
X4238100Y-8269800D01*
D13*
X5953100Y-7764800D02*
G75*
G03*
X5953100Y-7764800I-20000J0D01*
G01*
X6153100Y-7764800D02*
G75*
G03*
X6153100Y-7764800I-20000J0D01*
G01*
X6153100Y-8264800D02*
G75*
G03*
X6153100Y-8264800I-20000J0D01*
G01*
X6166900Y-2679700D02*
G75*
G03*
X6166900Y-2679700I-20000J0D01*
G01*
X6215227Y-2563027D02*
G75*
G03*
X6215227Y-2563027I-20000J0D01*
G01*
X6215227Y-2796373D02*
G75*
G03*
X6215227Y-2796373I-20000J0D01*
G01*
X6331900Y-2514700D02*
G75*
G03*
X6331900Y-2514700I-20000J0D01*
G01*
X6331900Y-2844700D02*
G75*
G03*
X6331900Y-2844700I-20000J0D01*
G01*
X6353100Y-7764800D02*
G75*
G03*
X6353100Y-7764800I-20000J0D01*
G01*
X6353100Y-8264800D02*
G75*
G03*
X6353100Y-8264800I-20000J0D01*
G01*
X6448573Y-2563027D02*
G75*
G03*
X6448573Y-2563027I-20000J0D01*
G01*
X6448573Y-2796373D02*
G75*
G03*
X6448573Y-2796373I-20000J0D01*
G01*
X6496900Y-2679700D02*
G75*
G03*
X6496900Y-2679700I-20000J0D01*
G01*
X6553100Y-7764800D02*
G75*
G03*
X6553100Y-7764800I-20000J0D01*
G01*
X6553100Y-8264800D02*
G75*
G03*
X6553100Y-8264800I-20000J0D01*
G01*
X6753100Y-7764800D02*
G75*
G03*
X6753100Y-7764800I-20000J0D01*
G01*
X6753100Y-8264800D02*
G75*
G03*
X6753100Y-8264800I-20000J0D01*
G01*
X6953100Y-7764800D02*
G75*
G03*
X6953100Y-7764800I-20000J0D01*
G01*
X6953100Y-8264800D02*
G75*
G03*
X6953100Y-8264800I-20000J0D01*
G01*
X7153100Y-7764800D02*
G75*
G03*
X7153100Y-7764800I-20000J0D01*
G01*
X7153100Y-8264800D02*
G75*
G03*
X7153100Y-8264800I-20000J0D01*
G01*
X7353100Y-7764800D02*
G75*
G03*
X7353100Y-7764800I-20000J0D01*
G01*
X7353100Y-8264800D02*
G75*
G03*
X7353100Y-8264800I-20000J0D01*
G01*
X7553100Y-7764800D02*
G75*
G03*
X7553100Y-7764800I-20000J0D01*
G01*
X7553100Y-8264800D02*
G75*
G03*
X7553100Y-8264800I-20000J0D01*
G01*
X7753100Y-7764800D02*
G75*
G03*
X7753100Y-7764800I-20000J0D01*
G01*
X7753100Y-8264800D02*
G75*
G03*
X7753100Y-8264800I-20000J0D01*
G01*
D10*
X6843100Y-2529800D02*
X6843100Y-2579800D01*
X6818100Y-2554800D02*
X6868100Y-2554800D01*
X7403100Y-2529800D02*
X7403100Y-2579800D01*
X7378100Y-2554800D02*
X7428100Y-2554800D01*
X7943100Y-2519800D02*
X7943100Y-2569800D01*
X7918100Y-2544800D02*
X7968100Y-2544800D01*
D14*
X4685649Y-3620449D02*
X4685649Y-3570951D01*
X4636151Y-3570951D01*
X4636151Y-3620449D01*
X4685649Y-3620449D01*
X4685649Y-3820449D02*
X4685649Y-3770951D01*
X4636151Y-3770951D01*
X4636151Y-3820449D01*
X4685649Y-3820449D01*
X4685649Y-4053849D02*
X4685649Y-4004351D01*
X4636151Y-4004351D01*
X4636151Y-4053849D01*
X4685649Y-4053849D01*
X4685649Y-4253849D02*
X4685649Y-4204351D01*
X4636151Y-4204351D01*
X4636151Y-4253849D01*
X4685649Y-4253849D01*
X6887849Y-2839549D02*
X6887849Y-2790051D01*
X6838351Y-2790051D01*
X6838351Y-2839549D01*
X6887849Y-2839549D01*
X7087849Y-2839549D02*
X7087849Y-2790051D01*
X7038351Y-2790051D01*
X7038351Y-2839549D01*
X7087849Y-2839549D01*
X7479649Y-3609349D02*
X7479649Y-3559851D01*
X7430151Y-3559851D01*
X7430151Y-3609349D01*
X7479649Y-3609349D01*
X7479649Y-3809349D02*
X7479649Y-3759851D01*
X7430151Y-3759851D01*
X7430151Y-3809349D01*
X7479649Y-3809349D01*
X7479649Y-4066549D02*
X7479649Y-4017051D01*
X7430151Y-4017051D01*
X7430151Y-4066549D01*
X7479649Y-4066549D01*
X7479649Y-4266549D02*
X7479649Y-4217051D01*
X7430151Y-4217051D01*
X7430151Y-4266549D01*
X7479649Y-4266549D01*
D15*
X2489200Y-10870400D02*
X2539200Y-10820400D01*
X2489200Y-10770400D01*
X2439200Y-10820400D01*
X2489200Y-10870400D01*
X2489200Y-11124400D02*
X2539200Y-11074400D01*
X2489200Y-11024400D01*
X2439200Y-11074400D01*
X2489200Y-11124400D01*
X2489200Y-11378400D02*
X2539200Y-11328400D01*
X2489200Y-11278400D01*
X2439200Y-11328400D01*
X2489200Y-11378400D01*
X2489200Y-11632400D02*
X2539200Y-11582400D01*
X2489200Y-11532400D01*
X2439200Y-11582400D01*
X2489200Y-11632400D01*
X2489200Y-11886400D02*
X2539200Y-11836400D01*
X2489200Y-11786400D01*
X2439200Y-11836400D01*
X2489200Y-11886400D01*
X2800700Y-3302300D02*
X2850700Y-3252300D01*
X2800700Y-3202300D01*
X2750700Y-3252300D01*
X2800700Y-3302300D01*
X2800700Y-3556300D02*
X2850700Y-3506300D01*
X2800700Y-3456300D01*
X2750700Y-3506300D01*
X2800700Y-3556300D01*
X2800700Y-3810300D02*
X2850700Y-3760300D01*
X2800700Y-3710300D01*
X2750700Y-3760300D01*
X2800700Y-3810300D01*
X2800700Y-4064300D02*
X2850700Y-4014300D01*
X2800700Y-3964300D01*
X2750700Y-4014300D01*
X2800700Y-4064300D01*
X2800700Y-4318300D02*
X2850700Y-4268300D01*
X2800700Y-4218300D01*
X2750700Y-4268300D01*
X2800700Y-4318300D01*
X7553100Y-2974800D02*
X7603100Y-2924800D01*
X7553100Y-2874800D01*
X7503100Y-2924800D01*
X7553100Y-2974800D01*
X9559500Y-3283400D02*
X9609500Y-3233400D01*
X9559500Y-3183400D01*
X9509500Y-3233400D01*
X9559500Y-3283400D01*
X9559500Y-3537400D02*
X9609500Y-3487400D01*
X9559500Y-3437400D01*
X9509500Y-3487400D01*
X9559500Y-3537400D01*
X9559500Y-3791400D02*
X9609500Y-3741400D01*
X9559500Y-3691400D01*
X9509500Y-3741400D01*
X9559500Y-3791400D01*
X9559500Y-4045400D02*
X9609500Y-3995400D01*
X9559500Y-3945400D01*
X9509500Y-3995400D01*
X9559500Y-4045400D01*
X9559500Y-4299400D02*
X9609500Y-4249400D01*
X9559500Y-4199400D01*
X9509500Y-4249400D01*
X9559500Y-4299400D01*
X10050800Y-2616900D02*
X10100800Y-2566900D01*
X10050800Y-2516900D01*
X10000800Y-2566900D01*
X10050800Y-2616900D01*
X10060500Y-10302900D02*
X10110500Y-10252900D01*
X10060500Y-10202900D01*
X10010500Y-10252900D01*
X10060500Y-10302900D01*
X10304800Y-2616900D02*
X10354800Y-2566900D01*
X10304800Y-2516900D01*
X10254800Y-2566900D01*
X10304800Y-2616900D01*
X10314500Y-10302900D02*
X10364500Y-10252900D01*
X10314500Y-10202900D01*
X10264500Y-10252900D01*
X10314500Y-10302900D01*
X10558800Y-2616900D02*
X10608800Y-2566900D01*
X10558800Y-2516900D01*
X10508800Y-2566900D01*
X10558800Y-2616900D01*
X10568500Y-10302900D02*
X10618500Y-10252900D01*
X10568500Y-10202900D01*
X10518500Y-10252900D01*
X10568500Y-10302900D01*
X10812800Y-2616900D02*
X10862800Y-2566900D01*
X10812800Y-2516900D01*
X10762800Y-2566900D01*
X10812800Y-2616900D01*
X10822500Y-10302900D02*
X10872500Y-10252900D01*
X10822500Y-10202900D01*
X10772500Y-10252900D01*
X10822500Y-10302900D01*
X11066800Y-2616900D02*
X11116800Y-2566900D01*
X11066800Y-2516900D01*
X11016800Y-2566900D01*
X11066800Y-2616900D01*
X11076500Y-10302900D02*
X11126500Y-10252900D01*
X11076500Y-10202900D01*
X11026500Y-10252900D01*
X11076500Y-10302900D01*
X11607800Y-10997400D02*
X11657800Y-10947400D01*
X11607800Y-10897400D01*
X11557800Y-10947400D01*
X11607800Y-10997400D01*
X11607800Y-11251400D02*
X11657800Y-11201400D01*
X11607800Y-11151400D01*
X11557800Y-11201400D01*
X11607800Y-11251400D01*
X11607800Y-11505400D02*
X11657800Y-11455400D01*
X11607800Y-11405400D01*
X11557800Y-11455400D01*
X11607800Y-11505400D01*
X11607800Y-11759400D02*
X11657800Y-11709400D01*
X11607800Y-11659400D01*
X11557800Y-11709400D01*
X11607800Y-11759400D01*
X11607800Y-12013400D02*
X11657800Y-11963400D01*
X11607800Y-11913400D01*
X11557800Y-11963400D01*
X11607800Y-12013400D01*
D16*
X2303100Y-2604800D02*
X2423100Y-2724800D01*
X2423100Y-2604800D02*
X2303100Y-2724800D01*
X2423100Y-2664800D02*
G75*
G03*
X2423100Y-2664800I-60000J0D01*
G01*
X9363100Y-2564800D02*
X9483100Y-2684800D01*
X9483100Y-2564800D02*
X9363100Y-2684800D01*
X9483100Y-2624800D02*
G75*
G03*
X9483100Y-2624800I-60000J0D01*
G01*
D17*
X7893100Y-2854800D02*
X8053100Y-3014800D01*
X8053100Y-2854800D02*
X7893100Y-3014800D01*
X7973100Y-2854800D02*
X7973100Y-3014800D01*
X7893100Y-2934800D02*
X8053100Y-2934800D01*
D18*
X4443100Y-2584800D02*
X4663100Y-2804800D01*
X4663100Y-2584800D02*
X4443100Y-2804800D01*
X4630883Y-2772583D02*
X4630883Y-2617018D01*
X4475318Y-2617018D01*
X4475318Y-2772583D01*
X4630883Y-2772583D01*
X4953100Y-2594800D02*
X5173100Y-2814800D01*
X5173100Y-2594800D02*
X4953100Y-2814800D01*
X5140883Y-2782583D02*
X5140883Y-2627018D01*
X4985318Y-2627018D01*
X4985318Y-2782583D01*
X5140883Y-2782583D01*
X5554200Y-2595100D02*
X5774200Y-2815100D01*
X5774200Y-2595100D02*
X5554200Y-2815100D01*
X5741982Y-2782883D02*
X5741982Y-2627318D01*
X5586418Y-2627318D01*
X5586418Y-2782883D01*
X5741982Y-2782883D01*
X6201900Y-2569700D02*
X6421900Y-2789700D01*
X6421900Y-2569700D02*
X6201900Y-2789700D01*
X6389682Y-2757483D02*
X6389682Y-2601918D01*
X6234117Y-2601918D01*
X6234117Y-2757483D01*
X6389682Y-2757483D01*
D11*
X2248219Y-12557276D02*
X2248219Y-12357276D01*
X2295838Y-12357276D01*
X2324410Y-12366800D01*
X2343457Y-12385848D01*
X2352981Y-12404895D01*
X2362505Y-12442990D01*
X2362505Y-12471562D01*
X2352981Y-12509657D01*
X2343457Y-12528705D01*
X2324410Y-12547752D01*
X2295838Y-12557276D01*
X2248219Y-12557276D01*
X2448219Y-12557276D02*
X2448219Y-12423943D01*
X2448219Y-12462038D02*
X2457743Y-12442990D01*
X2467267Y-12433467D01*
X2486314Y-12423943D01*
X2505362Y-12423943D01*
X2572029Y-12557276D02*
X2572029Y-12423943D01*
X2572029Y-12357276D02*
X2562505Y-12366800D01*
X2572029Y-12376324D01*
X2581552Y-12366800D01*
X2572029Y-12357276D01*
X2572029Y-12376324D01*
X2695838Y-12557276D02*
X2676790Y-12547752D01*
X2667267Y-12528705D01*
X2667267Y-12357276D01*
X2800600Y-12557276D02*
X2781552Y-12547752D01*
X2772029Y-12528705D01*
X2772029Y-12357276D01*
X3029171Y-12557276D02*
X3029171Y-12357276D01*
X3095838Y-12500133D01*
X3162505Y-12357276D01*
X3162505Y-12557276D01*
X3343457Y-12557276D02*
X3343457Y-12452514D01*
X3333933Y-12433467D01*
X3314886Y-12423943D01*
X3276790Y-12423943D01*
X3257743Y-12433467D01*
X3343457Y-12547752D02*
X3324409Y-12557276D01*
X3276790Y-12557276D01*
X3257743Y-12547752D01*
X3248219Y-12528705D01*
X3248219Y-12509657D01*
X3257743Y-12490609D01*
X3276790Y-12481086D01*
X3324409Y-12481086D01*
X3343457Y-12471562D01*
X3438695Y-12423943D02*
X3438695Y-12623943D01*
X3438695Y-12433467D02*
X3457743Y-12423943D01*
X3495838Y-12423943D01*
X3514886Y-12433467D01*
X3524409Y-12442990D01*
X3533933Y-12462038D01*
X3533933Y-12519181D01*
X3524409Y-12538228D01*
X3514886Y-12547752D01*
X3495838Y-12557276D01*
X3457743Y-12557276D01*
X3438695Y-12547752D01*
X3619648Y-12538228D02*
X3629171Y-12547752D01*
X3619648Y-12557276D01*
X3610124Y-12547752D01*
X3619648Y-12538228D01*
X3619648Y-12557276D01*
X3619648Y-12433467D02*
X3629171Y-12442990D01*
X3619648Y-12452514D01*
X3610124Y-12442990D01*
X3619648Y-12433467D01*
X3619648Y-12452514D01*
D12*
X1960600Y-12871800D02*
X1990600Y-12901800D01*
X1990600Y-12871800D02*
X1960600Y-12901800D01*
D11*
X2286314Y-12777276D02*
X2305362Y-12777276D01*
X2324410Y-12786800D01*
X2333933Y-12796324D01*
X2343457Y-12815371D01*
X2352981Y-12853467D01*
X2352981Y-12901086D01*
X2343457Y-12939181D01*
X2333933Y-12958228D01*
X2324410Y-12967752D01*
X2305362Y-12977276D01*
X2286314Y-12977276D01*
X2267267Y-12967752D01*
X2257743Y-12958228D01*
X2248219Y-12939181D01*
X2238695Y-12901086D01*
X2238695Y-12853467D01*
X2248219Y-12815371D01*
X2257743Y-12796324D01*
X2267267Y-12786800D01*
X2286314Y-12777276D01*
X2438695Y-12958228D02*
X2448219Y-12967752D01*
X2438695Y-12977276D01*
X2429171Y-12967752D01*
X2438695Y-12958228D01*
X2438695Y-12977276D01*
X2514886Y-12777276D02*
X2638695Y-12777276D01*
X2572029Y-12853467D01*
X2600600Y-12853467D01*
X2619648Y-12862990D01*
X2629171Y-12872514D01*
X2638695Y-12891562D01*
X2638695Y-12939181D01*
X2629171Y-12958228D01*
X2619648Y-12967752D01*
X2600600Y-12977276D01*
X2543457Y-12977276D01*
X2524410Y-12967752D01*
X2514886Y-12958228D01*
X2762505Y-12777276D02*
X2781552Y-12777276D01*
X2800600Y-12786800D01*
X2810124Y-12796324D01*
X2819648Y-12815371D01*
X2829171Y-12853467D01*
X2829171Y-12901086D01*
X2819648Y-12939181D01*
X2810124Y-12958228D01*
X2800600Y-12967752D01*
X2781552Y-12977276D01*
X2762505Y-12977276D01*
X2743457Y-12967752D01*
X2733933Y-12958228D01*
X2724410Y-12939181D01*
X2714886Y-12901086D01*
X2714886Y-12853467D01*
X2724410Y-12815371D01*
X2733933Y-12796324D01*
X2743457Y-12786800D01*
X2762505Y-12777276D01*
X2952981Y-12777276D02*
X2972028Y-12777276D01*
X2991076Y-12786800D01*
X3000600Y-12796324D01*
X3010124Y-12815371D01*
X3019648Y-12853467D01*
X3019648Y-12901086D01*
X3010124Y-12939181D01*
X3000600Y-12958228D01*
X2991076Y-12967752D01*
X2972028Y-12977276D01*
X2952981Y-12977276D01*
X2933933Y-12967752D01*
X2924409Y-12958228D01*
X2914886Y-12939181D01*
X2905362Y-12901086D01*
X2905362Y-12853467D01*
X2914886Y-12815371D01*
X2924409Y-12796324D01*
X2933933Y-12786800D01*
X2952981Y-12777276D01*
X3105362Y-12977276D02*
X3105362Y-12843943D01*
X3105362Y-12862990D02*
X3114886Y-12853467D01*
X3133933Y-12843943D01*
X3162505Y-12843943D01*
X3181552Y-12853467D01*
X3191076Y-12872514D01*
X3191076Y-12977276D01*
X3191076Y-12872514D02*
X3200600Y-12853467D01*
X3219648Y-12843943D01*
X3248219Y-12843943D01*
X3267267Y-12853467D01*
X3276790Y-12872514D01*
X3276790Y-12977276D01*
X3372028Y-12977276D02*
X3372028Y-12843943D01*
X3372028Y-12862990D02*
X3381552Y-12853467D01*
X3400600Y-12843943D01*
X3429171Y-12843943D01*
X3448219Y-12853467D01*
X3457743Y-12872514D01*
X3457743Y-12977276D01*
X3457743Y-12872514D02*
X3467267Y-12853467D01*
X3486314Y-12843943D01*
X3514886Y-12843943D01*
X3533933Y-12853467D01*
X3543457Y-12872514D01*
X3543457Y-12977276D01*
X3933933Y-12767752D02*
X3762505Y-13024895D01*
X4191076Y-12777276D02*
X4210124Y-12777276D01*
X4229171Y-12786800D01*
X4238695Y-12796324D01*
X4248219Y-12815371D01*
X4257743Y-12853467D01*
X4257743Y-12901086D01*
X4248219Y-12939181D01*
X4238695Y-12958228D01*
X4229171Y-12967752D01*
X4210124Y-12977276D01*
X4191076Y-12977276D01*
X4172028Y-12967752D01*
X4162505Y-12958228D01*
X4152981Y-12939181D01*
X4143457Y-12901086D01*
X4143457Y-12853467D01*
X4152981Y-12815371D01*
X4162505Y-12796324D01*
X4172028Y-12786800D01*
X4191076Y-12777276D01*
X4343457Y-12958228D02*
X4352981Y-12967752D01*
X4343457Y-12977276D01*
X4333933Y-12967752D01*
X4343457Y-12958228D01*
X4343457Y-12977276D01*
X4476790Y-12777276D02*
X4495838Y-12777276D01*
X4514886Y-12786800D01*
X4524410Y-12796324D01*
X4533933Y-12815371D01*
X4543457Y-12853467D01*
X4543457Y-12901086D01*
X4533933Y-12939181D01*
X4524410Y-12958228D01*
X4514886Y-12967752D01*
X4495838Y-12977276D01*
X4476790Y-12977276D01*
X4457743Y-12967752D01*
X4448219Y-12958228D01*
X4438695Y-12939181D01*
X4429171Y-12901086D01*
X4429171Y-12853467D01*
X4438695Y-12815371D01*
X4448219Y-12796324D01*
X4457743Y-12786800D01*
X4476790Y-12777276D01*
X4733933Y-12977276D02*
X4619648Y-12977276D01*
X4676790Y-12977276D02*
X4676790Y-12777276D01*
X4657743Y-12805848D01*
X4638695Y-12824895D01*
X4619648Y-12834419D01*
X4924410Y-12977276D02*
X4810124Y-12977276D01*
X4867267Y-12977276D02*
X4867267Y-12777276D01*
X4848219Y-12805848D01*
X4829171Y-12824895D01*
X4810124Y-12834419D01*
X5038695Y-12862990D02*
X5019648Y-12853467D01*
X5010124Y-12843943D01*
X5000600Y-12824895D01*
X5000600Y-12815371D01*
X5010124Y-12796324D01*
X5019648Y-12786800D01*
X5038695Y-12777276D01*
X5076790Y-12777276D01*
X5095838Y-12786800D01*
X5105362Y-12796324D01*
X5114886Y-12815371D01*
X5114886Y-12824895D01*
X5105362Y-12843943D01*
X5095838Y-12853467D01*
X5076790Y-12862990D01*
X5038695Y-12862990D01*
X5019648Y-12872514D01*
X5010124Y-12882038D01*
X5000600Y-12901086D01*
X5000600Y-12939181D01*
X5010124Y-12958228D01*
X5019648Y-12967752D01*
X5038695Y-12977276D01*
X5076790Y-12977276D01*
X5095838Y-12967752D01*
X5105362Y-12958228D01*
X5114886Y-12939181D01*
X5114886Y-12901086D01*
X5105362Y-12882038D01*
X5095838Y-12872514D01*
X5076790Y-12862990D01*
X5191076Y-12777276D02*
X5191076Y-12815371D01*
X5267267Y-12777276D02*
X5267267Y-12815371D01*
X5562505Y-13053467D02*
X5552981Y-13043943D01*
X5533933Y-13015371D01*
X5524410Y-12996324D01*
X5514886Y-12967752D01*
X5505362Y-12920133D01*
X5505362Y-12882038D01*
X5514886Y-12834419D01*
X5524410Y-12805848D01*
X5533933Y-12786800D01*
X5552981Y-12758228D01*
X5562505Y-12748705D01*
X5743457Y-12977276D02*
X5629171Y-12977276D01*
X5686314Y-12977276D02*
X5686314Y-12777276D01*
X5667267Y-12805848D01*
X5648219Y-12824895D01*
X5629171Y-12834419D01*
X5981552Y-12977276D02*
X5981552Y-12777276D01*
X6067267Y-12977276D02*
X6067267Y-12872514D01*
X6057743Y-12853467D01*
X6038695Y-12843943D01*
X6010124Y-12843943D01*
X5991076Y-12853467D01*
X5981552Y-12862990D01*
X6191076Y-12977276D02*
X6172028Y-12967752D01*
X6162505Y-12958228D01*
X6152981Y-12939181D01*
X6152981Y-12882038D01*
X6162505Y-12862990D01*
X6172028Y-12853467D01*
X6191076Y-12843943D01*
X6219648Y-12843943D01*
X6238695Y-12853467D01*
X6248219Y-12862990D01*
X6257743Y-12882038D01*
X6257743Y-12939181D01*
X6248219Y-12958228D01*
X6238695Y-12967752D01*
X6219648Y-12977276D01*
X6191076Y-12977276D01*
X6372028Y-12977276D02*
X6352981Y-12967752D01*
X6343457Y-12948705D01*
X6343457Y-12777276D01*
X6524409Y-12967752D02*
X6505362Y-12977276D01*
X6467267Y-12977276D01*
X6448219Y-12967752D01*
X6438695Y-12948705D01*
X6438695Y-12872514D01*
X6448219Y-12853467D01*
X6467267Y-12843943D01*
X6505362Y-12843943D01*
X6524409Y-12853467D01*
X6533933Y-12872514D01*
X6533933Y-12891562D01*
X6438695Y-12910609D01*
X6600600Y-13053467D02*
X6610124Y-13043943D01*
X6629171Y-13015371D01*
X6638695Y-12996324D01*
X6648219Y-12967752D01*
X6657743Y-12920133D01*
X6657743Y-12882038D01*
X6648219Y-12834419D01*
X6638695Y-12805848D01*
X6629171Y-12786800D01*
X6610124Y-12758228D01*
X6600600Y-12748705D01*
D13*
X1990600Y-13150800D02*
G75*
G03*
X1990600Y-13150800I-20000J0D01*
G01*
D11*
X2286314Y-13041276D02*
X2305362Y-13041276D01*
X2324410Y-13050800D01*
X2333933Y-13060324D01*
X2343457Y-13079371D01*
X2352981Y-13117467D01*
X2352981Y-13165086D01*
X2343457Y-13203181D01*
X2333933Y-13222228D01*
X2324410Y-13231752D01*
X2305362Y-13241276D01*
X2286314Y-13241276D01*
X2267267Y-13231752D01*
X2257743Y-13222228D01*
X2248219Y-13203181D01*
X2238695Y-13165086D01*
X2238695Y-13117467D01*
X2248219Y-13079371D01*
X2257743Y-13060324D01*
X2267267Y-13050800D01*
X2286314Y-13041276D01*
X2438695Y-13222228D02*
X2448219Y-13231752D01*
X2438695Y-13241276D01*
X2429171Y-13231752D01*
X2438695Y-13222228D01*
X2438695Y-13241276D01*
X2619648Y-13107943D02*
X2619648Y-13241276D01*
X2572029Y-13031752D02*
X2524410Y-13174609D01*
X2648219Y-13174609D01*
X2762505Y-13041276D02*
X2781552Y-13041276D01*
X2800600Y-13050800D01*
X2810124Y-13060324D01*
X2819648Y-13079371D01*
X2829171Y-13117467D01*
X2829171Y-13165086D01*
X2819648Y-13203181D01*
X2810124Y-13222228D01*
X2800600Y-13231752D01*
X2781552Y-13241276D01*
X2762505Y-13241276D01*
X2743457Y-13231752D01*
X2733933Y-13222228D01*
X2724410Y-13203181D01*
X2714886Y-13165086D01*
X2714886Y-13117467D01*
X2724410Y-13079371D01*
X2733933Y-13060324D01*
X2743457Y-13050800D01*
X2762505Y-13041276D01*
X2952981Y-13041276D02*
X2972028Y-13041276D01*
X2991076Y-13050800D01*
X3000600Y-13060324D01*
X3010124Y-13079371D01*
X3019648Y-13117467D01*
X3019648Y-13165086D01*
X3010124Y-13203181D01*
X3000600Y-13222228D01*
X2991076Y-13231752D01*
X2972028Y-13241276D01*
X2952981Y-13241276D01*
X2933933Y-13231752D01*
X2924409Y-13222228D01*
X2914886Y-13203181D01*
X2905362Y-13165086D01*
X2905362Y-13117467D01*
X2914886Y-13079371D01*
X2924409Y-13060324D01*
X2933933Y-13050800D01*
X2952981Y-13041276D01*
X3105362Y-13241276D02*
X3105362Y-13107943D01*
X3105362Y-13126990D02*
X3114886Y-13117467D01*
X3133933Y-13107943D01*
X3162505Y-13107943D01*
X3181552Y-13117467D01*
X3191076Y-13136514D01*
X3191076Y-13241276D01*
X3191076Y-13136514D02*
X3200600Y-13117467D01*
X3219648Y-13107943D01*
X3248219Y-13107943D01*
X3267267Y-13117467D01*
X3276790Y-13136514D01*
X3276790Y-13241276D01*
X3372028Y-13241276D02*
X3372028Y-13107943D01*
X3372028Y-13126990D02*
X3381552Y-13117467D01*
X3400600Y-13107943D01*
X3429171Y-13107943D01*
X3448219Y-13117467D01*
X3457743Y-13136514D01*
X3457743Y-13241276D01*
X3457743Y-13136514D02*
X3467267Y-13117467D01*
X3486314Y-13107943D01*
X3514886Y-13107943D01*
X3533933Y-13117467D01*
X3543457Y-13136514D01*
X3543457Y-13241276D01*
X3933933Y-13031752D02*
X3762505Y-13288895D01*
X4191076Y-13041276D02*
X4210124Y-13041276D01*
X4229171Y-13050800D01*
X4238695Y-13060324D01*
X4248219Y-13079371D01*
X4257743Y-13117467D01*
X4257743Y-13165086D01*
X4248219Y-13203181D01*
X4238695Y-13222228D01*
X4229171Y-13231752D01*
X4210124Y-13241276D01*
X4191076Y-13241276D01*
X4172028Y-13231752D01*
X4162505Y-13222228D01*
X4152981Y-13203181D01*
X4143457Y-13165086D01*
X4143457Y-13117467D01*
X4152981Y-13079371D01*
X4162505Y-13060324D01*
X4172028Y-13050800D01*
X4191076Y-13041276D01*
X4343457Y-13222228D02*
X4352981Y-13231752D01*
X4343457Y-13241276D01*
X4333933Y-13231752D01*
X4343457Y-13222228D01*
X4343457Y-13241276D01*
X4476790Y-13041276D02*
X4495838Y-13041276D01*
X4514886Y-13050800D01*
X4524410Y-13060324D01*
X4533933Y-13079371D01*
X4543457Y-13117467D01*
X4543457Y-13165086D01*
X4533933Y-13203181D01*
X4524410Y-13222228D01*
X4514886Y-13231752D01*
X4495838Y-13241276D01*
X4476790Y-13241276D01*
X4457743Y-13231752D01*
X4448219Y-13222228D01*
X4438695Y-13203181D01*
X4429171Y-13165086D01*
X4429171Y-13117467D01*
X4438695Y-13079371D01*
X4448219Y-13060324D01*
X4457743Y-13050800D01*
X4476790Y-13041276D01*
X4733933Y-13241276D02*
X4619648Y-13241276D01*
X4676790Y-13241276D02*
X4676790Y-13041276D01*
X4657743Y-13069848D01*
X4638695Y-13088895D01*
X4619648Y-13098419D01*
X4914886Y-13041276D02*
X4819648Y-13041276D01*
X4810124Y-13136514D01*
X4819648Y-13126990D01*
X4838695Y-13117467D01*
X4886314Y-13117467D01*
X4905362Y-13126990D01*
X4914886Y-13136514D01*
X4924410Y-13155562D01*
X4924410Y-13203181D01*
X4914886Y-13222228D01*
X4905362Y-13231752D01*
X4886314Y-13241276D01*
X4838695Y-13241276D01*
X4819648Y-13231752D01*
X4810124Y-13222228D01*
X4991076Y-13041276D02*
X5124410Y-13041276D01*
X5038695Y-13241276D01*
X5191076Y-13041276D02*
X5191076Y-13079371D01*
X5267267Y-13041276D02*
X5267267Y-13079371D01*
X5562505Y-13317467D02*
X5552981Y-13307943D01*
X5533933Y-13279371D01*
X5524410Y-13260324D01*
X5514886Y-13231752D01*
X5505362Y-13184133D01*
X5505362Y-13146038D01*
X5514886Y-13098419D01*
X5524410Y-13069848D01*
X5533933Y-13050800D01*
X5552981Y-13022228D01*
X5562505Y-13012705D01*
X5629171Y-13060324D02*
X5638695Y-13050800D01*
X5657743Y-13041276D01*
X5705362Y-13041276D01*
X5724409Y-13050800D01*
X5733933Y-13060324D01*
X5743457Y-13079371D01*
X5743457Y-13098419D01*
X5733933Y-13126990D01*
X5619648Y-13241276D01*
X5743457Y-13241276D01*
X5810124Y-13041276D02*
X5943457Y-13041276D01*
X5857743Y-13241276D01*
X6172028Y-13241276D02*
X6172028Y-13041276D01*
X6257743Y-13241276D02*
X6257743Y-13136514D01*
X6248219Y-13117467D01*
X6229171Y-13107943D01*
X6200600Y-13107943D01*
X6181552Y-13117467D01*
X6172028Y-13126990D01*
X6381552Y-13241276D02*
X6362505Y-13231752D01*
X6352981Y-13222228D01*
X6343457Y-13203181D01*
X6343457Y-13146038D01*
X6352981Y-13126990D01*
X6362505Y-13117467D01*
X6381552Y-13107943D01*
X6410124Y-13107943D01*
X6429171Y-13117467D01*
X6438695Y-13126990D01*
X6448219Y-13146038D01*
X6448219Y-13203181D01*
X6438695Y-13222228D01*
X6429171Y-13231752D01*
X6410124Y-13241276D01*
X6381552Y-13241276D01*
X6562505Y-13241276D02*
X6543457Y-13231752D01*
X6533933Y-13212705D01*
X6533933Y-13041276D01*
X6714886Y-13231752D02*
X6695838Y-13241276D01*
X6657743Y-13241276D01*
X6638695Y-13231752D01*
X6629171Y-13212705D01*
X6629171Y-13136514D01*
X6638695Y-13117467D01*
X6657743Y-13107943D01*
X6695838Y-13107943D01*
X6714886Y-13117467D01*
X6724409Y-13136514D01*
X6724409Y-13155562D01*
X6629171Y-13174609D01*
X6800600Y-13231752D02*
X6819648Y-13241276D01*
X6857743Y-13241276D01*
X6876790Y-13231752D01*
X6886314Y-13212705D01*
X6886314Y-13203181D01*
X6876790Y-13184133D01*
X6857743Y-13174609D01*
X6829171Y-13174609D01*
X6810124Y-13165086D01*
X6800600Y-13146038D01*
X6800600Y-13136514D01*
X6810124Y-13117467D01*
X6829171Y-13107943D01*
X6857743Y-13107943D01*
X6876790Y-13117467D01*
X6952981Y-13317467D02*
X6962505Y-13307943D01*
X6981552Y-13279371D01*
X6991076Y-13260324D01*
X7000600Y-13231752D01*
X7010124Y-13184133D01*
X7010124Y-13146038D01*
X7000600Y-13098419D01*
X6991076Y-13069848D01*
X6981552Y-13050800D01*
X6962505Y-13022228D01*
X6952981Y-13012705D01*
D10*
X1965600Y-13389800D02*
X1965600Y-13439800D01*
X1940600Y-13414800D02*
X1990600Y-13414800D01*
D11*
X2286314Y-13305276D02*
X2305362Y-13305276D01*
X2324410Y-13314800D01*
X2333933Y-13324324D01*
X2343457Y-13343371D01*
X2352981Y-13381467D01*
X2352981Y-13429086D01*
X2343457Y-13467181D01*
X2333933Y-13486228D01*
X2324410Y-13495752D01*
X2305362Y-13505276D01*
X2286314Y-13505276D01*
X2267267Y-13495752D01*
X2257743Y-13486228D01*
X2248219Y-13467181D01*
X2238695Y-13429086D01*
X2238695Y-13381467D01*
X2248219Y-13343371D01*
X2257743Y-13324324D01*
X2267267Y-13314800D01*
X2286314Y-13305276D01*
X2438695Y-13486228D02*
X2448219Y-13495752D01*
X2438695Y-13505276D01*
X2429171Y-13495752D01*
X2438695Y-13486228D01*
X2438695Y-13505276D01*
X2629171Y-13305276D02*
X2533933Y-13305276D01*
X2524410Y-13400514D01*
X2533933Y-13390990D01*
X2552981Y-13381467D01*
X2600600Y-13381467D01*
X2619648Y-13390990D01*
X2629171Y-13400514D01*
X2638695Y-13419562D01*
X2638695Y-13467181D01*
X2629171Y-13486228D01*
X2619648Y-13495752D01*
X2600600Y-13505276D01*
X2552981Y-13505276D01*
X2533933Y-13495752D01*
X2524410Y-13486228D01*
X2762505Y-13305276D02*
X2781552Y-13305276D01*
X2800600Y-13314800D01*
X2810124Y-13324324D01*
X2819648Y-13343371D01*
X2829171Y-13381467D01*
X2829171Y-13429086D01*
X2819648Y-13467181D01*
X2810124Y-13486228D01*
X2800600Y-13495752D01*
X2781552Y-13505276D01*
X2762505Y-13505276D01*
X2743457Y-13495752D01*
X2733933Y-13486228D01*
X2724410Y-13467181D01*
X2714886Y-13429086D01*
X2714886Y-13381467D01*
X2724410Y-13343371D01*
X2733933Y-13324324D01*
X2743457Y-13314800D01*
X2762505Y-13305276D01*
X2952981Y-13305276D02*
X2972028Y-13305276D01*
X2991076Y-13314800D01*
X3000600Y-13324324D01*
X3010124Y-13343371D01*
X3019648Y-13381467D01*
X3019648Y-13429086D01*
X3010124Y-13467181D01*
X3000600Y-13486228D01*
X2991076Y-13495752D01*
X2972028Y-13505276D01*
X2952981Y-13505276D01*
X2933933Y-13495752D01*
X2924409Y-13486228D01*
X2914886Y-13467181D01*
X2905362Y-13429086D01*
X2905362Y-13381467D01*
X2914886Y-13343371D01*
X2924409Y-13324324D01*
X2933933Y-13314800D01*
X2952981Y-13305276D01*
X3105362Y-13505276D02*
X3105362Y-13371943D01*
X3105362Y-13390990D02*
X3114886Y-13381467D01*
X3133933Y-13371943D01*
X3162505Y-13371943D01*
X3181552Y-13381467D01*
X3191076Y-13400514D01*
X3191076Y-13505276D01*
X3191076Y-13400514D02*
X3200600Y-13381467D01*
X3219648Y-13371943D01*
X3248219Y-13371943D01*
X3267267Y-13381467D01*
X3276790Y-13400514D01*
X3276790Y-13505276D01*
X3372028Y-13505276D02*
X3372028Y-13371943D01*
X3372028Y-13390990D02*
X3381552Y-13381467D01*
X3400600Y-13371943D01*
X3429171Y-13371943D01*
X3448219Y-13381467D01*
X3457743Y-13400514D01*
X3457743Y-13505276D01*
X3457743Y-13400514D02*
X3467267Y-13381467D01*
X3486314Y-13371943D01*
X3514886Y-13371943D01*
X3533933Y-13381467D01*
X3543457Y-13400514D01*
X3543457Y-13505276D01*
X3933933Y-13295752D02*
X3762505Y-13552895D01*
X4191076Y-13305276D02*
X4210124Y-13305276D01*
X4229171Y-13314800D01*
X4238695Y-13324324D01*
X4248219Y-13343371D01*
X4257743Y-13381467D01*
X4257743Y-13429086D01*
X4248219Y-13467181D01*
X4238695Y-13486228D01*
X4229171Y-13495752D01*
X4210124Y-13505276D01*
X4191076Y-13505276D01*
X4172028Y-13495752D01*
X4162505Y-13486228D01*
X4152981Y-13467181D01*
X4143457Y-13429086D01*
X4143457Y-13381467D01*
X4152981Y-13343371D01*
X4162505Y-13324324D01*
X4172028Y-13314800D01*
X4191076Y-13305276D01*
X4343457Y-13486228D02*
X4352981Y-13495752D01*
X4343457Y-13505276D01*
X4333933Y-13495752D01*
X4343457Y-13486228D01*
X4343457Y-13505276D01*
X4476790Y-13305276D02*
X4495838Y-13305276D01*
X4514886Y-13314800D01*
X4524410Y-13324324D01*
X4533933Y-13343371D01*
X4543457Y-13381467D01*
X4543457Y-13429086D01*
X4533933Y-13467181D01*
X4524410Y-13486228D01*
X4514886Y-13495752D01*
X4495838Y-13505276D01*
X4476790Y-13505276D01*
X4457743Y-13495752D01*
X4448219Y-13486228D01*
X4438695Y-13467181D01*
X4429171Y-13429086D01*
X4429171Y-13381467D01*
X4438695Y-13343371D01*
X4448219Y-13324324D01*
X4457743Y-13314800D01*
X4476790Y-13305276D01*
X4733933Y-13505276D02*
X4619648Y-13505276D01*
X4676790Y-13505276D02*
X4676790Y-13305276D01*
X4657743Y-13333848D01*
X4638695Y-13352895D01*
X4619648Y-13362419D01*
X4829171Y-13505276D02*
X4867267Y-13505276D01*
X4886314Y-13495752D01*
X4895838Y-13486228D01*
X4914886Y-13457657D01*
X4924410Y-13419562D01*
X4924410Y-13343371D01*
X4914886Y-13324324D01*
X4905362Y-13314800D01*
X4886314Y-13305276D01*
X4848219Y-13305276D01*
X4829171Y-13314800D01*
X4819648Y-13324324D01*
X4810124Y-13343371D01*
X4810124Y-13390990D01*
X4819648Y-13410038D01*
X4829171Y-13419562D01*
X4848219Y-13429086D01*
X4886314Y-13429086D01*
X4905362Y-13419562D01*
X4914886Y-13410038D01*
X4924410Y-13390990D01*
X4991076Y-13305276D02*
X5124410Y-13305276D01*
X5038695Y-13505276D01*
X5191076Y-13305276D02*
X5191076Y-13343371D01*
X5267267Y-13305276D02*
X5267267Y-13343371D01*
X5562505Y-13581467D02*
X5552981Y-13571943D01*
X5533933Y-13543371D01*
X5524410Y-13524324D01*
X5514886Y-13495752D01*
X5505362Y-13448133D01*
X5505362Y-13410038D01*
X5514886Y-13362419D01*
X5524410Y-13333848D01*
X5533933Y-13314800D01*
X5552981Y-13286228D01*
X5562505Y-13276705D01*
X5619648Y-13305276D02*
X5743457Y-13305276D01*
X5676790Y-13381467D01*
X5705362Y-13381467D01*
X5724409Y-13390990D01*
X5733933Y-13400514D01*
X5743457Y-13419562D01*
X5743457Y-13467181D01*
X5733933Y-13486228D01*
X5724409Y-13495752D01*
X5705362Y-13505276D01*
X5648219Y-13505276D01*
X5629171Y-13495752D01*
X5619648Y-13486228D01*
X5981552Y-13505276D02*
X5981552Y-13305276D01*
X6067267Y-13505276D02*
X6067267Y-13400514D01*
X6057743Y-13381467D01*
X6038695Y-13371943D01*
X6010124Y-13371943D01*
X5991076Y-13381467D01*
X5981552Y-13390990D01*
X6191076Y-13505276D02*
X6172028Y-13495752D01*
X6162505Y-13486228D01*
X6152981Y-13467181D01*
X6152981Y-13410038D01*
X6162505Y-13390990D01*
X6172028Y-13381467D01*
X6191076Y-13371943D01*
X6219648Y-13371943D01*
X6238695Y-13381467D01*
X6248219Y-13390990D01*
X6257743Y-13410038D01*
X6257743Y-13467181D01*
X6248219Y-13486228D01*
X6238695Y-13495752D01*
X6219648Y-13505276D01*
X6191076Y-13505276D01*
X6372028Y-13505276D02*
X6352981Y-13495752D01*
X6343457Y-13476705D01*
X6343457Y-13305276D01*
X6524409Y-13495752D02*
X6505362Y-13505276D01*
X6467267Y-13505276D01*
X6448219Y-13495752D01*
X6438695Y-13476705D01*
X6438695Y-13400514D01*
X6448219Y-13381467D01*
X6467267Y-13371943D01*
X6505362Y-13371943D01*
X6524409Y-13381467D01*
X6533933Y-13400514D01*
X6533933Y-13419562D01*
X6438695Y-13438609D01*
X6610124Y-13495752D02*
X6629171Y-13505276D01*
X6667267Y-13505276D01*
X6686314Y-13495752D01*
X6695838Y-13476705D01*
X6695838Y-13467181D01*
X6686314Y-13448133D01*
X6667267Y-13438609D01*
X6638695Y-13438609D01*
X6619648Y-13429086D01*
X6610124Y-13410038D01*
X6610124Y-13400514D01*
X6619648Y-13381467D01*
X6638695Y-13371943D01*
X6667267Y-13371943D01*
X6686314Y-13381467D01*
X6762505Y-13581467D02*
X6772028Y-13571943D01*
X6791076Y-13543371D01*
X6800600Y-13524324D01*
X6810124Y-13495752D01*
X6819648Y-13448133D01*
X6819648Y-13410038D01*
X6810124Y-13362419D01*
X6800600Y-13333848D01*
X6791076Y-13314800D01*
X6772028Y-13286228D01*
X6762505Y-13276705D01*
D14*
X1980349Y-13703549D02*
X1980349Y-13654051D01*
X1930851Y-13654051D01*
X1930851Y-13703549D01*
X1980349Y-13703549D01*
D11*
X2286314Y-13569276D02*
X2305362Y-13569276D01*
X2324410Y-13578800D01*
X2333933Y-13588324D01*
X2343457Y-13607371D01*
X2352981Y-13645467D01*
X2352981Y-13693086D01*
X2343457Y-13731181D01*
X2333933Y-13750228D01*
X2324410Y-13759752D01*
X2305362Y-13769276D01*
X2286314Y-13769276D01*
X2267267Y-13759752D01*
X2257743Y-13750228D01*
X2248219Y-13731181D01*
X2238695Y-13693086D01*
X2238695Y-13645467D01*
X2248219Y-13607371D01*
X2257743Y-13588324D01*
X2267267Y-13578800D01*
X2286314Y-13569276D01*
X2438695Y-13750228D02*
X2448219Y-13759752D01*
X2438695Y-13769276D01*
X2429171Y-13759752D01*
X2438695Y-13750228D01*
X2438695Y-13769276D01*
X2514886Y-13569276D02*
X2648219Y-13569276D01*
X2562505Y-13769276D01*
X2762505Y-13569276D02*
X2781552Y-13569276D01*
X2800600Y-13578800D01*
X2810124Y-13588324D01*
X2819648Y-13607371D01*
X2829171Y-13645467D01*
X2829171Y-13693086D01*
X2819648Y-13731181D01*
X2810124Y-13750228D01*
X2800600Y-13759752D01*
X2781552Y-13769276D01*
X2762505Y-13769276D01*
X2743457Y-13759752D01*
X2733933Y-13750228D01*
X2724410Y-13731181D01*
X2714886Y-13693086D01*
X2714886Y-13645467D01*
X2724410Y-13607371D01*
X2733933Y-13588324D01*
X2743457Y-13578800D01*
X2762505Y-13569276D01*
X2952981Y-13569276D02*
X2972028Y-13569276D01*
X2991076Y-13578800D01*
X3000600Y-13588324D01*
X3010124Y-13607371D01*
X3019648Y-13645467D01*
X3019648Y-13693086D01*
X3010124Y-13731181D01*
X3000600Y-13750228D01*
X2991076Y-13759752D01*
X2972028Y-13769276D01*
X2952981Y-13769276D01*
X2933933Y-13759752D01*
X2924409Y-13750228D01*
X2914886Y-13731181D01*
X2905362Y-13693086D01*
X2905362Y-13645467D01*
X2914886Y-13607371D01*
X2924409Y-13588324D01*
X2933933Y-13578800D01*
X2952981Y-13569276D01*
X3105362Y-13769276D02*
X3105362Y-13635943D01*
X3105362Y-13654990D02*
X3114886Y-13645467D01*
X3133933Y-13635943D01*
X3162505Y-13635943D01*
X3181552Y-13645467D01*
X3191076Y-13664514D01*
X3191076Y-13769276D01*
X3191076Y-13664514D02*
X3200600Y-13645467D01*
X3219648Y-13635943D01*
X3248219Y-13635943D01*
X3267267Y-13645467D01*
X3276790Y-13664514D01*
X3276790Y-13769276D01*
X3372028Y-13769276D02*
X3372028Y-13635943D01*
X3372028Y-13654990D02*
X3381552Y-13645467D01*
X3400600Y-13635943D01*
X3429171Y-13635943D01*
X3448219Y-13645467D01*
X3457743Y-13664514D01*
X3457743Y-13769276D01*
X3457743Y-13664514D02*
X3467267Y-13645467D01*
X3486314Y-13635943D01*
X3514886Y-13635943D01*
X3533933Y-13645467D01*
X3543457Y-13664514D01*
X3543457Y-13769276D01*
X3933933Y-13559752D02*
X3762505Y-13816895D01*
X4191076Y-13569276D02*
X4210124Y-13569276D01*
X4229171Y-13578800D01*
X4238695Y-13588324D01*
X4248219Y-13607371D01*
X4257743Y-13645467D01*
X4257743Y-13693086D01*
X4248219Y-13731181D01*
X4238695Y-13750228D01*
X4229171Y-13759752D01*
X4210124Y-13769276D01*
X4191076Y-13769276D01*
X4172028Y-13759752D01*
X4162505Y-13750228D01*
X4152981Y-13731181D01*
X4143457Y-13693086D01*
X4143457Y-13645467D01*
X4152981Y-13607371D01*
X4162505Y-13588324D01*
X4172028Y-13578800D01*
X4191076Y-13569276D01*
X4343457Y-13750228D02*
X4352981Y-13759752D01*
X4343457Y-13769276D01*
X4333933Y-13759752D01*
X4343457Y-13750228D01*
X4343457Y-13769276D01*
X4476790Y-13569276D02*
X4495838Y-13569276D01*
X4514886Y-13578800D01*
X4524410Y-13588324D01*
X4533933Y-13607371D01*
X4543457Y-13645467D01*
X4543457Y-13693086D01*
X4533933Y-13731181D01*
X4524410Y-13750228D01*
X4514886Y-13759752D01*
X4495838Y-13769276D01*
X4476790Y-13769276D01*
X4457743Y-13759752D01*
X4448219Y-13750228D01*
X4438695Y-13731181D01*
X4429171Y-13693086D01*
X4429171Y-13645467D01*
X4438695Y-13607371D01*
X4448219Y-13588324D01*
X4457743Y-13578800D01*
X4476790Y-13569276D01*
X4619648Y-13588324D02*
X4629171Y-13578800D01*
X4648219Y-13569276D01*
X4695838Y-13569276D01*
X4714886Y-13578800D01*
X4724410Y-13588324D01*
X4733933Y-13607371D01*
X4733933Y-13626419D01*
X4724410Y-13654990D01*
X4610124Y-13769276D01*
X4733933Y-13769276D01*
X4800600Y-13569276D02*
X4933933Y-13569276D01*
X4848219Y-13769276D01*
X5095838Y-13569276D02*
X5057743Y-13569276D01*
X5038695Y-13578800D01*
X5029171Y-13588324D01*
X5010124Y-13616895D01*
X5000600Y-13654990D01*
X5000600Y-13731181D01*
X5010124Y-13750228D01*
X5019648Y-13759752D01*
X5038695Y-13769276D01*
X5076790Y-13769276D01*
X5095838Y-13759752D01*
X5105362Y-13750228D01*
X5114886Y-13731181D01*
X5114886Y-13683562D01*
X5105362Y-13664514D01*
X5095838Y-13654990D01*
X5076790Y-13645467D01*
X5038695Y-13645467D01*
X5019648Y-13654990D01*
X5010124Y-13664514D01*
X5000600Y-13683562D01*
X5191076Y-13569276D02*
X5191076Y-13607371D01*
X5267267Y-13569276D02*
X5267267Y-13607371D01*
X5562505Y-13845467D02*
X5552981Y-13835943D01*
X5533933Y-13807371D01*
X5524410Y-13788324D01*
X5514886Y-13759752D01*
X5505362Y-13712133D01*
X5505362Y-13674038D01*
X5514886Y-13626419D01*
X5524410Y-13597848D01*
X5533933Y-13578800D01*
X5552981Y-13550228D01*
X5562505Y-13540705D01*
X5743457Y-13769276D02*
X5629171Y-13769276D01*
X5686314Y-13769276D02*
X5686314Y-13569276D01*
X5667267Y-13597848D01*
X5648219Y-13616895D01*
X5629171Y-13626419D01*
X5867267Y-13569276D02*
X5886314Y-13569276D01*
X5905362Y-13578800D01*
X5914886Y-13588324D01*
X5924409Y-13607371D01*
X5933933Y-13645467D01*
X5933933Y-13693086D01*
X5924409Y-13731181D01*
X5914886Y-13750228D01*
X5905362Y-13759752D01*
X5886314Y-13769276D01*
X5867267Y-13769276D01*
X5848219Y-13759752D01*
X5838695Y-13750228D01*
X5829171Y-13731181D01*
X5819648Y-13693086D01*
X5819648Y-13645467D01*
X5829171Y-13607371D01*
X5838695Y-13588324D01*
X5848219Y-13578800D01*
X5867267Y-13569276D01*
X6172028Y-13769276D02*
X6172028Y-13569276D01*
X6257743Y-13769276D02*
X6257743Y-13664514D01*
X6248219Y-13645467D01*
X6229171Y-13635943D01*
X6200600Y-13635943D01*
X6181552Y-13645467D01*
X6172028Y-13654990D01*
X6381552Y-13769276D02*
X6362505Y-13759752D01*
X6352981Y-13750228D01*
X6343457Y-13731181D01*
X6343457Y-13674038D01*
X6352981Y-13654990D01*
X6362505Y-13645467D01*
X6381552Y-13635943D01*
X6410124Y-13635943D01*
X6429171Y-13645467D01*
X6438695Y-13654990D01*
X6448219Y-13674038D01*
X6448219Y-13731181D01*
X6438695Y-13750228D01*
X6429171Y-13759752D01*
X6410124Y-13769276D01*
X6381552Y-13769276D01*
X6562505Y-13769276D02*
X6543457Y-13759752D01*
X6533933Y-13740705D01*
X6533933Y-13569276D01*
X6714886Y-13759752D02*
X6695838Y-13769276D01*
X6657743Y-13769276D01*
X6638695Y-13759752D01*
X6629171Y-13740705D01*
X6629171Y-13664514D01*
X6638695Y-13645467D01*
X6657743Y-13635943D01*
X6695838Y-13635943D01*
X6714886Y-13645467D01*
X6724409Y-13664514D01*
X6724409Y-13683562D01*
X6629171Y-13702609D01*
X6800600Y-13759752D02*
X6819648Y-13769276D01*
X6857743Y-13769276D01*
X6876790Y-13759752D01*
X6886314Y-13740705D01*
X6886314Y-13731181D01*
X6876790Y-13712133D01*
X6857743Y-13702609D01*
X6829171Y-13702609D01*
X6810124Y-13693086D01*
X6800600Y-13674038D01*
X6800600Y-13664514D01*
X6810124Y-13645467D01*
X6829171Y-13635943D01*
X6857743Y-13635943D01*
X6876790Y-13645467D01*
X6952981Y-13845467D02*
X6962505Y-13835943D01*
X6981552Y-13807371D01*
X6991076Y-13788324D01*
X7000600Y-13759752D01*
X7010124Y-13712133D01*
X7010124Y-13674038D01*
X7000600Y-13626419D01*
X6991076Y-13597848D01*
X6981552Y-13578800D01*
X6962505Y-13550228D01*
X6952981Y-13540705D01*
D15*
X1940600Y-13992800D02*
X1990600Y-13942800D01*
X1940600Y-13892800D01*
X1890600Y-13942800D01*
X1940600Y-13992800D01*
D11*
X2352981Y-14033276D02*
X2238695Y-14033276D01*
X2295838Y-14033276D02*
X2295838Y-13833276D01*
X2276790Y-13861848D01*
X2257743Y-13880895D01*
X2238695Y-13890419D01*
X2438695Y-14014228D02*
X2448219Y-14023752D01*
X2438695Y-14033276D01*
X2429171Y-14023752D01*
X2438695Y-14014228D01*
X2438695Y-14033276D01*
X2572029Y-13833276D02*
X2591076Y-13833276D01*
X2610124Y-13842800D01*
X2619648Y-13852324D01*
X2629171Y-13871371D01*
X2638695Y-13909467D01*
X2638695Y-13957086D01*
X2629171Y-13995181D01*
X2619648Y-14014228D01*
X2610124Y-14023752D01*
X2591076Y-14033276D01*
X2572029Y-14033276D01*
X2552981Y-14023752D01*
X2543457Y-14014228D01*
X2533933Y-13995181D01*
X2524410Y-13957086D01*
X2524410Y-13909467D01*
X2533933Y-13871371D01*
X2543457Y-13852324D01*
X2552981Y-13842800D01*
X2572029Y-13833276D01*
X2762505Y-13833276D02*
X2781552Y-13833276D01*
X2800600Y-13842800D01*
X2810124Y-13852324D01*
X2819648Y-13871371D01*
X2829171Y-13909467D01*
X2829171Y-13957086D01*
X2819648Y-13995181D01*
X2810124Y-14014228D01*
X2800600Y-14023752D01*
X2781552Y-14033276D01*
X2762505Y-14033276D01*
X2743457Y-14023752D01*
X2733933Y-14014228D01*
X2724410Y-13995181D01*
X2714886Y-13957086D01*
X2714886Y-13909467D01*
X2724410Y-13871371D01*
X2733933Y-13852324D01*
X2743457Y-13842800D01*
X2762505Y-13833276D01*
X2952981Y-13833276D02*
X2972028Y-13833276D01*
X2991076Y-13842800D01*
X3000600Y-13852324D01*
X3010124Y-13871371D01*
X3019648Y-13909467D01*
X3019648Y-13957086D01*
X3010124Y-13995181D01*
X3000600Y-14014228D01*
X2991076Y-14023752D01*
X2972028Y-14033276D01*
X2952981Y-14033276D01*
X2933933Y-14023752D01*
X2924409Y-14014228D01*
X2914886Y-13995181D01*
X2905362Y-13957086D01*
X2905362Y-13909467D01*
X2914886Y-13871371D01*
X2924409Y-13852324D01*
X2933933Y-13842800D01*
X2952981Y-13833276D01*
X3105362Y-14033276D02*
X3105362Y-13899943D01*
X3105362Y-13918990D02*
X3114886Y-13909467D01*
X3133933Y-13899943D01*
X3162505Y-13899943D01*
X3181552Y-13909467D01*
X3191076Y-13928514D01*
X3191076Y-14033276D01*
X3191076Y-13928514D02*
X3200600Y-13909467D01*
X3219648Y-13899943D01*
X3248219Y-13899943D01*
X3267267Y-13909467D01*
X3276790Y-13928514D01*
X3276790Y-14033276D01*
X3372028Y-14033276D02*
X3372028Y-13899943D01*
X3372028Y-13918990D02*
X3381552Y-13909467D01*
X3400600Y-13899943D01*
X3429171Y-13899943D01*
X3448219Y-13909467D01*
X3457743Y-13928514D01*
X3457743Y-14033276D01*
X3457743Y-13928514D02*
X3467267Y-13909467D01*
X3486314Y-13899943D01*
X3514886Y-13899943D01*
X3533933Y-13909467D01*
X3543457Y-13928514D01*
X3543457Y-14033276D01*
X3933933Y-13823752D02*
X3762505Y-14080895D01*
X4191076Y-13833276D02*
X4210124Y-13833276D01*
X4229171Y-13842800D01*
X4238695Y-13852324D01*
X4248219Y-13871371D01*
X4257743Y-13909467D01*
X4257743Y-13957086D01*
X4248219Y-13995181D01*
X4238695Y-14014228D01*
X4229171Y-14023752D01*
X4210124Y-14033276D01*
X4191076Y-14033276D01*
X4172028Y-14023752D01*
X4162505Y-14014228D01*
X4152981Y-13995181D01*
X4143457Y-13957086D01*
X4143457Y-13909467D01*
X4152981Y-13871371D01*
X4162505Y-13852324D01*
X4172028Y-13842800D01*
X4191076Y-13833276D01*
X4343457Y-14014228D02*
X4352981Y-14023752D01*
X4343457Y-14033276D01*
X4333933Y-14023752D01*
X4343457Y-14014228D01*
X4343457Y-14033276D01*
X4476790Y-13833276D02*
X4495838Y-13833276D01*
X4514886Y-13842800D01*
X4524410Y-13852324D01*
X4533933Y-13871371D01*
X4543457Y-13909467D01*
X4543457Y-13957086D01*
X4533933Y-13995181D01*
X4524410Y-14014228D01*
X4514886Y-14023752D01*
X4495838Y-14033276D01*
X4476790Y-14033276D01*
X4457743Y-14023752D01*
X4448219Y-14014228D01*
X4438695Y-13995181D01*
X4429171Y-13957086D01*
X4429171Y-13909467D01*
X4438695Y-13871371D01*
X4448219Y-13852324D01*
X4457743Y-13842800D01*
X4476790Y-13833276D01*
X4610124Y-13833276D02*
X4733933Y-13833276D01*
X4667267Y-13909467D01*
X4695838Y-13909467D01*
X4714886Y-13918990D01*
X4724410Y-13928514D01*
X4733933Y-13947562D01*
X4733933Y-13995181D01*
X4724410Y-14014228D01*
X4714886Y-14023752D01*
X4695838Y-14033276D01*
X4638695Y-14033276D01*
X4619648Y-14023752D01*
X4610124Y-14014228D01*
X4829171Y-14033276D02*
X4867267Y-14033276D01*
X4886314Y-14023752D01*
X4895838Y-14014228D01*
X4914886Y-13985657D01*
X4924410Y-13947562D01*
X4924410Y-13871371D01*
X4914886Y-13852324D01*
X4905362Y-13842800D01*
X4886314Y-13833276D01*
X4848219Y-13833276D01*
X4829171Y-13842800D01*
X4819648Y-13852324D01*
X4810124Y-13871371D01*
X4810124Y-13918990D01*
X4819648Y-13938038D01*
X4829171Y-13947562D01*
X4848219Y-13957086D01*
X4886314Y-13957086D01*
X4905362Y-13947562D01*
X4914886Y-13938038D01*
X4924410Y-13918990D01*
X5095838Y-13899943D02*
X5095838Y-14033276D01*
X5048219Y-13823752D02*
X5000600Y-13966609D01*
X5124410Y-13966609D01*
X5191076Y-13833276D02*
X5191076Y-13871371D01*
X5267267Y-13833276D02*
X5267267Y-13871371D01*
X5562505Y-14109467D02*
X5552981Y-14099943D01*
X5533933Y-14071371D01*
X5524410Y-14052324D01*
X5514886Y-14023752D01*
X5505362Y-13976133D01*
X5505362Y-13938038D01*
X5514886Y-13890419D01*
X5524410Y-13861848D01*
X5533933Y-13842800D01*
X5552981Y-13814228D01*
X5562505Y-13804705D01*
X5619648Y-13833276D02*
X5743457Y-13833276D01*
X5676790Y-13909467D01*
X5705362Y-13909467D01*
X5724409Y-13918990D01*
X5733933Y-13928514D01*
X5743457Y-13947562D01*
X5743457Y-13995181D01*
X5733933Y-14014228D01*
X5724409Y-14023752D01*
X5705362Y-14033276D01*
X5648219Y-14033276D01*
X5629171Y-14023752D01*
X5619648Y-14014228D01*
X5933933Y-14033276D02*
X5819648Y-14033276D01*
X5876790Y-14033276D02*
X5876790Y-13833276D01*
X5857743Y-13861848D01*
X5838695Y-13880895D01*
X5819648Y-13890419D01*
X6172028Y-14033276D02*
X6172028Y-13833276D01*
X6257743Y-14033276D02*
X6257743Y-13928514D01*
X6248219Y-13909467D01*
X6229171Y-13899943D01*
X6200600Y-13899943D01*
X6181552Y-13909467D01*
X6172028Y-13918990D01*
X6381552Y-14033276D02*
X6362505Y-14023752D01*
X6352981Y-14014228D01*
X6343457Y-13995181D01*
X6343457Y-13938038D01*
X6352981Y-13918990D01*
X6362505Y-13909467D01*
X6381552Y-13899943D01*
X6410124Y-13899943D01*
X6429171Y-13909467D01*
X6438695Y-13918990D01*
X6448219Y-13938038D01*
X6448219Y-13995181D01*
X6438695Y-14014228D01*
X6429171Y-14023752D01*
X6410124Y-14033276D01*
X6381552Y-14033276D01*
X6562505Y-14033276D02*
X6543457Y-14023752D01*
X6533933Y-14004705D01*
X6533933Y-13833276D01*
X6714886Y-14023752D02*
X6695838Y-14033276D01*
X6657743Y-14033276D01*
X6638695Y-14023752D01*
X6629171Y-14004705D01*
X6629171Y-13928514D01*
X6638695Y-13909467D01*
X6657743Y-13899943D01*
X6695838Y-13899943D01*
X6714886Y-13909467D01*
X6724409Y-13928514D01*
X6724409Y-13947562D01*
X6629171Y-13966609D01*
X6800600Y-14023752D02*
X6819648Y-14033276D01*
X6857743Y-14033276D01*
X6876790Y-14023752D01*
X6886314Y-14004705D01*
X6886314Y-13995181D01*
X6876790Y-13976133D01*
X6857743Y-13966609D01*
X6829171Y-13966609D01*
X6810124Y-13957086D01*
X6800600Y-13938038D01*
X6800600Y-13928514D01*
X6810124Y-13909467D01*
X6829171Y-13899943D01*
X6857743Y-13899943D01*
X6876790Y-13909467D01*
X6952981Y-14109467D02*
X6962505Y-14099943D01*
X6981552Y-14071371D01*
X6991076Y-14052324D01*
X7000600Y-14023752D01*
X7010124Y-13976133D01*
X7010124Y-13938038D01*
X7000600Y-13890419D01*
X6991076Y-13861848D01*
X6981552Y-13842800D01*
X6962505Y-13814228D01*
X6952981Y-13804705D01*
D16*
X1870600Y-14146800D02*
X1990600Y-14266800D01*
X1990600Y-14146800D02*
X1870600Y-14266800D01*
X1990600Y-14206800D02*
G75*
G03*
X1990600Y-14206800I-60000J0D01*
G01*
D11*
X2352981Y-14297276D02*
X2238695Y-14297276D01*
X2295838Y-14297276D02*
X2295838Y-14097276D01*
X2276790Y-14125848D01*
X2257743Y-14144895D01*
X2238695Y-14154419D01*
X2438695Y-14278228D02*
X2448219Y-14287752D01*
X2438695Y-14297276D01*
X2429171Y-14287752D01*
X2438695Y-14278228D01*
X2438695Y-14297276D01*
X2524410Y-14116324D02*
X2533933Y-14106800D01*
X2552981Y-14097276D01*
X2600600Y-14097276D01*
X2619648Y-14106800D01*
X2629171Y-14116324D01*
X2638695Y-14135371D01*
X2638695Y-14154419D01*
X2629171Y-14182990D01*
X2514886Y-14297276D01*
X2638695Y-14297276D01*
X2762505Y-14097276D02*
X2781552Y-14097276D01*
X2800600Y-14106800D01*
X2810124Y-14116324D01*
X2819648Y-14135371D01*
X2829171Y-14173467D01*
X2829171Y-14221086D01*
X2819648Y-14259181D01*
X2810124Y-14278228D01*
X2800600Y-14287752D01*
X2781552Y-14297276D01*
X2762505Y-14297276D01*
X2743457Y-14287752D01*
X2733933Y-14278228D01*
X2724410Y-14259181D01*
X2714886Y-14221086D01*
X2714886Y-14173467D01*
X2724410Y-14135371D01*
X2733933Y-14116324D01*
X2743457Y-14106800D01*
X2762505Y-14097276D01*
X2952981Y-14097276D02*
X2972028Y-14097276D01*
X2991076Y-14106800D01*
X3000600Y-14116324D01*
X3010124Y-14135371D01*
X3019648Y-14173467D01*
X3019648Y-14221086D01*
X3010124Y-14259181D01*
X3000600Y-14278228D01*
X2991076Y-14287752D01*
X2972028Y-14297276D01*
X2952981Y-14297276D01*
X2933933Y-14287752D01*
X2924409Y-14278228D01*
X2914886Y-14259181D01*
X2905362Y-14221086D01*
X2905362Y-14173467D01*
X2914886Y-14135371D01*
X2924409Y-14116324D01*
X2933933Y-14106800D01*
X2952981Y-14097276D01*
X3105362Y-14297276D02*
X3105362Y-14163943D01*
X3105362Y-14182990D02*
X3114886Y-14173467D01*
X3133933Y-14163943D01*
X3162505Y-14163943D01*
X3181552Y-14173467D01*
X3191076Y-14192514D01*
X3191076Y-14297276D01*
X3191076Y-14192514D02*
X3200600Y-14173467D01*
X3219648Y-14163943D01*
X3248219Y-14163943D01*
X3267267Y-14173467D01*
X3276790Y-14192514D01*
X3276790Y-14297276D01*
X3372028Y-14297276D02*
X3372028Y-14163943D01*
X3372028Y-14182990D02*
X3381552Y-14173467D01*
X3400600Y-14163943D01*
X3429171Y-14163943D01*
X3448219Y-14173467D01*
X3457743Y-14192514D01*
X3457743Y-14297276D01*
X3457743Y-14192514D02*
X3467267Y-14173467D01*
X3486314Y-14163943D01*
X3514886Y-14163943D01*
X3533933Y-14173467D01*
X3543457Y-14192514D01*
X3543457Y-14297276D01*
X3933933Y-14087752D02*
X3762505Y-14344895D01*
X4191076Y-14097276D02*
X4210124Y-14097276D01*
X4229171Y-14106800D01*
X4238695Y-14116324D01*
X4248219Y-14135371D01*
X4257743Y-14173467D01*
X4257743Y-14221086D01*
X4248219Y-14259181D01*
X4238695Y-14278228D01*
X4229171Y-14287752D01*
X4210124Y-14297276D01*
X4191076Y-14297276D01*
X4172028Y-14287752D01*
X4162505Y-14278228D01*
X4152981Y-14259181D01*
X4143457Y-14221086D01*
X4143457Y-14173467D01*
X4152981Y-14135371D01*
X4162505Y-14116324D01*
X4172028Y-14106800D01*
X4191076Y-14097276D01*
X4343457Y-14278228D02*
X4352981Y-14287752D01*
X4343457Y-14297276D01*
X4333933Y-14287752D01*
X4343457Y-14278228D01*
X4343457Y-14297276D01*
X4476790Y-14097276D02*
X4495838Y-14097276D01*
X4514886Y-14106800D01*
X4524410Y-14116324D01*
X4533933Y-14135371D01*
X4543457Y-14173467D01*
X4543457Y-14221086D01*
X4533933Y-14259181D01*
X4524410Y-14278228D01*
X4514886Y-14287752D01*
X4495838Y-14297276D01*
X4476790Y-14297276D01*
X4457743Y-14287752D01*
X4448219Y-14278228D01*
X4438695Y-14259181D01*
X4429171Y-14221086D01*
X4429171Y-14173467D01*
X4438695Y-14135371D01*
X4448219Y-14116324D01*
X4457743Y-14106800D01*
X4476790Y-14097276D01*
X4714886Y-14163943D02*
X4714886Y-14297276D01*
X4667267Y-14087752D02*
X4619648Y-14230609D01*
X4743457Y-14230609D01*
X4800600Y-14097276D02*
X4933933Y-14097276D01*
X4848219Y-14297276D01*
X5000600Y-14116324D02*
X5010124Y-14106800D01*
X5029171Y-14097276D01*
X5076790Y-14097276D01*
X5095838Y-14106800D01*
X5105362Y-14116324D01*
X5114886Y-14135371D01*
X5114886Y-14154419D01*
X5105362Y-14182990D01*
X4991076Y-14297276D01*
X5114886Y-14297276D01*
X5191076Y-14097276D02*
X5191076Y-14135371D01*
X5267267Y-14097276D02*
X5267267Y-14135371D01*
X5562505Y-14373467D02*
X5552981Y-14363943D01*
X5533933Y-14335371D01*
X5524410Y-14316324D01*
X5514886Y-14287752D01*
X5505362Y-14240133D01*
X5505362Y-14202038D01*
X5514886Y-14154419D01*
X5524410Y-14125848D01*
X5533933Y-14106800D01*
X5552981Y-14078228D01*
X5562505Y-14068705D01*
X5629171Y-14116324D02*
X5638695Y-14106800D01*
X5657743Y-14097276D01*
X5705362Y-14097276D01*
X5724409Y-14106800D01*
X5733933Y-14116324D01*
X5743457Y-14135371D01*
X5743457Y-14154419D01*
X5733933Y-14182990D01*
X5619648Y-14297276D01*
X5743457Y-14297276D01*
X5981552Y-14297276D02*
X5981552Y-14097276D01*
X6067267Y-14297276D02*
X6067267Y-14192514D01*
X6057743Y-14173467D01*
X6038695Y-14163943D01*
X6010124Y-14163943D01*
X5991076Y-14173467D01*
X5981552Y-14182990D01*
X6191076Y-14297276D02*
X6172028Y-14287752D01*
X6162505Y-14278228D01*
X6152981Y-14259181D01*
X6152981Y-14202038D01*
X6162505Y-14182990D01*
X6172028Y-14173467D01*
X6191076Y-14163943D01*
X6219648Y-14163943D01*
X6238695Y-14173467D01*
X6248219Y-14182990D01*
X6257743Y-14202038D01*
X6257743Y-14259181D01*
X6248219Y-14278228D01*
X6238695Y-14287752D01*
X6219648Y-14297276D01*
X6191076Y-14297276D01*
X6372028Y-14297276D02*
X6352981Y-14287752D01*
X6343457Y-14268705D01*
X6343457Y-14097276D01*
X6524409Y-14287752D02*
X6505362Y-14297276D01*
X6467267Y-14297276D01*
X6448219Y-14287752D01*
X6438695Y-14268705D01*
X6438695Y-14192514D01*
X6448219Y-14173467D01*
X6467267Y-14163943D01*
X6505362Y-14163943D01*
X6524409Y-14173467D01*
X6533933Y-14192514D01*
X6533933Y-14211562D01*
X6438695Y-14230609D01*
X6610124Y-14287752D02*
X6629171Y-14297276D01*
X6667267Y-14297276D01*
X6686314Y-14287752D01*
X6695838Y-14268705D01*
X6695838Y-14259181D01*
X6686314Y-14240133D01*
X6667267Y-14230609D01*
X6638695Y-14230609D01*
X6619648Y-14221086D01*
X6610124Y-14202038D01*
X6610124Y-14192514D01*
X6619648Y-14173467D01*
X6638695Y-14163943D01*
X6667267Y-14163943D01*
X6686314Y-14173467D01*
X6762505Y-14373467D02*
X6772028Y-14363943D01*
X6791076Y-14335371D01*
X6800600Y-14316324D01*
X6810124Y-14287752D01*
X6819648Y-14240133D01*
X6819648Y-14202038D01*
X6810124Y-14154419D01*
X6800600Y-14125848D01*
X6791076Y-14106800D01*
X6772028Y-14078228D01*
X6762505Y-14068705D01*
D17*
X1830600Y-14390800D02*
X1990600Y-14550800D01*
X1990600Y-14390800D02*
X1830600Y-14550800D01*
X1910600Y-14390800D02*
X1910600Y-14550800D01*
X1830600Y-14470800D02*
X1990600Y-14470800D01*
D11*
X2352981Y-14561276D02*
X2238695Y-14561276D01*
X2295838Y-14561276D02*
X2295838Y-14361276D01*
X2276790Y-14389848D01*
X2257743Y-14408895D01*
X2238695Y-14418419D01*
X2438695Y-14542228D02*
X2448219Y-14551752D01*
X2438695Y-14561276D01*
X2429171Y-14551752D01*
X2438695Y-14542228D01*
X2438695Y-14561276D01*
X2619648Y-14361276D02*
X2581552Y-14361276D01*
X2562505Y-14370800D01*
X2552981Y-14380324D01*
X2533933Y-14408895D01*
X2524410Y-14446990D01*
X2524410Y-14523181D01*
X2533933Y-14542228D01*
X2543457Y-14551752D01*
X2562505Y-14561276D01*
X2600600Y-14561276D01*
X2619648Y-14551752D01*
X2629171Y-14542228D01*
X2638695Y-14523181D01*
X2638695Y-14475562D01*
X2629171Y-14456514D01*
X2619648Y-14446990D01*
X2600600Y-14437467D01*
X2562505Y-14437467D01*
X2543457Y-14446990D01*
X2533933Y-14456514D01*
X2524410Y-14475562D01*
X2762505Y-14361276D02*
X2781552Y-14361276D01*
X2800600Y-14370800D01*
X2810124Y-14380324D01*
X2819648Y-14399371D01*
X2829171Y-14437467D01*
X2829171Y-14485086D01*
X2819648Y-14523181D01*
X2810124Y-14542228D01*
X2800600Y-14551752D01*
X2781552Y-14561276D01*
X2762505Y-14561276D01*
X2743457Y-14551752D01*
X2733933Y-14542228D01*
X2724410Y-14523181D01*
X2714886Y-14485086D01*
X2714886Y-14437467D01*
X2724410Y-14399371D01*
X2733933Y-14380324D01*
X2743457Y-14370800D01*
X2762505Y-14361276D01*
X2952981Y-14361276D02*
X2972028Y-14361276D01*
X2991076Y-14370800D01*
X3000600Y-14380324D01*
X3010124Y-14399371D01*
X3019648Y-14437467D01*
X3019648Y-14485086D01*
X3010124Y-14523181D01*
X3000600Y-14542228D01*
X2991076Y-14551752D01*
X2972028Y-14561276D01*
X2952981Y-14561276D01*
X2933933Y-14551752D01*
X2924409Y-14542228D01*
X2914886Y-14523181D01*
X2905362Y-14485086D01*
X2905362Y-14437467D01*
X2914886Y-14399371D01*
X2924409Y-14380324D01*
X2933933Y-14370800D01*
X2952981Y-14361276D01*
X3105362Y-14561276D02*
X3105362Y-14427943D01*
X3105362Y-14446990D02*
X3114886Y-14437467D01*
X3133933Y-14427943D01*
X3162505Y-14427943D01*
X3181552Y-14437467D01*
X3191076Y-14456514D01*
X3191076Y-14561276D01*
X3191076Y-14456514D02*
X3200600Y-14437467D01*
X3219648Y-14427943D01*
X3248219Y-14427943D01*
X3267267Y-14437467D01*
X3276790Y-14456514D01*
X3276790Y-14561276D01*
X3372028Y-14561276D02*
X3372028Y-14427943D01*
X3372028Y-14446990D02*
X3381552Y-14437467D01*
X3400600Y-14427943D01*
X3429171Y-14427943D01*
X3448219Y-14437467D01*
X3457743Y-14456514D01*
X3457743Y-14561276D01*
X3457743Y-14456514D02*
X3467267Y-14437467D01*
X3486314Y-14427943D01*
X3514886Y-14427943D01*
X3533933Y-14437467D01*
X3543457Y-14456514D01*
X3543457Y-14561276D01*
X3933933Y-14351752D02*
X3762505Y-14608895D01*
X4191076Y-14361276D02*
X4210124Y-14361276D01*
X4229171Y-14370800D01*
X4238695Y-14380324D01*
X4248219Y-14399371D01*
X4257743Y-14437467D01*
X4257743Y-14485086D01*
X4248219Y-14523181D01*
X4238695Y-14542228D01*
X4229171Y-14551752D01*
X4210124Y-14561276D01*
X4191076Y-14561276D01*
X4172028Y-14551752D01*
X4162505Y-14542228D01*
X4152981Y-14523181D01*
X4143457Y-14485086D01*
X4143457Y-14437467D01*
X4152981Y-14399371D01*
X4162505Y-14380324D01*
X4172028Y-14370800D01*
X4191076Y-14361276D01*
X4343457Y-14542228D02*
X4352981Y-14551752D01*
X4343457Y-14561276D01*
X4333933Y-14551752D01*
X4343457Y-14542228D01*
X4343457Y-14561276D01*
X4476790Y-14361276D02*
X4495838Y-14361276D01*
X4514886Y-14370800D01*
X4524410Y-14380324D01*
X4533933Y-14399371D01*
X4543457Y-14437467D01*
X4543457Y-14485086D01*
X4533933Y-14523181D01*
X4524410Y-14542228D01*
X4514886Y-14551752D01*
X4495838Y-14561276D01*
X4476790Y-14561276D01*
X4457743Y-14551752D01*
X4448219Y-14542228D01*
X4438695Y-14523181D01*
X4429171Y-14485086D01*
X4429171Y-14437467D01*
X4438695Y-14399371D01*
X4448219Y-14380324D01*
X4457743Y-14370800D01*
X4476790Y-14361276D01*
X4714886Y-14361276D02*
X4676790Y-14361276D01*
X4657743Y-14370800D01*
X4648219Y-14380324D01*
X4629171Y-14408895D01*
X4619648Y-14446990D01*
X4619648Y-14523181D01*
X4629171Y-14542228D01*
X4638695Y-14551752D01*
X4657743Y-14561276D01*
X4695838Y-14561276D01*
X4714886Y-14551752D01*
X4724410Y-14542228D01*
X4733933Y-14523181D01*
X4733933Y-14475562D01*
X4724410Y-14456514D01*
X4714886Y-14446990D01*
X4695838Y-14437467D01*
X4657743Y-14437467D01*
X4638695Y-14446990D01*
X4629171Y-14456514D01*
X4619648Y-14475562D01*
X4800600Y-14361276D02*
X4924410Y-14361276D01*
X4857743Y-14437467D01*
X4886314Y-14437467D01*
X4905362Y-14446990D01*
X4914886Y-14456514D01*
X4924410Y-14475562D01*
X4924410Y-14523181D01*
X4914886Y-14542228D01*
X4905362Y-14551752D01*
X4886314Y-14561276D01*
X4829171Y-14561276D01*
X4810124Y-14551752D01*
X4800600Y-14542228D01*
X5048219Y-14361276D02*
X5067267Y-14361276D01*
X5086314Y-14370800D01*
X5095838Y-14380324D01*
X5105362Y-14399371D01*
X5114886Y-14437467D01*
X5114886Y-14485086D01*
X5105362Y-14523181D01*
X5095838Y-14542228D01*
X5086314Y-14551752D01*
X5067267Y-14561276D01*
X5048219Y-14561276D01*
X5029171Y-14551752D01*
X5019648Y-14542228D01*
X5010124Y-14523181D01*
X5000600Y-14485086D01*
X5000600Y-14437467D01*
X5010124Y-14399371D01*
X5019648Y-14380324D01*
X5029171Y-14370800D01*
X5048219Y-14361276D01*
X5191076Y-14361276D02*
X5191076Y-14399371D01*
X5267267Y-14361276D02*
X5267267Y-14399371D01*
X5562505Y-14637467D02*
X5552981Y-14627943D01*
X5533933Y-14599371D01*
X5524410Y-14580324D01*
X5514886Y-14551752D01*
X5505362Y-14504133D01*
X5505362Y-14466038D01*
X5514886Y-14418419D01*
X5524410Y-14389848D01*
X5533933Y-14370800D01*
X5552981Y-14342228D01*
X5562505Y-14332705D01*
X5743457Y-14561276D02*
X5629171Y-14561276D01*
X5686314Y-14561276D02*
X5686314Y-14361276D01*
X5667267Y-14389848D01*
X5648219Y-14408895D01*
X5629171Y-14418419D01*
X5981552Y-14561276D02*
X5981552Y-14361276D01*
X6067267Y-14561276D02*
X6067267Y-14456514D01*
X6057743Y-14437467D01*
X6038695Y-14427943D01*
X6010124Y-14427943D01*
X5991076Y-14437467D01*
X5981552Y-14446990D01*
X6191076Y-14561276D02*
X6172028Y-14551752D01*
X6162505Y-14542228D01*
X6152981Y-14523181D01*
X6152981Y-14466038D01*
X6162505Y-14446990D01*
X6172028Y-14437467D01*
X6191076Y-14427943D01*
X6219648Y-14427943D01*
X6238695Y-14437467D01*
X6248219Y-14446990D01*
X6257743Y-14466038D01*
X6257743Y-14523181D01*
X6248219Y-14542228D01*
X6238695Y-14551752D01*
X6219648Y-14561276D01*
X6191076Y-14561276D01*
X6372028Y-14561276D02*
X6352981Y-14551752D01*
X6343457Y-14532705D01*
X6343457Y-14361276D01*
X6524409Y-14551752D02*
X6505362Y-14561276D01*
X6467267Y-14561276D01*
X6448219Y-14551752D01*
X6438695Y-14532705D01*
X6438695Y-14456514D01*
X6448219Y-14437467D01*
X6467267Y-14427943D01*
X6505362Y-14427943D01*
X6524409Y-14437467D01*
X6533933Y-14456514D01*
X6533933Y-14475562D01*
X6438695Y-14494609D01*
X6600600Y-14637467D02*
X6610124Y-14627943D01*
X6629171Y-14599371D01*
X6638695Y-14580324D01*
X6648219Y-14551752D01*
X6657743Y-14504133D01*
X6657743Y-14466038D01*
X6648219Y-14418419D01*
X6638695Y-14389848D01*
X6629171Y-14370800D01*
X6610124Y-14342228D01*
X6600600Y-14332705D01*
X1790600Y-14650800D02*
X1990600Y-14850800D01*
X1990600Y-14650800D02*
X1790600Y-14850800D01*
X1961311Y-14821511D02*
X1961311Y-14680089D01*
X1819889Y-14680089D01*
X1819889Y-14821511D01*
X1961311Y-14821511D01*
X2238695Y-14660324D02*
X2248219Y-14650800D01*
X2267267Y-14641276D01*
X2314886Y-14641276D01*
X2333933Y-14650800D01*
X2343457Y-14660324D01*
X2352981Y-14679371D01*
X2352981Y-14698419D01*
X2343457Y-14726990D01*
X2229171Y-14841276D01*
X2352981Y-14841276D01*
X2438695Y-14822228D02*
X2448219Y-14831752D01*
X2438695Y-14841276D01*
X2429171Y-14831752D01*
X2438695Y-14822228D01*
X2438695Y-14841276D01*
X2524410Y-14660324D02*
X2533933Y-14650800D01*
X2552981Y-14641276D01*
X2600600Y-14641276D01*
X2619648Y-14650800D01*
X2629171Y-14660324D01*
X2638695Y-14679371D01*
X2638695Y-14698419D01*
X2629171Y-14726990D01*
X2514886Y-14841276D01*
X2638695Y-14841276D01*
X2762505Y-14641276D02*
X2781552Y-14641276D01*
X2800600Y-14650800D01*
X2810124Y-14660324D01*
X2819648Y-14679371D01*
X2829171Y-14717467D01*
X2829171Y-14765086D01*
X2819648Y-14803181D01*
X2810124Y-14822228D01*
X2800600Y-14831752D01*
X2781552Y-14841276D01*
X2762505Y-14841276D01*
X2743457Y-14831752D01*
X2733933Y-14822228D01*
X2724410Y-14803181D01*
X2714886Y-14765086D01*
X2714886Y-14717467D01*
X2724410Y-14679371D01*
X2733933Y-14660324D01*
X2743457Y-14650800D01*
X2762505Y-14641276D01*
X2952981Y-14641276D02*
X2972028Y-14641276D01*
X2991076Y-14650800D01*
X3000600Y-14660324D01*
X3010124Y-14679371D01*
X3019648Y-14717467D01*
X3019648Y-14765086D01*
X3010124Y-14803181D01*
X3000600Y-14822228D01*
X2991076Y-14831752D01*
X2972028Y-14841276D01*
X2952981Y-14841276D01*
X2933933Y-14831752D01*
X2924409Y-14822228D01*
X2914886Y-14803181D01*
X2905362Y-14765086D01*
X2905362Y-14717467D01*
X2914886Y-14679371D01*
X2924409Y-14660324D01*
X2933933Y-14650800D01*
X2952981Y-14641276D01*
X3105362Y-14841276D02*
X3105362Y-14707943D01*
X3105362Y-14726990D02*
X3114886Y-14717467D01*
X3133933Y-14707943D01*
X3162505Y-14707943D01*
X3181552Y-14717467D01*
X3191076Y-14736514D01*
X3191076Y-14841276D01*
X3191076Y-14736514D02*
X3200600Y-14717467D01*
X3219648Y-14707943D01*
X3248219Y-14707943D01*
X3267267Y-14717467D01*
X3276790Y-14736514D01*
X3276790Y-14841276D01*
X3372028Y-14841276D02*
X3372028Y-14707943D01*
X3372028Y-14726990D02*
X3381552Y-14717467D01*
X3400600Y-14707943D01*
X3429171Y-14707943D01*
X3448219Y-14717467D01*
X3457743Y-14736514D01*
X3457743Y-14841276D01*
X3457743Y-14736514D02*
X3467267Y-14717467D01*
X3486314Y-14707943D01*
X3514886Y-14707943D01*
X3533933Y-14717467D01*
X3543457Y-14736514D01*
X3543457Y-14841276D01*
X3933933Y-14631752D02*
X3762505Y-14888895D01*
X4191076Y-14641276D02*
X4210124Y-14641276D01*
X4229171Y-14650800D01*
X4238695Y-14660324D01*
X4248219Y-14679371D01*
X4257743Y-14717467D01*
X4257743Y-14765086D01*
X4248219Y-14803181D01*
X4238695Y-14822228D01*
X4229171Y-14831752D01*
X4210124Y-14841276D01*
X4191076Y-14841276D01*
X4172028Y-14831752D01*
X4162505Y-14822228D01*
X4152981Y-14803181D01*
X4143457Y-14765086D01*
X4143457Y-14717467D01*
X4152981Y-14679371D01*
X4162505Y-14660324D01*
X4172028Y-14650800D01*
X4191076Y-14641276D01*
X4343457Y-14822228D02*
X4352981Y-14831752D01*
X4343457Y-14841276D01*
X4333933Y-14831752D01*
X4343457Y-14822228D01*
X4343457Y-14841276D01*
X4476790Y-14641276D02*
X4495838Y-14641276D01*
X4514886Y-14650800D01*
X4524410Y-14660324D01*
X4533933Y-14679371D01*
X4543457Y-14717467D01*
X4543457Y-14765086D01*
X4533933Y-14803181D01*
X4524410Y-14822228D01*
X4514886Y-14831752D01*
X4495838Y-14841276D01*
X4476790Y-14841276D01*
X4457743Y-14831752D01*
X4448219Y-14822228D01*
X4438695Y-14803181D01*
X4429171Y-14765086D01*
X4429171Y-14717467D01*
X4438695Y-14679371D01*
X4448219Y-14660324D01*
X4457743Y-14650800D01*
X4476790Y-14641276D01*
X4657743Y-14726990D02*
X4638695Y-14717467D01*
X4629171Y-14707943D01*
X4619648Y-14688895D01*
X4619648Y-14679371D01*
X4629171Y-14660324D01*
X4638695Y-14650800D01*
X4657743Y-14641276D01*
X4695838Y-14641276D01*
X4714886Y-14650800D01*
X4724410Y-14660324D01*
X4733933Y-14679371D01*
X4733933Y-14688895D01*
X4724410Y-14707943D01*
X4714886Y-14717467D01*
X4695838Y-14726990D01*
X4657743Y-14726990D01*
X4638695Y-14736514D01*
X4629171Y-14746038D01*
X4619648Y-14765086D01*
X4619648Y-14803181D01*
X4629171Y-14822228D01*
X4638695Y-14831752D01*
X4657743Y-14841276D01*
X4695838Y-14841276D01*
X4714886Y-14831752D01*
X4724410Y-14822228D01*
X4733933Y-14803181D01*
X4733933Y-14765086D01*
X4724410Y-14746038D01*
X4714886Y-14736514D01*
X4695838Y-14726990D01*
X4905362Y-14641276D02*
X4867267Y-14641276D01*
X4848219Y-14650800D01*
X4838695Y-14660324D01*
X4819648Y-14688895D01*
X4810124Y-14726990D01*
X4810124Y-14803181D01*
X4819648Y-14822228D01*
X4829171Y-14831752D01*
X4848219Y-14841276D01*
X4886314Y-14841276D01*
X4905362Y-14831752D01*
X4914886Y-14822228D01*
X4924410Y-14803181D01*
X4924410Y-14755562D01*
X4914886Y-14736514D01*
X4905362Y-14726990D01*
X4886314Y-14717467D01*
X4848219Y-14717467D01*
X4829171Y-14726990D01*
X4819648Y-14736514D01*
X4810124Y-14755562D01*
X5095838Y-14641276D02*
X5057743Y-14641276D01*
X5038695Y-14650800D01*
X5029171Y-14660324D01*
X5010124Y-14688895D01*
X5000600Y-14726990D01*
X5000600Y-14803181D01*
X5010124Y-14822228D01*
X5019648Y-14831752D01*
X5038695Y-14841276D01*
X5076790Y-14841276D01*
X5095838Y-14831752D01*
X5105362Y-14822228D01*
X5114886Y-14803181D01*
X5114886Y-14755562D01*
X5105362Y-14736514D01*
X5095838Y-14726990D01*
X5076790Y-14717467D01*
X5038695Y-14717467D01*
X5019648Y-14726990D01*
X5010124Y-14736514D01*
X5000600Y-14755562D01*
X5191076Y-14641276D02*
X5191076Y-14679371D01*
X5267267Y-14641276D02*
X5267267Y-14679371D01*
X5562505Y-14917467D02*
X5552981Y-14907943D01*
X5533933Y-14879371D01*
X5524410Y-14860324D01*
X5514886Y-14831752D01*
X5505362Y-14784133D01*
X5505362Y-14746038D01*
X5514886Y-14698419D01*
X5524410Y-14669848D01*
X5533933Y-14650800D01*
X5552981Y-14622228D01*
X5562505Y-14612705D01*
X5724409Y-14707943D02*
X5724409Y-14841276D01*
X5676790Y-14631752D02*
X5629171Y-14774609D01*
X5752981Y-14774609D01*
X5981552Y-14841276D02*
X5981552Y-14641276D01*
X6067267Y-14841276D02*
X6067267Y-14736514D01*
X6057743Y-14717467D01*
X6038695Y-14707943D01*
X6010124Y-14707943D01*
X5991076Y-14717467D01*
X5981552Y-14726990D01*
X6191076Y-14841276D02*
X6172028Y-14831752D01*
X6162505Y-14822228D01*
X6152981Y-14803181D01*
X6152981Y-14746038D01*
X6162505Y-14726990D01*
X6172028Y-14717467D01*
X6191076Y-14707943D01*
X6219648Y-14707943D01*
X6238695Y-14717467D01*
X6248219Y-14726990D01*
X6257743Y-14746038D01*
X6257743Y-14803181D01*
X6248219Y-14822228D01*
X6238695Y-14831752D01*
X6219648Y-14841276D01*
X6191076Y-14841276D01*
X6372028Y-14841276D02*
X6352981Y-14831752D01*
X6343457Y-14812705D01*
X6343457Y-14641276D01*
X6524409Y-14831752D02*
X6505362Y-14841276D01*
X6467267Y-14841276D01*
X6448219Y-14831752D01*
X6438695Y-14812705D01*
X6438695Y-14736514D01*
X6448219Y-14717467D01*
X6467267Y-14707943D01*
X6505362Y-14707943D01*
X6524409Y-14717467D01*
X6533933Y-14736514D01*
X6533933Y-14755562D01*
X6438695Y-14774609D01*
X6610124Y-14831752D02*
X6629171Y-14841276D01*
X6667267Y-14841276D01*
X6686314Y-14831752D01*
X6695838Y-14812705D01*
X6695838Y-14803181D01*
X6686314Y-14784133D01*
X6667267Y-14774609D01*
X6638695Y-14774609D01*
X6619648Y-14765086D01*
X6610124Y-14746038D01*
X6610124Y-14736514D01*
X6619648Y-14717467D01*
X6638695Y-14707943D01*
X6667267Y-14707943D01*
X6686314Y-14717467D01*
X6762505Y-14917467D02*
X6772028Y-14907943D01*
X6791076Y-14879371D01*
X6800600Y-14860324D01*
X6810124Y-14831752D01*
X6819648Y-14784133D01*
X6819648Y-14746038D01*
X6810124Y-14698419D01*
X6800600Y-14669848D01*
X6791076Y-14650800D01*
X6772028Y-14622228D01*
X6762505Y-14612705D01*
M02*
