G04 #@! TF.GenerationSoftware,KiCad,Pcbnew,(6.0.10)*
G04 #@! TF.CreationDate,2023-02-12T23:23:38+01:00*
G04 #@! TF.ProjectId,hamodule,68616d6f-6475-46c6-952e-6b696361645f,20220918.20*
G04 #@! TF.SameCoordinates,Original*
G04 #@! TF.FileFunction,Copper,L2,Bot*
G04 #@! TF.FilePolarity,Positive*
%FSLAX46Y46*%
G04 Gerber Fmt 4.6, Leading zero omitted, Abs format (unit mm)*
G04 Created by KiCad (PCBNEW (6.0.10)) date 2023-02-12 23:23:38*
%MOMM*%
%LPD*%
G01*
G04 APERTURE LIST*
G04 Aperture macros list*
%AMRoundRect*
0 Rectangle with rounded corners*
0 $1 Rounding radius*
0 $2 $3 $4 $5 $6 $7 $8 $9 X,Y pos of 4 corners*
0 Add a 4 corners polygon primitive as box body*
4,1,4,$2,$3,$4,$5,$6,$7,$8,$9,$2,$3,0*
0 Add four circle primitives for the rounded corners*
1,1,$1+$1,$2,$3*
1,1,$1+$1,$4,$5*
1,1,$1+$1,$6,$7*
1,1,$1+$1,$8,$9*
0 Add four rect primitives between the rounded corners*
20,1,$1+$1,$2,$3,$4,$5,0*
20,1,$1+$1,$4,$5,$6,$7,0*
20,1,$1+$1,$6,$7,$8,$9,0*
20,1,$1+$1,$8,$9,$2,$3,0*%
G04 Aperture macros list end*
G04 #@! TA.AperFunction,EtchedComponent*
%ADD10C,1.000000*%
G04 #@! TD*
G04 #@! TA.AperFunction,ComponentPad*
%ADD11C,1.400000*%
G04 #@! TD*
G04 #@! TA.AperFunction,ComponentPad*
%ADD12C,2.600000*%
G04 #@! TD*
G04 #@! TA.AperFunction,ComponentPad*
%ADD13R,1.700000X1.700000*%
G04 #@! TD*
G04 #@! TA.AperFunction,ComponentPad*
%ADD14O,1.700000X1.700000*%
G04 #@! TD*
G04 #@! TA.AperFunction,ComponentPad*
%ADD15R,1.000000X1.000000*%
G04 #@! TD*
G04 #@! TA.AperFunction,ConnectorPad*
%ADD16C,3.500000*%
G04 #@! TD*
G04 #@! TA.AperFunction,ComponentPad*
%ADD17R,2.500000X2.500000*%
G04 #@! TD*
G04 #@! TA.AperFunction,ComponentPad*
%ADD18C,1.000000*%
G04 #@! TD*
G04 #@! TA.AperFunction,ComponentPad*
%ADD19C,2.000000*%
G04 #@! TD*
G04 #@! TA.AperFunction,ComponentPad*
%ADD20R,0.900000X0.500000*%
G04 #@! TD*
G04 #@! TA.AperFunction,ComponentPad*
%ADD21C,2.800000*%
G04 #@! TD*
G04 #@! TA.AperFunction,ComponentPad*
%ADD22C,0.700000*%
G04 #@! TD*
G04 #@! TA.AperFunction,ComponentPad*
%ADD23C,4.400000*%
G04 #@! TD*
G04 #@! TA.AperFunction,SMDPad,CuDef*
%ADD24RoundRect,0.100000X0.130000X0.100000X-0.130000X0.100000X-0.130000X-0.100000X0.130000X-0.100000X0*%
G04 #@! TD*
G04 #@! TA.AperFunction,SMDPad,CuDef*
%ADD25C,2.500000*%
G04 #@! TD*
G04 #@! TA.AperFunction,SMDPad,CuDef*
%ADD26RoundRect,0.237500X0.300000X0.237500X-0.300000X0.237500X-0.300000X-0.237500X0.300000X-0.237500X0*%
G04 #@! TD*
G04 #@! TA.AperFunction,SMDPad,CuDef*
%ADD27RoundRect,0.250000X0.412500X0.650000X-0.412500X0.650000X-0.412500X-0.650000X0.412500X-0.650000X0*%
G04 #@! TD*
G04 #@! TA.AperFunction,Conductor*
%ADD28C,0.250000*%
G04 #@! TD*
G04 #@! TA.AperFunction,Conductor*
%ADD29C,0.600000*%
G04 #@! TD*
G04 #@! TA.AperFunction,Conductor*
%ADD30C,0.200000*%
G04 #@! TD*
G04 #@! TA.AperFunction,Conductor*
%ADD31C,0.400000*%
G04 #@! TD*
G04 #@! TA.AperFunction,Conductor*
%ADD32C,0.350000*%
G04 #@! TD*
G04 APERTURE END LIST*
D10*
X72331000Y-81648000D02*
X73331000Y-82648000D01*
X72331000Y-78648000D02*
X72331000Y-81648000D01*
X68331000Y-78648000D02*
X68331000Y-81648000D01*
X62331000Y-78648000D02*
X62331000Y-81648000D01*
X64331000Y-81648000D02*
X65331000Y-82648000D01*
X68331000Y-81648000D02*
X69331000Y-82648000D01*
X70331000Y-81648000D02*
X71331000Y-82648000D01*
X76331000Y-81648000D02*
X77331000Y-82648000D01*
X74331000Y-81648000D02*
X75331000Y-82648000D01*
X60331000Y-78648000D02*
X60331000Y-81648000D01*
X62331000Y-81648000D02*
X63331000Y-82648000D01*
X70331000Y-78648000D02*
X70331000Y-81648000D01*
X65331000Y-77648000D02*
X66331000Y-78648000D01*
X74331000Y-78648000D02*
X74331000Y-81648000D01*
X69331000Y-77648000D02*
X70331000Y-78648000D01*
X59331000Y-77648000D02*
X60331000Y-78648000D01*
X75331000Y-77648000D02*
X76331000Y-78648000D01*
X66331000Y-81648000D02*
X67331000Y-82648000D01*
X73331000Y-77648000D02*
X74331000Y-78648000D01*
X71331000Y-77648000D02*
X72331000Y-78648000D01*
X76331000Y-78648000D02*
X76331000Y-81648000D01*
X61331000Y-77648000D02*
X62331000Y-78648000D01*
X66331000Y-78648000D02*
X66331000Y-81648000D01*
X64331000Y-78648000D02*
X64331000Y-81648000D01*
X60331000Y-81648000D02*
X61331000Y-82648000D01*
X63331000Y-77648000D02*
X64331000Y-78648000D01*
X67331000Y-77648000D02*
X68331000Y-78648000D01*
D11*
X74549000Y-40418000D03*
X74549000Y-42418000D03*
X46609000Y-40291000D03*
X46609000Y-42291000D03*
X74549000Y-35846000D03*
X74549000Y-37846000D03*
X46609000Y-35957000D03*
X46609000Y-37957000D03*
D12*
X56642000Y-27051000D03*
D13*
X116078000Y-109474000D03*
D14*
X116078000Y-112014000D03*
X116078000Y-114554000D03*
X116078000Y-117094000D03*
X116078000Y-119634000D03*
D13*
X24892000Y-108204000D03*
D14*
X24892000Y-110744000D03*
X24892000Y-113284000D03*
X24892000Y-115824000D03*
X24892000Y-118364000D03*
D13*
X110765000Y-102529000D03*
D14*
X108225000Y-102529000D03*
X105685000Y-102529000D03*
X103145000Y-102529000D03*
X100605000Y-102529000D03*
D13*
X110668000Y-25669000D03*
D14*
X108128000Y-25669000D03*
X105588000Y-25669000D03*
X103048000Y-25669000D03*
X100508000Y-25669000D03*
D15*
X68431000Y-25548000D03*
D16*
X45531000Y-26948000D03*
D12*
X45531000Y-26948000D03*
D17*
X23631000Y-26648000D03*
D13*
X28007000Y-32523000D03*
D14*
X28007000Y-35063000D03*
X28007000Y-37603000D03*
X28007000Y-40143000D03*
X28007000Y-42683000D03*
D17*
X94231000Y-26248000D03*
D15*
X79431000Y-25448000D03*
D13*
X95595000Y-42494000D03*
D14*
X95595000Y-39954000D03*
X95595000Y-37414000D03*
X95595000Y-34874000D03*
X95595000Y-32334000D03*
D18*
X73331000Y-82648000D03*
X59331000Y-77648000D03*
X71331000Y-77648000D03*
X77331000Y-82648000D03*
X61331000Y-82648000D03*
X75331000Y-82648000D03*
X77331000Y-77648000D03*
X73331000Y-77648000D03*
X69331000Y-77648000D03*
X65331000Y-82648000D03*
X67331000Y-77648000D03*
X65331000Y-77648000D03*
X69331000Y-82648000D03*
X63331000Y-77648000D03*
X67331000Y-82648000D03*
X71331000Y-82648000D03*
X75331000Y-77648000D03*
X63331000Y-82648000D03*
X61331000Y-77648000D03*
D19*
X75531000Y-29248000D03*
D15*
X74031000Y-25548000D03*
D20*
X42531000Y-82548000D03*
D11*
X70631000Y-28148000D03*
X68631000Y-28148000D03*
D12*
X50631000Y-27048000D03*
D21*
X79731000Y-29348000D03*
D22*
X61952274Y-25630274D03*
X61952274Y-27963726D03*
X61469000Y-26797000D03*
D23*
X63119000Y-26797000D03*
D22*
X63119000Y-25147000D03*
X63119000Y-28447000D03*
X64285726Y-27963726D03*
X64769000Y-26797000D03*
X64285726Y-25630274D03*
D24*
X81079000Y-51273000D03*
X80439000Y-51273000D03*
D25*
X60779000Y-56973000D03*
D24*
X81079000Y-52873000D03*
X80439000Y-52873000D03*
X50419000Y-53773000D03*
X49779000Y-53773000D03*
D25*
X51779000Y-50573000D03*
D26*
X42196500Y-60473000D03*
X40471500Y-60473000D03*
D25*
X57216500Y-66073000D03*
D27*
X91379000Y-73873000D03*
X88254000Y-73873000D03*
D25*
X100416500Y-64673000D03*
D27*
X82459000Y-69673000D03*
X79334000Y-69673000D03*
D26*
X81796500Y-59073000D03*
X80071500Y-59073000D03*
D25*
X91379000Y-49173000D03*
X87779000Y-49173000D03*
X82696500Y-64573000D03*
X60579000Y-50673000D03*
X87979000Y-55473000D03*
D26*
X99479000Y-57973000D03*
X97754000Y-57973000D03*
D25*
X96579000Y-49273000D03*
D24*
X98819000Y-52473000D03*
X98179000Y-52473000D03*
X41479000Y-54273000D03*
X40839000Y-54273000D03*
X81099000Y-52373000D03*
X80459000Y-52373000D03*
D27*
X100179000Y-73973000D03*
X97054000Y-73973000D03*
D26*
X51079000Y-59273000D03*
X49354000Y-59273000D03*
D27*
X42859000Y-75273000D03*
X39734000Y-75273000D03*
D26*
X51116500Y-60473000D03*
X49391500Y-60473000D03*
D25*
X39459000Y-56873000D03*
D27*
X82459000Y-73873000D03*
X79334000Y-73873000D03*
D24*
X59219000Y-53873000D03*
X58579000Y-53873000D03*
D27*
X60579000Y-75373000D03*
X57454000Y-75373000D03*
X60579000Y-71173000D03*
X57454000Y-71173000D03*
D24*
X41479000Y-52673000D03*
X40839000Y-52673000D03*
D27*
X60579000Y-73273000D03*
X57454000Y-73273000D03*
D24*
X50399000Y-52673000D03*
X49759000Y-52673000D03*
D26*
X42196500Y-62673000D03*
X40471500Y-62673000D03*
D27*
X91379000Y-67473000D03*
X88254000Y-67473000D03*
D25*
X79059000Y-55473000D03*
D26*
X99516500Y-60273000D03*
X97791500Y-60273000D03*
D25*
X88016500Y-64573000D03*
X78859000Y-49173000D03*
D27*
X51779000Y-75273000D03*
X48654000Y-75273000D03*
X51779000Y-73173000D03*
X48654000Y-73173000D03*
D24*
X59199000Y-53373000D03*
X58559000Y-53373000D03*
D25*
X91616500Y-64573000D03*
X60816500Y-66073000D03*
D26*
X90679000Y-57873000D03*
X88954000Y-57873000D03*
D25*
X43059000Y-56873000D03*
X100379000Y-55573000D03*
X79096500Y-64573000D03*
D24*
X89999000Y-51873000D03*
X89359000Y-51873000D03*
D27*
X42859000Y-73173000D03*
X39734000Y-73173000D03*
D25*
X91579000Y-55473000D03*
D24*
X98799000Y-52973000D03*
X98159000Y-52973000D03*
D27*
X82459000Y-67473000D03*
X79334000Y-67473000D03*
X42859000Y-68873000D03*
X39734000Y-68873000D03*
X91379000Y-69673000D03*
X88254000Y-69673000D03*
D24*
X90019000Y-52373000D03*
X89379000Y-52373000D03*
D27*
X91379000Y-71773000D03*
X88254000Y-71773000D03*
D25*
X48416500Y-65973000D03*
X48379000Y-56873000D03*
D24*
X81079000Y-51873000D03*
X80439000Y-51873000D03*
D25*
X82459000Y-49173000D03*
D26*
X42196500Y-61573000D03*
X40471500Y-61573000D03*
D25*
X48179000Y-50573000D03*
D24*
X98799000Y-51373000D03*
X98159000Y-51373000D03*
D27*
X51779000Y-68873000D03*
X48654000Y-68873000D03*
D26*
X59916500Y-60573000D03*
X58191500Y-60573000D03*
D27*
X60579000Y-68973000D03*
X57454000Y-68973000D03*
D24*
X50399000Y-54273000D03*
X49759000Y-54273000D03*
D27*
X100179000Y-67573000D03*
X97054000Y-67573000D03*
D25*
X96816500Y-64673000D03*
D27*
X100179000Y-71873000D03*
X97054000Y-71873000D03*
D25*
X42859000Y-50573000D03*
D26*
X90716500Y-61273000D03*
X88991500Y-61273000D03*
X90716500Y-59073000D03*
X88991500Y-59073000D03*
D24*
X89999000Y-51273000D03*
X89359000Y-51273000D03*
X41499000Y-53773000D03*
X40859000Y-53773000D03*
X98799000Y-51973000D03*
X98159000Y-51973000D03*
D27*
X51779000Y-71073000D03*
X48654000Y-71073000D03*
D26*
X81796500Y-61273000D03*
X80071500Y-61273000D03*
D25*
X56979000Y-50673000D03*
X100179000Y-49273000D03*
D24*
X41479000Y-53273000D03*
X40839000Y-53273000D03*
D27*
X82459000Y-71773000D03*
X79334000Y-71773000D03*
D25*
X39496500Y-65973000D03*
D26*
X51116500Y-62673000D03*
X49391500Y-62673000D03*
D24*
X59199000Y-54373000D03*
X58559000Y-54373000D03*
D27*
X42859000Y-71073000D03*
X39734000Y-71073000D03*
D26*
X42159000Y-59273000D03*
X40434000Y-59273000D03*
D25*
X82659000Y-55473000D03*
D26*
X59879000Y-59373000D03*
X58154000Y-59373000D03*
D25*
X43096500Y-65973000D03*
D26*
X99516500Y-59173000D03*
X97791500Y-59173000D03*
X90716500Y-60173000D03*
X88991500Y-60173000D03*
D24*
X89999000Y-52873000D03*
X89359000Y-52873000D03*
D26*
X81796500Y-60173000D03*
X80071500Y-60173000D03*
X59916500Y-62773000D03*
X58191500Y-62773000D03*
X59916500Y-61673000D03*
X58191500Y-61673000D03*
D24*
X59199000Y-52773000D03*
X58559000Y-52773000D03*
D25*
X52016500Y-65973000D03*
D26*
X51116500Y-61573000D03*
X49391500Y-61573000D03*
D25*
X39259000Y-50573000D03*
D26*
X99516500Y-61373000D03*
X97791500Y-61373000D03*
D25*
X96779000Y-55573000D03*
D27*
X100179000Y-69773000D03*
X97054000Y-69773000D03*
D25*
X51979000Y-56873000D03*
X57179000Y-56973000D03*
D24*
X50399000Y-53273000D03*
X49759000Y-53273000D03*
D26*
X81759000Y-57873000D03*
X80034000Y-57873000D03*
D28*
X54737000Y-29972000D02*
X55178942Y-29530058D01*
D29*
X54112000Y-30230884D02*
X54112000Y-29581000D01*
X56096884Y-31698000D02*
X55579116Y-31698000D01*
X54112000Y-29581000D02*
X56642000Y-27051000D01*
X56463000Y-31331884D02*
X56096884Y-31698000D01*
X55579116Y-31698000D02*
X54112000Y-30230884D01*
X56463000Y-30814116D02*
X56463000Y-31331884D01*
X55178942Y-29530058D02*
X56463000Y-30814116D01*
D28*
X55838000Y-31073000D02*
X54737000Y-29972000D01*
X101859000Y-31073000D02*
X55838000Y-31073000D01*
X104859000Y-28073000D02*
X101859000Y-31073000D01*
D29*
X45531000Y-26948000D02*
X50531000Y-26948000D01*
X50531000Y-26948000D02*
X50631000Y-27048000D01*
X34355000Y-28702000D02*
X34259000Y-28606000D01*
X43777000Y-28702000D02*
X34355000Y-28702000D01*
X45531000Y-26948000D02*
X43777000Y-28702000D01*
D28*
X34259000Y-28606000D02*
X34259000Y-103073000D01*
X34259000Y-28473000D02*
X34259000Y-28606000D01*
X103886000Y-48046000D02*
X104477500Y-47454500D01*
X103886000Y-99568000D02*
X103886000Y-48046000D01*
X103632000Y-99822000D02*
X103886000Y-99568000D01*
X102459000Y-99665000D02*
X102616000Y-99822000D01*
X100359000Y-77573000D02*
X102459000Y-77573000D01*
X102459000Y-77573000D02*
X102459000Y-99665000D01*
X102616000Y-99822000D02*
X103632000Y-99822000D01*
X100359000Y-99920000D02*
X100359000Y-77573000D01*
X98298000Y-100457000D02*
X99822000Y-100457000D01*
X98459000Y-77673000D02*
X98298000Y-77834000D01*
X98359000Y-77573000D02*
X98459000Y-77673000D01*
X96659000Y-77573000D02*
X98359000Y-77573000D01*
X96959000Y-77873000D02*
X96659000Y-77573000D01*
X96959000Y-103573000D02*
X96959000Y-77873000D01*
X96359000Y-104173000D02*
X96959000Y-103573000D01*
X96059000Y-104173000D02*
X96359000Y-104173000D01*
X99822000Y-100457000D02*
X100359000Y-99920000D01*
X95459000Y-103573000D02*
X96059000Y-104173000D01*
X98298000Y-77834000D02*
X98298000Y-100457000D01*
X95459000Y-77573000D02*
X95459000Y-103573000D01*
X94459000Y-77573000D02*
X95459000Y-77573000D01*
X94059000Y-77973000D02*
X94459000Y-77573000D01*
X94059000Y-104273000D02*
X94059000Y-77973000D01*
X93559000Y-104273000D02*
X94059000Y-104273000D01*
X92759000Y-103473000D02*
X93559000Y-104273000D01*
X92759000Y-77773000D02*
X92759000Y-103473000D01*
X92459000Y-77473000D02*
X92759000Y-77773000D01*
X91859000Y-77473000D02*
X92459000Y-77473000D01*
X91259000Y-78073000D02*
X91859000Y-77473000D01*
X91259000Y-102673000D02*
X91259000Y-78073000D01*
X68659000Y-104273000D02*
X89659000Y-104273000D01*
X65859000Y-101473000D02*
X68659000Y-104273000D01*
X65859000Y-87573000D02*
X65859000Y-101473000D01*
X89659000Y-104273000D02*
X91259000Y-102673000D01*
X65559000Y-87273000D02*
X65859000Y-87573000D01*
X62459000Y-87273000D02*
X65559000Y-87273000D01*
X105373000Y-100240000D02*
X105159000Y-100454000D01*
X107659000Y-100240000D02*
X105373000Y-100240000D01*
X105159000Y-47773000D02*
X105159000Y-100454000D01*
X107659000Y-100240000D02*
X107659000Y-51273000D01*
X104477500Y-39961500D02*
X104454500Y-39938500D01*
X104477500Y-47454500D02*
X104477500Y-39961500D01*
D30*
X104763500Y-39938500D02*
X104454500Y-39938500D01*
D28*
X104477500Y-47454500D02*
X104659000Y-47273000D01*
D30*
X114808000Y-108204000D02*
X116078000Y-109474000D01*
X24892000Y-108204000D02*
X114808000Y-108204000D01*
D29*
X114808000Y-118364000D02*
X116078000Y-119634000D01*
X24892000Y-118364000D02*
X114808000Y-118364000D01*
D31*
X114808000Y-115824000D02*
X116078000Y-117094000D01*
X24892000Y-115824000D02*
X114808000Y-115824000D01*
D32*
X114808000Y-113284000D02*
X116078000Y-114554000D01*
X24892000Y-113284000D02*
X114808000Y-113284000D01*
D28*
X114808000Y-110744000D02*
X116078000Y-112014000D01*
X24892000Y-110744000D02*
X114808000Y-110744000D01*
X50399000Y-52673000D02*
X50399000Y-54273000D01*
X59199000Y-52773000D02*
X59199000Y-54373000D01*
X35659000Y-30973000D02*
X36159000Y-30973000D01*
D29*
X40471500Y-59310500D02*
X40434000Y-59273000D01*
D28*
X42859000Y-75273000D02*
X43096500Y-75035500D01*
D29*
X51079000Y-59273000D02*
X51079000Y-62635500D01*
X81759000Y-57873000D02*
X81759000Y-61235500D01*
D28*
X39259000Y-77573000D02*
X40059000Y-78373000D01*
X43459000Y-78173000D02*
X43559000Y-78273000D01*
D29*
X58191500Y-62773000D02*
X58191500Y-59410500D01*
D28*
X43559000Y-103673000D02*
X43459000Y-103773000D01*
X39496500Y-75035500D02*
X39734000Y-75273000D01*
X58154000Y-57948000D02*
X57179000Y-56973000D01*
X88954000Y-57873000D02*
X88954000Y-56448000D01*
X89999000Y-50553000D02*
X91379000Y-49173000D01*
X87779000Y-49173000D02*
X89359000Y-50753000D01*
X43459000Y-103773000D02*
X45059000Y-103773000D01*
X58559000Y-52773000D02*
X58559000Y-54373000D01*
X35559000Y-31073000D02*
X35659000Y-30973000D01*
X82459000Y-73873000D02*
X82696500Y-73635500D01*
X43096500Y-75035500D02*
X43096500Y-65973000D01*
X48659000Y-103573000D02*
X48659000Y-77973000D01*
X47159000Y-78373000D02*
X47159000Y-103573000D01*
X88016500Y-64573000D02*
X88016500Y-73635500D01*
X98159000Y-50853000D02*
X98159000Y-51373000D01*
X59199000Y-52773000D02*
X59199000Y-52053000D01*
X50559000Y-79073000D02*
X50559000Y-102473000D01*
X88016500Y-73635500D02*
X88254000Y-73873000D01*
X80439000Y-51273000D02*
X80439000Y-52873000D01*
X107659000Y-51273000D02*
X107859000Y-51073000D01*
D29*
X99479000Y-57973000D02*
X99479000Y-61335500D01*
D28*
X39259000Y-50573000D02*
X40839000Y-52153000D01*
X43559000Y-78273000D02*
X43559000Y-103673000D01*
D29*
X59879000Y-62735500D02*
X59916500Y-62773000D01*
D28*
X97754000Y-56548000D02*
X96779000Y-55573000D01*
D29*
X88991500Y-61273000D02*
X88991500Y-57910500D01*
D28*
X38359000Y-78473000D02*
X39259000Y-77573000D01*
X55059000Y-103373000D02*
X56159000Y-104473000D01*
X40059000Y-78373000D02*
X40059000Y-103473000D01*
X89359000Y-51273000D02*
X89359000Y-52873000D01*
X97754000Y-57973000D02*
X97754000Y-56548000D01*
X98159000Y-51373000D02*
X98159000Y-52973000D01*
X80439000Y-50753000D02*
X80439000Y-51273000D01*
X50559000Y-102473000D02*
X51059000Y-102973000D01*
X56979000Y-50673000D02*
X58559000Y-52253000D01*
X57216500Y-75135500D02*
X57454000Y-75373000D01*
X79096500Y-73635500D02*
X79334000Y-73873000D01*
X60816500Y-75135500D02*
X60816500Y-66073000D01*
X38359000Y-103473000D02*
X38359000Y-78473000D01*
X48179000Y-50573000D02*
X49759000Y-52153000D01*
X41479000Y-51953000D02*
X42859000Y-50573000D01*
X40059000Y-103473000D02*
X40259000Y-103673000D01*
X52459000Y-79173000D02*
X53859000Y-77773000D01*
X81759000Y-56373000D02*
X82659000Y-55473000D01*
X51079000Y-57773000D02*
X51979000Y-56873000D01*
X40434000Y-59273000D02*
X40434000Y-57848000D01*
D29*
X40471500Y-62673000D02*
X40471500Y-59310500D01*
D28*
X100459000Y-77673000D02*
X100359000Y-77573000D01*
X81759000Y-57873000D02*
X81759000Y-56373000D01*
X34759000Y-103573000D02*
X35159000Y-103573000D01*
X49354000Y-59273000D02*
X49354000Y-57848000D01*
X41759000Y-103673000D02*
X41759000Y-78173000D01*
X105959000Y-28073000D02*
X104859000Y-28073000D01*
X58154000Y-59373000D02*
X58154000Y-57948000D01*
D29*
X97791500Y-61373000D02*
X97791500Y-58010500D01*
D28*
X98799000Y-51373000D02*
X98799000Y-52973000D01*
X51059000Y-102973000D02*
X52159000Y-102973000D01*
X49759000Y-52673000D02*
X49759000Y-54273000D01*
X96816500Y-73735500D02*
X97054000Y-73973000D01*
X39496500Y-65973000D02*
X39496500Y-75035500D01*
X45359000Y-103473000D02*
X45359000Y-77873000D01*
X42159000Y-59273000D02*
X42159000Y-57773000D01*
X51779000Y-75273000D02*
X52016500Y-75035500D01*
D29*
X42159000Y-62635500D02*
X42196500Y-62673000D01*
D28*
X65159000Y-88173000D02*
X64259000Y-87273000D01*
X100179000Y-73973000D02*
X100416500Y-73735500D01*
X34259000Y-103073000D02*
X34759000Y-103573000D01*
X49354000Y-57848000D02*
X48379000Y-56873000D01*
X41479000Y-52673000D02*
X41479000Y-51953000D01*
X48659000Y-77973000D02*
X48559000Y-77873000D01*
X37159000Y-103673000D02*
X38159000Y-103673000D01*
X47159000Y-103573000D02*
X48659000Y-103573000D01*
X63659000Y-104473000D02*
X65159000Y-102973000D01*
X50399000Y-52673000D02*
X50399000Y-51953000D01*
X81079000Y-51273000D02*
X81079000Y-50553000D01*
X98799000Y-51373000D02*
X98799000Y-50653000D01*
D29*
X80071500Y-57910500D02*
X80034000Y-57873000D01*
D28*
X82696500Y-73635500D02*
X82696500Y-64573000D01*
X45359000Y-77873000D02*
X46659000Y-77873000D01*
X56159000Y-104473000D02*
X63659000Y-104473000D01*
X57216500Y-66073000D02*
X57216500Y-75135500D01*
X91616500Y-73635500D02*
X91616500Y-64573000D01*
X96816500Y-64673000D02*
X96816500Y-73735500D01*
X90679000Y-56373000D02*
X91579000Y-55473000D01*
D29*
X58191500Y-59410500D02*
X58154000Y-59373000D01*
D28*
X98799000Y-50653000D02*
X100179000Y-49273000D01*
X59199000Y-52053000D02*
X60579000Y-50673000D01*
X81079000Y-50553000D02*
X82459000Y-49173000D01*
X79096500Y-64573000D02*
X79096500Y-73635500D01*
X54059000Y-77773000D02*
X55059000Y-78773000D01*
X48416500Y-75035500D02*
X48654000Y-75273000D01*
X88954000Y-56448000D02*
X87979000Y-55473000D01*
X53859000Y-77773000D02*
X54059000Y-77773000D01*
X58559000Y-52253000D02*
X58559000Y-52773000D01*
X46659000Y-77873000D02*
X47159000Y-78373000D01*
X96579000Y-49273000D02*
X98159000Y-50853000D01*
X35159000Y-103573000D02*
X35559000Y-103173000D01*
X38159000Y-103673000D02*
X38359000Y-103473000D01*
X40839000Y-52153000D02*
X40839000Y-52673000D01*
D29*
X80071500Y-61273000D02*
X80071500Y-57910500D01*
X90679000Y-57873000D02*
X90679000Y-61235500D01*
D28*
X42159000Y-57773000D02*
X43059000Y-56873000D01*
X60579000Y-75373000D02*
X60816500Y-75135500D01*
D29*
X99479000Y-61335500D02*
X99516500Y-61373000D01*
X81759000Y-61235500D02*
X81796500Y-61273000D01*
D28*
X52016500Y-75035500D02*
X52016500Y-65973000D01*
X81079000Y-51273000D02*
X81079000Y-52873000D01*
X41759000Y-78173000D02*
X43459000Y-78173000D01*
X80034000Y-57873000D02*
X80034000Y-56448000D01*
X90679000Y-57873000D02*
X90679000Y-56373000D01*
D29*
X51079000Y-62635500D02*
X51116500Y-62673000D01*
X49391500Y-59310500D02*
X49354000Y-59273000D01*
D28*
X51079000Y-59273000D02*
X51079000Y-57773000D01*
X65159000Y-102973000D02*
X65159000Y-88173000D01*
D29*
X42159000Y-59273000D02*
X42159000Y-62635500D01*
D28*
X40259000Y-103673000D02*
X41759000Y-103673000D01*
X36859000Y-103373000D02*
X37159000Y-103673000D01*
D29*
X59879000Y-59373000D02*
X59879000Y-62735500D01*
D28*
X40434000Y-57848000D02*
X39459000Y-56873000D01*
X107859000Y-29973000D02*
X105959000Y-28073000D01*
X89999000Y-51273000D02*
X89999000Y-50553000D01*
X55059000Y-78773000D02*
X55059000Y-103373000D01*
D29*
X97791500Y-58010500D02*
X97754000Y-57973000D01*
D28*
X78859000Y-49173000D02*
X80439000Y-50753000D01*
X52459000Y-102673000D02*
X52459000Y-79173000D01*
X41479000Y-52673000D02*
X41479000Y-54273000D01*
X48559000Y-77873000D02*
X49359000Y-77873000D01*
X45059000Y-103773000D02*
X45359000Y-103473000D01*
D29*
X90679000Y-61235500D02*
X90716500Y-61273000D01*
D28*
X100416500Y-73735500D02*
X100416500Y-64673000D01*
X99479000Y-56473000D02*
X100379000Y-55573000D01*
X49759000Y-52153000D02*
X49759000Y-52673000D01*
X36159000Y-30973000D02*
X36859000Y-31673000D01*
D29*
X49391500Y-62673000D02*
X49391500Y-59310500D01*
D28*
X89999000Y-51273000D02*
X89999000Y-52873000D01*
X107859000Y-51073000D02*
X107859000Y-29973000D01*
X48416500Y-65973000D02*
X48416500Y-75035500D01*
X52159000Y-102973000D02*
X52459000Y-102673000D01*
X104659000Y-47273000D02*
X105159000Y-47773000D01*
X80034000Y-56448000D02*
X79059000Y-55473000D01*
X35559000Y-103173000D02*
X35559000Y-31073000D01*
X91379000Y-73873000D02*
X91616500Y-73635500D01*
X36859000Y-31673000D02*
X36859000Y-103373000D01*
D29*
X88991500Y-57910500D02*
X88954000Y-57873000D01*
D28*
X40839000Y-52673000D02*
X40839000Y-54273000D01*
X59879000Y-59373000D02*
X59879000Y-57873000D01*
X59879000Y-57873000D02*
X60779000Y-56973000D01*
X89359000Y-50753000D02*
X89359000Y-51273000D01*
X99479000Y-57973000D02*
X99479000Y-56473000D01*
X50399000Y-51953000D02*
X51779000Y-50573000D01*
X49359000Y-77873000D02*
X50559000Y-79073000D01*
D30*
X46202500Y-39938500D02*
X46183500Y-39957500D01*
X104953000Y-40128000D02*
X104763500Y-39938500D01*
X104953000Y-40509000D02*
X104953000Y-40128000D01*
M02*
