G04 #@! TF.GenerationSoftware,KiCad,Pcbnew,(6.0.10)*
G04 #@! TF.CreationDate,2023-02-12T23:23:39+01:00*
G04 #@! TF.ProjectId,hamodule,68616d6f-6475-46c6-952e-6b696361645f,20220918.20*
G04 #@! TF.SameCoordinates,Original*
G04 #@! TF.FileFunction,Profile,NP*
%FSLAX46Y46*%
G04 Gerber Fmt 4.6, Leading zero omitted, Abs format (unit mm)*
G04 Created by KiCad (PCBNEW (6.0.10)) date 2023-02-12 23:23:39*
%MOMM*%
%LPD*%
G01*
G04 APERTURE LIST*
G04 #@! TA.AperFunction,Profile*
%ADD10C,0.050000*%
G04 #@! TD*
G04 APERTURE END LIST*
D10*
X117312000Y-122443000D02*
G75*
G03*
X119852000Y-119903000I0J2540000D01*
G01*
X119852000Y-119903000D02*
X119852000Y-25348000D01*
X117312000Y-122443000D02*
X22471000Y-122443000D01*
X117312000Y-22808000D02*
X22471000Y-22808000D01*
X19931000Y-119884949D02*
X19931000Y-25348000D01*
X19931000Y-119884949D02*
G75*
G03*
X22471000Y-122443000I2558115J0D01*
G01*
X119852000Y-25348000D02*
G75*
G03*
X117312000Y-22808000I-2540000J0D01*
G01*
X60231000Y-58248000D02*
X61031000Y-58248000D01*
X61031000Y-58248000D02*
X61031000Y-73548000D01*
X61031000Y-73548000D02*
X60231000Y-73548000D01*
X60231000Y-73548000D02*
X60231000Y-58248000D01*
X57131000Y-58248000D02*
X57931000Y-58248000D01*
X57931000Y-58248000D02*
X57931000Y-73548000D01*
X57931000Y-73548000D02*
X57131000Y-73548000D01*
X57131000Y-73548000D02*
X57131000Y-58248000D01*
X61331000Y-58248000D02*
X62131000Y-58248000D01*
X62131000Y-58248000D02*
X62131000Y-73548000D01*
X62131000Y-73548000D02*
X61331000Y-73548000D01*
X61331000Y-73548000D02*
X61331000Y-58248000D01*
X62531000Y-58248000D02*
X63331000Y-58248000D01*
X63331000Y-58248000D02*
X63331000Y-73548000D01*
X63331000Y-73548000D02*
X62531000Y-73548000D01*
X62531000Y-73548000D02*
X62531000Y-58248000D01*
X22471000Y-22808000D02*
G75*
G03*
X19931000Y-25348000I0J-2540000D01*
G01*
X55931000Y-58248000D02*
X56731000Y-58248000D01*
X56731000Y-58248000D02*
X56731000Y-73548000D01*
X56731000Y-73548000D02*
X55931000Y-73548000D01*
X55931000Y-73548000D02*
X55931000Y-58248000D01*
X59231000Y-58248000D02*
X60031000Y-58248000D01*
X60031000Y-58248000D02*
X60031000Y-73548000D01*
X60031000Y-73548000D02*
X59231000Y-73548000D01*
X59231000Y-73548000D02*
X59231000Y-58248000D01*
X58231000Y-58248000D02*
X59031000Y-58248000D01*
X59031000Y-58248000D02*
X59031000Y-73548000D01*
X59031000Y-73548000D02*
X58231000Y-73548000D01*
X58231000Y-73548000D02*
X58231000Y-58248000D01*
X90397666Y-26748000D02*
G75*
G03*
X90397666Y-26748000I-1666666J0D01*
G01*
X86231000Y-26748000D02*
X91231000Y-26748000D01*
X88731000Y-24248000D02*
X88731000Y-29248000D01*
M02*
