M48
; DRILL file {KiCad (6.0.10)} date Sun Feb 12 23:23:45 2023
; FORMAT={-:-/ absolute / metric / decimal}
; #@! TF.CreationDate,2023-02-12T23:23:45+01:00
; #@! TF.GenerationSoftware,Kicad,Pcbnew,(6.0.10)
; #@! TF.FileFunction,Plated,1,2,PTH
FMAT,2
METRIC
; #@! TA.AperFunction,Plated,PTH,ComponentDrill
T1C0.300
; #@! TA.AperFunction,Plated,PTH,ComponentDrill
T2C0.400
; #@! TA.AperFunction,Plated,PTH,ComponentDrill
T3C0.500
; #@! TA.AperFunction,Plated,PTH,ComponentDrill
T4C0.700
; #@! TA.AperFunction,Plated,PTH,ComponentDrill
T5C1.000
; #@! TA.AperFunction,Plated,PTH,ComponentDrill
T6C1.200
; #@! TA.AperFunction,Plated,PTH,ComponentDrill
T7C1.600
; #@! TA.AperFunction,Plated,PTH,ComponentDrill
T8C2.200
%
G90
G05
T1
X42.531Y-82.548
T2
X59.331Y-77.648
X61.331Y-77.648
X61.331Y-82.648
X61.469Y-26.797
X61.952Y-25.63
X61.952Y-27.964
X63.119Y-25.147
X63.119Y-28.447
X63.331Y-77.648
X63.331Y-82.648
X64.286Y-25.63
X64.286Y-27.964
X64.769Y-26.797
X65.331Y-77.648
X65.331Y-82.648
X67.331Y-77.648
X67.331Y-82.648
X69.331Y-77.648
X69.331Y-82.648
X71.331Y-77.648
X71.331Y-82.648
X73.331Y-77.648
X73.331Y-82.648
X75.331Y-77.648
X75.331Y-82.648
X77.331Y-77.648
X77.331Y-82.648
T3
X68.431Y-25.548
X74.031Y-25.548
X79.431Y-25.448
T4
X46.609Y-35.957
X46.609Y-37.957
X46.609Y-40.291
X46.609Y-42.291
X68.631Y-28.148
X70.631Y-28.148
X74.549Y-35.846
X74.549Y-37.846
X74.549Y-40.418
X74.549Y-42.418
T5
X24.892Y-108.204
X24.892Y-110.744
X24.892Y-113.284
X24.892Y-115.824
X24.892Y-118.364
X28.007Y-32.523
X28.007Y-35.063
X28.007Y-37.603
X28.007Y-40.143
X28.007Y-42.683
X75.531Y-29.248
X95.595Y-32.334
X95.595Y-34.874
X95.595Y-37.414
X95.595Y-39.954
X95.595Y-42.494
X100.508Y-25.669
X100.605Y-102.529
X103.048Y-25.669
X103.145Y-102.529
X105.588Y-25.669
X105.685Y-102.529
X108.128Y-25.669
X108.225Y-102.529
X110.668Y-25.669
X110.765Y-102.529
X116.078Y-109.474
X116.078Y-112.014
X116.078Y-114.554
X116.078Y-117.094
X116.078Y-119.634
T6
X23.631Y-26.648
X94.231Y-26.248
T7
X79.731Y-29.348
T8
X45.531Y-26.948
X50.631Y-27.048
X56.642Y-27.051
X63.119Y-26.797
T0
M30
