G04 #@! TF.GenerationSoftware,KiCad,Pcbnew,(6.0.10)*
G04 #@! TF.CreationDate,2023-02-12T23:23:39+01:00*
G04 #@! TF.ProjectId,hamodule,68616d6f-6475-46c6-952e-6b696361645f,20220918.20*
G04 #@! TF.SameCoordinates,Original*
G04 #@! TF.FileFunction,Soldermask,Top*
G04 #@! TF.FilePolarity,Negative*
%FSLAX46Y46*%
G04 Gerber Fmt 4.6, Leading zero omitted, Abs format (unit mm)*
G04 Created by KiCad (PCBNEW (6.0.10)) date 2023-02-12 23:23:39*
%MOMM*%
%LPD*%
G01*
G04 APERTURE LIST*
G04 Aperture macros list*
%AMRoundRect*
0 Rectangle with rounded corners*
0 $1 Rounding radius*
0 $2 $3 $4 $5 $6 $7 $8 $9 X,Y pos of 4 corners*
0 Add a 4 corners polygon primitive as box body*
4,1,4,$2,$3,$4,$5,$6,$7,$8,$9,$2,$3,0*
0 Add four circle primitives for the rounded corners*
1,1,$1+$1,$2,$3*
1,1,$1+$1,$4,$5*
1,1,$1+$1,$6,$7*
1,1,$1+$1,$8,$9*
0 Add four rect primitives between the rounded corners*
20,1,$1+$1,$2,$3,$4,$5,0*
20,1,$1+$1,$4,$5,$6,$7,0*
20,1,$1+$1,$6,$7,$8,$9,0*
20,1,$1+$1,$8,$9,$2,$3,0*%
G04 Aperture macros list end*
%ADD10C,0.150000*%
%ADD11C,3.300000*%
%ADD12C,2.600000*%
%ADD13C,1.500000*%
%ADD14C,2.700000*%
%ADD15C,4.500000*%
%ADD16RoundRect,0.050000X-0.850000X-0.850000X0.850000X-0.850000X0.850000X0.850000X-0.850000X0.850000X0*%
%ADD17O,1.800000X1.800000*%
%ADD18RoundRect,0.050000X-0.850000X0.850000X-0.850000X-0.850000X0.850000X-0.850000X0.850000X0.850000X0*%
%ADD19RoundRect,0.050000X-0.500000X-0.500000X0.500000X-0.500000X0.500000X0.500000X-0.500000X0.500000X0*%
%ADD20RoundRect,0.050000X-1.000000X-1.000000X1.000000X-1.000000X1.000000X1.000000X-1.000000X1.000000X0*%
%ADD21C,3.600000*%
%ADD22RoundRect,0.050000X-1.250000X-1.250000X1.250000X-1.250000X1.250000X1.250000X-1.250000X1.250000X0*%
%ADD23C,1.000000*%
%ADD24RoundRect,0.300000X-0.325000X-0.450000X0.325000X-0.450000X0.325000X0.450000X-0.325000X0.450000X0*%
%ADD25RoundRect,0.050000X0.850000X0.850000X-0.850000X0.850000X-0.850000X-0.850000X0.850000X-0.850000X0*%
%ADD26C,2.100000*%
%ADD27C,2.250000*%
%ADD28C,3.000000*%
%ADD29C,2.900000*%
%ADD30C,0.800000*%
%ADD31C,2.200000*%
G04 APERTURE END LIST*
D10*
X20239000Y-41370000D02*
X36339000Y-41370000D01*
X36339000Y-41370000D02*
X36339000Y-77970000D01*
X36339000Y-77970000D02*
X20239000Y-77970000D01*
X20239000Y-77970000D02*
X20239000Y-41370000D01*
G36*
X20239000Y-41370000D02*
G01*
X36339000Y-41370000D01*
X36339000Y-77970000D01*
X20239000Y-77970000D01*
X20239000Y-41370000D01*
G37*
X98327000Y-23217000D02*
X114427000Y-23217000D01*
X114427000Y-23217000D02*
X114427000Y-110998000D01*
X114427000Y-110998000D02*
X98327000Y-110998000D01*
X98327000Y-110998000D02*
X98327000Y-23217000D01*
G36*
X98327000Y-23217000D02*
G01*
X114427000Y-23217000D01*
X114427000Y-110998000D01*
X98327000Y-110998000D01*
X98327000Y-23217000D01*
G37*
G36*
X34031000Y-92848000D02*
G01*
X29231000Y-93548000D01*
X33831000Y-97548000D01*
X30331000Y-97548000D01*
X27231000Y-91748000D01*
X28531000Y-87848000D01*
X27131000Y-86548000D01*
X28531000Y-83748000D01*
X27131000Y-81748000D01*
X34131000Y-81548000D01*
X34031000Y-92848000D01*
G37*
X34031000Y-92848000D02*
X29231000Y-93548000D01*
X33831000Y-97548000D01*
X30331000Y-97548000D01*
X27231000Y-91748000D01*
X28531000Y-87848000D01*
X27131000Y-86548000D01*
X28531000Y-83748000D01*
X27131000Y-81748000D01*
X34131000Y-81548000D01*
X34031000Y-92848000D01*
X51481000Y-57548000D02*
X67581000Y-57548000D01*
X67581000Y-57548000D02*
X67581000Y-67248000D01*
X67581000Y-67248000D02*
X51481000Y-67248000D01*
X51481000Y-67248000D02*
X51481000Y-57548000D01*
G36*
X51481000Y-57548000D02*
G01*
X67581000Y-57548000D01*
X67581000Y-67248000D01*
X51481000Y-67248000D01*
X51481000Y-57548000D01*
G37*
D11*
X72263000Y-100076000D03*
X84763000Y-100076000D03*
X59763000Y-100076000D03*
D12*
X71501000Y-113792000D03*
X71628000Y-109474000D03*
X71247000Y-117983000D03*
X71755000Y-105410000D03*
X41148000Y-117983000D03*
X41402000Y-113792000D03*
X41529000Y-109474000D03*
X41656000Y-105410000D03*
D13*
X74549000Y-40418000D03*
X74549000Y-42418000D03*
X46609000Y-40291000D03*
X46609000Y-42291000D03*
X74549000Y-35846000D03*
X74549000Y-37846000D03*
X46609000Y-35957000D03*
X46609000Y-37957000D03*
D14*
X56642000Y-27051000D03*
D15*
X56642000Y-27051000D03*
D16*
X116078000Y-109474000D03*
D17*
X116078000Y-112014000D03*
X116078000Y-114554000D03*
X116078000Y-117094000D03*
X116078000Y-119634000D03*
D16*
X24892000Y-108204000D03*
D17*
X24892000Y-110744000D03*
X24892000Y-113284000D03*
X24892000Y-115824000D03*
X24892000Y-118364000D03*
D18*
X110765000Y-102529000D03*
D17*
X108225000Y-102529000D03*
X105685000Y-102529000D03*
X103145000Y-102529000D03*
X100605000Y-102529000D03*
D18*
X110668000Y-25669000D03*
D17*
X108128000Y-25669000D03*
X105588000Y-25669000D03*
X103048000Y-25669000D03*
X100508000Y-25669000D03*
D13*
X42531000Y-84648000D03*
D19*
X68431000Y-25548000D03*
D20*
X84963000Y-25527000D03*
D21*
X45531000Y-26948000D03*
D14*
X45531000Y-26948000D03*
D22*
X23631000Y-26648000D03*
D16*
X28007000Y-32523000D03*
D17*
X28007000Y-35063000D03*
X28007000Y-37603000D03*
X28007000Y-40143000D03*
X28007000Y-42683000D03*
D13*
X45231000Y-84648000D03*
D15*
X91281000Y-94348000D03*
D23*
X85981000Y-82448000D03*
D24*
X32340000Y-40100000D03*
X34390000Y-40100000D03*
X32340000Y-35274000D03*
X34390000Y-35274000D03*
D13*
X59331000Y-91348000D03*
D22*
X94231000Y-26248000D03*
D19*
X79431000Y-25448000D03*
D25*
X95595000Y-42494000D03*
D17*
X95595000Y-39954000D03*
X95595000Y-37414000D03*
X95595000Y-34874000D03*
X95595000Y-32334000D03*
D15*
X37031000Y-95748000D03*
D26*
X75531000Y-29248000D03*
D24*
X32331000Y-37687000D03*
X34381000Y-37687000D03*
D13*
X86081000Y-89948000D03*
D19*
X74031000Y-25548000D03*
D23*
X23631000Y-83648000D03*
D12*
X85031000Y-29248000D03*
D15*
X24638000Y-78105000D03*
D13*
X36931000Y-88148000D03*
D24*
X32331000Y-32988000D03*
X34381000Y-32988000D03*
X32331000Y-42513000D03*
X34381000Y-42513000D03*
D13*
X36931000Y-83948000D03*
D27*
X37031000Y-91348000D03*
D13*
X70631000Y-28148000D03*
X68631000Y-28148000D03*
X91181000Y-82548000D03*
D28*
X86181000Y-94448000D03*
D14*
X50631000Y-27048000D03*
D15*
X50631000Y-27048000D03*
D13*
X91181000Y-86748000D03*
D29*
X79731000Y-29348000D03*
D28*
X23831000Y-95648000D03*
D30*
X61952274Y-25630274D03*
X61952274Y-27963726D03*
X61469000Y-26797000D03*
D15*
X63119000Y-26797000D03*
D30*
X63119000Y-25147000D03*
X63119000Y-28447000D03*
X64285726Y-27963726D03*
X64769000Y-26797000D03*
X64285726Y-25630274D03*
D31*
X40631000Y-26748000D03*
D23*
X23631000Y-87848000D03*
D27*
X91281000Y-89948000D03*
D23*
X85981000Y-86648000D03*
D13*
X23731000Y-91148000D03*
M02*
