%TF.GenerationSoftware,KiCad,Pcbnew,(6.0.10)*%
%TF.CreationDate,2023-02-12T23:23:46+01:00*%
%TF.ProjectId,hamodule,68616d6f-6475-46c6-952e-6b696361645f,20220918.20*%
%TF.SameCoordinates,Original*%
%TF.FileFunction,Drillmap*%
%TF.FilePolarity,Positive*%
%FSLAX45Y45*%
G04 Gerber Fmt 4.5, Leading zero omitted, Abs format (unit mm)*
G04 Created by KiCad (PCBNEW (6.0.10)) date 2023-02-12 23:23:46*
%MOMM*%
%LPD*%
G01*
G04 APERTURE LIST*
%ADD10C,0.050000*%
%ADD11C,0.200000*%
%ADD12C,0.210000*%
%ADD13C,0.320000*%
G04 APERTURE END LIST*
D10*
X11731200Y-12244300D02*
G75*
G03*
X11985200Y-11990300I0J254000D01*
G01*
X11985200Y-11990300D02*
X11985200Y-2534800D01*
X11731200Y-12244300D02*
X2247100Y-12244300D01*
X11731200Y-2280800D02*
X2247100Y-2280800D01*
X1993100Y-11988495D02*
X1993100Y-2534800D01*
X1993100Y-11988495D02*
G75*
G03*
X2247100Y-12244300I255812J0D01*
G01*
X11985200Y-2534800D02*
G75*
G03*
X11731200Y-2280800I-254000J0D01*
G01*
X6023100Y-5824800D02*
X6103100Y-5824800D01*
X6103100Y-5824800D02*
X6103100Y-7354800D01*
X6103100Y-7354800D02*
X6023100Y-7354800D01*
X6023100Y-7354800D02*
X6023100Y-5824800D01*
X5713100Y-5824800D02*
X5793100Y-5824800D01*
X5793100Y-5824800D02*
X5793100Y-7354800D01*
X5793100Y-7354800D02*
X5713100Y-7354800D01*
X5713100Y-7354800D02*
X5713100Y-5824800D01*
X6133100Y-5824800D02*
X6213100Y-5824800D01*
X6213100Y-5824800D02*
X6213100Y-7354800D01*
X6213100Y-7354800D02*
X6133100Y-7354800D01*
X6133100Y-7354800D02*
X6133100Y-5824800D01*
X6253100Y-5824800D02*
X6333100Y-5824800D01*
X6333100Y-5824800D02*
X6333100Y-7354800D01*
X6333100Y-7354800D02*
X6253100Y-7354800D01*
X6253100Y-7354800D02*
X6253100Y-5824800D01*
X2247100Y-2280800D02*
G75*
G03*
X1993100Y-2534800I0J-254000D01*
G01*
X5593100Y-5824800D02*
X5673100Y-5824800D01*
X5673100Y-5824800D02*
X5673100Y-7354800D01*
X5673100Y-7354800D02*
X5593100Y-7354800D01*
X5593100Y-7354800D02*
X5593100Y-5824800D01*
X5923100Y-5824800D02*
X6003100Y-5824800D01*
X6003100Y-5824800D02*
X6003100Y-7354800D01*
X6003100Y-7354800D02*
X5923100Y-7354800D01*
X5923100Y-7354800D02*
X5923100Y-5824800D01*
X5823100Y-5824800D02*
X5903100Y-5824800D01*
X5903100Y-5824800D02*
X5903100Y-7354800D01*
X5903100Y-7354800D02*
X5823100Y-7354800D01*
X5823100Y-7354800D02*
X5823100Y-5824800D01*
D11*
D12*
X3958100Y-2569800D02*
X4168100Y-2779800D01*
X4168100Y-2569800D02*
X3958100Y-2779800D01*
D13*
X6136300Y-10007600D02*
G75*
G03*
X6136300Y-10007600I-160000J0D01*
G01*
X7386300Y-10007600D02*
G75*
G03*
X7386300Y-10007600I-160000J0D01*
G01*
X8636300Y-10007600D02*
G75*
G03*
X8636300Y-10007600I-160000J0D01*
G01*
D11*
X2248219Y-12557276D02*
X2248219Y-12357276D01*
X2295838Y-12357276D01*
X2324410Y-12366800D01*
X2343457Y-12385848D01*
X2352981Y-12404895D01*
X2362505Y-12442990D01*
X2362505Y-12471562D01*
X2352981Y-12509657D01*
X2343457Y-12528705D01*
X2324410Y-12547752D01*
X2295838Y-12557276D01*
X2248219Y-12557276D01*
X2448219Y-12557276D02*
X2448219Y-12423943D01*
X2448219Y-12462038D02*
X2457743Y-12442990D01*
X2467267Y-12433467D01*
X2486314Y-12423943D01*
X2505362Y-12423943D01*
X2572029Y-12557276D02*
X2572029Y-12423943D01*
X2572029Y-12357276D02*
X2562505Y-12366800D01*
X2572029Y-12376324D01*
X2581552Y-12366800D01*
X2572029Y-12357276D01*
X2572029Y-12376324D01*
X2695838Y-12557276D02*
X2676790Y-12547752D01*
X2667267Y-12528705D01*
X2667267Y-12357276D01*
X2800600Y-12557276D02*
X2781552Y-12547752D01*
X2772029Y-12528705D01*
X2772029Y-12357276D01*
X3029171Y-12557276D02*
X3029171Y-12357276D01*
X3095838Y-12500133D01*
X3162505Y-12357276D01*
X3162505Y-12557276D01*
X3343457Y-12557276D02*
X3343457Y-12452514D01*
X3333933Y-12433467D01*
X3314886Y-12423943D01*
X3276790Y-12423943D01*
X3257743Y-12433467D01*
X3343457Y-12547752D02*
X3324409Y-12557276D01*
X3276790Y-12557276D01*
X3257743Y-12547752D01*
X3248219Y-12528705D01*
X3248219Y-12509657D01*
X3257743Y-12490609D01*
X3276790Y-12481086D01*
X3324409Y-12481086D01*
X3343457Y-12471562D01*
X3438695Y-12423943D02*
X3438695Y-12623943D01*
X3438695Y-12433467D02*
X3457743Y-12423943D01*
X3495838Y-12423943D01*
X3514886Y-12433467D01*
X3524409Y-12442990D01*
X3533933Y-12462038D01*
X3533933Y-12519181D01*
X3524409Y-12538228D01*
X3514886Y-12547752D01*
X3495838Y-12557276D01*
X3457743Y-12557276D01*
X3438695Y-12547752D01*
X3619648Y-12538228D02*
X3629171Y-12547752D01*
X3619648Y-12557276D01*
X3610124Y-12547752D01*
X3619648Y-12538228D01*
X3619648Y-12557276D01*
X3619648Y-12433467D02*
X3629171Y-12442990D01*
X3619648Y-12452514D01*
X3610124Y-12442990D01*
X3619648Y-12433467D01*
X3619648Y-12452514D01*
X1790600Y-12786800D02*
X1990600Y-12986800D01*
X1990600Y-12786800D02*
X1790600Y-12986800D01*
X2238695Y-12796324D02*
X2248219Y-12786800D01*
X2267267Y-12777276D01*
X2314886Y-12777276D01*
X2333933Y-12786800D01*
X2343457Y-12796324D01*
X2352981Y-12815371D01*
X2352981Y-12834419D01*
X2343457Y-12862990D01*
X2229171Y-12977276D01*
X2352981Y-12977276D01*
X2438695Y-12958228D02*
X2448219Y-12967752D01*
X2438695Y-12977276D01*
X2429171Y-12967752D01*
X2438695Y-12958228D01*
X2438695Y-12977276D01*
X2638695Y-12977276D02*
X2524410Y-12977276D01*
X2581552Y-12977276D02*
X2581552Y-12777276D01*
X2562505Y-12805848D01*
X2543457Y-12824895D01*
X2524410Y-12834419D01*
X2762505Y-12777276D02*
X2781552Y-12777276D01*
X2800600Y-12786800D01*
X2810124Y-12796324D01*
X2819648Y-12815371D01*
X2829171Y-12853467D01*
X2829171Y-12901086D01*
X2819648Y-12939181D01*
X2810124Y-12958228D01*
X2800600Y-12967752D01*
X2781552Y-12977276D01*
X2762505Y-12977276D01*
X2743457Y-12967752D01*
X2733933Y-12958228D01*
X2724410Y-12939181D01*
X2714886Y-12901086D01*
X2714886Y-12853467D01*
X2724410Y-12815371D01*
X2733933Y-12796324D01*
X2743457Y-12786800D01*
X2762505Y-12777276D01*
X2952981Y-12777276D02*
X2972028Y-12777276D01*
X2991076Y-12786800D01*
X3000600Y-12796324D01*
X3010124Y-12815371D01*
X3019648Y-12853467D01*
X3019648Y-12901086D01*
X3010124Y-12939181D01*
X3000600Y-12958228D01*
X2991076Y-12967752D01*
X2972028Y-12977276D01*
X2952981Y-12977276D01*
X2933933Y-12967752D01*
X2924409Y-12958228D01*
X2914886Y-12939181D01*
X2905362Y-12901086D01*
X2905362Y-12853467D01*
X2914886Y-12815371D01*
X2924409Y-12796324D01*
X2933933Y-12786800D01*
X2952981Y-12777276D01*
X3105362Y-12977276D02*
X3105362Y-12843943D01*
X3105362Y-12862990D02*
X3114886Y-12853467D01*
X3133933Y-12843943D01*
X3162505Y-12843943D01*
X3181552Y-12853467D01*
X3191076Y-12872514D01*
X3191076Y-12977276D01*
X3191076Y-12872514D02*
X3200600Y-12853467D01*
X3219648Y-12843943D01*
X3248219Y-12843943D01*
X3267267Y-12853467D01*
X3276790Y-12872514D01*
X3276790Y-12977276D01*
X3372028Y-12977276D02*
X3372028Y-12843943D01*
X3372028Y-12862990D02*
X3381552Y-12853467D01*
X3400600Y-12843943D01*
X3429171Y-12843943D01*
X3448219Y-12853467D01*
X3457743Y-12872514D01*
X3457743Y-12977276D01*
X3457743Y-12872514D02*
X3467267Y-12853467D01*
X3486314Y-12843943D01*
X3514886Y-12843943D01*
X3533933Y-12853467D01*
X3543457Y-12872514D01*
X3543457Y-12977276D01*
X3933933Y-12767752D02*
X3762505Y-13024895D01*
X4191076Y-12777276D02*
X4210124Y-12777276D01*
X4229171Y-12786800D01*
X4238695Y-12796324D01*
X4248219Y-12815371D01*
X4257743Y-12853467D01*
X4257743Y-12901086D01*
X4248219Y-12939181D01*
X4238695Y-12958228D01*
X4229171Y-12967752D01*
X4210124Y-12977276D01*
X4191076Y-12977276D01*
X4172028Y-12967752D01*
X4162505Y-12958228D01*
X4152981Y-12939181D01*
X4143457Y-12901086D01*
X4143457Y-12853467D01*
X4152981Y-12815371D01*
X4162505Y-12796324D01*
X4172028Y-12786800D01*
X4191076Y-12777276D01*
X4343457Y-12958228D02*
X4352981Y-12967752D01*
X4343457Y-12977276D01*
X4333933Y-12967752D01*
X4343457Y-12958228D01*
X4343457Y-12977276D01*
X4476790Y-12777276D02*
X4495838Y-12777276D01*
X4514886Y-12786800D01*
X4524410Y-12796324D01*
X4533933Y-12815371D01*
X4543457Y-12853467D01*
X4543457Y-12901086D01*
X4533933Y-12939181D01*
X4524410Y-12958228D01*
X4514886Y-12967752D01*
X4495838Y-12977276D01*
X4476790Y-12977276D01*
X4457743Y-12967752D01*
X4448219Y-12958228D01*
X4438695Y-12939181D01*
X4429171Y-12901086D01*
X4429171Y-12853467D01*
X4438695Y-12815371D01*
X4448219Y-12796324D01*
X4457743Y-12786800D01*
X4476790Y-12777276D01*
X4657743Y-12862990D02*
X4638695Y-12853467D01*
X4629171Y-12843943D01*
X4619648Y-12824895D01*
X4619648Y-12815371D01*
X4629171Y-12796324D01*
X4638695Y-12786800D01*
X4657743Y-12777276D01*
X4695838Y-12777276D01*
X4714886Y-12786800D01*
X4724410Y-12796324D01*
X4733933Y-12815371D01*
X4733933Y-12824895D01*
X4724410Y-12843943D01*
X4714886Y-12853467D01*
X4695838Y-12862990D01*
X4657743Y-12862990D01*
X4638695Y-12872514D01*
X4629171Y-12882038D01*
X4619648Y-12901086D01*
X4619648Y-12939181D01*
X4629171Y-12958228D01*
X4638695Y-12967752D01*
X4657743Y-12977276D01*
X4695838Y-12977276D01*
X4714886Y-12967752D01*
X4724410Y-12958228D01*
X4733933Y-12939181D01*
X4733933Y-12901086D01*
X4724410Y-12882038D01*
X4714886Y-12872514D01*
X4695838Y-12862990D01*
X4810124Y-12796324D02*
X4819648Y-12786800D01*
X4838695Y-12777276D01*
X4886314Y-12777276D01*
X4905362Y-12786800D01*
X4914886Y-12796324D01*
X4924410Y-12815371D01*
X4924410Y-12834419D01*
X4914886Y-12862990D01*
X4800600Y-12977276D01*
X4924410Y-12977276D01*
X4991076Y-12777276D02*
X5124410Y-12777276D01*
X5038695Y-12977276D01*
X5191076Y-12777276D02*
X5191076Y-12815371D01*
X5267267Y-12777276D02*
X5267267Y-12815371D01*
X5562505Y-13053467D02*
X5552981Y-13043943D01*
X5533933Y-13015371D01*
X5524410Y-12996324D01*
X5514886Y-12967752D01*
X5505362Y-12920133D01*
X5505362Y-12882038D01*
X5514886Y-12834419D01*
X5524410Y-12805848D01*
X5533933Y-12786800D01*
X5552981Y-12758228D01*
X5562505Y-12748705D01*
X5743457Y-12977276D02*
X5629171Y-12977276D01*
X5686314Y-12977276D02*
X5686314Y-12777276D01*
X5667267Y-12805848D01*
X5648219Y-12824895D01*
X5629171Y-12834419D01*
X5981552Y-12977276D02*
X5981552Y-12777276D01*
X6067267Y-12977276D02*
X6067267Y-12872514D01*
X6057743Y-12853467D01*
X6038695Y-12843943D01*
X6010124Y-12843943D01*
X5991076Y-12853467D01*
X5981552Y-12862990D01*
X6191076Y-12977276D02*
X6172028Y-12967752D01*
X6162505Y-12958228D01*
X6152981Y-12939181D01*
X6152981Y-12882038D01*
X6162505Y-12862990D01*
X6172028Y-12853467D01*
X6191076Y-12843943D01*
X6219648Y-12843943D01*
X6238695Y-12853467D01*
X6248219Y-12862990D01*
X6257743Y-12882038D01*
X6257743Y-12939181D01*
X6248219Y-12958228D01*
X6238695Y-12967752D01*
X6219648Y-12977276D01*
X6191076Y-12977276D01*
X6372028Y-12977276D02*
X6352981Y-12967752D01*
X6343457Y-12948705D01*
X6343457Y-12777276D01*
X6524409Y-12967752D02*
X6505362Y-12977276D01*
X6467267Y-12977276D01*
X6448219Y-12967752D01*
X6438695Y-12948705D01*
X6438695Y-12872514D01*
X6448219Y-12853467D01*
X6467267Y-12843943D01*
X6505362Y-12843943D01*
X6524409Y-12853467D01*
X6533933Y-12872514D01*
X6533933Y-12891562D01*
X6438695Y-12910609D01*
X6600600Y-13053467D02*
X6610124Y-13043943D01*
X6629171Y-13015371D01*
X6638695Y-12996324D01*
X6648219Y-12967752D01*
X6657743Y-12920133D01*
X6657743Y-12882038D01*
X6648219Y-12834419D01*
X6638695Y-12805848D01*
X6629171Y-12786800D01*
X6610124Y-12758228D01*
X6600600Y-12748705D01*
X6962505Y-13053467D02*
X6952981Y-13043943D01*
X6933933Y-13015371D01*
X6924409Y-12996324D01*
X6914886Y-12967752D01*
X6905362Y-12920133D01*
X6905362Y-12882038D01*
X6914886Y-12834419D01*
X6924409Y-12805848D01*
X6933933Y-12786800D01*
X6952981Y-12758228D01*
X6962505Y-12748705D01*
X7038695Y-12843943D02*
X7038695Y-12977276D01*
X7038695Y-12862990D02*
X7048219Y-12853467D01*
X7067267Y-12843943D01*
X7095838Y-12843943D01*
X7114886Y-12853467D01*
X7124409Y-12872514D01*
X7124409Y-12977276D01*
X7248219Y-12977276D02*
X7229171Y-12967752D01*
X7219648Y-12958228D01*
X7210124Y-12939181D01*
X7210124Y-12882038D01*
X7219648Y-12862990D01*
X7229171Y-12853467D01*
X7248219Y-12843943D01*
X7276790Y-12843943D01*
X7295838Y-12853467D01*
X7305362Y-12862990D01*
X7314886Y-12882038D01*
X7314886Y-12939181D01*
X7305362Y-12958228D01*
X7295838Y-12967752D01*
X7276790Y-12977276D01*
X7248219Y-12977276D01*
X7372028Y-12843943D02*
X7448219Y-12843943D01*
X7400600Y-12777276D02*
X7400600Y-12948705D01*
X7410124Y-12967752D01*
X7429171Y-12977276D01*
X7448219Y-12977276D01*
X7667267Y-12843943D02*
X7667267Y-13043943D01*
X7667267Y-12853467D02*
X7686314Y-12843943D01*
X7724409Y-12843943D01*
X7743457Y-12853467D01*
X7752981Y-12862990D01*
X7762505Y-12882038D01*
X7762505Y-12939181D01*
X7752981Y-12958228D01*
X7743457Y-12967752D01*
X7724409Y-12977276D01*
X7686314Y-12977276D01*
X7667267Y-12967752D01*
X7876790Y-12977276D02*
X7857743Y-12967752D01*
X7848219Y-12948705D01*
X7848219Y-12777276D01*
X8038695Y-12977276D02*
X8038695Y-12872514D01*
X8029171Y-12853467D01*
X8010124Y-12843943D01*
X7972028Y-12843943D01*
X7952981Y-12853467D01*
X8038695Y-12967752D02*
X8019648Y-12977276D01*
X7972028Y-12977276D01*
X7952981Y-12967752D01*
X7943457Y-12948705D01*
X7943457Y-12929657D01*
X7952981Y-12910609D01*
X7972028Y-12901086D01*
X8019648Y-12901086D01*
X8038695Y-12891562D01*
X8105362Y-12843943D02*
X8181552Y-12843943D01*
X8133933Y-12777276D02*
X8133933Y-12948705D01*
X8143457Y-12967752D01*
X8162505Y-12977276D01*
X8181552Y-12977276D01*
X8324409Y-12967752D02*
X8305362Y-12977276D01*
X8267267Y-12977276D01*
X8248219Y-12967752D01*
X8238695Y-12948705D01*
X8238695Y-12872514D01*
X8248219Y-12853467D01*
X8267267Y-12843943D01*
X8305362Y-12843943D01*
X8324409Y-12853467D01*
X8333933Y-12872514D01*
X8333933Y-12891562D01*
X8238695Y-12910609D01*
X8505362Y-12977276D02*
X8505362Y-12777276D01*
X8505362Y-12967752D02*
X8486314Y-12977276D01*
X8448219Y-12977276D01*
X8429171Y-12967752D01*
X8419648Y-12958228D01*
X8410124Y-12939181D01*
X8410124Y-12882038D01*
X8419648Y-12862990D01*
X8429171Y-12853467D01*
X8448219Y-12843943D01*
X8486314Y-12843943D01*
X8505362Y-12853467D01*
X8581552Y-13053467D02*
X8591076Y-13043943D01*
X8610124Y-13015371D01*
X8619648Y-12996324D01*
X8629171Y-12967752D01*
X8638695Y-12920133D01*
X8638695Y-12882038D01*
X8629171Y-12834419D01*
X8619648Y-12805848D01*
X8610124Y-12786800D01*
X8591076Y-12758228D01*
X8581552Y-12748705D01*
X1990600Y-13206800D02*
G75*
G03*
X1990600Y-13206800I-100000J0D01*
G01*
X2229171Y-13097276D02*
X2352981Y-13097276D01*
X2286314Y-13173467D01*
X2314886Y-13173467D01*
X2333933Y-13182990D01*
X2343457Y-13192514D01*
X2352981Y-13211562D01*
X2352981Y-13259181D01*
X2343457Y-13278228D01*
X2333933Y-13287752D01*
X2314886Y-13297276D01*
X2257743Y-13297276D01*
X2238695Y-13287752D01*
X2229171Y-13278228D01*
X2438695Y-13278228D02*
X2448219Y-13287752D01*
X2438695Y-13297276D01*
X2429171Y-13287752D01*
X2438695Y-13278228D01*
X2438695Y-13297276D01*
X2524410Y-13116324D02*
X2533933Y-13106800D01*
X2552981Y-13097276D01*
X2600600Y-13097276D01*
X2619648Y-13106800D01*
X2629171Y-13116324D01*
X2638695Y-13135371D01*
X2638695Y-13154419D01*
X2629171Y-13182990D01*
X2514886Y-13297276D01*
X2638695Y-13297276D01*
X2762505Y-13097276D02*
X2781552Y-13097276D01*
X2800600Y-13106800D01*
X2810124Y-13116324D01*
X2819648Y-13135371D01*
X2829171Y-13173467D01*
X2829171Y-13221086D01*
X2819648Y-13259181D01*
X2810124Y-13278228D01*
X2800600Y-13287752D01*
X2781552Y-13297276D01*
X2762505Y-13297276D01*
X2743457Y-13287752D01*
X2733933Y-13278228D01*
X2724410Y-13259181D01*
X2714886Y-13221086D01*
X2714886Y-13173467D01*
X2724410Y-13135371D01*
X2733933Y-13116324D01*
X2743457Y-13106800D01*
X2762505Y-13097276D01*
X2952981Y-13097276D02*
X2972028Y-13097276D01*
X2991076Y-13106800D01*
X3000600Y-13116324D01*
X3010124Y-13135371D01*
X3019648Y-13173467D01*
X3019648Y-13221086D01*
X3010124Y-13259181D01*
X3000600Y-13278228D01*
X2991076Y-13287752D01*
X2972028Y-13297276D01*
X2952981Y-13297276D01*
X2933933Y-13287752D01*
X2924409Y-13278228D01*
X2914886Y-13259181D01*
X2905362Y-13221086D01*
X2905362Y-13173467D01*
X2914886Y-13135371D01*
X2924409Y-13116324D01*
X2933933Y-13106800D01*
X2952981Y-13097276D01*
X3105362Y-13297276D02*
X3105362Y-13163943D01*
X3105362Y-13182990D02*
X3114886Y-13173467D01*
X3133933Y-13163943D01*
X3162505Y-13163943D01*
X3181552Y-13173467D01*
X3191076Y-13192514D01*
X3191076Y-13297276D01*
X3191076Y-13192514D02*
X3200600Y-13173467D01*
X3219648Y-13163943D01*
X3248219Y-13163943D01*
X3267267Y-13173467D01*
X3276790Y-13192514D01*
X3276790Y-13297276D01*
X3372028Y-13297276D02*
X3372028Y-13163943D01*
X3372028Y-13182990D02*
X3381552Y-13173467D01*
X3400600Y-13163943D01*
X3429171Y-13163943D01*
X3448219Y-13173467D01*
X3457743Y-13192514D01*
X3457743Y-13297276D01*
X3457743Y-13192514D02*
X3467267Y-13173467D01*
X3486314Y-13163943D01*
X3514886Y-13163943D01*
X3533933Y-13173467D01*
X3543457Y-13192514D01*
X3543457Y-13297276D01*
X3933933Y-13087752D02*
X3762505Y-13344895D01*
X4191076Y-13097276D02*
X4210124Y-13097276D01*
X4229171Y-13106800D01*
X4238695Y-13116324D01*
X4248219Y-13135371D01*
X4257743Y-13173467D01*
X4257743Y-13221086D01*
X4248219Y-13259181D01*
X4238695Y-13278228D01*
X4229171Y-13287752D01*
X4210124Y-13297276D01*
X4191076Y-13297276D01*
X4172028Y-13287752D01*
X4162505Y-13278228D01*
X4152981Y-13259181D01*
X4143457Y-13221086D01*
X4143457Y-13173467D01*
X4152981Y-13135371D01*
X4162505Y-13116324D01*
X4172028Y-13106800D01*
X4191076Y-13097276D01*
X4343457Y-13278228D02*
X4352981Y-13287752D01*
X4343457Y-13297276D01*
X4333933Y-13287752D01*
X4343457Y-13278228D01*
X4343457Y-13297276D01*
X4543457Y-13297276D02*
X4429171Y-13297276D01*
X4486314Y-13297276D02*
X4486314Y-13097276D01*
X4467267Y-13125848D01*
X4448219Y-13144895D01*
X4429171Y-13154419D01*
X4619648Y-13116324D02*
X4629171Y-13106800D01*
X4648219Y-13097276D01*
X4695838Y-13097276D01*
X4714886Y-13106800D01*
X4724410Y-13116324D01*
X4733933Y-13135371D01*
X4733933Y-13154419D01*
X4724410Y-13182990D01*
X4610124Y-13297276D01*
X4733933Y-13297276D01*
X4905362Y-13097276D02*
X4867267Y-13097276D01*
X4848219Y-13106800D01*
X4838695Y-13116324D01*
X4819648Y-13144895D01*
X4810124Y-13182990D01*
X4810124Y-13259181D01*
X4819648Y-13278228D01*
X4829171Y-13287752D01*
X4848219Y-13297276D01*
X4886314Y-13297276D01*
X4905362Y-13287752D01*
X4914886Y-13278228D01*
X4924410Y-13259181D01*
X4924410Y-13211562D01*
X4914886Y-13192514D01*
X4905362Y-13182990D01*
X4886314Y-13173467D01*
X4848219Y-13173467D01*
X4829171Y-13182990D01*
X4819648Y-13192514D01*
X4810124Y-13211562D01*
X5048219Y-13097276D02*
X5067267Y-13097276D01*
X5086314Y-13106800D01*
X5095838Y-13116324D01*
X5105362Y-13135371D01*
X5114886Y-13173467D01*
X5114886Y-13221086D01*
X5105362Y-13259181D01*
X5095838Y-13278228D01*
X5086314Y-13287752D01*
X5067267Y-13297276D01*
X5048219Y-13297276D01*
X5029171Y-13287752D01*
X5019648Y-13278228D01*
X5010124Y-13259181D01*
X5000600Y-13221086D01*
X5000600Y-13173467D01*
X5010124Y-13135371D01*
X5019648Y-13116324D01*
X5029171Y-13106800D01*
X5048219Y-13097276D01*
X5191076Y-13097276D02*
X5191076Y-13135371D01*
X5267267Y-13097276D02*
X5267267Y-13135371D01*
X5562505Y-13373467D02*
X5552981Y-13363943D01*
X5533933Y-13335371D01*
X5524410Y-13316324D01*
X5514886Y-13287752D01*
X5505362Y-13240133D01*
X5505362Y-13202038D01*
X5514886Y-13154419D01*
X5524410Y-13125848D01*
X5533933Y-13106800D01*
X5552981Y-13078228D01*
X5562505Y-13068705D01*
X5619648Y-13097276D02*
X5743457Y-13097276D01*
X5676790Y-13173467D01*
X5705362Y-13173467D01*
X5724409Y-13182990D01*
X5733933Y-13192514D01*
X5743457Y-13211562D01*
X5743457Y-13259181D01*
X5733933Y-13278228D01*
X5724409Y-13287752D01*
X5705362Y-13297276D01*
X5648219Y-13297276D01*
X5629171Y-13287752D01*
X5619648Y-13278228D01*
X5981552Y-13297276D02*
X5981552Y-13097276D01*
X6067267Y-13297276D02*
X6067267Y-13192514D01*
X6057743Y-13173467D01*
X6038695Y-13163943D01*
X6010124Y-13163943D01*
X5991076Y-13173467D01*
X5981552Y-13182990D01*
X6191076Y-13297276D02*
X6172028Y-13287752D01*
X6162505Y-13278228D01*
X6152981Y-13259181D01*
X6152981Y-13202038D01*
X6162505Y-13182990D01*
X6172028Y-13173467D01*
X6191076Y-13163943D01*
X6219648Y-13163943D01*
X6238695Y-13173467D01*
X6248219Y-13182990D01*
X6257743Y-13202038D01*
X6257743Y-13259181D01*
X6248219Y-13278228D01*
X6238695Y-13287752D01*
X6219648Y-13297276D01*
X6191076Y-13297276D01*
X6372028Y-13297276D02*
X6352981Y-13287752D01*
X6343457Y-13268705D01*
X6343457Y-13097276D01*
X6524409Y-13287752D02*
X6505362Y-13297276D01*
X6467267Y-13297276D01*
X6448219Y-13287752D01*
X6438695Y-13268705D01*
X6438695Y-13192514D01*
X6448219Y-13173467D01*
X6467267Y-13163943D01*
X6505362Y-13163943D01*
X6524409Y-13173467D01*
X6533933Y-13192514D01*
X6533933Y-13211562D01*
X6438695Y-13230609D01*
X6610124Y-13287752D02*
X6629171Y-13297276D01*
X6667267Y-13297276D01*
X6686314Y-13287752D01*
X6695838Y-13268705D01*
X6695838Y-13259181D01*
X6686314Y-13240133D01*
X6667267Y-13230609D01*
X6638695Y-13230609D01*
X6619648Y-13221086D01*
X6610124Y-13202038D01*
X6610124Y-13192514D01*
X6619648Y-13173467D01*
X6638695Y-13163943D01*
X6667267Y-13163943D01*
X6686314Y-13173467D01*
X6762505Y-13373467D02*
X6772028Y-13363943D01*
X6791076Y-13335371D01*
X6800600Y-13316324D01*
X6810124Y-13287752D01*
X6819648Y-13240133D01*
X6819648Y-13202038D01*
X6810124Y-13154419D01*
X6800600Y-13125848D01*
X6791076Y-13106800D01*
X6772028Y-13078228D01*
X6762505Y-13068705D01*
X7124409Y-13373467D02*
X7114886Y-13363943D01*
X7095838Y-13335371D01*
X7086314Y-13316324D01*
X7076790Y-13287752D01*
X7067267Y-13240133D01*
X7067267Y-13202038D01*
X7076790Y-13154419D01*
X7086314Y-13125848D01*
X7095838Y-13106800D01*
X7114886Y-13078228D01*
X7124409Y-13068705D01*
X7200600Y-13163943D02*
X7200600Y-13297276D01*
X7200600Y-13182990D02*
X7210124Y-13173467D01*
X7229171Y-13163943D01*
X7257743Y-13163943D01*
X7276790Y-13173467D01*
X7286314Y-13192514D01*
X7286314Y-13297276D01*
X7410124Y-13297276D02*
X7391076Y-13287752D01*
X7381552Y-13278228D01*
X7372028Y-13259181D01*
X7372028Y-13202038D01*
X7381552Y-13182990D01*
X7391076Y-13173467D01*
X7410124Y-13163943D01*
X7438695Y-13163943D01*
X7457743Y-13173467D01*
X7467267Y-13182990D01*
X7476790Y-13202038D01*
X7476790Y-13259181D01*
X7467267Y-13278228D01*
X7457743Y-13287752D01*
X7438695Y-13297276D01*
X7410124Y-13297276D01*
X7533933Y-13163943D02*
X7610124Y-13163943D01*
X7562505Y-13097276D02*
X7562505Y-13268705D01*
X7572028Y-13287752D01*
X7591076Y-13297276D01*
X7610124Y-13297276D01*
X7829171Y-13163943D02*
X7829171Y-13363943D01*
X7829171Y-13173467D02*
X7848219Y-13163943D01*
X7886314Y-13163943D01*
X7905362Y-13173467D01*
X7914886Y-13182990D01*
X7924409Y-13202038D01*
X7924409Y-13259181D01*
X7914886Y-13278228D01*
X7905362Y-13287752D01*
X7886314Y-13297276D01*
X7848219Y-13297276D01*
X7829171Y-13287752D01*
X8038695Y-13297276D02*
X8019648Y-13287752D01*
X8010124Y-13268705D01*
X8010124Y-13097276D01*
X8200600Y-13297276D02*
X8200600Y-13192514D01*
X8191076Y-13173467D01*
X8172028Y-13163943D01*
X8133933Y-13163943D01*
X8114886Y-13173467D01*
X8200600Y-13287752D02*
X8181552Y-13297276D01*
X8133933Y-13297276D01*
X8114886Y-13287752D01*
X8105362Y-13268705D01*
X8105362Y-13249657D01*
X8114886Y-13230609D01*
X8133933Y-13221086D01*
X8181552Y-13221086D01*
X8200600Y-13211562D01*
X8267267Y-13163943D02*
X8343457Y-13163943D01*
X8295838Y-13097276D02*
X8295838Y-13268705D01*
X8305362Y-13287752D01*
X8324409Y-13297276D01*
X8343457Y-13297276D01*
X8486314Y-13287752D02*
X8467267Y-13297276D01*
X8429171Y-13297276D01*
X8410124Y-13287752D01*
X8400600Y-13268705D01*
X8400600Y-13192514D01*
X8410124Y-13173467D01*
X8429171Y-13163943D01*
X8467267Y-13163943D01*
X8486314Y-13173467D01*
X8495838Y-13192514D01*
X8495838Y-13211562D01*
X8400600Y-13230609D01*
X8667267Y-13297276D02*
X8667267Y-13097276D01*
X8667267Y-13287752D02*
X8648219Y-13297276D01*
X8610124Y-13297276D01*
X8591076Y-13287752D01*
X8581552Y-13278228D01*
X8572029Y-13259181D01*
X8572029Y-13202038D01*
X8581552Y-13182990D01*
X8591076Y-13173467D01*
X8610124Y-13163943D01*
X8648219Y-13163943D01*
X8667267Y-13173467D01*
X8743457Y-13373467D02*
X8752981Y-13363943D01*
X8772029Y-13335371D01*
X8781552Y-13316324D01*
X8791076Y-13287752D01*
X8800600Y-13240133D01*
X8800600Y-13202038D01*
X8791076Y-13154419D01*
X8781552Y-13125848D01*
X8772029Y-13106800D01*
X8752981Y-13078228D01*
X8743457Y-13068705D01*
M02*
