G04 #@! TF.GenerationSoftware,KiCad,Pcbnew,(6.0.10)*
G04 #@! TF.CreationDate,2023-02-12T23:23:38+01:00*
G04 #@! TF.ProjectId,hamodule,68616d6f-6475-46c6-952e-6b696361645f,20220918.20*
G04 #@! TF.SameCoordinates,Original*
G04 #@! TF.FileFunction,Legend,Bot*
G04 #@! TF.FilePolarity,Positive*
%FSLAX46Y46*%
G04 Gerber Fmt 4.6, Leading zero omitted, Abs format (unit mm)*
G04 Created by KiCad (PCBNEW (6.0.10)) date 2023-02-12 23:23:38*
%MOMM*%
%LPD*%
G01*
G04 APERTURE LIST*
%ADD10C,0.120000*%
%ADD11C,0.010000*%
G04 APERTURE END LIST*
D10*
G36*
X21074000Y-104262000D02*
G01*
X19774000Y-104262000D01*
X20274000Y-103862000D01*
X19874000Y-103662000D01*
X20374000Y-103362000D01*
X19874000Y-103262000D01*
X20474000Y-102862000D01*
X19774000Y-102762000D01*
X20574000Y-102362000D01*
X19774000Y-102162000D01*
X20674000Y-101862000D01*
X19774000Y-101562000D01*
X20774000Y-101262000D01*
X19774000Y-100962000D01*
X20874000Y-100662000D01*
X19674000Y-100362000D01*
X20974000Y-100062000D01*
X19674000Y-99762000D01*
X21074000Y-99362000D01*
X21074000Y-104262000D01*
G37*
X21074000Y-104262000D02*
X19774000Y-104262000D01*
X20274000Y-103862000D01*
X19874000Y-103662000D01*
X20374000Y-103362000D01*
X19874000Y-103262000D01*
X20474000Y-102862000D01*
X19774000Y-102762000D01*
X20574000Y-102362000D01*
X19774000Y-102162000D01*
X20674000Y-101862000D01*
X19774000Y-101562000D01*
X20774000Y-101262000D01*
X19774000Y-100962000D01*
X20874000Y-100662000D01*
X19674000Y-100362000D01*
X20974000Y-100062000D01*
X19674000Y-99762000D01*
X21074000Y-99362000D01*
X21074000Y-104262000D01*
G36*
X23471000Y-97472000D02*
G01*
X21471000Y-97472000D01*
X19471000Y-96472000D01*
X21971000Y-95472000D01*
X19471000Y-94472000D01*
X22471000Y-93472000D01*
X19471000Y-92472000D01*
X23071000Y-91472000D01*
X19471000Y-90472000D01*
X23471000Y-89472000D01*
X23471000Y-97472000D01*
G37*
X23471000Y-97472000D02*
X21471000Y-97472000D01*
X19471000Y-96472000D01*
X21971000Y-95472000D01*
X19471000Y-94472000D01*
X22471000Y-93472000D01*
X19471000Y-92472000D01*
X23071000Y-91472000D01*
X19471000Y-90472000D01*
X23471000Y-89472000D01*
X23471000Y-97472000D01*
X28500000Y-106100000D02*
X39300000Y-106100000D01*
X39300000Y-106100000D02*
X39300000Y-115000000D01*
X39300000Y-115000000D02*
X28500000Y-115000000D01*
X28500000Y-115000000D02*
X28500000Y-106100000D01*
G36*
X28500000Y-106100000D02*
G01*
X39300000Y-106100000D01*
X39300000Y-115000000D01*
X28500000Y-115000000D01*
X28500000Y-106100000D01*
G37*
X51013000Y-95076000D02*
X51013000Y-105076000D01*
X51013000Y-105076000D02*
X93513000Y-105076000D01*
X93513000Y-95076000D02*
X51013000Y-95076000D01*
X93513000Y-105076000D02*
X93513000Y-95076000D01*
X62229000Y-56973000D02*
G75*
G03*
X62229000Y-56973000I-1450000J0D01*
G01*
G36*
X65140307Y-40091305D02*
G01*
X65136762Y-40167521D01*
X65127483Y-40223294D01*
X65110375Y-40264613D01*
X65083344Y-40297467D01*
X65044292Y-40327846D01*
X65019445Y-40341660D01*
X64979615Y-40350965D01*
X64923665Y-40350230D01*
X64892385Y-40347283D01*
X64854653Y-40338283D01*
X64824494Y-40318720D01*
X64789408Y-40282267D01*
X64784720Y-40276943D01*
X64753177Y-40235969D01*
X64738128Y-40200283D01*
X64734286Y-40157966D01*
X64734286Y-40095779D01*
X64777742Y-40112182D01*
X64809424Y-40131356D01*
X64836962Y-40176347D01*
X64842711Y-40190752D01*
X64874855Y-40231546D01*
X64918611Y-40252081D01*
X64966254Y-40250235D01*
X65010057Y-40223886D01*
X65025111Y-40207455D01*
X65038763Y-40182667D01*
X65034493Y-40160144D01*
X65009916Y-40136964D01*
X64962651Y-40110202D01*
X64890314Y-40076934D01*
X64741543Y-40011816D01*
X64737595Y-39947308D01*
X64739079Y-39906220D01*
X64836010Y-39906220D01*
X64843368Y-39931657D01*
X64876848Y-39958814D01*
X64937614Y-39989714D01*
X64947669Y-39994190D01*
X64995751Y-40015017D01*
X65031726Y-40029665D01*
X65048444Y-40035200D01*
X65050977Y-40031126D01*
X65051993Y-40006247D01*
X65048369Y-39966257D01*
X65039242Y-39927152D01*
X65010773Y-39877884D01*
X64969678Y-39850122D01*
X64920590Y-39846364D01*
X64868144Y-39869109D01*
X64853609Y-39880481D01*
X64836010Y-39906220D01*
X64739079Y-39906220D01*
X64739338Y-39899064D01*
X64761281Y-39838096D01*
X64788979Y-39804497D01*
X64846405Y-39766966D01*
X64914527Y-39748006D01*
X64984947Y-39749507D01*
X65049267Y-39773355D01*
X65063426Y-39782513D01*
X65095904Y-39810849D01*
X65118116Y-39846695D01*
X65131804Y-39895384D01*
X65138715Y-39962249D01*
X65139628Y-40006247D01*
X65140590Y-40052622D01*
X65140307Y-40091305D01*
G37*
D11*
X65140307Y-40091305D02*
X65136762Y-40167521D01*
X65127483Y-40223294D01*
X65110375Y-40264613D01*
X65083344Y-40297467D01*
X65044292Y-40327846D01*
X65019445Y-40341660D01*
X64979615Y-40350965D01*
X64923665Y-40350230D01*
X64892385Y-40347283D01*
X64854653Y-40338283D01*
X64824494Y-40318720D01*
X64789408Y-40282267D01*
X64784720Y-40276943D01*
X64753177Y-40235969D01*
X64738128Y-40200283D01*
X64734286Y-40157966D01*
X64734286Y-40095779D01*
X64777742Y-40112182D01*
X64809424Y-40131356D01*
X64836962Y-40176347D01*
X64842711Y-40190752D01*
X64874855Y-40231546D01*
X64918611Y-40252081D01*
X64966254Y-40250235D01*
X65010057Y-40223886D01*
X65025111Y-40207455D01*
X65038763Y-40182667D01*
X65034493Y-40160144D01*
X65009916Y-40136964D01*
X64962651Y-40110202D01*
X64890314Y-40076934D01*
X64741543Y-40011816D01*
X64737595Y-39947308D01*
X64739079Y-39906220D01*
X64836010Y-39906220D01*
X64843368Y-39931657D01*
X64876848Y-39958814D01*
X64937614Y-39989714D01*
X64947669Y-39994190D01*
X64995751Y-40015017D01*
X65031726Y-40029665D01*
X65048444Y-40035200D01*
X65050977Y-40031126D01*
X65051993Y-40006247D01*
X65048369Y-39966257D01*
X65039242Y-39927152D01*
X65010773Y-39877884D01*
X64969678Y-39850122D01*
X64920590Y-39846364D01*
X64868144Y-39869109D01*
X64853609Y-39880481D01*
X64836010Y-39906220D01*
X64739079Y-39906220D01*
X64739338Y-39899064D01*
X64761281Y-39838096D01*
X64788979Y-39804497D01*
X64846405Y-39766966D01*
X64914527Y-39748006D01*
X64984947Y-39749507D01*
X65049267Y-39773355D01*
X65063426Y-39782513D01*
X65095904Y-39810849D01*
X65118116Y-39846695D01*
X65131804Y-39895384D01*
X65138715Y-39962249D01*
X65139628Y-40006247D01*
X65140590Y-40052622D01*
X65140307Y-40091305D01*
G36*
X71265701Y-40050935D02*
G01*
X71264914Y-40121119D01*
X71262210Y-40170022D01*
X71256606Y-40204178D01*
X71247119Y-40230124D01*
X71232768Y-40254397D01*
X71229237Y-40259433D01*
X71191878Y-40299143D01*
X71149311Y-40329092D01*
X71127452Y-40338810D01*
X71048908Y-40355020D01*
X70971231Y-40344535D01*
X70899645Y-40308707D01*
X70839374Y-40248887D01*
X70834286Y-40240873D01*
X70817730Y-40194342D01*
X70806573Y-40129552D01*
X70801160Y-40054727D01*
X70801768Y-39985513D01*
X70948248Y-39985513D01*
X70949402Y-40081399D01*
X70949866Y-40087569D01*
X70956629Y-40140478D01*
X70968671Y-40174029D01*
X70989005Y-40197016D01*
X71023097Y-40218548D01*
X71056814Y-40219680D01*
X71091543Y-40194857D01*
X71097584Y-40188325D01*
X71109417Y-40168779D01*
X71116404Y-40140386D01*
X71119727Y-40096430D01*
X71120571Y-40030192D01*
X71119125Y-39968150D01*
X71111907Y-39909042D01*
X71097006Y-39871686D01*
X71072636Y-39852152D01*
X71037008Y-39846514D01*
X71023440Y-39847635D01*
X70985430Y-39868194D01*
X70960312Y-39914299D01*
X70948248Y-39985513D01*
X70801768Y-39985513D01*
X70801833Y-39978096D01*
X70808937Y-39907882D01*
X70822815Y-39852312D01*
X70840649Y-39815301D01*
X70890855Y-39757733D01*
X70958885Y-39721962D01*
X71042158Y-39709665D01*
X71064398Y-39710331D01*
X71129891Y-39723947D01*
X71183687Y-39758249D01*
X71233057Y-39817338D01*
X71235995Y-39821722D01*
X71249287Y-39845299D01*
X71257932Y-39871949D01*
X71262904Y-39908159D01*
X71265174Y-39960413D01*
X71265678Y-40030192D01*
X71265714Y-40035200D01*
X71265701Y-40050935D01*
G37*
X71265701Y-40050935D02*
X71264914Y-40121119D01*
X71262210Y-40170022D01*
X71256606Y-40204178D01*
X71247119Y-40230124D01*
X71232768Y-40254397D01*
X71229237Y-40259433D01*
X71191878Y-40299143D01*
X71149311Y-40329092D01*
X71127452Y-40338810D01*
X71048908Y-40355020D01*
X70971231Y-40344535D01*
X70899645Y-40308707D01*
X70839374Y-40248887D01*
X70834286Y-40240873D01*
X70817730Y-40194342D01*
X70806573Y-40129552D01*
X70801160Y-40054727D01*
X70801768Y-39985513D01*
X70948248Y-39985513D01*
X70949402Y-40081399D01*
X70949866Y-40087569D01*
X70956629Y-40140478D01*
X70968671Y-40174029D01*
X70989005Y-40197016D01*
X71023097Y-40218548D01*
X71056814Y-40219680D01*
X71091543Y-40194857D01*
X71097584Y-40188325D01*
X71109417Y-40168779D01*
X71116404Y-40140386D01*
X71119727Y-40096430D01*
X71120571Y-40030192D01*
X71119125Y-39968150D01*
X71111907Y-39909042D01*
X71097006Y-39871686D01*
X71072636Y-39852152D01*
X71037008Y-39846514D01*
X71023440Y-39847635D01*
X70985430Y-39868194D01*
X70960312Y-39914299D01*
X70948248Y-39985513D01*
X70801768Y-39985513D01*
X70801833Y-39978096D01*
X70808937Y-39907882D01*
X70822815Y-39852312D01*
X70840649Y-39815301D01*
X70890855Y-39757733D01*
X70958885Y-39721962D01*
X71042158Y-39709665D01*
X71064398Y-39710331D01*
X71129891Y-39723947D01*
X71183687Y-39758249D01*
X71233057Y-39817338D01*
X71235995Y-39821722D01*
X71249287Y-39845299D01*
X71257932Y-39871949D01*
X71262904Y-39908159D01*
X71265174Y-39960413D01*
X71265678Y-40030192D01*
X71265714Y-40035200D01*
X71265701Y-40050935D01*
G36*
X70711252Y-40213000D02*
G01*
X70711651Y-40245339D01*
X70712929Y-40353455D01*
X70713185Y-40436186D01*
X70711634Y-40496426D01*
X70707490Y-40537073D01*
X70699964Y-40561023D01*
X70688271Y-40571171D01*
X70671624Y-40570414D01*
X70649236Y-40561648D01*
X70620321Y-40547769D01*
X70614142Y-40544808D01*
X70588413Y-40530311D01*
X70574976Y-40513065D01*
X70569834Y-40484308D01*
X70568990Y-40435283D01*
X70568952Y-40347257D01*
X70478276Y-40347257D01*
X70422498Y-40344815D01*
X70378640Y-40334908D01*
X70342218Y-40314886D01*
X70339503Y-40312929D01*
X70302546Y-40279869D01*
X70276826Y-40239931D01*
X70260606Y-40187657D01*
X70252148Y-40117588D01*
X70250083Y-40038430D01*
X70394857Y-40038430D01*
X70394882Y-40051697D01*
X70396261Y-40111584D01*
X70400687Y-40150732D01*
X70409461Y-40176153D01*
X70423886Y-40194857D01*
X70424784Y-40195750D01*
X70460237Y-40219952D01*
X70494596Y-40217567D01*
X70533403Y-40188260D01*
X70542895Y-40178244D01*
X70556876Y-40157708D01*
X70564760Y-40130997D01*
X70568245Y-40090499D01*
X70569029Y-40028603D01*
X70568350Y-39991130D01*
X70560983Y-39922980D01*
X70544168Y-39878330D01*
X70516234Y-39853926D01*
X70475509Y-39846514D01*
X70458350Y-39848094D01*
X70428660Y-39863766D01*
X70409031Y-39898691D01*
X70398188Y-39955901D01*
X70394857Y-40038430D01*
X70250083Y-40038430D01*
X70249714Y-40024267D01*
X70250253Y-39956169D01*
X70252707Y-39904587D01*
X70258158Y-39868816D01*
X70267686Y-39842015D01*
X70282371Y-39817338D01*
X70295852Y-39798480D01*
X70344799Y-39747568D01*
X70400256Y-39719918D01*
X70469928Y-39711165D01*
X70549664Y-39719890D01*
X70618595Y-39751185D01*
X70673113Y-39806381D01*
X70677223Y-39812224D01*
X70686808Y-39827753D01*
X70694151Y-39845498D01*
X70699612Y-39869290D01*
X70703550Y-39902958D01*
X70706323Y-39950333D01*
X70708292Y-40015245D01*
X70708528Y-40028603D01*
X70709815Y-40101524D01*
X70711252Y-40213000D01*
G37*
X70711252Y-40213000D02*
X70711651Y-40245339D01*
X70712929Y-40353455D01*
X70713185Y-40436186D01*
X70711634Y-40496426D01*
X70707490Y-40537073D01*
X70699964Y-40561023D01*
X70688271Y-40571171D01*
X70671624Y-40570414D01*
X70649236Y-40561648D01*
X70620321Y-40547769D01*
X70614142Y-40544808D01*
X70588413Y-40530311D01*
X70574976Y-40513065D01*
X70569834Y-40484308D01*
X70568990Y-40435283D01*
X70568952Y-40347257D01*
X70478276Y-40347257D01*
X70422498Y-40344815D01*
X70378640Y-40334908D01*
X70342218Y-40314886D01*
X70339503Y-40312929D01*
X70302546Y-40279869D01*
X70276826Y-40239931D01*
X70260606Y-40187657D01*
X70252148Y-40117588D01*
X70250083Y-40038430D01*
X70394857Y-40038430D01*
X70394882Y-40051697D01*
X70396261Y-40111584D01*
X70400687Y-40150732D01*
X70409461Y-40176153D01*
X70423886Y-40194857D01*
X70424784Y-40195750D01*
X70460237Y-40219952D01*
X70494596Y-40217567D01*
X70533403Y-40188260D01*
X70542895Y-40178244D01*
X70556876Y-40157708D01*
X70564760Y-40130997D01*
X70568245Y-40090499D01*
X70569029Y-40028603D01*
X70568350Y-39991130D01*
X70560983Y-39922980D01*
X70544168Y-39878330D01*
X70516234Y-39853926D01*
X70475509Y-39846514D01*
X70458350Y-39848094D01*
X70428660Y-39863766D01*
X70409031Y-39898691D01*
X70398188Y-39955901D01*
X70394857Y-40038430D01*
X70250083Y-40038430D01*
X70249714Y-40024267D01*
X70250253Y-39956169D01*
X70252707Y-39904587D01*
X70258158Y-39868816D01*
X70267686Y-39842015D01*
X70282371Y-39817338D01*
X70295852Y-39798480D01*
X70344799Y-39747568D01*
X70400256Y-39719918D01*
X70469928Y-39711165D01*
X70549664Y-39719890D01*
X70618595Y-39751185D01*
X70673113Y-39806381D01*
X70677223Y-39812224D01*
X70686808Y-39827753D01*
X70694151Y-39845498D01*
X70699612Y-39869290D01*
X70703550Y-39902958D01*
X70706323Y-39950333D01*
X70708292Y-40015245D01*
X70708528Y-40028603D01*
X70709815Y-40101524D01*
X70711252Y-40213000D01*
G36*
X67229537Y-40106313D02*
G01*
X67221345Y-40183462D01*
X67203519Y-40241276D01*
X67173975Y-40285422D01*
X67130625Y-40321568D01*
X67089332Y-40342463D01*
X67019987Y-40354090D01*
X66950736Y-40341377D01*
X66888145Y-40305945D01*
X66838779Y-40249418D01*
X66832818Y-40238995D01*
X66824945Y-40220733D01*
X66819106Y-40197429D01*
X66814999Y-40165085D01*
X66812325Y-40119704D01*
X66810781Y-40057287D01*
X66810734Y-40051748D01*
X66911429Y-40051748D01*
X66911772Y-40104577D01*
X66913942Y-40152362D01*
X66919307Y-40183209D01*
X66929217Y-40203935D01*
X66945021Y-40221356D01*
X66948724Y-40224705D01*
X66996299Y-40249419D01*
X67046635Y-40246890D01*
X67093517Y-40217288D01*
X67107477Y-40201953D01*
X67119160Y-40181622D01*
X67125686Y-40153514D01*
X67128524Y-40110550D01*
X67129143Y-40045647D01*
X67128837Y-39996122D01*
X67126722Y-39947782D01*
X67121390Y-39916587D01*
X67111460Y-39895647D01*
X67095550Y-39878073D01*
X67086204Y-39870159D01*
X67037776Y-39848843D01*
X66987040Y-39852198D01*
X66942987Y-39880107D01*
X66933504Y-39891173D01*
X66921939Y-39912009D01*
X66915252Y-39941106D01*
X66912173Y-39985381D01*
X66911429Y-40051748D01*
X66810734Y-40051748D01*
X66810067Y-39973837D01*
X66809883Y-39865358D01*
X66809829Y-39528601D01*
X66857000Y-39548362D01*
X66869472Y-39553770D01*
X66889324Y-39565985D01*
X66900687Y-39584482D01*
X66906933Y-39616829D01*
X66911429Y-39670593D01*
X66915535Y-39718866D01*
X66920963Y-39750557D01*
X66928739Y-39762383D01*
X66940457Y-39759212D01*
X66970318Y-39748067D01*
X67023684Y-39745304D01*
X67081093Y-39755625D01*
X67130625Y-39777861D01*
X67157876Y-39798443D01*
X67192865Y-39838600D01*
X67215274Y-39890086D01*
X67227190Y-39958568D01*
X67230542Y-40045647D01*
X67230698Y-40049714D01*
X67229537Y-40106313D01*
G37*
X67229537Y-40106313D02*
X67221345Y-40183462D01*
X67203519Y-40241276D01*
X67173975Y-40285422D01*
X67130625Y-40321568D01*
X67089332Y-40342463D01*
X67019987Y-40354090D01*
X66950736Y-40341377D01*
X66888145Y-40305945D01*
X66838779Y-40249418D01*
X66832818Y-40238995D01*
X66824945Y-40220733D01*
X66819106Y-40197429D01*
X66814999Y-40165085D01*
X66812325Y-40119704D01*
X66810781Y-40057287D01*
X66810734Y-40051748D01*
X66911429Y-40051748D01*
X66911772Y-40104577D01*
X66913942Y-40152362D01*
X66919307Y-40183209D01*
X66929217Y-40203935D01*
X66945021Y-40221356D01*
X66948724Y-40224705D01*
X66996299Y-40249419D01*
X67046635Y-40246890D01*
X67093517Y-40217288D01*
X67107477Y-40201953D01*
X67119160Y-40181622D01*
X67125686Y-40153514D01*
X67128524Y-40110550D01*
X67129143Y-40045647D01*
X67128837Y-39996122D01*
X67126722Y-39947782D01*
X67121390Y-39916587D01*
X67111460Y-39895647D01*
X67095550Y-39878073D01*
X67086204Y-39870159D01*
X67037776Y-39848843D01*
X66987040Y-39852198D01*
X66942987Y-39880107D01*
X66933504Y-39891173D01*
X66921939Y-39912009D01*
X66915252Y-39941106D01*
X66912173Y-39985381D01*
X66911429Y-40051748D01*
X66810734Y-40051748D01*
X66810067Y-39973837D01*
X66809883Y-39865358D01*
X66809829Y-39528601D01*
X66857000Y-39548362D01*
X66869472Y-39553770D01*
X66889324Y-39565985D01*
X66900687Y-39584482D01*
X66906933Y-39616829D01*
X66911429Y-39670593D01*
X66915535Y-39718866D01*
X66920963Y-39750557D01*
X66928739Y-39762383D01*
X66940457Y-39759212D01*
X66970318Y-39748067D01*
X67023684Y-39745304D01*
X67081093Y-39755625D01*
X67130625Y-39777861D01*
X67157876Y-39798443D01*
X67192865Y-39838600D01*
X67215274Y-39890086D01*
X67227190Y-39958568D01*
X67230542Y-40045647D01*
X67230698Y-40049714D01*
X67229537Y-40106313D01*
G36*
X68678543Y-39549444D02*
G01*
X68725714Y-39569342D01*
X68725714Y-39966509D01*
X68725519Y-40069498D01*
X68724998Y-40162141D01*
X68724199Y-40240700D01*
X68723172Y-40301439D01*
X68721963Y-40340623D01*
X68720623Y-40354514D01*
X68720099Y-40354468D01*
X68702287Y-40349420D01*
X68669823Y-40338580D01*
X68624114Y-40322646D01*
X68624114Y-40118173D01*
X68623824Y-40037832D01*
X68622474Y-39979562D01*
X68619369Y-39939909D01*
X68613812Y-39913618D01*
X68605107Y-39895436D01*
X68592556Y-39880107D01*
X68583999Y-39871955D01*
X68537728Y-39849375D01*
X68486728Y-39851375D01*
X68439993Y-39878073D01*
X68433189Y-39884698D01*
X68422293Y-39898456D01*
X68414836Y-39916642D01*
X68410169Y-39944177D01*
X68407642Y-39985981D01*
X68406602Y-40046973D01*
X68406400Y-40132073D01*
X68406303Y-40175234D01*
X68405674Y-40246224D01*
X68404556Y-40303076D01*
X68403063Y-40340828D01*
X68401309Y-40354514D01*
X68400785Y-40354468D01*
X68382973Y-40349420D01*
X68350509Y-40338580D01*
X68304800Y-40322646D01*
X68304823Y-40117237D01*
X68304857Y-40098951D01*
X68306778Y-40003626D01*
X68312678Y-39931543D01*
X68324001Y-39877813D01*
X68342187Y-39837549D01*
X68368679Y-39805861D01*
X68404918Y-39777861D01*
X68440263Y-39760333D01*
X68496773Y-39746785D01*
X68552356Y-39746015D01*
X68595086Y-39759195D01*
X68598298Y-39761015D01*
X68608205Y-39760820D01*
X68614975Y-39745572D01*
X68619861Y-39710613D01*
X68624114Y-39651289D01*
X68631371Y-39529547D01*
X68678543Y-39549444D01*
G37*
X68678543Y-39549444D02*
X68725714Y-39569342D01*
X68725714Y-39966509D01*
X68725519Y-40069498D01*
X68724998Y-40162141D01*
X68724199Y-40240700D01*
X68723172Y-40301439D01*
X68721963Y-40340623D01*
X68720623Y-40354514D01*
X68720099Y-40354468D01*
X68702287Y-40349420D01*
X68669823Y-40338580D01*
X68624114Y-40322646D01*
X68624114Y-40118173D01*
X68623824Y-40037832D01*
X68622474Y-39979562D01*
X68619369Y-39939909D01*
X68613812Y-39913618D01*
X68605107Y-39895436D01*
X68592556Y-39880107D01*
X68583999Y-39871955D01*
X68537728Y-39849375D01*
X68486728Y-39851375D01*
X68439993Y-39878073D01*
X68433189Y-39884698D01*
X68422293Y-39898456D01*
X68414836Y-39916642D01*
X68410169Y-39944177D01*
X68407642Y-39985981D01*
X68406602Y-40046973D01*
X68406400Y-40132073D01*
X68406303Y-40175234D01*
X68405674Y-40246224D01*
X68404556Y-40303076D01*
X68403063Y-40340828D01*
X68401309Y-40354514D01*
X68400785Y-40354468D01*
X68382973Y-40349420D01*
X68350509Y-40338580D01*
X68304800Y-40322646D01*
X68304823Y-40117237D01*
X68304857Y-40098951D01*
X68306778Y-40003626D01*
X68312678Y-39931543D01*
X68324001Y-39877813D01*
X68342187Y-39837549D01*
X68368679Y-39805861D01*
X68404918Y-39777861D01*
X68440263Y-39760333D01*
X68496773Y-39746785D01*
X68552356Y-39746015D01*
X68595086Y-39759195D01*
X68598298Y-39761015D01*
X68608205Y-39760820D01*
X68614975Y-39745572D01*
X68619861Y-39710613D01*
X68624114Y-39651289D01*
X68631371Y-39529547D01*
X68678543Y-39549444D01*
G36*
X67607691Y-39766467D02*
G01*
X67612273Y-39769003D01*
X67649704Y-39798057D01*
X67683170Y-39835410D01*
X67689007Y-39843852D01*
X67700165Y-39863553D01*
X67708136Y-39886935D01*
X67713618Y-39919067D01*
X67717307Y-39965019D01*
X67719899Y-40029859D01*
X67722092Y-40118657D01*
X67722402Y-40133669D01*
X67723400Y-40230999D01*
X67721994Y-40299934D01*
X67718164Y-40340948D01*
X67711889Y-40354514D01*
X67692898Y-40350452D01*
X67660638Y-40338144D01*
X67653041Y-40334545D01*
X67641176Y-40326398D01*
X67632994Y-40313004D01*
X67627643Y-40289608D01*
X67624269Y-40251455D01*
X67622019Y-40193790D01*
X67620040Y-40111857D01*
X67619498Y-40087907D01*
X67617403Y-40012266D01*
X67614683Y-39959328D01*
X67610515Y-39924075D01*
X67604079Y-39901487D01*
X67594550Y-39886544D01*
X67581106Y-39874227D01*
X67541305Y-39852634D01*
X67492341Y-39848476D01*
X67448529Y-39864999D01*
X67417008Y-39899210D01*
X67404914Y-39948114D01*
X67404578Y-39961407D01*
X67397972Y-39985472D01*
X67378470Y-39989144D01*
X67340283Y-39974813D01*
X67331438Y-39970217D01*
X67307534Y-39943186D01*
X67307061Y-39902994D01*
X67329836Y-39847409D01*
X67350727Y-39817117D01*
X67404142Y-39774084D01*
X67470074Y-39749755D01*
X67540574Y-39746443D01*
X67607691Y-39766467D01*
G37*
X67607691Y-39766467D02*
X67612273Y-39769003D01*
X67649704Y-39798057D01*
X67683170Y-39835410D01*
X67689007Y-39843852D01*
X67700165Y-39863553D01*
X67708136Y-39886935D01*
X67713618Y-39919067D01*
X67717307Y-39965019D01*
X67719899Y-40029859D01*
X67722092Y-40118657D01*
X67722402Y-40133669D01*
X67723400Y-40230999D01*
X67721994Y-40299934D01*
X67718164Y-40340948D01*
X67711889Y-40354514D01*
X67692898Y-40350452D01*
X67660638Y-40338144D01*
X67653041Y-40334545D01*
X67641176Y-40326398D01*
X67632994Y-40313004D01*
X67627643Y-40289608D01*
X67624269Y-40251455D01*
X67622019Y-40193790D01*
X67620040Y-40111857D01*
X67619498Y-40087907D01*
X67617403Y-40012266D01*
X67614683Y-39959328D01*
X67610515Y-39924075D01*
X67604079Y-39901487D01*
X67594550Y-39886544D01*
X67581106Y-39874227D01*
X67541305Y-39852634D01*
X67492341Y-39848476D01*
X67448529Y-39864999D01*
X67417008Y-39899210D01*
X67404914Y-39948114D01*
X67404578Y-39961407D01*
X67397972Y-39985472D01*
X67378470Y-39989144D01*
X67340283Y-39974813D01*
X67331438Y-39970217D01*
X67307534Y-39943186D01*
X67307061Y-39902994D01*
X67329836Y-39847409D01*
X67350727Y-39817117D01*
X67404142Y-39774084D01*
X67470074Y-39749755D01*
X67540574Y-39746443D01*
X67607691Y-39766467D01*
G36*
X65482829Y-39751097D02*
G01*
X65542753Y-39773355D01*
X65567673Y-39790080D01*
X65592910Y-39814043D01*
X65610912Y-39844526D01*
X65622858Y-39886023D01*
X65629930Y-39943032D01*
X65633308Y-40020047D01*
X65634171Y-40121565D01*
X65634002Y-40174027D01*
X65633153Y-40245715D01*
X65631711Y-40302925D01*
X65629814Y-40340809D01*
X65627597Y-40354514D01*
X65613172Y-40349981D01*
X65584054Y-40337670D01*
X65583181Y-40337272D01*
X65568060Y-40329356D01*
X65557891Y-40318495D01*
X65551691Y-40299471D01*
X65548478Y-40267069D01*
X65547270Y-40216071D01*
X65547086Y-40141261D01*
X65546714Y-40093804D01*
X65542750Y-40004615D01*
X65533673Y-39939287D01*
X65518524Y-39894393D01*
X65496345Y-39866507D01*
X65466175Y-39852203D01*
X65461990Y-39851206D01*
X65405480Y-39850427D01*
X65361410Y-39875744D01*
X65330972Y-39926502D01*
X65325544Y-39941175D01*
X65313171Y-39973649D01*
X65306905Y-39988572D01*
X65294036Y-39986516D01*
X65265933Y-39975357D01*
X65239721Y-39956927D01*
X65227771Y-39922098D01*
X65231336Y-39897151D01*
X65253235Y-39846547D01*
X65288644Y-39799128D01*
X65330052Y-39766334D01*
X65347400Y-39758752D01*
X65413089Y-39746076D01*
X65482829Y-39751097D01*
G37*
X65482829Y-39751097D02*
X65542753Y-39773355D01*
X65567673Y-39790080D01*
X65592910Y-39814043D01*
X65610912Y-39844526D01*
X65622858Y-39886023D01*
X65629930Y-39943032D01*
X65633308Y-40020047D01*
X65634171Y-40121565D01*
X65634002Y-40174027D01*
X65633153Y-40245715D01*
X65631711Y-40302925D01*
X65629814Y-40340809D01*
X65627597Y-40354514D01*
X65613172Y-40349981D01*
X65584054Y-40337670D01*
X65583181Y-40337272D01*
X65568060Y-40329356D01*
X65557891Y-40318495D01*
X65551691Y-40299471D01*
X65548478Y-40267069D01*
X65547270Y-40216071D01*
X65547086Y-40141261D01*
X65546714Y-40093804D01*
X65542750Y-40004615D01*
X65533673Y-39939287D01*
X65518524Y-39894393D01*
X65496345Y-39866507D01*
X65466175Y-39852203D01*
X65461990Y-39851206D01*
X65405480Y-39850427D01*
X65361410Y-39875744D01*
X65330972Y-39926502D01*
X65325544Y-39941175D01*
X65313171Y-39973649D01*
X65306905Y-39988572D01*
X65294036Y-39986516D01*
X65265933Y-39975357D01*
X65239721Y-39956927D01*
X65227771Y-39922098D01*
X65231336Y-39897151D01*
X65253235Y-39846547D01*
X65288644Y-39799128D01*
X65330052Y-39766334D01*
X65347400Y-39758752D01*
X65413089Y-39746076D01*
X65482829Y-39751097D01*
G36*
X70157684Y-40104078D02*
G01*
X70155078Y-40127387D01*
X70135660Y-40210352D01*
X70100573Y-40273448D01*
X70047212Y-40321808D01*
X70044196Y-40323804D01*
X69976362Y-40352185D01*
X69905535Y-40354711D01*
X69837289Y-40333097D01*
X69777196Y-40289062D01*
X69730829Y-40224322D01*
X69730050Y-40222761D01*
X69714643Y-40182558D01*
X69703357Y-40136866D01*
X69697370Y-40093972D01*
X69697861Y-40062160D01*
X69706007Y-40049714D01*
X69713244Y-40050471D01*
X69747851Y-40064235D01*
X69787078Y-40089546D01*
X69820448Y-40118845D01*
X69837483Y-40144572D01*
X69855192Y-40179471D01*
X69891485Y-40211212D01*
X69933630Y-40223886D01*
X69949077Y-40220221D01*
X69979569Y-40201774D01*
X70006128Y-40176166D01*
X70017486Y-40152934D01*
X70017482Y-40152848D01*
X70004596Y-40142179D01*
X69970241Y-40122933D01*
X69919593Y-40097813D01*
X69857829Y-40069524D01*
X69857489Y-40069374D01*
X69790388Y-40039498D01*
X69745411Y-40017973D01*
X69718145Y-40001437D01*
X69704178Y-39986531D01*
X69699097Y-39969893D01*
X69698490Y-39948162D01*
X69702712Y-39907013D01*
X69846000Y-39907013D01*
X69860791Y-39919949D01*
X69897644Y-39939333D01*
X69898725Y-39939881D01*
X69942205Y-39960587D01*
X69981102Y-39977105D01*
X70005778Y-39984093D01*
X70015676Y-39974753D01*
X70017486Y-39942748D01*
X70009966Y-39902915D01*
X69983897Y-39866717D01*
X69946154Y-39847950D01*
X69904077Y-39849845D01*
X69865005Y-39875632D01*
X69849647Y-39893451D01*
X69846000Y-39907013D01*
X69702712Y-39907013D01*
X69703833Y-39896086D01*
X69730251Y-39825335D01*
X69774473Y-39769735D01*
X69831697Y-39731239D01*
X69897120Y-39711797D01*
X69965937Y-39713359D01*
X70033347Y-39737878D01*
X70094544Y-39787302D01*
X70128450Y-39836212D01*
X70152806Y-39906027D01*
X70156767Y-39942748D01*
X70162299Y-39994055D01*
X70157684Y-40104078D01*
G37*
X70157684Y-40104078D02*
X70155078Y-40127387D01*
X70135660Y-40210352D01*
X70100573Y-40273448D01*
X70047212Y-40321808D01*
X70044196Y-40323804D01*
X69976362Y-40352185D01*
X69905535Y-40354711D01*
X69837289Y-40333097D01*
X69777196Y-40289062D01*
X69730829Y-40224322D01*
X69730050Y-40222761D01*
X69714643Y-40182558D01*
X69703357Y-40136866D01*
X69697370Y-40093972D01*
X69697861Y-40062160D01*
X69706007Y-40049714D01*
X69713244Y-40050471D01*
X69747851Y-40064235D01*
X69787078Y-40089546D01*
X69820448Y-40118845D01*
X69837483Y-40144572D01*
X69855192Y-40179471D01*
X69891485Y-40211212D01*
X69933630Y-40223886D01*
X69949077Y-40220221D01*
X69979569Y-40201774D01*
X70006128Y-40176166D01*
X70017486Y-40152934D01*
X70017482Y-40152848D01*
X70004596Y-40142179D01*
X69970241Y-40122933D01*
X69919593Y-40097813D01*
X69857829Y-40069524D01*
X69857489Y-40069374D01*
X69790388Y-40039498D01*
X69745411Y-40017973D01*
X69718145Y-40001437D01*
X69704178Y-39986531D01*
X69699097Y-39969893D01*
X69698490Y-39948162D01*
X69702712Y-39907013D01*
X69846000Y-39907013D01*
X69860791Y-39919949D01*
X69897644Y-39939333D01*
X69898725Y-39939881D01*
X69942205Y-39960587D01*
X69981102Y-39977105D01*
X70005778Y-39984093D01*
X70015676Y-39974753D01*
X70017486Y-39942748D01*
X70009966Y-39902915D01*
X69983897Y-39866717D01*
X69946154Y-39847950D01*
X69904077Y-39849845D01*
X69865005Y-39875632D01*
X69849647Y-39893451D01*
X69846000Y-39907013D01*
X69702712Y-39907013D01*
X69703833Y-39896086D01*
X69730251Y-39825335D01*
X69774473Y-39769735D01*
X69831697Y-39731239D01*
X69897120Y-39711797D01*
X69965937Y-39713359D01*
X70033347Y-39737878D01*
X70094544Y-39787302D01*
X70128450Y-39836212D01*
X70152806Y-39906027D01*
X70156767Y-39942748D01*
X70162299Y-39994055D01*
X70157684Y-40104078D01*
G36*
X69431020Y-39717822D02*
G01*
X69498810Y-39749680D01*
X69554366Y-39804770D01*
X69565881Y-39822016D01*
X69575432Y-39841562D01*
X69582206Y-39866198D01*
X69586819Y-39900711D01*
X69589888Y-39949889D01*
X69592029Y-40018519D01*
X69593859Y-40111389D01*
X69598404Y-40369007D01*
X69560225Y-40354491D01*
X69525268Y-40341156D01*
X69499097Y-40328323D01*
X69482013Y-40311780D01*
X69472086Y-40286465D01*
X69467386Y-40247316D01*
X69465982Y-40189268D01*
X69465943Y-40107261D01*
X69465744Y-40041895D01*
X69464559Y-39979173D01*
X69461729Y-39936334D01*
X69456609Y-39908220D01*
X69448553Y-39889675D01*
X69436914Y-39875543D01*
X69408303Y-39855600D01*
X69360239Y-39848083D01*
X69312688Y-39867079D01*
X69309550Y-39869511D01*
X69299769Y-39880748D01*
X69292553Y-39898770D01*
X69287299Y-39928026D01*
X69283402Y-39972962D01*
X69280256Y-40038028D01*
X69277257Y-40127670D01*
X69270000Y-40367697D01*
X69208314Y-40340044D01*
X69146629Y-40312391D01*
X69146629Y-40093246D01*
X69146884Y-40033711D01*
X69149086Y-39950892D01*
X69154661Y-39889227D01*
X69164941Y-39843748D01*
X69181258Y-39809484D01*
X69204943Y-39781466D01*
X69237328Y-39754723D01*
X69283907Y-39727780D01*
X69357287Y-39710191D01*
X69431020Y-39717822D01*
G37*
X69431020Y-39717822D02*
X69498810Y-39749680D01*
X69554366Y-39804770D01*
X69565881Y-39822016D01*
X69575432Y-39841562D01*
X69582206Y-39866198D01*
X69586819Y-39900711D01*
X69589888Y-39949889D01*
X69592029Y-40018519D01*
X69593859Y-40111389D01*
X69598404Y-40369007D01*
X69560225Y-40354491D01*
X69525268Y-40341156D01*
X69499097Y-40328323D01*
X69482013Y-40311780D01*
X69472086Y-40286465D01*
X69467386Y-40247316D01*
X69465982Y-40189268D01*
X69465943Y-40107261D01*
X69465744Y-40041895D01*
X69464559Y-39979173D01*
X69461729Y-39936334D01*
X69456609Y-39908220D01*
X69448553Y-39889675D01*
X69436914Y-39875543D01*
X69408303Y-39855600D01*
X69360239Y-39848083D01*
X69312688Y-39867079D01*
X69309550Y-39869511D01*
X69299769Y-39880748D01*
X69292553Y-39898770D01*
X69287299Y-39928026D01*
X69283402Y-39972962D01*
X69280256Y-40038028D01*
X69277257Y-40127670D01*
X69270000Y-40367697D01*
X69208314Y-40340044D01*
X69146629Y-40312391D01*
X69146629Y-40093246D01*
X69146884Y-40033711D01*
X69149086Y-39950892D01*
X69154661Y-39889227D01*
X69164941Y-39843748D01*
X69181258Y-39809484D01*
X69204943Y-39781466D01*
X69237328Y-39754723D01*
X69283907Y-39727780D01*
X69357287Y-39710191D01*
X69431020Y-39717822D01*
G36*
X66653941Y-39749282D02*
G01*
X66685774Y-39761758D01*
X66722743Y-39778602D01*
X66722743Y-40265196D01*
X66676812Y-40311127D01*
X66666320Y-40321427D01*
X66637255Y-40344320D01*
X66607943Y-40351735D01*
X66564326Y-40348321D01*
X66546568Y-40346114D01*
X66500767Y-40341445D01*
X66468743Y-40339585D01*
X66459244Y-40339869D01*
X66420274Y-40342948D01*
X66373160Y-40348321D01*
X66358085Y-40350168D01*
X66320110Y-40350893D01*
X66292325Y-40339429D01*
X66260674Y-40311127D01*
X66214743Y-40265196D01*
X66214743Y-40005055D01*
X66215101Y-39928180D01*
X66216216Y-39854886D01*
X66217952Y-39796850D01*
X66220167Y-39758663D01*
X66222721Y-39744914D01*
X66223256Y-39744951D01*
X66241808Y-39751793D01*
X66273153Y-39766868D01*
X66315608Y-39788822D01*
X66319604Y-40017240D01*
X66323600Y-40245657D01*
X66410686Y-40245657D01*
X66414657Y-39995286D01*
X66415916Y-39927227D01*
X66417718Y-39854482D01*
X66419671Y-39796730D01*
X66421612Y-39758648D01*
X66423377Y-39744914D01*
X66423885Y-39744962D01*
X66441482Y-39750015D01*
X66473834Y-39760849D01*
X66519543Y-39776783D01*
X66519765Y-39996706D01*
X66519988Y-40034909D01*
X66521531Y-40109146D01*
X66524292Y-40171145D01*
X66527977Y-40215308D01*
X66532292Y-40236041D01*
X66547732Y-40247131D01*
X66579241Y-40250556D01*
X66613886Y-40245657D01*
X66617857Y-39995286D01*
X66619278Y-39931663D01*
X66622225Y-39856356D01*
X66626079Y-39797286D01*
X66630542Y-39758718D01*
X66635317Y-39744914D01*
X66653941Y-39749282D01*
G37*
X66653941Y-39749282D02*
X66685774Y-39761758D01*
X66722743Y-39778602D01*
X66722743Y-40265196D01*
X66676812Y-40311127D01*
X66666320Y-40321427D01*
X66637255Y-40344320D01*
X66607943Y-40351735D01*
X66564326Y-40348321D01*
X66546568Y-40346114D01*
X66500767Y-40341445D01*
X66468743Y-40339585D01*
X66459244Y-40339869D01*
X66420274Y-40342948D01*
X66373160Y-40348321D01*
X66358085Y-40350168D01*
X66320110Y-40350893D01*
X66292325Y-40339429D01*
X66260674Y-40311127D01*
X66214743Y-40265196D01*
X66214743Y-40005055D01*
X66215101Y-39928180D01*
X66216216Y-39854886D01*
X66217952Y-39796850D01*
X66220167Y-39758663D01*
X66222721Y-39744914D01*
X66223256Y-39744951D01*
X66241808Y-39751793D01*
X66273153Y-39766868D01*
X66315608Y-39788822D01*
X66319604Y-40017240D01*
X66323600Y-40245657D01*
X66410686Y-40245657D01*
X66414657Y-39995286D01*
X66415916Y-39927227D01*
X66417718Y-39854482D01*
X66419671Y-39796730D01*
X66421612Y-39758648D01*
X66423377Y-39744914D01*
X66423885Y-39744962D01*
X66441482Y-39750015D01*
X66473834Y-39760849D01*
X66519543Y-39776783D01*
X66519765Y-39996706D01*
X66519988Y-40034909D01*
X66521531Y-40109146D01*
X66524292Y-40171145D01*
X66527977Y-40215308D01*
X66532292Y-40236041D01*
X66547732Y-40247131D01*
X66579241Y-40250556D01*
X66613886Y-40245657D01*
X66617857Y-39995286D01*
X66619278Y-39931663D01*
X66622225Y-39856356D01*
X66626079Y-39797286D01*
X66630542Y-39758718D01*
X66635317Y-39744914D01*
X66653941Y-39749282D01*
G36*
X65967495Y-39746220D02*
G01*
X65998599Y-39754121D01*
X66027559Y-39773817D01*
X66064831Y-39810484D01*
X66088801Y-39836378D01*
X66113770Y-39869997D01*
X66125031Y-39901506D01*
X66127657Y-39941485D01*
X66127657Y-40006917D01*
X66083035Y-39983842D01*
X66047673Y-39955724D01*
X66023451Y-39917848D01*
X66019291Y-39907551D01*
X65987594Y-39867637D01*
X65943554Y-39847624D01*
X65895531Y-39849572D01*
X65851886Y-39875543D01*
X65833420Y-39896635D01*
X65822663Y-39923619D01*
X65834178Y-39947634D01*
X65869981Y-39971791D01*
X65932090Y-39999199D01*
X65941515Y-40002985D01*
X65998058Y-40027759D01*
X66046580Y-40052189D01*
X66077451Y-40071486D01*
X66108371Y-40105953D01*
X66128927Y-40160957D01*
X66126744Y-40219983D01*
X66102424Y-40275845D01*
X66056568Y-40321355D01*
X66019438Y-40340727D01*
X65947711Y-40354292D01*
X65907852Y-40352462D01*
X65870953Y-40342568D01*
X65856797Y-40321806D01*
X65862091Y-40287613D01*
X65863631Y-40283092D01*
X65875842Y-40259116D01*
X65896174Y-40250042D01*
X65934908Y-40250649D01*
X65962257Y-40251474D01*
X65994257Y-40244392D01*
X66016182Y-40223219D01*
X66028670Y-40197152D01*
X66030062Y-40169845D01*
X66029998Y-40169685D01*
X66013807Y-40154930D01*
X65979155Y-40133457D01*
X65934321Y-40109458D01*
X65887582Y-40087125D01*
X65847217Y-40070652D01*
X65821504Y-40064229D01*
X65817679Y-40070518D01*
X65812864Y-40100115D01*
X65809566Y-40148447D01*
X65808343Y-40209372D01*
X65808058Y-40251542D01*
X65806718Y-40304653D01*
X65804528Y-40341025D01*
X65801769Y-40354514D01*
X65787344Y-40349981D01*
X65758226Y-40337670D01*
X65721257Y-40320826D01*
X65721257Y-40104721D01*
X65721493Y-40049327D01*
X65723729Y-39965207D01*
X65729423Y-39902800D01*
X65739903Y-39857358D01*
X65756497Y-39824133D01*
X65780531Y-39798378D01*
X65813333Y-39775344D01*
X65855124Y-39756335D01*
X65932287Y-39744914D01*
X65967495Y-39746220D01*
G37*
X65967495Y-39746220D02*
X65998599Y-39754121D01*
X66027559Y-39773817D01*
X66064831Y-39810484D01*
X66088801Y-39836378D01*
X66113770Y-39869997D01*
X66125031Y-39901506D01*
X66127657Y-39941485D01*
X66127657Y-40006917D01*
X66083035Y-39983842D01*
X66047673Y-39955724D01*
X66023451Y-39917848D01*
X66019291Y-39907551D01*
X65987594Y-39867637D01*
X65943554Y-39847624D01*
X65895531Y-39849572D01*
X65851886Y-39875543D01*
X65833420Y-39896635D01*
X65822663Y-39923619D01*
X65834178Y-39947634D01*
X65869981Y-39971791D01*
X65932090Y-39999199D01*
X65941515Y-40002985D01*
X65998058Y-40027759D01*
X66046580Y-40052189D01*
X66077451Y-40071486D01*
X66108371Y-40105953D01*
X66128927Y-40160957D01*
X66126744Y-40219983D01*
X66102424Y-40275845D01*
X66056568Y-40321355D01*
X66019438Y-40340727D01*
X65947711Y-40354292D01*
X65907852Y-40352462D01*
X65870953Y-40342568D01*
X65856797Y-40321806D01*
X65862091Y-40287613D01*
X65863631Y-40283092D01*
X65875842Y-40259116D01*
X65896174Y-40250042D01*
X65934908Y-40250649D01*
X65962257Y-40251474D01*
X65994257Y-40244392D01*
X66016182Y-40223219D01*
X66028670Y-40197152D01*
X66030062Y-40169845D01*
X66029998Y-40169685D01*
X66013807Y-40154930D01*
X65979155Y-40133457D01*
X65934321Y-40109458D01*
X65887582Y-40087125D01*
X65847217Y-40070652D01*
X65821504Y-40064229D01*
X65817679Y-40070518D01*
X65812864Y-40100115D01*
X65809566Y-40148447D01*
X65808343Y-40209372D01*
X65808058Y-40251542D01*
X65806718Y-40304653D01*
X65804528Y-40341025D01*
X65801769Y-40354514D01*
X65787344Y-40349981D01*
X65758226Y-40337670D01*
X65721257Y-40320826D01*
X65721257Y-40104721D01*
X65721493Y-40049327D01*
X65723729Y-39965207D01*
X65729423Y-39902800D01*
X65739903Y-39857358D01*
X65756497Y-39824133D01*
X65780531Y-39798378D01*
X65813333Y-39775344D01*
X65855124Y-39756335D01*
X65932287Y-39744914D01*
X65967495Y-39746220D01*
G36*
X68089483Y-39760569D02*
G01*
X68139376Y-39789661D01*
X68161325Y-39812327D01*
X68203504Y-39880082D01*
X68217714Y-39953950D01*
X68217714Y-40004770D01*
X68170999Y-39985128D01*
X68138692Y-39965308D01*
X68113231Y-39924160D01*
X68110616Y-39915675D01*
X68082478Y-39872451D01*
X68040067Y-39849103D01*
X67991370Y-39848100D01*
X67944373Y-39871914D01*
X67937357Y-39878056D01*
X67913893Y-39904745D01*
X67910019Y-39928014D01*
X67927768Y-39950862D01*
X67969179Y-39976287D01*
X68036286Y-40007288D01*
X68040824Y-40009252D01*
X68115322Y-40043990D01*
X68166203Y-40074763D01*
X68197525Y-40105488D01*
X68213343Y-40140082D01*
X68217714Y-40182462D01*
X68211986Y-40229446D01*
X68183062Y-40289585D01*
X68132178Y-40332788D01*
X68095374Y-40345759D01*
X68043434Y-40352856D01*
X67992999Y-40351340D01*
X67956983Y-40340632D01*
X67953158Y-40337966D01*
X67942998Y-40319337D01*
X67950048Y-40286505D01*
X67962297Y-40260735D01*
X67981939Y-40250006D01*
X68019191Y-40250539D01*
X68070908Y-40247462D01*
X68104701Y-40226212D01*
X68116114Y-40186877D01*
X68116104Y-40185747D01*
X68109187Y-40162913D01*
X68085659Y-40141963D01*
X68039914Y-40117815D01*
X67977704Y-40088741D01*
X67936499Y-40072925D01*
X67912712Y-40073944D01*
X67901597Y-40094837D01*
X67898408Y-40138641D01*
X67898400Y-40208393D01*
X67898044Y-40251452D01*
X67896413Y-40304626D01*
X67893761Y-40341022D01*
X67890422Y-40354514D01*
X67889530Y-40354423D01*
X67870237Y-40347110D01*
X67838284Y-40331678D01*
X67794124Y-40308842D01*
X67799371Y-40103078D01*
X67799736Y-40089432D01*
X67803904Y-39993651D01*
X67811268Y-39921462D01*
X67823330Y-39868058D01*
X67841593Y-39828633D01*
X67867560Y-39798380D01*
X67902733Y-39772493D01*
X67903384Y-39772087D01*
X67960256Y-39750968D01*
X68026033Y-39747400D01*
X68089483Y-39760569D01*
G37*
X68089483Y-39760569D02*
X68139376Y-39789661D01*
X68161325Y-39812327D01*
X68203504Y-39880082D01*
X68217714Y-39953950D01*
X68217714Y-40004770D01*
X68170999Y-39985128D01*
X68138692Y-39965308D01*
X68113231Y-39924160D01*
X68110616Y-39915675D01*
X68082478Y-39872451D01*
X68040067Y-39849103D01*
X67991370Y-39848100D01*
X67944373Y-39871914D01*
X67937357Y-39878056D01*
X67913893Y-39904745D01*
X67910019Y-39928014D01*
X67927768Y-39950862D01*
X67969179Y-39976287D01*
X68036286Y-40007288D01*
X68040824Y-40009252D01*
X68115322Y-40043990D01*
X68166203Y-40074763D01*
X68197525Y-40105488D01*
X68213343Y-40140082D01*
X68217714Y-40182462D01*
X68211986Y-40229446D01*
X68183062Y-40289585D01*
X68132178Y-40332788D01*
X68095374Y-40345759D01*
X68043434Y-40352856D01*
X67992999Y-40351340D01*
X67956983Y-40340632D01*
X67953158Y-40337966D01*
X67942998Y-40319337D01*
X67950048Y-40286505D01*
X67962297Y-40260735D01*
X67981939Y-40250006D01*
X68019191Y-40250539D01*
X68070908Y-40247462D01*
X68104701Y-40226212D01*
X68116114Y-40186877D01*
X68116104Y-40185747D01*
X68109187Y-40162913D01*
X68085659Y-40141963D01*
X68039914Y-40117815D01*
X67977704Y-40088741D01*
X67936499Y-40072925D01*
X67912712Y-40073944D01*
X67901597Y-40094837D01*
X67898408Y-40138641D01*
X67898400Y-40208393D01*
X67898044Y-40251452D01*
X67896413Y-40304626D01*
X67893761Y-40341022D01*
X67890422Y-40354514D01*
X67889530Y-40354423D01*
X67870237Y-40347110D01*
X67838284Y-40331678D01*
X67794124Y-40308842D01*
X67799371Y-40103078D01*
X67799736Y-40089432D01*
X67803904Y-39993651D01*
X67811268Y-39921462D01*
X67823330Y-39868058D01*
X67841593Y-39828633D01*
X67867560Y-39798380D01*
X67902733Y-39772493D01*
X67903384Y-39772087D01*
X67960256Y-39750968D01*
X68026033Y-39747400D01*
X68089483Y-39760569D01*
G36*
X68113933Y-35042371D02*
G01*
X68189856Y-35042865D01*
X68244491Y-35044135D01*
X68281500Y-35046547D01*
X68304547Y-35050467D01*
X68317296Y-35056262D01*
X68323411Y-35064299D01*
X68326556Y-35074943D01*
X68326646Y-35075325D01*
X68331814Y-35100347D01*
X68341209Y-35148681D01*
X68353867Y-35215260D01*
X68368825Y-35295014D01*
X68385119Y-35382875D01*
X68386448Y-35390064D01*
X68402691Y-35475340D01*
X68417805Y-35550242D01*
X68430808Y-35610219D01*
X68440715Y-35650717D01*
X68446544Y-35667184D01*
X68446575Y-35667210D01*
X68464943Y-35676320D01*
X68502640Y-35691457D01*
X68551543Y-35709358D01*
X68554297Y-35710330D01*
X68616817Y-35733959D01*
X68689543Y-35763595D01*
X68757294Y-35793062D01*
X68868703Y-35843626D01*
X69115399Y-35675160D01*
X69132775Y-35663311D01*
X69207202Y-35612947D01*
X69273614Y-35568612D01*
X69328039Y-35532916D01*
X69366506Y-35508471D01*
X69385042Y-35497889D01*
X69397743Y-35500315D01*
X69426579Y-35519110D01*
X69471143Y-35556330D01*
X69532670Y-35613020D01*
X69612398Y-35690227D01*
X69619532Y-35697255D01*
X69682796Y-35760222D01*
X69738990Y-35817268D01*
X69784677Y-35864817D01*
X69816414Y-35899297D01*
X69830764Y-35917131D01*
X69830810Y-35917217D01*
X69832633Y-35930795D01*
X69825910Y-35952820D01*
X69808946Y-35986304D01*
X69780044Y-36034261D01*
X69737508Y-36099704D01*
X69679644Y-36185645D01*
X69669783Y-36200151D01*
X69619913Y-36273635D01*
X69575905Y-36338687D01*
X69540380Y-36391417D01*
X69515959Y-36427936D01*
X69505264Y-36444356D01*
X69504458Y-36447834D01*
X69509518Y-36473785D01*
X69524677Y-36516159D01*
X69547463Y-36567728D01*
X69578429Y-36635170D01*
X69613004Y-36715195D01*
X69642366Y-36787629D01*
X69649645Y-36806377D01*
X69668710Y-36854246D01*
X69682715Y-36887596D01*
X69689041Y-36900114D01*
X69696025Y-36901050D01*
X69727413Y-36906461D01*
X69778787Y-36915806D01*
X69844802Y-36928069D01*
X69920113Y-36942232D01*
X69999375Y-36957280D01*
X70077243Y-36972195D01*
X70148370Y-36985961D01*
X70207412Y-36997562D01*
X70249022Y-37005980D01*
X70267857Y-37010199D01*
X70270980Y-37011389D01*
X70278591Y-37017805D01*
X70284254Y-37031465D01*
X70288251Y-37055999D01*
X70290866Y-37095038D01*
X70292384Y-37152213D01*
X70293086Y-37231154D01*
X70293257Y-37335492D01*
X70293257Y-37652799D01*
X70217057Y-37667839D01*
X70207840Y-37669642D01*
X70158891Y-37678980D01*
X70091205Y-37691669D01*
X70012478Y-37706273D01*
X69930400Y-37721355D01*
X69898078Y-37727422D01*
X69825855Y-37742181D01*
X69765666Y-37756137D01*
X69723040Y-37767952D01*
X69703510Y-37776287D01*
X69694660Y-37789905D01*
X69678548Y-37825938D01*
X69662065Y-37872572D01*
X69656263Y-37890034D01*
X69634906Y-37947358D01*
X69607359Y-38015201D01*
X69578107Y-38082355D01*
X69562463Y-38117430D01*
X69540174Y-38169822D01*
X69524857Y-38209058D01*
X69519162Y-38228563D01*
X69519478Y-38230036D01*
X69530281Y-38250729D01*
X69554638Y-38290665D01*
X69590081Y-38345972D01*
X69634136Y-38412781D01*
X69684332Y-38487220D01*
X69849501Y-38729623D01*
X69632503Y-38946983D01*
X69611516Y-38967899D01*
X69547342Y-39030505D01*
X69489990Y-39084495D01*
X69442820Y-39126826D01*
X69409192Y-39154457D01*
X69392467Y-39164343D01*
X69374303Y-39156821D01*
X69336265Y-39135227D01*
X69282726Y-39102151D01*
X69217884Y-39060191D01*
X69145940Y-39011943D01*
X69075275Y-38964291D01*
X69011526Y-38922328D01*
X68959513Y-38889165D01*
X68923279Y-38867378D01*
X68906867Y-38859543D01*
X68905905Y-38859614D01*
X68884103Y-38867338D01*
X68845440Y-38885323D01*
X68797612Y-38910013D01*
X68797110Y-38910284D01*
X68733587Y-38942099D01*
X68690060Y-38957642D01*
X68663052Y-38957685D01*
X68649090Y-38943000D01*
X68643180Y-38928544D01*
X68627229Y-38889831D01*
X68602660Y-38830316D01*
X68570779Y-38753165D01*
X68532893Y-38661541D01*
X68490310Y-38558607D01*
X68444337Y-38447526D01*
X68402667Y-38346472D01*
X68360268Y-38242780D01*
X68322756Y-38150119D01*
X68291388Y-38071642D01*
X68267425Y-38010500D01*
X68252123Y-37969843D01*
X68246743Y-37952825D01*
X68257018Y-37937219D01*
X68285563Y-37911162D01*
X68325971Y-37880887D01*
X68422979Y-37801684D01*
X68509793Y-37700475D01*
X68573322Y-37589116D01*
X68613177Y-37470893D01*
X68628965Y-37349095D01*
X68620296Y-37227010D01*
X68586778Y-37107925D01*
X68528021Y-36995129D01*
X68443632Y-36891911D01*
X68399631Y-36851713D01*
X68294211Y-36780638D01*
X68181410Y-36734301D01*
X68064525Y-36711599D01*
X67946853Y-36711428D01*
X67831690Y-36732687D01*
X67722335Y-36774270D01*
X67622083Y-36835076D01*
X67534233Y-36914001D01*
X67462080Y-37009941D01*
X67408922Y-37121795D01*
X67378057Y-37248457D01*
X67372392Y-37309507D01*
X67380185Y-37441776D01*
X67415284Y-37567266D01*
X67476649Y-37683759D01*
X67563243Y-37789039D01*
X67674029Y-37880887D01*
X67712931Y-37909930D01*
X67742104Y-37936272D01*
X67753257Y-37952800D01*
X67748810Y-37967209D01*
X67734378Y-38005815D01*
X67711173Y-38065201D01*
X67680452Y-38142215D01*
X67643474Y-38233703D01*
X67601496Y-38336516D01*
X67555778Y-38447502D01*
X67514178Y-38548072D01*
X67471222Y-38651947D01*
X67432829Y-38744819D01*
X67400305Y-38823525D01*
X67374958Y-38884899D01*
X67358095Y-38925779D01*
X67351025Y-38943000D01*
X67350943Y-38943204D01*
X67336798Y-38957745D01*
X67309659Y-38957579D01*
X67266023Y-38941927D01*
X67202388Y-38910013D01*
X67197379Y-38907326D01*
X67150125Y-38883150D01*
X67112811Y-38866037D01*
X67093133Y-38859543D01*
X67077005Y-38867218D01*
X67040959Y-38888871D01*
X66989092Y-38921928D01*
X66925445Y-38963810D01*
X66854060Y-39011943D01*
X66783724Y-39059131D01*
X66718670Y-39101267D01*
X66664820Y-39134578D01*
X66626374Y-39156469D01*
X66607534Y-39164343D01*
X66604325Y-39163343D01*
X66581954Y-39147584D01*
X66543733Y-39115033D01*
X66493021Y-39068733D01*
X66433181Y-39011726D01*
X66367571Y-38947058D01*
X66150648Y-38729772D01*
X66319601Y-38481253D01*
X66488553Y-38232733D01*
X66437183Y-38121595D01*
X66437031Y-38121266D01*
X66406183Y-38050418D01*
X66374661Y-37971523D01*
X66349266Y-37901600D01*
X66345423Y-37890322D01*
X66326047Y-37837967D01*
X66308574Y-37797283D01*
X66296388Y-37776287D01*
X66291426Y-37773322D01*
X66261634Y-37763375D01*
X66211047Y-37750505D01*
X66145194Y-37736053D01*
X66069600Y-37721355D01*
X66046957Y-37717210D01*
X65965038Y-37702116D01*
X65888600Y-37687899D01*
X65825337Y-37675995D01*
X65782943Y-37667839D01*
X65706743Y-37652799D01*
X65706743Y-37335492D01*
X65706760Y-37296476D01*
X65707082Y-37201292D01*
X65708033Y-37130255D01*
X65709896Y-37079734D01*
X65712955Y-37046098D01*
X65717494Y-37025718D01*
X65723795Y-37014962D01*
X65732143Y-37010199D01*
X65740224Y-37008270D01*
X65773172Y-37001445D01*
X65825736Y-36991022D01*
X65892569Y-36978018D01*
X65968328Y-36963449D01*
X66047665Y-36948333D01*
X66125237Y-36933685D01*
X66195698Y-36920523D01*
X66253702Y-36909863D01*
X66293904Y-36902721D01*
X66310959Y-36900114D01*
X66312112Y-36898541D01*
X66321385Y-36878119D01*
X66337432Y-36839045D01*
X66357635Y-36787629D01*
X66385672Y-36718353D01*
X66420186Y-36638290D01*
X66452538Y-36567728D01*
X66459952Y-36551889D01*
X66480755Y-36502293D01*
X66493219Y-36464038D01*
X66494863Y-36444356D01*
X66494015Y-36442962D01*
X66480548Y-36422420D01*
X66453850Y-36382516D01*
X66416539Y-36327140D01*
X66371234Y-36260177D01*
X66320552Y-36185517D01*
X66263445Y-36100692D01*
X66220607Y-36034800D01*
X66191460Y-35986478D01*
X66174317Y-35952733D01*
X66167495Y-35930572D01*
X66169306Y-35917002D01*
X66169915Y-35915984D01*
X66186297Y-35896210D01*
X66219695Y-35860175D01*
X66266671Y-35811451D01*
X66323786Y-35753612D01*
X66387603Y-35690227D01*
X66453802Y-35625905D01*
X66518648Y-35565447D01*
X66566299Y-35524655D01*
X66597990Y-35502484D01*
X66614958Y-35497889D01*
X66617175Y-35498921D01*
X66640524Y-35512837D01*
X66682912Y-35540030D01*
X66740369Y-35577889D01*
X66808923Y-35623803D01*
X66884601Y-35675160D01*
X67131298Y-35843626D01*
X67242706Y-35793062D01*
X67245943Y-35791597D01*
X67314343Y-35761965D01*
X67386907Y-35732493D01*
X67448457Y-35709358D01*
X67448729Y-35709262D01*
X67497595Y-35691367D01*
X67535212Y-35676253D01*
X67553457Y-35667184D01*
X67553752Y-35666855D01*
X67559946Y-35648282D01*
X67570139Y-35606045D01*
X67583348Y-35544696D01*
X67598590Y-35468789D01*
X67614881Y-35382875D01*
X67615449Y-35379796D01*
X67631713Y-35292128D01*
X67646608Y-35212741D01*
X67659171Y-35146701D01*
X67668438Y-35099079D01*
X67673444Y-35074943D01*
X67673764Y-35073605D01*
X67677060Y-35063273D01*
X67683738Y-35055506D01*
X67697462Y-35049940D01*
X67721895Y-35046207D01*
X67760702Y-35043942D01*
X67817546Y-35042778D01*
X67896090Y-35042348D01*
X68000000Y-35042286D01*
X68013056Y-35042286D01*
X68113933Y-35042371D01*
G37*
X68113933Y-35042371D02*
X68189856Y-35042865D01*
X68244491Y-35044135D01*
X68281500Y-35046547D01*
X68304547Y-35050467D01*
X68317296Y-35056262D01*
X68323411Y-35064299D01*
X68326556Y-35074943D01*
X68326646Y-35075325D01*
X68331814Y-35100347D01*
X68341209Y-35148681D01*
X68353867Y-35215260D01*
X68368825Y-35295014D01*
X68385119Y-35382875D01*
X68386448Y-35390064D01*
X68402691Y-35475340D01*
X68417805Y-35550242D01*
X68430808Y-35610219D01*
X68440715Y-35650717D01*
X68446544Y-35667184D01*
X68446575Y-35667210D01*
X68464943Y-35676320D01*
X68502640Y-35691457D01*
X68551543Y-35709358D01*
X68554297Y-35710330D01*
X68616817Y-35733959D01*
X68689543Y-35763595D01*
X68757294Y-35793062D01*
X68868703Y-35843626D01*
X69115399Y-35675160D01*
X69132775Y-35663311D01*
X69207202Y-35612947D01*
X69273614Y-35568612D01*
X69328039Y-35532916D01*
X69366506Y-35508471D01*
X69385042Y-35497889D01*
X69397743Y-35500315D01*
X69426579Y-35519110D01*
X69471143Y-35556330D01*
X69532670Y-35613020D01*
X69612398Y-35690227D01*
X69619532Y-35697255D01*
X69682796Y-35760222D01*
X69738990Y-35817268D01*
X69784677Y-35864817D01*
X69816414Y-35899297D01*
X69830764Y-35917131D01*
X69830810Y-35917217D01*
X69832633Y-35930795D01*
X69825910Y-35952820D01*
X69808946Y-35986304D01*
X69780044Y-36034261D01*
X69737508Y-36099704D01*
X69679644Y-36185645D01*
X69669783Y-36200151D01*
X69619913Y-36273635D01*
X69575905Y-36338687D01*
X69540380Y-36391417D01*
X69515959Y-36427936D01*
X69505264Y-36444356D01*
X69504458Y-36447834D01*
X69509518Y-36473785D01*
X69524677Y-36516159D01*
X69547463Y-36567728D01*
X69578429Y-36635170D01*
X69613004Y-36715195D01*
X69642366Y-36787629D01*
X69649645Y-36806377D01*
X69668710Y-36854246D01*
X69682715Y-36887596D01*
X69689041Y-36900114D01*
X69696025Y-36901050D01*
X69727413Y-36906461D01*
X69778787Y-36915806D01*
X69844802Y-36928069D01*
X69920113Y-36942232D01*
X69999375Y-36957280D01*
X70077243Y-36972195D01*
X70148370Y-36985961D01*
X70207412Y-36997562D01*
X70249022Y-37005980D01*
X70267857Y-37010199D01*
X70270980Y-37011389D01*
X70278591Y-37017805D01*
X70284254Y-37031465D01*
X70288251Y-37055999D01*
X70290866Y-37095038D01*
X70292384Y-37152213D01*
X70293086Y-37231154D01*
X70293257Y-37335492D01*
X70293257Y-37652799D01*
X70217057Y-37667839D01*
X70207840Y-37669642D01*
X70158891Y-37678980D01*
X70091205Y-37691669D01*
X70012478Y-37706273D01*
X69930400Y-37721355D01*
X69898078Y-37727422D01*
X69825855Y-37742181D01*
X69765666Y-37756137D01*
X69723040Y-37767952D01*
X69703510Y-37776287D01*
X69694660Y-37789905D01*
X69678548Y-37825938D01*
X69662065Y-37872572D01*
X69656263Y-37890034D01*
X69634906Y-37947358D01*
X69607359Y-38015201D01*
X69578107Y-38082355D01*
X69562463Y-38117430D01*
X69540174Y-38169822D01*
X69524857Y-38209058D01*
X69519162Y-38228563D01*
X69519478Y-38230036D01*
X69530281Y-38250729D01*
X69554638Y-38290665D01*
X69590081Y-38345972D01*
X69634136Y-38412781D01*
X69684332Y-38487220D01*
X69849501Y-38729623D01*
X69632503Y-38946983D01*
X69611516Y-38967899D01*
X69547342Y-39030505D01*
X69489990Y-39084495D01*
X69442820Y-39126826D01*
X69409192Y-39154457D01*
X69392467Y-39164343D01*
X69374303Y-39156821D01*
X69336265Y-39135227D01*
X69282726Y-39102151D01*
X69217884Y-39060191D01*
X69145940Y-39011943D01*
X69075275Y-38964291D01*
X69011526Y-38922328D01*
X68959513Y-38889165D01*
X68923279Y-38867378D01*
X68906867Y-38859543D01*
X68905905Y-38859614D01*
X68884103Y-38867338D01*
X68845440Y-38885323D01*
X68797612Y-38910013D01*
X68797110Y-38910284D01*
X68733587Y-38942099D01*
X68690060Y-38957642D01*
X68663052Y-38957685D01*
X68649090Y-38943000D01*
X68643180Y-38928544D01*
X68627229Y-38889831D01*
X68602660Y-38830316D01*
X68570779Y-38753165D01*
X68532893Y-38661541D01*
X68490310Y-38558607D01*
X68444337Y-38447526D01*
X68402667Y-38346472D01*
X68360268Y-38242780D01*
X68322756Y-38150119D01*
X68291388Y-38071642D01*
X68267425Y-38010500D01*
X68252123Y-37969843D01*
X68246743Y-37952825D01*
X68257018Y-37937219D01*
X68285563Y-37911162D01*
X68325971Y-37880887D01*
X68422979Y-37801684D01*
X68509793Y-37700475D01*
X68573322Y-37589116D01*
X68613177Y-37470893D01*
X68628965Y-37349095D01*
X68620296Y-37227010D01*
X68586778Y-37107925D01*
X68528021Y-36995129D01*
X68443632Y-36891911D01*
X68399631Y-36851713D01*
X68294211Y-36780638D01*
X68181410Y-36734301D01*
X68064525Y-36711599D01*
X67946853Y-36711428D01*
X67831690Y-36732687D01*
X67722335Y-36774270D01*
X67622083Y-36835076D01*
X67534233Y-36914001D01*
X67462080Y-37009941D01*
X67408922Y-37121795D01*
X67378057Y-37248457D01*
X67372392Y-37309507D01*
X67380185Y-37441776D01*
X67415284Y-37567266D01*
X67476649Y-37683759D01*
X67563243Y-37789039D01*
X67674029Y-37880887D01*
X67712931Y-37909930D01*
X67742104Y-37936272D01*
X67753257Y-37952800D01*
X67748810Y-37967209D01*
X67734378Y-38005815D01*
X67711173Y-38065201D01*
X67680452Y-38142215D01*
X67643474Y-38233703D01*
X67601496Y-38336516D01*
X67555778Y-38447502D01*
X67514178Y-38548072D01*
X67471222Y-38651947D01*
X67432829Y-38744819D01*
X67400305Y-38823525D01*
X67374958Y-38884899D01*
X67358095Y-38925779D01*
X67351025Y-38943000D01*
X67350943Y-38943204D01*
X67336798Y-38957745D01*
X67309659Y-38957579D01*
X67266023Y-38941927D01*
X67202388Y-38910013D01*
X67197379Y-38907326D01*
X67150125Y-38883150D01*
X67112811Y-38866037D01*
X67093133Y-38859543D01*
X67077005Y-38867218D01*
X67040959Y-38888871D01*
X66989092Y-38921928D01*
X66925445Y-38963810D01*
X66854060Y-39011943D01*
X66783724Y-39059131D01*
X66718670Y-39101267D01*
X66664820Y-39134578D01*
X66626374Y-39156469D01*
X66607534Y-39164343D01*
X66604325Y-39163343D01*
X66581954Y-39147584D01*
X66543733Y-39115033D01*
X66493021Y-39068733D01*
X66433181Y-39011726D01*
X66367571Y-38947058D01*
X66150648Y-38729772D01*
X66319601Y-38481253D01*
X66488553Y-38232733D01*
X66437183Y-38121595D01*
X66437031Y-38121266D01*
X66406183Y-38050418D01*
X66374661Y-37971523D01*
X66349266Y-37901600D01*
X66345423Y-37890322D01*
X66326047Y-37837967D01*
X66308574Y-37797283D01*
X66296388Y-37776287D01*
X66291426Y-37773322D01*
X66261634Y-37763375D01*
X66211047Y-37750505D01*
X66145194Y-37736053D01*
X66069600Y-37721355D01*
X66046957Y-37717210D01*
X65965038Y-37702116D01*
X65888600Y-37687899D01*
X65825337Y-37675995D01*
X65782943Y-37667839D01*
X65706743Y-37652799D01*
X65706743Y-37335492D01*
X65706760Y-37296476D01*
X65707082Y-37201292D01*
X65708033Y-37130255D01*
X65709896Y-37079734D01*
X65712955Y-37046098D01*
X65717494Y-37025718D01*
X65723795Y-37014962D01*
X65732143Y-37010199D01*
X65740224Y-37008270D01*
X65773172Y-37001445D01*
X65825736Y-36991022D01*
X65892569Y-36978018D01*
X65968328Y-36963449D01*
X66047665Y-36948333D01*
X66125237Y-36933685D01*
X66195698Y-36920523D01*
X66253702Y-36909863D01*
X66293904Y-36902721D01*
X66310959Y-36900114D01*
X66312112Y-36898541D01*
X66321385Y-36878119D01*
X66337432Y-36839045D01*
X66357635Y-36787629D01*
X66385672Y-36718353D01*
X66420186Y-36638290D01*
X66452538Y-36567728D01*
X66459952Y-36551889D01*
X66480755Y-36502293D01*
X66493219Y-36464038D01*
X66494863Y-36444356D01*
X66494015Y-36442962D01*
X66480548Y-36422420D01*
X66453850Y-36382516D01*
X66416539Y-36327140D01*
X66371234Y-36260177D01*
X66320552Y-36185517D01*
X66263445Y-36100692D01*
X66220607Y-36034800D01*
X66191460Y-35986478D01*
X66174317Y-35952733D01*
X66167495Y-35930572D01*
X66169306Y-35917002D01*
X66169915Y-35915984D01*
X66186297Y-35896210D01*
X66219695Y-35860175D01*
X66266671Y-35811451D01*
X66323786Y-35753612D01*
X66387603Y-35690227D01*
X66453802Y-35625905D01*
X66518648Y-35565447D01*
X66566299Y-35524655D01*
X66597990Y-35502484D01*
X66614958Y-35497889D01*
X66617175Y-35498921D01*
X66640524Y-35512837D01*
X66682912Y-35540030D01*
X66740369Y-35577889D01*
X66808923Y-35623803D01*
X66884601Y-35675160D01*
X67131298Y-35843626D01*
X67242706Y-35793062D01*
X67245943Y-35791597D01*
X67314343Y-35761965D01*
X67386907Y-35732493D01*
X67448457Y-35709358D01*
X67448729Y-35709262D01*
X67497595Y-35691367D01*
X67535212Y-35676253D01*
X67553457Y-35667184D01*
X67553752Y-35666855D01*
X67559946Y-35648282D01*
X67570139Y-35606045D01*
X67583348Y-35544696D01*
X67598590Y-35468789D01*
X67614881Y-35382875D01*
X67615449Y-35379796D01*
X67631713Y-35292128D01*
X67646608Y-35212741D01*
X67659171Y-35146701D01*
X67668438Y-35099079D01*
X67673444Y-35074943D01*
X67673764Y-35073605D01*
X67677060Y-35063273D01*
X67683738Y-35055506D01*
X67697462Y-35049940D01*
X67721895Y-35046207D01*
X67760702Y-35043942D01*
X67817546Y-35042778D01*
X67896090Y-35042348D01*
X68000000Y-35042286D01*
X68013056Y-35042286D01*
X68113933Y-35042371D01*
D10*
X53229000Y-50573000D02*
G75*
G03*
X53229000Y-50573000I-1450000J0D01*
G01*
X41480267Y-59963000D02*
X41187733Y-59963000D01*
X41480267Y-60983000D02*
X41187733Y-60983000D01*
X58666500Y-66073000D02*
G75*
G03*
X58666500Y-66073000I-1450000J0D01*
G01*
X90527752Y-72963000D02*
X89105248Y-72963000D01*
X90527752Y-74783000D02*
X89105248Y-74783000D01*
X101866500Y-64673000D02*
G75*
G03*
X101866500Y-64673000I-1450000J0D01*
G01*
X81607752Y-68763000D02*
X80185248Y-68763000D01*
X81607752Y-70583000D02*
X80185248Y-70583000D01*
X81080267Y-58563000D02*
X80787733Y-58563000D01*
X81080267Y-59583000D02*
X80787733Y-59583000D01*
X92829000Y-49173000D02*
G75*
G03*
X92829000Y-49173000I-1450000J0D01*
G01*
X89229000Y-49173000D02*
G75*
G03*
X89229000Y-49173000I-1450000J0D01*
G01*
X84146500Y-64573000D02*
G75*
G03*
X84146500Y-64573000I-1450000J0D01*
G01*
X62029000Y-50673000D02*
G75*
G03*
X62029000Y-50673000I-1450000J0D01*
G01*
X89429000Y-55473000D02*
G75*
G03*
X89429000Y-55473000I-1450000J0D01*
G01*
X98762767Y-58483000D02*
X98470233Y-58483000D01*
X98762767Y-57463000D02*
X98470233Y-57463000D01*
X98029000Y-49273000D02*
G75*
G03*
X98029000Y-49273000I-1450000J0D01*
G01*
X99327752Y-74883000D02*
X97905248Y-74883000D01*
X99327752Y-73063000D02*
X97905248Y-73063000D01*
X50362767Y-59783000D02*
X50070233Y-59783000D01*
X50362767Y-58763000D02*
X50070233Y-58763000D01*
X42007752Y-74363000D02*
X40585248Y-74363000D01*
X42007752Y-76183000D02*
X40585248Y-76183000D01*
X50400267Y-60983000D02*
X50107733Y-60983000D01*
X50400267Y-59963000D02*
X50107733Y-59963000D01*
X40909000Y-56873000D02*
G75*
G03*
X40909000Y-56873000I-1450000J0D01*
G01*
X81607752Y-72963000D02*
X80185248Y-72963000D01*
X81607752Y-74783000D02*
X80185248Y-74783000D01*
X59727752Y-76283000D02*
X58305248Y-76283000D01*
X59727752Y-74463000D02*
X58305248Y-74463000D01*
X59727752Y-72083000D02*
X58305248Y-72083000D01*
X59727752Y-70263000D02*
X58305248Y-70263000D01*
X59727752Y-74183000D02*
X58305248Y-74183000D01*
X59727752Y-72363000D02*
X58305248Y-72363000D01*
X41480267Y-62163000D02*
X41187733Y-62163000D01*
X41480267Y-63183000D02*
X41187733Y-63183000D01*
X90527752Y-66563000D02*
X89105248Y-66563000D01*
X90527752Y-68383000D02*
X89105248Y-68383000D01*
X80509000Y-55473000D02*
G75*
G03*
X80509000Y-55473000I-1450000J0D01*
G01*
X98800267Y-59763000D02*
X98507733Y-59763000D01*
X98800267Y-60783000D02*
X98507733Y-60783000D01*
X89466500Y-64573000D02*
G75*
G03*
X89466500Y-64573000I-1450000J0D01*
G01*
X80309000Y-49173000D02*
G75*
G03*
X80309000Y-49173000I-1450000J0D01*
G01*
X50927752Y-74363000D02*
X49505248Y-74363000D01*
X50927752Y-76183000D02*
X49505248Y-76183000D01*
X50927752Y-72263000D02*
X49505248Y-72263000D01*
X50927752Y-74083000D02*
X49505248Y-74083000D01*
X93066500Y-64573000D02*
G75*
G03*
X93066500Y-64573000I-1450000J0D01*
G01*
X62266500Y-66073000D02*
G75*
G03*
X62266500Y-66073000I-1450000J0D01*
G01*
X89962767Y-58383000D02*
X89670233Y-58383000D01*
X89962767Y-57363000D02*
X89670233Y-57363000D01*
X44509000Y-56873000D02*
G75*
G03*
X44509000Y-56873000I-1450000J0D01*
G01*
X101829000Y-55573000D02*
G75*
G03*
X101829000Y-55573000I-1450000J0D01*
G01*
X80546500Y-64573000D02*
G75*
G03*
X80546500Y-64573000I-1450000J0D01*
G01*
X42007752Y-72263000D02*
X40585248Y-72263000D01*
X42007752Y-74083000D02*
X40585248Y-74083000D01*
X93029000Y-55473000D02*
G75*
G03*
X93029000Y-55473000I-1450000J0D01*
G01*
X81607752Y-68383000D02*
X80185248Y-68383000D01*
X81607752Y-66563000D02*
X80185248Y-66563000D01*
X42007752Y-67963000D02*
X40585248Y-67963000D01*
X42007752Y-69783000D02*
X40585248Y-69783000D01*
X90527752Y-68763000D02*
X89105248Y-68763000D01*
X90527752Y-70583000D02*
X89105248Y-70583000D01*
G36*
X72296135Y-48230105D02*
G01*
X72295076Y-48324584D01*
X72291436Y-48390414D01*
X72283892Y-48436394D01*
X72271122Y-48471321D01*
X72251803Y-48503995D01*
X72247050Y-48510775D01*
X72196759Y-48564231D01*
X72139457Y-48604547D01*
X72110032Y-48617629D01*
X72004299Y-48639450D01*
X71899734Y-48625336D01*
X71803368Y-48577105D01*
X71722235Y-48496579D01*
X71715385Y-48485791D01*
X71693097Y-48423153D01*
X71678079Y-48335935D01*
X71670792Y-48235210D01*
X71671611Y-48142037D01*
X71868796Y-48142037D01*
X71870349Y-48271114D01*
X71870974Y-48279420D01*
X71880077Y-48350643D01*
X71896288Y-48395809D01*
X71923660Y-48426752D01*
X71969553Y-48455737D01*
X72014942Y-48457261D01*
X72061692Y-48423846D01*
X72069824Y-48415053D01*
X72085754Y-48388741D01*
X72095159Y-48350520D01*
X72099632Y-48291349D01*
X72100769Y-48202182D01*
X72098822Y-48118664D01*
X72089105Y-48039095D01*
X72069047Y-47988808D01*
X72036240Y-47962513D01*
X71988280Y-47954923D01*
X71970016Y-47956432D01*
X71918848Y-47984107D01*
X71885035Y-48046172D01*
X71868796Y-48142037D01*
X71671611Y-48142037D01*
X71671699Y-48132052D01*
X71681262Y-48037533D01*
X71699943Y-47962727D01*
X71723951Y-47912905D01*
X71791536Y-47835409D01*
X71883114Y-47787256D01*
X71995213Y-47770703D01*
X72025151Y-47771599D01*
X72113315Y-47789929D01*
X72185733Y-47836104D01*
X72252192Y-47915648D01*
X72256147Y-47921548D01*
X72274040Y-47953288D01*
X72285678Y-47989163D01*
X72292371Y-48037906D01*
X72295426Y-48108249D01*
X72296106Y-48202182D01*
X72296154Y-48208923D01*
X72296135Y-48230105D01*
G37*
D11*
X72296135Y-48230105D02*
X72295076Y-48324584D01*
X72291436Y-48390414D01*
X72283892Y-48436394D01*
X72271122Y-48471321D01*
X72251803Y-48503995D01*
X72247050Y-48510775D01*
X72196759Y-48564231D01*
X72139457Y-48604547D01*
X72110032Y-48617629D01*
X72004299Y-48639450D01*
X71899734Y-48625336D01*
X71803368Y-48577105D01*
X71722235Y-48496579D01*
X71715385Y-48485791D01*
X71693097Y-48423153D01*
X71678079Y-48335935D01*
X71670792Y-48235210D01*
X71671611Y-48142037D01*
X71868796Y-48142037D01*
X71870349Y-48271114D01*
X71870974Y-48279420D01*
X71880077Y-48350643D01*
X71896288Y-48395809D01*
X71923660Y-48426752D01*
X71969553Y-48455737D01*
X72014942Y-48457261D01*
X72061692Y-48423846D01*
X72069824Y-48415053D01*
X72085754Y-48388741D01*
X72095159Y-48350520D01*
X72099632Y-48291349D01*
X72100769Y-48202182D01*
X72098822Y-48118664D01*
X72089105Y-48039095D01*
X72069047Y-47988808D01*
X72036240Y-47962513D01*
X71988280Y-47954923D01*
X71970016Y-47956432D01*
X71918848Y-47984107D01*
X71885035Y-48046172D01*
X71868796Y-48142037D01*
X71671611Y-48142037D01*
X71671699Y-48132052D01*
X71681262Y-48037533D01*
X71699943Y-47962727D01*
X71723951Y-47912905D01*
X71791536Y-47835409D01*
X71883114Y-47787256D01*
X71995213Y-47770703D01*
X72025151Y-47771599D01*
X72113315Y-47789929D01*
X72185733Y-47836104D01*
X72252192Y-47915648D01*
X72256147Y-47921548D01*
X72274040Y-47953288D01*
X72285678Y-47989163D01*
X72292371Y-48037906D01*
X72295426Y-48108249D01*
X72296106Y-48202182D01*
X72296154Y-48208923D01*
X72296135Y-48230105D01*
G36*
X64050413Y-48284449D02*
G01*
X64045641Y-48387047D01*
X64033150Y-48462126D01*
X64010121Y-48517748D01*
X63973732Y-48561975D01*
X63921162Y-48602869D01*
X63887714Y-48621466D01*
X63834098Y-48633991D01*
X63758780Y-48633003D01*
X63716672Y-48629035D01*
X63665879Y-48616920D01*
X63625280Y-48590585D01*
X63578049Y-48541514D01*
X63571738Y-48534346D01*
X63529277Y-48479189D01*
X63509018Y-48431150D01*
X63503846Y-48374184D01*
X63503846Y-48290471D01*
X63562346Y-48312552D01*
X63604994Y-48338364D01*
X63642064Y-48398928D01*
X63649803Y-48418320D01*
X63693074Y-48473235D01*
X63751976Y-48500879D01*
X63816111Y-48498393D01*
X63875077Y-48462923D01*
X63895342Y-48440805D01*
X63913720Y-48407436D01*
X63907971Y-48377117D01*
X63874887Y-48345913D01*
X63811261Y-48309887D01*
X63713885Y-48265103D01*
X63513615Y-48177445D01*
X63508301Y-48090607D01*
X63510299Y-48035296D01*
X63640783Y-48035296D01*
X63650688Y-48069538D01*
X63695756Y-48106096D01*
X63777557Y-48147692D01*
X63791092Y-48153718D01*
X63855818Y-48181753D01*
X63904247Y-48201472D01*
X63926751Y-48208923D01*
X63930161Y-48203438D01*
X63931529Y-48169948D01*
X63926651Y-48116116D01*
X63914364Y-48063473D01*
X63876041Y-47997151D01*
X63820720Y-47959780D01*
X63754640Y-47954721D01*
X63684040Y-47985339D01*
X63664474Y-48000648D01*
X63640783Y-48035296D01*
X63510299Y-48035296D01*
X63510647Y-48025663D01*
X63540186Y-47943590D01*
X63577472Y-47898361D01*
X63654776Y-47847838D01*
X63746478Y-47822316D01*
X63841274Y-47824336D01*
X63927859Y-47856440D01*
X63946920Y-47868767D01*
X63990640Y-47906912D01*
X64020540Y-47955167D01*
X64038968Y-48020710D01*
X64048270Y-48110720D01*
X64049499Y-48169948D01*
X64050794Y-48232376D01*
X64050413Y-48284449D01*
G37*
X64050413Y-48284449D02*
X64045641Y-48387047D01*
X64033150Y-48462126D01*
X64010121Y-48517748D01*
X63973732Y-48561975D01*
X63921162Y-48602869D01*
X63887714Y-48621466D01*
X63834098Y-48633991D01*
X63758780Y-48633003D01*
X63716672Y-48629035D01*
X63665879Y-48616920D01*
X63625280Y-48590585D01*
X63578049Y-48541514D01*
X63571738Y-48534346D01*
X63529277Y-48479189D01*
X63509018Y-48431150D01*
X63503846Y-48374184D01*
X63503846Y-48290471D01*
X63562346Y-48312552D01*
X63604994Y-48338364D01*
X63642064Y-48398928D01*
X63649803Y-48418320D01*
X63693074Y-48473235D01*
X63751976Y-48500879D01*
X63816111Y-48498393D01*
X63875077Y-48462923D01*
X63895342Y-48440805D01*
X63913720Y-48407436D01*
X63907971Y-48377117D01*
X63874887Y-48345913D01*
X63811261Y-48309887D01*
X63713885Y-48265103D01*
X63513615Y-48177445D01*
X63508301Y-48090607D01*
X63510299Y-48035296D01*
X63640783Y-48035296D01*
X63650688Y-48069538D01*
X63695756Y-48106096D01*
X63777557Y-48147692D01*
X63791092Y-48153718D01*
X63855818Y-48181753D01*
X63904247Y-48201472D01*
X63926751Y-48208923D01*
X63930161Y-48203438D01*
X63931529Y-48169948D01*
X63926651Y-48116116D01*
X63914364Y-48063473D01*
X63876041Y-47997151D01*
X63820720Y-47959780D01*
X63754640Y-47954721D01*
X63684040Y-47985339D01*
X63664474Y-48000648D01*
X63640783Y-48035296D01*
X63510299Y-48035296D01*
X63510647Y-48025663D01*
X63540186Y-47943590D01*
X63577472Y-47898361D01*
X63654776Y-47847838D01*
X63746478Y-47822316D01*
X63841274Y-47824336D01*
X63927859Y-47856440D01*
X63946920Y-47868767D01*
X63990640Y-47906912D01*
X64020540Y-47955167D01*
X64038968Y-48020710D01*
X64048270Y-48110720D01*
X64049499Y-48169948D01*
X64050794Y-48232376D01*
X64050413Y-48284449D01*
G36*
X67917575Y-41487693D02*
G01*
X68053371Y-41487807D01*
X68155576Y-41488472D01*
X68229122Y-41490182D01*
X68278942Y-41493429D01*
X68309967Y-41498706D01*
X68327129Y-41506507D01*
X68335361Y-41517325D01*
X68339594Y-41531654D01*
X68339716Y-41532168D01*
X68346672Y-41565851D01*
X68359320Y-41630917D01*
X68376360Y-41720542D01*
X68396496Y-41827904D01*
X68418429Y-41946178D01*
X68420218Y-41955856D01*
X68442083Y-42070650D01*
X68462430Y-42171480D01*
X68479934Y-42252217D01*
X68493271Y-42306734D01*
X68501116Y-42328901D01*
X68501158Y-42328936D01*
X68525884Y-42341200D01*
X68576631Y-42361576D01*
X68642462Y-42385674D01*
X68646169Y-42386983D01*
X68730331Y-42418791D01*
X68828230Y-42458685D01*
X68919435Y-42498353D01*
X69069407Y-42566420D01*
X69401499Y-42339639D01*
X69424889Y-42323688D01*
X69525080Y-42255890D01*
X69614480Y-42196208D01*
X69687745Y-42148156D01*
X69739527Y-42115250D01*
X69764480Y-42101004D01*
X69781577Y-42104270D01*
X69820395Y-42129571D01*
X69880385Y-42179675D01*
X69963210Y-42255989D01*
X70070535Y-42359922D01*
X70080139Y-42369382D01*
X70165302Y-42454145D01*
X70240949Y-42530937D01*
X70302449Y-42594947D01*
X70345173Y-42641361D01*
X70364489Y-42665369D01*
X70364552Y-42665485D01*
X70367006Y-42683763D01*
X70357956Y-42713411D01*
X70335119Y-42758486D01*
X70296213Y-42823044D01*
X70238954Y-42911140D01*
X70161059Y-43026830D01*
X70147785Y-43046357D01*
X70080652Y-43145278D01*
X70021410Y-43232848D01*
X69973588Y-43303831D01*
X69940715Y-43352991D01*
X69926318Y-43375095D01*
X69925232Y-43379777D01*
X69932044Y-43414710D01*
X69952450Y-43471753D01*
X69983123Y-43541172D01*
X70024808Y-43631959D01*
X70071352Y-43739686D01*
X70110877Y-43837192D01*
X70120676Y-43862430D01*
X70146340Y-43926870D01*
X70165193Y-43971763D01*
X70173710Y-43988616D01*
X70183111Y-43989875D01*
X70225363Y-43997159D01*
X70294521Y-44009739D01*
X70383387Y-44026246D01*
X70484768Y-44045312D01*
X70591467Y-44065569D01*
X70696288Y-44085647D01*
X70792036Y-44104179D01*
X70871516Y-44119795D01*
X70927530Y-44131127D01*
X70952885Y-44136807D01*
X70957088Y-44138408D01*
X70967334Y-44147045D01*
X70974957Y-44165433D01*
X70980338Y-44198460D01*
X70983859Y-44251013D01*
X70985901Y-44327979D01*
X70986847Y-44434246D01*
X70987077Y-44574701D01*
X70987077Y-45001845D01*
X70884500Y-45022091D01*
X70872092Y-45024518D01*
X70806199Y-45037088D01*
X70715084Y-45054170D01*
X70609104Y-45073829D01*
X70498615Y-45094132D01*
X70455105Y-45102299D01*
X70357882Y-45122167D01*
X70276858Y-45140954D01*
X70219477Y-45156859D01*
X70193187Y-45168079D01*
X70181273Y-45186411D01*
X70159583Y-45234916D01*
X70137395Y-45297692D01*
X70129585Y-45321200D01*
X70100835Y-45398366D01*
X70063752Y-45489694D01*
X70024375Y-45580093D01*
X70003315Y-45627310D01*
X69973311Y-45697837D01*
X69952692Y-45750655D01*
X69945026Y-45776912D01*
X69945452Y-45778894D01*
X69959993Y-45806751D01*
X69992783Y-45860510D01*
X70040493Y-45934963D01*
X70099798Y-46024897D01*
X70167369Y-46125104D01*
X70389713Y-46451416D01*
X70097601Y-46744016D01*
X70069349Y-46772171D01*
X69982961Y-46856449D01*
X69905756Y-46929128D01*
X69842258Y-46986112D01*
X69796990Y-47023307D01*
X69774474Y-47036616D01*
X69750023Y-47026490D01*
X69698819Y-46997421D01*
X69626747Y-46952896D01*
X69539460Y-46896411D01*
X69442612Y-46831462D01*
X69347486Y-46767314D01*
X69261669Y-46710827D01*
X69191652Y-46666184D01*
X69142876Y-46636855D01*
X69120783Y-46626308D01*
X69119488Y-46626404D01*
X69090139Y-46636802D01*
X69038093Y-46661012D01*
X68973708Y-46694249D01*
X68973032Y-46694613D01*
X68887521Y-46737441D01*
X68828926Y-46758365D01*
X68792571Y-46758423D01*
X68773775Y-46738654D01*
X68765819Y-46719195D01*
X68744347Y-46667080D01*
X68711273Y-46586964D01*
X68668356Y-46483107D01*
X68617356Y-46359767D01*
X68560033Y-46221201D01*
X68498146Y-46071670D01*
X68442052Y-45935636D01*
X68384977Y-45796050D01*
X68334479Y-45671315D01*
X68292254Y-45565672D01*
X68259995Y-45483365D01*
X68239397Y-45428635D01*
X68232154Y-45405726D01*
X68245986Y-45384718D01*
X68284412Y-45349642D01*
X68338807Y-45308887D01*
X68469395Y-45202267D01*
X68586260Y-45066025D01*
X68671780Y-44916118D01*
X68725431Y-44756971D01*
X68746684Y-44593012D01*
X68735014Y-44428667D01*
X68689894Y-44268361D01*
X68610797Y-44116520D01*
X68497197Y-43977572D01*
X68437965Y-43923460D01*
X68296054Y-43827782D01*
X68144206Y-43765405D01*
X67986861Y-43734844D01*
X67828456Y-43734615D01*
X67673429Y-43763232D01*
X67526220Y-43819210D01*
X67391266Y-43901064D01*
X67273005Y-44007309D01*
X67175877Y-44136459D01*
X67104318Y-44287031D01*
X67062769Y-44457539D01*
X67055143Y-44539722D01*
X67065634Y-44717775D01*
X67112882Y-44886704D01*
X67195489Y-45043522D01*
X67312059Y-45185245D01*
X67461193Y-45308887D01*
X67513561Y-45347982D01*
X67552832Y-45383443D01*
X67567846Y-45405692D01*
X67561859Y-45425088D01*
X67542432Y-45477059D01*
X67511194Y-45557002D01*
X67469839Y-45660673D01*
X67420061Y-45783832D01*
X67363553Y-45922234D01*
X67302009Y-46071637D01*
X67246008Y-46207020D01*
X67188184Y-46346852D01*
X67136500Y-46471872D01*
X67092718Y-46577822D01*
X67058597Y-46660441D01*
X67035898Y-46715472D01*
X67026380Y-46738654D01*
X67026269Y-46738928D01*
X67007228Y-46758503D01*
X66970694Y-46758279D01*
X66911954Y-46737210D01*
X66826292Y-46694249D01*
X66819549Y-46690631D01*
X66755938Y-46658087D01*
X66705707Y-46635050D01*
X66679218Y-46626308D01*
X66657506Y-46636639D01*
X66608984Y-46665788D01*
X66539163Y-46710287D01*
X66453484Y-46766668D01*
X66357388Y-46831462D01*
X66262706Y-46894984D01*
X66175132Y-46951705D01*
X66102642Y-46996547D01*
X66050889Y-47026016D01*
X66025526Y-47036616D01*
X66021206Y-47035270D01*
X65991092Y-47014056D01*
X65939640Y-46970237D01*
X65871375Y-46907909D01*
X65790820Y-46831170D01*
X65702500Y-46744116D01*
X65410488Y-46451617D01*
X65865360Y-45782525D01*
X65796208Y-45632916D01*
X65796003Y-45632473D01*
X65754477Y-45537101D01*
X65712044Y-45430896D01*
X65677858Y-45336769D01*
X65672684Y-45321588D01*
X65646601Y-45251109D01*
X65623081Y-45196342D01*
X65606677Y-45168079D01*
X65599996Y-45164088D01*
X65559892Y-45150697D01*
X65491795Y-45133373D01*
X65403145Y-45113917D01*
X65301385Y-45094132D01*
X65270904Y-45088551D01*
X65160628Y-45068233D01*
X65057731Y-45049095D01*
X64972569Y-45033070D01*
X64915500Y-45022091D01*
X64812923Y-45001845D01*
X64812923Y-44574701D01*
X64812946Y-44522180D01*
X64813379Y-44394047D01*
X64814659Y-44298420D01*
X64817168Y-44230411D01*
X64821286Y-44185133D01*
X64827395Y-44157697D01*
X64835878Y-44143218D01*
X64847115Y-44136807D01*
X64857994Y-44134209D01*
X64902347Y-44125022D01*
X64973106Y-44110991D01*
X65063074Y-44093486D01*
X65165056Y-44073874D01*
X65271857Y-44053525D01*
X65376281Y-44033807D01*
X65471132Y-44016089D01*
X65549214Y-44001738D01*
X65603332Y-43992124D01*
X65626291Y-43988616D01*
X65627842Y-43986497D01*
X65640325Y-43959006D01*
X65661927Y-43906406D01*
X65689123Y-43837192D01*
X65726866Y-43743937D01*
X65773328Y-43636159D01*
X65816878Y-43541172D01*
X65826858Y-43519851D01*
X65854862Y-43453086D01*
X65871641Y-43401590D01*
X65873854Y-43375095D01*
X65872713Y-43373218D01*
X65854584Y-43345565D01*
X65818644Y-43291849D01*
X65768418Y-43217303D01*
X65707430Y-43127162D01*
X65639205Y-43026657D01*
X65562330Y-42912470D01*
X65504663Y-42823770D01*
X65465426Y-42758721D01*
X65442350Y-42713295D01*
X65433166Y-42683463D01*
X65435604Y-42665195D01*
X65436424Y-42663825D01*
X65458477Y-42637205D01*
X65503436Y-42588697D01*
X65566673Y-42523108D01*
X65643559Y-42445247D01*
X65729465Y-42359922D01*
X65818579Y-42273334D01*
X65905872Y-42191947D01*
X65970018Y-42137035D01*
X66012679Y-42107190D01*
X66035521Y-42101004D01*
X66038505Y-42102394D01*
X66069936Y-42121127D01*
X66126997Y-42157733D01*
X66204343Y-42208697D01*
X66296626Y-42270504D01*
X66398502Y-42339639D01*
X66730593Y-42566420D01*
X66880566Y-42498353D01*
X66884923Y-42496381D01*
X66977000Y-42456491D01*
X67074683Y-42416818D01*
X67157539Y-42385674D01*
X67157905Y-42385545D01*
X67223685Y-42361456D01*
X67274323Y-42341110D01*
X67298884Y-42328901D01*
X67299282Y-42328458D01*
X67307619Y-42303456D01*
X67321341Y-42246598D01*
X67339123Y-42164014D01*
X67359641Y-42061831D01*
X67381571Y-41946178D01*
X67382336Y-41942033D01*
X67404229Y-41824019D01*
X67424281Y-41717151D01*
X67441192Y-41628252D01*
X67453667Y-41564145D01*
X67460406Y-41531654D01*
X67460837Y-41529853D01*
X67465273Y-41515944D01*
X67474263Y-41505489D01*
X67492737Y-41497996D01*
X67525628Y-41492972D01*
X67577868Y-41489922D01*
X67654388Y-41488355D01*
X67760122Y-41487776D01*
X67900000Y-41487692D01*
X67917575Y-41487693D01*
G37*
X67917575Y-41487693D02*
X68053371Y-41487807D01*
X68155576Y-41488472D01*
X68229122Y-41490182D01*
X68278942Y-41493429D01*
X68309967Y-41498706D01*
X68327129Y-41506507D01*
X68335361Y-41517325D01*
X68339594Y-41531654D01*
X68339716Y-41532168D01*
X68346672Y-41565851D01*
X68359320Y-41630917D01*
X68376360Y-41720542D01*
X68396496Y-41827904D01*
X68418429Y-41946178D01*
X68420218Y-41955856D01*
X68442083Y-42070650D01*
X68462430Y-42171480D01*
X68479934Y-42252217D01*
X68493271Y-42306734D01*
X68501116Y-42328901D01*
X68501158Y-42328936D01*
X68525884Y-42341200D01*
X68576631Y-42361576D01*
X68642462Y-42385674D01*
X68646169Y-42386983D01*
X68730331Y-42418791D01*
X68828230Y-42458685D01*
X68919435Y-42498353D01*
X69069407Y-42566420D01*
X69401499Y-42339639D01*
X69424889Y-42323688D01*
X69525080Y-42255890D01*
X69614480Y-42196208D01*
X69687745Y-42148156D01*
X69739527Y-42115250D01*
X69764480Y-42101004D01*
X69781577Y-42104270D01*
X69820395Y-42129571D01*
X69880385Y-42179675D01*
X69963210Y-42255989D01*
X70070535Y-42359922D01*
X70080139Y-42369382D01*
X70165302Y-42454145D01*
X70240949Y-42530937D01*
X70302449Y-42594947D01*
X70345173Y-42641361D01*
X70364489Y-42665369D01*
X70364552Y-42665485D01*
X70367006Y-42683763D01*
X70357956Y-42713411D01*
X70335119Y-42758486D01*
X70296213Y-42823044D01*
X70238954Y-42911140D01*
X70161059Y-43026830D01*
X70147785Y-43046357D01*
X70080652Y-43145278D01*
X70021410Y-43232848D01*
X69973588Y-43303831D01*
X69940715Y-43352991D01*
X69926318Y-43375095D01*
X69925232Y-43379777D01*
X69932044Y-43414710D01*
X69952450Y-43471753D01*
X69983123Y-43541172D01*
X70024808Y-43631959D01*
X70071352Y-43739686D01*
X70110877Y-43837192D01*
X70120676Y-43862430D01*
X70146340Y-43926870D01*
X70165193Y-43971763D01*
X70173710Y-43988616D01*
X70183111Y-43989875D01*
X70225363Y-43997159D01*
X70294521Y-44009739D01*
X70383387Y-44026246D01*
X70484768Y-44045312D01*
X70591467Y-44065569D01*
X70696288Y-44085647D01*
X70792036Y-44104179D01*
X70871516Y-44119795D01*
X70927530Y-44131127D01*
X70952885Y-44136807D01*
X70957088Y-44138408D01*
X70967334Y-44147045D01*
X70974957Y-44165433D01*
X70980338Y-44198460D01*
X70983859Y-44251013D01*
X70985901Y-44327979D01*
X70986847Y-44434246D01*
X70987077Y-44574701D01*
X70987077Y-45001845D01*
X70884500Y-45022091D01*
X70872092Y-45024518D01*
X70806199Y-45037088D01*
X70715084Y-45054170D01*
X70609104Y-45073829D01*
X70498615Y-45094132D01*
X70455105Y-45102299D01*
X70357882Y-45122167D01*
X70276858Y-45140954D01*
X70219477Y-45156859D01*
X70193187Y-45168079D01*
X70181273Y-45186411D01*
X70159583Y-45234916D01*
X70137395Y-45297692D01*
X70129585Y-45321200D01*
X70100835Y-45398366D01*
X70063752Y-45489694D01*
X70024375Y-45580093D01*
X70003315Y-45627310D01*
X69973311Y-45697837D01*
X69952692Y-45750655D01*
X69945026Y-45776912D01*
X69945452Y-45778894D01*
X69959993Y-45806751D01*
X69992783Y-45860510D01*
X70040493Y-45934963D01*
X70099798Y-46024897D01*
X70167369Y-46125104D01*
X70389713Y-46451416D01*
X70097601Y-46744016D01*
X70069349Y-46772171D01*
X69982961Y-46856449D01*
X69905756Y-46929128D01*
X69842258Y-46986112D01*
X69796990Y-47023307D01*
X69774474Y-47036616D01*
X69750023Y-47026490D01*
X69698819Y-46997421D01*
X69626747Y-46952896D01*
X69539460Y-46896411D01*
X69442612Y-46831462D01*
X69347486Y-46767314D01*
X69261669Y-46710827D01*
X69191652Y-46666184D01*
X69142876Y-46636855D01*
X69120783Y-46626308D01*
X69119488Y-46626404D01*
X69090139Y-46636802D01*
X69038093Y-46661012D01*
X68973708Y-46694249D01*
X68973032Y-46694613D01*
X68887521Y-46737441D01*
X68828926Y-46758365D01*
X68792571Y-46758423D01*
X68773775Y-46738654D01*
X68765819Y-46719195D01*
X68744347Y-46667080D01*
X68711273Y-46586964D01*
X68668356Y-46483107D01*
X68617356Y-46359767D01*
X68560033Y-46221201D01*
X68498146Y-46071670D01*
X68442052Y-45935636D01*
X68384977Y-45796050D01*
X68334479Y-45671315D01*
X68292254Y-45565672D01*
X68259995Y-45483365D01*
X68239397Y-45428635D01*
X68232154Y-45405726D01*
X68245986Y-45384718D01*
X68284412Y-45349642D01*
X68338807Y-45308887D01*
X68469395Y-45202267D01*
X68586260Y-45066025D01*
X68671780Y-44916118D01*
X68725431Y-44756971D01*
X68746684Y-44593012D01*
X68735014Y-44428667D01*
X68689894Y-44268361D01*
X68610797Y-44116520D01*
X68497197Y-43977572D01*
X68437965Y-43923460D01*
X68296054Y-43827782D01*
X68144206Y-43765405D01*
X67986861Y-43734844D01*
X67828456Y-43734615D01*
X67673429Y-43763232D01*
X67526220Y-43819210D01*
X67391266Y-43901064D01*
X67273005Y-44007309D01*
X67175877Y-44136459D01*
X67104318Y-44287031D01*
X67062769Y-44457539D01*
X67055143Y-44539722D01*
X67065634Y-44717775D01*
X67112882Y-44886704D01*
X67195489Y-45043522D01*
X67312059Y-45185245D01*
X67461193Y-45308887D01*
X67513561Y-45347982D01*
X67552832Y-45383443D01*
X67567846Y-45405692D01*
X67561859Y-45425088D01*
X67542432Y-45477059D01*
X67511194Y-45557002D01*
X67469839Y-45660673D01*
X67420061Y-45783832D01*
X67363553Y-45922234D01*
X67302009Y-46071637D01*
X67246008Y-46207020D01*
X67188184Y-46346852D01*
X67136500Y-46471872D01*
X67092718Y-46577822D01*
X67058597Y-46660441D01*
X67035898Y-46715472D01*
X67026380Y-46738654D01*
X67026269Y-46738928D01*
X67007228Y-46758503D01*
X66970694Y-46758279D01*
X66911954Y-46737210D01*
X66826292Y-46694249D01*
X66819549Y-46690631D01*
X66755938Y-46658087D01*
X66705707Y-46635050D01*
X66679218Y-46626308D01*
X66657506Y-46636639D01*
X66608984Y-46665788D01*
X66539163Y-46710287D01*
X66453484Y-46766668D01*
X66357388Y-46831462D01*
X66262706Y-46894984D01*
X66175132Y-46951705D01*
X66102642Y-46996547D01*
X66050889Y-47026016D01*
X66025526Y-47036616D01*
X66021206Y-47035270D01*
X65991092Y-47014056D01*
X65939640Y-46970237D01*
X65871375Y-46907909D01*
X65790820Y-46831170D01*
X65702500Y-46744116D01*
X65410488Y-46451617D01*
X65865360Y-45782525D01*
X65796208Y-45632916D01*
X65796003Y-45632473D01*
X65754477Y-45537101D01*
X65712044Y-45430896D01*
X65677858Y-45336769D01*
X65672684Y-45321588D01*
X65646601Y-45251109D01*
X65623081Y-45196342D01*
X65606677Y-45168079D01*
X65599996Y-45164088D01*
X65559892Y-45150697D01*
X65491795Y-45133373D01*
X65403145Y-45113917D01*
X65301385Y-45094132D01*
X65270904Y-45088551D01*
X65160628Y-45068233D01*
X65057731Y-45049095D01*
X64972569Y-45033070D01*
X64915500Y-45022091D01*
X64812923Y-45001845D01*
X64812923Y-44574701D01*
X64812946Y-44522180D01*
X64813379Y-44394047D01*
X64814659Y-44298420D01*
X64817168Y-44230411D01*
X64821286Y-44185133D01*
X64827395Y-44157697D01*
X64835878Y-44143218D01*
X64847115Y-44136807D01*
X64857994Y-44134209D01*
X64902347Y-44125022D01*
X64973106Y-44110991D01*
X65063074Y-44093486D01*
X65165056Y-44073874D01*
X65271857Y-44053525D01*
X65376281Y-44033807D01*
X65471132Y-44016089D01*
X65549214Y-44001738D01*
X65603332Y-43992124D01*
X65626291Y-43988616D01*
X65627842Y-43986497D01*
X65640325Y-43959006D01*
X65661927Y-43906406D01*
X65689123Y-43837192D01*
X65726866Y-43743937D01*
X65773328Y-43636159D01*
X65816878Y-43541172D01*
X65826858Y-43519851D01*
X65854862Y-43453086D01*
X65871641Y-43401590D01*
X65873854Y-43375095D01*
X65872713Y-43373218D01*
X65854584Y-43345565D01*
X65818644Y-43291849D01*
X65768418Y-43217303D01*
X65707430Y-43127162D01*
X65639205Y-43026657D01*
X65562330Y-42912470D01*
X65504663Y-42823770D01*
X65465426Y-42758721D01*
X65442350Y-42713295D01*
X65433166Y-42683463D01*
X65435604Y-42665195D01*
X65436424Y-42663825D01*
X65458477Y-42637205D01*
X65503436Y-42588697D01*
X65566673Y-42523108D01*
X65643559Y-42445247D01*
X65729465Y-42359922D01*
X65818579Y-42273334D01*
X65905872Y-42191947D01*
X65970018Y-42137035D01*
X66012679Y-42107190D01*
X66035521Y-42101004D01*
X66038505Y-42102394D01*
X66069936Y-42121127D01*
X66126997Y-42157733D01*
X66204343Y-42208697D01*
X66296626Y-42270504D01*
X66398502Y-42339639D01*
X66730593Y-42566420D01*
X66880566Y-42498353D01*
X66884923Y-42496381D01*
X66977000Y-42456491D01*
X67074683Y-42416818D01*
X67157539Y-42385674D01*
X67157905Y-42385545D01*
X67223685Y-42361456D01*
X67274323Y-42341110D01*
X67298884Y-42328901D01*
X67299282Y-42328458D01*
X67307619Y-42303456D01*
X67321341Y-42246598D01*
X67339123Y-42164014D01*
X67359641Y-42061831D01*
X67381571Y-41946178D01*
X67382336Y-41942033D01*
X67404229Y-41824019D01*
X67424281Y-41717151D01*
X67441192Y-41628252D01*
X67453667Y-41564145D01*
X67460406Y-41531654D01*
X67460837Y-41529853D01*
X67465273Y-41515944D01*
X67474263Y-41505489D01*
X67492737Y-41497996D01*
X67525628Y-41492972D01*
X67577868Y-41489922D01*
X67654388Y-41488355D01*
X67760122Y-41487776D01*
X67900000Y-41487692D01*
X67917575Y-41487693D01*
G36*
X66862839Y-48304652D02*
G01*
X66851810Y-48408507D01*
X66827814Y-48486333D01*
X66788043Y-48545760D01*
X66729688Y-48594418D01*
X66674100Y-48622546D01*
X66580751Y-48638199D01*
X66487530Y-48621084D01*
X66403272Y-48573388D01*
X66336818Y-48497294D01*
X66328793Y-48483262D01*
X66318196Y-48458679D01*
X66310335Y-48427309D01*
X66304807Y-48383769D01*
X66301206Y-48322678D01*
X66299128Y-48238655D01*
X66299064Y-48231200D01*
X66434615Y-48231200D01*
X66435077Y-48302316D01*
X66437999Y-48366641D01*
X66445221Y-48408166D01*
X66458561Y-48436067D01*
X66479836Y-48459517D01*
X66484821Y-48464025D01*
X66548863Y-48497295D01*
X66616625Y-48493890D01*
X66679734Y-48454042D01*
X66698526Y-48433398D01*
X66714254Y-48406029D01*
X66723039Y-48368192D01*
X66726859Y-48310355D01*
X66727692Y-48222986D01*
X66727281Y-48156319D01*
X66724434Y-48091245D01*
X66717256Y-48049251D01*
X66703889Y-48021063D01*
X66682472Y-47997406D01*
X66669890Y-47986753D01*
X66604699Y-47958057D01*
X66536400Y-47962575D01*
X66477098Y-48000144D01*
X66464333Y-48015040D01*
X66448764Y-48043089D01*
X66439762Y-48082258D01*
X66435617Y-48141858D01*
X66434615Y-48231200D01*
X66299064Y-48231200D01*
X66298167Y-48126320D01*
X66297919Y-47980289D01*
X66297846Y-47526963D01*
X66361346Y-47553564D01*
X66378136Y-47560845D01*
X66404859Y-47577287D01*
X66420156Y-47602187D01*
X66428563Y-47645732D01*
X66434615Y-47718106D01*
X66440144Y-47783089D01*
X66447450Y-47825750D01*
X66457918Y-47841670D01*
X66473692Y-47837400D01*
X66513890Y-47822397D01*
X66585728Y-47818678D01*
X66663010Y-47832572D01*
X66729688Y-47862505D01*
X66766371Y-47890211D01*
X66813472Y-47944269D01*
X66843638Y-48013577D01*
X66859678Y-48105765D01*
X66864191Y-48222986D01*
X66864401Y-48228462D01*
X66862839Y-48304652D01*
G37*
X66862839Y-48304652D02*
X66851810Y-48408507D01*
X66827814Y-48486333D01*
X66788043Y-48545760D01*
X66729688Y-48594418D01*
X66674100Y-48622546D01*
X66580751Y-48638199D01*
X66487530Y-48621084D01*
X66403272Y-48573388D01*
X66336818Y-48497294D01*
X66328793Y-48483262D01*
X66318196Y-48458679D01*
X66310335Y-48427309D01*
X66304807Y-48383769D01*
X66301206Y-48322678D01*
X66299128Y-48238655D01*
X66299064Y-48231200D01*
X66434615Y-48231200D01*
X66435077Y-48302316D01*
X66437999Y-48366641D01*
X66445221Y-48408166D01*
X66458561Y-48436067D01*
X66479836Y-48459517D01*
X66484821Y-48464025D01*
X66548863Y-48497295D01*
X66616625Y-48493890D01*
X66679734Y-48454042D01*
X66698526Y-48433398D01*
X66714254Y-48406029D01*
X66723039Y-48368192D01*
X66726859Y-48310355D01*
X66727692Y-48222986D01*
X66727281Y-48156319D01*
X66724434Y-48091245D01*
X66717256Y-48049251D01*
X66703889Y-48021063D01*
X66682472Y-47997406D01*
X66669890Y-47986753D01*
X66604699Y-47958057D01*
X66536400Y-47962575D01*
X66477098Y-48000144D01*
X66464333Y-48015040D01*
X66448764Y-48043089D01*
X66439762Y-48082258D01*
X66435617Y-48141858D01*
X66434615Y-48231200D01*
X66299064Y-48231200D01*
X66298167Y-48126320D01*
X66297919Y-47980289D01*
X66297846Y-47526963D01*
X66361346Y-47553564D01*
X66378136Y-47560845D01*
X66404859Y-47577287D01*
X66420156Y-47602187D01*
X66428563Y-47645732D01*
X66434615Y-47718106D01*
X66440144Y-47783089D01*
X66447450Y-47825750D01*
X66457918Y-47841670D01*
X66473692Y-47837400D01*
X66513890Y-47822397D01*
X66585728Y-47818678D01*
X66663010Y-47832572D01*
X66729688Y-47862505D01*
X66766371Y-47890211D01*
X66813472Y-47944269D01*
X66843638Y-48013577D01*
X66859678Y-48105765D01*
X66864191Y-48222986D01*
X66864401Y-48228462D01*
X66862839Y-48304652D01*
G36*
X69826372Y-47781684D02*
G01*
X69917629Y-47824569D01*
X69992416Y-47898729D01*
X70007917Y-47921944D01*
X70020774Y-47948256D01*
X70029893Y-47981420D01*
X70036102Y-48027881D01*
X70040233Y-48094082D01*
X70043116Y-48186468D01*
X70045579Y-48311485D01*
X70051697Y-48658278D01*
X70000303Y-48638738D01*
X69953246Y-48620787D01*
X69918015Y-48603511D01*
X69895017Y-48581242D01*
X69881655Y-48547165D01*
X69875328Y-48494463D01*
X69873437Y-48416323D01*
X69873385Y-48305928D01*
X69873117Y-48217935D01*
X69871521Y-48133502D01*
X69867712Y-48075834D01*
X69860820Y-48037988D01*
X69849975Y-48013024D01*
X69834308Y-47994000D01*
X69795792Y-47967153D01*
X69731091Y-47957034D01*
X69667081Y-47982606D01*
X69662856Y-47985880D01*
X69649689Y-48001007D01*
X69639975Y-48025268D01*
X69632903Y-48064650D01*
X69627656Y-48125141D01*
X69623421Y-48212729D01*
X69619385Y-48333402D01*
X69609615Y-48656515D01*
X69443539Y-48582065D01*
X69443539Y-48287062D01*
X69443883Y-48206919D01*
X69446847Y-48095431D01*
X69454351Y-48012421D01*
X69468190Y-47951199D01*
X69490155Y-47905075D01*
X69522039Y-47867358D01*
X69565633Y-47831358D01*
X69628336Y-47795089D01*
X69727117Y-47771412D01*
X69826372Y-47781684D01*
G37*
X69826372Y-47781684D02*
X69917629Y-47824569D01*
X69992416Y-47898729D01*
X70007917Y-47921944D01*
X70020774Y-47948256D01*
X70029893Y-47981420D01*
X70036102Y-48027881D01*
X70040233Y-48094082D01*
X70043116Y-48186468D01*
X70045579Y-48311485D01*
X70051697Y-48658278D01*
X70000303Y-48638738D01*
X69953246Y-48620787D01*
X69918015Y-48603511D01*
X69895017Y-48581242D01*
X69881655Y-48547165D01*
X69875328Y-48494463D01*
X69873437Y-48416323D01*
X69873385Y-48305928D01*
X69873117Y-48217935D01*
X69871521Y-48133502D01*
X69867712Y-48075834D01*
X69860820Y-48037988D01*
X69849975Y-48013024D01*
X69834308Y-47994000D01*
X69795792Y-47967153D01*
X69731091Y-47957034D01*
X69667081Y-47982606D01*
X69662856Y-47985880D01*
X69649689Y-48001007D01*
X69639975Y-48025268D01*
X69632903Y-48064650D01*
X69627656Y-48125141D01*
X69623421Y-48212729D01*
X69619385Y-48333402D01*
X69609615Y-48656515D01*
X69443539Y-48582065D01*
X69443539Y-48287062D01*
X69443883Y-48206919D01*
X69446847Y-48095431D01*
X69454351Y-48012421D01*
X69468190Y-47951199D01*
X69490155Y-47905075D01*
X69522039Y-47867358D01*
X69565633Y-47831358D01*
X69628336Y-47795089D01*
X69727117Y-47771412D01*
X69826372Y-47781684D01*
G36*
X64511501Y-47826476D02*
G01*
X64592167Y-47856440D01*
X64625714Y-47878954D01*
X64659687Y-47911212D01*
X64683919Y-47952246D01*
X64700001Y-48008108D01*
X64709521Y-48084851D01*
X64714068Y-48188525D01*
X64715231Y-48325184D01*
X64715003Y-48395805D01*
X64713860Y-48492308D01*
X64711919Y-48569323D01*
X64709365Y-48620319D01*
X64706381Y-48638769D01*
X64686962Y-48632667D01*
X64647766Y-48616095D01*
X64646589Y-48615558D01*
X64626235Y-48604903D01*
X64612546Y-48590282D01*
X64604199Y-48564673D01*
X64599874Y-48521054D01*
X64598248Y-48452403D01*
X64598000Y-48351698D01*
X64597500Y-48287813D01*
X64592164Y-48167751D01*
X64579945Y-48079809D01*
X64559552Y-48019375D01*
X64529695Y-47981836D01*
X64489082Y-47962581D01*
X64483448Y-47961239D01*
X64407378Y-47960191D01*
X64348052Y-47994271D01*
X64307077Y-48062598D01*
X64299770Y-48082351D01*
X64283114Y-48126066D01*
X64274679Y-48146155D01*
X64257356Y-48143387D01*
X64219525Y-48128365D01*
X64184240Y-48103556D01*
X64168154Y-48056670D01*
X64172952Y-48023087D01*
X64202431Y-47954967D01*
X64250098Y-47891134D01*
X64305839Y-47846988D01*
X64329193Y-47836782D01*
X64417619Y-47819718D01*
X64511501Y-47826476D01*
G37*
X64511501Y-47826476D02*
X64592167Y-47856440D01*
X64625714Y-47878954D01*
X64659687Y-47911212D01*
X64683919Y-47952246D01*
X64700001Y-48008108D01*
X64709521Y-48084851D01*
X64714068Y-48188525D01*
X64715231Y-48325184D01*
X64715003Y-48395805D01*
X64713860Y-48492308D01*
X64711919Y-48569323D01*
X64709365Y-48620319D01*
X64706381Y-48638769D01*
X64686962Y-48632667D01*
X64647766Y-48616095D01*
X64646589Y-48615558D01*
X64626235Y-48604903D01*
X64612546Y-48590282D01*
X64604199Y-48564673D01*
X64599874Y-48521054D01*
X64598248Y-48452403D01*
X64598000Y-48351698D01*
X64597500Y-48287813D01*
X64592164Y-48167751D01*
X64579945Y-48079809D01*
X64559552Y-48019375D01*
X64529695Y-47981836D01*
X64489082Y-47962581D01*
X64483448Y-47961239D01*
X64407378Y-47960191D01*
X64348052Y-47994271D01*
X64307077Y-48062598D01*
X64299770Y-48082351D01*
X64283114Y-48126066D01*
X64274679Y-48146155D01*
X64257356Y-48143387D01*
X64219525Y-48128365D01*
X64184240Y-48103556D01*
X64168154Y-48056670D01*
X64172952Y-48023087D01*
X64202431Y-47954967D01*
X64250098Y-47891134D01*
X64305839Y-47846988D01*
X64329193Y-47836782D01*
X64417619Y-47819718D01*
X64511501Y-47826476D01*
G36*
X65163936Y-47819911D02*
G01*
X65205807Y-47830547D01*
X65244791Y-47857062D01*
X65294965Y-47906420D01*
X65327232Y-47941279D01*
X65360844Y-47986534D01*
X65376003Y-48028951D01*
X65379539Y-48082768D01*
X65379539Y-48170850D01*
X65319470Y-48139787D01*
X65271867Y-48101936D01*
X65239261Y-48050950D01*
X65233661Y-48037088D01*
X65190992Y-47983358D01*
X65131707Y-47956417D01*
X65067061Y-47959039D01*
X65008308Y-47994000D01*
X64983450Y-48022394D01*
X64968970Y-48058718D01*
X64984470Y-48091046D01*
X65032667Y-48123565D01*
X65116274Y-48160461D01*
X65128962Y-48165557D01*
X65205078Y-48198907D01*
X65270396Y-48231793D01*
X65311953Y-48257769D01*
X65353576Y-48304167D01*
X65381247Y-48378211D01*
X65378310Y-48457670D01*
X65345571Y-48532868D01*
X65283841Y-48594131D01*
X65233858Y-48620210D01*
X65137303Y-48638470D01*
X65083647Y-48636007D01*
X65033976Y-48622687D01*
X65014919Y-48594739D01*
X65022045Y-48548710D01*
X65024118Y-48542624D01*
X65040556Y-48510349D01*
X65067926Y-48498133D01*
X65120068Y-48498950D01*
X65156884Y-48500061D01*
X65199961Y-48490528D01*
X65229475Y-48462026D01*
X65246286Y-48426935D01*
X65248161Y-48390175D01*
X65248074Y-48389961D01*
X65226279Y-48370098D01*
X65179632Y-48341192D01*
X65119278Y-48308886D01*
X65056360Y-48278823D01*
X65002023Y-48256646D01*
X64967410Y-48248000D01*
X64962260Y-48256467D01*
X64955778Y-48296309D01*
X64951339Y-48361371D01*
X64949692Y-48443385D01*
X64949309Y-48500153D01*
X64947505Y-48571648D01*
X64944558Y-48620610D01*
X64940843Y-48638769D01*
X64921424Y-48632667D01*
X64882227Y-48616095D01*
X64832462Y-48593420D01*
X64832462Y-48302509D01*
X64832780Y-48227940D01*
X64835789Y-48114701D01*
X64843454Y-48030692D01*
X64857562Y-47969520D01*
X64879899Y-47924795D01*
X64912253Y-47890124D01*
X64956410Y-47859117D01*
X65012667Y-47833528D01*
X65116540Y-47818154D01*
X65163936Y-47819911D01*
G37*
X65163936Y-47819911D02*
X65205807Y-47830547D01*
X65244791Y-47857062D01*
X65294965Y-47906420D01*
X65327232Y-47941279D01*
X65360844Y-47986534D01*
X65376003Y-48028951D01*
X65379539Y-48082768D01*
X65379539Y-48170850D01*
X65319470Y-48139787D01*
X65271867Y-48101936D01*
X65239261Y-48050950D01*
X65233661Y-48037088D01*
X65190992Y-47983358D01*
X65131707Y-47956417D01*
X65067061Y-47959039D01*
X65008308Y-47994000D01*
X64983450Y-48022394D01*
X64968970Y-48058718D01*
X64984470Y-48091046D01*
X65032667Y-48123565D01*
X65116274Y-48160461D01*
X65128962Y-48165557D01*
X65205078Y-48198907D01*
X65270396Y-48231793D01*
X65311953Y-48257769D01*
X65353576Y-48304167D01*
X65381247Y-48378211D01*
X65378310Y-48457670D01*
X65345571Y-48532868D01*
X65283841Y-48594131D01*
X65233858Y-48620210D01*
X65137303Y-48638470D01*
X65083647Y-48636007D01*
X65033976Y-48622687D01*
X65014919Y-48594739D01*
X65022045Y-48548710D01*
X65024118Y-48542624D01*
X65040556Y-48510349D01*
X65067926Y-48498133D01*
X65120068Y-48498950D01*
X65156884Y-48500061D01*
X65199961Y-48490528D01*
X65229475Y-48462026D01*
X65246286Y-48426935D01*
X65248161Y-48390175D01*
X65248074Y-48389961D01*
X65226279Y-48370098D01*
X65179632Y-48341192D01*
X65119278Y-48308886D01*
X65056360Y-48278823D01*
X65002023Y-48256646D01*
X64967410Y-48248000D01*
X64962260Y-48256467D01*
X64955778Y-48296309D01*
X64951339Y-48361371D01*
X64949692Y-48443385D01*
X64949309Y-48500153D01*
X64947505Y-48571648D01*
X64944558Y-48620610D01*
X64940843Y-48638769D01*
X64921424Y-48632667D01*
X64882227Y-48616095D01*
X64832462Y-48593420D01*
X64832462Y-48302509D01*
X64832780Y-48227940D01*
X64835789Y-48114701D01*
X64843454Y-48030692D01*
X64857562Y-47969520D01*
X64879899Y-47924795D01*
X64912253Y-47890124D01*
X64956410Y-47859117D01*
X65012667Y-47833528D01*
X65116540Y-47818154D01*
X65163936Y-47819911D01*
G36*
X71549763Y-48448269D02*
G01*
X71550300Y-48491802D01*
X71552019Y-48637344D01*
X71552365Y-48748711D01*
X71550277Y-48829804D01*
X71544698Y-48884522D01*
X71534567Y-48916761D01*
X71518826Y-48930422D01*
X71496417Y-48929403D01*
X71466280Y-48917603D01*
X71427355Y-48898920D01*
X71419038Y-48894933D01*
X71384402Y-48875419D01*
X71366314Y-48852202D01*
X71359392Y-48813492D01*
X71358256Y-48747497D01*
X71358205Y-48629000D01*
X71236141Y-48629000D01*
X71161055Y-48625712D01*
X71102015Y-48612377D01*
X71052986Y-48585423D01*
X71049330Y-48582788D01*
X70999581Y-48538286D01*
X70964959Y-48484523D01*
X70943123Y-48414154D01*
X70931737Y-48319830D01*
X70928959Y-48213271D01*
X71123846Y-48213271D01*
X71123880Y-48231131D01*
X71125735Y-48311748D01*
X71131693Y-48364447D01*
X71143506Y-48398668D01*
X71162923Y-48423846D01*
X71164133Y-48425049D01*
X71211858Y-48457628D01*
X71258110Y-48454417D01*
X71310350Y-48414965D01*
X71323128Y-48401482D01*
X71341949Y-48373837D01*
X71352562Y-48337880D01*
X71357252Y-48283364D01*
X71358308Y-48200042D01*
X71357394Y-48149598D01*
X71347477Y-48057857D01*
X71324842Y-47997752D01*
X71287238Y-47964900D01*
X71232416Y-47954923D01*
X71209317Y-47957050D01*
X71169350Y-47978147D01*
X71142926Y-48025161D01*
X71128330Y-48102175D01*
X71123846Y-48213271D01*
X70928959Y-48213271D01*
X70928462Y-48194206D01*
X70929187Y-48102536D01*
X70932490Y-48033098D01*
X70939828Y-47984945D01*
X70952655Y-47948866D01*
X70972423Y-47915648D01*
X70990569Y-47890261D01*
X71056461Y-47821727D01*
X71131114Y-47784505D01*
X71224904Y-47772722D01*
X71332240Y-47784467D01*
X71425031Y-47826595D01*
X71498421Y-47900898D01*
X71503954Y-47908764D01*
X71516857Y-47929668D01*
X71526742Y-47953555D01*
X71534093Y-47985582D01*
X71539394Y-48030905D01*
X71543127Y-48094679D01*
X71545778Y-48182060D01*
X71546096Y-48200042D01*
X71547828Y-48298205D01*
X71549763Y-48448269D01*
G37*
X71549763Y-48448269D02*
X71550300Y-48491802D01*
X71552019Y-48637344D01*
X71552365Y-48748711D01*
X71550277Y-48829804D01*
X71544698Y-48884522D01*
X71534567Y-48916761D01*
X71518826Y-48930422D01*
X71496417Y-48929403D01*
X71466280Y-48917603D01*
X71427355Y-48898920D01*
X71419038Y-48894933D01*
X71384402Y-48875419D01*
X71366314Y-48852202D01*
X71359392Y-48813492D01*
X71358256Y-48747497D01*
X71358205Y-48629000D01*
X71236141Y-48629000D01*
X71161055Y-48625712D01*
X71102015Y-48612377D01*
X71052986Y-48585423D01*
X71049330Y-48582788D01*
X70999581Y-48538286D01*
X70964959Y-48484523D01*
X70943123Y-48414154D01*
X70931737Y-48319830D01*
X70928959Y-48213271D01*
X71123846Y-48213271D01*
X71123880Y-48231131D01*
X71125735Y-48311748D01*
X71131693Y-48364447D01*
X71143506Y-48398668D01*
X71162923Y-48423846D01*
X71164133Y-48425049D01*
X71211858Y-48457628D01*
X71258110Y-48454417D01*
X71310350Y-48414965D01*
X71323128Y-48401482D01*
X71341949Y-48373837D01*
X71352562Y-48337880D01*
X71357252Y-48283364D01*
X71358308Y-48200042D01*
X71357394Y-48149598D01*
X71347477Y-48057857D01*
X71324842Y-47997752D01*
X71287238Y-47964900D01*
X71232416Y-47954923D01*
X71209317Y-47957050D01*
X71169350Y-47978147D01*
X71142926Y-48025161D01*
X71128330Y-48102175D01*
X71123846Y-48213271D01*
X70928959Y-48213271D01*
X70928462Y-48194206D01*
X70929187Y-48102536D01*
X70932490Y-48033098D01*
X70939828Y-47984945D01*
X70952655Y-47948866D01*
X70972423Y-47915648D01*
X70990569Y-47890261D01*
X71056461Y-47821727D01*
X71131114Y-47784505D01*
X71224904Y-47772722D01*
X71332240Y-47784467D01*
X71425031Y-47826595D01*
X71498421Y-47900898D01*
X71503954Y-47908764D01*
X71516857Y-47929668D01*
X71526742Y-47953555D01*
X71534093Y-47985582D01*
X71539394Y-48030905D01*
X71543127Y-48094679D01*
X71545778Y-48182060D01*
X71546096Y-48200042D01*
X71547828Y-48298205D01*
X71549763Y-48448269D01*
G36*
X70804574Y-48301643D02*
G01*
X70801066Y-48333021D01*
X70774927Y-48444705D01*
X70727694Y-48529642D01*
X70655862Y-48594741D01*
X70651802Y-48597428D01*
X70560487Y-48635634D01*
X70465144Y-48639034D01*
X70373274Y-48609939D01*
X70292379Y-48550660D01*
X70229962Y-48463510D01*
X70228914Y-48461409D01*
X70208173Y-48407289D01*
X70192980Y-48345781D01*
X70184921Y-48288039D01*
X70185582Y-48245215D01*
X70196548Y-48228462D01*
X70206290Y-48229480D01*
X70252877Y-48248009D01*
X70305682Y-48282081D01*
X70350603Y-48321522D01*
X70373535Y-48356155D01*
X70397373Y-48403133D01*
X70446230Y-48445862D01*
X70502963Y-48462923D01*
X70523758Y-48457990D01*
X70564804Y-48433157D01*
X70600557Y-48398685D01*
X70615846Y-48367411D01*
X70615842Y-48367295D01*
X70598495Y-48352933D01*
X70552247Y-48327025D01*
X70484067Y-48293210D01*
X70400923Y-48255129D01*
X70400466Y-48254927D01*
X70310138Y-48214709D01*
X70249592Y-48185733D01*
X70212888Y-48163474D01*
X70194086Y-48143407D01*
X70187246Y-48121009D01*
X70186429Y-48091756D01*
X70192113Y-48036363D01*
X70385000Y-48036363D01*
X70404911Y-48053777D01*
X70454521Y-48079872D01*
X70455976Y-48080610D01*
X70514506Y-48108483D01*
X70566868Y-48130719D01*
X70600086Y-48140126D01*
X70613410Y-48127552D01*
X70615846Y-48084468D01*
X70605724Y-48030847D01*
X70570631Y-47982119D01*
X70519823Y-47956856D01*
X70463181Y-47959406D01*
X70410584Y-47994120D01*
X70389910Y-48018107D01*
X70385000Y-48036363D01*
X70192113Y-48036363D01*
X70193622Y-48021654D01*
X70229184Y-47926412D01*
X70288714Y-47851567D01*
X70365746Y-47799745D01*
X70453815Y-47773573D01*
X70546454Y-47775676D01*
X70637198Y-47808681D01*
X70719579Y-47875215D01*
X70765222Y-47941055D01*
X70798008Y-48035036D01*
X70803339Y-48084468D01*
X70810787Y-48153536D01*
X70804574Y-48301643D01*
G37*
X70804574Y-48301643D02*
X70801066Y-48333021D01*
X70774927Y-48444705D01*
X70727694Y-48529642D01*
X70655862Y-48594741D01*
X70651802Y-48597428D01*
X70560487Y-48635634D01*
X70465144Y-48639034D01*
X70373274Y-48609939D01*
X70292379Y-48550660D01*
X70229962Y-48463510D01*
X70228914Y-48461409D01*
X70208173Y-48407289D01*
X70192980Y-48345781D01*
X70184921Y-48288039D01*
X70185582Y-48245215D01*
X70196548Y-48228462D01*
X70206290Y-48229480D01*
X70252877Y-48248009D01*
X70305682Y-48282081D01*
X70350603Y-48321522D01*
X70373535Y-48356155D01*
X70397373Y-48403133D01*
X70446230Y-48445862D01*
X70502963Y-48462923D01*
X70523758Y-48457990D01*
X70564804Y-48433157D01*
X70600557Y-48398685D01*
X70615846Y-48367411D01*
X70615842Y-48367295D01*
X70598495Y-48352933D01*
X70552247Y-48327025D01*
X70484067Y-48293210D01*
X70400923Y-48255129D01*
X70400466Y-48254927D01*
X70310138Y-48214709D01*
X70249592Y-48185733D01*
X70212888Y-48163474D01*
X70194086Y-48143407D01*
X70187246Y-48121009D01*
X70186429Y-48091756D01*
X70192113Y-48036363D01*
X70385000Y-48036363D01*
X70404911Y-48053777D01*
X70454521Y-48079872D01*
X70455976Y-48080610D01*
X70514506Y-48108483D01*
X70566868Y-48130719D01*
X70600086Y-48140126D01*
X70613410Y-48127552D01*
X70615846Y-48084468D01*
X70605724Y-48030847D01*
X70570631Y-47982119D01*
X70519823Y-47956856D01*
X70463181Y-47959406D01*
X70410584Y-47994120D01*
X70389910Y-48018107D01*
X70385000Y-48036363D01*
X70192113Y-48036363D01*
X70193622Y-48021654D01*
X70229184Y-47926412D01*
X70288714Y-47851567D01*
X70365746Y-47799745D01*
X70453815Y-47773573D01*
X70546454Y-47775676D01*
X70637198Y-47808681D01*
X70719579Y-47875215D01*
X70765222Y-47941055D01*
X70798008Y-48035036D01*
X70803339Y-48084468D01*
X70810787Y-48153536D01*
X70804574Y-48301643D01*
G36*
X68020458Y-47839228D02*
G01*
X68087622Y-47878389D01*
X68117169Y-47908902D01*
X68173948Y-48000110D01*
X68193077Y-48099548D01*
X68193077Y-48167960D01*
X68130191Y-48141518D01*
X68086700Y-48114837D01*
X68052426Y-48059446D01*
X68048907Y-48048024D01*
X68011028Y-47989838D01*
X67953936Y-47958407D01*
X67888383Y-47957058D01*
X67825117Y-47989116D01*
X67815672Y-47997383D01*
X67784087Y-48033311D01*
X67778871Y-48064635D01*
X67802765Y-48095391D01*
X67858510Y-48129617D01*
X67948846Y-48171350D01*
X67954956Y-48173993D01*
X68055241Y-48220755D01*
X68123735Y-48262181D01*
X68165899Y-48303542D01*
X68187193Y-48350111D01*
X68193077Y-48407160D01*
X68185366Y-48470408D01*
X68146430Y-48551364D01*
X68077932Y-48609522D01*
X68028388Y-48626983D01*
X67958469Y-48636537D01*
X67890575Y-48634496D01*
X67842093Y-48620082D01*
X67836943Y-48616493D01*
X67823267Y-48591416D01*
X67832757Y-48547218D01*
X67849246Y-48512527D01*
X67875687Y-48498084D01*
X67925834Y-48498803D01*
X67995453Y-48494660D01*
X68040943Y-48466054D01*
X68056308Y-48413104D01*
X68056294Y-48411582D01*
X68046983Y-48380845D01*
X68015311Y-48352643D01*
X67953731Y-48320136D01*
X67869986Y-48280998D01*
X67814518Y-48259706D01*
X67782497Y-48261079D01*
X67767534Y-48289203D01*
X67763242Y-48348170D01*
X67763231Y-48442068D01*
X67762752Y-48500031D01*
X67760556Y-48571612D01*
X67756986Y-48620606D01*
X67752491Y-48638769D01*
X67751290Y-48638646D01*
X67725319Y-48628802D01*
X67682305Y-48608028D01*
X67622859Y-48577287D01*
X67629923Y-48300298D01*
X67630414Y-48281928D01*
X67636025Y-48152992D01*
X67645938Y-48055814D01*
X67662175Y-47983925D01*
X67686759Y-47930852D01*
X67721715Y-47890127D01*
X67769064Y-47855279D01*
X67769940Y-47854733D01*
X67846499Y-47826303D01*
X67935044Y-47821500D01*
X68020458Y-47839228D01*
G37*
X68020458Y-47839228D02*
X68087622Y-47878389D01*
X68117169Y-47908902D01*
X68173948Y-48000110D01*
X68193077Y-48099548D01*
X68193077Y-48167960D01*
X68130191Y-48141518D01*
X68086700Y-48114837D01*
X68052426Y-48059446D01*
X68048907Y-48048024D01*
X68011028Y-47989838D01*
X67953936Y-47958407D01*
X67888383Y-47957058D01*
X67825117Y-47989116D01*
X67815672Y-47997383D01*
X67784087Y-48033311D01*
X67778871Y-48064635D01*
X67802765Y-48095391D01*
X67858510Y-48129617D01*
X67948846Y-48171350D01*
X67954956Y-48173993D01*
X68055241Y-48220755D01*
X68123735Y-48262181D01*
X68165899Y-48303542D01*
X68187193Y-48350111D01*
X68193077Y-48407160D01*
X68185366Y-48470408D01*
X68146430Y-48551364D01*
X68077932Y-48609522D01*
X68028388Y-48626983D01*
X67958469Y-48636537D01*
X67890575Y-48634496D01*
X67842093Y-48620082D01*
X67836943Y-48616493D01*
X67823267Y-48591416D01*
X67832757Y-48547218D01*
X67849246Y-48512527D01*
X67875687Y-48498084D01*
X67925834Y-48498803D01*
X67995453Y-48494660D01*
X68040943Y-48466054D01*
X68056308Y-48413104D01*
X68056294Y-48411582D01*
X68046983Y-48380845D01*
X68015311Y-48352643D01*
X67953731Y-48320136D01*
X67869986Y-48280998D01*
X67814518Y-48259706D01*
X67782497Y-48261079D01*
X67767534Y-48289203D01*
X67763242Y-48348170D01*
X67763231Y-48442068D01*
X67762752Y-48500031D01*
X67760556Y-48571612D01*
X67756986Y-48620606D01*
X67752491Y-48638769D01*
X67751290Y-48638646D01*
X67725319Y-48628802D01*
X67682305Y-48608028D01*
X67622859Y-48577287D01*
X67629923Y-48300298D01*
X67630414Y-48281928D01*
X67636025Y-48152992D01*
X67645938Y-48055814D01*
X67662175Y-47983925D01*
X67686759Y-47930852D01*
X67721715Y-47890127D01*
X67769064Y-47855279D01*
X67769940Y-47854733D01*
X67846499Y-47826303D01*
X67935044Y-47821500D01*
X68020458Y-47839228D01*
G36*
X67371892Y-47847167D02*
G01*
X67378060Y-47850581D01*
X67428447Y-47889692D01*
X67473498Y-47939975D01*
X67481355Y-47951339D01*
X67496376Y-47977860D01*
X67507107Y-48009336D01*
X67514486Y-48052591D01*
X67519452Y-48114449D01*
X67522942Y-48201733D01*
X67525893Y-48321269D01*
X67526311Y-48341478D01*
X67527654Y-48472499D01*
X67525761Y-48565296D01*
X67520605Y-48620507D01*
X67512158Y-48638769D01*
X67486594Y-48633301D01*
X67443166Y-48616733D01*
X67432940Y-48611888D01*
X67416967Y-48600920D01*
X67405954Y-48582890D01*
X67398750Y-48551396D01*
X67394208Y-48500036D01*
X67391180Y-48422410D01*
X67388516Y-48312115D01*
X67387785Y-48279875D01*
X67384965Y-48178050D01*
X67381304Y-48106788D01*
X67375694Y-48059332D01*
X67367029Y-48028925D01*
X67354202Y-48008810D01*
X67336105Y-47992229D01*
X67282525Y-47963161D01*
X67216612Y-47957564D01*
X67157635Y-47979807D01*
X67115203Y-48025859D01*
X67098923Y-48091692D01*
X67098470Y-48109587D01*
X67089578Y-48141982D01*
X67063325Y-48146925D01*
X67011919Y-48127633D01*
X67000013Y-48121446D01*
X66967835Y-48085058D01*
X66967198Y-48030954D01*
X66997856Y-47956128D01*
X67025978Y-47915350D01*
X67097883Y-47857421D01*
X67186638Y-47824670D01*
X67281542Y-47820212D01*
X67371892Y-47847167D01*
G37*
X67371892Y-47847167D02*
X67378060Y-47850581D01*
X67428447Y-47889692D01*
X67473498Y-47939975D01*
X67481355Y-47951339D01*
X67496376Y-47977860D01*
X67507107Y-48009336D01*
X67514486Y-48052591D01*
X67519452Y-48114449D01*
X67522942Y-48201733D01*
X67525893Y-48321269D01*
X67526311Y-48341478D01*
X67527654Y-48472499D01*
X67525761Y-48565296D01*
X67520605Y-48620507D01*
X67512158Y-48638769D01*
X67486594Y-48633301D01*
X67443166Y-48616733D01*
X67432940Y-48611888D01*
X67416967Y-48600920D01*
X67405954Y-48582890D01*
X67398750Y-48551396D01*
X67394208Y-48500036D01*
X67391180Y-48422410D01*
X67388516Y-48312115D01*
X67387785Y-48279875D01*
X67384965Y-48178050D01*
X67381304Y-48106788D01*
X67375694Y-48059332D01*
X67367029Y-48028925D01*
X67354202Y-48008810D01*
X67336105Y-47992229D01*
X67282525Y-47963161D01*
X67216612Y-47957564D01*
X67157635Y-47979807D01*
X67115203Y-48025859D01*
X67098923Y-48091692D01*
X67098470Y-48109587D01*
X67089578Y-48141982D01*
X67063325Y-48146925D01*
X67011919Y-48127633D01*
X67000013Y-48121446D01*
X66967835Y-48085058D01*
X66967198Y-48030954D01*
X66997856Y-47956128D01*
X67025978Y-47915350D01*
X67097883Y-47857421D01*
X67186638Y-47824670D01*
X67281542Y-47820212D01*
X67371892Y-47847167D01*
G36*
X68876923Y-47581806D02*
G01*
X68876923Y-48116455D01*
X68876660Y-48255094D01*
X68875958Y-48379805D01*
X68874883Y-48485557D01*
X68873500Y-48567322D01*
X68871874Y-48620069D01*
X68870070Y-48638769D01*
X68869364Y-48638706D01*
X68845387Y-48631912D01*
X68801685Y-48617320D01*
X68740154Y-48595870D01*
X68740154Y-48320617D01*
X68739763Y-48212466D01*
X68737946Y-48134026D01*
X68733767Y-48080647D01*
X68726286Y-48045256D01*
X68714567Y-48020779D01*
X68697671Y-48000144D01*
X68686152Y-47989170D01*
X68623864Y-47958775D01*
X68555211Y-47961466D01*
X68492298Y-47997406D01*
X68483139Y-48006325D01*
X68468471Y-48024844D01*
X68458433Y-48049326D01*
X68452151Y-48086393D01*
X68448748Y-48142667D01*
X68447349Y-48224771D01*
X68447077Y-48339329D01*
X68446947Y-48397430D01*
X68446099Y-48492993D01*
X68444594Y-48569526D01*
X68442585Y-48620345D01*
X68440223Y-48638769D01*
X68439518Y-48638706D01*
X68415541Y-48631912D01*
X68371839Y-48617320D01*
X68310308Y-48595870D01*
X68310338Y-48319358D01*
X68310384Y-48294742D01*
X68312970Y-48166419D01*
X68320913Y-48069384D01*
X68336155Y-47997057D01*
X68360636Y-47942855D01*
X68396298Y-47900198D01*
X68445082Y-47862505D01*
X68492661Y-47838910D01*
X68568732Y-47820672D01*
X68643556Y-47819636D01*
X68701077Y-47837378D01*
X68705402Y-47839829D01*
X68718738Y-47839566D01*
X68727851Y-47819039D01*
X68734428Y-47771980D01*
X68740154Y-47692120D01*
X68749923Y-47528236D01*
X68876923Y-47581806D01*
G37*
X68876923Y-47581806D02*
X68876923Y-48116455D01*
X68876660Y-48255094D01*
X68875958Y-48379805D01*
X68874883Y-48485557D01*
X68873500Y-48567322D01*
X68871874Y-48620069D01*
X68870070Y-48638769D01*
X68869364Y-48638706D01*
X68845387Y-48631912D01*
X68801685Y-48617320D01*
X68740154Y-48595870D01*
X68740154Y-48320617D01*
X68739763Y-48212466D01*
X68737946Y-48134026D01*
X68733767Y-48080647D01*
X68726286Y-48045256D01*
X68714567Y-48020779D01*
X68697671Y-48000144D01*
X68686152Y-47989170D01*
X68623864Y-47958775D01*
X68555211Y-47961466D01*
X68492298Y-47997406D01*
X68483139Y-48006325D01*
X68468471Y-48024844D01*
X68458433Y-48049326D01*
X68452151Y-48086393D01*
X68448748Y-48142667D01*
X68447349Y-48224771D01*
X68447077Y-48339329D01*
X68446947Y-48397430D01*
X68446099Y-48492993D01*
X68444594Y-48569526D01*
X68442585Y-48620345D01*
X68440223Y-48638769D01*
X68439518Y-48638706D01*
X68415541Y-48631912D01*
X68371839Y-48617320D01*
X68310308Y-48595870D01*
X68310338Y-48319358D01*
X68310384Y-48294742D01*
X68312970Y-48166419D01*
X68320913Y-48069384D01*
X68336155Y-47997057D01*
X68360636Y-47942855D01*
X68396298Y-47900198D01*
X68445082Y-47862505D01*
X68492661Y-47838910D01*
X68568732Y-47820672D01*
X68643556Y-47819636D01*
X68701077Y-47837378D01*
X68705402Y-47839829D01*
X68718738Y-47839566D01*
X68727851Y-47819039D01*
X68734428Y-47771980D01*
X68740154Y-47692120D01*
X68749923Y-47528236D01*
X68876923Y-47581806D01*
G36*
X66087998Y-47824034D02*
G01*
X66130850Y-47840829D01*
X66180615Y-47863503D01*
X66180615Y-48518533D01*
X66118785Y-48580363D01*
X66104662Y-48594228D01*
X66065536Y-48625046D01*
X66026078Y-48635028D01*
X65967362Y-48630433D01*
X65943456Y-48627462D01*
X65881801Y-48621176D01*
X65838692Y-48618672D01*
X65825905Y-48619055D01*
X65773446Y-48623200D01*
X65710022Y-48630433D01*
X65689730Y-48632918D01*
X65638610Y-48633895D01*
X65601207Y-48618462D01*
X65558599Y-48580363D01*
X65496769Y-48518533D01*
X65496769Y-48168343D01*
X65497251Y-48064857D01*
X65498753Y-47966192D01*
X65501089Y-47888068D01*
X65504071Y-47836662D01*
X65507509Y-47818154D01*
X65508230Y-47818204D01*
X65533203Y-47827413D01*
X65575399Y-47847707D01*
X65632549Y-47877261D01*
X65637928Y-48184746D01*
X65643308Y-48492231D01*
X65760539Y-48492231D01*
X65765885Y-48155192D01*
X65767579Y-48063574D01*
X65770005Y-47965649D01*
X65772634Y-47887906D01*
X65775246Y-47836642D01*
X65777623Y-47818154D01*
X65778306Y-47818219D01*
X65801996Y-47825020D01*
X65845546Y-47839604D01*
X65907077Y-47861054D01*
X65907376Y-48157104D01*
X65907676Y-48208532D01*
X65909754Y-48308466D01*
X65913470Y-48391925D01*
X65918430Y-48451377D01*
X65924240Y-48479287D01*
X65945024Y-48494214D01*
X65987440Y-48498825D01*
X66034077Y-48492231D01*
X66039423Y-48155192D01*
X66041336Y-48069546D01*
X66045303Y-47968172D01*
X66050491Y-47888655D01*
X66056499Y-47836736D01*
X66062927Y-47818154D01*
X66087998Y-47824034D01*
G37*
X66087998Y-47824034D02*
X66130850Y-47840829D01*
X66180615Y-47863503D01*
X66180615Y-48518533D01*
X66118785Y-48580363D01*
X66104662Y-48594228D01*
X66065536Y-48625046D01*
X66026078Y-48635028D01*
X65967362Y-48630433D01*
X65943456Y-48627462D01*
X65881801Y-48621176D01*
X65838692Y-48618672D01*
X65825905Y-48619055D01*
X65773446Y-48623200D01*
X65710022Y-48630433D01*
X65689730Y-48632918D01*
X65638610Y-48633895D01*
X65601207Y-48618462D01*
X65558599Y-48580363D01*
X65496769Y-48518533D01*
X65496769Y-48168343D01*
X65497251Y-48064857D01*
X65498753Y-47966192D01*
X65501089Y-47888068D01*
X65504071Y-47836662D01*
X65507509Y-47818154D01*
X65508230Y-47818204D01*
X65533203Y-47827413D01*
X65575399Y-47847707D01*
X65632549Y-47877261D01*
X65637928Y-48184746D01*
X65643308Y-48492231D01*
X65760539Y-48492231D01*
X65765885Y-48155192D01*
X65767579Y-48063574D01*
X65770005Y-47965649D01*
X65772634Y-47887906D01*
X65775246Y-47836642D01*
X65777623Y-47818154D01*
X65778306Y-47818219D01*
X65801996Y-47825020D01*
X65845546Y-47839604D01*
X65907077Y-47861054D01*
X65907376Y-48157104D01*
X65907676Y-48208532D01*
X65909754Y-48308466D01*
X65913470Y-48391925D01*
X65918430Y-48451377D01*
X65924240Y-48479287D01*
X65945024Y-48494214D01*
X65987440Y-48498825D01*
X66034077Y-48492231D01*
X66039423Y-48155192D01*
X66041336Y-48069546D01*
X66045303Y-47968172D01*
X66050491Y-47888655D01*
X66056499Y-47836736D01*
X66062927Y-47818154D01*
X66087998Y-47824034D01*
D10*
X90527752Y-72683000D02*
X89105248Y-72683000D01*
X90527752Y-70863000D02*
X89105248Y-70863000D01*
X49866500Y-65973000D02*
G75*
G03*
X49866500Y-65973000I-1450000J0D01*
G01*
X49829000Y-56873000D02*
G75*
G03*
X49829000Y-56873000I-1450000J0D01*
G01*
X83909000Y-49173000D02*
G75*
G03*
X83909000Y-49173000I-1450000J0D01*
G01*
X41480267Y-61063000D02*
X41187733Y-61063000D01*
X41480267Y-62083000D02*
X41187733Y-62083000D01*
X49629000Y-50573000D02*
G75*
G03*
X49629000Y-50573000I-1450000J0D01*
G01*
X50927752Y-69783000D02*
X49505248Y-69783000D01*
X50927752Y-67963000D02*
X49505248Y-67963000D01*
X59200267Y-61083000D02*
X58907733Y-61083000D01*
X59200267Y-60063000D02*
X58907733Y-60063000D01*
X59727752Y-69883000D02*
X58305248Y-69883000D01*
X59727752Y-68063000D02*
X58305248Y-68063000D01*
X99327752Y-66663000D02*
X97905248Y-66663000D01*
X99327752Y-68483000D02*
X97905248Y-68483000D01*
X98266500Y-64673000D02*
G75*
G03*
X98266500Y-64673000I-1450000J0D01*
G01*
X99327752Y-72783000D02*
X97905248Y-72783000D01*
X99327752Y-70963000D02*
X97905248Y-70963000D01*
X44309000Y-50573000D02*
G75*
G03*
X44309000Y-50573000I-1450000J0D01*
G01*
X90000267Y-60763000D02*
X89707733Y-60763000D01*
X90000267Y-61783000D02*
X89707733Y-61783000D01*
X90000267Y-58563000D02*
X89707733Y-58563000D01*
X90000267Y-59583000D02*
X89707733Y-59583000D01*
G36*
X69364885Y-58218997D02*
G01*
X69459770Y-58259020D01*
X69459770Y-59048706D01*
X69459769Y-59057920D01*
X69459377Y-59265083D01*
X69458329Y-59451432D01*
X69456722Y-59609453D01*
X69454655Y-59731630D01*
X69452225Y-59810448D01*
X69449529Y-59838391D01*
X69448475Y-59838297D01*
X69412647Y-59828144D01*
X69347345Y-59806339D01*
X69255402Y-59774288D01*
X69255402Y-59362991D01*
X69254818Y-59201385D01*
X69252104Y-59084177D01*
X69245858Y-59004415D01*
X69234680Y-58951531D01*
X69217168Y-58914957D01*
X69191922Y-58884123D01*
X69174710Y-58867725D01*
X69081636Y-58822307D01*
X68979051Y-58826328D01*
X68885043Y-58880032D01*
X68871358Y-58893359D01*
X68849439Y-58921032D01*
X68834440Y-58957614D01*
X68825053Y-59013000D01*
X68819968Y-59097088D01*
X68817877Y-59219773D01*
X68817471Y-59390951D01*
X68817276Y-59477769D01*
X68816010Y-59620565D01*
X68813761Y-59734923D01*
X68810758Y-59810860D01*
X68807230Y-59838391D01*
X68806176Y-59838297D01*
X68770348Y-59828144D01*
X68705046Y-59806339D01*
X68613103Y-59774288D01*
X68613149Y-59361109D01*
X68613218Y-59324326D01*
X68617081Y-59132580D01*
X68628950Y-58987586D01*
X68651725Y-58879510D01*
X68688307Y-58798519D01*
X68741595Y-58734778D01*
X68814490Y-58678455D01*
X68885586Y-58643199D01*
X68999255Y-58615946D01*
X69111060Y-58614398D01*
X69197011Y-58640910D01*
X69203473Y-58644571D01*
X69223401Y-58644179D01*
X69237019Y-58613506D01*
X69246846Y-58543188D01*
X69255402Y-58423857D01*
X69270000Y-58178973D01*
X69364885Y-58218997D01*
G37*
D11*
X69364885Y-58218997D02*
X69459770Y-58259020D01*
X69459770Y-59048706D01*
X69459769Y-59057920D01*
X69459377Y-59265083D01*
X69458329Y-59451432D01*
X69456722Y-59609453D01*
X69454655Y-59731630D01*
X69452225Y-59810448D01*
X69449529Y-59838391D01*
X69448475Y-59838297D01*
X69412647Y-59828144D01*
X69347345Y-59806339D01*
X69255402Y-59774288D01*
X69255402Y-59362991D01*
X69254818Y-59201385D01*
X69252104Y-59084177D01*
X69245858Y-59004415D01*
X69234680Y-58951531D01*
X69217168Y-58914957D01*
X69191922Y-58884123D01*
X69174710Y-58867725D01*
X69081636Y-58822307D01*
X68979051Y-58826328D01*
X68885043Y-58880032D01*
X68871358Y-58893359D01*
X68849439Y-58921032D01*
X68834440Y-58957614D01*
X68825053Y-59013000D01*
X68819968Y-59097088D01*
X68817877Y-59219773D01*
X68817471Y-59390951D01*
X68817276Y-59477769D01*
X68816010Y-59620565D01*
X68813761Y-59734923D01*
X68810758Y-59810860D01*
X68807230Y-59838391D01*
X68806176Y-59838297D01*
X68770348Y-59828144D01*
X68705046Y-59806339D01*
X68613103Y-59774288D01*
X68613149Y-59361109D01*
X68613218Y-59324326D01*
X68617081Y-59132580D01*
X68628950Y-58987586D01*
X68651725Y-58879510D01*
X68688307Y-58798519D01*
X68741595Y-58734778D01*
X68814490Y-58678455D01*
X68885586Y-58643199D01*
X68999255Y-58615946D01*
X69111060Y-58614398D01*
X69197011Y-58640910D01*
X69203473Y-58644571D01*
X69223401Y-58644179D01*
X69237019Y-58613506D01*
X69246846Y-58543188D01*
X69255402Y-58423857D01*
X69270000Y-58178973D01*
X69364885Y-58218997D01*
G36*
X72340168Y-59334639D02*
G01*
X72334926Y-59381526D01*
X72295868Y-59548409D01*
X72225290Y-59675326D01*
X72117955Y-59772602D01*
X72111888Y-59776616D01*
X71975440Y-59833706D01*
X71832973Y-59838786D01*
X71695696Y-59795311D01*
X71574819Y-59706734D01*
X71481552Y-59576509D01*
X71479986Y-59573369D01*
X71448993Y-59492501D01*
X71426292Y-59400593D01*
X71414250Y-59314311D01*
X71415237Y-59250321D01*
X71431623Y-59225287D01*
X71446179Y-59226809D01*
X71515792Y-59254496D01*
X71594697Y-59305409D01*
X71661820Y-59364343D01*
X71696087Y-59416094D01*
X71731707Y-59486291D01*
X71804711Y-59550138D01*
X71889485Y-59575632D01*
X71920558Y-59568261D01*
X71981891Y-59531154D01*
X72035315Y-59479644D01*
X72058161Y-59432913D01*
X72058154Y-59432740D01*
X72032233Y-59411280D01*
X71963127Y-59372565D01*
X71861249Y-59322037D01*
X71737011Y-59265134D01*
X71736328Y-59264833D01*
X71601355Y-59204738D01*
X71510884Y-59161440D01*
X71456039Y-59128179D01*
X71427944Y-59098194D01*
X71417724Y-59064726D01*
X71416503Y-59021015D01*
X71424996Y-58938244D01*
X71713219Y-58938244D01*
X71742970Y-58964265D01*
X71817101Y-59003256D01*
X71819274Y-59004359D01*
X71906733Y-59046009D01*
X71984974Y-59079235D01*
X72034611Y-59093291D01*
X72054521Y-59074503D01*
X72058161Y-59010124D01*
X72043035Y-58930001D01*
X71990597Y-58857189D01*
X71914677Y-58819439D01*
X71830040Y-58823251D01*
X71751447Y-58875121D01*
X71720555Y-58910965D01*
X71713219Y-58938244D01*
X71424996Y-58938244D01*
X71427251Y-58916265D01*
X71480389Y-58773949D01*
X71569342Y-58662111D01*
X71684448Y-58584676D01*
X71816045Y-58545568D01*
X71954472Y-58548711D01*
X72090065Y-58598030D01*
X72213164Y-58697447D01*
X72281366Y-58795829D01*
X72330356Y-58936261D01*
X72338322Y-59010124D01*
X72349452Y-59113329D01*
X72340168Y-59334639D01*
G37*
X72340168Y-59334639D02*
X72334926Y-59381526D01*
X72295868Y-59548409D01*
X72225290Y-59675326D01*
X72117955Y-59772602D01*
X72111888Y-59776616D01*
X71975440Y-59833706D01*
X71832973Y-59838786D01*
X71695696Y-59795311D01*
X71574819Y-59706734D01*
X71481552Y-59576509D01*
X71479986Y-59573369D01*
X71448993Y-59492501D01*
X71426292Y-59400593D01*
X71414250Y-59314311D01*
X71415237Y-59250321D01*
X71431623Y-59225287D01*
X71446179Y-59226809D01*
X71515792Y-59254496D01*
X71594697Y-59305409D01*
X71661820Y-59364343D01*
X71696087Y-59416094D01*
X71731707Y-59486291D01*
X71804711Y-59550138D01*
X71889485Y-59575632D01*
X71920558Y-59568261D01*
X71981891Y-59531154D01*
X72035315Y-59479644D01*
X72058161Y-59432913D01*
X72058154Y-59432740D01*
X72032233Y-59411280D01*
X71963127Y-59372565D01*
X71861249Y-59322037D01*
X71737011Y-59265134D01*
X71736328Y-59264833D01*
X71601355Y-59204738D01*
X71510884Y-59161440D01*
X71456039Y-59128179D01*
X71427944Y-59098194D01*
X71417724Y-59064726D01*
X71416503Y-59021015D01*
X71424996Y-58938244D01*
X71713219Y-58938244D01*
X71742970Y-58964265D01*
X71817101Y-59003256D01*
X71819274Y-59004359D01*
X71906733Y-59046009D01*
X71984974Y-59079235D01*
X72034611Y-59093291D01*
X72054521Y-59074503D01*
X72058161Y-59010124D01*
X72043035Y-58930001D01*
X71990597Y-58857189D01*
X71914677Y-58819439D01*
X71830040Y-58823251D01*
X71751447Y-58875121D01*
X71720555Y-58910965D01*
X71713219Y-58938244D01*
X71424996Y-58938244D01*
X71427251Y-58916265D01*
X71480389Y-58773949D01*
X71569342Y-58662111D01*
X71684448Y-58584676D01*
X71816045Y-58545568D01*
X71954472Y-58548711D01*
X72090065Y-58598030D01*
X72213164Y-58697447D01*
X72281366Y-58795829D01*
X72330356Y-58936261D01*
X72338322Y-59010124D01*
X72349452Y-59113329D01*
X72340168Y-59334639D01*
G36*
X65292410Y-58620970D02*
G01*
X65356442Y-58646066D01*
X65430805Y-58679947D01*
X65430805Y-59658727D01*
X65338415Y-59751117D01*
X65317310Y-59771835D01*
X65258847Y-59817885D01*
X65199886Y-59832801D01*
X65112150Y-59825934D01*
X65076429Y-59821494D01*
X64984301Y-59812102D01*
X64919885Y-59808361D01*
X64900778Y-59808933D01*
X64822390Y-59815126D01*
X64727620Y-59825934D01*
X64697298Y-59829647D01*
X64620911Y-59831107D01*
X64565022Y-59808047D01*
X64501355Y-59751117D01*
X64408965Y-59658727D01*
X64408965Y-59135455D01*
X64409685Y-58980821D01*
X64411929Y-58833391D01*
X64415421Y-58716653D01*
X64419876Y-58639840D01*
X64425013Y-58612184D01*
X64426090Y-58612258D01*
X64463407Y-58626019D01*
X64526457Y-58656344D01*
X64611854Y-58700505D01*
X64619893Y-59159965D01*
X64627931Y-59619425D01*
X64803103Y-59619425D01*
X64811092Y-59115805D01*
X64813624Y-58978904D01*
X64817249Y-58832579D01*
X64821177Y-58716411D01*
X64825080Y-58639809D01*
X64828632Y-58612184D01*
X64829653Y-58612281D01*
X64865051Y-58622443D01*
X64930126Y-58644235D01*
X65022069Y-58676287D01*
X65022516Y-59118661D01*
X65022964Y-59195507D01*
X65026069Y-59344834D01*
X65031622Y-59469544D01*
X65039033Y-59558379D01*
X65047714Y-59600083D01*
X65078771Y-59622389D01*
X65142152Y-59629278D01*
X65211839Y-59619425D01*
X65219827Y-59115805D01*
X65222686Y-58987828D01*
X65228614Y-58836348D01*
X65236365Y-58717530D01*
X65245343Y-58639950D01*
X65254948Y-58612184D01*
X65292410Y-58620970D01*
G37*
X65292410Y-58620970D02*
X65356442Y-58646066D01*
X65430805Y-58679947D01*
X65430805Y-59658727D01*
X65338415Y-59751117D01*
X65317310Y-59771835D01*
X65258847Y-59817885D01*
X65199886Y-59832801D01*
X65112150Y-59825934D01*
X65076429Y-59821494D01*
X64984301Y-59812102D01*
X64919885Y-59808361D01*
X64900778Y-59808933D01*
X64822390Y-59815126D01*
X64727620Y-59825934D01*
X64697298Y-59829647D01*
X64620911Y-59831107D01*
X64565022Y-59808047D01*
X64501355Y-59751117D01*
X64408965Y-59658727D01*
X64408965Y-59135455D01*
X64409685Y-58980821D01*
X64411929Y-58833391D01*
X64415421Y-58716653D01*
X64419876Y-58639840D01*
X64425013Y-58612184D01*
X64426090Y-58612258D01*
X64463407Y-58626019D01*
X64526457Y-58656344D01*
X64611854Y-58700505D01*
X64619893Y-59159965D01*
X64627931Y-59619425D01*
X64803103Y-59619425D01*
X64811092Y-59115805D01*
X64813624Y-58978904D01*
X64817249Y-58832579D01*
X64821177Y-58716411D01*
X64825080Y-58639809D01*
X64828632Y-58612184D01*
X64829653Y-58612281D01*
X64865051Y-58622443D01*
X64930126Y-58644235D01*
X65022069Y-58676287D01*
X65022516Y-59118661D01*
X65022964Y-59195507D01*
X65026069Y-59344834D01*
X65031622Y-59469544D01*
X65039033Y-59558379D01*
X65047714Y-59600083D01*
X65078771Y-59622389D01*
X65142152Y-59629278D01*
X65211839Y-59619425D01*
X65219827Y-59115805D01*
X65222686Y-58987828D01*
X65228614Y-58836348D01*
X65236365Y-58717530D01*
X65245343Y-58639950D01*
X65254948Y-58612184D01*
X65292410Y-58620970D01*
G36*
X66450219Y-59339135D02*
G01*
X66433739Y-59494320D01*
X66397883Y-59610612D01*
X66338455Y-59699411D01*
X66251257Y-59772119D01*
X66168195Y-59814150D01*
X66028709Y-59837538D01*
X65889412Y-59811965D01*
X65763510Y-59740694D01*
X65664210Y-59626991D01*
X65652219Y-59606024D01*
X65636384Y-59569291D01*
X65624638Y-59522415D01*
X65616378Y-59457355D01*
X65610998Y-59366070D01*
X65607892Y-59240519D01*
X65607797Y-59229379D01*
X65810345Y-59229379D01*
X65811035Y-59335644D01*
X65815400Y-59431762D01*
X65826192Y-59493811D01*
X65846126Y-59535502D01*
X65877916Y-59570543D01*
X65885364Y-59577279D01*
X65981060Y-59626992D01*
X66082312Y-59621905D01*
X66176614Y-59562362D01*
X66204694Y-59531514D01*
X66228196Y-59490618D01*
X66241322Y-59434080D01*
X66247030Y-59347657D01*
X66248276Y-59217106D01*
X66247661Y-59117487D01*
X66243407Y-59020251D01*
X66232682Y-58957502D01*
X66212707Y-58915382D01*
X66180704Y-58880032D01*
X66161905Y-58864114D01*
X66064492Y-58821235D01*
X65962437Y-58827985D01*
X65873825Y-58884123D01*
X65854749Y-58906382D01*
X65831486Y-58948293D01*
X65818036Y-59006822D01*
X65811841Y-59095880D01*
X65810345Y-59229379D01*
X65607797Y-59229379D01*
X65606457Y-59072661D01*
X65606086Y-58854455D01*
X65605977Y-58177072D01*
X65700862Y-58216819D01*
X65725949Y-58227699D01*
X65765881Y-58252268D01*
X65788739Y-58289475D01*
X65801301Y-58354541D01*
X65810345Y-58462687D01*
X65818605Y-58559788D01*
X65829523Y-58623535D01*
X65845165Y-58647323D01*
X65868736Y-58640943D01*
X65928801Y-58618525D01*
X66036145Y-58612967D01*
X66151624Y-58633728D01*
X66251257Y-58678455D01*
X66306072Y-58719856D01*
X66376452Y-58800632D01*
X66421528Y-58904195D01*
X66445496Y-59041947D01*
X66452239Y-59217106D01*
X66452553Y-59225287D01*
X66450219Y-59339135D01*
G37*
X66450219Y-59339135D02*
X66433739Y-59494320D01*
X66397883Y-59610612D01*
X66338455Y-59699411D01*
X66251257Y-59772119D01*
X66168195Y-59814150D01*
X66028709Y-59837538D01*
X65889412Y-59811965D01*
X65763510Y-59740694D01*
X65664210Y-59626991D01*
X65652219Y-59606024D01*
X65636384Y-59569291D01*
X65624638Y-59522415D01*
X65616378Y-59457355D01*
X65610998Y-59366070D01*
X65607892Y-59240519D01*
X65607797Y-59229379D01*
X65810345Y-59229379D01*
X65811035Y-59335644D01*
X65815400Y-59431762D01*
X65826192Y-59493811D01*
X65846126Y-59535502D01*
X65877916Y-59570543D01*
X65885364Y-59577279D01*
X65981060Y-59626992D01*
X66082312Y-59621905D01*
X66176614Y-59562362D01*
X66204694Y-59531514D01*
X66228196Y-59490618D01*
X66241322Y-59434080D01*
X66247030Y-59347657D01*
X66248276Y-59217106D01*
X66247661Y-59117487D01*
X66243407Y-59020251D01*
X66232682Y-58957502D01*
X66212707Y-58915382D01*
X66180704Y-58880032D01*
X66161905Y-58864114D01*
X66064492Y-58821235D01*
X65962437Y-58827985D01*
X65873825Y-58884123D01*
X65854749Y-58906382D01*
X65831486Y-58948293D01*
X65818036Y-59006822D01*
X65811841Y-59095880D01*
X65810345Y-59229379D01*
X65607797Y-59229379D01*
X65606457Y-59072661D01*
X65606086Y-58854455D01*
X65605977Y-58177072D01*
X65700862Y-58216819D01*
X65725949Y-58227699D01*
X65765881Y-58252268D01*
X65788739Y-58289475D01*
X65801301Y-58354541D01*
X65810345Y-58462687D01*
X65818605Y-58559788D01*
X65829523Y-58623535D01*
X65845165Y-58647323D01*
X65868736Y-58640943D01*
X65928801Y-58618525D01*
X66036145Y-58612967D01*
X66151624Y-58633728D01*
X66251257Y-58678455D01*
X66306072Y-58719856D01*
X66376452Y-58800632D01*
X66421528Y-58904195D01*
X66445496Y-59041947D01*
X66452239Y-59217106D01*
X66452553Y-59225287D01*
X66450219Y-59339135D01*
G36*
X74568938Y-59227744D02*
G01*
X74567355Y-59368918D01*
X74561916Y-59467285D01*
X74550643Y-59535990D01*
X74531561Y-59588181D01*
X74502694Y-59637004D01*
X74495592Y-59647135D01*
X74420444Y-59727012D01*
X74334820Y-59787253D01*
X74290852Y-59806802D01*
X74132861Y-59839408D01*
X73976613Y-59818317D01*
X73832618Y-59746249D01*
X73711385Y-59625922D01*
X73701150Y-59609803D01*
X73667847Y-59516205D01*
X73645405Y-59385879D01*
X73634516Y-59235371D01*
X73635740Y-59096147D01*
X73930384Y-59096147D01*
X73932706Y-59289020D01*
X73933639Y-59301433D01*
X73947242Y-59407857D01*
X73971465Y-59475346D01*
X74012365Y-59521584D01*
X74080941Y-59564895D01*
X74148764Y-59567172D01*
X74218621Y-59517241D01*
X74230771Y-59504102D01*
X74254575Y-59464785D01*
X74268628Y-59407674D01*
X74275313Y-59319256D01*
X74277011Y-59186019D01*
X74274101Y-59061222D01*
X74259582Y-58942326D01*
X74229610Y-58867184D01*
X74180589Y-58827893D01*
X74108924Y-58816552D01*
X74081632Y-58818807D01*
X74005176Y-58860160D01*
X73954650Y-58952900D01*
X73930384Y-59096147D01*
X73635740Y-59096147D01*
X73635871Y-59081227D01*
X73650161Y-58939992D01*
X73678075Y-58828213D01*
X73713949Y-58753766D01*
X73814939Y-58637968D01*
X73951779Y-58566015D01*
X74119283Y-58541281D01*
X74164019Y-58542619D01*
X74295758Y-58570008D01*
X74403968Y-58639007D01*
X74503276Y-58757864D01*
X74509184Y-58766681D01*
X74535921Y-58814108D01*
X74553312Y-58867714D01*
X74563312Y-58940549D01*
X74567878Y-59045659D01*
X74568893Y-59186019D01*
X74568965Y-59196092D01*
X74568938Y-59227744D01*
G37*
X74568938Y-59227744D02*
X74567355Y-59368918D01*
X74561916Y-59467285D01*
X74550643Y-59535990D01*
X74531561Y-59588181D01*
X74502694Y-59637004D01*
X74495592Y-59647135D01*
X74420444Y-59727012D01*
X74334820Y-59787253D01*
X74290852Y-59806802D01*
X74132861Y-59839408D01*
X73976613Y-59818317D01*
X73832618Y-59746249D01*
X73711385Y-59625922D01*
X73701150Y-59609803D01*
X73667847Y-59516205D01*
X73645405Y-59385879D01*
X73634516Y-59235371D01*
X73635740Y-59096147D01*
X73930384Y-59096147D01*
X73932706Y-59289020D01*
X73933639Y-59301433D01*
X73947242Y-59407857D01*
X73971465Y-59475346D01*
X74012365Y-59521584D01*
X74080941Y-59564895D01*
X74148764Y-59567172D01*
X74218621Y-59517241D01*
X74230771Y-59504102D01*
X74254575Y-59464785D01*
X74268628Y-59407674D01*
X74275313Y-59319256D01*
X74277011Y-59186019D01*
X74274101Y-59061222D01*
X74259582Y-58942326D01*
X74229610Y-58867184D01*
X74180589Y-58827893D01*
X74108924Y-58816552D01*
X74081632Y-58818807D01*
X74005176Y-58860160D01*
X73954650Y-58952900D01*
X73930384Y-59096147D01*
X73635740Y-59096147D01*
X73635871Y-59081227D01*
X73650161Y-58939992D01*
X73678075Y-58828213D01*
X73713949Y-58753766D01*
X73814939Y-58637968D01*
X73951779Y-58566015D01*
X74119283Y-58541281D01*
X74164019Y-58542619D01*
X74295758Y-58570008D01*
X74403968Y-58639007D01*
X74503276Y-58757864D01*
X74509184Y-58766681D01*
X74535921Y-58814108D01*
X74553312Y-58867714D01*
X74563312Y-58940549D01*
X74567878Y-59045659D01*
X74568893Y-59186019D01*
X74568965Y-59196092D01*
X74568938Y-59227744D01*
G36*
X70878487Y-58557689D02*
G01*
X71014848Y-58621770D01*
X71126598Y-58732584D01*
X71149761Y-58767273D01*
X71168973Y-58806590D01*
X71182598Y-58856145D01*
X71191877Y-58925568D01*
X71198050Y-59024490D01*
X71202357Y-59162539D01*
X71206038Y-59349346D01*
X71215180Y-59867542D01*
X71138383Y-59838344D01*
X71068068Y-59811520D01*
X71015424Y-59785706D01*
X70981060Y-59752431D01*
X70961093Y-59701510D01*
X70951639Y-59622761D01*
X70948814Y-59505999D01*
X70948736Y-59341042D01*
X70948336Y-59209558D01*
X70945951Y-59083394D01*
X70940259Y-58997223D01*
X70929961Y-58940672D01*
X70913755Y-58903370D01*
X70890345Y-58874943D01*
X70832793Y-58834827D01*
X70736112Y-58819706D01*
X70640465Y-58857917D01*
X70634152Y-58862810D01*
X70614477Y-58885413D01*
X70599963Y-58921664D01*
X70589394Y-58980511D01*
X70581555Y-59070901D01*
X70575227Y-59201779D01*
X70569195Y-59382095D01*
X70554598Y-59864907D01*
X70430517Y-59809283D01*
X70306437Y-59753659D01*
X70306437Y-59312851D01*
X70306951Y-59193098D01*
X70311380Y-59026506D01*
X70322594Y-58902468D01*
X70343272Y-58810987D01*
X70376093Y-58742066D01*
X70423736Y-58685707D01*
X70488877Y-58631914D01*
X70582571Y-58577719D01*
X70730175Y-58542339D01*
X70878487Y-58557689D01*
G37*
X70878487Y-58557689D02*
X71014848Y-58621770D01*
X71126598Y-58732584D01*
X71149761Y-58767273D01*
X71168973Y-58806590D01*
X71182598Y-58856145D01*
X71191877Y-58925568D01*
X71198050Y-59024490D01*
X71202357Y-59162539D01*
X71206038Y-59349346D01*
X71215180Y-59867542D01*
X71138383Y-59838344D01*
X71068068Y-59811520D01*
X71015424Y-59785706D01*
X70981060Y-59752431D01*
X70961093Y-59701510D01*
X70951639Y-59622761D01*
X70948814Y-59505999D01*
X70948736Y-59341042D01*
X70948336Y-59209558D01*
X70945951Y-59083394D01*
X70940259Y-58997223D01*
X70929961Y-58940672D01*
X70913755Y-58903370D01*
X70890345Y-58874943D01*
X70832793Y-58834827D01*
X70736112Y-58819706D01*
X70640465Y-58857917D01*
X70634152Y-58862810D01*
X70614477Y-58885413D01*
X70599963Y-58921664D01*
X70589394Y-58980511D01*
X70581555Y-59070901D01*
X70575227Y-59201779D01*
X70569195Y-59382095D01*
X70554598Y-59864907D01*
X70430517Y-59809283D01*
X70306437Y-59753659D01*
X70306437Y-59312851D01*
X70306951Y-59193098D01*
X70311380Y-59026506D01*
X70322594Y-58902468D01*
X70343272Y-58810987D01*
X70376093Y-58742066D01*
X70423736Y-58685707D01*
X70488877Y-58631914D01*
X70582571Y-58577719D01*
X70730175Y-58542339D01*
X70878487Y-58557689D01*
G36*
X68229175Y-49153045D02*
G01*
X68381895Y-49154039D01*
X68491792Y-49156593D01*
X68566235Y-49161445D01*
X68612594Y-49169331D01*
X68638239Y-49180988D01*
X68650539Y-49197153D01*
X68656865Y-49218563D01*
X68657047Y-49219332D01*
X68667441Y-49269663D01*
X68686339Y-49366888D01*
X68711802Y-49500810D01*
X68741890Y-49661235D01*
X68774664Y-49837967D01*
X68777337Y-49852428D01*
X68810010Y-50023959D01*
X68840413Y-50174625D01*
X68866568Y-50295267D01*
X68886496Y-50376729D01*
X68898220Y-50409852D01*
X68898282Y-50409905D01*
X68935229Y-50428229D01*
X69011057Y-50458677D01*
X69109425Y-50494685D01*
X69114965Y-50496640D01*
X69240724Y-50544170D01*
X69387011Y-50603783D01*
X69523293Y-50663056D01*
X69747390Y-50764765D01*
X70243618Y-50425897D01*
X70278570Y-50402063D01*
X70428280Y-50300755D01*
X70561867Y-50211575D01*
X70671343Y-50139773D01*
X70748718Y-50090603D01*
X70786004Y-50069317D01*
X70811552Y-50074196D01*
X70869555Y-50112002D01*
X70959195Y-50186870D01*
X71082957Y-50300903D01*
X71243328Y-50456205D01*
X71257679Y-50470341D01*
X71384933Y-50596999D01*
X71497969Y-50711745D01*
X71589867Y-50807391D01*
X71653707Y-50876746D01*
X71682570Y-50912620D01*
X71682664Y-50912794D01*
X71686331Y-50940106D01*
X71672808Y-50984408D01*
X71638684Y-51051761D01*
X71580548Y-51148226D01*
X71494988Y-51279863D01*
X71378594Y-51452734D01*
X71358759Y-51481912D01*
X71258445Y-51629726D01*
X71169923Y-51760577D01*
X71098465Y-51866643D01*
X71049343Y-51940102D01*
X71027831Y-51973130D01*
X71026208Y-51980126D01*
X71036387Y-52032326D01*
X71066879Y-52117561D01*
X71112712Y-52221291D01*
X71175000Y-52356951D01*
X71244548Y-52517921D01*
X71303609Y-52663621D01*
X71318252Y-52701333D01*
X71356600Y-52797622D01*
X71384770Y-52864704D01*
X71397497Y-52889885D01*
X71411545Y-52891767D01*
X71474681Y-52902651D01*
X71578019Y-52921449D01*
X71710809Y-52946115D01*
X71862297Y-52974604D01*
X72021732Y-53004873D01*
X72178361Y-53034875D01*
X72321433Y-53062566D01*
X72440195Y-53085900D01*
X72523896Y-53102833D01*
X72561782Y-53111320D01*
X72568063Y-53113713D01*
X72583373Y-53126619D01*
X72594763Y-53154096D01*
X72602803Y-53203446D01*
X72608064Y-53281973D01*
X72611116Y-53396980D01*
X72612529Y-53555770D01*
X72612873Y-53765645D01*
X72612873Y-54403906D01*
X72459598Y-54434160D01*
X72441057Y-54437785D01*
X72342596Y-54456569D01*
X72206448Y-54482093D01*
X72048087Y-54511468D01*
X71882988Y-54541806D01*
X71817973Y-54554009D01*
X71672697Y-54583697D01*
X71551626Y-54611770D01*
X71465886Y-54635536D01*
X71426601Y-54652301D01*
X71408799Y-54679694D01*
X71376389Y-54752174D01*
X71343234Y-54845977D01*
X71331564Y-54881103D01*
X71288604Y-54996409D01*
X71233192Y-55132876D01*
X71174353Y-55267954D01*
X71142884Y-55338509D01*
X71098051Y-55443895D01*
X71067240Y-55522818D01*
X71055785Y-55562053D01*
X71056422Y-55565014D01*
X71078150Y-55606639D01*
X71127146Y-55686969D01*
X71198438Y-55798220D01*
X71287054Y-55932605D01*
X71388023Y-56082340D01*
X71720261Y-56569931D01*
X71283771Y-57007149D01*
X71241555Y-57049221D01*
X71112470Y-57175153D01*
X70997107Y-57283754D01*
X70902224Y-57368903D01*
X70834582Y-57424482D01*
X70800938Y-57444368D01*
X70764402Y-57429238D01*
X70687890Y-57385801D01*
X70580196Y-57319270D01*
X70449767Y-57234867D01*
X70305052Y-57137816D01*
X70162910Y-57041964D01*
X70034678Y-56957557D01*
X69930054Y-56890850D01*
X69857171Y-56847024D01*
X69824158Y-56831264D01*
X69822223Y-56831408D01*
X69778369Y-56846945D01*
X69700598Y-56883121D01*
X69604392Y-56932785D01*
X69603381Y-56933329D01*
X69475605Y-56997326D01*
X69388051Y-57028591D01*
X69333726Y-57028677D01*
X69305641Y-56999138D01*
X69293752Y-56970061D01*
X69261668Y-56892188D01*
X69212247Y-56772475D01*
X69148118Y-56617286D01*
X69071911Y-56432984D01*
X68986255Y-56225933D01*
X68893781Y-56002496D01*
X68809962Y-55799226D01*
X68724678Y-55590649D01*
X68649222Y-55404263D01*
X68586126Y-55246407D01*
X68537923Y-55123419D01*
X68507144Y-55041639D01*
X68496322Y-55007406D01*
X68516991Y-54976015D01*
X68574409Y-54923602D01*
X68655688Y-54862704D01*
X68850820Y-54703387D01*
X69025445Y-54499807D01*
X69153235Y-54275808D01*
X69233402Y-54038003D01*
X69265160Y-53793007D01*
X69247722Y-53547433D01*
X69180301Y-53307895D01*
X69062111Y-53081007D01*
X68892364Y-52873383D01*
X68803856Y-52792527D01*
X68591804Y-52649559D01*
X68364905Y-52556352D01*
X68129791Y-52510687D01*
X67893094Y-52510344D01*
X67661446Y-52553105D01*
X67441478Y-52636750D01*
X67239822Y-52759061D01*
X67063111Y-52917817D01*
X66917977Y-53110801D01*
X66811050Y-53335793D01*
X66748964Y-53590575D01*
X66737569Y-53713377D01*
X66753246Y-53979434D01*
X66823846Y-54231856D01*
X66947282Y-54466182D01*
X67121466Y-54677952D01*
X67344311Y-54862704D01*
X67422561Y-54921123D01*
X67481244Y-54974110D01*
X67503678Y-55007356D01*
X67494732Y-55036339D01*
X67465703Y-55113996D01*
X67419026Y-55233451D01*
X67357231Y-55388362D01*
X67282850Y-55572392D01*
X67198412Y-55779200D01*
X67106449Y-56002446D01*
X67022771Y-56204742D01*
X66936366Y-56413686D01*
X66859138Y-56600498D01*
X66793716Y-56758814D01*
X66742731Y-56882269D01*
X66708812Y-56964498D01*
X66694590Y-56999138D01*
X66694425Y-56999548D01*
X66665972Y-57028798D01*
X66611382Y-57028463D01*
X66523609Y-56996980D01*
X66395608Y-56932785D01*
X66385532Y-56927380D01*
X66290481Y-56878750D01*
X66215424Y-56844328D01*
X66175842Y-56831264D01*
X66143400Y-56846702D01*
X66070895Y-56890258D01*
X65966565Y-56956751D01*
X65838539Y-57040998D01*
X65694948Y-57137816D01*
X65553468Y-57232734D01*
X65422611Y-57317490D01*
X65314292Y-57384496D01*
X65236960Y-57428529D01*
X65199062Y-57444368D01*
X65192607Y-57442357D01*
X65147609Y-57410658D01*
X65070727Y-57345181D01*
X64968721Y-57252048D01*
X64848351Y-57137381D01*
X64716379Y-57007300D01*
X64280039Y-56570232D01*
X64959733Y-55570440D01*
X64856402Y-55346886D01*
X64856096Y-55346225D01*
X64794046Y-55203714D01*
X64730640Y-55045018D01*
X64679558Y-54904368D01*
X64671827Y-54881683D01*
X64632852Y-54776370D01*
X64597707Y-54694534D01*
X64573195Y-54652301D01*
X64563212Y-54646337D01*
X64503286Y-54626329D01*
X64401532Y-54600442D01*
X64269068Y-54571370D01*
X64117011Y-54541806D01*
X64071466Y-54533467D01*
X63906685Y-54503107D01*
X63752930Y-54474509D01*
X63625678Y-54450564D01*
X63540402Y-54434160D01*
X63387126Y-54403906D01*
X63387126Y-53765645D01*
X63387160Y-53687165D01*
X63387808Y-53495703D01*
X63389720Y-53352812D01*
X63393469Y-53251189D01*
X63399622Y-53183531D01*
X63408751Y-53142536D01*
X63421427Y-53120900D01*
X63438218Y-53111320D01*
X63454474Y-53107439D01*
X63520748Y-53093710D01*
X63626479Y-53072745D01*
X63760915Y-53046588D01*
X63913302Y-53017283D01*
X64072890Y-52986877D01*
X64228925Y-52957413D01*
X64370657Y-52930937D01*
X64487331Y-52909494D01*
X64568197Y-52895128D01*
X64602503Y-52889885D01*
X64604822Y-52886720D01*
X64623474Y-52845642D01*
X64655753Y-52767044D01*
X64696391Y-52663621D01*
X64752788Y-52524273D01*
X64822214Y-52363226D01*
X64887288Y-52221291D01*
X64902202Y-52189432D01*
X64944047Y-52089669D01*
X64969118Y-52012721D01*
X64972426Y-51973130D01*
X64970720Y-51970325D01*
X64943631Y-51929005D01*
X64889927Y-51848740D01*
X64814877Y-51737350D01*
X64723746Y-51602655D01*
X64621800Y-51452476D01*
X64506930Y-51281851D01*
X64420761Y-51149311D01*
X64362131Y-51052112D01*
X64327650Y-50984234D01*
X64313926Y-50939656D01*
X64317568Y-50912361D01*
X64318794Y-50910313D01*
X64351747Y-50870536D01*
X64418927Y-50798052D01*
X64513419Y-50700046D01*
X64628306Y-50583702D01*
X64756672Y-50456205D01*
X64889831Y-50326821D01*
X65020269Y-50205209D01*
X65116119Y-50123156D01*
X65179866Y-50078560D01*
X65213996Y-50069317D01*
X65218456Y-50071393D01*
X65265421Y-50099385D01*
X65350685Y-50154084D01*
X65466259Y-50230237D01*
X65604154Y-50322592D01*
X65756381Y-50425897D01*
X66252610Y-50764765D01*
X66476707Y-50663056D01*
X66483219Y-50660109D01*
X66620804Y-50600504D01*
X66766767Y-50541222D01*
X66890575Y-50494685D01*
X66891122Y-50494493D01*
X66989414Y-50458497D01*
X67065081Y-50428095D01*
X67101780Y-50409852D01*
X67102374Y-50409190D01*
X67114833Y-50371831D01*
X67135336Y-50286871D01*
X67161907Y-50163469D01*
X67192567Y-50010782D01*
X67225336Y-49837967D01*
X67226478Y-49831774D01*
X67259193Y-49655431D01*
X67289155Y-49495743D01*
X67314425Y-49362905D01*
X67333065Y-49267113D01*
X67343135Y-49218563D01*
X67343779Y-49215873D01*
X67350408Y-49195088D01*
X67363841Y-49179466D01*
X67391446Y-49168270D01*
X67440593Y-49160762D01*
X67518653Y-49156205D01*
X67632994Y-49153863D01*
X67790986Y-49152998D01*
X68000000Y-49152874D01*
X68026262Y-49152874D01*
X68229175Y-49153045D01*
G37*
X68229175Y-49153045D02*
X68381895Y-49154039D01*
X68491792Y-49156593D01*
X68566235Y-49161445D01*
X68612594Y-49169331D01*
X68638239Y-49180988D01*
X68650539Y-49197153D01*
X68656865Y-49218563D01*
X68657047Y-49219332D01*
X68667441Y-49269663D01*
X68686339Y-49366888D01*
X68711802Y-49500810D01*
X68741890Y-49661235D01*
X68774664Y-49837967D01*
X68777337Y-49852428D01*
X68810010Y-50023959D01*
X68840413Y-50174625D01*
X68866568Y-50295267D01*
X68886496Y-50376729D01*
X68898220Y-50409852D01*
X68898282Y-50409905D01*
X68935229Y-50428229D01*
X69011057Y-50458677D01*
X69109425Y-50494685D01*
X69114965Y-50496640D01*
X69240724Y-50544170D01*
X69387011Y-50603783D01*
X69523293Y-50663056D01*
X69747390Y-50764765D01*
X70243618Y-50425897D01*
X70278570Y-50402063D01*
X70428280Y-50300755D01*
X70561867Y-50211575D01*
X70671343Y-50139773D01*
X70748718Y-50090603D01*
X70786004Y-50069317D01*
X70811552Y-50074196D01*
X70869555Y-50112002D01*
X70959195Y-50186870D01*
X71082957Y-50300903D01*
X71243328Y-50456205D01*
X71257679Y-50470341D01*
X71384933Y-50596999D01*
X71497969Y-50711745D01*
X71589867Y-50807391D01*
X71653707Y-50876746D01*
X71682570Y-50912620D01*
X71682664Y-50912794D01*
X71686331Y-50940106D01*
X71672808Y-50984408D01*
X71638684Y-51051761D01*
X71580548Y-51148226D01*
X71494988Y-51279863D01*
X71378594Y-51452734D01*
X71358759Y-51481912D01*
X71258445Y-51629726D01*
X71169923Y-51760577D01*
X71098465Y-51866643D01*
X71049343Y-51940102D01*
X71027831Y-51973130D01*
X71026208Y-51980126D01*
X71036387Y-52032326D01*
X71066879Y-52117561D01*
X71112712Y-52221291D01*
X71175000Y-52356951D01*
X71244548Y-52517921D01*
X71303609Y-52663621D01*
X71318252Y-52701333D01*
X71356600Y-52797622D01*
X71384770Y-52864704D01*
X71397497Y-52889885D01*
X71411545Y-52891767D01*
X71474681Y-52902651D01*
X71578019Y-52921449D01*
X71710809Y-52946115D01*
X71862297Y-52974604D01*
X72021732Y-53004873D01*
X72178361Y-53034875D01*
X72321433Y-53062566D01*
X72440195Y-53085900D01*
X72523896Y-53102833D01*
X72561782Y-53111320D01*
X72568063Y-53113713D01*
X72583373Y-53126619D01*
X72594763Y-53154096D01*
X72602803Y-53203446D01*
X72608064Y-53281973D01*
X72611116Y-53396980D01*
X72612529Y-53555770D01*
X72612873Y-53765645D01*
X72612873Y-54403906D01*
X72459598Y-54434160D01*
X72441057Y-54437785D01*
X72342596Y-54456569D01*
X72206448Y-54482093D01*
X72048087Y-54511468D01*
X71882988Y-54541806D01*
X71817973Y-54554009D01*
X71672697Y-54583697D01*
X71551626Y-54611770D01*
X71465886Y-54635536D01*
X71426601Y-54652301D01*
X71408799Y-54679694D01*
X71376389Y-54752174D01*
X71343234Y-54845977D01*
X71331564Y-54881103D01*
X71288604Y-54996409D01*
X71233192Y-55132876D01*
X71174353Y-55267954D01*
X71142884Y-55338509D01*
X71098051Y-55443895D01*
X71067240Y-55522818D01*
X71055785Y-55562053D01*
X71056422Y-55565014D01*
X71078150Y-55606639D01*
X71127146Y-55686969D01*
X71198438Y-55798220D01*
X71287054Y-55932605D01*
X71388023Y-56082340D01*
X71720261Y-56569931D01*
X71283771Y-57007149D01*
X71241555Y-57049221D01*
X71112470Y-57175153D01*
X70997107Y-57283754D01*
X70902224Y-57368903D01*
X70834582Y-57424482D01*
X70800938Y-57444368D01*
X70764402Y-57429238D01*
X70687890Y-57385801D01*
X70580196Y-57319270D01*
X70449767Y-57234867D01*
X70305052Y-57137816D01*
X70162910Y-57041964D01*
X70034678Y-56957557D01*
X69930054Y-56890850D01*
X69857171Y-56847024D01*
X69824158Y-56831264D01*
X69822223Y-56831408D01*
X69778369Y-56846945D01*
X69700598Y-56883121D01*
X69604392Y-56932785D01*
X69603381Y-56933329D01*
X69475605Y-56997326D01*
X69388051Y-57028591D01*
X69333726Y-57028677D01*
X69305641Y-56999138D01*
X69293752Y-56970061D01*
X69261668Y-56892188D01*
X69212247Y-56772475D01*
X69148118Y-56617286D01*
X69071911Y-56432984D01*
X68986255Y-56225933D01*
X68893781Y-56002496D01*
X68809962Y-55799226D01*
X68724678Y-55590649D01*
X68649222Y-55404263D01*
X68586126Y-55246407D01*
X68537923Y-55123419D01*
X68507144Y-55041639D01*
X68496322Y-55007406D01*
X68516991Y-54976015D01*
X68574409Y-54923602D01*
X68655688Y-54862704D01*
X68850820Y-54703387D01*
X69025445Y-54499807D01*
X69153235Y-54275808D01*
X69233402Y-54038003D01*
X69265160Y-53793007D01*
X69247722Y-53547433D01*
X69180301Y-53307895D01*
X69062111Y-53081007D01*
X68892364Y-52873383D01*
X68803856Y-52792527D01*
X68591804Y-52649559D01*
X68364905Y-52556352D01*
X68129791Y-52510687D01*
X67893094Y-52510344D01*
X67661446Y-52553105D01*
X67441478Y-52636750D01*
X67239822Y-52759061D01*
X67063111Y-52917817D01*
X66917977Y-53110801D01*
X66811050Y-53335793D01*
X66748964Y-53590575D01*
X66737569Y-53713377D01*
X66753246Y-53979434D01*
X66823846Y-54231856D01*
X66947282Y-54466182D01*
X67121466Y-54677952D01*
X67344311Y-54862704D01*
X67422561Y-54921123D01*
X67481244Y-54974110D01*
X67503678Y-55007356D01*
X67494732Y-55036339D01*
X67465703Y-55113996D01*
X67419026Y-55233451D01*
X67357231Y-55388362D01*
X67282850Y-55572392D01*
X67198412Y-55779200D01*
X67106449Y-56002446D01*
X67022771Y-56204742D01*
X66936366Y-56413686D01*
X66859138Y-56600498D01*
X66793716Y-56758814D01*
X66742731Y-56882269D01*
X66708812Y-56964498D01*
X66694590Y-56999138D01*
X66694425Y-56999548D01*
X66665972Y-57028798D01*
X66611382Y-57028463D01*
X66523609Y-56996980D01*
X66395608Y-56932785D01*
X66385532Y-56927380D01*
X66290481Y-56878750D01*
X66215424Y-56844328D01*
X66175842Y-56831264D01*
X66143400Y-56846702D01*
X66070895Y-56890258D01*
X65966565Y-56956751D01*
X65838539Y-57040998D01*
X65694948Y-57137816D01*
X65553468Y-57232734D01*
X65422611Y-57317490D01*
X65314292Y-57384496D01*
X65236960Y-57428529D01*
X65199062Y-57444368D01*
X65192607Y-57442357D01*
X65147609Y-57410658D01*
X65070727Y-57345181D01*
X64968721Y-57252048D01*
X64848351Y-57137381D01*
X64716379Y-57007300D01*
X64280039Y-56570232D01*
X64959733Y-55570440D01*
X64856402Y-55346886D01*
X64856096Y-55346225D01*
X64794046Y-55203714D01*
X64730640Y-55045018D01*
X64679558Y-54904368D01*
X64671827Y-54881683D01*
X64632852Y-54776370D01*
X64597707Y-54694534D01*
X64573195Y-54652301D01*
X64563212Y-54646337D01*
X64503286Y-54626329D01*
X64401532Y-54600442D01*
X64269068Y-54571370D01*
X64117011Y-54541806D01*
X64071466Y-54533467D01*
X63906685Y-54503107D01*
X63752930Y-54474509D01*
X63625678Y-54450564D01*
X63540402Y-54434160D01*
X63387126Y-54403906D01*
X63387126Y-53765645D01*
X63387160Y-53687165D01*
X63387808Y-53495703D01*
X63389720Y-53352812D01*
X63393469Y-53251189D01*
X63399622Y-53183531D01*
X63408751Y-53142536D01*
X63421427Y-53120900D01*
X63438218Y-53111320D01*
X63454474Y-53107439D01*
X63520748Y-53093710D01*
X63626479Y-53072745D01*
X63760915Y-53046588D01*
X63913302Y-53017283D01*
X64072890Y-52986877D01*
X64228925Y-52957413D01*
X64370657Y-52930937D01*
X64487331Y-52909494D01*
X64568197Y-52895128D01*
X64602503Y-52889885D01*
X64604822Y-52886720D01*
X64623474Y-52845642D01*
X64655753Y-52767044D01*
X64696391Y-52663621D01*
X64752788Y-52524273D01*
X64822214Y-52363226D01*
X64887288Y-52221291D01*
X64902202Y-52189432D01*
X64944047Y-52089669D01*
X64969118Y-52012721D01*
X64972426Y-51973130D01*
X64970720Y-51970325D01*
X64943631Y-51929005D01*
X64889927Y-51848740D01*
X64814877Y-51737350D01*
X64723746Y-51602655D01*
X64621800Y-51452476D01*
X64506930Y-51281851D01*
X64420761Y-51149311D01*
X64362131Y-51052112D01*
X64327650Y-50984234D01*
X64313926Y-50939656D01*
X64317568Y-50912361D01*
X64318794Y-50910313D01*
X64351747Y-50870536D01*
X64418927Y-50798052D01*
X64513419Y-50700046D01*
X64628306Y-50583702D01*
X64756672Y-50456205D01*
X64889831Y-50326821D01*
X65020269Y-50205209D01*
X65116119Y-50123156D01*
X65179866Y-50078560D01*
X65213996Y-50069317D01*
X65218456Y-50071393D01*
X65265421Y-50099385D01*
X65350685Y-50154084D01*
X65466259Y-50230237D01*
X65604154Y-50322592D01*
X65756381Y-50425897D01*
X66252610Y-50764765D01*
X66476707Y-50663056D01*
X66483219Y-50660109D01*
X66620804Y-50600504D01*
X66766767Y-50541222D01*
X66890575Y-50494685D01*
X66891122Y-50494493D01*
X66989414Y-50458497D01*
X67065081Y-50428095D01*
X67101780Y-50409852D01*
X67102374Y-50409190D01*
X67114833Y-50371831D01*
X67135336Y-50286871D01*
X67161907Y-50163469D01*
X67192567Y-50010782D01*
X67225336Y-49837967D01*
X67226478Y-49831774D01*
X67259193Y-49655431D01*
X67289155Y-49495743D01*
X67314425Y-49362905D01*
X67333065Y-49267113D01*
X67343135Y-49218563D01*
X67343779Y-49215873D01*
X67350408Y-49195088D01*
X67363841Y-49179466D01*
X67391446Y-49168270D01*
X67440593Y-49160762D01*
X67518653Y-49156205D01*
X67632994Y-49153863D01*
X67790986Y-49152998D01*
X68000000Y-49152874D01*
X68026262Y-49152874D01*
X68229175Y-49153045D01*
G36*
X62936725Y-58624619D02*
G01*
X63057261Y-58669393D01*
X63107388Y-58703034D01*
X63158152Y-58751236D01*
X63194362Y-58812551D01*
X63218393Y-58896024D01*
X63232618Y-59010697D01*
X63239412Y-59165613D01*
X63241149Y-59369814D01*
X63240809Y-59475341D01*
X63239101Y-59619541D01*
X63236201Y-59734620D01*
X63232384Y-59810822D01*
X63227925Y-59838391D01*
X63198909Y-59829272D01*
X63140339Y-59804509D01*
X63138581Y-59803707D01*
X63108167Y-59787785D01*
X63087712Y-59765938D01*
X63075240Y-59727672D01*
X63068777Y-59662495D01*
X63066348Y-59559913D01*
X63065977Y-59409433D01*
X63065229Y-59313974D01*
X63057256Y-59134571D01*
X63038998Y-59003163D01*
X63008526Y-58912859D01*
X62963912Y-58856767D01*
X62903226Y-58827994D01*
X62894807Y-58825989D01*
X62781139Y-58824423D01*
X62692492Y-58875348D01*
X62631265Y-58977445D01*
X62620346Y-59006961D01*
X62595458Y-59072283D01*
X62582854Y-59102300D01*
X62556969Y-59098164D01*
X62500439Y-59075717D01*
X62447715Y-59038647D01*
X62423678Y-58968587D01*
X62430847Y-58918406D01*
X62474897Y-58816618D01*
X62546123Y-58721235D01*
X62629415Y-58655269D01*
X62664310Y-58640018D01*
X62796443Y-58614521D01*
X62936725Y-58624619D01*
G37*
X62936725Y-58624619D02*
X63057261Y-58669393D01*
X63107388Y-58703034D01*
X63158152Y-58751236D01*
X63194362Y-58812551D01*
X63218393Y-58896024D01*
X63232618Y-59010697D01*
X63239412Y-59165613D01*
X63241149Y-59369814D01*
X63240809Y-59475341D01*
X63239101Y-59619541D01*
X63236201Y-59734620D01*
X63232384Y-59810822D01*
X63227925Y-59838391D01*
X63198909Y-59829272D01*
X63140339Y-59804509D01*
X63138581Y-59803707D01*
X63108167Y-59787785D01*
X63087712Y-59765938D01*
X63075240Y-59727672D01*
X63068777Y-59662495D01*
X63066348Y-59559913D01*
X63065977Y-59409433D01*
X63065229Y-59313974D01*
X63057256Y-59134571D01*
X63038998Y-59003163D01*
X63008526Y-58912859D01*
X62963912Y-58856767D01*
X62903226Y-58827994D01*
X62894807Y-58825989D01*
X62781139Y-58824423D01*
X62692492Y-58875348D01*
X62631265Y-58977445D01*
X62620346Y-59006961D01*
X62595458Y-59072283D01*
X62582854Y-59102300D01*
X62556969Y-59098164D01*
X62500439Y-59075717D01*
X62447715Y-59038647D01*
X62423678Y-58968587D01*
X62430847Y-58918406D01*
X62474897Y-58816618D01*
X62546123Y-58721235D01*
X62629415Y-58655269D01*
X62664310Y-58640018D01*
X62796443Y-58614521D01*
X62936725Y-58624619D01*
G36*
X63911628Y-58614810D02*
G01*
X63974194Y-58630702D01*
X64032446Y-58670322D01*
X64107418Y-58744076D01*
X64155633Y-58796163D01*
X64205858Y-58863786D01*
X64228510Y-58927168D01*
X64233793Y-59007584D01*
X64233793Y-59139201D01*
X64144035Y-59092785D01*
X64072904Y-59036225D01*
X64024183Y-58960040D01*
X64015814Y-58939326D01*
X63952056Y-58859041D01*
X63863470Y-58818784D01*
X63766873Y-58822702D01*
X63679080Y-58874943D01*
X63641936Y-58917370D01*
X63620300Y-58971647D01*
X63643461Y-59019954D01*
X63715479Y-59068545D01*
X63840410Y-59123677D01*
X63859368Y-59131292D01*
X63973105Y-59181125D01*
X64070706Y-59230265D01*
X64132803Y-59269080D01*
X64194999Y-59338411D01*
X64236346Y-59449051D01*
X64231957Y-59567782D01*
X64183037Y-59680148D01*
X64090797Y-59771690D01*
X64016110Y-59810658D01*
X63871832Y-59837944D01*
X63791656Y-59834263D01*
X63717435Y-59814360D01*
X63688960Y-59772598D01*
X63699608Y-59703820D01*
X63702705Y-59694726D01*
X63727268Y-59646498D01*
X63768165Y-59628245D01*
X63846079Y-59629466D01*
X63901091Y-59631126D01*
X63965459Y-59616881D01*
X64009561Y-59574292D01*
X64034680Y-59521857D01*
X64037481Y-59466929D01*
X64037352Y-59466608D01*
X64004785Y-59436928D01*
X63935083Y-59393735D01*
X63844898Y-59345461D01*
X63750883Y-59300539D01*
X63669689Y-59267402D01*
X63617968Y-59254483D01*
X63610274Y-59267134D01*
X63600588Y-59326668D01*
X63593954Y-59423887D01*
X63591494Y-59546437D01*
X63590922Y-59631263D01*
X63588225Y-59738094D01*
X63583821Y-59811257D01*
X63578270Y-59838391D01*
X63549254Y-59829272D01*
X63490684Y-59804509D01*
X63416322Y-59770627D01*
X63416322Y-59335933D01*
X63416797Y-59224508D01*
X63421293Y-59055301D01*
X63432747Y-58929769D01*
X63453828Y-58838363D01*
X63487206Y-58771532D01*
X63535550Y-58719726D01*
X63601531Y-58673393D01*
X63685594Y-58635156D01*
X63840807Y-58612184D01*
X63911628Y-58614810D01*
G37*
X63911628Y-58614810D02*
X63974194Y-58630702D01*
X64032446Y-58670322D01*
X64107418Y-58744076D01*
X64155633Y-58796163D01*
X64205858Y-58863786D01*
X64228510Y-58927168D01*
X64233793Y-59007584D01*
X64233793Y-59139201D01*
X64144035Y-59092785D01*
X64072904Y-59036225D01*
X64024183Y-58960040D01*
X64015814Y-58939326D01*
X63952056Y-58859041D01*
X63863470Y-58818784D01*
X63766873Y-58822702D01*
X63679080Y-58874943D01*
X63641936Y-58917370D01*
X63620300Y-58971647D01*
X63643461Y-59019954D01*
X63715479Y-59068545D01*
X63840410Y-59123677D01*
X63859368Y-59131292D01*
X63973105Y-59181125D01*
X64070706Y-59230265D01*
X64132803Y-59269080D01*
X64194999Y-59338411D01*
X64236346Y-59449051D01*
X64231957Y-59567782D01*
X64183037Y-59680148D01*
X64090797Y-59771690D01*
X64016110Y-59810658D01*
X63871832Y-59837944D01*
X63791656Y-59834263D01*
X63717435Y-59814360D01*
X63688960Y-59772598D01*
X63699608Y-59703820D01*
X63702705Y-59694726D01*
X63727268Y-59646498D01*
X63768165Y-59628245D01*
X63846079Y-59629466D01*
X63901091Y-59631126D01*
X63965459Y-59616881D01*
X64009561Y-59574292D01*
X64034680Y-59521857D01*
X64037481Y-59466929D01*
X64037352Y-59466608D01*
X64004785Y-59436928D01*
X63935083Y-59393735D01*
X63844898Y-59345461D01*
X63750883Y-59300539D01*
X63669689Y-59267402D01*
X63617968Y-59254483D01*
X63610274Y-59267134D01*
X63600588Y-59326668D01*
X63593954Y-59423887D01*
X63591494Y-59546437D01*
X63590922Y-59631263D01*
X63588225Y-59738094D01*
X63583821Y-59811257D01*
X63578270Y-59838391D01*
X63549254Y-59829272D01*
X63490684Y-59804509D01*
X63416322Y-59770627D01*
X63416322Y-59335933D01*
X63416797Y-59224508D01*
X63421293Y-59055301D01*
X63432747Y-58929769D01*
X63453828Y-58838363D01*
X63487206Y-58771532D01*
X63535550Y-58719726D01*
X63601531Y-58673393D01*
X63685594Y-58635156D01*
X63840807Y-58612184D01*
X63911628Y-58614810D01*
G36*
X73453668Y-59553736D02*
G01*
X73454471Y-59618785D01*
X73457040Y-59836260D01*
X73457556Y-60002672D01*
X73454437Y-60123846D01*
X73446100Y-60205607D01*
X73430962Y-60253781D01*
X73407441Y-60274194D01*
X73373956Y-60272672D01*
X73328923Y-60255039D01*
X73270761Y-60227121D01*
X73258332Y-60221164D01*
X73206578Y-60192006D01*
X73179550Y-60157314D01*
X73169207Y-60099470D01*
X73167509Y-60000857D01*
X73167433Y-59823793D01*
X72985038Y-59823793D01*
X72872840Y-59818880D01*
X72784620Y-59798953D01*
X72711358Y-59758678D01*
X72705896Y-59754741D01*
X72631558Y-59688243D01*
X72579823Y-59607908D01*
X72547196Y-59502758D01*
X72530182Y-59361815D01*
X72526030Y-59202588D01*
X72817241Y-59202588D01*
X72817291Y-59229276D01*
X72820064Y-59349738D01*
X72828967Y-59428484D01*
X72846617Y-59479618D01*
X72875632Y-59517241D01*
X72877440Y-59519038D01*
X72948753Y-59567720D01*
X73017865Y-59562921D01*
X73095925Y-59503971D01*
X73115019Y-59483823D01*
X73143142Y-59442515D01*
X73159000Y-59388787D01*
X73166009Y-59307326D01*
X73167586Y-59182821D01*
X73166220Y-59107445D01*
X73151402Y-58970362D01*
X73117579Y-58880548D01*
X73061389Y-58831460D01*
X72979472Y-58816552D01*
X72944956Y-58819729D01*
X72885235Y-58851254D01*
X72845752Y-58921505D01*
X72823942Y-59036583D01*
X72817241Y-59202588D01*
X72526030Y-59202588D01*
X72525287Y-59174101D01*
X72526371Y-59037122D01*
X72531307Y-58933364D01*
X72542272Y-58861412D01*
X72561438Y-58807500D01*
X72590977Y-58757864D01*
X72618092Y-58719931D01*
X72716550Y-58617522D01*
X72828100Y-58561903D01*
X72968246Y-58544297D01*
X73128635Y-58561847D01*
X73267288Y-58624797D01*
X73376951Y-58735824D01*
X73385218Y-58747578D01*
X73404499Y-58778813D01*
X73419269Y-58814507D01*
X73430254Y-58862364D01*
X73438174Y-58930087D01*
X73443753Y-59025382D01*
X73447713Y-59155952D01*
X73448188Y-59182821D01*
X73450778Y-59329502D01*
X73453668Y-59553736D01*
G37*
X73453668Y-59553736D02*
X73454471Y-59618785D01*
X73457040Y-59836260D01*
X73457556Y-60002672D01*
X73454437Y-60123846D01*
X73446100Y-60205607D01*
X73430962Y-60253781D01*
X73407441Y-60274194D01*
X73373956Y-60272672D01*
X73328923Y-60255039D01*
X73270761Y-60227121D01*
X73258332Y-60221164D01*
X73206578Y-60192006D01*
X73179550Y-60157314D01*
X73169207Y-60099470D01*
X73167509Y-60000857D01*
X73167433Y-59823793D01*
X72985038Y-59823793D01*
X72872840Y-59818880D01*
X72784620Y-59798953D01*
X72711358Y-59758678D01*
X72705896Y-59754741D01*
X72631558Y-59688243D01*
X72579823Y-59607908D01*
X72547196Y-59502758D01*
X72530182Y-59361815D01*
X72526030Y-59202588D01*
X72817241Y-59202588D01*
X72817291Y-59229276D01*
X72820064Y-59349738D01*
X72828967Y-59428484D01*
X72846617Y-59479618D01*
X72875632Y-59517241D01*
X72877440Y-59519038D01*
X72948753Y-59567720D01*
X73017865Y-59562921D01*
X73095925Y-59503971D01*
X73115019Y-59483823D01*
X73143142Y-59442515D01*
X73159000Y-59388787D01*
X73166009Y-59307326D01*
X73167586Y-59182821D01*
X73166220Y-59107445D01*
X73151402Y-58970362D01*
X73117579Y-58880548D01*
X73061389Y-58831460D01*
X72979472Y-58816552D01*
X72944956Y-58819729D01*
X72885235Y-58851254D01*
X72845752Y-58921505D01*
X72823942Y-59036583D01*
X72817241Y-59202588D01*
X72526030Y-59202588D01*
X72525287Y-59174101D01*
X72526371Y-59037122D01*
X72531307Y-58933364D01*
X72542272Y-58861412D01*
X72561438Y-58807500D01*
X72590977Y-58757864D01*
X72618092Y-58719931D01*
X72716550Y-58617522D01*
X72828100Y-58561903D01*
X72968246Y-58544297D01*
X73128635Y-58561847D01*
X73267288Y-58624797D01*
X73376951Y-58735824D01*
X73385218Y-58747578D01*
X73404499Y-58778813D01*
X73419269Y-58814507D01*
X73430254Y-58862364D01*
X73438174Y-58930087D01*
X73443753Y-59025382D01*
X73447713Y-59155952D01*
X73448188Y-59182821D01*
X73450778Y-59329502D01*
X73453668Y-59553736D01*
G36*
X67210872Y-58655536D02*
G01*
X67220090Y-58660638D01*
X67295381Y-58719080D01*
X67362698Y-58794215D01*
X67374439Y-58811196D01*
X67396883Y-58850825D01*
X67412918Y-58897858D01*
X67423945Y-58962492D01*
X67431365Y-59054923D01*
X67436579Y-59185349D01*
X67440989Y-59363965D01*
X67441614Y-59394162D01*
X67443620Y-59589941D01*
X67440792Y-59728603D01*
X67433088Y-59811103D01*
X67420466Y-59838391D01*
X67382267Y-59830220D01*
X67317374Y-59805463D01*
X67302094Y-59798223D01*
X67278227Y-59781835D01*
X67261769Y-59754893D01*
X67251005Y-59707833D01*
X67244219Y-59631088D01*
X67239693Y-59515095D01*
X67235713Y-59350287D01*
X67234622Y-59302112D01*
X67230407Y-59149960D01*
X67224936Y-59043476D01*
X67216554Y-58972565D01*
X67203606Y-58927129D01*
X67184439Y-58897072D01*
X67157398Y-58872296D01*
X67077337Y-58828861D01*
X66978846Y-58820498D01*
X66890719Y-58853734D01*
X66827314Y-58922548D01*
X66802988Y-59020920D01*
X66802311Y-59047658D01*
X66789024Y-59096065D01*
X66749796Y-59103450D01*
X66672983Y-59074624D01*
X66655192Y-59065378D01*
X66607109Y-59011006D01*
X66606157Y-58930161D01*
X66651968Y-58818352D01*
X66693990Y-58757419D01*
X66801435Y-58670859D01*
X66934057Y-58621920D01*
X67075867Y-58615260D01*
X67210872Y-58655536D01*
G37*
X67210872Y-58655536D02*
X67220090Y-58660638D01*
X67295381Y-58719080D01*
X67362698Y-58794215D01*
X67374439Y-58811196D01*
X67396883Y-58850825D01*
X67412918Y-58897858D01*
X67423945Y-58962492D01*
X67431365Y-59054923D01*
X67436579Y-59185349D01*
X67440989Y-59363965D01*
X67441614Y-59394162D01*
X67443620Y-59589941D01*
X67440792Y-59728603D01*
X67433088Y-59811103D01*
X67420466Y-59838391D01*
X67382267Y-59830220D01*
X67317374Y-59805463D01*
X67302094Y-59798223D01*
X67278227Y-59781835D01*
X67261769Y-59754893D01*
X67251005Y-59707833D01*
X67244219Y-59631088D01*
X67239693Y-59515095D01*
X67235713Y-59350287D01*
X67234622Y-59302112D01*
X67230407Y-59149960D01*
X67224936Y-59043476D01*
X67216554Y-58972565D01*
X67203606Y-58927129D01*
X67184439Y-58897072D01*
X67157398Y-58872296D01*
X67077337Y-58828861D01*
X66978846Y-58820498D01*
X66890719Y-58853734D01*
X66827314Y-58922548D01*
X66802988Y-59020920D01*
X66802311Y-59047658D01*
X66789024Y-59096065D01*
X66749796Y-59103450D01*
X66672983Y-59074624D01*
X66655192Y-59065378D01*
X66607109Y-59011006D01*
X66606157Y-58930161D01*
X66651968Y-58818352D01*
X66693990Y-58757419D01*
X66801435Y-58670859D01*
X66934057Y-58621920D01*
X67075867Y-58615260D01*
X67210872Y-58655536D01*
G36*
X68179995Y-58643674D02*
G01*
X68280355Y-58702191D01*
X68324505Y-58747784D01*
X68409347Y-58884072D01*
X68437931Y-59032658D01*
X68437931Y-59134882D01*
X68343963Y-59095372D01*
X68278977Y-59055504D01*
X68227763Y-58972734D01*
X68222504Y-58955669D01*
X68165903Y-58868724D01*
X68080594Y-58821758D01*
X67982641Y-58819741D01*
X67888106Y-58867644D01*
X67873993Y-58879998D01*
X67826797Y-58933683D01*
X67819003Y-58980488D01*
X67854706Y-59026446D01*
X67938003Y-59077588D01*
X68072988Y-59139948D01*
X68082118Y-59143897D01*
X68231969Y-59213772D01*
X68334316Y-59275672D01*
X68397320Y-59337476D01*
X68429138Y-59407062D01*
X68437931Y-59492308D01*
X68426409Y-59586816D01*
X68368228Y-59707785D01*
X68265875Y-59794688D01*
X68191843Y-59820778D01*
X68087367Y-59835055D01*
X67985917Y-59832006D01*
X67913472Y-59810467D01*
X67905777Y-59805104D01*
X67885341Y-59767632D01*
X67899522Y-59701591D01*
X67924161Y-59649753D01*
X67963670Y-59628172D01*
X68038602Y-59629246D01*
X68142630Y-59623055D01*
X68210605Y-59580311D01*
X68233563Y-59501189D01*
X68233542Y-59498916D01*
X68219629Y-59452986D01*
X68172303Y-59410845D01*
X68080287Y-59362272D01*
X67955151Y-59303790D01*
X67872268Y-59271975D01*
X67824420Y-59274025D01*
X67802063Y-59316051D01*
X67795649Y-59404162D01*
X67795632Y-59544469D01*
X67794917Y-59631081D01*
X67791635Y-59738041D01*
X67786300Y-59811250D01*
X67779585Y-59838391D01*
X67777790Y-59838206D01*
X67738982Y-59823498D01*
X67674709Y-59792456D01*
X67585880Y-59746521D01*
X67596436Y-59332628D01*
X67597171Y-59305179D01*
X67605555Y-59112517D01*
X67620366Y-58967309D01*
X67644629Y-58859887D01*
X67681364Y-58780584D01*
X67733597Y-58719730D01*
X67804348Y-58667658D01*
X67805657Y-58666842D01*
X67920056Y-58624360D01*
X68052365Y-58617184D01*
X68179995Y-58643674D01*
G37*
X68179995Y-58643674D02*
X68280355Y-58702191D01*
X68324505Y-58747784D01*
X68409347Y-58884072D01*
X68437931Y-59032658D01*
X68437931Y-59134882D01*
X68343963Y-59095372D01*
X68278977Y-59055504D01*
X68227763Y-58972734D01*
X68222504Y-58955669D01*
X68165903Y-58868724D01*
X68080594Y-58821758D01*
X67982641Y-58819741D01*
X67888106Y-58867644D01*
X67873993Y-58879998D01*
X67826797Y-58933683D01*
X67819003Y-58980488D01*
X67854706Y-59026446D01*
X67938003Y-59077588D01*
X68072988Y-59139948D01*
X68082118Y-59143897D01*
X68231969Y-59213772D01*
X68334316Y-59275672D01*
X68397320Y-59337476D01*
X68429138Y-59407062D01*
X68437931Y-59492308D01*
X68426409Y-59586816D01*
X68368228Y-59707785D01*
X68265875Y-59794688D01*
X68191843Y-59820778D01*
X68087367Y-59835055D01*
X67985917Y-59832006D01*
X67913472Y-59810467D01*
X67905777Y-59805104D01*
X67885341Y-59767632D01*
X67899522Y-59701591D01*
X67924161Y-59649753D01*
X67963670Y-59628172D01*
X68038602Y-59629246D01*
X68142630Y-59623055D01*
X68210605Y-59580311D01*
X68233563Y-59501189D01*
X68233542Y-59498916D01*
X68219629Y-59452986D01*
X68172303Y-59410845D01*
X68080287Y-59362272D01*
X67955151Y-59303790D01*
X67872268Y-59271975D01*
X67824420Y-59274025D01*
X67802063Y-59316051D01*
X67795649Y-59404162D01*
X67795632Y-59544469D01*
X67794917Y-59631081D01*
X67791635Y-59738041D01*
X67786300Y-59811250D01*
X67779585Y-59838391D01*
X67777790Y-59838206D01*
X67738982Y-59823498D01*
X67674709Y-59792456D01*
X67585880Y-59746521D01*
X67596436Y-59332628D01*
X67597171Y-59305179D01*
X67605555Y-59112517D01*
X67620366Y-58967309D01*
X67644629Y-58859887D01*
X67681364Y-58780584D01*
X67733597Y-58719730D01*
X67804348Y-58667658D01*
X67805657Y-58666842D01*
X67920056Y-58624360D01*
X68052365Y-58617184D01*
X68179995Y-58643674D01*
G36*
X62247744Y-59308946D02*
G01*
X62240612Y-59462254D01*
X62221948Y-59574441D01*
X62187537Y-59657554D01*
X62133162Y-59723641D01*
X62054610Y-59784747D01*
X62004630Y-59812535D01*
X61924513Y-59831251D01*
X61811970Y-59829774D01*
X61749050Y-59823845D01*
X61673153Y-59805742D01*
X61612487Y-59766391D01*
X61541912Y-59693066D01*
X61532482Y-59682356D01*
X61469034Y-59599938D01*
X61438762Y-59528156D01*
X61431034Y-59443034D01*
X61431034Y-59317946D01*
X61518447Y-59350940D01*
X61582175Y-59389509D01*
X61637567Y-59480008D01*
X61649131Y-59508983D01*
X61713788Y-59591041D01*
X61801804Y-59632347D01*
X61897637Y-59628633D01*
X61985747Y-59575632D01*
X62016028Y-59542582D01*
X62043489Y-59492720D01*
X62034899Y-59447416D01*
X61985463Y-59400790D01*
X61890389Y-59346958D01*
X61744885Y-59280039D01*
X61445632Y-59149056D01*
X61437691Y-59019298D01*
X61440676Y-58936649D01*
X61635652Y-58936649D01*
X61650453Y-58987815D01*
X61717797Y-59042442D01*
X61840027Y-59104597D01*
X61860253Y-59113601D01*
X61956970Y-59155493D01*
X62029334Y-59184958D01*
X62062961Y-59196092D01*
X62068056Y-59187896D01*
X62070101Y-59137853D01*
X62062812Y-59057414D01*
X62044452Y-58978753D01*
X61987188Y-58879651D01*
X61904524Y-58823808D01*
X61805784Y-58816250D01*
X61700289Y-58862000D01*
X61671053Y-58884876D01*
X61635652Y-58936649D01*
X61440676Y-58936649D01*
X61441196Y-58922255D01*
X61485336Y-58799617D01*
X61541050Y-58732034D01*
X61656561Y-58656540D01*
X61793588Y-58618403D01*
X61935237Y-58621422D01*
X62064617Y-58669393D01*
X62093099Y-58687813D01*
X62158428Y-58744811D01*
X62203106Y-58816916D01*
X62230641Y-58914853D01*
X62244541Y-59049351D01*
X62246378Y-59137853D01*
X62248313Y-59231136D01*
X62247744Y-59308946D01*
G37*
X62247744Y-59308946D02*
X62240612Y-59462254D01*
X62221948Y-59574441D01*
X62187537Y-59657554D01*
X62133162Y-59723641D01*
X62054610Y-59784747D01*
X62004630Y-59812535D01*
X61924513Y-59831251D01*
X61811970Y-59829774D01*
X61749050Y-59823845D01*
X61673153Y-59805742D01*
X61612487Y-59766391D01*
X61541912Y-59693066D01*
X61532482Y-59682356D01*
X61469034Y-59599938D01*
X61438762Y-59528156D01*
X61431034Y-59443034D01*
X61431034Y-59317946D01*
X61518447Y-59350940D01*
X61582175Y-59389509D01*
X61637567Y-59480008D01*
X61649131Y-59508983D01*
X61713788Y-59591041D01*
X61801804Y-59632347D01*
X61897637Y-59628633D01*
X61985747Y-59575632D01*
X62016028Y-59542582D01*
X62043489Y-59492720D01*
X62034899Y-59447416D01*
X61985463Y-59400790D01*
X61890389Y-59346958D01*
X61744885Y-59280039D01*
X61445632Y-59149056D01*
X61437691Y-59019298D01*
X61440676Y-58936649D01*
X61635652Y-58936649D01*
X61650453Y-58987815D01*
X61717797Y-59042442D01*
X61840027Y-59104597D01*
X61860253Y-59113601D01*
X61956970Y-59155493D01*
X62029334Y-59184958D01*
X62062961Y-59196092D01*
X62068056Y-59187896D01*
X62070101Y-59137853D01*
X62062812Y-59057414D01*
X62044452Y-58978753D01*
X61987188Y-58879651D01*
X61904524Y-58823808D01*
X61805784Y-58816250D01*
X61700289Y-58862000D01*
X61671053Y-58884876D01*
X61635652Y-58936649D01*
X61440676Y-58936649D01*
X61441196Y-58922255D01*
X61485336Y-58799617D01*
X61541050Y-58732034D01*
X61656561Y-58656540D01*
X61793588Y-58618403D01*
X61935237Y-58621422D01*
X62064617Y-58669393D01*
X62093099Y-58687813D01*
X62158428Y-58744811D01*
X62203106Y-58816916D01*
X62230641Y-58914853D01*
X62244541Y-59049351D01*
X62246378Y-59137853D01*
X62248313Y-59231136D01*
X62247744Y-59308946D01*
D10*
X50927752Y-70163000D02*
X49505248Y-70163000D01*
X50927752Y-71983000D02*
X49505248Y-71983000D01*
X81080267Y-60763000D02*
X80787733Y-60763000D01*
X81080267Y-61783000D02*
X80787733Y-61783000D01*
X58429000Y-50673000D02*
G75*
G03*
X58429000Y-50673000I-1450000J0D01*
G01*
X101629000Y-49273000D02*
G75*
G03*
X101629000Y-49273000I-1450000J0D01*
G01*
X81607752Y-72683000D02*
X80185248Y-72683000D01*
X81607752Y-70863000D02*
X80185248Y-70863000D01*
X40946500Y-65973000D02*
G75*
G03*
X40946500Y-65973000I-1450000J0D01*
G01*
X50400267Y-63183000D02*
X50107733Y-63183000D01*
X50400267Y-62163000D02*
X50107733Y-62163000D01*
X42007752Y-70163000D02*
X40585248Y-70163000D01*
X42007752Y-71983000D02*
X40585248Y-71983000D01*
X41442767Y-58763000D02*
X41150233Y-58763000D01*
X41442767Y-59783000D02*
X41150233Y-59783000D01*
X84109000Y-55473000D02*
G75*
G03*
X84109000Y-55473000I-1450000J0D01*
G01*
X59162767Y-59883000D02*
X58870233Y-59883000D01*
X59162767Y-58863000D02*
X58870233Y-58863000D01*
X44546500Y-65973000D02*
G75*
G03*
X44546500Y-65973000I-1450000J0D01*
G01*
X98800267Y-59683000D02*
X98507733Y-59683000D01*
X98800267Y-58663000D02*
X98507733Y-58663000D01*
X90000267Y-60683000D02*
X89707733Y-60683000D01*
X90000267Y-59663000D02*
X89707733Y-59663000D01*
X81080267Y-60683000D02*
X80787733Y-60683000D01*
X81080267Y-59663000D02*
X80787733Y-59663000D01*
X59200267Y-62263000D02*
X58907733Y-62263000D01*
X59200267Y-63283000D02*
X58907733Y-63283000D01*
X59200267Y-62183000D02*
X58907733Y-62183000D01*
X59200267Y-61163000D02*
X58907733Y-61163000D01*
X53466500Y-65973000D02*
G75*
G03*
X53466500Y-65973000I-1450000J0D01*
G01*
X50400267Y-62083000D02*
X50107733Y-62083000D01*
X50400267Y-61063000D02*
X50107733Y-61063000D01*
X40709000Y-50573000D02*
G75*
G03*
X40709000Y-50573000I-1450000J0D01*
G01*
X98800267Y-61883000D02*
X98507733Y-61883000D01*
X98800267Y-60863000D02*
X98507733Y-60863000D01*
X98229000Y-55573000D02*
G75*
G03*
X98229000Y-55573000I-1450000J0D01*
G01*
X99327752Y-68863000D02*
X97905248Y-68863000D01*
X99327752Y-70683000D02*
X97905248Y-70683000D01*
X53429000Y-56873000D02*
G75*
G03*
X53429000Y-56873000I-1450000J0D01*
G01*
X58629000Y-56973000D02*
G75*
G03*
X58629000Y-56973000I-1450000J0D01*
G01*
X81042767Y-57363000D02*
X80750233Y-57363000D01*
X81042767Y-58383000D02*
X80750233Y-58383000D01*
M02*
